<svg xmlns="http://www.w3.org/2000/svg" xmlns:xlink="http://www.w3.org/1999/xlink" width="103" height="67" viewBox="0 0 103 67"><defs><clipPath id="a"><rect width="74.921" height="33.298" fill="#fff" stroke="#707070" stroke-width="1"/></clipPath></defs><g transform="translate(0.03 0.403)" style="mix-blend-mode:luminosity;isolation:isolate"><g opacity="0"><rect width="103" height="67" transform="translate(-0.03 -0.403)" fill="#fff"/><path d="M1,1V66H102V1H1M0,0H103V67H0Z" transform="translate(-0.03 -0.403)" fill="#707070"/></g><g transform="translate(15.568 16.649)" clip-path="url(#a)"><path d="M37,17.18v0h5.918v0A16.771,16.771,0,0,0,11.845,8.416V.4H5.922L0,6.322H5.92v27.64h5.923V25.94a16.706,16.706,0,0,1-2.485-8.757A13.755,13.755,0,0,1,12.8,8.078c.052-.057.107-.12.161-.177a13.538,13.538,0,0,1,1.136-1.121c.36-.312.734-.611,1.124-.887.033-.021.063-.047.093-.071a13.8,13.8,0,0,1,1.365-.835c.019-.011.039-.019.057-.028a13.692,13.692,0,0,1,1.316-.6c.136-.055.27-.1.409-.151.346-.128.694-.24,1.054-.336.166-.047.333-.091.5-.131.36-.084.723-.151,1.09-.205.156-.024.312-.052.473-.073a14.064,14.064,0,0,1,1.6-.1,13.849,13.849,0,0,1,2.355.21c.1.019.2.024.3.044.133.027.26.065.39.093a13.678,13.678,0,0,1,3.254,1.165l.013.008c.372.19.737.4,1.09.625.033.021.059.043.091.065.322.208.639.426.944.663.028.021.052.044.079.063.305.24.6.489.884.751.027.021.047.049.071.071.284.265.557.538.814.827.028.033.055.071.084.1.25.284.489.573.715.876.1.128.18.268.273.4.145.213.3.421.437.642s.257.472.388.7c.071.136.153.268.221.409.131.262.242.535.354.811.052.12.112.234.158.36.145.388.276.783.388,1.187a.189.189,0,0,1,.013.039,13.708,13.708,0,0,1,.458,2.591A10.947,10.947,0,0,1,37,17.18m27.58,4.935V.4H63.6L36.941,27.053H58.669v6.914h5.915V27.053h6.91V22.115Zm-5.916,0H48.79l9.878-9.864Z" transform="translate(0 -0.398)" fill="#686868"/><path d="M34.609,26.311l5.344-5.344a16.658,16.658,0,0,0,.635-4.526H34.673a10.855,10.855,0,1,1-.057-1.119A13.817,13.817,0,0,0,7.027,16.442a16.769,16.769,0,0,0,30.336,9.871H34.609Z" transform="translate(2.332 0.341)" fill="#ff7800"/><path d="M72.5,23.513A33.4,33.4,0,0,1,62.388,33.662L60,31.381Q74.4,23.267,74.82,2.618v-2h3.2v2q0,.7-.035,1.369h.035a32.178,32.178,0,0,0,1.755,10.5q3.089,8.991,13.2,17.314l-2.669,1.931q-2.248-2.051-4.39-4.214a37.642,37.642,0,0,1-9.482-15.593A39.171,39.171,0,0,1,72.5,23.513Zm30.66-15.136V5.287h11.556V.581h3.335V5.287h14.435a1.272,1.272,0,0,1,.633.14q.561.352.562,1.616-.025,6.726-.177,13.451-.316,9.868-3.582,12.011-2.985,2-11.2-.352l-.14-3.723q7.41,2.387,9.517.914a5.23,5.23,0,0,0,1.545-2.564,27.684,27.684,0,0,0,.739-6.744q.21-10.956-.036-11.413a.43.43,0,0,0-.385-.246H117.916a43.821,43.821,0,0,1-2.74,12.081A30.321,30.321,0,0,1,104.5,33.311l-2.492-2.354Q113.737,24,114.58,8.376H103.163Zm43.27.422L143.87,6.9q5.654-3.055,7.445-6.146l2.773.176a3.548,3.548,0,0,1-.245.527q2.435,1.812,5.021,3.407L156.794,7.15a53.559,53.559,0,0,1-4.285-3.512A27.548,27.548,0,0,1,146.433,8.8Zm3.407,9.692h-4.916V15.717h4.916V12.029h-3.933V9.255h11.131v2.774h-4.285v3.688h5.268v2.774h-5.268V28.676q3.758-.843,4.953-1.159l.492,2.845a136.9,136.9,0,0,1-13.626,2.528l-.281-2.88q2.563-.316,5.549-.773V18.492Zm-2.424,1.861a61.772,61.772,0,0,1,1.02,7.375l-2.776.105a40.927,40.927,0,0,0-.983-7.164Zm10.29.317a58.625,58.625,0,0,1-1.231,5.759l-2.492-.807a28.319,28.319,0,0,0,1.193-5.583Zm17.209-1.195,1.545,2.354a41.484,41.484,0,0,1-5.726,3.618,23.066,23.066,0,0,0,6.569,6.463l-2.528,1.931q-4-3.161-4.425-4a19.5,19.5,0,0,1-4.566-12.186h-3.057V29.8a39.913,39.913,0,0,0,5.164-1.65l.843,2.809A52.741,52.741,0,0,1,157.918,33.8l-.669-2.88q1.3-.246,2.565-.457V2.09a.745.745,0,0,1,.843-.843h13.7q.877,0,.876.843V16.735a.827.827,0,0,1-.914.914H168.7a22.494,22.494,0,0,0,.879,5.2,39.907,39.907,0,0,0,5.338-3.371Zm-2.6-11.343V4.69a.626.626,0,0,0-.7-.667H163.43c-.469.024-.7.257-.7.7V8.132h9.589Zm-9.589,2.774v3.968h9.13a.4.4,0,0,0,.458-.457V10.906ZM188.367,21.9l-2.492-1.967a27.418,27.418,0,0,0,7.83-10.4l2.776,1.264a51.766,51.766,0,0,1-2.705,4.882V33.662h-3.054V19.65q-1.131,1.171-2.355,2.248Zm6.85-20.335q-2.809,6.743-6.5,10.009l-2.6-1.791A22.9,22.9,0,0,0,192.371.476l2.846,1.088Zm2.6,12.011V10.52h21.527v3.055h-5.619V29.731a3.558,3.558,0,0,1-1.616,3.09q-2.915,1.9-10.606-.352l.071-3.2a47.944,47.944,0,0,0,5.374,1.264,4.45,4.45,0,0,0,3.406-.6,1.328,1.328,0,0,0,.317-1.019V13.576H197.816ZM217.938,2.09V5.146h-19V2.09h19Z" transform="translate(19.916 -0.372)" fill="#686868"/></g></g></svg>