<svg xmlns="http://www.w3.org/2000/svg" xmlns:xlink="http://www.w3.org/1999/xlink" width="106" height="67" viewBox="0 0 106 67"><defs><clipPath id="a"><rect width="73" height="33" transform="translate(-0.136 0.434)" fill="#fff" stroke="#707070" stroke-width="1"/></clipPath></defs><g transform="translate(0 0.403)" style="mix-blend-mode:luminosity;isolation:isolate"><g opacity="0"><rect width="106" height="67" transform="translate(0 -0.403)" fill="#fff"/><path d="M1,1V66H105V1H1M0,0H106V67H0Z" transform="translate(0 -0.403)" fill="#707070"/></g><g transform="translate(15.136 18.163)" clip-path="url(#a)"><g transform="translate(3.019 0.415)"><path d="M12.528,14.153H12.39l.935-3.553-7.59,3.729L4.322,19.691a7.617,7.617,0,0,1,6.05-.737c.127.033.247.083.368.121a6.5,6.5,0,0,1,1.463.632,6.4,6.4,0,0,1,.715.468h.005c.1.082.209.165.308.247A6.125,6.125,0,0,1,15.6,26.814a6.1,6.1,0,0,1-5.192,4.2,6.584,6.584,0,0,1-1.826.055,8.471,8.471,0,0,1-1.54-.275,7.672,7.672,0,0,1-4.57-3.415c-.1-.165-.115-.2-.115-.2l-.7,2.651L1,32.33l.1.143a11.859,11.859,0,1,0,11.429-18.3Z" transform="translate(0 -4.761)" fill="#232a35"/><path d="M12.14.02,9.61,9.568,17.2,5.839h6.924L29.316.02Z" transform="translate(-3.874)" fill="#fa1e50"/><path d="M47.43,5.833l4.174.005L48.91,33.008h6.77L58.953.02H52.611Z" transform="translate(-20.894)" fill="#232a35"/><path d="M95.785,12.824a9.181,9.181,0,1,0-17.578-2.75,9.359,9.359,0,0,0,.7,2.755,11.859,11.859,0,1,0,20.251,9.388q.049-.52.05-1.056A11.83,11.83,0,0,0,95.785,12.824ZM81.859,21.162a5.494,5.494,0,1,1,10.989,0v.11a5.5,5.5,0,0,1-10.989-.022Zm2.3-12.133a3.19,3.19,0,1,1,6.38,0,3.135,3.135,0,0,1-.077.687,3.187,3.187,0,0,1-6.226,0A3.136,3.136,0,0,1,84.164,9.029Z" transform="translate(-33.521 -0.001)" fill="#232a35"/></g></g></g></svg>