<svg xmlns="http://www.w3.org/2000/svg" xmlns:xlink="http://www.w3.org/1999/xlink" width="260.5" height="300.5" viewBox="0 0 260.5 300.5"><defs><linearGradient id="a" x1="0.5" x2="0.5" y2="1" gradientUnits="objectBoundingBox"><stop offset="0" stop-color="#db2d2e"/><stop offset="1" stop-color="#e2626a"/></linearGradient></defs><g transform="translate(-1004.5 -318)"><rect width="260" height="300" transform="translate(1005 318)" fill="url(#a)"/><g transform="translate(1005 420.578)"><g transform="translate(0)" opacity="0.24"><path d="M0,197.422V99.009a127.59,127.59,0,0,1,232,98.413Z" fill="#fff"/><path d="M232.393,197.922H-.5V98.866l.076-.122A128.684,128.684,0,0,1,45.2,55.056,127.464,127.464,0,0,1,108.218,38.5a128.99,128.99,0,0,1,25.805,2.6A127.346,127.346,0,0,1,179.81,60.369,128.418,128.418,0,0,1,226.2,116.705a127.407,127.407,0,0,1,7.461,24.036,129.168,129.168,0,0,1-1.176,56.8ZM.5,196.922H231.61a128.177,128.177,0,0,0,1.073-55.98,126.348,126.348,0,0,0-19.116-45.428,127.418,127.418,0,0,0-55.9-46.03,126.4,126.4,0,0,0-23.847-7.4,128.115,128.115,0,0,0-58.469,1.711,126.863,126.863,0,0,0-55.008,31A127.714,127.714,0,0,0,.5,99.153Z" fill="rgba(0,0,0,0)"/></g><g transform="translate(0 54.729)"><g transform="translate(30.854 66.642)"><path d="M1241.782,2437.712l1.289,27.612-8.485,21.387-1.627-.7,3.71-42.077Z" transform="translate(-1232.959 -2437.712)" fill="#011721"/></g><g transform="translate(25.081 121.315)"><path d="M1123.032,3492.547l-1.4,2.56a.562.562,0,0,0,.493.833h8.17a.562.562,0,0,0,.281-1.049l-4.054-2.343Z" transform="translate(-1121.559 -3492.547)" fill="#fff"/></g><g transform="translate(26.683 114.268)"><path d="M1155.076,3356.58l-2.37,1.7a.562.562,0,0,0,.086.964l7.371,3.524a.562.562,0,0,0,.707-.825l-2.6-3.994Z" transform="translate(-1152.471 -3356.58)" fill="#fff"/></g><g transform="translate(25.846 33.348)"><path d="M1182.886,1795.345l-35.975,1.046s-4.378-.426-6.315,5c0,0-6.354,21.576-3.564,81.923h3.487s9.483-38.325,11.093-72.665c.047-1.006.136-2.01.277-3.007l.234-1.656a4.37,4.37,0,0,1,3.6-3.7l27.169-4.618Z" transform="translate(-1136.324 -1795.345)" fill="#05293c"/></g><g transform="translate(72.408 33.176)"><path d="M2034.676,1792.2l4.532-.171a.3.3,0,0,1,.209.525h0a1.147,1.147,0,0,1-.757.286h0a1.149,1.149,0,0,0-.981.537,2.278,2.278,0,0,1-3,1.148Z" transform="translate(-2034.676 -1792.031)" fill="#011721"/></g><g transform="translate(26.574 28.822)"><path d="M1161.008,1713.027l.068-.189a1.142,1.142,0,0,1,1.074-.755h0a.525.525,0,0,0,.425-.217l.861-1.186a.358.358,0,0,0-.039-.464,7.492,7.492,0,0,1-1.321-2.185s-3.861.7-2.943,5.62l-.058.009c-1.425.241-3.821,1.219-5.151,4.941,0,0-2.324,7.893-3.544,27.48,2.01.985,6.161,2.058,13.1-.23.661-5.97,1.177-12.04,1.456-17.991.047-1.006.136-2.01.277-3.007l.234-1.656a4.37,4.37,0,0,1,3.6-3.7l27.169-4.618v-2.325l-34.812,1.016A.407.407,0,0,1,1161.008,1713.027Z" transform="translate(-1150.381 -1708.031)" fill="#fff"/></g><g transform="translate(31.594 26.102)"><path d="M1254.464,1656.416c-.012.806-.35,2.56-2.716,4.373,0,0,.2,2.36-.793,3.1,0,0-4.09-1.545-3.708-4.648a3.59,3.59,0,0,1,3.658-3.408c1.776-.035,1.943-.248,3.1-.284C1254.321,1655.536,1254.469,1656.1,1254.464,1656.416Z" transform="translate(-1247.222 -1655.546)" fill="#011721"/></g><g transform="translate(64.427 2.631)"><path d="M1885.923,1256.08c3.352-5.9,12.171-16.031,23.455-26.562s22-18.632,28.115-21.569c1.377-2.423,1.833-4.133,1.155-4.859-2.329-2.5-17.123,7.527-33.043,22.386S1878.667,1254.4,1881,1256.9C1881.673,1257.623,1883.41,1257.287,1885.923,1256.08Z" transform="translate(-1880.685 -1202.708)" fill="#750b0b"/></g><g transform="translate(61.926 0)" opacity="0.17"><ellipse cx="39.43" cy="6.18" rx="39.43" ry="6.18" transform="translate(0 53.808) rotate(-43.025)" fill="#fff"/></g><g transform="translate(64.427 2.631)"><path d="M1905.6,1225.475c-15.92,14.859-26.938,28.927-24.609,31.422s17.123-7.527,33.043-22.386,26.938-28.927,24.609-31.422S1921.525,1210.616,1905.6,1225.475Zm7.311,7.834c-15.35,14.327-29.3,24.326-31.161,22.334s8.865-15.449,24.215-29.775,29.514-24.1,31.373-22.106S1928.266,1218.982,1912.916,1233.308Z" transform="translate(-1880.685 -1202.708)" fill="#ffabab"/></g><g transform="translate(64.737 3.012)"><path d="M1919.72,1241.481c-15.92,14.859-30.714,24.881-33.043,22.386l4.625,4.955c2.329,2.5,17.123-7.527,33.043-22.386s26.938-28.927,24.609-31.422l-4.625-4.955C1946.658,1212.554,1935.64,1226.622,1919.72,1241.481Z" transform="translate(-1886.677 -1210.059)" fill="#a51c1c"/></g><g transform="translate(0 58.447)"><path d="M704.787,2279.59l-3.691,3.445a6.128,6.128,0,0,0-7.406.726l-54.075,50.469a6.13,6.13,0,0,0-.3,8.665h0a6.13,6.13,0,0,0,8.665.3l54.075-50.469a6.127,6.127,0,0,0,1.235-7.339l3.691-3.444Z" transform="translate(-637.668 -2279.59)" fill="#a51c1c"/></g><g transform="translate(1.649 59.622)"><path d="M678.143,2364.7l54.075-50.469a6.128,6.128,0,0,0,1.235-7.339l3.691-3.444-1.1-1.176L669.478,2364.4A6.13,6.13,0,0,0,678.143,2364.7Z" transform="translate(-669.478 -2302.27)" fill="#961717"/></g><g transform="translate(53.869 66.358)"><path d="M1678.382,2432.233l2.238,1.453.145,3.545s-3.545.057-3.778-3.254Z" transform="translate(-1676.987 -2432.233)" fill="#011721"/></g><g transform="translate(28.25 119.693)"><path d="M1185.134,3461.758h-2.17a.259.259,0,1,1,0-.518h2.17a.259.259,0,1,1,0,.518Z" transform="translate(-1182.705 -3461.24)" fill="#fff"/></g><g transform="translate(32.008 113.145)"><path d="M1256.676,3336.287a.257.257,0,0,1-.151-.049l-1.2-.864a.259.259,0,0,1,.3-.421l1.2.864a.259.259,0,0,1-.152.47Z" transform="translate(-1255.216 -3334.905)" fill="#fff"/></g><g transform="translate(4.932 109.36)"><path d="M732.817,3262.824a10.993,10.993,0,0,0,8.282,9.042l1.15-1.073s-7.147-1.72-8.423-8.91Z" transform="translate(-732.817 -3261.882)" fill="#011721"/></g><g transform="translate(64.737 34.434)"><path d="M1886.677,1838.681l4.625,4.955c2.329,2.5,17.123-7.527,33.043-22.386l-4.625-4.955C1903.8,1831.154,1889.006,1841.176,1886.677,1838.681Z" transform="translate(-1886.677 -1816.295)" fill="#961717"/></g><g transform="translate(45.969 70.965)"><path d="M1524.578,2522.141s3.752,5.763,8.675,8.675l1.114-1.04a33.239,33.239,0,0,1-8.679-8.671Z" transform="translate(-1524.578 -2521.106)" fill="#011721"/></g><g transform="translate(26.574 35.673)"><path d="M1163.484,1871.166c.661-5.97,1.177-12.04,1.456-17.991.047-1.006.136-2.01.277-3.007l.234-1.656a4.37,4.37,0,0,1,3.6-3.7l27.169-4.618-27.511,3.038s-10.663,1.3-15.267,14.886a58.839,58.839,0,0,0-3.055,13.275C1152.391,1872.381,1156.542,1873.454,1163.484,1871.166Z" transform="translate(-1150.381 -1840.196)" fill="#eaeaea"/></g><g transform="translate(32.5 39.092)"><path d="M1264.7,1909.763s2.971,14.994,21.369,25.407l1.395-1.744s-11.606-12.583-15.209-27.267Z" transform="translate(-1264.698 -1906.16)" fill="#fff"/></g><g transform="translate(34.582 48.616)"><path d="M1310.855,2098.939a.259.259,0,0,1-.195-.088c-.041-.047-4.115-4.7-5.772-8.571a.259.259,0,0,1,.476-.2c1.625,3.791,5.645,8.386,5.685,8.433a.259.259,0,0,1-.195.43Z" transform="translate(-1304.867 -2089.918)" fill="#011721"/></g><g transform="translate(37.279 35.198)"><path d="M1356.911,1831.034s6.883,14.338,18.506,12.516l1.435.677-1.377,1.743S1362.814,1847.83,1356.911,1831.034Z" transform="translate(-1356.911 -1831.034)" fill="#011721"/></g><g transform="translate(54.983 48.179)"><path d="M1698.622,2083.133h-.007a.129.129,0,0,1-.122-.137l.077-1.386a.127.127,0,0,1,.137-.122.13.13,0,0,1,.122.137l-.078,1.386A.129.129,0,0,1,1698.622,2083.133Z" transform="translate(-1698.492 -2081.488)" fill="#fff"/></g></g><g transform="translate(99.693 56.81)"><path d="M2609.869,1192.1s6.367,6.742,41.824,21.53c0,0-25.888,41.879-46.948,59.579,0,0-12.628,2.677-43.652-21.538C2561.094,1251.667,2591.742,1224.662,2609.869,1192.1Z" transform="translate(-2561.094 -1192.096)" fill="#fff"/><g transform="translate(20.096 16.831)"><g transform="translate(27.776)"><g transform="translate(0 2.799)"><path d="M3490.071,1579.8a.129.129,0,0,1-.065-.017l-5.232-3.037a.131.131,0,0,1-.061-.085.129.129,0,0,1,.021-.1l2.486-3.464c1.383-1.927,3.725-2.787,5.226-1.917a2.382,2.382,0,0,1,1.131,1.616,4.574,4.574,0,0,1-.915,3.489l-2.486,3.464A.129.129,0,0,1,3490.071,1579.8Zm-5.043-3.207,5.007,2.906,2.417-3.368a4.315,4.315,0,0,0,.872-3.283,2.126,2.126,0,0,0-1.008-1.447c-1.386-.805-3.577.023-4.885,1.844Z" transform="translate(-3484.71 -1570.84)" fill="#011721"/></g><g transform="translate(7.259)"><path d="M3625.855,1520.1a1.138,1.138,0,0,1-.576-.146,1.037,1.037,0,0,1-.494-.7,1.927,1.927,0,0,1,.382-1.471,1.828,1.828,0,0,1,2.213-.8,1.037,1.037,0,0,1,.494.7,1.927,1.927,0,0,1-.382,1.471h0A2.139,2.139,0,0,1,3625.855,1520.1Zm.941-3.009a1.878,1.878,0,0,0-1.418.839,1.664,1.664,0,0,0-.339,1.265.781.781,0,0,0,.37.534,1.574,1.574,0,0,0,1.873-.723,1.665,1.665,0,0,0,.339-1.266.783.783,0,0,0-.371-.534A.892.892,0,0,0,3626.8,1517.088Z" transform="translate(-3624.756 -1516.832)" fill="#011721"/></g></g><g transform="translate(50.573 7.045)"><path d="M3930.153,1655.7a.132.132,0,0,1-.057-.013l-5.474-2.689a.13.13,0,0,1-.059-.174.131.131,0,0,1,.174-.059l5.474,2.689a.13.13,0,0,1-.057.246Z" transform="translate(-3924.55 -1652.75)" fill="#011721"/></g><g transform="translate(49.705 8.424)"><path d="M3913.4,1682.311a.13.13,0,0,1-.057-.013l-5.474-2.689a.13.13,0,0,1-.059-.174.132.132,0,0,1,.174-.059l5.474,2.689a.13.13,0,0,1-.057.246Z" transform="translate(-3907.792 -1679.363)" fill="#011721"/></g><g transform="translate(20.769 14.871)"><path d="M3369.79,1815.353a.131.131,0,0,1-.064-.017l-20.147-11.347a.13.13,0,0,1,.127-.226l20.147,11.347a.13.13,0,0,1-.064.242Z" transform="translate(-3349.513 -1803.747)" fill="#011721"/></g><g transform="translate(18.886 17.431)"><path d="M3333.035,1864.616a.128.128,0,0,1-.064-.017l-19.721-11.214a.131.131,0,0,1-.049-.177.129.129,0,0,1,.177-.049l19.721,11.214a.13.13,0,0,1-.064.242Z" transform="translate(-3313.185 -1853.142)" fill="#011721"/></g><g transform="translate(1.238 38.927)"><path d="M2992.546,2279.336a.129.129,0,0,1-.064-.017l-19.72-11.213a.13.13,0,0,1-.049-.177.129.129,0,0,1,.177-.048l19.721,11.213a.13.13,0,0,1-.064.242Z" transform="translate(-2972.696 -2267.863)" fill="#011721"/></g><g transform="translate(0 40.523)"><path d="M2960.822,2305.678a.13.13,0,0,1-.064-.017l-11.883-6.758a.13.13,0,1,1,.129-.225l11.883,6.757a.13.13,0,0,1-.064.242Z" transform="translate(-2948.81 -2298.661)" fill="#011721"/></g><g transform="translate(15.977 31.883)"><g transform="translate(8.735)"><path d="M3433.888,2136.96a.128.128,0,0,1-.065-.017l-8.17-4.739a.129.129,0,1,1,.129-.224l8.17,4.739a.129.129,0,0,1-.064.241Z" transform="translate(-3425.588 -2131.962)" fill="#011721"/></g><g transform="translate(7.279 1.541)"><path d="M3405.8,2166.7a.128.128,0,0,1-.065-.017l-8.169-4.738a.13.13,0,0,1,.13-.224l8.169,4.739a.13.13,0,0,1-.065.241Z" transform="translate(-3397.502 -2161.699)" fill="#011721"/></g><g transform="translate(5.823 3.083)"><path d="M3377.715,2196.435a.126.126,0,0,1-.065-.018l-8.169-4.738a.13.13,0,0,1-.047-.177.129.129,0,0,1,.177-.047l8.169,4.738a.13.13,0,0,1-.065.242Z" transform="translate(-3369.416 -2191.437)" fill="#011721"/></g><g transform="translate(4.368 4.624)"><path d="M3349.63,2226.174a.127.127,0,0,1-.065-.018l-8.169-4.739a.129.129,0,0,1,.13-.224l8.169,4.739a.13.13,0,0,1-.065.242Z" transform="translate(-3341.331 -2221.176)" fill="#011721"/></g><g transform="translate(2.912 6.165)"><path d="M3321.543,2255.91a.13.13,0,0,1-.065-.018l-8.169-4.738a.13.13,0,0,1,.13-.224l8.169,4.739a.13.13,0,0,1-.065.242Z" transform="translate(-3313.244 -2250.912)" fill="#011721"/></g><g transform="translate(1.456 7.707)"><path d="M3293.448,2285.656a.13.13,0,0,1-.065-.017l-8.17-4.739a.13.13,0,0,1,.129-.224l8.17,4.739a.13.13,0,0,1-.065.242Z" transform="translate(-3285.148 -2280.659)" fill="#011721"/></g><g transform="translate(0 9.248)"><path d="M3265.362,2315.395a.127.127,0,0,1-.065-.018l-8.17-4.738a.13.13,0,0,1,.13-.224l8.169,4.738a.13.13,0,0,1-.065.242Z" transform="translate(-3257.063 -2310.397)" fill="#011721"/></g></g><g transform="translate(4.72 25.018)"><g transform="translate(8.735)"><path d="M3216.7,2004.513a.128.128,0,0,1-.065-.017l-8.169-4.738a.129.129,0,0,1-.047-.177.128.128,0,0,1,.177-.047l8.169,4.738a.13.13,0,0,1-.065.242Z" transform="translate(-3208.401 -1999.516)" fill="#011721"/></g><g transform="translate(7.279 1.542)"><path d="M3188.614,2034.26a.128.128,0,0,1-.065-.017l-8.169-4.739a.129.129,0,0,1,.13-.224l8.169,4.738a.13.13,0,0,1-.065.242Z" transform="translate(-3180.315 -2029.262)" fill="#011721"/></g><g transform="translate(5.823 3.083)"><path d="M3160.527,2064a.131.131,0,0,1-.065-.017l-8.169-4.738a.13.13,0,0,1,.13-.225l8.169,4.739a.13.13,0,0,1-.065.241Z" transform="translate(-3152.229 -2058.999)" fill="#011721"/></g><g transform="translate(4.368 4.624)"><path d="M3132.441,2093.734a.131.131,0,0,1-.065-.017l-8.169-4.739a.13.13,0,0,1,.13-.224l8.169,4.738a.13.13,0,0,1-.065.242Z" transform="translate(-3124.143 -2088.736)" fill="#011721"/></g><g transform="translate(2.911 6.166)"><path d="M3104.346,2123.473a.124.124,0,0,1-.065-.018l-8.17-4.738a.129.129,0,1,1,.129-.224l8.17,4.738a.13.13,0,0,1-.065.242Z" transform="translate(-3096.047 -2118.475)" fill="#011721"/></g><g transform="translate(1.456 7.707)"><path d="M3076.26,2153.209a.127.127,0,0,1-.065-.018l-8.169-4.738a.129.129,0,1,1,.13-.224l8.169,4.738a.13.13,0,0,1-.065.242Z" transform="translate(-3067.961 -2148.212)" fill="#011721"/></g><g transform="translate(0 9.249)"><path d="M3048.174,2182.956a.129.129,0,0,1-.065-.017l-8.169-4.738a.13.13,0,0,1,.129-.225l8.169,4.739a.129.129,0,0,1-.065.241Z" transform="translate(-3039.875 -2177.958)" fill="#011721"/></g></g></g></g><g transform="translate(53.869 148.603)"><g transform="translate(47.315 37.355)"><path d="M2635.1,3688.306l-9.525,6.981-35.72-4.7,12.332-6.761Z" transform="translate(-2589.852 -3683.824)" fill="#fff"/></g><g transform="translate(24.437 24.7)"><path d="M2148.461,3440.975l6.549,5.732,34.955-1.764-7.654-5.291Z" transform="translate(-2148.461 -3439.652)" fill="#fff"/></g><g transform="translate(3.515 35.576)"><path d="M1779.508,3653.9l-22.566,3.919-12.133-5.193,20.638-3.135Z" transform="translate(-1744.809 -3649.486)" fill="#d3463c"/></g><g transform="translate(0 29.427)"><path d="M1698.305,3540.147l16.9-3.332-18.71-5.952-19.5,2.425Z" transform="translate(-1676.987 -3530.864)" fill="#fff"/></g><g transform="translate(55.054 0.882)"><path d="M2753.629,3004.6l.056-1.372,1.7-3.723.114-2.2.113-1.96-1.021-1.519,1.248-1.029-.17-.98-.227-1.567,2.155-.637,24.619-1.951-.324-.646v-3.552l.68-.588.538-.465-1.825-2.278-35.852,3.627-2.125-.3-.113,1.739.17.979-1.247,1.029,1.021,1.519-.113,1.959-.113,2.205-1.7,3.723-.057,1.372-1.984,5.487v5.291l1.417,1.225,12.474,6.614Z" transform="translate(-2739.171 -2980.125)" fill="#d3463c"/></g><g transform="translate(67.528 7.496)"><path d="M3021.946,3107.728l1.825,2.278-.539.466-.68.588v3.552l.369.735-.114,1.372-1.531,1.127.4,9.161-1.7,6.026-38.725,4.556-1.417-1.225v-5.291l1.984-5.487.057-1.372,1.7-3.723.113-2.2.113-1.96-1.021-1.519,1.247-1.029-.17-.979-.227-1.568,2.154-.637Z" transform="translate(-2979.83 -3107.728)" fill="#f4716e"/></g><g transform="translate(59.193)"><path d="M2819.026,2967.323l10.886,5.34s1.928.882,2.211,5.095c0,0,29.6-3.723,39.8-4.213a8.546,8.546,0,0,0-5.5-5.83l-10.206-4.605Z" transform="translate(-2819.026 -2963.109)" fill="#fff"/></g><g transform="translate(68.945 37.355)"><path d="M3007.178,3683.824" transform="translate(-3007.178 -3683.824)" fill="#c4c4c4"/></g><g transform="translate(58.002 6.932)"><path d="M2796.054,3097.883l12.473,6.614,1.247-1.029-12.473-6.614Z" transform="translate(-2796.054 -3096.854)" fill="#f4716e"/></g><g transform="translate(57.074 17.367)"><path d="M2790.647,3304.8l-12.474-6.614-.021.5,12.466,6.833Z" transform="translate(-2778.153 -3298.182)" fill="#f4716e"/></g><g transform="translate(71.423 14.379)"><path d="M3094.177,3241.26l-39.2,2.254.025-.433,38.8-2.556Z" transform="translate(-3054.981 -3240.525)" fill="#ff8585"/></g><g transform="translate(55.054 24.226)"><path d="M2751.644,3437.124l-12.474-6.614v5.291l1.417,1.225,12.474,6.614-1.417-1.225Z" transform="translate(-2739.171 -3430.51)" fill="#c13633"/></g></g><g transform="translate(1.519 182.542)"><path d="M717.852,3618.179H667.107a.13.13,0,0,1,0-.259h50.746a.13.13,0,0,1,0,.259Z" transform="translate(-666.977 -3617.92)" fill="#011721"/></g><g transform="translate(39.785 170.899)"><path d="M1433.567,3393.531h-28.174a.13.13,0,0,1,0-.259h28.174a.13.13,0,0,1,0,.259Z" transform="translate(-1405.264 -3393.272)" fill="#011721"/></g><g transform="translate(146.618 185.829)"><path d="M3494.739,3681.587h-28.174a.13.13,0,0,1,0-.259h28.174a.13.13,0,0,1,0,.259Z" transform="translate(-3466.435 -3681.328)" fill="#011721"/></g><g transform="translate(177.714 77.947)"><path d="M4066.451,1623.183a.065.065,0,0,1-.052-.1c.074-.1,7.474-10.2,15.271-23.141a.064.064,0,0,1,.089-.022.065.065,0,0,1,.022.089c-7.8,12.945-15.2,23.051-15.278,23.151A.065.065,0,0,1,4066.451,1623.183Z" transform="translate(-4066.386 -1599.907)" fill="#fff"/></g><g transform="translate(112.997 127.547)"><path d="M2849.123,2569.5h-.007a63.341,63.341,0,0,1-22.512-6.952,57.061,57.061,0,0,1-8.808-5.567.065.065,0,1,1,.082-.1,56.971,56.971,0,0,0,8.79,5.554,63.2,63.2,0,0,0,22.461,6.936.065.065,0,0,1-.006.129Z" transform="translate(-2817.772 -2556.861)" fill="#fff"/></g><g transform="translate(88.585 59.484)"><path d="M2346.853,1261.532a.065.065,0,0,1-.041-.115c11.7-9.708,22.222-17.631,22.326-17.71a.066.066,0,0,1,.091.013.065.065,0,0,1-.013.091c-.1.079-10.625,8-22.322,17.706A.064.064,0,0,1,2346.853,1261.532Z" transform="translate(-2346.788 -1243.695)" fill="#fff"/></g><g transform="translate(2.248 172.825)"><path d="M684.961,3437.929a6.485,6.485,0,0,1-3.909-1.209.065.065,0,0,1-.008-.091.066.066,0,0,1,.091-.008c.032.027,3.234,2.642,8.1,0l6.414-6.162a.065.065,0,0,1,.092,0,.064.064,0,0,1,0,.091l-6.42,6.169a.054.054,0,0,1-.014.01A9.032,9.032,0,0,1,684.961,3437.929Z" transform="translate(-681.03 -3430.437)" fill="#fff"/></g></g><g transform="translate(2184 427)"><rect width="232" height="8" rx="4" transform="translate(-1165 -44)" fill="#ffa5bb"/><path d="M4.355,0V-5.586L-.059-14.727h2.48l1.7,3.906L4.59-9.707q.586,1.406.918,2.129h.078Q6.465-9.57,6.973-10.82l1.719-3.906h2.422L6.68-5.586V0ZM18.594.254A5.72,5.72,0,0,1,13.75-2.09a8.612,8.612,0,0,1-1.562-5.332q0-4.043,2.3-6.094A5.929,5.929,0,0,1,18.594-15a5.779,5.779,0,0,1,4.9,2.344A8.492,8.492,0,0,1,25.02-7.422a7.957,7.957,0,0,1-2.246,6.094A5.9,5.9,0,0,1,18.594.254Zm0-2.012a3.492,3.492,0,0,0,3.242-2.031,7.567,7.567,0,0,0,.8-3.633q0-3.32-1.758-4.785a3.55,3.55,0,0,0-2.285-.781,3.5,3.5,0,0,0-3.3,2.09,7.55,7.55,0,0,0-.723,3.477q0,3.3,1.7,4.8A3.4,3.4,0,0,0,18.594-1.758ZM33.477.254Q28.008.215,27.988-6.328v-8.4h2.324v8.574q.02,4.375,3.164,4.395Q36.68-1.8,36.7-6.152v-8.574h2.227v8.4Q38.906.234,33.477.254ZM45.723,0V-12.773H41.406v-1.953H52.383v1.953H48.047V0ZM54.9,0V-14.727h2.324v6.016h6.309v-6.016h2.3V0h-2.3V-6.7H57.227V0ZM91.5-12.793l-1.309.742A12.388,12.388,0,0,0,88.34-15.2a1.275,1.275,0,0,0-.117-.137L89.473-16a10.732,10.732,0,0,1,1.953,3.027A.665.665,0,0,1,91.5-12.793Zm-14,1.016v-2.539H75.723v2.539ZM75.723-3.34,77.5-3.672v-2.5H75.723ZM77.5-7.715v-2.539H75.723v2.539Zm8.613-7.168v1.426H79.941v-.859h-.879v15.9H77.5V-2.031l-2.09.449-2.168.449-.312-1.7q.2-.039.625-.117l.605-.117v-11.25H73.3v-1.66h6.68v1.094h2.207v-1.855h1.6v1.855Zm-4.3,12.52h2.461V-3.906H81.816Zm2.461-4.277H81.816v1.484h2.461Zm5.273-1.523,1.5.352a19.125,19.125,0,0,1-2.129,5.039q.371,2.129.9,2.148.43-.039.586-2.754a5.3,5.3,0,0,0,1.191,1l.02.02q-.488,3.926-1.875,3.906-1.309-.059-2.031-2.6a14.619,14.619,0,0,1-2.871,2.637A6.741,6.741,0,0,0,83.809.371L83.77.332a10.534,10.534,0,0,0,1.816-1.367h-3.77V.176H80.371V-7.988h5.371v6.8a15.993,15.993,0,0,0,1.543-1.836,48.856,48.856,0,0,1-.566-6.016H79.453v-1.484h1.563a10.455,10.455,0,0,0-.547-2.617l1.23-.273a8.808,8.808,0,0,1,.625,2.656l-.977.234h3.184l-1-.254a26.9,26.9,0,0,0,.586-2.676l1.465.293q-.117.352-.352,1.094-.371,1.113-.527,1.543h1.934q-.117-3.77-.137-6.23h1.641q0,3.828.1,6.23h3.2v1.484H88.3q.117,2.09.293,3.691A21.72,21.72,0,0,0,89.551-8.164Zm8.965-6.465L97.4-13.105a12.442,12.442,0,0,0-3.2-2.09l-.156-.078,1.035-1.387A12.082,12.082,0,0,1,98.516-14.629Zm-1.035,5.2L96.406-7.871a12.04,12.04,0,0,0-3.125-1.953,2.867,2.867,0,0,1-.273-.117l1.035-1.406a12.82,12.82,0,0,1,3.34,1.836A.64.64,0,0,1,97.48-9.434ZM96.367-6.191l1.523,1.055q-1.113,2.988-2.773,6.445L93.4.273A51.327,51.327,0,0,0,96.367-6.191Zm4.57-7.988v3.828q-.02,8.145-2.422,11.953a4.727,4.727,0,0,0-1.5-.84.758.758,0,0,1-.1-.039Q99.062-2.559,99.18-9.16v-6.66h12.09v1.641ZM107.012-.645h4.414v1.6H100.313v-1.6h4.98V-3.086h-3.75V-4.609h3.75V-6.836H101.25V-8.379h4.043v-2.148h-3.242v-1.5h3.242V-13.77h1.719v1.738h3.438v1.5h-3.437v2.148h4.141v1.543h-4.141v2.227h3.828v1.523h-3.828ZM131.27-13.066l-1.562.762a9.964,9.964,0,0,0-1.914-3.047,1.86,1.86,0,0,0-.2-.234l1.426-.684a10.419,10.419,0,0,1,2.129,2.949A1.432,1.432,0,0,1,131.27-13.066Zm-8.437-1.289v1.68H113.3v-1.68h3.867v-2.422h1.875v2.422ZM114.609-5.02l1.7.352a13.962,13.962,0,0,1-2.051,4.9A7.45,7.45,0,0,0,112.891-.82,10.55,10.55,0,0,0,114.609-5.02Zm1.426-4.746V-7.5h4.141V-9.766Zm5.938,3.828h-2.91V-.43a1.729,1.729,0,0,1-.625,1.582.956.956,0,0,1-.1.059,7.106,7.106,0,0,1-2.559.313,5.9,5.9,0,0,0-.586-1.68q1.367.039,1.8,0a.3.3,0,0,0,.293-.293V-5.937h-2.969v-5.391h7.656Zm.7,4.1-1.562.566a16.326,16.326,0,0,0-1.289-3.418l1.465-.527A14.83,14.83,0,0,1,122.676-1.836ZM128.77-.352h.664a.988.988,0,0,0,.488-.137.765.765,0,0,0,.254-.469q.078-.84.059-2.344a3.731,3.731,0,0,0,1.367.762,17.608,17.608,0,0,1-.2,2.7,1.748,1.748,0,0,1-.7,1,2.363,2.363,0,0,1-1.172.273H128.3A2.079,2.079,0,0,1,126.973,1a1.744,1.744,0,0,1-.449-1.289V-5.937a14.463,14.463,0,0,1-4,7.539,6.5,6.5,0,0,0-1.6-1.074q3.906-3.555,4.336-10.449H122.7V-11.68h2.617V-16.8h1.8v5.117h4.258v1.758h-4.316q-.02.312-.059.918H128.2V-.82a.418.418,0,0,0,.137.332A.8.8,0,0,0,128.77-.352ZM144.98-11.816h-5.371a9.084,9.084,0,0,1,.859,1.777l-.586.117H144.1A16.5,16.5,0,0,0,144.98-11.816Zm6.035,8.75h-6.27A17.1,17.1,0,0,0,150.82-.488q.371.1.7.156a6.183,6.183,0,0,0-1.23,1.66,17.476,17.476,0,0,1-6.6-3.281q-.312-.254-.566-.488V1.582h-1.816V-2.3a18.516,18.516,0,0,1-6.387,3.4q-.371.117-.723.215a6.249,6.249,0,0,0-1.211-1.582A19.06,19.06,0,0,0,139.2-2.715a6.174,6.174,0,0,0,.527-.352h-6.172V-4.629h7.754V-5.84h-5.9V-7.246h5.9V-8.437h-6.875V-9.922h4.1a9.286,9.286,0,0,0-.84-1.816l.469-.078h-4.531v-1.562h2.949a13.272,13.272,0,0,0-1.465-2.7l1.621-.547a12.067,12.067,0,0,1,1.6,2.852l-1.016.391h2.207V-16.8h1.738v3.418h1.973V-16.8H145v3.418h2.168l-.762-.234a14.463,14.463,0,0,0,1.406-2.969l1.914.488a28.306,28.306,0,0,1-1.66,2.715h2.871v1.563H147.09q-.234.43-.723,1.23-.293.449-.41.664h4.258v1.484h-7.09v1.191h6.133V-5.84h-6.133v1.211h7.891Zm12.4-11.66v1.484h-3.281v-1.484Zm-4.16-1.387v1.445h-5.234v-1.445Zm.527,2.637v1.484h-6.738v-1.484Zm-.469,2.715v1.445h-5.41v-1.445Zm-5.41,4.121V-8.105h5.41v1.465Zm3.906,2.734h-2.4v2.891h2.4Zm1.543-1.484V.449H155.41v.879h-1.523V-5.391Zm4-5.645.352,1.387q-1.563.762-3.34,1.543l-.723-1.445Q160.254-9.766,163.359-11.035ZM168.223-4.3h-5.1v3.32h5.1Zm-6.836,5.9V-5.957h8.652v7.5h-1.816V.664h-5.1V1.6Zm6.582-14.863v1.133a4.035,4.035,0,0,0,1.25,2.871,6.78,6.78,0,0,0,2.441,1.484,11.968,11.968,0,0,0-.977,1.367,5.845,5.845,0,0,1-3.2-2.7,4.945,4.945,0,0,1-.391-.957,4.849,4.849,0,0,1-1.7,2.363,7.58,7.58,0,0,1-2.324,1.27,5.461,5.461,0,0,0-.9-1.289q3.086-1.113,3.848-3.359a3.386,3.386,0,0,0,.176-1.035v-1.152h-.723a12.463,12.463,0,0,1-1.445,2.5,15.459,15.459,0,0,0-1.387-.957,12.1,12.1,0,0,0,2.227-5.078l1.66.352a16.016,16.016,0,0,1-.488,1.68h4.141l.254-.039,1.094.254q-.547,2.07-1.074,3.477l-1.387-.312q.352-1.016.566-1.875Zm11.6-2.852v1.445H174v-1.445Zm.566,2.637v1.484h-7.09v-1.484Zm-.508,5.371v1.465h-5.7V-8.105Zm-1.562,4.2h-2.6v2.891h2.6Zm1.582-1.484V.488h-4.18v.84h-1.562V-5.391Zm6.074-3.281h-2.773v1.543h2.773Zm-2.773,4.609h2.773v-1.68h-2.773Zm.82-9.648h7.246q0,.02-.039.918-.176,9.57-.508,11.7a4.09,4.09,0,0,1-.527,1.66,2,2,0,0,1-1.406.879q-.137.02-.254.039a19.135,19.135,0,0,1-2.969.02,4,4,0,0,0-.586-1.738q1.5.1,2.832.1a1.05,1.05,0,0,0,.781-.352q.527-.605.723-5.742.078-2.129.137-5.781h-6.211q-.41.8-1.094,1.875h5.43V-2.6h-4.375v1.016h-1.562V-9.453q-.2.254-.527.625a6.9,6.9,0,0,0-1.23-1.035v.547h-5.7v-1.445h5.7v.391a16.237,16.237,0,0,0,3.164-6.426l1.895.43Q184.395-15.312,183.77-13.711Zm27.441,6.582v1.895h-8.086v6.8h-1.914v-6.8H193.34V-7.129h7.871v-6.523h-6.816v-1.836h15.664v1.836h-6.934v6.523Zm-13.3-5.879,1.875.547a16.6,16.6,0,0,1-3.4,4.766.227.227,0,0,0-.059.039,8.072,8.072,0,0,0-1.465-1.035,12.836,12.836,0,0,0,2.676-3.535Q197.754-12.637,197.91-13.008Zm6.582.742,1.563-.8A22.229,22.229,0,0,1,209.395-9q.117.215.215.371l-1.68.9a19.579,19.579,0,0,0-2.988-4.043Q204.707-12.051,204.492-12.266ZM226.68-5.234h-8.945v4.16h8.945Zm-10.859,6.8V-7.012h12.871V1.543H226.68V.723h-8.945v.84Zm8.691-15.1,1.445-1.094a30.464,30.464,0,0,1,4.785,4.707q.352.488.605.879l-1.641,1.25a12.107,12.107,0,0,0-1.348-1.875q-4.2.2-14.648.645l-.137-1.875,3.008-.1a37.168,37.168,0,0,0,3.164-5.9l2.07.723a56.354,56.354,0,0,1-3.008,5.1q2.734-.1,7.988-.332Q225.527-12.676,224.512-13.535Z" transform="translate(-1165 -42)" fill="#fff"/></g><rect width="86" height="22" rx="11" transform="translate(1019 335)" fill="rgba(255,255,255,0)"/><path d="M11,1a10,10,0,0,0,0,20H75A10,10,0,0,0,75,1H11m0-1H75a11,11,0,0,1,0,22H11A11,11,0,0,1,11,0Z" transform="translate(1019 335)" fill="rgba(255,255,255,0.7)"/><path d="M10.1-3.664H3.842V-.752H10.1ZM2.5,1.094v-6h9.01V1.08H10.1V.506H3.842v.588ZM8.586-9.475,9.6-10.24a21.325,21.325,0,0,1,3.35,3.295q.246.342.424.615l-1.148.875a8.475,8.475,0,0,0-.943-1.312q-2.939.137-10.254.451L.93-7.629,3.035-7.7A26.019,26.019,0,0,0,5.25-11.826L6.7-11.32A39.448,39.448,0,0,1,4.594-7.752q1.914-.068,5.592-.232Q9.3-8.873,8.586-9.475Zm14.9-2v.67H21.082v-.67Zm.438,1.627v.205H20.59v-.725h3.336v.26l.355-.465.205.15q.506-.943.684-1.354l.779.383q-.109.164-.314.506-.41.656-.6.93.232.219.4.4.479-.7.725-1.135l.766.438q-1.23,1.586-1.531,1.914l.984-.027q-.123-.273-.246-.492l.643-.287a6.264,6.264,0,0,1,.711,1.559l-.7.328a.871.871,0,0,1-.027-.123,2.033,2.033,0,0,0-.068-.232l-.656.041v2.8h-.889V-7.52l-1.271.082-.082-.848.67-.027q.15-.164.438-.533A6.023,6.023,0,0,0,23.926-9.844Zm2.3,2.9.684-.205a8.809,8.809,0,0,1,.6,1.777l-.711.232A9.009,9.009,0,0,0,26.223-6.945Zm-2-.191.793.178A7.975,7.975,0,0,1,24.363-5a6.716,6.716,0,0,0-.725-.369A6.193,6.193,0,0,0,24.227-7.137ZM21-7.492v-.656h2.6v.656ZM23.6-9.2v.656H21V-9.2ZM21.779-6.4v.779h1V-6.4Zm-.807,1.422V-7.041h2.639v2.064ZM17.514-9.926l.451-.656.219.15a10.237,10.237,0,0,0,.643-1.354l.807.369q-.834,1.367-.889,1.449.15.123.383.355.561-.943.6-1.025l.779.451Q19.5-8.832,19.113-8.354l.793-.027a.616.616,0,0,0-.041-.13q-.027-.062-.068-.185l-.055-.123.588-.232a5.536,5.536,0,0,1,.547,1.518l-.656.26q-.027-.137-.068-.355l-.533.041v2.816h-.875V-7.533q-.424.041-1.258.1l-.1-.848.779-.027q.26-.3.465-.588A7.82,7.82,0,0,0,17.514-9.926Zm3.295,4.307-.711.205a10.633,10.633,0,0,0-.314-1.531l.67-.15A8.914,8.914,0,0,1,20.809-5.619Zm-3.268-4.5-.793.957a8.309,8.309,0,0,0-1.955-1.545l.766-.861a8.036,8.036,0,0,1,1.955,1.422Zm-.273,3.555-.752,1a9.344,9.344,0,0,0-2.01-1.449l.711-.9A7.981,7.981,0,0,1,17.268-6.562ZM15.941.93,14.779.26a41.584,41.584,0,0,0,1.75-4.43l1.025.67A46.488,46.488,0,0,1,15.941.93Zm1.9-8.066.793.164a5.958,5.958,0,0,1-.7,2,5.317,5.317,0,0,0-.711-.342A6.047,6.047,0,0,0,17.842-7.137ZM19.7-1.777h7.123q0,.014-.082.506A3.714,3.714,0,0,1,25.854.779a2.275,2.275,0,0,1-1.148.314q-1.285,0-2.146-.041A1.967,1.967,0,0,0,22.2.068q.984.1,2.119.1a1.258,1.258,0,0,0,.6-.1A1.853,1.853,0,0,0,25.43-.943H19.455l-.123.424L18.156-.684a20.482,20.482,0,0,0,.684-2.461h6.125v-.6h-6.6v-.793h7.82v2.174h-6.33ZM41.316-9.146l-1.094.533a6.975,6.975,0,0,0-1.34-2.133,1.3,1.3,0,0,0-.137-.164l1-.479a7.293,7.293,0,0,1,1.49,2.064A1,1,0,0,1,41.316-9.146Zm-5.906-.9v1.176H28.738v-1.176h2.707v-1.7h1.313v1.7ZM29.654-3.514l1.189.246A9.773,9.773,0,0,1,29.408.164a5.215,5.215,0,0,0-.957-.738A7.385,7.385,0,0,0,29.654-3.514Zm1-3.322V-5.25h2.9V-6.836Zm4.156,2.68H32.771V-.3A1.21,1.21,0,0,1,32.334.807a.669.669,0,0,1-.068.041,4.974,4.974,0,0,1-1.791.219,4.133,4.133,0,0,0-.41-1.176q.957.027,1.258,0a.21.21,0,0,0,.205-.205V-4.156H29.449V-7.93h5.359ZM35.3-1.285l-1.094.4a11.428,11.428,0,0,0-.9-2.393L34.33-3.65A10.381,10.381,0,0,1,35.3-1.285ZM39.566-.246h.465a.692.692,0,0,0,.342-.1.535.535,0,0,0,.178-.328q.055-.588.041-1.641a2.611,2.611,0,0,0,.957.533A12.325,12.325,0,0,1,41.412.109a1.224,1.224,0,0,1-.492.7A1.654,1.654,0,0,1,40.1,1h-.861a1.455,1.455,0,0,1-.93-.3,1.221,1.221,0,0,1-.314-.9V-4.156a10.124,10.124,0,0,1-2.8,5.277A4.552,4.552,0,0,0,34.07.369Q36.8-2.119,37.105-6.945H35.314v-1.23h1.832v-3.582H38.4v3.582h2.98v1.23H38.363q-.014.219-.041.643h.848V-.574a.293.293,0,0,0,.1.232A.557.557,0,0,0,39.566-.246ZM50.914-8.271h-3.76a6.359,6.359,0,0,1,.6,1.244l-.41.082H50.3A11.554,11.554,0,0,0,50.914-8.271Zm4.225,6.125H50.75A11.968,11.968,0,0,0,55-.342q.26.068.492.109A4.328,4.328,0,0,0,54.633.93a12.233,12.233,0,0,1-4.621-2.3q-.219-.178-.4-.342V1.107H48.344V-1.613A12.961,12.961,0,0,1,43.873.766q-.26.082-.506.15A4.375,4.375,0,0,0,42.52-.191,13.342,13.342,0,0,0,46.867-1.9a4.322,4.322,0,0,0,.369-.246h-4.32V-3.24h5.428v-.848H44.215v-.984h4.129v-.834H43.531V-6.945H46.4a6.5,6.5,0,0,0-.588-1.271l.328-.055H42.971V-9.365h2.064a9.291,9.291,0,0,0-1.025-1.887l1.135-.383a8.447,8.447,0,0,1,1.121,2l-.711.273H47.1v-2.393h1.217v2.393H49.7v-2.393h1.23v2.393h1.518l-.533-.164a10.124,10.124,0,0,0,.984-2.078l1.34.342a19.814,19.814,0,0,1-1.162,1.9h2.01v1.094H52.391q-.164.3-.506.861-.205.314-.287.465h2.98v1.039H49.615v.834h4.293v.984H49.615v.848h5.523Zm9.188-5.168h-2.01v1.025h2.01Zm3.268,1.025V-7.314H65.5v1.025ZM65.5-4.279h2.092V-5.332H65.5Zm-3.186,0h2.01V-5.332h-2.01Zm0,.971v2.2H61.1V-8.271h3.6q-1.162-.574-2.311-1.012l.834-.7q.711.246,1.8.711a10.361,10.361,0,0,0,1.545-.93H61.154v-1.025h6.617l.273-.068.779.629a13.479,13.479,0,0,1-2.68,1.9,9.58,9.58,0,0,1,.957.492h1.723v5.961a1.111,1.111,0,0,1-.342.971,1.528,1.528,0,0,1-.164.1,6.207,6.207,0,0,1-1.873.178,3.672,3.672,0,0,0-.355-1.053q.328.014,1.3.014a.216.216,0,0,0,.205-.219v-.984H65.5v2.16H64.326v-2.16ZM60.225-9.967l-.916.861a8.184,8.184,0,0,0-2.078-1.682.214.214,0,0,0-.055-.041l.875-.779a8.3,8.3,0,0,1,2.146,1.6A.159.159,0,0,0,60.225-9.967Zm-.4,2.734-.9.9a7.892,7.892,0,0,0-2.078-1.586Q56.766-7.957,56.7-8l.848-.807a8.447,8.447,0,0,1,2.174,1.463A.619.619,0,0,1,59.828-7.232Zm-.287,1.873v3.541A3.973,3.973,0,0,0,62.918-.355q2.816.123,5.975-.055.328-.027.6-.041A4.178,4.178,0,0,0,69.07.82q-2.912.123-6.152.041A5.3,5.3,0,0,1,59.295-.424l-.287-.314Q58.092.164,57.135,1L56.479-.273A21.574,21.574,0,0,0,58.3-1.7V-4.156H56.643v-1.2Z" transform="translate(1027 351)" fill="#fff"/><g transform="translate(2296 443)"><rect width="120" height="10" rx="5" transform="translate(-1165 -7)" fill="#ffa5bb"/><path d="M15.967-2.461H28.652v3.6H1.377v-3.6H12.129V-25.049h3.838v8.584H26.543v3.633H15.967ZM32.021-7.852l2.842.469A25.365,25.365,0,0,1,33.076.352a12.046,12.046,0,0,0-2.607-1.26A20.935,20.935,0,0,0,32.021-7.852Zm6.592.615,2.49-.732a19.063,19.063,0,0,1,1.465,5.127l-2.637.82A18.917,18.917,0,0,0,38.613-7.236Zm7.764-8.32v1.582h8.057v-1.582Zm0-4.131v1.523h8.057v-1.523Zm9.814,9.17,2.871,2.109Q55.781-5.684,54.99-5.1A11.994,11.994,0,0,0,59.5-1.523a12.723,12.723,0,0,0-2.08,2.813.225.225,0,0,0-.029.088,13.763,13.763,0,0,1-5.244-5.6v3.4a3.24,3.24,0,0,1-.85,2.666,3.275,3.275,0,0,1-.352.205,11.216,11.216,0,0,1-4.1.527,10.929,10.929,0,0,0-.82-3.018q1.025.029,2.461.029.439-.088.469-.439V-8.027q-1.641,6.68-6.094,9.4A10.137,10.137,0,0,0,40.928-.791Q40.781-.908,40.664-1a10.581,10.581,0,0,0,4.629-5.332h-2.9V-9.111l-2.109.938q-.059-.293-.439-1.758l-1.494.117V2.607H35.273V-9.58l-4.16.352-.352-3.105,2.139-.117q.82-1,1.348-1.758a26.379,26.379,0,0,0-3.4-4.219l1.729-2.4q.264.264.7.645a29.98,29.98,0,0,0,2.139-5.186l3.105,1.084a64.318,64.318,0,0,1-3.4,6.094q.469.527.967,1.172a53.374,53.374,0,0,0,2.7-4.834l2.9,1.348q-3.135,4.8-5.566,7.881l2.607-.146q-.381-.85-.967-1.934l2.52-1.055a24.229,24.229,0,0,1,2.637,6.24.479.479,0,0,1,.029.117l-.322.176h3.984l.557-.088,1.787.7V-11.25H43.184V-22.441h4.658A23.762,23.762,0,0,0,48.9-25.43l4.014.557q-.439.908-1.318,2.432h6.182V-11.25H52.148v.264a22.615,22.615,0,0,0,1.318,3.428A28.173,28.173,0,0,0,56.191-10.518Zm32.4-9.844v3.076H77.607v-3.076h3.6v-4.922h3.34v4.922ZM85.928-2.256l-2.7-.615A89.689,89.689,0,0,0,84.814-15.85q.029-.322.029-.615l3.311.557A121.541,121.541,0,0,1,85.928-2.256Zm-3.721-.762-3.047.7a80.249,80.249,0,0,0-.937-12.51q-.088-.469-.146-.879l2.783-.5a75.544,75.544,0,0,1,1.348,12.48ZM66.475-8.5V-19.219H64.688V-8.5ZM77.549-9.9,75.117-8.877v7.852q0,2.2-1.025,2.9A.341.341,0,0,0,74,1.934a7.407,7.407,0,0,1-3.721.645,9.622,9.622,0,0,0-.967-3.105Q70.342-.5,71.6-.5a.528.528,0,0,0,.469-.527V-7.646L70.342-7l-.879-3.076V-5.3H64.688v2.7h-2.93v-19.8h7.705v12.1q.059-.029,2.607-.791v-5.332H69.932v-3.076H72.07v-5.83h3.047v5.83h1.992v3.076H75.117v4.277l1.9-.615ZM76.523-1.494H89V1.582H76.523Zm26.953-6.211-1.084-10.254-.117-4.482h5.479l-.146,4.482L106.553-7.705ZM105,.264a2.916,2.916,0,0,1-2.7-1.406,2.971,2.971,0,0,1-.41-1.523,2.763,2.763,0,0,1,1.465-2.549A3.228,3.228,0,0,1,105-5.654a2.974,2.974,0,0,1,2.666,1.406,3.021,3.021,0,0,1,.439,1.582,2.67,2.67,0,0,1-1.523,2.549A3.378,3.378,0,0,1,105,.264Z" transform="translate(-1165 -5)" fill="#fff"/></g></g></svg>