<svg xmlns="http://www.w3.org/2000/svg" xmlns:xlink="http://www.w3.org/1999/xlink" width="470.5" height="174" viewBox="0 0 470.5 174"><defs><linearGradient id="a" x1="0.5" x2="0.5" y2="1" gradientUnits="objectBoundingBox"><stop offset="0" stop-color="#db2d2e"/><stop offset="1" stop-color="#e2626a"/></linearGradient></defs><g transform="translate(-1005 -318)"><rect width="470" height="174" rx="8" transform="translate(1005 318)" fill="url(#a)"/><g transform="translate(1250.419 339.963)"><g transform="translate(0)" opacity="0.24"><path d="M0,0V93.745A121.537,121.537,0,0,0,221,0Z" transform="translate(224.581 150.907) rotate(180)" fill="#fff"/><path d="M-.5-.5H221.387l.094.379A123.065,123.065,0,0,1,222.6,54a121.386,121.386,0,0,1-7.109,22.9A122.008,122.008,0,0,1,204.245,97.62a122.665,122.665,0,0,1-32.951,32.951,122.01,122.01,0,0,1-20.723,11.248,121.389,121.389,0,0,1-22.9,7.109,122.9,122.9,0,0,1-24.586,2.479,122.355,122.355,0,0,1-31.557-4.121,121.359,121.359,0,0,1-28.483-11.652A122.6,122.6,0,0,1-.424,94.01L-.5,93.888ZM220.6.5H.5V93.6a121.6,121.6,0,0,0,43.037,41.163A120.359,120.359,0,0,0,71.785,146.32a121.353,121.353,0,0,0,31.3,4.087,121.893,121.893,0,0,0,24.386-2.458,120.385,120.385,0,0,0,22.712-7.05,121.006,121.006,0,0,0,20.553-11.156,121.667,121.667,0,0,0,32.682-32.682,121.007,121.007,0,0,0,11.156-20.553,120.384,120.384,0,0,0,7.05-22.712A122.074,122.074,0,0,0,220.6.5Z" transform="translate(224.581 150.907) rotate(180)" fill="rgba(0,0,0,0)"/></g><g transform="translate(102.641 14.982)"><g transform="translate(82.916 63.481)"><path d="M1234.187,2437.712l-1.228,26.3,8.083,20.372,1.55-.664-3.534-40.081Z" transform="translate(-1232.959 -2437.712)" fill="#011721"/></g><g transform="translate(89.193 115.561)"><path d="M1129.011,3492.547l1.337,2.438a.536.536,0,0,1-.47.793H1122.1a.536.536,0,0,1-.268-1l3.862-2.232Z" transform="translate(-1121.559 -3492.547)" fill="#fff"/></g><g transform="translate(88.426 108.848)"><path d="M1158.087,3356.58l2.258,1.623a.536.536,0,0,1-.082.918l-7.021,3.357a.536.536,0,0,1-.673-.786l2.475-3.8Z" transform="translate(-1152.471 -3356.58)" fill="#fff"/></g><g transform="translate(52.966 31.766)"><path d="M1136.324,1795.345l34.268,1s4.17-.406,6.016,4.761c0,0,6.053,20.552,3.4,78.037h-3.322s-9.033-36.507-10.567-69.218c-.045-.959-.13-1.914-.264-2.864l-.222-1.577a4.163,4.163,0,0,0-3.425-3.523l-25.88-4.4Z" transform="translate(-1136.324 -1795.345)" fill="#05293c"/></g><g transform="translate(48.351 31.602)"><path d="M2039.291,1792.2l-4.317-.163a.286.286,0,0,0-.2.5h0a1.092,1.092,0,0,0,.721.272h0a1.094,1.094,0,0,1,.935.512,2.17,2.17,0,0,0,2.861,1.094Z" transform="translate(-2034.676 -1792.031)" fill="#011721"/></g><g transform="translate(52.966 27.455)"><path d="M1183.918,1712.79l-.065-.18a1.088,1.088,0,0,0-1.023-.719h0a.5.5,0,0,1-.4-.206l-.82-1.13a.341.341,0,0,1,.037-.442,7.135,7.135,0,0,0,1.258-2.081s3.678.667,2.8,5.353l.055.009c1.357.229,3.64,1.161,4.906,4.707,0,0,2.214,7.519,3.376,26.177-1.914.939-5.869,1.96-12.482-.219-.63-5.687-1.121-11.469-1.387-17.138-.045-.958-.13-1.914-.264-2.865l-.222-1.577a4.163,4.163,0,0,0-3.425-3.523l-25.88-4.4v-2.214l33.16.967A.388.388,0,0,0,1183.918,1712.79Z" transform="translate(-1150.381 -1708.031)" fill="#fff"/></g><g transform="translate(84.946 24.864)"><path d="M1247.222,1656.375c.011.768.333,2.439,2.587,4.166,0,0-.186,2.248.755,2.949,0,0,3.9-1.472,3.532-4.427a3.42,3.42,0,0,0-3.484-3.246c-1.692-.033-1.85-.236-2.949-.271C1247.358,1655.536,1247.218,1656.07,1247.222,1656.375Z" transform="translate(-1247.222 -1655.546)" fill="#011721"/></g><g transform="translate(5.06 2.506)"><path d="M1931.2,1253.548c-3.193-5.618-11.594-15.27-22.342-25.3S1887.9,1210.5,1882.08,1207.7c-1.312-2.308-1.746-3.937-1.1-4.629,2.218-2.377,16.31,7.17,31.475,21.324s25.66,27.555,23.442,29.931C1935.251,1255.018,1933.6,1254.7,1931.2,1253.548Z" transform="translate(-1880.684 -1202.708)" fill="#750b0b"/></g><g transform="translate(0 0)" opacity="0.17"><ellipse cx="37.56" cy="5.887" rx="37.56" ry="5.887" transform="translate(54.917 59.863) rotate(-136.975)" fill="#fff"/></g><g transform="translate(5.06 2.506)"><path d="M1912.456,1224.395c15.165,14.154,25.66,27.555,23.442,29.931s-16.31-7.17-31.475-21.324-25.66-27.554-23.442-29.931S1897.291,1210.241,1912.456,1224.395Zm-6.965,7.462c14.622,13.647,27.912,23.172,29.683,21.274s-8.444-14.716-23.066-28.363-28.114-22.955-29.885-21.057S1890.869,1218.21,1905.491,1231.857Z" transform="translate(-1880.684 -1202.708)" fill="#ffabab"/></g><g transform="translate(0.654 2.869)"><path d="M1914.82,1239.99c15.165,14.154,29.257,23.7,31.475,21.324l-4.405,4.72c-2.219,2.377-16.31-7.17-31.475-21.324s-25.66-27.554-23.442-29.931l4.405-4.72C1889.16,1212.436,1899.655,1225.837,1914.82,1239.99Z" transform="translate(-1886.677 -1210.059)" fill="#a51c1c"/></g><g transform="translate(55.913 55.674)"><path d="M639.758,2279.59l3.516,3.281a5.837,5.837,0,0,1,7.055.692l51.51,48.075a5.84,5.84,0,0,1,.285,8.253h0a5.84,5.84,0,0,1-8.254.284L642.36,2292.1a5.837,5.837,0,0,1-1.176-6.991l-3.516-3.281Z" transform="translate(-637.668 -2279.59)" fill="#a51c1c"/></g><g transform="translate(55.913 56.794)"><path d="M725.68,2361.736l-51.51-48.075a5.838,5.838,0,0,1-1.176-6.991l-3.515-3.281,1.045-1.12,63.41,59.182A5.84,5.84,0,0,1,725.68,2361.736Z" transform="translate(-669.478 -2302.27)" fill="#961717"/></g><g transform="translate(67.027 63.211)"><path d="M1679.257,2432.233l-2.131,1.384-.138,3.377s3.377.054,3.6-3.1Z" transform="translate(-1676.987 -2432.233)" fill="#011721"/></g><g transform="translate(92.469 114.015)"><path d="M1182.952,3461.734h2.067a.247.247,0,0,0,0-.494h-2.067a.247.247,0,1,0,0,.494Z" transform="translate(-1182.705 -3461.24)" fill="#fff"/></g><g transform="translate(89.812 107.778)"><path d="M1255.463,3336.221a.248.248,0,0,0,.144-.046l1.144-.823a.247.247,0,0,0-.288-.4l-1.144.823a.247.247,0,0,0,.144.447Z" transform="translate(-1255.216 -3334.905)" fill="#fff"/></g><g transform="translate(108.257 104.172)"><path d="M741.8,3262.779a10.471,10.471,0,0,1-7.889,8.613l-1.1-1.022s6.808-1.639,8.023-8.488Z" transform="translate(-732.817 -3261.882)" fill="#011721"/></g><g transform="translate(24.392 32.8)"><path d="M1922.557,1837.619l-4.405,4.72c-2.219,2.377-16.31-7.17-31.475-21.324l4.406-4.72C1906.247,1830.449,1920.339,1840,1922.557,1837.619Z" transform="translate(-1886.677 -1816.295)" fill="#961717"/></g><g transform="translate(68.826 67.599)"><path d="M1533.9,2522.092s-3.574,5.49-8.263,8.264l-1.061-.99a31.661,31.661,0,0,0,8.267-8.26Z" transform="translate(-1524.578 -2521.106)" fill="#011721"/></g><g transform="translate(52.966 33.98)"><path d="M1181.559,1869.7c-.63-5.687-1.121-11.469-1.387-17.138-.045-.958-.13-1.914-.264-2.865l-.222-1.577a4.163,4.163,0,0,0-3.425-3.523l-25.88-4.4,26.207,2.894s10.157,1.238,14.543,14.18a56.043,56.043,0,0,1,2.91,12.646C1192.126,1870.854,1188.172,1871.876,1181.559,1869.7Z" transform="translate(-1150.381 -1840.196)" fill="#eaeaea"/></g><g transform="translate(69.297 37.237)"><path d="M1286.382,1909.592s-2.83,14.283-20.356,24.2l-1.329-1.661s11.055-11.986,14.487-25.973Z" transform="translate(-1264.698 -1906.16)" fill="#fff"/></g><g transform="translate(83.047 46.31)"><path d="M1305.114,2098.511a.246.246,0,0,0,.185-.084c.039-.044,3.92-4.48,5.5-8.164a.247.247,0,1,0-.454-.194c-1.548,3.611-5.377,7.989-5.416,8.033a.247.247,0,0,0,.185.41Z" transform="translate(-1304.867 -2089.918)" fill="#011721"/></g><g transform="translate(67.433 33.528)"><path d="M1375.906,1831.034s-6.556,13.657-17.628,11.922l-1.367.645,1.312,1.661S1370.283,1847.033,1375.906,1831.034Z" transform="translate(-1356.911 -1831.034)" fill="#011721"/></g><g transform="translate(69.243 45.894)"><path d="M1698.689,2083.055h.007a.123.123,0,0,0,.116-.13l-.074-1.32a.121.121,0,0,0-.13-.116.124.124,0,0,0-.116.131l.074,1.32A.123.123,0,0,0,1698.689,2083.055Z" transform="translate(-1698.492 -2081.488)" fill="#fff"/></g></g><g transform="translate(43.315 16.964)"><path d="M2600.934,1192.1s-6.064,6.422-39.84,20.509c0,0,24.66,39.892,44.72,56.753,0,0,12.029,2.55,41.581-20.517C2647.4,1248.841,2618.2,1223.117,2600.934,1192.1Z" transform="translate(-2561.094 -1192.096)" fill="#fff"/><g transform="translate(13.523 16.033)"><g transform="translate(17.263)"><g transform="translate(1.4 2.666)"><path d="M3488.117,1579.377a.124.124,0,0,0,.062-.017l4.984-2.893a.127.127,0,0,0,.058-.081.122.122,0,0,0-.021-.1l-2.368-3.3c-1.317-1.835-3.549-2.655-4.979-1.826a2.269,2.269,0,0,0-1.077,1.54,4.356,4.356,0,0,0,.872,3.324l2.368,3.3A.123.123,0,0,0,3488.117,1579.377Zm4.8-3.055-4.77,2.769-2.3-3.209a4.111,4.111,0,0,1-.831-3.127,2.025,2.025,0,0,1,.961-1.378c1.32-.767,3.407.022,4.653,1.757Z" transform="translate(-3484.71 -1570.84)" fill="#011721"/></g><g transform="translate(0)"><path d="M3626.708,1519.942a1.085,1.085,0,0,0,.548-.14.987.987,0,0,0,.47-.67,1.835,1.835,0,0,0-.364-1.4,1.741,1.741,0,0,0-2.108-.759.987.987,0,0,0-.47.67,1.834,1.834,0,0,0,.364,1.4h0A2.038,2.038,0,0,0,3626.708,1519.942Zm-.9-2.866a1.788,1.788,0,0,1,1.351.8,1.584,1.584,0,0,1,.323,1.205.744.744,0,0,1-.353.508,1.5,1.5,0,0,1-1.784-.689,1.587,1.587,0,0,1-.323-1.206.746.746,0,0,1,.353-.509A.849.849,0,0,1,3625.812,1517.076Z" transform="translate(-3624.756 -1516.832)" fill="#011721"/></g></g><g transform="translate(0 6.711)"><path d="M3924.673,1655.558a.123.123,0,0,0,.055-.013l5.214-2.561a.124.124,0,0,0-.109-.222l-5.214,2.561a.124.124,0,0,0,.054.234Z" transform="translate(-3924.549 -1652.75)" fill="#011721"/></g><g transform="translate(0.827 8.025)"><path d="M3907.915,1682.171a.124.124,0,0,0,.054-.012l5.215-2.561a.124.124,0,0,0,.056-.165.126.126,0,0,0-.166-.057l-5.214,2.561a.124.124,0,0,0,.055.234Z" transform="translate(-3907.791 -1679.363)" fill="#011721"/></g><g transform="translate(14.414 14.166)"><path d="M3349.636,1814.8a.123.123,0,0,0,.061-.016l19.192-10.809a.124.124,0,0,0-.121-.215l-19.192,10.809a.124.124,0,0,0,.061.231Z" transform="translate(-3349.513 -1803.747)" fill="#011721"/></g><g transform="translate(16.614 16.604)"><path d="M3313.308,1864.071a.123.123,0,0,0,.062-.016l18.786-10.682a.125.125,0,0,0,.046-.168.123.123,0,0,0-.169-.046l-18.786,10.682a.124.124,0,0,0,.061.231Z" transform="translate(-3313.185 -1853.142)" fill="#011721"/></g><g transform="translate(33.425 37.08)"><path d="M2972.82,2278.792a.125.125,0,0,0,.062-.016l18.785-10.682a.123.123,0,1,0-.122-.214l-18.785,10.681a.123.123,0,0,0,.061.231Z" transform="translate(-2972.696 -2267.863)" fill="#011721"/></g><g transform="translate(42.07 38.601)"><path d="M2948.933,2305.345a.126.126,0,0,0,.062-.016l11.319-6.437a.123.123,0,1,0-.123-.214l-11.319,6.437a.123.123,0,0,0,.061.231Z" transform="translate(-2948.81 -2298.661)" fill="#011721"/></g><g transform="translate(22.067 30.37)"><g transform="translate(0)"><path d="M3425.711,2136.723a.124.124,0,0,0,.062-.016l7.782-4.514a.123.123,0,0,0-.124-.214l-7.782,4.514a.123.123,0,0,0,.062.23Z" transform="translate(-3425.588 -2131.962)" fill="#011721"/></g><g transform="translate(1.387 1.468)"><path d="M3397.625,2166.459a.123.123,0,0,0,.062-.016l7.782-4.514a.123.123,0,0,0-.124-.214l-7.782,4.514a.123.123,0,0,0,.062.23Z" transform="translate(-3397.502 -2161.699)" fill="#011721"/></g><g transform="translate(2.774 2.936)"><path d="M3369.54,2196.2a.122.122,0,0,0,.062-.017l7.782-4.514a.123.123,0,1,0-.124-.213l-7.782,4.513a.123.123,0,0,0-.045.169A.122.122,0,0,0,3369.54,2196.2Z" transform="translate(-3369.416 -2191.437)" fill="#011721"/></g><g transform="translate(4.16 4.405)"><path d="M3341.454,2225.937a.121.121,0,0,0,.062-.017l7.782-4.514a.123.123,0,0,0-.123-.214l-7.782,4.514a.124.124,0,0,0,.062.23Z" transform="translate(-3341.33 -2221.176)" fill="#011721"/></g><g transform="translate(5.547 5.873)"><path d="M3313.368,2255.673a.126.126,0,0,0,.062-.017l7.782-4.514a.124.124,0,0,0-.124-.214l-7.782,4.514a.124.124,0,0,0,.062.23Z" transform="translate(-3313.244 -2250.912)" fill="#011721"/></g><g transform="translate(6.934 7.341)"><path d="M3285.272,2285.419a.124.124,0,0,0,.062-.016l7.783-4.514a.123.123,0,0,0-.124-.214l-7.783,4.514a.123.123,0,0,0,.062.23Z" transform="translate(-3285.148 -2280.658)" fill="#011721"/></g><g transform="translate(8.321 8.81)"><path d="M3257.186,2315.158a.12.12,0,0,0,.062-.017l7.782-4.513a.124.124,0,0,0-.124-.214l-7.782,4.514a.124.124,0,0,0,.062.23Z" transform="translate(-3257.063 -2310.397)" fill="#011721"/></g></g><g transform="translate(32.791 23.831)"><g transform="translate(0)"><path d="M3208.524,2004.276a.123.123,0,0,0,.062-.017l7.782-4.514a.123.123,0,0,0,.045-.169.122.122,0,0,0-.168-.045l-7.782,4.513a.124.124,0,0,0-.045.169A.122.122,0,0,0,3208.524,2004.276Z" transform="translate(-3208.401 -1999.516)" fill="#011721"/></g><g transform="translate(1.386 1.469)"><path d="M3180.438,2034.023a.12.12,0,0,0,.062-.017l7.782-4.514a.123.123,0,0,0-.124-.213l-7.782,4.513a.124.124,0,0,0,.062.23Z" transform="translate(-3180.315 -2029.262)" fill="#011721"/></g><g transform="translate(2.773 2.937)"><path d="M3152.352,2063.759a.127.127,0,0,0,.062-.016l7.782-4.513a.124.124,0,0,0-.124-.214l-7.782,4.514a.123.123,0,0,0,.062.23Z" transform="translate(-3152.229 -2058.999)" fill="#011721"/></g><g transform="translate(4.16 4.405)"><path d="M3124.266,2093.5a.123.123,0,0,0,.062-.017l7.782-4.514a.123.123,0,0,0-.124-.213l-7.782,4.514a.124.124,0,0,0,.062.23Z" transform="translate(-3124.143 -2088.736)" fill="#011721"/></g><g transform="translate(5.546 5.873)"><path d="M3096.17,2123.236a.118.118,0,0,0,.062-.017l7.782-4.514a.123.123,0,1,0-.123-.213l-7.782,4.514a.123.123,0,0,0,.062.23Z" transform="translate(-3096.047 -2118.475)" fill="#011721"/></g><g transform="translate(6.934 7.341)"><path d="M3068.084,2152.972a.122.122,0,0,0,.062-.017l7.782-4.514a.123.123,0,1,0-.123-.213l-7.782,4.514a.123.123,0,0,0,.062.23Z" transform="translate(-3067.961 -2148.211)" fill="#011721"/></g><g transform="translate(8.32 8.81)"><path d="M3040,2182.719a.122.122,0,0,0,.062-.017l7.782-4.513a.123.123,0,0,0-.123-.214l-7.782,4.514a.123.123,0,0,0,.062.23Z" transform="translate(-3039.875 -2177.958)" fill="#011721"/></g></g></g></g><g transform="translate(66.492 104.403)"><g transform="translate(18.606 35.583)"><path d="M2589.852,3688.093l9.074,6.65,34.025-4.48-11.746-6.44Z" transform="translate(-2589.852 -3683.823)" fill="#fff"/></g><g transform="translate(43.963 23.528)"><path d="M2188,3440.912l-6.238,5.46-33.3-1.68,7.291-5.04Z" transform="translate(-2148.461 -3439.652)" fill="#fff"/></g><g transform="translate(70.373 33.888)"><path d="M1744.809,3653.686l21.5,3.733,11.558-4.946-19.659-2.987Z" transform="translate(-1744.809 -3649.486)" fill="#d3463c"/></g><g transform="translate(70.373 28.031)"><path d="M1693.082,3539.707l-16.094-3.173,17.823-5.67,18.579,2.31Z" transform="translate(-1676.987 -3530.863)" fill="#fff"/></g><g transform="translate(12.476 0.84)"><path d="M2767.255,3003.436l-.053-1.307-1.62-3.546-.108-2.1-.108-1.867.972-1.447-1.188-.98.162-.934.216-1.493-2.052-.607-23.451-1.858.308-.615V2983.3l-.648-.56-.513-.444,1.739-2.17,34.152,3.456,2.024-.282.108,1.657-.162.933,1.188.98-.972,1.447.108,1.866.108,2.1,1.62,3.546.054,1.307,1.89,5.226v5.04l-1.35,1.167-11.882,6.3Z" transform="translate(-2739.171 -2980.125)" fill="#d3463c"/></g><g transform="translate(0.594 7.14)"><path d="M2981.568,3107.728l-1.739,2.17.513.443.648.56v3.383l-.351.7.108,1.306,1.458,1.073-.378,8.727,1.62,5.74,36.888,4.34,1.35-1.167v-5.04l-1.89-5.227-.054-1.306-1.621-3.547-.107-2.1-.108-1.867.972-1.447-1.188-.98.162-.933.216-1.494-2.052-.607Z" transform="translate(-2979.83 -3107.728)" fill="#f4716e"/></g><g transform="translate(0)"><path d="M2869.416,2967.123l-10.37,5.086s-1.837.84-2.106,4.854c0,0-28.192-3.547-37.914-4.013a8.141,8.141,0,0,1,5.239-5.553l9.721-4.387Z" transform="translate(-2819.026 -2963.109)" fill="#fff"/></g><g transform="translate(41.101 35.583)"><path d="M3007.178,3683.824" transform="translate(-3007.178 -3683.824)" fill="#c4c4c4"/></g><g transform="translate(38.454 6.603)"><path d="M2809.124,3097.834l-11.882,6.3-1.188-.98,11.882-6.3Z" transform="translate(-2796.054 -3096.854)" fill="#f4716e"/></g><g transform="translate(40.506 16.543)"><path d="M2778.153,3304.482l11.882-6.3.02.476-11.874,6.509Z" transform="translate(-2778.153 -3298.182)" fill="#f4716e"/></g><g transform="translate(1.404 13.697)"><path d="M3054.981,3241.225l37.336,2.147-.024-.413-36.961-2.435Z" transform="translate(-3054.981 -3240.525)" fill="#ff8585"/></g><g transform="translate(41.101 23.077)"><path d="M2740.521,3436.81l11.882-6.3v5.04l-1.35,1.167-11.882,6.3,1.35-1.167Z" transform="translate(-2739.171 -3430.51)" fill="#c13633"/></g></g><g transform="translate(174.548 136.733)"><path d="M667.1,3618.167h48.339a.123.123,0,1,0,0-.247H667.1a.123.123,0,1,0,0,.247Z" transform="translate(-666.977 -3617.92)" fill="#011721"/></g><g transform="translate(159.599 125.642)"><path d="M1405.387,3393.519h26.837a.123.123,0,1,0,0-.247h-26.837a.123.123,0,1,0,0,.247Z" transform="translate(-1405.264 -3393.272)" fill="#011721"/></g><g transform="translate(57.834 139.864)"><path d="M3466.559,3681.575H3493.4a.123.123,0,0,0,0-.247h-26.837a.123.123,0,1,0,0,.247Z" transform="translate(-3466.435 -3681.328)" fill="#011721"/></g><g transform="translate(40.624 37.099)"><path d="M4081,1622.079a.062.062,0,0,0,.037-.012.062.062,0,0,0,.013-.086c-.07-.1-7.12-9.718-14.547-22.044a.06.06,0,0,0-.084-.021.062.062,0,0,0-.021.084c7.43,12.331,14.483,21.957,14.553,22.053A.063.063,0,0,0,4081,1622.079Z" transform="translate(-4066.386 -1599.907)" fill="#fff"/></g><g transform="translate(87.019 84.346)"><path d="M2817.833,2568.9h.006a60.329,60.329,0,0,0,21.444-6.622,54.365,54.365,0,0,0,8.391-5.3.062.062,0,1,0-.078-.1,54.287,54.287,0,0,1-8.373,5.291,60.2,60.2,0,0,1-21.4,6.608.062.062,0,0,0,.006.123Z" transform="translate(-2817.772 -2556.861)" fill="#fff"/></g><g transform="translate(118.809 19.512)"><path d="M2368.115,1260.686a.062.062,0,0,0,.048-.022.061.061,0,0,0-.008-.087c-11.144-9.247-21.167-16.8-21.267-16.87a.063.063,0,0,0-.086.012.062.062,0,0,0,.012.087c.1.075,10.121,7.621,21.263,16.866A.06.06,0,0,0,2368.115,1260.686Z" transform="translate(-2346.788 -1243.695)" fill="#fff"/></g><g transform="translate(208.406 127.476)"><path d="M691.318,3437.574a6.176,6.176,0,0,0,3.723-1.152.062.062,0,0,0,.008-.087.063.063,0,0,0-.087-.008c-.03.026-3.08,2.516-7.718,0l-6.11-5.87a.062.062,0,0,0-.087,0,.061.061,0,0,0,0,.087l6.116,5.876.013.009A8.6,8.6,0,0,0,691.318,3437.574Z" transform="translate(-681.03 -3430.437)" fill="#fff"/></g></g><g transform="translate(1020.374 369.612)"><rect width="255" height="9" rx="4.5" transform="translate(-0.374 17.388)" fill="#e2626a"/><text transform="translate(-0.374 19.388)" fill="#fff" font-size="22" font-family="GenYoGothicTW-Medium, GenYoGothic TW" font-weight="500"><tspan x="0" y="0">YOUTH </tspan><tspan y="0">職涯就業諮詢平台</tspan></text></g><rect width="95" height="24" rx="12" transform="translate(1020 337)" fill="rgba(255,255,255,0)"/><path d="M12,1A11,11,0,0,0,4.222,19.778,10.928,10.928,0,0,0,12,23H83A11,11,0,0,0,90.778,4.222,10.928,10.928,0,0,0,83,1H12m0-1H83a12,12,0,0,1,0,24H12A12,12,0,0,1,12,0Z" transform="translate(1020 337)" fill="rgba(255,255,255,0.7)"/><text transform="translate(1029 354)" fill="#fff" font-size="15" font-family="GenYoGothicTW-Medium, GenYoGothic TW" font-weight="500"><tspan x="0" y="0">台灣就業通</tspan></text><g transform="translate(1020.374 420.126)"><rect width="179" height="16" rx="8" transform="translate(-0.374 35.874)" fill="#690208"/><text transform="translate(-0.374 38.874)" fill="#fff" font-size="44" font-family="GenYoGothicTW-Bold, GenYoGothic TW" font-weight="700"><tspan x="0" y="0">上線啦！</tspan></text></g></g></svg>