<svg xmlns="http://www.w3.org/2000/svg" width="220" height="102" viewBox="0 0 220 102"><g transform="translate(-159 -742)"><rect width="220" height="102" transform="translate(159 742)" fill="#fff"/><g transform="translate(169 749.601)"><path d="M236.095,307.358H155.071a4.124,4.124,0,0,1-4.12-4.12V253.766a3.141,3.141,0,0,1,3.137-3.137h82.943a3.187,3.187,0,0,1,3.184,3.184v49.426a4.124,4.124,0,0,1-4.12,4.12Z" transform="translate(-150.951 -250.629)" fill="#fff"/><path d="M236.095,307.358H155.071a4.124,4.124,0,0,1-4.12-4.12V253.766a3.141,3.141,0,0,1,3.137-3.137h82.943a3.187,3.187,0,0,1,3.184,3.184v49.426a4.124,4.124,0,0,1-4.12,4.12ZM154.088,251.52a2.249,2.249,0,0,0-2.246,2.247v49.472a3.233,3.233,0,0,0,3.229,3.229h81.024a3.233,3.233,0,0,0,3.229-3.229V253.813a2.3,2.3,0,0,0-2.293-2.293Z" transform="translate(-150.951 -250.629)" fill="#e6e6e6"/><path d="M223.77,338.553H199.492a2.454,2.454,0,0,1-2.428-2.13,2.223,2.223,0,0,1-.021-.32V309.324a2.452,2.452,0,0,1,2.45-2.45H223.77a2.452,2.452,0,0,1,2.45,2.45V336.1a2.452,2.452,0,0,1-2.45,2.45Zm-24.278-30.342a1.115,1.115,0,0,0-1.113,1.113V336.1a.949.949,0,0,0,.008.137,1.117,1.117,0,0,0,1.1.977H223.77a1.115,1.115,0,0,0,1.113-1.113V309.324a1.115,1.115,0,0,0-1.113-1.113Z" transform="translate(-186.778 -294.349)" fill="#e6e6e6"/><path d="M388.875,397.588h-29.4a1.782,1.782,0,1,1,0-3.563h29.4a1.782,1.782,0,0,1,0,3.563Z" transform="translate(-311.657 -362.092)" fill="#e6e6e6"/><path d="M375.513,363.588H359.479a1.782,1.782,0,1,1,0-3.563h16.034a1.782,1.782,0,0,1,0,3.563Z" transform="translate(-311.657 -335.663)" fill="#e6e6e6"/><path d="M241.755,336.607c0,3.936-3.639,3.34-8.128,3.34s-8.128.6-8.128-3.34,1.778-10.912,8.128-10.912C240.2,325.695,241.755,332.671,241.755,336.607Z" transform="translate(-208.897 -308.978)" fill="#2f2e41"/><path d="M286.286,399.694a2.018,2.018,0,0,0-.882-1.078,1.751,1.751,0,0,0-.249-.127,2.016,2.016,0,0,0-2.668,2.554l3.238,7.36h4.265Z" transform="translate(-253.099 -365.442)" fill="#3f3d56"/><path d="M216.292,405.538a2.017,2.017,0,0,0-2.781,1.151l-3.015,7.093a1.755,1.755,0,0,0,.474.065h3.784l2.556-5.808a2.012,2.012,0,0,0-1.018-2.5Z" transform="translate(-197.235 -370.884)" fill="#3f3d56"/><circle cx="5.47" cy="5.47" r="5.47" transform="translate(19.233 20.023)" fill="#ffb8b8"/><path d="M240.066,396.495c-.031-.029-.062-.06-.1-.087a3.553,3.553,0,0,0-2.839-.884L227.052,396.8a3.577,3.577,0,0,0-3.122,3.884c.138,1.554.361,3.516.717,5.512h15.923l.586-6.806A3.571,3.571,0,0,0,240.066,396.495Z" transform="translate(-207.665 -363.234)" fill="#3f3d56"/><path d="M233.5,342.485h2.163l.954-2.672.191,2.672h1.034l.557-1.559.111,1.559h7.683a5.79,5.79,0,0,0-5.79-5.79h-1.113A5.79,5.79,0,0,0,233.5,342.485Z" transform="translate(-215.116 -317.529)" fill="#2f2e41"/><path d="M648.211,303.238V253.813a3.187,3.187,0,0,1,3.184-3.184h82.943a3.141,3.141,0,0,1,3.137,3.137v49.472a4.124,4.124,0,0,1-4.12,4.12H652.331A4.124,4.124,0,0,1,648.211,303.238Z" transform="translate(-537.475 -250.629)" fill="#fff"/><path d="M648.211,303.238V253.813a3.187,3.187,0,0,1,3.184-3.184h82.943a3.141,3.141,0,0,1,3.137,3.137v49.472a4.124,4.124,0,0,1-4.12,4.12H652.331A4.124,4.124,0,0,1,648.211,303.238Zm3.184-51.719a2.3,2.3,0,0,0-2.293,2.293v49.426a3.233,3.233,0,0,0,3.229,3.229h81.024a3.233,3.233,0,0,0,3.229-3.229V253.766a2.249,2.249,0,0,0-2.246-2.247Z" transform="translate(-537.475 -250.629)" fill="#e6e6e6"/><path d="M871.938,336.1V309.324a2.452,2.452,0,0,1,2.45-2.45h24.278a2.452,2.452,0,0,1,2.45,2.45V336.1a2.21,2.21,0,0,1-.021.32,2.454,2.454,0,0,1-2.428,2.13H874.387a2.452,2.452,0,0,1-2.45-2.45Zm2.45-27.892a1.115,1.115,0,0,0-1.114,1.113V336.1a1.115,1.115,0,0,0,1.114,1.113h24.278a1.117,1.117,0,0,0,1.1-.977.951.951,0,0,0,.008-.137V309.324a1.115,1.115,0,0,0-1.113-1.113Z" transform="translate(-711.379 -294.349)" fill="#e6e6e6"/><path d="M694.3,395.806a1.784,1.784,0,0,1,1.782-1.782h29.4a1.782,1.782,0,1,1,0,3.563h-29.4a1.784,1.784,0,0,1-1.782-1.782Z" transform="translate(-573.302 -362.092)" fill="#e6e6e6"/><path d="M694.3,361.806a1.784,1.784,0,0,1,1.782-1.782h16.034a1.782,1.782,0,1,1,0,3.563H696.084A1.784,1.784,0,0,1,694.3,361.806Z" transform="translate(-573.302 -335.663)" fill="#e6e6e6"/><path d="M907.7,331.833c1.561,3.069,2.792,6.235,6.235,6.235a6.235,6.235,0,1,0,0-12.471C910.434,325.553,904.793,326.119,907.7,331.833Z" transform="translate(-738.551 -308.901)" fill="#2f2e41"/><circle cx="5.47" cy="5.47" r="5.47" transform="translate(169.606 18.35)" fill="#a0616a"/><path d="M913.628,391.753a9.525,9.525,0,0,0-1.147-1.06,9.292,9.292,0,0,0-6.322-1.96q-.137.007-.274.02a9.314,9.314,0,0,0-6.716,3.706,9.43,9.43,0,0,0-1.675,7.6c.06.278.114.559.165.84h18.132l.209-1.4A9.374,9.374,0,0,0,913.628,391.753Z" transform="translate(-731.085 -357.964)" fill="#3f3d56"/><path d="M961.231,399.757a3.174,3.174,0,0,0-3.1-2.628l-.089,0a3.2,3.2,0,0,0-.733.1,3.162,3.162,0,0,0-2.24,3.882l1.713,6.329h5.763Z" transform="translate(-775.911 -364.504)" fill="#3f3d56"/><path d="M895.01,395.485a3.157,3.157,0,0,0-.911-1.087,3.067,3.067,0,0,0-.9-.468,2.977,2.977,0,0,0-.4-.107,3.178,3.178,0,0,0-3.585,2.058l-3.135,8.95h5.95l3.035-6.583A3.138,3.138,0,0,0,895.01,395.485Z" transform="translate(-722.372 -361.892)" fill="#3f3d56"/><path d="M911.064,333.485a7.439,7.439,0,0,0,4.251,1.314,4.559,4.559,0,0,1-1.807.743,15,15,0,0,0,6.127.034,3.964,3.964,0,0,0,1.283-.441,1.623,1.623,0,0,0,.792-1.059,2.188,2.188,0,0,0-1.086-1.936,8.01,8.01,0,0,0-6.731-1.345,3.686,3.686,0,0,0-1.993,1.127,1.816,1.816,0,0,0-.168,2.156Z" transform="translate(-741.793 -312.757)" fill="#2f2e41"/><path d="M484.725,451.358H403.7a4.124,4.124,0,0,1-4.12-4.12V397.766a3.141,3.141,0,0,1,3.137-3.137h82.943a3.187,3.187,0,0,1,3.184,3.184v49.426a4.124,4.124,0,0,1-4.12,4.12Z" transform="translate(-344.213 -362.561)" fill="#fff"/><path d="M484.725,451.358H403.7a4.124,4.124,0,0,1-4.12-4.12V397.766a3.141,3.141,0,0,1,3.137-3.137h82.943a3.187,3.187,0,0,1,3.184,3.184v49.426a4.124,4.124,0,0,1-4.12,4.12ZM402.718,395.52a2.249,2.249,0,0,0-2.246,2.247v49.472a3.233,3.233,0,0,0,3.229,3.229h81.024a3.233,3.233,0,0,0,3.229-3.229V397.813a2.3,2.3,0,0,0-2.293-2.293Z" transform="translate(-344.213 -362.561)" fill="#3f3d56"/><path d="M472.4,482.553H448.122a2.454,2.454,0,0,1-2.428-2.13,2.222,2.222,0,0,1-.021-.32V453.325a2.452,2.452,0,0,1,2.45-2.45H472.4a2.452,2.452,0,0,1,2.45,2.45V480.1A2.452,2.452,0,0,1,472.4,482.553Zm-24.278-30.342a1.115,1.115,0,0,0-1.113,1.113V480.1a.95.95,0,0,0,.008.137,1.117,1.117,0,0,0,1.1.977H472.4a1.115,1.115,0,0,0,1.113-1.113V453.325a1.115,1.115,0,0,0-1.113-1.113Z" transform="translate(-380.04 -406.282)" fill="#e6e6e6"/><path d="M472.694,469.992a6.471,6.471,0,0,0-5.129-.293,3.439,3.439,0,0,0-2.185,3.984c.236.7.773,1.394.564,2.1a2.165,2.165,0,0,1-1.274,1.163,4.748,4.748,0,0,0-1.554.9,1.016,1.016,0,0,0,.016,1.512c.164.11.369.163.529.279a.84.84,0,0,1,.259.94,1.98,1.98,0,0,1-.635.835c-.566.488-1.313,1.046-1.138,1.739a1.22,1.22,0,0,0,.823.77,4.091,4.091,0,0,0,1.209.16l16.694.526a6.331,6.331,0,0,0,1.648-.092,1.951,1.951,0,0,0,1.294-.87,1.813,1.813,0,0,0-.285-1.873,17.775,17.775,0,0,0-1.415-1.5,2.374,2.374,0,0,1-.758-1.8,4.591,4.591,0,0,1,.66-1.456,1.45,1.45,0,0,0,.071-1.512c-.454-.618-1.543-.562-2.058-1.139a2.554,2.554,0,0,1-.353-1.621,3.934,3.934,0,0,0-2.356-3.214,4.639,4.639,0,0,0-4.221.287Z" transform="translate(-392.826 -420.503)" fill="#2f2e41"/><circle cx="5.47" cy="5.47" r="5.47" transform="translate(75.017 53.044)" fill="#a0616a"/><path d="M489.484,550.265a5.3,5.3,0,0,0-2.824-4.654c-.069-.038-.14-.071-.212-.1a5.26,5.26,0,0,0-1.962-.5l-5.207-.292a5.255,5.255,0,0,0-2.16.332,5.059,5.059,0,0,0-.492.214,5.241,5.241,0,0,0-1.363.969,5.3,5.3,0,0,0-1.572,4l.094,2.207.655,1.7H489a4,4,0,0,0,.468-.708A3.545,3.545,0,0,0,489.484,550.265Z" transform="translate(-401.817 -479.218)" fill="#3f3d56"/><path d="M521.909,550.1a3.15,3.15,0,0,0-1.078-1.278,3.219,3.219,0,0,0-1.116-.485,3.262,3.262,0,0,0-.485-.069,3.137,3.137,0,0,0-.958.082,3.179,3.179,0,0,0-2.047,4.563l2,3.79.1.189h6.723Z" transform="translate(-434.599 -481.981)" fill="#3f3d56"/><path d="M473.018,546.443a3.2,3.2,0,0,0-1-.316,3.1,3.1,0,0,0-.786-.011,3.175,3.175,0,0,0-2.753,2.514l-1.356,6.581h5.3l.991-.405,1.234-4.734A3.189,3.189,0,0,0,473.018,546.443Z" transform="translate(-396.711 -480.298)" fill="#3f3d56"/><path d="M482.485,485.97a3.391,3.391,0,0,0,2.982-3.588,2.9,2.9,0,0,0,2.481,2.95c.792.087,1.661-.152,2.351.247.764.443,1.008,1.518,1.8,1.9a1.708,1.708,0,0,0,2.125-.9,3.4,3.4,0,0,0,.035-2.5,7.049,7.049,0,0,0-11.734-2.889,4.513,4.513,0,0,0-1.4,2.687,2.647,2.647,0,0,0,1.3,2.6Z" transform="translate(-407.594 -428.234)" fill="#2f2e41"/><path d="M637.5,541.588h-29.4a1.782,1.782,0,0,1,0-3.563h29.4a1.782,1.782,0,0,1,0,3.563Z" transform="translate(-504.919 -474.024)" fill="#e6e6e6"/><path d="M624.143,507.588H608.109a1.782,1.782,0,1,1,0-3.563h16.034a1.782,1.782,0,1,1,0,3.563Z" transform="translate(-504.919 -447.595)" fill="#66d9e8"/><path d="M704.457,578.449a5.874,5.874,0,1,0,0,11.748h0a5.874,5.874,0,0,0,0-11.748Z" transform="translate(-576.629 -505.446)" fill="#66d9e8"/><path d="M714.314,597.534a.713.713,0,0,1-.429-.143l-.008-.006-1.615-1.236a.718.718,0,0,1,.874-1.139l1.046.8,2.473-3.226a.718.718,0,0,1,1.006-.133h0l-.015.021.016-.021a.718.718,0,0,1,.133,1.006l-2.908,3.792a.718.718,0,0,1-.571.28Z" transform="translate(-587.044 -516.217)" fill="#fff"/></g></g></svg>