<svg clip-rule="evenodd" fill-rule="evenodd" stroke-miterlimit="10" viewBox="0 0 1504 1504" xmlns="http://www.w3.org/2000/svg"><g fill="none"><path d="m102.1 1501.2h100l-100-100z" stroke="#323232" stroke-opacity=".2"/><path d="m202.1 1501.2h100l-100-100z" stroke="#323232" stroke-opacity=".42"/><path d="m402.1 1501.2h100l-100-100z" stroke="#323232" stroke-opacity=".71"/><path d="m502.1 1501.2h100l-100-100z" stroke="#323232" stroke-opacity=".45"/><path d="m602.1 1501.2h100l-100-100z" stroke="#323232" stroke-opacity=".45"/><path d="m702.1 1501.2h100l-100-100z" stroke="#323232" stroke-opacity=".65"/><path d="m802.1 1501.2h100l-100-100z" stroke="#323232" stroke-opacity=".36"/><path d="m902.1 1501.2h100l-100-100z" stroke="#323232" stroke-opacity=".74"/><path d="m1002.1 1501.2h100l-100-100z" stroke="#323232" stroke-opacity=".53"/><path d="m1102.1 1501.2h100l-100-100z" stroke="#323232" stroke-opacity=".75"/><path d="m1202.1 1501.2h100l-100-100z" stroke="#323232" stroke-opacity=".56"/><path d="m1302.1 1501.2h100l-100-100z" stroke="#323232" stroke-opacity=".44"/><path d="m1402.1 1501.2h100l-100-100z" stroke="#323232" stroke-opacity=".22"/><path d="m102.1 1401.2h100l-100-100z" stroke="#323232" stroke-opacity=".46"/><path d="m202.1 1401.2h100l-100-100z" stroke="#323232" stroke-opacity=".62"/><path d="m402.1 1401.2h100l-100-100z" stroke="#323232" stroke-opacity=".28"/><path d="m502.1 1401.2h100l-100-100z" stroke="#323232" stroke-opacity=".56"/><path d="m602.1 1401.2h100l-100-100z" stroke="#323232" stroke-opacity=".29"/><path d="m702.1 1401.2h100l-100-100z" stroke="#323232" stroke-opacity=".53"/><path d="m902.1 1401.2h100l-100-100z" stroke="#323232" stroke-opacity=".83"/><path d="m1002.1 1401.2h100l-100-100z" stroke="#323232" stroke-opacity=".89"/><path d="m1102.1 1401.2h100l-100-100z" stroke="#323232" stroke-opacity=".27"/><path d="m1302.1 1401.2h100l-100-100z" stroke="#323232" stroke-opacity=".02"/><path d="m1402.1 1401.2h100l-100-100z" stroke="#323232" stroke-opacity=".24"/><path d="m2.1 1301.2h100l-100-100z" stroke="#323232" stroke-opacity=".4"/><path d="m102.1 1301.2h100l-100-100z" stroke="#323232" stroke-opacity=".38"/><path d="m202.1 1301.2h100l-100-100z" stroke="#323232" stroke-opacity=".51"/><path d="m302.1 1301.2h100l-100-100z" stroke="#323232" stroke-opacity=".31"/><path d="m402.1 1301.2h100l-100-100z" stroke="#323232" stroke-opacity=".33"/><path d="m502.1 1301.2h100l-100-100z" stroke="#323232" stroke-opacity=".65"/><path d="m602.1 1301.2h100l-100-100z" stroke="#323232" stroke-opacity=".45"/><path d="m702.1 1301.2h100l-100-100z" stroke="#323232" stroke-opacity=".23"/><path d="m802.1 1301.2h100l-100-100z" stroke="#323232" stroke-opacity=".62"/><path d="m902.1 1301.2h100l-100-100z" stroke="#323232" stroke-opacity=".75"/><path d="m1002.1 1301.2h100l-100-100z" stroke="#323232" stroke-opacity=".47"/><path d="m1202.1 1301.2h100l-100-100z" stroke="#323232" stroke-opacity=".22"/><path d="m1302.1 1301.2h100l-100-100z" stroke="#323232" stroke-opacity=".67"/><path d="m2.1 1201.2h100l-100-100z" stroke="#323232" stroke-opacity=".54"/><path d="m102.1 1201.2h100l-100-100z" stroke="#323232" stroke-opacity=".71"/><path d="m302.1 1201.2h100l-100-100z" stroke="#323232" stroke-opacity=".21"/><path d="m402.1 1201.2h100l-100-100z" stroke="#323232" stroke-opacity=".75"/><path d="m502.1 1201.2h100l-100-100z" stroke="#323232" stroke-opacity=".2"/><path d="m702.1 1201.2h100l-100-100z" stroke="#323232" stroke-opacity=".8"/><path d="m802.1 1201.2h100l-100-100z" stroke="#323232" stroke-opacity=".61"/><path d="m902.1 1201.2h100l-100-100z" stroke="#323232" stroke-opacity=".56"/><path d="m1002.1 1201.2h100l-100-100z" stroke="#323232" stroke-opacity=".67"/><path d="m1102.1 1201.2h100l-100-100z" stroke="#323232" stroke-opacity=".45"/><path d="m1202.1 1201.2h100l-100-100z" stroke="#323232" stroke-opacity=".75"/><path d="m1302.1 1201.2h100l-100-100z" stroke="#323232" stroke-opacity=".53"/><path d="m1402.1 1201.2h100l-100-100z" stroke="#323232" stroke-opacity=".11"/><path d="m2.1 1101.2h100l-100-100z" stroke="#323232" stroke-opacity=".33"/><path d="m102.1 1101.2h100l-100-100z" stroke="#323232" stroke-opacity=".14"/><path d="m202.1 1101.2h100l-100-100z" stroke="#323232" stroke-opacity=".68"/><path d="m302.1 1101.2h100l-100-100z" stroke="#323232" stroke-opacity=".16"/><path d="m402.1 1101.2h100l-100-100z" stroke="#323232" stroke-opacity=".91"/><path d="m502.1 1101.2h100l-100-100z" stroke="#323232" stroke-opacity=".67"/><path d="m602.1 1101.2h100l-100-100z" stroke="#323232" stroke-opacity=".36"/><path d="m802.1 1101.2h100l-100-100z" stroke="#323232" stroke-opacity=".42"/><path d="m902.1 1101.2h100l-100-100z" stroke="#323232" stroke-opacity=".07"/><path d="m1002.1 1101.2h100l-100-100z" stroke="#323232" stroke-opacity=".52"/><path d="m1102.1 1101.2h100l-100-100z" stroke="#323232" stroke-opacity=".49"/><path d="m1202.1 1101.2h100l-100-100z"/><path d="m1302.1 1101.2h100l-100-100z" stroke="#323232" stroke-opacity=".09"/><path d="m1402.1 1101.2h100l-100-100z" stroke="#323232" stroke-opacity=".67"/><path d="m2.1 1001.2h100l-100-100z" stroke="#323232" stroke-opacity=".22"/><path d="m102.1 1001.2h100l-100-100z" stroke="#323232" stroke-opacity=".56"/><path d="m202.1 1001.2h100l-100-100z" stroke="#323232" stroke-opacity=".58"/><path d="m402.1 1001.2h100l-100-100z" stroke="#323232" stroke-opacity=".35"/><path d="m502.1 1001.2h100l-100-100z" stroke="#323232" stroke-opacity=".33"/><path d="m602.1 1001.2h100l-100-100z" stroke="#323232" stroke-opacity=".42"/><path d="m702.1 1001.2h100l-100-100z" stroke="#323232" stroke-opacity=".2"/><path d="m802.1 1001.2h100l-100-100z" stroke="#323232" stroke-opacity=".15"/><path d="m902.1 1001.2h100l-100-100z" stroke="#323232" stroke-opacity=".43"/><path d="m1002.1 1001.2h100l-100-100z" stroke="#323232" stroke-opacity=".69"/><path d="m1102.1 1001.2h100l-100-100z" stroke="#323232" stroke-opacity=".57"/><path d="m1202.1 1001.2h100l-100-100z" stroke="#323232" stroke-opacity=".65"/><path d="m1302.1 1001.2h100l-100-100z" stroke="#323232" stroke-opacity=".47"/><path d="m1402.1 1001.2h100l-100-100z" stroke="#323232" stroke-opacity=".8"/><path d="m202.1 901.2h100l-100-100z" stroke="#323232" stroke-opacity=".34"/><path d="m302.1 901.2h100l-100-100z" stroke="#323232" stroke-opacity=".38"/><path d="m502.1 901.2h100l-100-100z" stroke="#323232" stroke-opacity=".8"/><path d="m602.1 901.2h100l-100-100z" stroke="#323232" stroke-opacity=".84"/><path d="m702.1 901.2h100l-100-100z" stroke="#323232" stroke-opacity=".78"/><path d="m802.1 901.2h100l-100-100z" stroke="#323232" stroke-opacity=".35"/><path d="m902.1 901.2h100l-100-100z" stroke="#323232" stroke-opacity=".29"/><path d="m1002.1 901.2h100l-100-100z" stroke="#323232" stroke-opacity=".78"/><path d="m1102.1 901.2h100l-100-100z" stroke="#323232" stroke-opacity=".08"/><path d="m1202.1 901.2h100l-100-100z" stroke="#323232" stroke-opacity=".76"/><path d="m1302.1 901.2h100l-100-100z" stroke="#323232" stroke-opacity=".49"/><path d="m1402.1 901.2h100l-100-100z" stroke="#323232" stroke-opacity=".34"/><path d="m2.1 801.2h100l-100-100z" stroke="#323232" stroke-opacity=".67"/><path d="m102.1 801.2h100l-100-100z" stroke="#323232" stroke-opacity=".16"/><path d="m202.1 801.2h100l-100-100z" stroke="#323232" stroke-opacity=".6"/><path d="m302.1 801.2h100l-100-100z" stroke="#323232" stroke-opacity=".13"/><path d="m402.1 801.2h100l-100-100z" stroke="#323232" stroke-opacity=".49"/><path d="m502.1 801.2h100l-100-100z"/><path d="m602.1 801.2h100l-100-100z" stroke="#323232" stroke-opacity=".82"/><path d="m702.1 801.2h100l-100-100z" stroke="#323232" stroke-opacity=".2"/><path d="m802.1 801.2h100l-100-100z" stroke="#323232" stroke-opacity=".21"/><path d="m902.1 801.2h100l-100-100z" stroke="#323232" stroke-opacity=".56"/><path d="m1002.1 801.2h100l-100-100z" stroke="#323232" stroke-opacity=".82"/><path d="m1102.1 801.2h100l-100-100z" stroke="#323232" stroke-opacity=".56"/><path d="m1202.1 801.2h100l-100-100z" stroke="#323232" stroke-opacity=".37"/><path d="m1302.1 801.2h100l-100-100z" stroke="#323232" stroke-opacity=".27"/><path d="m1402.1 801.2h100l-100-100z" stroke="#323232" stroke-opacity=".11"/><path d="m2.1 701.2h100l-100-100z" stroke="#323232" stroke-opacity=".89"/><path d="m202.1 701.2h100l-100-100z" stroke="#323232" stroke-opacity=".22"/><path d="m302.1 701.2h100l-100-100z" stroke="#323232" stroke-opacity=".52"/><path d="m402.1 701.2h100l-100-100z" stroke="#323232" stroke-opacity=".25"/><path d="m502.1 701.2h100l-100-100z" stroke="#323232" stroke-opacity=".67"/><path d="m602.1 701.2h100l-100-100z" stroke="#323232" stroke-opacity=".56"/><path d="m902.1 701.2h100l-100-100z" stroke="#323232" stroke-opacity=".45"/><path d="m1002.1 701.2h100l-100-100z" stroke="#323232" stroke-opacity=".62"/><path d="m1102.1 701.2h100l-100-100z" stroke="#323232" stroke-opacity=".47"/><path d="m1202.1 701.2h100l-100-100z" stroke="#323232" stroke-opacity=".07"/><path d="m1302.1 701.2h100l-100-100z" stroke="#323232" stroke-opacity=".67"/><path d="m1402.1 701.2h100l-100-100z" stroke="#323232" stroke-opacity=".77"/><path d="m2.1 601.2h100l-100-100z" stroke="#323232" stroke-opacity=".45"/><path d="m102.1 601.2h100l-100-100z" stroke="#323232" stroke-opacity=".27"/><path d="m202.1 601.2h100l-100-100z" stroke="#323232" stroke-opacity=".31"/><path d="m302.1 601.2h100l-100-100z" stroke="#323232" stroke-opacity=".49"/><path d="m402.1 601.2h100l-100-100z" stroke="#323232" stroke-opacity=".76"/><path d="m502.1 601.2h100l-100-100z" stroke="#323232" stroke-opacity=".09"/><path d="m602.1 601.2h100l-100-100z" stroke="#323232" stroke-opacity=".28"/><path d="m702.1 601.2h100l-100-100z" stroke="#323232" stroke-opacity=".56"/><path d="m802.1 601.2h100l-100-100z" stroke="#323232" stroke-opacity=".65"/><path d="m902.1 601.2h100l-100-100z" stroke="#323232" stroke-opacity=".24"/><path d="m1002.1 601.2h100l-100-100z" stroke="#323232" stroke-opacity=".04"/><path d="m1102.1 601.2h100l-100-100z"/><path d="m1202.1 601.2h100l-100-100z" stroke="#323232" stroke-opacity=".07"/><path d="m1402.1 601.2h100l-100-100z" stroke="#323232" stroke-opacity=".25"/><path d="m2.1 501.2h100l-100-100z" stroke="#323232" stroke-opacity=".78"/><path d="m102.1 501.2h100l-100-100z" stroke="#323232" stroke-opacity=".43"/><path d="m202.1 501.2h100l-100-100z" stroke="#323232" stroke-opacity=".49"/><path d="m302.1 501.2h100l-100-100z" stroke="#323232" stroke-opacity=".58"/><path d="m402.1 501.2h100l-100-100z" stroke="#323232" stroke-opacity=".42"/><path d="m502.1 501.2h100l-100-100z" stroke="#323232" stroke-opacity=".68"/><path d="m602.1 501.2h100l-100-100z" stroke="#323232" stroke-opacity=".65"/><path d="m702.1 501.2h100l-100-100z" stroke="#323232" stroke-opacity=".67"/><path d="m802.1 501.2h100l-100-100z" stroke="#323232" stroke-opacity=".15"/><path d="m902.1 501.2h100l-100-100z" stroke="#323232" stroke-opacity=".13"/><path d="m1002.1 501.2h100l-100-100z" stroke="#323232" stroke-opacity=".78"/><path d="m1102.1 501.2h100l-100-100z" stroke="#323232" stroke-opacity=".72"/><path d="m1202.1 501.2h100l-100-100z" stroke="#323232" stroke-opacity=".65"/><path d="m1302.1 501.2h100l-100-100z" stroke="#323232" stroke-opacity=".33"/><path d="m1402.1 501.2h100l-100-100z" stroke="#323232" stroke-opacity=".54"/><path d="m2.1 401.2h100l-100-100z" stroke="#323232" stroke-opacity=".56"/><path d="m102.1 401.2h100l-100-100z" stroke="#323232" stroke-opacity=".26"/><path d="m202.1 401.2h100l-100-100z" stroke="#323232" stroke-opacity=".37"/><path d="m402.1 401.2h100l-100-100z" stroke="#323232" stroke-opacity=".26"/><path d="m502.1 401.2h100l-100-100z" stroke="#323232" stroke-opacity=".58"/><path d="m602.1 401.2h100l-100-100z" stroke="#323232" stroke-opacity=".13"/><path d="m702.1 401.2h100l-100-100z" stroke="#323232" stroke-opacity=".21"/><path d="m802.1 401.2h100l-100-100z" stroke="#323232" stroke-opacity=".31"/><path d="m902.1 401.2h100l-100-100z" stroke="#323232" stroke-opacity=".66"/><path d="m1002.1 401.2h100l-100-100z" stroke="#323232" stroke-opacity=".25"/><path d="m1102.1 401.2h100l-100-100z" stroke="#323232" stroke-opacity=".36"/><path d="m1202.1 401.2h100l-100-100z" stroke="#323232" stroke-opacity=".74"/><path d="m1402.1 401.2h100l-100-100z" stroke="#323232" stroke-opacity=".8"/><path d="m2.1 301.2h100l-100-100z" stroke="#323232" stroke-opacity=".56"/><path d="m202.1 301.2h100l-100-100z" stroke="#323232" stroke-opacity=".25"/><path d="m302.1 301.2h100l-100-100z" stroke="#323232" stroke-opacity=".38"/><path d="m402.1 301.2h100l-100-100z" stroke="#323232" stroke-opacity=".33"/><path d="m502.1 301.2h100l-100-100z" stroke="#323232" stroke-opacity=".38"/><path d="m602.1 301.2h100l-100-100z" stroke="#323232" stroke-opacity=".38"/><path d="m702.1 301.2h100l-100-100z" stroke="#323232" stroke-opacity=".67"/><path d="m802.1 301.2h100l-100-100z" stroke="#323232" stroke-opacity=".64"/><path d="m902.1 301.2h100l-100-100z" stroke="#323232" stroke-opacity=".69"/><path d="m1002.1 301.2h100l-100-100z" stroke="#323232" stroke-opacity=".11"/><path d="m1102.1 301.2h100l-100-100z" stroke="#323232" stroke-opacity=".6"/><path d="m1202.1 301.2h100l-100-100z" stroke="#323232" stroke-opacity=".56"/><path d="m1302.1 301.2h100l-100-100z" stroke="#323232" stroke-opacity=".36"/><path d="m1402.1 301.2h100l-100-100z" stroke="#323232" stroke-opacity=".24"/><path d="m2.1 201.2h100l-100-100z" stroke="#323232" stroke-opacity=".24"/><path d="m102.1 201.2h100l-100-100z" stroke="#323232" stroke-opacity=".67"/><path d="m202.1 201.2h100l-100-100z" stroke="#323232" stroke-opacity=".63"/><path d="m302.1 201.2h100l-100-100z" stroke="#323232" stroke-opacity=".18"/><path d="m402.1 201.2h100l-100-100z" stroke="#323232" stroke-opacity=".45"/><path d="m502.1 201.2h100l-100-100z" stroke="#323232" stroke-opacity=".38"/><path d="m602.1 201.2h100l-100-100z" stroke="#323232" stroke-opacity=".68"/><path d="m702.1 201.2h100l-100-100z" stroke="#323232" stroke-opacity=".13"/><path d="m802.1 201.2h100l-100-100z" stroke="#323232" stroke-opacity=".45"/><path d="m902.1 201.2h100l-100-100z" stroke="#323232" stroke-opacity=".35"/><path d="m1002.1 201.2h100l-100-100z" stroke="#323232" stroke-opacity=".45"/><path d="m1102.1 201.2h100l-100-100z" stroke="#323232" stroke-opacity=".31"/><path d="m1202.1 201.2h100l-100-100z" stroke="#323232" stroke-opacity=".38"/><path d="m1302.1 201.2h100l-100-100z" stroke="#323232" stroke-opacity=".54"/><path d="m1402.1 201.2h100l-100-100z" stroke="#323232" stroke-opacity=".6"/><path d="m2.1 101.2h100l-100-100z" stroke="#323232" stroke-opacity=".34"/><path d="m102.1 101.2h100l-100-100z" stroke="#323232" stroke-opacity=".55"/><path d="m202.1 101.2h100l-100-100z" stroke="#323232" stroke-opacity=".64"/><path d="m302.1 101.2h100l-100-100z" stroke="#323232" stroke-opacity=".3"/><path d="m402.1 101.2h100l-100-100z" stroke="#323232" stroke-opacity=".17"/><path d="m502.1 101.2h100l-100-100z" stroke="#323232" stroke-opacity=".27"/><path d="m602.1 101.2h100l-100-100z" stroke="#323232" stroke-opacity=".18"/><path d="m702.1 101.2h100l-100-100z" stroke="#323232" stroke-opacity=".9"/><path d="m902.1 101.2h100l-100-100z" stroke="#323232" stroke-opacity=".57"/><path d="m1002.1 101.2h100l-100-100z" stroke="#323232" stroke-opacity=".35"/><path d="m1102.1 101.2h100l-100-100z" stroke="#323232" stroke-opacity=".52"/><path d="m1202.1 101.2h100l-100-100z" stroke="#323232" stroke-opacity=".22"/><path d="m1302.1 101.2h100l-100-100z" stroke="#323232" stroke-opacity=".7"/><path d="m1402.1 101.2h100l-100-100z" stroke="#323232" stroke-opacity=".75"/><path d="m102.1 1501.2v-100l-100 100z" stroke="#323232" stroke-opacity=".3"/><path d="m502.1 1501.2v-100l-100 100z" stroke="#323232" stroke-opacity=".71"/><path d="m802.1 1501.2v-100l-100 100z" stroke="#323232" stroke-opacity=".65"/><path d="m1202.1 1501.2v-100l-100 100z" stroke="#323232" stroke-opacity=".75"/><path d="m1302.1 1501.2v-100l-100 100z" stroke="#323232" stroke-opacity=".56"/><path d="m1502.1 1501.2v-100l-100 100z" stroke="#323232" stroke-opacity=".22"/><path d="m102.1 1401.2v-100l-100 100z" stroke="#323232" stroke-opacity=".65"/><path d="m202.1 1401.2v-100l-100 100z" stroke="#323232" stroke-opacity=".46"/><path d="m302.1 1401.2v-100l-100 100z" stroke="#323232" stroke-opacity=".62"/><path d="m502.1 1401.2v-100l-100 100z" stroke="#323232" stroke-opacity=".28"/><path d="m602.1 1401.2v-100l-100 100z" stroke="#323232" stroke-opacity=".56"/><path d="m902.1 1401.2v-100l-100 100z" stroke="#323232" stroke-opacity=".42"/><path d="m1202.1 1401.2v-100l-100 100z" stroke="#323232" stroke-opacity=".27"/><path d="m1402.1 1401.2v-100l-100 100z" stroke="#323232" stroke-opacity=".02"/><path d="m102.1 1301.2v-100l-100 100z" stroke="#323232" stroke-opacity=".4"/><path d="m302.1 1301.2v-100l-100 100z" stroke="#323232" stroke-opacity=".51"/><path d="m402.1 1301.2v-100l-100 100z" stroke="#323232" stroke-opacity=".31"/><path d="m502.1 1301.2v-100l-100 100z" stroke="#323232" stroke-opacity=".33"/><path d="m602.1 1301.2v-100l-100 100z" stroke="#323232" stroke-opacity=".65"/><path d="m702.1 1301.2v-100l-100 100z" stroke="#323232" stroke-opacity=".45"/><path d="m902.1 1301.2v-100l-100 100z" stroke="#323232" stroke-opacity=".62"/><path d="m1002.1 1301.2v-100l-100 100z" stroke="#323232" stroke-opacity=".75"/><path d="m1102.1 1301.2v-100l-100 100z" stroke="#323232" stroke-opacity=".47"/><path d="m1202.1 1301.2v-100l-100 100z" stroke="#323232" stroke-opacity=".54"/><path d="m1502.1 1301.2v-100l-100 100z" stroke="#323232" stroke-opacity=".55"/><path d="m202.1 1201.2v-100l-100 100z" stroke="#323232" stroke-opacity=".71"/><path d="m302.1 1201.2v-100l-100 100z" stroke="#323232" stroke-opacity=".53"/><path d="m902.1 1201.2v-100l-100 100z" stroke="#323232" stroke-opacity=".61"/><path d="m1102.1 1201.2v-100l-100 100z" stroke="#323232" stroke-opacity=".67"/><path d="m1302.1 1201.2v-100l-100 100z" stroke="#323232" stroke-opacity=".75"/><path d="m1502.1 1201.2v-100l-100 100z" stroke="#323232" stroke-opacity=".11"/><path d="m102.1 1101.2v-100l-100 100z" stroke="#323232" stroke-opacity=".33"/><path d="m202.1 1101.2v-100l-100 100z" stroke="#323232" stroke-opacity=".14"/><path d="m302.1 1101.2v-100l-100 100z" stroke="#323232" stroke-opacity=".68"/><path d="m802.1 1101.2v-100l-100 100z" stroke="#323232" stroke-opacity=".67"/><path d="m902.1 1101.2v-100l-100 100z" stroke="#323232" stroke-opacity=".42"/><path d="m1302.1 1101.2v-100l-100 100z"/><path d="m1402.1 1101.2v-100l-100 100z" stroke="#323232" stroke-opacity=".09"/><path d="m102.1 1001.2v-100l-100 100z" stroke="#323232" stroke-opacity=".22"/><path d="m202.1 1001.2v-100l-100 100z" stroke="#323232" stroke-opacity=".56"/><path d="m302.1 1001.2v-100l-100 100z" stroke="#323232" stroke-opacity=".58"/><path d="m502.1 1001.2v-100l-100 100z" stroke="#323232" stroke-opacity=".35"/><path d="m702.1 1001.2v-100l-100 100z" stroke="#323232" stroke-opacity=".42"/><path d="m1302.1 1001.2v-100l-100 100z" stroke="#323232" stroke-opacity=".65"/><path d="m102.1 901.2v-100l-100 100z" stroke="#323232" stroke-opacity=".33"/><path d="m402.1 901.2v-100l-100 100z" stroke="#323232" stroke-opacity=".38"/><path d="m502.1 901.2v-100l-100 100z" stroke="#323232" stroke-opacity=".75"/><path d="m802.1 901.2v-100l-100 100z" stroke="#323232" stroke-opacity=".78"/><path d="m1002.1 901.2v-100l-100 100z" stroke="#323232" stroke-opacity=".29"/><path d="m1102.1 901.2v-100l-100 100z" stroke="#323232" stroke-opacity=".78"/><path d="m1202.1 901.2v-100l-100 100z" stroke="#323232" stroke-opacity=".08"/><path d="m1402.1 901.2v-100l-100 100z" stroke="#323232" stroke-opacity=".49"/><path d="m202.1 801.2v-100l-100 100z" stroke="#323232" stroke-opacity=".16"/><path d="m302.1 801.2v-100l-100 100z" stroke="#323232" stroke-opacity=".6"/><path d="m402.1 801.2v-100l-100 100z" stroke="#323232" stroke-opacity=".13"/><path d="m502.1 801.2v-100l-100 100z" stroke="#323232" stroke-opacity=".49"/><path d="m802.1 801.2v-100l-100 100z" stroke="#323232" stroke-opacity=".2"/><path d="m1102.1 801.2v-100l-100 100z" stroke="#323232" stroke-opacity=".82"/><path d="m1202.1 801.2v-100l-100 100z" stroke="#323232" stroke-opacity=".56"/><path d="m1302.1 801.2v-100l-100 100z" stroke="#323232" stroke-opacity=".37"/><path d="m1502.1 801.2v-100l-100 100z" stroke="#323232" stroke-opacity=".11"/><path d="m202.1 701.2v-100l-100 100z" stroke="#323232" stroke-opacity=".11"/><path d="m402.1 701.2v-100l-100 100z" stroke="#323232" stroke-opacity=".52"/><path d="m602.1 701.2v-100l-100 100z" stroke="#323232" stroke-opacity=".67"/><path d="m702.1 701.2v-100l-100 100z" stroke="#323232" stroke-opacity=".56"/><path d="m802.1 701.2v-100l-100 100z" stroke="#323232" stroke-opacity=".44"/><path d="m1102.1 701.2v-100l-100 100z" stroke="#323232" stroke-opacity=".62"/><path d="m1202.1 701.2v-100l-100 100z" stroke="#323232" stroke-opacity=".47"/><path d="m1402.1 701.2v-100l-100 100z" stroke="#323232" stroke-opacity=".67"/><path d="m1502.1 701.2v-100l-100 100z" stroke="#323232" stroke-opacity=".77"/><path d="m202.1 601.2v-100l-100 100z" stroke="#323232" stroke-opacity=".27"/><path d="m602.1 601.2v-100l-100 100z" stroke="#323232" stroke-opacity=".09"/><path d="m802.1 601.2v-100l-100 100z" stroke="#323232" stroke-opacity=".56"/><path d="m902.1 601.2v-100l-100 100z" stroke="#323232" stroke-opacity=".65"/><path d="m1002.1 601.2v-100l-100 100z" stroke="#323232" stroke-opacity=".24"/><path d="m1102.1 601.2v-100l-100 100z" stroke="#323232" stroke-opacity=".04"/><path d="m1202.1 601.2v-100l-100 100z"/><path d="m102.1 501.2v-100l-100 100z" stroke="#323232" stroke-opacity=".78"/><path d="m202.1 501.2v-100l-100 100z" stroke="#323232" stroke-opacity=".43"/><path d="m602.1 501.2v-100l-100 100z" stroke="#323232" stroke-opacity=".68"/><path d="m702.1 501.2v-100l-100 100z" stroke="#323232" stroke-opacity=".65"/><path d="m802.1 501.2v-100l-100 100z" stroke="#323232" stroke-opacity=".67"/><path d="m902.1 501.2v-100l-100 100z" stroke="#323232" stroke-opacity=".15"/><path d="m1002.1 501.2v-100l-100 100z" stroke="#323232" stroke-opacity=".13"/><path d="m1202.1 501.2v-100l-100 100z" stroke="#323232" stroke-opacity=".72"/><path d="m1402.1 501.2v-100l-100 100z" stroke="#323232" stroke-opacity=".33"/><path d="m202.1 401.2v-100l-100 100z" stroke="#323232" stroke-opacity=".26"/><path d="m302.1 401.2v-100l-100 100z" stroke="#323232" stroke-opacity=".37"/><path d="m602.1 401.2v-100l-100 100z" stroke="#323232" stroke-opacity=".58"/><path d="m702.1 401.2v-100l-100 100z" stroke="#323232" stroke-opacity=".13"/><path d="m1202.1 401.2v-100l-100 100z" stroke="#323232" stroke-opacity=".36"/><path d="m1302.1 401.2v-100l-100 100z" stroke="#323232" stroke-opacity=".74"/><path d="m1402.1 401.2v-100l-100 100z" stroke="#323232" stroke-opacity=".41"/><path d="m102.1 301.2v-100l-100 100z" stroke="#323232" stroke-opacity=".56"/><path d="m302.1 301.2v-100l-100 100z" stroke="#323232" stroke-opacity=".25"/><path d="m402.1 301.2v-100l-100 100z" stroke="#323232" stroke-opacity=".38"/><path d="m602.1 301.2v-100l-100 100z" stroke="#323232" stroke-opacity=".38"/><path d="m802.1 301.2v-100l-100 100z" stroke="#323232" stroke-opacity=".67"/><path d="m902.1 301.2v-100l-100 100z" stroke="#323232" stroke-opacity=".64"/><path d="m1002.1 301.2v-100l-100 100z" stroke="#323232" stroke-opacity=".69"/><path d="m1202.1 301.2v-100l-100 100z" stroke="#323232" stroke-opacity=".6"/><path d="m1402.1 301.2v-100l-100 100z" stroke="#323232" stroke-opacity=".36"/><path d="m102.1 201.2v-100l-100 100z" stroke="#323232" stroke-opacity=".24"/><path d="m202.1 201.2v-100l-100 100z" stroke="#323232" stroke-opacity=".67"/><path d="m302.1 201.2v-100l-100 100z" stroke="#323232" stroke-opacity=".63"/><path d="m402.1 201.2v-100l-100 100z" stroke="#323232" stroke-opacity=".18"/><path d="m502.1 201.2v-100l-100 100z" stroke="#323232" stroke-opacity=".45"/><path d="m702.1 201.2v-100l-100 100z" stroke="#323232" stroke-opacity=".68"/><path d="m802.1 201.2v-100l-100 100z" stroke="#323232" stroke-opacity=".13"/><path d="m902.1 201.2v-100l-100 100z" stroke="#323232" stroke-opacity=".45"/><path d="m1202.1 201.2v-100l-100 100z" stroke="#323232" stroke-opacity=".31"/><path d="m1402.1 201.2v-100l-100 100z" stroke="#323232" stroke-opacity=".54"/><path d="m1502.1 201.2v-100l-100 100z" stroke="#323232" stroke-opacity=".6"/><path d="m102.1 101.2v-100l-100 100z" stroke="#323232" stroke-opacity=".34"/><path d="m202.1 101.2v-100l-100 100z" stroke="#323232" stroke-opacity=".55"/><path d="m402.1 101.2v-100l-100 100z" stroke="#323232" stroke-opacity=".3"/><path d="m1002.1 101.2v-100l-100 100z" stroke="#323232" stroke-opacity=".57"/><path d="m1402.1 101.2v-100l-100 100z" stroke="#323232" stroke-opacity=".7"/></g><path d="m202.1 1401.2h-100l100 100z" fill="#646464" fill-opacity=".1"/><path d="m202.1 1401.2h-100l100 100z" fill="none" stroke="#323232" stroke-opacity=".2" stroke-width="1.7"/><path d="m602.1 1401.2h-100l100 100z" fill="#646464" fill-opacity=".18"/><path d="m602.1 1401.2h-100l100 100z" fill="none" stroke="#323232" stroke-opacity=".45" stroke-width="1.7"/><path d="m702.1 1401.2h-100l100 100z" fill="#646464" fill-opacity=".02"/><path d="m702.1 1401.2h-100l100 100z" fill="none" stroke="#323232" stroke-opacity=".45" stroke-width="1.7"/><path d="m802.1 1401.2h-100l100 100z" fill="#646464" fill-opacity=".23"/><path d="m802.1 1401.2h-100l100 100z" fill="none" stroke="#323232" stroke-opacity=".65" stroke-width="1.7"/><path d="m902.1 1401.2h-100l100 100z" fill="#646464" fill-opacity=".07"/><path d="m902.1 1401.2h-100l100 100z" fill="none" stroke="#323232" stroke-opacity=".36" stroke-width="1.7"/><path d="m1002.1 1401.2h-100l100 100z" fill="#646464" fill-opacity=".27"/><path d="m1002.1 1401.2h-100l100 100z" fill="none" stroke="#323232" stroke-opacity=".74" stroke-width="1.7"/><path d="m1102.1 1401.2h-100l100 100z" fill="none"/><path d="m1102.1 1401.2h-100l100 100z" fill="none" stroke="#323232" stroke-opacity=".53" stroke-width="1.7"/><path d="m1302.1 1401.2h-100l100 100z" fill="#646464" fill-opacity=".16"/><path d="m1302.1 1401.2h-100l100 100z" fill="none" stroke="#323232" stroke-opacity=".56" stroke-width="1.7"/><path d="m102.1 1301.2h-100l100 100z" fill="#646464" fill-opacity=".04"/><path d="m102.1 1301.2h-100l100 100z" fill="none" stroke="#323232" stroke-opacity=".65" stroke-width="1.7"/><path d="m202.1 1301.2h-100l100 100z" fill="none"/><path d="m202.1 1301.2h-100l100 100z" fill="none" stroke="#323232" stroke-opacity=".46" stroke-width="1.7"/><path d="m302.1 1301.2h-100l100 100z" fill="#646464" fill-opacity=".12"/><path d="m302.1 1301.2h-100l100 100z" fill="none" stroke="#323232" stroke-opacity=".62" stroke-width="1.7"/><path d="m402.1 1301.2h-100l100 100z" fill="#646464" fill-opacity=".11"/><path d="m402.1 1301.2h-100l100 100z" fill="none" stroke="#323232" stroke-opacity=".78" stroke-width="1.7"/><path d="m502.1 1301.2h-100l100 100z" fill="#646464" fill-opacity=".02"/><path d="m502.1 1301.2h-100l100 100z" fill="none" stroke="#323232" stroke-opacity=".28" stroke-width="1.7"/><path d="m702.1 1301.2h-100l100 100z" fill="#646464" fill-opacity=".22"/><path d="m702.1 1301.2h-100l100 100z" fill="none" stroke="#323232" stroke-opacity=".29" stroke-width="1.7"/><path d="m902.1 1301.2h-100l100 100z" fill="none"/><path d="m902.1 1301.2h-100l100 100z" fill="none" stroke="#323232" stroke-opacity=".42" stroke-width="1.7"/><path d="m1002.1 1301.2h-100l100 100z" fill="#646464" fill-opacity=".15"/><path d="m1002.1 1301.2h-100l100 100z" fill="none" stroke="#323232" stroke-opacity=".83" stroke-width="1.7"/><path d="m1102.1 1301.2h-100l100 100z" fill="#646464" fill-opacity=".09"/><path d="m1102.1 1301.2h-100l100 100z" fill="none" stroke="#323232" stroke-opacity=".89" stroke-width="1.7"/><path d="m1502.1 1301.2h-100l100 100z" fill="none"/><path d="m1502.1 1301.2h-100l100 100z" fill="none" stroke="#323232" stroke-opacity=".24" stroke-width="1.7"/><path d="m102.1 1201.2h-100l100 100z" fill="#646464" fill-opacity=".04"/><path d="m102.1 1201.2h-100l100 100z" fill="none" stroke="#323232" stroke-opacity=".4" stroke-width="1.7"/><path d="m402.1 1201.2h-100l100 100z" fill="#646464" fill-opacity=".09"/><path d="m402.1 1201.2h-100l100 100z" fill="none" stroke="#323232" stroke-opacity=".31" stroke-width="1.7"/><path d="m502.1 1201.2h-100l100 100z" fill="#646464" fill-opacity=".02"/><path d="m502.1 1201.2h-100l100 100z" fill="none" stroke="#323232" stroke-opacity=".33" stroke-width="1.7"/><path d="m802.1 1201.2h-100l100 100z" fill="#646464" fill-opacity=".11"/><path d="m802.1 1201.2h-100l100 100z" fill="none" stroke="#323232" stroke-opacity=".23" stroke-width="1.7"/><path d="m1002.1 1201.2h-100l100 100z" fill="#646464" fill-opacity=".05"/><path d="m1002.1 1201.2h-100l100 100z" fill="none" stroke="#323232" stroke-opacity=".75" stroke-width="1.7"/><path d="m1302.1 1201.2h-100l100 100z" fill="#646464" fill-opacity=".07"/><path d="m1302.1 1201.2h-100l100 100z" fill="none" stroke="#323232" stroke-opacity=".22" stroke-width="1.7"/><path d="m1502.1 1201.2h-100l100 100z" fill="#646464" fill-opacity=".02"/><path d="m1502.1 1201.2h-100l100 100z" fill="none" stroke="#323232" stroke-opacity=".55" stroke-width="1.7"/><path d="m902.1 1101.2h-100l100 100z" fill="#646464" fill-opacity=".04"/><path d="m902.1 1101.2h-100l100 100z" fill="none" stroke="#323232" stroke-opacity=".61" stroke-width="1.7"/><path d="m1302.1 1101.2h-100l100 100z" fill="#646464" fill-opacity=".25"/><path d="m1302.1 1101.2h-100l100 100z" fill="none" stroke="#323232" stroke-opacity=".75" stroke-width="1.7"/><path d="m1402.1 1101.2h-100l100 100z" fill="none"/><path d="m1402.1 1101.2h-100l100 100z" fill="none" stroke="#323232" stroke-opacity=".53" stroke-width="1.7"/><path d="m102.1 1001.2h-100l100 100z" fill="none"/><path d="m102.1 1001.2h-100l100 100z" fill="none" stroke="#323232" stroke-opacity=".33" stroke-width="1.7"/><path d="m702.1 1001.2h-100l100 100z" fill="#646464" fill-opacity=".06"/><path d="m702.1 1001.2h-100l100 100z" fill="none" stroke="#323232" stroke-opacity=".36" stroke-width="1.7"/><path d="m1002.1 1001.2h-100l100 100z" fill="#646464" fill-opacity=".09"/><path d="m1002.1 1001.2h-100l100 100z" fill="none" stroke="#323232" stroke-opacity=".07" stroke-width="1.7"/><path d="m1102.1 1001.2h-100l100 100z" fill="#646464" fill-opacity=".04"/><path d="m1102.1 1001.2h-100l100 100z" fill="none" stroke="#323232" stroke-opacity=".52" stroke-width="1.7"/><path d="m1302.1 1001.2h-100l100 100z" fill="#646464" fill-opacity=".11"/><path d="m1302.1 1001.2h-100l100 100z" fill="none"/><path d="m1502.1 1001.2h-100l100 100z" fill="none"/><path d="m1502.1 1001.2h-100l100 100z" fill="none" stroke="#323232" stroke-opacity=".67" stroke-width="1.7"/><path d="m102.1 901.2h-100l100 100z" fill="#646464" fill-opacity=".02"/><path d="m102.1 901.2h-100l100 100z" fill="none" stroke="#323232" stroke-opacity=".22" stroke-width="1.7"/><path d="m302.1 901.2h-100l100 100z" fill="none"/><path d="m302.1 901.2h-100l100 100z" fill="none" stroke="#323232" stroke-opacity=".58" stroke-width="1.7"/><path d="m402.1 901.2h-100l100 100z" fill="none"/><path d="m402.1 901.2h-100l100 100z" fill="none" stroke="#323232" stroke-opacity=".21" stroke-width="1.7"/><path d="m502.1 901.2h-100l100 100z" fill="#646464" fill-opacity=".2"/><path d="m502.1 901.2h-100l100 100z" fill="none" stroke="#323232" stroke-opacity=".35" stroke-width="1.7"/><path d="m902.1 901.2h-100l100 100z" fill="none"/><path d="m902.1 901.2h-100l100 100z" fill="none" stroke="#323232" stroke-opacity=".15" stroke-width="1.7"/><path d="m1002.1 901.2h-100l100 100z" fill="#646464" fill-opacity=".18"/><path d="m1002.1 901.2h-100l100 100z" fill="none" stroke="#323232" stroke-opacity=".43" stroke-width="1.7"/><path d="m1102.1 901.2h-100l100 100z" fill="none"/><path d="m1102.1 901.2h-100l100 100z" fill="none" stroke="#323232" stroke-opacity=".69" stroke-width="1.7"/><path d="m1402.1 901.2h-100l100 100z" fill="#646464" fill-opacity=".18"/><path d="m1402.1 901.2h-100l100 100z" fill="none" stroke="#323232" stroke-opacity=".47" stroke-width="1.7"/><path d="m202.1 801.2h-100l100 100z" fill="#646464" fill-opacity=".08"/><path d="m202.1 801.2h-100l100 100z" fill="none" stroke="#323232" stroke-opacity=".07" stroke-width="1.7"/><path d="m402.1 801.2h-100l100 100z" fill="none"/><path d="m402.1 801.2h-100l100 100z" fill="none" stroke="#323232" stroke-opacity=".38" stroke-width="1.7"/><path d="m502.1 801.2h-100l100 100z" fill="#646464" fill-opacity=".11"/><path d="m502.1 801.2h-100l100 100z" fill="none" stroke="#323232" stroke-opacity=".75" stroke-width="1.7"/><path d="m902.1 801.2h-100l100 100z" fill="#646464" fill-opacity=".18"/><path d="m902.1 801.2h-100l100 100z" fill="none" stroke="#323232" stroke-opacity=".35" stroke-width="1.7"/><path d="m1002.1 801.2h-100l100 100z" fill="#646464" fill-opacity=".05"/><path d="m1002.1 801.2h-100l100 100z" fill="none" stroke="#323232" stroke-opacity=".29" stroke-width="1.7"/><path d="m1102.1 801.2h-100l100 100z" fill="#646464" fill-opacity=".02"/><path d="m1102.1 801.2h-100l100 100z" fill="none" stroke="#323232" stroke-opacity=".78" stroke-width="1.7"/><path d="m1402.1 801.2h-100l100 100z" fill="none"/><path d="m1402.1 801.2h-100l100 100z" fill="none" stroke="#323232" stroke-opacity=".49" stroke-width="1.7"/><path d="m102.1 701.2h-100l100 100z" fill="#646464" fill-opacity=".04"/><path d="m102.1 701.2h-100l100 100z" fill="none" stroke="#323232" stroke-opacity=".67" stroke-width="1.7"/><path d="m202.1 701.2h-100l100 100z" fill="none"/><path d="m202.1 701.2h-100l100 100z" fill="none" stroke="#323232" stroke-opacity=".16" stroke-width="1.7"/><path d="m802.1 701.2h-100l100 100z" fill="#646464" fill-opacity=".01"/><path d="m802.1 701.2h-100l100 100z" fill="none" stroke="#323232" stroke-opacity=".2" stroke-width="1.7"/><path d="m1002.1 701.2h-100l100 100z" fill="none"/><path d="m1002.1 701.2h-100l100 100z" fill="none" stroke="#323232" stroke-opacity=".56" stroke-width="1.7"/><path d="m1202.1 701.2h-100l100 100z" fill="#646464" fill-opacity=".18"/><path d="m1202.1 701.2h-100l100 100z" fill="none" stroke="#323232" stroke-opacity=".56" stroke-width="1.7"/><path d="m102.1 601.2h-100l100 100z" fill="#646464" fill-opacity=".09"/><path d="m102.1 601.2h-100l100 100z" fill="none" stroke="#323232" stroke-opacity=".89" stroke-width="1.7"/><path d="m602.1 601.2h-100l100 100z" fill="#646464" fill-opacity=".24"/><path d="m602.1 601.2h-100l100 100z" fill="none" stroke="#323232" stroke-opacity=".67" stroke-width="1.7"/><path d="m802.1 601.2h-100l100 100z" fill="#646464" fill-opacity=".16"/><path d="m802.1 601.2h-100l100 100z" fill="none" stroke="#323232" stroke-opacity=".44" stroke-width="1.7"/><path d="m1102.1 601.2h-100l100 100z" fill="#646464" fill-opacity=".1"/><path d="m1102.1 601.2h-100l100 100z" fill="none" stroke="#323232" stroke-opacity=".62" stroke-width="1.7"/><path d="m1202.1 601.2h-100l100 100z" fill="#646464" fill-opacity=".1"/><path d="m1202.1 601.2h-100l100 100z" fill="none" stroke="#323232" stroke-opacity=".47" stroke-width="1.7"/><path d="m1402.1 601.2h-100l100 100z" fill="#646464" fill-opacity=".11"/><path d="m1402.1 601.2h-100l100 100z" fill="none" stroke="#323232" stroke-opacity=".67" stroke-width="1.7"/><path d="m102.1 501.2h-100l100 100z" fill="#646464" fill-opacity=".03"/><path d="m102.1 501.2h-100l100 100z" fill="none" stroke="#323232" stroke-opacity=".45" stroke-width="1.7"/><path d="m202.1 501.2h-100l100 100z" fill="#646464" fill-opacity=".08"/><path d="m202.1 501.2h-100l100 100z" fill="none" stroke="#323232" stroke-opacity=".27" stroke-width="1.7"/><path d="m302.1 501.2h-100l100 100z" fill="#646464" fill-opacity=".18"/><path d="m302.1 501.2h-100l100 100z" fill="none" stroke="#323232" stroke-opacity=".31" stroke-width="1.7"/><path d="m402.1 501.2h-100l100 100z" fill="#646464" fill-opacity=".13"/><path d="m402.1 501.2h-100l100 100z" fill="none" stroke="#323232" stroke-opacity=".49" stroke-width="1.7"/><path d="m802.1 501.2h-100l100 100z" fill="#646464" fill-opacity=".16"/><path d="m802.1 501.2h-100l100 100z" fill="none" stroke="#323232" stroke-opacity=".56" stroke-width="1.7"/><path d="m902.1 501.2h-100l100 100z" fill="#646464" fill-opacity=".2"/><path d="m902.1 501.2h-100l100 100z" fill="none" stroke="#323232" stroke-opacity=".65" stroke-width="1.7"/><path d="m1202.1 501.2h-100l100 100z" fill="none"/><path d="m1202.1 501.2h-100l100 100z" fill="none"/><path d="m1302.1 501.2h-100l100 100z" fill="#646464" fill-opacity=".27"/><path d="m1302.1 501.2h-100l100 100z" fill="none" stroke="#323232" stroke-opacity=".07" stroke-width="1.7"/><path d="m202.1 401.2h-100l100 100z" fill="#646464" fill-opacity=".02"/><path d="m202.1 401.2h-100l100 100z" fill="none" stroke="#323232" stroke-opacity=".43" stroke-width="1.7"/><path d="m302.1 401.2h-100l100 100z" fill="#646464" fill-opacity=".03"/><path d="m302.1 401.2h-100l100 100z" fill="none" stroke="#323232" stroke-opacity=".49" stroke-width="1.7"/><path d="m702.1 401.2h-100l100 100z" fill="#646464" fill-opacity=".15"/><path d="m702.1 401.2h-100l100 100z" fill="none" stroke="#323232" stroke-opacity=".65" stroke-width="1.7"/><path d="m902.1 401.2h-100l100 100z" fill="#646464" fill-opacity=".02"/><path d="m902.1 401.2h-100l100 100z" fill="none" stroke="#323232" stroke-opacity=".15" stroke-width="1.7"/><path d="m1302.1 401.2h-100l100 100z" fill="#646464" fill-opacity=".04"/><path d="m1302.1 401.2h-100l100 100z" fill="none" stroke="#323232" stroke-opacity=".65" stroke-width="1.7"/><path d="m1402.1 401.2h-100l100 100z" fill="#646464" fill-opacity=".07"/><path d="m1402.1 401.2h-100l100 100z" fill="none" stroke="#323232" stroke-opacity=".33" stroke-width="1.7"/><path d="m102.1 301.2h-100l100 100z" fill="#646464" fill-opacity=".08"/><path d="m102.1 301.2h-100l100 100z" fill="none" stroke="#323232" stroke-opacity=".56" stroke-width="1.7"/><path d="m502.1 301.2h-100l100 100z" fill="#646464" fill-opacity=".02"/><path d="m502.1 301.2h-100l100 100z" fill="none" stroke="#323232" stroke-opacity=".26" stroke-width="1.7"/><path d="m602.1 301.2h-100l100 100z" fill="#646464" fill-opacity=".23"/><path d="m602.1 301.2h-100l100 100z" fill="none" stroke="#323232" stroke-opacity=".58" stroke-width="1.7"/><path d="m702.1 301.2h-100l100 100z" fill="#646464" fill-opacity=".04"/><path d="m702.1 301.2h-100l100 100z" fill="none" stroke="#323232" stroke-opacity=".13" stroke-width="1.7"/><path d="m1202.1 301.2h-100l100 100z" fill="#646464" fill-opacity=".18"/><path d="m1202.1 301.2h-100l100 100z" fill="none" stroke="#323232" stroke-opacity=".36" stroke-width="1.7"/><path d="m1402.1 301.2h-100l100 100z" fill="none"/><path d="m1402.1 301.2h-100l100 100z" fill="none" stroke="#323232" stroke-opacity=".41" stroke-width="1.7"/><path d="m402.1 201.2h-100l100 100z" fill="#646464" fill-opacity=".09"/><path d="m402.1 201.2h-100l100 100z" fill="none" stroke="#323232" stroke-opacity=".38" stroke-width="1.7"/><path d="m1102.1 201.2h-100l100 100z" fill="#646464" fill-opacity=".23"/><path d="m1102.1 201.2h-100l100 100z" fill="none" stroke="#323232" stroke-opacity=".11" stroke-width="1.7"/><path d="m1302.1 201.2h-100l100 100z" fill="#646464" fill-opacity=".04"/><path d="m1302.1 201.2h-100l100 100z" fill="none" stroke="#323232" stroke-opacity=".56" stroke-width="1.7"/><path d="m1402.1 201.2h-100l100 100z" fill="#646464" fill-opacity=".13"/><path d="m1402.1 201.2h-100l100 100z" fill="none" stroke="#323232" stroke-opacity=".36" stroke-width="1.7"/><path d="m102.1 101.2h-100l100 100z" fill="#646464" fill-opacity=".14"/><path d="m102.1 101.2h-100l100 100z" fill="none" stroke="#323232" stroke-opacity=".24" stroke-width="1.7"/><path d="m502.1 101.2h-100l100 100z" fill="#646464" fill-opacity=".15"/><path d="m502.1 101.2h-100l100 100z" fill="none" stroke="#323232" stroke-opacity=".45" stroke-width="1.7"/><path d="m702.1 101.2h-100l100 100z" fill="#646464" fill-opacity=".04"/><path d="m702.1 101.2h-100l100 100z" fill="none" stroke="#323232" stroke-opacity=".68" stroke-width="1.7"/><path d="m802.1 101.2h-100l100 100z" fill="#646464" fill-opacity=".01"/><path d="m802.1 101.2h-100l100 100z" fill="none" stroke="#323232" stroke-opacity=".13" stroke-width="1.7"/><path d="m1002.1 101.2h-100l100 100z" fill="#646464" fill-opacity=".25"/><path d="m1002.1 101.2h-100l100 100z" fill="none" stroke="#323232" stroke-opacity=".35" stroke-width="1.7"/><path d="m1202.1 101.2h-100l100 100z" fill="#646464" fill-opacity=".02"/><path d="m1202.1 101.2h-100l100 100z" fill="none" stroke="#323232" stroke-opacity=".31" stroke-width="1.7"/><path d="m1402.1 101.2h-100l100 100z" fill="none"/><path d="m1402.1 101.2h-100l100 100z" fill="none" stroke="#323232" stroke-opacity=".54" stroke-width="1.7"/><path d="m202.1 1.2h-100l100 100z" fill="#646464" fill-opacity=".05"/><path d="m202.1 1.2h-100l100 100z" fill="none" stroke="#323232" stroke-opacity=".55" stroke-width="1.7"/><path d="m302.1 1.2h-100l100 100z" fill="none"/><path d="m302.1 1.2h-100l100 100z" fill="none" stroke="#323232" stroke-opacity=".64" stroke-width="1.7"/><path d="m502.1 1.2h-100l100 100z" fill="#646464" fill-opacity=".15"/><path d="m502.1 1.2h-100l100 100z" fill="none" stroke="#323232" stroke-opacity=".17" stroke-width="1.7"/><path d="m602.1 1.2h-100l100 100z" fill="none"/><path d="m602.1 1.2h-100l100 100z" fill="none" stroke="#323232" stroke-opacity=".27" stroke-width="1.7"/><path d="m802.1 1.2h-100l100 100z" fill="#646464" fill-opacity=".07"/><path d="m802.1 1.2h-100l100 100z" fill="none" stroke="#323232" stroke-opacity=".9" stroke-width="1.7"/><path d="m902.1 1.2h-100l100 100z" fill="#646464" fill-opacity=".01"/><path d="m902.1 1.2h-100l100 100z" fill="none" stroke="#323232" stroke-opacity=".67" stroke-width="1.7"/><path d="m1002.1 1.2h-100l100 100z" fill="#646464" fill-opacity=".02"/><path d="m1002.1 1.2h-100l100 100z" fill="none" stroke="#323232" stroke-opacity=".57" stroke-width="1.7"/><path d="m1202.1 1.2h-100l100 100z" fill="#646464" fill-opacity=".04"/><path d="m1202.1 1.2h-100l100 100z" fill="none" stroke="#323232" stroke-opacity=".52" stroke-width="1.7"/><path d="m1302.1 1.2h-100l100 100z" fill="none"/><path d="m1302.1 1.2h-100l100 100z" fill="none" stroke="#323232" stroke-opacity=".22" stroke-width="1.7"/><path d="m1402.1 1.2h-100l100 100z" fill="#646464" fill-opacity=".01"/><path d="m1402.1 1.2h-100l100 100z" fill="none" stroke="#323232" stroke-opacity=".7" stroke-width="1.7"/><path d="m1502.1 1.2h-100l100 100z" fill="#646464" fill-opacity=".07"/><path d="m1502.1 1.2h-100l100 100z" fill="none" stroke="#323232" stroke-opacity=".75" stroke-width="1.7"/></svg>