<svg width="703" height="655" fill="none" xmlns="http://www.w3.org/2000/svg"><path transform="matrix(0 1 -.89743 -.44116 588.464 21)" stroke="#000" stroke-opacity=".05" stroke-width="2.984" stroke-linecap="round" stroke-dasharray="6.96 6.96" d="M1.492-1.492h623.315"/><path stroke="#000" stroke-opacity=".05" stroke-width="2.885" stroke-linecap="round" stroke-dasharray="6.73 6.73" d="M495.298 83.442v522.116"/><path transform="matrix(0 1 -.89743 -.44116 399.978 21)" stroke="#000" stroke-opacity=".05" stroke-width="2.95" stroke-linecap="round" stroke-dasharray="6.88 6.88" d="M1.475-1.475h609.127"/><path stroke="#000" stroke-opacity=".05" stroke-width="3" stroke-linecap="round" stroke-dasharray="7 7" d="M213.356 51.5v569m-95-619v651"/><path transform="matrix(0 1 -.89743 -.44116 305.734 21)" stroke="#000" stroke-opacity=".05" stroke-width="3" stroke-linecap="round" stroke-dasharray="7 7" d="M1.5-1.5h630.143"/><path transform="matrix(1 0 -.44116 .89743 36.285 101.964)" stroke="#000" stroke-opacity=".05" stroke-width="3" stroke-linecap="round" stroke-dasharray="7 7" d="M1.5-1.5h630.143"/><path stroke="#000" stroke-opacity=".05" stroke-width="3" stroke-linecap="round" stroke-dasharray="7 7" d="M2.356 194.5h688"/><path transform="matrix(1 0 -.44116 .89743 36.285 290.45)" stroke="#000" stroke-opacity=".05" stroke-width="3" stroke-linecap="round" stroke-dasharray="7 7" d="M1.5-1.5h630.143"/><path stroke="#000" stroke-opacity=".05" stroke-width="3" stroke-linecap="round" stroke-dasharray="7 7" d="M53.356 477.5h648m-687 94h654m-614.999-188h597"/></svg>