<svg xmlns="http://www.w3.org/2000/svg" xmlns:xlink="http://www.w3.org/1999/xlink" width="52.636" height="60" viewBox="0 0 52.636 60"><defs><linearGradient id="a" x1="-0.431" y1="-0.413" x2="1.329" y2="1.299" gradientUnits="objectBoundingBox"><stop offset="0" stop-color="#db2d2e"/><stop offset="1" stop-color="#f19a9b"/></linearGradient><filter id="b" x="2.001" y="0" width="50.635" height="60" filterUnits="userSpaceOnUse"><feOffset dx="2" dy="2" input="SourceAlpha"/><feGaussianBlur stdDeviation="2" result="c"/><feFlood flood-opacity="0.102"/><feComposite operator="in" in2="c"/><feComposite in="SourceGraphic"/></filter></defs><g transform="translate(-7.517 -7.2)"><g transform="translate(7.517 9.2)"><rect width="50" height="50" rx="14" fill="url(#a)"/></g><g transform="matrix(1, 0, 0, 1, 7.52, 7.2)" filter="url(#b)"><path d="M10512.886,5444.2v-12.642a.61.61,0,0,1,.479-.594l1.273-.283.37-.082.354-.079.333-.08.209-.05.3-.074.279-.071.178-.045.245-.066.156-.042.143-.042.138-.04.127-.04.18-.058c.2-.066.412-.137.623-.214l.254-.09.127-.048.256-.1.254-.1.248-.1.243-.1.238-.1.116-.05.222-.1.214-.1c.138-.063.268-.124.387-.183a18.925,18.925,0,0,0,2.584-1.541l.042-.032.1-.074.051-.042.108-.084.116-.1.121-.1.2-.169.212-.187.225-.2.021-.021a.281.281,0,0,0,.071-.188v-3.53a.406.406,0,0,1,.225-.362l4.249-2.109v7.777a.612.612,0,0,1-.187.439l-.5.478-.2.193-.2.185-.19.177-.185.171-.18.164-.175.156-.169.151-.163.143-.159.135-.15.129-.15.119-.141.116-.068.053-.135.1c-.045.034-.09.066-.13.1a23.03,23.03,0,0,1-3.239,1.939c-.24.119-.51.246-.8.373l-.248.108-.13.056-.261.111-.133.053-.293.119c-.246.1-.494.2-.745.288l-.3.111c-.349.127-.694.246-1.027.352l-.077.024-.092.029-.243.074-.262.074-.225.061-.232.063-.246.063-.023.008a.212.212,0,0,0-.138.2v9.412Zm-10.575,0v-9.412a.212.212,0,0,0-.138-.2l-.023-.008-.246-.063-.232-.063-.225-.061-.259-.074-.246-.074-.092-.029-.077-.024c-.33-.105-.679-.225-1.027-.352l-.3-.111c-.251-.092-.5-.187-.745-.288l-.293-.119-.133-.053-.262-.111-.129-.056-.248-.108c-.288-.126-.556-.253-.8-.373a23.03,23.03,0,0,1-3.239-1.939c-.04-.032-.085-.063-.127-.1l-.135-.1-.071-.053-.141-.116-.147-.119-.153-.129-.159-.135-.163-.143-.167-.151-.177-.156-.18-.164-.185-.171-.19-.177-.2-.185-.2-.193-.5-.478a.612.612,0,0,1-.187-.439V5419.9l4.249,2.109a.406.406,0,0,1,.225.362v3.53a.281.281,0,0,0,.071.188l.021.021.228.2.209.188.2.169.121.1.116.1.108.084.051.042.1.074.042.032a18.925,18.925,0,0,0,2.584,1.541c.119.059.249.119.387.183l.214.1.222.1.116.05.238.1.243.1.251.1.253.1.254.1.127.048.254.09c.214.077.423.148.623.214l.18.058.127.04.138.04.146.042.153.042.248.066.175.045.279.071.3.074.211.05.333.08.352.079.37.082,1.276.283a.61.61,0,0,1,.476.594V5444.2Zm-11.407-27.323a28.762,28.762,0,0,1,37.795-.058l-4.323,2.241a24.289,24.289,0,0,0-29.154.055Zm13.646-15.411a5.288,5.288,0,1,1,5.287,5.264A5.277,5.277,0,0,1,10504.549,5401.467Z" transform="translate(-10484.52 -5392.2)" fill="#fff" opacity="0.8"/></g></g></svg>