<svg xmlns="http://www.w3.org/2000/svg" xmlns:xlink="http://www.w3.org/1999/xlink" width="220" height="146" viewBox="0 0 220 146"><defs><linearGradient id="a" x1="-0.047" x2="1" y2="1" gradientUnits="objectBoundingBox"><stop offset="0" stop-color="#3bc9db"/><stop offset="1" stop-color="#1098ad"/></linearGradient></defs><g transform="translate(-159 -742)"><rect width="220" height="146" transform="translate(159 742)" fill="#fff"/><g transform="translate(169 747.382)"><rect width="151.144" height="71.721" transform="translate(25.857 63.883)" fill="#e6e6e6"/><rect width="142.5" height="59.839" transform="translate(30.179 70.033)" fill="#fff"/><rect width="3.69" height="3.69" transform="translate(145.158 81.171)" fill="#e6e6e6"/><rect width="3.69" height="3.69" transform="translate(46.733 81.171)" fill="#99e9f2"/><rect width="12.3" height="12.3" transform="translate(46.626 91.741)" fill="#e6e6e6"/><rect width="151.144" height="6.421" transform="translate(25.792 59.739)" fill="url(#a)"/><circle cx="1.19" cy="1.19" r="1.19" transform="translate(29.374 63.184)" fill="#fff"/><circle cx="1.19" cy="1.19" r="1.19" transform="translate(33.891 63.184)" fill="#fff"/><circle cx="1.19" cy="1.19" r="1.19" transform="translate(38.409 63.184)" fill="#fff"/><rect width="200" height="0.43" transform="translate(0 135.604)" fill="#e6e6e6"/><rect width="30.136" height="1.73" transform="translate(71.684 92.971)" fill="#e6e6e6"/><rect width="46.536" height="1.73" transform="translate(71.684 99.281)" fill="#99e9f2"/><rect width="37.926" height="1.73" transform="translate(71.684 105.226)" fill="#e6e6e6"/><rect width="22.14" height="1.73" transform="translate(71.684 111.149)" fill="#e6e6e6"/><rect width="33.416" height="1.73" transform="translate(71.684 117.071)" fill="#e6e6e6"/><rect width="3.69" height="3.69" transform="translate(151.514 81.171)" fill="#e6e6e6"/><rect width="3.69" height="3.69" transform="translate(157.869 81.171)" fill="#e6e6e6"/><circle cx="7.494" cy="7.494" r="7.494" transform="translate(146.571 97.891)" fill="#99e9f2" opacity="0.997" style="isolation:isolate"/><circle cx="8.437" cy="8.437" r="8.437" transform="translate(32.055 3.418)" fill="#2f2e41"/><path d="M205.324,472.514h-3.695l-1.757-14.248h5.452Z" transform="translate(-185.829 -388.473)" fill="#feb8b8"/><path d="M179.38,519.677H186.5v4.486h-11.61A4.486,4.486,0,0,1,179.38,519.677Z" transform="translate(-166.216 -436.693)" fill="#2f2e41"/><path d="M185.528,459.338,182,458.232l2.589-14.121,5.2,1.633Z" transform="translate(-171.799 -377.359)" fill="#feb8b8"/><path d="M151.195,500.726l6.8,2.133-1.343,4.28-11.077-3.476a4.486,4.486,0,0,1,5.623-2.937h0Z" transform="translate(-143.193 -421.65)" fill="#2f2e41"/><path d="M189.128,379.644a1.344,1.344,0,0,1-.472-.086l-2.719-1.019a1.361,1.361,0,0,1-.848-1.562c.684-3.076,3.016-13.55,4.293-19.168,1.514-6.664,23.606-7.9,24.545-7.951l.077,0,2.485,3.122c.9,2.886.613,5.138-.846,6.692-4.258,4.534-16.972,1.721-18.488,1.365L190.4,378.771a1.36,1.36,0,0,1-1.27.873Z" transform="translate(-174.196 -303.351)" fill="#2f2e41"/><path d="M207.365,389.462a1.343,1.343,0,0,1-.472-.086l-2.718-1.019a1.36,1.36,0,0,1-.848-1.562c.684-3.077,3.016-13.55,4.293-19.168,1.514-6.664,23.606-7.9,24.545-7.951l.077,0,2.484,3.122c.9,2.886.613,5.138-.846,6.692-4.258,4.533-16.972,1.721-18.488,1.364l-6.758,17.739a1.36,1.36,0,0,1-1.27.873Z" transform="translate(-188.516 -311.059)" fill="#2f2e41"/><path d="M164.869,291.761a3.18,3.18,0,0,1,.267.422L180,293.749l2.14-2.933,4.848,2.65-4.2,7.117-18.226-4.647a3.163,3.163,0,1,1,.312-4.175Z" transform="translate(-153.883 -256.754)" fill="#feb8b8"/><path d="M288.111,272.288a1.356,1.356,0,0,1-.618-.15c-2.972-1.511-8.758-4.128-14.124-4.675a1.323,1.323,0,0,1-.933-.527,1.362,1.362,0,0,1-.251-1.058,83.076,83.076,0,0,0,1.452-14.976,7.411,7.411,0,0,1,5.6-7.372h0a24.064,24.064,0,0,1,2.986-.589,7.471,7.471,0,0,1,8.3,8.666c-.957,5.669-1.922,13.586-1.083,19.113a1.358,1.358,0,0,1-.548,1.31A1.335,1.335,0,0,1,288.111,272.288Z" transform="translate(-242.591 -219.358)" fill="#ccc"/><path d="M261.2,266.613a1.357,1.357,0,0,1-.538-.112l-3.871-1.676a1.357,1.357,0,0,1-.706-1.783l2.992-6.913a3.465,3.465,0,0,1,6.38,2.707l-.02.046-2.992,6.913A1.36,1.36,0,0,1,261.2,266.613Z" transform="translate(-229.877 -228.102)" fill="#ccc"/><circle cx="7.401" cy="7.401" r="7.401" transform="translate(32.783 6.429)" fill="#feb8b8"/><path d="M286.484,162.153a26.693,26.693,0,0,0,11.548,3.805l-1.217-1.458a8.944,8.944,0,0,0,2.763.549,3.026,3.026,0,0,0,2.467-1.155,2.814,2.814,0,0,0,.188-2.6,5.331,5.331,0,0,0-1.677-2.1,9.985,9.985,0,0,0-9.294-1.661,5.968,5.968,0,0,0-2.776,1.781c-.7.866-2.052,1.637-1.693,2.691Z" transform="translate(-253.834 -151.96)" fill="#2f2e41"/><path d="M324.634,137.341a14.376,14.376,0,0,1,5.23-3.383,7.358,7.358,0,0,1,3.962-.492,3.776,3.776,0,0,1,2.94,2.477,4.682,4.682,0,0,1-.478,3.2c-.468,1-1.093,1.924-1.471,2.959a6.754,6.754,0,0,0,6.8,9.058,33.7,33.7,0,0,0-3.765,1.109,3.945,3.945,0,0,1-3.711-.607c-1-.962-1.018-2.527-.97-3.912l.215-6.179a7.85,7.85,0,0,0-.311-3.115,2.675,2.675,0,0,0-2.33-1.83,3.822,3.822,0,0,0-2.14.965,4.375,4.375,0,0,1-2.108,1.054c-.793.071-1.7-.516-1.64-1.31" transform="translate(-283.789 -133.382)" fill="#2f2e41"/><path d="M251.53,312.293a3.316,3.316,0,1,1,1.278-6.377h0a3.188,3.188,0,0,1,.4.2l13.481-6.052.379-3.656,5.811-.156-.038,6.087a3.278,3.278,0,0,1-2.369,3.117L254.7,309.943a3.108,3.108,0,0,1-.107.307,3.328,3.328,0,0,1-3.063,2.043Z" transform="translate(-223.789 -261.264)" fill="#feb8b8"/><path d="M336.409,266.041a1.354,1.354,0,0,1-.531.143l-4.211.259a1.357,1.357,0,0,1-1.437-1.27l-.462-7.519a3.465,3.465,0,1,1,6.917-.426l.462,7.519a1.359,1.359,0,0,1-.739,1.293Z" transform="translate(-287.815 -228.07)" fill="#ccc"/><rect width="25.913" height="2.109" rx="1.055" transform="translate(14.584 49.68)" fill="#3f3d56"/><path d="M157.4,304.22V289.455a1.961,1.961,0,0,1,1.959-1.959h26.817a1.961,1.961,0,0,1,1.959,1.959V304.22a1.961,1.961,0,0,1-1.959,1.959H159.364A1.961,1.961,0,0,1,157.4,304.22Z" transform="translate(-152.484 -254.389)" fill="#3f3d56"/><circle cx="1.808" cy="1.808" r="1.808" transform="translate(18.802 40.641)" fill="#fff"/></g></g></svg>