<svg xmlns="http://www.w3.org/2000/svg" width="60" height="60" viewBox="0 0 60 60"><g transform="translate(1284 -5306)"><rect width="60" height="60" transform="translate(-1284 5306)" fill="#fff" opacity="0"/><g transform="translate(-1282.286 5308.57)"><g transform="translate(18.248 20.074)" opacity="0.44"><path d="M27.621,43.654a.91.91,0,0,0,.768.42h6.3a2.74,2.74,0,0,1,2.737-2.737h5.475a2.74,2.74,0,0,1,2.737,2.737h6.3a.909.909,0,0,0,.767-.419l6.553-10.193A2.74,2.74,0,0,0,56.592,31.3H48.38V26.737A2.74,2.74,0,0,0,45.642,24H34.693a2.74,2.74,0,0,0-2.737,2.737V31.3H23.743a2.74,2.74,0,0,0-2.674,2.163ZM33.78,26.737a.913.913,0,0,1,.912-.912H45.642a.913.913,0,0,1,.912.912V31.3H33.78Z" transform="translate(-21.006 -24)" fill="#d79c56"/><path d="M54.242,45.864a2.725,2.725,0,0,1-2.3,1.257h-6.3A2.74,2.74,0,0,1,42.9,49.858H37.424a2.74,2.74,0,0,1-2.737-2.737h-6.3a2.726,2.726,0,0,1-2.3-1.258L21,37.96v19.2A2.74,2.74,0,0,0,23.737,59.9H56.586a2.74,2.74,0,0,0,2.737-2.737V37.96Z" transform="translate(-21 -25.222)" fill="#d79c56"/><rect width="7.3" height="3.65" rx="1" transform="translate(15.512 19.162)" fill="#d79c56"/></g><path d="M1.069,42.61a3.648,3.648,0,0,1,0-5.161L14.942,23.576A15.5,15.5,0,1,1,20.1,28.737L6.23,42.61a3.651,3.651,0,0,1-5.161,0Zm1.29-3.871a1.823,1.823,0,0,0,0,2.581,1.87,1.87,0,0,0,2.581,0l.645-.645L3,38.094ZM4.3,36.8l2.581,2.581,6.452-6.452-2.581-2.581Zm7.743-7.743,2.579,2.581,1.291-1.29-2.581-2.581Zm2.443-13.55A13.687,13.687,0,1,0,28.167,1.825,13.686,13.686,0,0,0,14.481,15.511Zm.138,10.968L17.2,29.06l1.38-1.38A15.613,15.613,0,0,1,16,25.1Zm2.6-10.968A10.949,10.949,0,1,1,28.167,26.46,10.95,10.95,0,0,1,17.218,15.511Zm1.826,0a9.124,9.124,0,1,0,9.124-9.125A9.124,9.124,0,0,0,19.044,15.511Zm13.687,0a4.567,4.567,0,0,0-4.563-4.562.913.913,0,0,1,0-1.826,6.4,6.4,0,0,1,6.387,6.388.912.912,0,1,1-1.825,0Z" transform="translate(0 0)" fill="#212529"/></g></g></svg>