<svg xmlns="http://www.w3.org/2000/svg" width="60" height="60" viewBox="0 0 60 60"><g transform="translate(1135 -5306)"><rect width="60" height="60" transform="translate(-1135 5306)" fill="#fff" opacity="0"/><g transform="translate(-1133.286 5306)"><g transform="translate(11.437 13.322)"><path d="M28.815,42.42l-3.907,3.907,5.334,5.334,3.907-3.907a18.034,18.034,0,0,1-5.334-5.334Z" transform="translate(-14.746 -16.688)" fill="#edd3b4"/><path d="M15.235,55.7a3.771,3.771,0,1,0,5.334,5.334l7.724-7.724-5.334-5.334Z" transform="translate(-14.13 -17.006)" fill="#edd3b4"/><path d="M44.429,22.129a9.429,9.429,0,1,0,9.429,9.429A9.429,9.429,0,0,0,44.429,22.129ZM48.2,32.5H45.372v2.829a.943.943,0,0,1-1.886,0V32.5H40.657a.943.943,0,1,1,0-1.886h2.829V27.786a.943.943,0,0,1,1.886,0v2.829H48.2a.943.943,0,1,1,0,1.886Z" transform="translate(-15.323 -15.529)" fill="#edd3b4"/><path d="M44.029,15.129A16.029,16.029,0,1,0,60.057,31.158,16.029,16.029,0,0,0,44.029,15.129Zm0,27.343A11.314,11.314,0,1,1,55.343,31.158,11.314,11.314,0,0,1,44.029,42.472Z" transform="translate(-14.923 -15.129)" fill="#edd3b4"/></g><path d="M2.69,47.144A2.693,2.693,0,0,1,.033,44.027L3.275,23.77A4.694,4.694,0,0,1,7.93,19.8h16.2a4.694,4.694,0,0,1,4.655,3.97l3.241,20.259a2.692,2.692,0,0,1-2.655,3.114Zm14.6-1.885H29.368a.8.8,0,0,0,.794-.929L26.92,24.068A2.809,2.809,0,0,0,24.272,21.7ZM5.136,24.068,1.9,44.327a.806.806,0,0,0,.794.932H14.766L7.785,21.7A2.811,2.811,0,0,0,5.136,24.068Zm8.491,10.713,2.4,8.1,2.4-8.1L17.1,25.457H14.961Zm5.246-10.216.84,5.879,2.595-8.757H19.594Zm-6.531,5.879.84-5.879-.72-2.878H9.748Zm2.536-6.872h2.3l.471-1.885H14.408ZM7.542,8.486a8.486,8.486,0,1,1,8.486,8.486A8.487,8.487,0,0,1,7.542,8.486Zm1.95.872a6.592,6.592,0,0,0,13.071,0,8.5,8.5,0,0,1-6.536-4.529A8.5,8.5,0,0,1,9.493,9.357Zm13.047-1.9a6.6,6.6,0,0,0-5.48-5.48A6.606,6.606,0,0,0,22.539,7.454Zm-13.023,0A6.605,6.605,0,0,0,15,1.975,6.6,6.6,0,0,0,9.517,7.454Z" transform="translate(0)" fill="#212529"/></g></g></svg>