<svg xmlns="http://www.w3.org/2000/svg" width="60" height="60" viewBox="0 0 60 60"><g transform="translate(956 -5306)"><rect width="60" height="60" transform="translate(-956 5306)" fill="#fff" opacity="0"/><g transform="translate(-954.286 5306)"><g transform="translate(15.109 16.972)"><path d="M46.2,30H32.883a57.677,57.677,0,0,0-.874,9.429H47.078A57.679,57.679,0,0,0,46.2,30Z" transform="translate(-18.824 -19.629)" fill="#edd3b4"/><path d="M18.025,39.429h11.3A61.391,61.391,0,0,1,30.142,30H20.792a20.6,20.6,0,0,0-2.767,9.429Z" transform="translate(-18.025 -19.629)" fill="#edd3b4"/><path d="M32.883,51.429H46.2A57.68,57.68,0,0,0,47.078,42H32.009a57.679,57.679,0,0,0,.874,9.429Z" transform="translate(-18.824 -20.314)" fill="#edd3b4"/><path d="M39.62,19a20.89,20.89,0,0,0-3.023.223,23.8,23.8,0,0,0-3.254,8.263H45.9a23.8,23.8,0,0,0-3.254-8.263A20.89,20.89,0,0,0,39.62,19Z" transform="translate(-18.9 -19)" fill="#edd3b4"/><path d="M39.62,62.486a20.891,20.891,0,0,0,3.023-.222A23.8,23.8,0,0,0,45.9,54H33.343A23.8,23.8,0,0,0,36.6,62.263a20.892,20.892,0,0,0,3.023.222Z" transform="translate(-18.9 -21)" fill="#edd3b4"/><path d="M58.5,30h-9.35a61.273,61.273,0,0,1,.817,9.429h11.3A20.588,20.588,0,0,0,58.5,30Z" transform="translate(-19.804 -19.629)" fill="#edd3b4"/><path d="M22.266,54a20.81,20.81,0,0,0,11.113,7.71A29.556,29.556,0,0,1,30.744,54Z" transform="translate(-18.267 -21)" fill="#edd3b4"/><path d="M22.266,27.533h8.478a29.556,29.556,0,0,1,2.635-7.71,20.81,20.81,0,0,0-11.113,7.71Z" transform="translate(-18.267 -19.047)" fill="#edd3b4"/><path d="M57.06,54H48.582a29.556,29.556,0,0,1-2.635,7.71A20.81,20.81,0,0,0,57.06,54Z" transform="translate(-19.621 -21)" fill="#edd3b4"/><path d="M61.266,42h-11.3a61.273,61.273,0,0,1-.817,9.429H58.5A20.588,20.588,0,0,0,61.266,42Z" transform="translate(-19.804 -20.314)" fill="#edd3b4"/><path d="M20.792,51.429h9.349A61.39,61.39,0,0,1,29.324,42h-11.3a20.6,20.6,0,0,0,2.767,9.429Z" transform="translate(-18.025 -20.314)" fill="#edd3b4"/><path d="M45.947,19.823a29.555,29.555,0,0,1,2.635,7.71H57.06a20.81,20.81,0,0,0-11.113-7.71Z" transform="translate(-19.621 -19.047)" fill="#edd3b4"/></g><path d="M2.828,42.429A2.83,2.83,0,0,1,0,39.6V2.828A2.83,2.83,0,0,1,2.828,0H39.6a2.83,2.83,0,0,1,2.828,2.828V39.6A2.83,2.83,0,0,1,39.6,42.429ZM1.886,39.6a.941.941,0,0,0,.942.942H39.6a.941.941,0,0,0,.942-.942V8.486H1.886Zm0-36.772V6.6H40.542V2.828a.941.941,0,0,0-.942-.942H2.828A.941.941,0,0,0,1.886,2.828ZM12.27,31a.944.944,0,0,1-.484-.824V21.759L6.719,19.734a.943.943,0,0,1,0-1.752l14.144-5.657a.953.953,0,0,1,.7,0l14.143,5.657a.943.943,0,0,1,0,1.752l-5.065,2.025v8.412a.942.942,0,0,1-.485.824A18.309,18.309,0,0,1,12.27,31Zm1.4-1.39a16.422,16.422,0,0,0,15.086,0V22.512l-7.192,2.878a.956.956,0,0,1-.7,0l-3.42-1.369v3.321a.943.943,0,1,1-1.886,0V23.267l-1.886-.754ZM21.95,18.268a.943.943,0,0,1-.147,1.325l-3.45,2.762L21.215,23.5l11.6-4.64-11.6-4.643L9.609,18.858l6.732,2.691,4.283-3.429a.944.944,0,0,1,1.325.148Z" transform="translate(0 0)" fill="#212529"/></g></g></svg>