<svg xmlns="http://www.w3.org/2000/svg" width="60" height="60" viewBox="0 0 60 60"><g transform="translate(782 -5306)"><rect width="60" height="60" transform="translate(-782 5306)" fill="#fff" opacity="0"/><g transform="translate(-780.286 5308.57)"><g transform="translate(10.949 16.424)"><path d="M30.841,55.5l-.83,5.335a.913.913,0,0,0,.9,1.052H43.687a.913.913,0,0,0,.9-1.052l-.83-5.335Z" transform="translate(-14.488 -22.652)" fill="#edd3b4"/><path d="M19,45.574H53.673V25.5H19Zm3.086-5.28L33.948,31.17a.912.912,0,0,1,1.323.211l4.857,7.286,9.25-9.25a.912.912,0,1,1,1.29,1.29L40.631,40.744a.912.912,0,0,1-1.4-.139L34.3,33.214,23.214,41.729a.913.913,0,1,1-1.128-1.435Z" transform="translate(-13.525 -20.025)" fill="#edd3b4"/><path d="M55.885,19.5H15.737A2.74,2.74,0,0,0,13,22.237V47.786a2.74,2.74,0,0,0,2.737,2.737H55.885a2.74,2.74,0,0,0,2.737-2.737V22.237A2.74,2.74,0,0,0,55.885,19.5Zm-.912,26.461a.912.912,0,0,1-.912.912h-36.5a.912.912,0,0,1-.912-.912v-21.9a.912.912,0,0,1,.912-.912h36.5a.912.912,0,0,1,.912.912Z" transform="translate(-13 -19.5)" fill="#edd3b4"/></g><path d="M4.5,45.615a2.077,2.077,0,0,1-1.928-1.683L.067,30.562a4.019,4.019,0,0,1,1.52-3.932L7.3,22.305v-.934A25.45,25.45,0,0,1,18.654.154a.91.91,0,0,1,1.012,0A25.451,25.451,0,0,1,31.023,21.371v.934l5.711,4.325a4.022,4.022,0,0,1,1.521,3.929L35.746,43.933a2.074,2.074,0,0,1-4.021.213l-1.892-6.307a2.712,2.712,0,0,1-1.548.484h-.913V41.06A2.739,2.739,0,0,1,24.635,43.8H13.686a2.739,2.739,0,0,1-2.737-2.737V38.323h-.913a2.721,2.721,0,0,1-1.548-.483L6.6,44.146a2.077,2.077,0,0,1-1.984,1.472C4.575,45.618,4.538,45.617,4.5,45.615ZM2.688,28.085a2.19,2.19,0,0,0-.826,2.144L4.368,43.6a.257.257,0,0,0,.479.026L7.3,35.452V24.595Zm28.334,7.367,2.451,8.17a.257.257,0,0,0,.249.151.254.254,0,0,0,.23-.177L36.46,30.225a2.192,2.192,0,0,0-.828-2.14l-4.61-3.49ZM12.773,41.06a.913.913,0,0,0,.913.913H24.635a.914.914,0,0,0,.913-.913V38.323H12.773ZM9.124,21.371V35.585a.912.912,0,0,0,.912.913h18.25a.913.913,0,0,0,.912-.913V21.371A23.632,23.632,0,0,0,19.16,2.018,23.627,23.627,0,0,0,9.124,21.371Zm4.562-5.859a5.475,5.475,0,1,1,5.475,5.475A5.48,5.48,0,0,1,13.686,15.512Zm1.825,0a3.65,3.65,0,1,0,3.65-3.65A3.65,3.65,0,0,0,15.51,15.512Z" transform="translate(0 0)" fill="#212529"/></g></g></svg>