<svg xmlns="http://www.w3.org/2000/svg" width="60" height="60" viewBox="0 0 60 60"><g transform="translate(557 -5306)"><rect width="60" height="60" transform="translate(-557 5306)" fill="#fff" opacity="0"/><g transform="translate(-555.286 5307.714)"><path d="M39.072,26.3A12.774,12.774,0,1,0,51.846,39.072,12.774,12.774,0,0,0,39.072,26.3Zm8.919,8.789-6.737,8.234a2.737,2.737,0,0,1-4.309-.091l-4.077-5.435a.912.912,0,0,1,1.46-1.095l4.078,5.436a.912.912,0,0,0,1.436.03l6.736-8.235a.913.913,0,1,1,1.413,1.155Zm9.909.81a4.386,4.386,0,0,1-.951-3.578c.12-3-.358-3.943-3.129-5.383a4.386,4.386,0,0,1-2.62-2.621c-1.436-2.754-2.372-3.251-5.383-3.128a4.39,4.39,0,0,1-3.57-.946c-2.592-1.651-3.705-1.684-6.349,0a4.391,4.391,0,0,1-3.577.947c-3.005-.116-3.94.353-5.383,3.127a4.392,4.392,0,0,1-2.623,2.621c-2.779,1.449-3.246,2.4-3.127,5.383a4.391,4.391,0,0,1-.947,3.571c-1.642,2.581-1.69,3.694,0,6.349a4.38,4.38,0,0,1,.949,3.571c-.12,2.98.342,3.933,3.127,5.383a4.392,4.392,0,0,1,2.621,2.626c1.432,2.747,2.365,3.251,5.383,3.128a4.39,4.39,0,0,1,3.571.946c2.581,1.642,3.694,1.69,6.349,0a4.38,4.38,0,0,1,3.569-.946c3,.122,3.945-.365,5.383-3.128A4.392,4.392,0,0,1,53.816,51.2c2.779-1.448,3.247-2.4,3.128-5.383a4.386,4.386,0,0,1,.946-3.571c1.649-2.584,1.7-3.7.005-6.351ZM39.072,53.671a14.6,14.6,0,1,1,14.6-14.6,14.6,14.6,0,0,1-14.6,14.6Z" transform="translate(-2.573 -2.576)" fill="#edd3b4"/><path d="M23.81,1A22.8,22.8,0,0,0,12.475,43.592c.014.006.025.016.038.022a22.73,22.73,0,0,0,22.593,0c.014-.006.025-.016.038-.023A22.8,22.8,0,0,0,23.81,1ZM8.3,23.81a15.511,15.511,0,1,1,26.924,10.5A11.893,11.893,0,0,0,27.8,26.341a7.756,7.756,0,1,0-7.984,0A11.893,11.893,0,0,0,12.4,34.309a15.52,15.52,0,0,1-4.1-10.5ZM23.81,25.635A5.931,5.931,0,1,1,29.741,19.7a5.931,5.931,0,0,1-5.931,5.931Zm-10.037,16.6V37.5a10.037,10.037,0,1,1,20.073,0v4.739a20.953,20.953,0,0,1-20.073,0Zm21.9-1.125V37.5c0-.345-.023-.683-.052-1.02a17.336,17.336,0,1,0-23.619,0c-.029.337-.052.675-.052,1.02v3.614a20.985,20.985,0,1,1,23.723,0Z" transform="translate(-0.997 -1)" fill="#212529"/></g></g></svg>