
<svg xmlns="http://www.w3.org/2000/svg" viewBox="0 0 28 28">
  <path fill="none" d="M0 0h28v28H0z"/>
  <path fill="#e36868" d="M11.1 13.3h-.9a.4.4 0 1 1 0-.9h2.2a.9.9 0 0 0 0-1.7h-.8v-1a.9.9 0 0 0-1.8 0v1a2.2 2.2 0 0 0 .4 4.4h1a.4.4 0 0 1 0 .9H8.8a.9.9 0 0 0 0 1.8h.9v.9a.9.9 0 0 0 1.8 0v-1a2.2 2.2 0 0 0-.5-4.4Zm0 0h-.9a.4.4 0 1 1 0-.9h2.2a.9.9 0 0 0 0-1.7h-.8v-1a.9.9 0 0 0-1.8 0v1a2.2 2.2 0 0 0 .4 4.4h1a.4.4 0 0 1 0 .9H8.8a.9.9 0 0 0 0 1.8h.9v.9a.9.9 0 0 0 1.8 0v-1a2.2 2.2 0 0 0-.5-4.4Zm0 0h-.9a.4.4 0 1 1 0-.9h2.2a.9.9 0 0 0 0-1.7h-.8v-1a.9.9 0 0 0-1.8 0v1a2.2 2.2 0 0 0 .4 4.4h1a.4.4 0 0 1 0 .9H8.8a.9.9 0 0 0 0 1.8h.9v.9a.9.9 0 0 0 1.8 0v-1a2.2 2.2 0 0 0-.5-4.4Zm12-5.3a.9.9 0 0 0-.9.9v2.7H17V6.2h2.7a.9.9 0 0 0 0-1.8H5.3a.9.9 0 0 0-.9 1V23a.9.9 0 0 0 1 .9H23a.9.9 0 0 0 .9-.9V9a.9.9 0 0 0-.9-1Zm-.9 14.2H17V17h5.3Zm0-7H16a.9.9 0 0 0-.9.8v6.2H6.2v-16h9v6.2a.9.9 0 0 0 .8 1h6.2Zm-12-2.8h2.2a.9.9 0 0 0 0-1.7h-.8v-1a.9.9 0 0 0-1.8 0v1a2.2 2.2 0 0 0 .4 4.4h1a.4.4 0 0 1 0 .9H8.8a.9.9 0 0 0 0 1.8h.9v.9a.9.9 0 0 0 1.8 0v-1a2.2 2.2 0 0 0-.5-4.4h-.9a.4.4 0 1 1 0-.9Zm1 1h-1a.4.4 0 1 1 0-1h2.2a.9.9 0 0 0 0-1.7h-.8v-1a.9.9 0 0 0-1.8 0v1a2.2 2.2 0 0 0 .4 4.4h1a.4.4 0 0 1 0 .9H8.8a.9.9 0 0 0 0 1.8h.9v.9a.9.9 0 0 0 1.8 0v-1a2.2 2.2 0 0 0-.5-4.4Zm0 0h-1a.4.4 0 1 1 0-1h2.2a.9.9 0 0 0 0-1.7h-.8v-1a.9.9 0 0 0-1.8 0v1a2.2 2.2 0 0 0 .4 4.4h1a.4.4 0 0 1 0 .9H8.8a.9.9 0 0 0 0 1.8h.9v.9a.9.9 0 0 0 1.8 0v-1a2.2 2.2 0 0 0-.5-4.4Zm0 0h-1a.4.4 0 1 1 0-1h2.2a.9.9 0 0 0 0-1.7h-.8v-1a.9.9 0 0 0-1.8 0v1a2.2 2.2 0 0 0 .4 4.4h1a.4.4 0 0 1 0 .9H8.8a.9.9 0 0 0 0 1.8h.9v.9a.9.9 0 0 0 1.8 0v-1a2.2 2.2 0 0 0-.5-4.4Zm0 0h-1a.4.4 0 1 1 0-1h2.2a.9.9 0 0 0 0-1.7h-.8v-1a.9.9 0 0 0-1.8 0v1a2.2 2.2 0 0 0 .4 4.4h1a.4.4 0 0 1 0 .9H8.8a.9.9 0 0 0 0 1.8h.9v.9a.9.9 0 0 0 1.8 0v-1a2.2 2.2 0 0 0-.5-4.4Zm0 0h-1a.4.4 0 1 1 0-1h2.2a.9.9 0 0 0 0-1.7h-.8v-1a.9.9 0 0 0-1.8 0v1a2.2 2.2 0 0 0 .4 4.4h1a.4.4 0 0 1 0 .9H8.8a.9.9 0 0 0 0 1.8h.9v.9a.9.9 0 0 0 1.8 0v-1a2.2 2.2 0 0 0-.5-4.4Zm12-5.4a.9.9 0 0 0-1 .9v2.7H17V6.2h2.7a.9.9 0 0 0 0-1.8H5.3a.9.9 0 0 0-.9 1V23a.9.9 0 0 0 1 .9H23a.9.9 0 0 0 .9-.9V9a.9.9 0 0 0-.9-1Zm-1 14.2H17V17h5.3Zm0-7H16a.9.9 0 0 0-.9.8v6.2H6.2v-16h9v6.2a.9.9 0 0 0 .8 1h6.2Zm-12-2.8h2.2a.9.9 0 0 0 0-1.7h-.8v-1a.9.9 0 0 0-1.8 0v1a2.2 2.2 0 0 0 .4 4.4h1a.4.4 0 0 1 0 .9H8.8a.9.9 0 0 0 0 1.8h.9v.9a.9.9 0 0 0 1.8 0v-1a2.2 2.2 0 0 0-.5-4.4h-.9a.4.4 0 1 1 0-.9Zm1 1h-1a.4.4 0 1 1 0-1h2.2a.9.9 0 0 0 0-1.7h-.8v-1a.9.9 0 0 0-1.8 0v1a2.2 2.2 0 0 0 .4 4.4h1a.4.4 0 0 1 0 .9H8.8a.9.9 0 0 0 0 1.8h.9v.9a.9.9 0 0 0 1.8 0v-1a2.2 2.2 0 0 0-.5-4.4Zm0 0h-1a.4.4 0 1 1 0-1h2.2a.9.9 0 0 0 0-1.7h-.8v-1a.9.9 0 0 0-1.8 0v1a2.2 2.2 0 0 0 .4 4.4h1a.4.4 0 0 1 0 .9H8.8a.9.9 0 0 0 0 1.8h.9v.9a.9.9 0 0 0 1.8 0v-1a2.2 2.2 0 0 0-.5-4.4Zm0 0h-1a.4.4 0 1 1 0-1h2.2a.9.9 0 0 0 0-1.7h-.8v-1a.9.9 0 0 0-1.8 0v1a2.2 2.2 0 0 0 .4 4.4h1a.4.4 0 0 1 0 .9H8.8a.9.9 0 0 0 0 1.8h.9v.9a.9.9 0 0 0 1.8 0v-1a2.2 2.2 0 0 0-.5-4.4Zm0 0h-1a.4.4 0 1 1 0-1h2.2a.9.9 0 0 0 0-1.7h-.8v-1a.9.9 0 0 0-1.8 0v1a2.2 2.2 0 0 0 .4 4.4h1a.4.4 0 0 1 0 .9H8.8a.9.9 0 0 0 0 1.8h.9v.9a.9.9 0 0 0 1.8 0v-1a2.2 2.2 0 0 0-.5-4.4Zm16-8.7-3.5-3.6a1 1 0 0 0-.6-.2H1.8a.9.9 0 0 0-1 .9v24.9a.9.9 0 0 0 1 .8h24.9a.9.9 0 0 0 .8-.8V5.3a1 1 0 0 0-.2-.6Zm-1.4 21H2.7v-23h19.5v2.6a.9.9 0 0 0 1 1h2.6ZM22.2 9v2.7H17V6.2h2.7a.9.9 0 0 0 0-1.8H5.3a.9.9 0 0 0-.9 1V23a.9.9 0 0 0 1 .9H23a.9.9 0 0 0 .9-.9V9a.9.9 0 1 0-1.8 0Zm0 13.3H17V17h5.3Zm0-7H16a.9.9 0 0 0-.9.8v6.2H6.2v-16h9v6.2a.9.9 0 0 0 .8 1h6.2Zm-12-2.8h2.2a.9.9 0 0 0 0-1.7h-.9v-1a.9.9 0 0 0-1.7 0v1a2.2 2.2 0 0 0 .4 4.4h1a.4.4 0 0 1 0 .9H8.8a.9.9 0 0 0 0 1.8h.9v.9a.9.9 0 0 0 1.8 0v-1a2.2 2.2 0 0 0-.5-4.4h-.9a.4.4 0 1 1 0-.9Zm1 1h-1a.4.4 0 1 1 0-1h2.2a.9.9 0 0 0 0-1.7h-.9v-1a.9.9 0 0 0-1.7 0v1a2.2 2.2 0 0 0 .4 4.4h1a.4.4 0 0 1 0 .9H8.8a.9.9 0 0 0 0 1.8h.9v.9a.9.9 0 0 0 1.8 0v-1a2.2 2.2 0 0 0-.5-4.4Zm0 0h-1a.4.4 0 1 1 0-1h2.2a.9.9 0 0 0 0-1.7h-.9v-1a.9.9 0 0 0-1.7 0v1a2.2 2.2 0 0 0 .4 4.4h1a.4.4 0 0 1 0 .9H8.8a.9.9 0 0 0 0 1.8h.9v.9a.9.9 0 0 0 1.8 0v-1a2.2 2.2 0 0 0-.5-4.4Z"/>
</svg>