<svg xmlns="http://www.w3.org/2000/svg" width="28" height="28" viewBox="0 0 28 28"><rect width="28" height="28" fill="none"/><path d="M11.22,13.441h-.889a.444.444,0,1,1,0-.889h2.222a.889.889,0,0,0,0-1.777h-.889V9.887a.889.889,0,0,0-1.777,0v.933a2.222,2.222,0,0,0,.444,4.4h.889a.444.444,0,0,1,0,.889H9a.889.889,0,0,0,0,1.777h.889v.889a.889.889,0,0,0,1.777,0V17.84a2.222,2.222,0,0,0-.444-4.4Zm0,0h-.889a.444.444,0,1,1,0-.889h2.222a.889.889,0,0,0,0-1.777h-.889V9.887a.889.889,0,0,0-1.777,0v.933a2.222,2.222,0,0,0,.444,4.4h.889a.444.444,0,0,1,0,.889H9a.889.889,0,0,0,0,1.777h.889v.889a.889.889,0,0,0,1.777,0V17.84a2.222,2.222,0,0,0-.444-4.4Zm0,0h-.889a.444.444,0,1,1,0-.889h2.222a.889.889,0,0,0,0-1.777h-.889V9.887a.889.889,0,0,0-1.777,0v.933a2.222,2.222,0,0,0,.444,4.4h.889a.444.444,0,0,1,0,.889H9a.889.889,0,0,0,0,1.777h.889v.889a.889.889,0,0,0,1.777,0V17.84a2.222,2.222,0,0,0-.444-4.4Zm12-5.332A.889.889,0,0,0,22.328,9v2.666H17V6.332h2.666a.889.889,0,0,0,0-1.777H5.443a.889.889,0,0,0-.889.889V23.217a.889.889,0,0,0,.889.889H23.217a.889.889,0,0,0,.889-.889V9A.889.889,0,0,0,23.217,8.109Zm-.889,14.219H17V17h5.332Zm0-7.109H16.107a.889.889,0,0,0-.889.889v6.221H6.332v-16h8.887v6.221a.889.889,0,0,0,.889.889h6.221Zm-12-2.666h2.222a.889.889,0,0,0,0-1.777h-.889V9.887a.889.889,0,0,0-1.777,0v.933a2.222,2.222,0,0,0,.444,4.4h.889a.444.444,0,0,1,0,.889H9a.889.889,0,0,0,0,1.777h.889v.889a.889.889,0,0,0,1.777,0V17.84a2.222,2.222,0,0,0-.444-4.4h-.889a.444.444,0,1,1,0-.889Zm.889.889h-.889a.444.444,0,1,1,0-.889h2.222a.889.889,0,0,0,0-1.777h-.889V9.887a.889.889,0,0,0-1.777,0v.933a2.222,2.222,0,0,0,.444,4.4h.889a.444.444,0,0,1,0,.889H9a.889.889,0,0,0,0,1.777h.889v.889a.889.889,0,0,0,1.777,0V17.84a2.222,2.222,0,0,0-.444-4.4Zm0,0h-.889a.444.444,0,1,1,0-.889h2.222a.889.889,0,0,0,0-1.777h-.889V9.887a.889.889,0,0,0-1.777,0v.933a2.222,2.222,0,0,0,.444,4.4h.889a.444.444,0,0,1,0,.889H9a.889.889,0,0,0,0,1.777h.889v.889a.889.889,0,0,0,1.777,0V17.84a2.222,2.222,0,0,0-.444-4.4Zm0,0h-.889a.444.444,0,1,1,0-.889h2.222a.889.889,0,0,0,0-1.777h-.889V9.887a.889.889,0,0,0-1.777,0v.933a2.222,2.222,0,0,0,.444,4.4h.889a.444.444,0,0,1,0,.889H9a.889.889,0,0,0,0,1.777h.889v.889a.889.889,0,0,0,1.777,0V17.84a2.222,2.222,0,0,0-.444-4.4Zm0,0h-.889a.444.444,0,1,1,0-.889h2.222a.889.889,0,0,0,0-1.777h-.889V9.887a.889.889,0,0,0-1.777,0v.933a2.222,2.222,0,0,0,.444,4.4h.889a.444.444,0,0,1,0,.889H9a.889.889,0,0,0,0,1.777h.889v.889a.889.889,0,0,0,1.777,0V17.84a2.222,2.222,0,0,0-.444-4.4Zm0,0h-.889a.444.444,0,1,1,0-.889h2.222a.889.889,0,0,0,0-1.777h-.889V9.887a.889.889,0,0,0-1.777,0v.933a2.222,2.222,0,0,0,.444,4.4h.889a.444.444,0,0,1,0,.889H9a.889.889,0,0,0,0,1.777h.889v.889a.889.889,0,0,0,1.777,0V17.84a2.222,2.222,0,0,0-.444-4.4Zm12-5.332A.889.889,0,0,0,22.328,9v2.666H17V6.332h2.666a.889.889,0,0,0,0-1.777H5.443a.889.889,0,0,0-.889.889V23.217a.889.889,0,0,0,.889.889H23.217a.889.889,0,0,0,.889-.889V9A.889.889,0,0,0,23.217,8.109Zm-.889,14.219H17V17h5.332Zm0-7.109H16.107a.889.889,0,0,0-.889.889v6.221H6.332v-16h8.887v6.221a.889.889,0,0,0,.889.889h6.221Zm-12-2.666h2.222a.889.889,0,0,0,0-1.777h-.889V9.887a.889.889,0,0,0-1.777,0v.933a2.222,2.222,0,0,0,.444,4.4h.889a.444.444,0,0,1,0,.889H9a.889.889,0,0,0,0,1.777h.889v.889a.889.889,0,0,0,1.777,0V17.84a2.222,2.222,0,0,0-.444-4.4h-.889a.444.444,0,1,1,0-.889Zm.889.889h-.889a.444.444,0,1,1,0-.889h2.222a.889.889,0,0,0,0-1.777h-.889V9.887a.889.889,0,0,0-1.777,0v.933a2.222,2.222,0,0,0,.444,4.4h.889a.444.444,0,0,1,0,.889H9a.889.889,0,0,0,0,1.777h.889v.889a.889.889,0,0,0,1.777,0V17.84a2.222,2.222,0,0,0-.444-4.4Zm0,0h-.889a.444.444,0,1,1,0-.889h2.222a.889.889,0,0,0,0-1.777h-.889V9.887a.889.889,0,0,0-1.777,0v.933a2.222,2.222,0,0,0,.444,4.4h.889a.444.444,0,0,1,0,.889H9a.889.889,0,0,0,0,1.777h.889v.889a.889.889,0,0,0,1.777,0V17.84a2.222,2.222,0,0,0-.444-4.4Zm0,0h-.889a.444.444,0,1,1,0-.889h2.222a.889.889,0,0,0,0-1.777h-.889V9.887a.889.889,0,0,0-1.777,0v.933a2.222,2.222,0,0,0,.444,4.4h.889a.444.444,0,0,1,0,.889H9a.889.889,0,0,0,0,1.777h.889v.889a.889.889,0,0,0,1.777,0V17.84a2.222,2.222,0,0,0-.444-4.4Zm0,0h-.889a.444.444,0,1,1,0-.889h2.222a.889.889,0,0,0,0-1.777h-.889V9.887a.889.889,0,0,0-1.777,0v.933a2.222,2.222,0,0,0,.444,4.4h.889a.444.444,0,0,1,0,.889H9a.889.889,0,0,0,0,1.777h.889v.889a.889.889,0,0,0,1.777,0V17.84a2.222,2.222,0,0,0-.444-4.4ZM27.4,4.821V4.812L23.848,1.258A1.018,1.018,0,0,0,23.217,1H1.889A.889.889,0,0,0,1,1.889V26.771a.889.889,0,0,0,.889.889H26.771a.889.889,0,0,0,.889-.889V5.443A.947.947,0,0,0,27.4,4.821Zm-1.52,21.062H2.777V2.777H22.328V5.443a.889.889,0,0,0,.889.889h2.666ZM22.328,9v2.666H17V6.332h2.666a.889.889,0,0,0,0-1.777H5.443a.889.889,0,0,0-.889.889V23.217a.889.889,0,0,0,.889.889H23.217a.889.889,0,0,0,.889-.889V9a.889.889,0,1,0-1.777,0Zm0,13.33H17V17h5.332Zm0-7.109H16.107a.889.889,0,0,0-.889.889v6.221H6.332v-16h8.887v6.221a.889.889,0,0,0,.889.889h6.221Zm-12-2.666h2.222a.889.889,0,0,0,0-1.777h-.889V9.887a.889.889,0,0,0-1.777,0v.933a2.222,2.222,0,0,0,.444,4.4h.889a.444.444,0,0,1,0,.889H9a.889.889,0,0,0,0,1.777h.889v.889a.889.889,0,0,0,1.777,0V17.84a2.222,2.222,0,0,0-.444-4.4h-.889a.444.444,0,1,1,0-.889Zm.889.889h-.889a.444.444,0,1,1,0-.889h2.222a.889.889,0,0,0,0-1.777h-.889V9.887a.889.889,0,0,0-1.777,0v.933a2.222,2.222,0,0,0,.444,4.4h.889a.444.444,0,0,1,0,.889H9a.889.889,0,0,0,0,1.777h.889v.889a.889.889,0,0,0,1.777,0V17.84a2.222,2.222,0,0,0-.444-4.4Zm0,0h-.889a.444.444,0,1,1,0-.889h2.222a.889.889,0,0,0,0-1.777h-.889V9.887a.889.889,0,0,0-1.777,0v.933a2.222,2.222,0,0,0,.444,4.4h.889a.444.444,0,0,1,0,.889H9a.889.889,0,0,0,0,1.777h.889v.889a.889.889,0,0,0,1.777,0V17.84a2.222,2.222,0,0,0-.444-4.4Z" transform="translate(-0.111 -0.111)" fill="#e36868"/></svg>