<svg xmlns="http://www.w3.org/2000/svg" width="32" height="32" viewBox="0 0 32 32"><g transform="translate(-258.775 -311.189)"><rect width="32" height="32" transform="translate(258.775 311.189)" fill="#d0d0d1" opacity="0"/><g transform="translate(259.775 267.002)"><g transform="translate(0 48)"><path d="M6.562,368H.937a.94.94,0,0,0-.937.938v3.75a.94.94,0,0,0,.937.938H6.562a.94.94,0,0,0,.937-.937v-3.75A.94.94,0,0,0,6.562,368Z" transform="translate(0 -349.25)" fill="#d0d0d1"/><path d="M198.563,368h-5.625a.94.94,0,0,0-.937.938v3.75a.94.94,0,0,0,.938.938h5.625a.94.94,0,0,0,.938-.937v-3.75A.94.94,0,0,0,198.563,368Z" transform="translate(-180.75 -349.25)" fill="#d0d0d1"/><path d="M64.938,213.625h7.5a.94.94,0,0,0,.938-.937v-3.75a.94.94,0,0,0-.938-.937h-7.5a.94.94,0,0,0-.937.938v3.75A.94.94,0,0,0,64.938,213.625Z" transform="translate(-60.25 -198.625)" fill="#d0d0d1"/><path d="M288,208.937v3.75a.94.94,0,0,0,.938.938h7.5a.94.94,0,0,0,.938-.937v-3.75a.94.94,0,0,0-.938-.937h-7.5A.94.94,0,0,0,288,208.937Z" transform="translate(-271.125 -198.625)" fill="#d0d0d1"/><path d="M160.938,53.625h9.375a.94.94,0,0,0,.938-.937v-3.75a.94.94,0,0,0-.938-.937h-9.375a.94.94,0,0,0-.937.938v3.75A.94.94,0,0,0,160.938,53.625Z" transform="translate(-150.625 -48)" fill="#d0d0d1"/><path d="M390.563,368h-5.625a.94.94,0,0,0-.937.938v3.75a.94.94,0,0,0,.938.938h5.625a.94.94,0,0,0,.938-.937v-3.75A.94.94,0,0,0,390.563,368Z" transform="translate(-361.5 -349.25)" fill="#d0d0d1"/></g></g></g></svg>