<svg xmlns="http://www.w3.org/2000/svg" viewBox="0 0 32 32">
  <g fill="#d0d0d1">
    <path d="M7.6 22.6H1.9a1 1 0 0 0-.9.9v3.8a1 1 0 0 0 1 .9h5.6a1 1 0 0 0 .9-1v-3.7a1 1 0 0 0-1-1ZM18.8 22.6h-5.6a1 1 0 0 0-1 .9v3.8a1 1 0 0 0 1 .9h5.6a1 1 0 0 0 1-1v-3.7a1 1 0 0 0-1-1ZM5.7 18.8h7.5a1 1 0 0 0 1-1v-3.7a1 1 0 0 0-1-1H5.7a1 1 0 0 0-1 1V18a1 1 0 0 0 1 1ZM17.9 14.1V18a1 1 0 0 0 1 1h7.4a1 1 0 0 0 1-1V14a1 1 0 0 0-1-1h-7.5a1 1 0 0 0-1 1ZM11.3 9.4h9.4a1 1 0 0 0 1-.9V4.8a1 1 0 0 0-1-1h-9.4a1 1 0 0 0-1 1v3.7a1 1 0 0 0 1 1ZM30 22.6h-5.6a1 1 0 0 0-.9.9v3.8a1 1 0 0 0 1 .9H30a1 1 0 0 0 .9-1v-3.7a1 1 0 0 0-1-1Z"/>
  </g>
</svg>