<svg width="732" height="410" fill="none" xmlns="http://www.w3.org/2000/svg"><g style="mix-blend-mode:screen" opacity=".116" fill-rule="evenodd" clip-rule="evenodd" fill="#FFF"><path d="M548.729 121.769a15.25 15.25 0 00-12.498-4.9l-.519-6.274a21.55 21.55 0 0117.666 6.932l-4.649 4.242zm-32.696 11.445a21.5 21.5 0 017.417-17.467l4.116 4.764a15.197 15.197 0 00-5.248 12.359l-6.285.344zm34.591 15.839l-3.845-4.986c3.764-2.906 5.925-7.296 5.925-12.045 0-.566-.033-1.136-.092-1.691l6.255-.692c.089.784.133 1.588.133 2.383 0 6.715-3.053 12.922-8.376 17.031zm-13.124 4.468a21.428 21.428 0 01-16.659-7.907l4.875-3.983a15.157 15.157 0 0011.784 5.597c.141 0 .281-.004.422-.007l.178 6.292c-.2.008-.4.008-.6.008zm-74.5-91h41v-8h-41v8zm-21 203h23v-8h-23v8zm157-147h28v-8h-28v8zm-19-18h36v-8h-36v8zm47 3h17v-8h-17v8zm-191-59h46v-8h-46v8zm71-5h11v-8h-11v8zm-16 0h11v-8h-11v8zm-356 27h23.362v-8H135v8zm28.638 0H187v-8h-23.362v8zm10.362 17h22.945v-8H174v8zm28.126 0H221v-8h-18.874v8zm206.752-78.7l8.423 7.824 7.821-8.426-8.423-7.823-7.821 8.426zm8.755 16.7L400 5.153l16.367-17.634L434 3.89l-16.367 17.63z"/><path d="M414 27.52h8v-10h-8v10zm-16-16h10v-8h-10v8zm29 0h10v-8h-10v8zM220.877 243.822l8.425 7.823 7.82-8.426-8.424-7.823-7.821 8.426zm8.754 16.699L212 244.15l16.368-17.629L246 242.887l-16.369 17.634z"/><path d="M226 232.521h8v-10h-8v10zm0 30h8v-10h-8v10zm-14-13h10v-8h-10v8zm28 0h10v-8h-10v8zm212.879-125.699l8.424 7.823 7.818-8.426-8.424-7.823-7.818 8.426zm8.753 16.699L444 124.15l16.368-17.629L478 122.887l-16.368 17.634z"/><path d="M457 115.521h8v-10h-8v10zm0 30h8v-10h-8v10zm-16-17h10v-8h-10v8zm28 0h10v-8h-10v8zm-328.534 5L136 129.033l15.534-15.512 4.466 4.484-15.534 15.516z"/><path d="M152.74 133.521L135 118.19l4.26-4.669L157 128.855l-4.26 4.666zm323.758 203.51c-3.852 0-6.984 3.137-6.984 6.99 0 3.852 3.132 6.989 6.984 6.989 3.856 0 6.988-3.137 6.988-6.989 0-3.853-3.132-6.99-6.988-6.99zm0 20.49c-7.444 0-13.498-6.055-13.498-13.5 0-7.446 6.054-13.5 13.498-13.5 7.444 0 13.502 6.054 13.502 13.5 0 7.445-6.058 13.5-13.502 13.5zm-62.498-123h8v-17h-8v17z"/><path d="M406 230.521h20v-8h-20v8zm325-147h23v-8h-23v8zm-539 100h8v-25h-8v25z"/><path d="M183 175.521h25v-8h-25v8zm96-100h8v-25h-8v25z"/><path d="M271 67.52h25v-8h-25v8zm66.206-53.306h10.588V3.827h-10.588v10.387zM331 20.52h23v-23h-23v23zm62 318.001h18v-18h-18v18zm-6 6h30v-30h-30v30zm-77.552-41.339h9.104v-9.323h-9.104v9.323zM303 309.521h22v-22h-22v22zm421-177h23.362v-8H724v8zm28.638 0H776v-8h-23.362v8zM732.002-18.396c-4.917 0-8.918 4.001-8.918 8.918 0 4.914 4.001 8.915 8.918 8.915 4.913 0 8.914-4.001 8.914-8.915 0-4.917-4.001-8.918-8.914-8.918zm0 23.917C723.731 5.52 717-1.207 717-9.478c0-8.27 6.731-15.002 15.002-15.002 8.27 0 14.998 6.732 14.998 15.002s-6.728 14.999-14.998 14.999zM222 .064c-9.074 0-16.456 7.384-16.456 16.456 0 9.073 7.382 16.457 16.456 16.457s16.456-7.383 16.456-16.456S231.074.063 222 .063zm0 39.456c-12.682 0-23-10.316-23-23 0-12.683 10.318-23 23-23s23 10.317 23 23c0 12.684-10.318 23-23 23zm277.5 158.143a6.364 6.364 0 00-6.357 6.356 6.364 6.364 0 006.357 6.359 6.364 6.364 0 006.357-6.359 6.364 6.364 0 00-6.357-6.356zm0 18.858c-6.895 0-12.5-5.608-12.5-12.502 0-6.891 5.605-12.498 12.5-12.498s12.5 5.607 12.5 12.498c0 6.894-5.605 12.502-12.5 12.502zm187-156.289a2.793 2.793 0 00-2.789 2.788 2.793 2.793 0 002.789 2.789 2.79 2.79 0 002.789-2.788 2.79 2.79 0 00-2.789-2.789zm0 11.288c-4.687 0-8.5-3.813-8.5-8.5 0-4.686 3.813-8.5 8.5-8.5 4.69 0 8.5 3.814 8.5 8.5 0 4.687-3.81 8.5-8.5 8.5zM389.242 86.358c.526 0 1.048.137 1.519.407l2.628 1.508-.441-3.08a3.314 3.314 0 01.959-2.842l2.202-2.12-2.967-.517c-1.014-.175-1.878-.86-2.312-1.823l-1.271-2.824-1.39 2.759a3.128 3.128 0 01-2.393 1.716l-2.985.377 2.107 2.223a3.322 3.322 0 01.838 2.884l-.577 3.056 2.694-1.385a2.998 2.998 0 011.389-.339zm8.168 11.162a3.033 3.033 0 01-1.514-.403l-6.731-3.867-6.892 3.547a3.04 3.04 0 01-3.286-.323c-.945-.746-1.401-1.983-1.173-3.193l1.471-7.82-5.389-5.69a3.314 3.314 0 01-.72-3.334c.393-1.165 1.389-1.994 2.569-2.147l7.642-.966 3.562-7.064a3.107 3.107 0 012.841-1.739c1.187.027 2.261.754 2.761 1.869l3.249 7.223 7.591 1.324c1.172.202 2.135 1.081 2.477 2.26a3.307 3.307 0 01-.864 3.297l-5.631 5.434 1.128 7.882c.177 1.218-.33 2.436-1.308 3.136a3.078 3.078 0 01-1.783.575zM68.826 45.547l6.913 6.773a3.14 3.14 0 01.897 2.773l-1.632 9.56 8.544-4.513a3.113 3.113 0 012.904 0l8.544 4.513-1.632-9.56a3.138 3.138 0 01.897-2.773l6.913-6.773-9.553-1.394a3.118 3.118 0 01-2.35-1.714L85 33.74l-4.272 8.698a3.118 3.118 0 01-2.35 1.714l-9.552 1.394zM70.86 73.52c-.647 0-1.29-.203-1.834-.597a3.146 3.146 0 01-1.242-3.068l2.423-14.198-10.265-10.051a3.148 3.148 0 01-.79-3.215 3.127 3.127 0 012.52-2.135l14.186-2.072 6.344-12.916A3.12 3.12 0 0185 23.52a3.12 3.12 0 012.798 1.748l6.344 12.916 14.186 2.072c1.176.173 2.152 1 2.519 2.135a3.148 3.148 0 01-.789 3.215l-10.266 10.05 2.423 14.2a3.143 3.143 0 01-1.241 3.067c-.961.7-2.234.793-3.286.236L85 66.456l-12.688 6.703a3.08 3.08 0 01-1.452.361zm295.71 184.001c-4.387 0-8.662-3.162-11.582-5.319a73.033 73.033 0 00-1.203-.875c-3.506-2.45-7.425-5.705-11.574-9.144-7.604-6.313-16.223-13.463-21.3-14.504-4.572-.938-12.049 3.836-30.02 15.69-.407.267-.857.574-1.345.904-4.526 3.084-11.364 7.739-17.38 6.223-1.824-.459-4.369-1.723-6.138-5.129-3.137-6.039.069-13.348 2.645-19.219.829-1.891 1.612-3.677 2.042-5.104.641-2.124 1.394-4.3 2.047-6.153a3.151 3.151 0 014.02-1.924 3.15 3.15 0 011.926 4.018c-.629 1.783-1.353 3.877-1.957 5.879-.54 1.79-1.397 3.743-2.305 5.812-2.036 4.644-4.571 10.423-2.824 13.788.749 1.438 1.549 1.787 2.086 1.92 3.267.823 9.136-3.169 12.29-5.319.515-.348.992-.674 1.422-.956 19.409-12.803 27.442-18.099 34.756-16.602 6.624 1.357 15.489 8.711 24.062 15.827 4.045 3.355 7.867 6.528 11.16 8.829.396.278.846.608 1.337.972 2.083 1.538 5.959 4.407 8.203 4.055.358-.056.841-.219 1.401-.994.027-.037.65-.989.201-5.119-.32-2.946-1.052-6.36-1.697-9.37-.301-1.405-.585-2.728-.804-3.896-.171-.915-.343-1.805-.511-2.679-1.678-8.707-3.128-16.224-.107-25.943 2.793-8.989 10.817-14.315 17.896-19.011 1.134-.756 2.21-1.468 3.252-2.191.953-.656 2.05-1.368 3.211-2.116 5.039-3.262 12.652-8.192 13.772-12.873.382-1.594-.063-2.458-.434-2.966-1.146-1.59-4.086-2.806-7.487-3.095-5.34-.456-29.675-3.558-35.343-6.205-5.484-2.557-7.66-7.832-9.58-12.487-.313-.76-.61-1.479-.916-2.176-1.444-3.288-2.513-7.017-3.546-10.623-.617-2.15-1.2-4.185-1.846-6.09-.321-.945-.645-1.957-.989-3.028-2.928-9.133-5.985-17.266-11.214-16.428-6.009.96-11.239 12.551-14.365 19.474-.734 1.628-1.429 3.166-2.058 4.426-.615 1.234-1.253 2.739-1.929 4.33-1.929 4.548-4.116 9.703-7.513 12.861-4.942 4.593-11.356 4.267-17.016 3.978-.648-.034-1.297-.067-1.941-.093-2.528-.1-5.297-.456-8.228-.834-6.719-.864-14.336-1.842-20.027.293-2.297.863-3.568 1.953-3.776 3.243-.186 1.149.103 4.585 6.765 11.628 4.513 4.77 10.016 9.207 13.658 12.143 1.638 1.323 2.72 2.194 3.346 2.798 4.05 3.911 5.93 9.285 5.588 15.983-.03.571-.074 1.156-.133 1.746a3.149 3.149 0 01-3.452 2.817 3.15 3.15 0 01-2.82-3.451c.048-.482.085-.964.109-1.431.249-4.867-.952-8.506-3.671-11.131-.424-.407-1.583-1.345-2.925-2.428-12.628-10.182-24.117-20.827-22.689-29.675.409-2.535 2.092-6.004 7.785-8.139 7.157-2.688 15.598-1.602 23.046-.645 2.79.359 5.425.696 7.675.785.668.03 1.34.063 2.012.097 5.049.259 9.412.482 12.401-2.298 2.412-2.243 4.319-6.739 6.003-10.705.714-1.686 1.389-3.277 2.091-4.685.575-1.149 1.244-2.632 1.953-4.203 4.116-9.119 9.753-21.61 19.115-23.108 11.003-1.76 15.343 11.773 18.214 20.728.334 1.045.651 2.031.955 2.928.695 2.05 1.326 4.252 1.936 6.379.975 3.407 1.984 6.924 3.257 9.823.336.763.66 1.549.973 2.309 1.625 3.94 3.159 7.662 6.418 9.181 4.086 1.905 25.921 5.012 33.215 5.634 2.547.219 8.825 1.209 12.059 5.683 1.668 2.309 2.173 5.118 1.453 8.117-1.702 7.135-10.242 12.666-16.475 16.698-1.12.727-2.18 1.413-3.055 2.017-1.091.756-2.24 1.516-3.349 2.253-6.504 4.319-13.234 8.785-15.363 15.631-2.55 8.21-1.363 14.363.278 22.881.171.886.345 1.787.52 2.713.204 1.086.478 2.373.771 3.737 1.947 9.081 3.118 15.797.441 19.5-1.42 1.965-3.338 3.188-5.542 3.529-.446.07-.892.104-1.337.104z"/><path d="M277.894 210.521a4.04 4.04 0 01-1.289-.208c-1.211-.414-3.269-1.992-2.395-4.988.392-1.339 1.469-2.312 2.757-2.65a4.059 4.059 0 012.486.086c1.22.437 3.268 2.064 2.291 5.078-.519 1.6-2.017 2.636-3.649 2.677-.067.005-.135.005-.201.005zm65.6-38.209a2.721 2.721 0 00-2.691 2.47 2.715 2.715 0 002.459 2.937 2.73 2.73 0 002.935-2.46 2.712 2.712 0 00-2.703-2.947zm.013 11.209c-.25 0-.504-.014-.754-.035-4.668-.412-8.131-4.544-7.72-9.212a8.45 8.45 0 018.461-7.753c.25 0 .503.01.753.034 4.669.412 8.131 4.544 7.72 9.212a8.454 8.454 0 01-8.46 7.754zm19.006-9.677c-.094 0-.179.063-.188.16a.174.174 0 00.16.189l.019.004a.177.177 0 00.17-.16c.002-.022.007-.074-.04-.13-.046-.056-.099-.059-.119-.063h-.002zm-.009 6.677a7.4 7.4 0 01-.576-.027c-3.569-.316-6.217-3.477-5.903-7.044a6.462 6.462 0 016.471-5.929 6.464 6.464 0 014.986 2.324 6.458 6.458 0 011.492 4.746 6.465 6.465 0 01-6.47 5.93zm18.48-8.65a3.995 3.995 0 01-4.334 3.633 4 4 0 11.704-7.967 3.995 3.995 0 013.63 4.334zm14-.998a3.999 3.999 0 11-3.634-4.337 3.999 3.999 0 013.634 4.337zm-60.48 21.438c-.245 0-.491.034-.732.102a2.686 2.686 0 00-1.63 1.277 2.7 2.7 0 00-.248 2.058 2.715 2.715 0 002.605 1.982 2.71 2.71 0 00.005-5.419zm-.005 11.21a8.525 8.525 0 01-8.182-6.213 8.448 8.448 0 01.78-6.458 8.433 8.433 0 015.117-4.013 8.43 8.43 0 012.29-.316 8.523 8.523 0 018.181 6.212c1.262 4.513-1.383 9.21-5.896 10.471a8.561 8.561 0 01-2.29.317zm11.002 10.325a.12.12 0 00-.048.007.16.16 0 00-.106.082c-.035.063-.021.112-.016.13.036.13.165.13.166.13.016 0 .031 0 .049-.007a.157.157 0 00.107-.082c.035-.063.021-.112.016-.134-.03-.104-.131-.126-.168-.126zm-.004 6.675a6.516 6.516 0 01-6.254-4.752 6.449 6.449 0 01.596-4.937 6.458 6.458 0 013.912-3.073 6.49 6.49 0 011.75-.238 6.518 6.518 0 016.256 4.751 6.449 6.449 0 01-.596 4.937 6.46 6.46 0 01-3.914 3.073c-.57.16-1.159.239-1.75.239zm7.579 9.852a4.001 4.001 0 01-4.927-2.778 3.996 3.996 0 012.775-4.926 3.998 3.998 0 014.927 2.773 4.003 4.003 0 01-2.775 4.931zm5 11a4 4 0 01-2.152-7.705 4.004 4.004 0 014.928 2.776 4.003 4.003 0 01-2.776 4.929zm-50.582-75.061a2.725 2.725 0 00-2.691 2.473 2.691 2.691 0 00.622 1.976 2.688 2.688 0 001.837.958 2.724 2.724 0 002.935-2.46 2.708 2.708 0 00-2.459-2.933c-.082-.007-.163-.014-.244-.014zm.013 11.209h-.001c-.249 0-.503-.011-.752-.035a8.43 8.43 0 01-5.769-3.004 8.446 8.446 0 01-1.951-6.208 8.452 8.452 0 018.46-7.753c.25 0 .503.013.753.034 4.669.412 8.131 4.544 7.72 9.215a8.45 8.45 0 01-8.46 7.751zm-16.994-12.677c-.093 0-.179.063-.188.16a.168.168 0 00.04.13c.047.056.1.059.12.063h.019a.179.179 0 00.171-.16c.001-.022.006-.074-.041-.13-.046-.056-.099-.059-.119-.063h-.002zm-.009 6.677c-.001 0 0 0 0 0-.191 0-.384-.012-.575-.027a6.464 6.464 0 01-4.411-2.298 6.458 6.458 0 01-1.492-4.746 6.462 6.462 0 017.044-5.903 6.462 6.462 0 014.412 2.298 6.458 6.458 0 011.492 4.746 6.464 6.464 0 01-6.47 5.93zm-16.488-9.355a4 4 0 107.967.709 4 4 0 00-7.967-.709zm-12-4.996a3.998 3.998 0 003.632 4.334 3.997 3.997 0 004.336-3.633 3.998 3.998 0 00-3.633-4.334 3.996 3.996 0 00-4.335 3.633zm65.491-1.858a2.709 2.709 0 00-2.685 3.107 2.723 2.723 0 002.671 2.31 2.697 2.697 0 002.184-1.1 2.694 2.694 0 00.5-2.01 2.72 2.72 0 00-2.67-2.307zm-.014 11.209h-.001c-4.169-.004-7.779-3.114-8.398-7.243-.693-4.634 2.512-8.971 7.145-9.666a8.834 8.834 0 011.268-.091c4.169 0 7.78 3.11 8.397 7.239a8.442 8.442 0 01-1.571 6.313 8.44 8.44 0 01-5.574 3.352 8.823 8.823 0 01-1.266.096zm2.012-24.677c-.05.007-.102.015-.146.07-.043.06-.035.112-.032.134.018.119.119.157.201.145a.176.176 0 00.146-.2.179.179 0 00-.169-.149zm-.008 6.677c-3.188 0-5.95-2.381-6.424-5.535a6.457 6.457 0 011.201-4.828 6.458 6.458 0 014.264-2.563c.319-.048.645-.074.967-.074 3.188 0 5.95 2.38 6.423 5.538a6.506 6.506 0 01-6.431 7.462zm1.91-23.955a3.996 3.996 0 00-3.362 4.547 3.997 3.997 0 004.548 3.362 3.996 3.996 0 003.362-4.547 3.996 3.996 0 00-4.548-3.362zm2.001-13a4 4 0 101.185 7.909 4 4 0 00-1.185-7.909zm-21.904 77.746a2.685 2.685 0 00-2.442 1.533 2.687 2.687 0 00-.116 2.068 2.686 2.686 0 001.381 1.547c.37.177.764.269 1.169.269a2.689 2.689 0 002.443-1.537c.313-.65.354-1.386.115-2.067a2.682 2.682 0 00-1.38-1.544 2.659 2.659 0 00-1.17-.269zm-.008 11.209a8.41 8.41 0 01-3.679-.842 8.447 8.447 0 01-4.335-4.851 8.446 8.446 0 01.363-6.494 8.54 8.54 0 017.659-4.813c1.281 0 2.519.282 3.679.841a8.43 8.43 0 014.335 4.848 8.442 8.442 0 01-.363 6.493 8.542 8.542 0 01-7.659 4.818zm-10.991 7.323a.182.182 0 00-.16.1.16.16 0 00-.008.134c.023.071.071.093.088.101a.176.176 0 10.08-.335zm-.005 6.677a6.433 6.433 0 01-2.816-.644 6.449 6.449 0 01-3.316-3.708 6.455 6.455 0 01.279-4.966 6.533 6.533 0 015.858-3.682c.98 0 1.927.215 2.814.643a6.509 6.509 0 013.04 8.674 6.54 6.54 0 01-5.859 3.683zm-9.234 9.603a3.999 3.999 0 103.468-7.207 3.999 3.999 0 00-3.468 7.207zm-10 10a4 4 0 003.468-7.209 4.002 4.002 0 00-5.338 1.873 3.998 3.998 0 001.87 5.336zM109.753 4.521L89-36.48l18.557.614-.186 6.403-8.122-.268L110.27-7.954l3.708-5.996L119-10.423l-9.247 14.944zm515.799 7L566-26.245l3.448-5.236L629 6.285l-3.448 5.236zm-2.267 64L532 48.813l1.715-6.293L625 69.228l-1.715 6.293z"/><path d="M536.061 45.52c-1.083 0-2.124-.644-2.64-1.763-1.623-3.53-5.585-16.947-7.457-35.854-1.585-15.978-1.996-40.078 5.035-64.164.488-1.67 2.142-2.595 3.689-2.073 1.55.526 2.411 2.304 1.923 3.974-6.73 23.046-6.325 46.21-4.799 61.588 1.81 18.237 5.678 31.098 6.883 33.718.719 1.57.124 3.471-1.333 4.247a2.753 2.753 0 01-1.301.328zm83.278 25L616 65.237l2.659-1.66c4.529-2.821 25.203-21.726 40.026-50.077 12.987-24.827 24.153-62.92 3.62-103.387l-1.415-2.785 5.607-2.808 1.415 2.786c9.504 18.729 13.434 38.544 11.683 58.899-1.422 16.553-6.582 33.432-15.336 50.172-8.23 15.735-18.026 28.197-24.796 35.88-7.34 8.327-14.339 14.656-17.464 16.605l-2.66 1.659z"/><path d="M642.295 47.52L529 15.553l1.705-6.032L644 41.488l-1.705 6.032zm-13.99 15L530 34.564l1.695-6.044L630 56.477l-1.695 6.044z"/><path d="M548.127 50.52l-1.145-2.774c-.731-1.772-1.858-4.718-3.092-8.693l-.89-2.855 6.047-1.678.89 2.855c1.171 3.773 2.235 6.55 2.917 8.21L554 48.36l-5.873 2.161zm-6.997-35l-.315-3.121c-2.826-27.96.348-68.794 31.525-104.532l2.046-2.347L579-90.314l-2.046 2.343c-29.693 34.034-32.704 73.019-30.005 99.728l.316 3.122-6.135.642zm90.827 27L627 38.468l2.065-2.433C659.042.71 660.864-39.22 657.114-66.496l-.429-3.138 6.396-.846.429 3.138c3.924 28.536 1.992 70.34-29.488 107.43l-2.065 2.432zm-27.435 25L601 62.715l2.445-1.732a156.305 156.305 0 007.414-5.587l2.331-1.875 3.81 4.59-2.332 1.876a160.568 160.568 0 01-7.7 5.802l-2.446 1.733zm7.894-33L607 31.64l1.44-2.704c2.76-5.183 5.358-10.76 7.722-16.575l1.151-2.84L623 11.824l-1.155 2.84c-2.443 6.01-5.131 11.781-7.989 17.15l-1.44 2.706zm-18.452 27L589 57.51l2.199-2.264a117.325 117.325 0 006.509-7.306l1.985-2.42L605 49.143l-1.985 2.424a125.431 125.431 0 01-6.851 7.69l-2.2 2.264zm-26.149-43L561 18.15l.213-2.967c.446-6.216 1.301-10.626 2.486-16.734l.566-2.928 6.735.988-.57 2.929c-1.149 5.926-1.98 10.21-2.402 16.12l-.213 2.962zm-3.947 37l-.719-3.07a103.824 103.824 0 01-1.704-9.06L561 40.286l7.226-.766.441 3.108a99.444 99.444 0 001.614 8.585L571 54.28l-7.132 1.24zm16.788 4L574 57.837l4.344-14.316L585 45.206l-4.344 14.316zm9.488-32L584 25.79l.851-3.123a3157.08 3157.08 0 002.288-8.452 3413.72 3413.72 0 012.862-10.572l.852-3.122L597 2.25l-.851 3.123a2935.757 2935.757 0 00-2.858 10.553 3326.73 3326.73 0 01-2.296 8.471l-.851 3.122zm-22.553 336.001c-7.757-7.798-13.55-16.482-19.151-24.882-11.844-17.76-23.029-34.534-51.44-41.067l1.393-6.051c30.819 7.088 43.226 25.688 55.22 43.674 5.436 8.152 11.058 16.581 18.387 23.947l-4.409 4.379zm134.496 12c-1.495-24.319 16.327-52.226 45.241-55l.672 6.156c-25.156 2.417-40.644 27.023-39.32 48.49l-6.593.354z"/><path d="M736.48 359.521l-7.48-.134.52-21.866 7.48.137-.52 21.863zm-65.196-39h-66.826l-8.911-26.338L493 293.662l.03-6.46 106.998.544 8.904 26.315h56.061v-30.967l66.794-.573.954 1.189c.504.627 12.367 15.61 13.259 33.026l-6.283.338c-.652-12.715-8.304-24.392-10.943-28.067l-57.49.494v31.02zm-55.284-126h8v-11h-8v11z"/><path d="M643 320.521h-27v-46.242h6.557v39.798h13.886v-40.556H643v47zm-6-126h8v-2h-8v2zm-53.676 85c-1.751-3.508-3.208-7.31-4.324-11.313l7.121-1.687c1.004 3.603 2.309 7.022 3.879 10.155l-6.676 2.845z"/><path d="M583.147 219.521c-.267 0-.537-.038-.803-.109-1.68-.444-2.683-2.183-2.239-3.874 1.221-4.669 2.213-7.483 2.257-7.598.03-.09.067-.18.104-.265.562-1.221 3.363-5.561 15.85-10.2 16.539-6.14 42.572-10.163 77.378-11.951a3.164 3.164 0 012.968 1.739 3.196 3.196 0 01-.374 3.441c-5.043 6.218-8.917 13.541-11.507 21.763a3.137 3.137 0 01-3.948 2.064c-1.658-.53-2.571-2.314-2.046-3.986 2.098-6.659 4.976-12.791 8.584-18.307-38.239 2.374-58.508 7.338-68.883 11.193-9.394 3.486-11.984 6.483-12.284 6.871-.244.724-1.061 3.191-2.02 6.852a3.15 3.15 0 01-3.037 2.367zm80.663 6c-.201 0-.407-.018-.613-.049-2.077-.338-3.483-2.272-3.147-4.331.282-1.717 1.253-2.573 2.041-2.99a3.797 3.797 0 012.785-.568c2.068.372 3.438 2.338 3.062 4.388-.305 1.637-1.222 2.471-1.992 2.893a3.817 3.817 0 01-2.136.657zm-78.622 55a3.27 3.27 0 01-1.878-.59 3.024 3.024 0 01-.701-4.311c.682-.905 17.007-21.617 77.327-12.93-1.919-11.782-2.47-22.391-1.691-32.327.132-1.694 1.661-2.96 3.415-2.834 1.758.127 3.071 1.607 2.939 3.301-.832 10.588-.063 22.044 2.351 35.024a3.01 3.01 0 01-.87 2.707 3.251 3.251 0 01-2.793.873c-31.196-5.057-50.13-2.071-60.522 1.324-11.084 3.624-14.976 8.452-15.013 8.499a3.192 3.192 0 01-2.564 1.264zm127.072-13l-4.294-1.256c-14.391-4.204-26.527-5.548-36.077-3.99l-1.015-6.178c9.509-1.546 21.156-.541 34.658 2.997-.418-18.09 3.438-32.466 11.491-42.884-25.723-1.344-38.71.633-45.149 2.625L670 212.86c7.475-2.312 22.893-4.624 53.91-2.503l7.09.485-5.123 4.893c-10.465 9.991-15.133 25.924-13.88 47.346l.263 4.44zm-177.346 51L532 313.233c8.059-4.851 11.393-11.298 11.146-21.558l5.839-.154c.306 12.636-4.035 20.961-14.071 27zm69.584 15.373a5.133 5.133 0 00-5.125 5.128 5.13 5.13 0 005.125 5.125 5.133 5.133 0 005.129-5.125 5.136 5.136 0 00-5.129-5.128zm0 16.627c-6.339 0-11.498-5.159-11.498-11.499 0-6.343 5.159-11.501 11.498-11.501 6.343 0 11.502 5.158 11.502 11.501 0 6.34-5.159 11.499-11.502 11.499zm36.002-16.627a5.136 5.136 0 00-5.128 5.128 5.133 5.133 0 005.128 5.125 5.133 5.133 0 005.128-5.125 5.136 5.136 0 00-5.128-5.128zm0 16.627c-6.342 0-11.5-5.159-11.5-11.499 0-6.343 5.158-11.501 11.5-11.501 6.338 0 11.5 5.158 11.5 11.501 0 6.34-5.162 11.499-11.5 11.499zm36.998-16.627a5.135 5.135 0 00-5.125 5.128 5.132 5.132 0 005.125 5.125 5.13 5.13 0 005.129-5.125 5.133 5.133 0 00-5.129-5.128zm0 16.627c-6.339 0-11.498-5.159-11.498-11.499 0-6.343 5.159-11.501 11.498-11.501 6.343 0 11.502 5.158 11.502 11.501 0 6.34-5.159 11.499-11.502 11.499zm14.502-60h-14v-22h5.95v15.438h2.1v-15.438H692v22z"/><path d="M535.25 268.237c11.814 0 21.397 3.748 28.544 11.15 6.866-10.151 27.422-42.189 44.483-68.96l-89.572 59.953c5.276-1.286 10.907-2.143 16.545-2.143zm-43.111 19.282a3.145 3.145 0 01-2.638-1.413 3.06 3.06 0 01.871-4.228l126.727-84.823a3.182 3.182 0 013.941.326 3.056 3.056 0 01.483 3.861c-5.235 8.234-51.239 80.578-55.065 85.151a3.11 3.11 0 01-2.48 1.126 3.156 3.156 0 01-2.435-1.217c-6.107-7.888-14.955-11.891-26.293-11.891-20.19 0-41.27 12.53-41.48 12.657a3.168 3.168 0 01-1.631.451zm126.479-105.337h19.502l3.129-9.323H615.63l2.988 9.323zm24 6.339h-28.56l-7.058-22h43l-7.382 22zm-11.454-25H625v-30l47 15.448-9.975 2.672c-1.037.279-25.469 6.822-26.727 7.137l-1.498-5.971c.66-.166 8.779-2.331 16.651-4.439l-19.287-6.339v21.492z"/><path d="M635 188.521h8v-3h-8v3zm-114.747 192c-2.289 0-4.712-.681-7.253-2.404l3.669-4.815c3.954 2.68 6.78 1.061 12.753-3.572 4.661-3.614 9.946-7.714 16.578-5.659l-1.96 5.634c-3.122-.966-6.096 1.096-10.623 4.606-3.551 2.752-8.011 6.21-13.164 6.21z"/><path d="M566.747 380.521c-5.156 0-9.613-3.458-13.164-6.21-4.527-3.51-7.501-5.572-10.623-4.606l-1.96-5.634c6.632-2.055 11.914 2.045 16.578 5.659 5.973 4.633 8.799 6.252 12.753 3.572l3.669 4.815c-2.545 1.723-4.967 2.404-7.253 2.404z"/><path d="M566.253 380.521c-2.286 0-4.708-.681-7.253-2.404l3.669-4.815c3.958 2.68 6.78 1.061 12.753-3.572 4.664-3.614 9.946-7.714 16.578-5.659l-1.96 5.634c-3.122-.966-6.096 1.096-10.623 4.606-3.551 2.752-8.008 6.21-13.164 6.21z"/><path d="M613.751 380.521c-5.157 0-9.617-3.458-13.164-6.21-4.527-3.51-7.501-5.572-10.623-4.606L588 364.071c6.632-2.055 11.917 2.045 16.578 5.659 5.973 4.633 8.799 6.252 12.753 3.572l3.669 4.815c-2.541 1.723-4.964 2.404-7.249 2.404z"/><path d="M613.253 380.521c-2.289 0-4.712-.681-7.253-2.404l3.669-4.815c3.954 2.68 6.78 1.061 12.753-3.572 4.661-3.614 9.946-7.714 16.578-5.659l-1.96 5.634c-3.122-.966-6.096 1.096-10.623 4.606-3.551 2.752-8.011 6.21-13.164 6.21z"/><path d="M660.747 380.521c-5.156 0-9.613-3.458-13.164-6.21-4.527-3.51-7.501-5.572-10.623-4.606l-1.96-5.634c6.632-2.055 11.914 2.045 16.578 5.659 5.973 4.633 8.799 6.252 12.753 3.572l3.669 4.815c-2.541 1.723-4.967 2.404-7.253 2.404z"/><path d="M659.253 380.521c-2.286 0-4.708-.681-7.253-2.404l3.669-4.815c3.954 2.68 6.784 1.061 12.757-3.572 4.66-3.614 9.942-7.714 16.574-5.659l-1.96 5.634c-3.122-.966-6.096 1.096-10.623 4.606-3.547 2.752-8.008 6.21-13.164 6.21z"/><path d="M706.748 380.521c-5.156 0-9.616-3.458-13.163-6.21-4.526-3.51-7.5-5.572-10.621-4.606L681 364.071c6.631-2.055 11.916 2.045 16.576 5.659 5.973 4.633 8.798 6.252 12.752 3.572l3.672 4.815c-2.544 1.723-4.967 2.404-7.252 2.404z"/><path d="M708.253 380.521c-2.289 0-4.712-.681-7.253-2.404l3.669-4.815c3.954 2.68 6.78 1.061 12.753-3.572 4.661-3.614 9.946-7.714 16.578-5.659l-1.96 5.634c-3.122-.966-6.096 1.096-10.623 4.606-3.551 2.752-8.011 6.21-13.164 6.21z"/><path d="M754.747 380.521c-5.156 0-9.613-3.458-13.164-6.21-4.527-3.51-7.501-5.572-10.623-4.606l-1.96-5.634c6.632-2.055 11.914 2.045 16.578 5.659 5.973 4.633 8.799 6.252 12.753 3.572l3.669 4.815c-2.541 1.723-4.967 2.404-7.253 2.404zm-234.494 29c-2.289 0-4.712-.677-7.253-2.404l3.669-4.815c3.954 2.679 6.78 1.06 12.753-3.573 4.661-3.615 9.946-7.711 16.578-5.659l-1.96 5.635c-3.122-.967-6.096 1.095-10.623 4.605-3.551 2.753-8.011 6.211-13.164 6.211z"/><path d="M566.747 409.521c-5.156 0-9.613-3.458-13.164-6.21-4.527-3.51-7.501-5.568-10.623-4.606l-1.96-5.634c6.632-2.055 11.914 2.045 16.578 5.659 5.973 4.633 8.799 6.252 12.753 3.572l3.669 4.815c-2.545 1.723-4.967 2.404-7.253 2.404z"/><path d="M566.253 409.521c-2.286 0-4.708-.681-7.253-2.404l3.669-4.815c3.958 2.679 6.78 1.06 12.757-3.573 4.66-3.615 9.942-7.711 16.574-5.659l-1.96 5.635c-3.122-.967-6.096 1.095-10.623 4.605-3.551 2.753-8.008 6.211-13.164 6.211z"/><path d="M613.751 409.521c-5.157 0-9.617-3.458-13.164-6.21-4.527-3.51-7.505-5.568-10.623-4.606L588 393.071c6.632-2.055 11.917 2.045 16.578 5.659 5.973 4.633 8.799 6.252 12.753 3.572l3.669 4.815c-2.541 1.723-4.964 2.404-7.249 2.404z"/><path d="M613.253 409.521c-2.289 0-4.712-.677-7.253-2.404l3.669-4.815c3.954 2.679 6.78 1.06 12.753-3.573 4.661-3.615 9.946-7.711 16.578-5.659l-1.96 5.635c-3.122-.967-6.096 1.095-10.623 4.605-3.551 2.753-8.011 6.211-13.164 6.211z"/><path d="M660.747 409.521c-5.156 0-9.613-3.458-13.164-6.21-4.527-3.51-7.501-5.568-10.623-4.606l-1.96-5.634c6.632-2.055 11.914 2.045 16.578 5.659 5.973 4.633 8.799 6.252 12.753 3.572l3.669 4.815c-2.541 1.723-4.967 2.404-7.253 2.404z"/><path d="M659.253 409.521c-2.286 0-4.708-.677-7.253-2.404l3.669-4.815c3.954 2.68 6.78 1.061 12.757-3.572 4.66-3.614 9.942-7.714 16.574-5.659l-1.96 5.634c-3.122-.966-6.096 1.096-10.623 4.606-3.547 2.752-8.008 6.21-13.164 6.21z"/><path d="M706.748 409.521c-5.156 0-9.616-3.458-13.163-6.21-4.526-3.51-7.504-5.572-10.621-4.606L681 393.071c6.631-2.055 11.916 2.045 16.576 5.659 5.973 4.633 8.798 6.252 12.752 3.572l3.672 4.815c-2.544 1.723-4.967 2.404-7.252 2.404z"/><path d="M708.253 409.521c-2.289 0-4.712-.677-7.253-2.404l3.669-4.815c3.954 2.68 6.78 1.061 12.753-3.572 4.661-3.614 9.946-7.714 16.578-5.659l-1.96 5.634c-3.122-.966-6.096 1.096-10.623 4.606-3.551 2.752-8.011 6.21-13.164 6.21z"/><path d="M754.747 409.521c-5.156 0-9.613-3.458-13.164-6.21-4.527-3.51-7.497-5.572-10.623-4.606l-1.96-5.634c6.632-2.055 11.914 2.045 16.578 5.659 5.973 4.633 8.799 6.252 12.753 3.572l3.669 4.815c-2.541 1.723-4.967 2.404-7.253 2.404z"/></g></svg>