<svg xmlns="http://www.w3.org/2000/svg" viewBox="0 0 144 144">
  <path fill="#ebf7e9" d="M101.8 41.6c8 9.3 12.1 21 13.5 34.1 1.4 13.1-.1 27.6-8 35.1-8 7.7-22.5 8.6-36.2 7.8-13.7-.7-26.7-3-34.3-10.6-7.7-7.6-10-20.7-8.3-32 1.7-11.3 7.3-21 15-30.4 7.6-9.3 17.2-18.5 27.9-19.5s22.4 6 30.4 15.5Z"/>
  <path d="M79 15.1a1.7 1.7 0 0 0-.5-1 1 1 0 0 0-.7-.3 3 3 0 0 0-.9-.5.5.5 0 0 0-.5 0l.6-1.9.1-.3a3.3 3.3 0 0 0 .6-1.6c.1-.6.3-1.4-.4-1.8v-.2a1.2 1.2 0 0 0-1-.6 1.6 1.6 0 0 0-1 .4.3.3 0 0 0-.2.1 3 3 0 0 0-1 .6 1.6 1.6 0 0 0-.5.5 3.7 3.7 0 0 1-.1-.5V6.5l-.1-1.8a2.5 2.5 0 0 0-.5-1.5 1.4 1.4 0 0 0-.5-.5 1 1 0 0 0-1.2-.2 1.5 1.5 0 0 0-.6.7v.3A12.1 12.1 0 0 0 70 5l-.1.3a41.3 41.3 0 0 0-3.4-2.6 2 2 0 0 0-.4-.5 1.9 1.9 0 0 0-1.2-.6 1.3 1.3 0 0 0-1 .6 1.2 1.2 0 0 0-.5 1.2 3 3 0 0 0-3.3-1.2 2.4 2.4 0 0 0-.5.2 1.6 1.6 0 0 0-1.3.7.8.8 0 0 0-.3.7 1.9 1.9 0 0 0 .4 1.6 5.3 5.3 0 0 0 1.8 2.3 1.2 1.2 0 0 0 .4.3A5.7 5.7 0 0 0 62 9a.6.6 0 0 0 .2.2 1.3 1.3 0 0 0 .2.3 4.8 4.8 0 0 1 .6 0h.2a3.5 3.5 0 0 1 .7 0c5.7.8 9.4 6.6 7 11.8a6.6 6.6 0 0 1-1.1 1.1c-.5.4 0 1 .5.8a1.7 1.7 0 0 1 .4 0 1.2 1.2 0 0 0 .8.4 3.2 3.2 0 0 0 .7 1l.2.2a2.3 2.3 0 0 1-.3 1.4 4.7 4.7 0 0 1-.6.7l-.1.1a1 1 0 0 1-.2.2 5.8 5.8 0 0 0-1 .8.6.6 0 0 0-.1 0l-.3.3v.2a.8.8 0 0 0-.2.3v.1a2.5 2.5 0 0 0 1 2.6.7.7 0 0 0 .7.1.6.6 0 0 0 .4 0 13 13 0 0 0 2-2.9l1.1-1.7.6-.8.6-.7a8.3 8.3 0 0 0 1.1-2 .4.4 0 0 0 .3-.4 4.8 4.8 0 0 0-.5-4.4.6.6 0 0 0-.6-.3l.6-.4a2.5 2.5 0 0 0 1.7-1.2 2.3 2.3 0 0 0 .3-.6 8.8 8.8 0 0 0 0-1.1Z"/>
  <path fill="#5abd4a" d="M90.7 65.8c-3.7 1.7-10.8 3-12.6 2.7-1.8-.3-3.2-4.8-3.2-4.8-2.7-6.6-7-14.6-7.1-15-5.5.7-11 1-16.5 1.1a.7.7 0 0 1-.2 0l-13-.2a.5.5 0 0 1-.3 0h-.9a.6.6 0 0 1-.6-.7 4.5 4.5 0 0 1 .9-2.3 3.4 3.4 0 0 1 2.4-1l3-.3c.9 0 1.8-.3 2.8-.4l1.5-.3a5.6 5.6 0 0 1 .5 0 .6.6 0 0 1 .3-.1l3.2-.5c3.5-.7 7-1.6 10.4-2.5h-4.8l-1.3-.1a59.9 59.9 0 0 1-6-.8l-1.3-.1-2-.3a5.5 5.5 0 0 1-1.3-.3 6.4 6.4 0 0 0-.8-.2l-.7-.3a10.2 10.2 0 0 1-1.3-.6.2.2 0 0 1-.1-.2 9.5 9.5 0 0 1-1-.5.5.5 0 0 1-.4 0 .6.6 0 0 1-.3-.7 1.3 1.3 0 0 1 .1-.4l.2-.4a5.9 5.9 0 0 1 .5-.8 6.6 6.6 0 0 1 1.1-1.3.5.5 0 0 1 .6 0 .4.4 0 0 1 .2 0h.5c.3.2.6.3 1 .3l2 .4 1.7.3h2.5v.1H52a28.3 28.3 0 0 0 5.3-.5 25.9 25.9 0 0 0 2.7-.6l1.2-.5c.2 0 .5 0 .7-.2h.2l.6-.4a2.4 2.4 0 0 0 .3-.2.4.4 0 0 1 .7 0 14.7 14.7 0 0 1 .6 1.4l.1.4a.2.2 0 0 1-.1.2v.1a7 7 0 0 1-.6.6l-.7.6-.3.4-.2.5-.2.4a8.7 8.7 0 0 0 0 1.1v.2l.1.1c0 .1 0 0 .1 0a1.4 1.4 0 0 0 1 .5 2.8 2.8 0 0 0 .8 0 1.5 1.5 0 0 0 .3-.1 7.8 7.8 0 0 0 3.7-1.8 15.5 15.5 0 0 1 6-2.9 2 2 0 0 0 1 .1 3.8 3.8 0 0 0 .7.7l.1.1v.2a6.4 6.4 0 0 1 1.2 1l.3.4h.2c1.6 1.6 8.8 8 9.9 9 1 1 10.6 8.4 11 11.7.5 3.3-4.3 6-8 7.7Z"/>
  <path d="M72.1 21.8a.4.4 0 0 0-.2-.1h-.1l-1 .2c-1.9.3-3.6-.9-5-2l-3-3-3-2.7a7.6 7.6 0 0 1-1-1.4.7.7 0 0 0-.2-.2.3.3 0 0 0-.4 0 .7.7 0 0 0 0 .3 12.6 12.6 0 0 1-.7 1.5l-.8 1.5a.8.8 0 0 0 0 .8.6.6 0 0 0 .3.2 17.5 17.5 0 0 1 4 2l3.4 3.1a7.3 7.3 0 0 0 4 1.9 4 4 0 0 1 .5-.3 2.4 2.4 0 0 1 1.8-.3l.8-.6.5-.5s.2-.3.1-.4ZM69.2 117.3a1.3 1.3 0 0 0 0-.3 4.9 4.9 0 0 0 0-.6 4.4 4.4 0 0 0-.2-.8l-.1-.2v-1a.5.5 0 0 0-.2-.4c.2-.4-.4-.8-.8-.5a.4.4 0 0 0-.2 0 31.3 31.3 0 0 1-8 .8H59a.5.5 0 0 0-.5 0l-3.9 1.3-2.8.7a28.6 28.6 0 0 0-3.2.6 1.1 1.1 0 0 0-.2.1.4.4 0 0 0-.2 0 1.3 1.3 0 0 0-.4.3 1.1 1.1 0 0 0-.4.7 1 1 0 0 0 .2.7 2.5 2.5 0 0 0 .2.3 1.7 1.7 0 0 0 .4.4c1.4 1 3.9.8 5.4.6h.5a18.2 18.2 0 0 0 4.5-.8.8.8 0 0 0 .3 0l1.3-.3h.4l.5-.1a3.2 3.2 0 0 0 .5-.2h.1l.3 1.3a.6.6 0 0 0 1 .2l2-.2 2.4-.3a4.1 4.1 0 0 0 .5-.2 1.5 1.5 0 0 0 1-.4 1.2 1.2 0 0 0 .3-1 1.1 1.1 0 0 0 0-.7ZM130 103.7a1.7 1.7 0 0 0 0-.4 2 2 0 0 0-.3-.6l-.3-.5a2 2 0 0 0-.4-.5h-.1l-.5-.5a6.5 6.5 0 0 0-2.4-1.8.3.3 0 0 0-.2 0 .6.6 0 0 0-.1-.1.6.6 0 0 0-.9.2 11.8 11.8 0 0 1-2.8 2.6l-1 .5-.4.2a.4.4 0 0 0-.4 0l-.7.5a.5.5 0 0 1 0 .1h-.1a1.3 1.3 0 0 0-.2.2l-.6.5-6.2 3.3a2.8 2.8 0 0 0-.4.1 3.4 3.4 0 0 1-1.2.4 1 1 0 0 0-.5.4.7.7 0 0 0 0 .5.6.6 0 0 0 0 .3.3.3 0 0 0 .2.2h.1a.6.6 0 0 0 .3.7 7 7 0 0 0 4.9 0 6.9 6.9 0 0 0 1 0 4.4 4.4 0 0 0 1-.3 4 4 0 0 0 .4-.2l2.3-.7 2-.9a12.6 12.6 0 0 0 1.6-.8 5.1 5.1 0 0 0 .5-.3 6 6 0 0 0 .7-.6 2 2 0 0 0 .7.7.6.6 0 0 0 .9.2l2.6-2.5a.2.2 0 0 0 .1 0 1 1 0 0 0 .2-.3.8.8 0 0 0 .2-.2.4.4 0 0 0 0-.4Z"/>
  <g>
    <path d="M68.2 24.3a3 3 0 0 1 2.9-.7 1.6 1.6 0 0 1 1 1.7 2.7 2.7 0 0 1-1.2 1.5 4.1 4.1 0 0 1-1.9.8 1.8 1.8 0 0 1-1.2-.1c-.5-.3-.4-1-.3-1.5 0-.3-.4-.3-.4 0a2.3 2.3 0 0 0 .2 1.5 1.6 1.6 0 0 0 1.3.6 4.3 4.3 0 0 0 2.3-.8 3.4 3.4 0 0 0 1.5-1.8 2 2 0 0 0-.8-2.2c-1.2-.8-2.7 0-3.7.7-.2.2 0 .5.3.4Z"/>
    <path d="M70.4 24.6a.8.8 0 0 1 .5 1 1.2 1.2 0 0 1-1.3.7.2.2 0 0 0-.1.4 1.6 1.6 0 0 0 1.6-.5 1.2 1.2 0 0 0 0-1.5 1 1 0 0 0-.7-.4.2.2 0 0 0-.2.2.2.2 0 0 0 .2.1ZM54.5 20.4a19.3 19.3 0 0 1-2.7 4.5 2.6 2.6 0 0 0-.7 2.3 2.6 2.6 0 0 0 1.5 1.4 11.3 11.3 0 0 0 2.7.7 13.1 13.1 0 0 0 2.9.1 18.2 18.2 0 0 1 2.5-.1 2.3 2.3 0 0 1 2 1.4 18.6 18.6 0 0 1 1 3 33.6 33.6 0 0 1 .8 3.3c0 .3.6.2.5-.1a31.1 31.1 0 0 0-1.6-5.7 4 4 0 0 0-1.2-2 3.5 3.5 0 0 0-2.4-.4 23.2 23.2 0 0 1-2.5.1 15.7 15.7 0 0 1-2.9-.3 5.5 5.5 0 0 1-2.4-1 1.3 1.3 0 0 1-.5-.9 2.2 2.2 0 0 1 .5-1.2 22.7 22.7 0 0 0 3-5c.2-.3-.3-.4-.5-.1ZM58.1 12.4l-1.8 4c-.1.2.3.5.5.2l1.8-4c.1-.2-.3-.5-.5-.2Z"/>
    <path d="M57 20.6a10.6 10.6 0 0 1-2.3-.3 3.7 3.7 0 0 1-2.3-1.3 1.1 1.1 0 0 1 .2-1.3 3.2 3.2 0 0 1 2.8-1.1 5.6 5.6 0 0 1 1.7.4l-.2.4s-2.6-1-3.9.6c-.3.4-.2.6-.2.8.5.9 3.4 1.4 4.7 1.3v.5a6 6 0 0 1-.5 0ZM37.4 45.7c-.2 0-.2-.5-.2-.7v-.7a13.6 13.6 0 0 0 0-1.7 3.2 3.2 0 0 0-.5-1.4 2.1 2.1 0 0 0-.5-.5l-1-.5c-.2-.1-.5.3-.2.5l1 .5a1.6 1.6 0 0 1 .4.5 3.9 3.9 0 0 1 .4 1.6V45c0 .5 0 1.3.7 1.2.2 0 .2-.5 0-.5Z"/>
    <path d="M71.7 47.6a118.3 118.3 0 0 1-19.2 2c-3.2.2-6.5 0-9.7 0l-4.9-.1h-2a5.4 5.4 0 0 1-1.6-.1 1.7 1.7 0 0 1-.8-.5 3.8 3.8 0 0 1-.6-1l-1-2.4a13.6 13.6 0 0 1-.7-2.3 8.4 8.4 0 0 1-.1-1.3c0-.2-.2-1.1.3-1 .3.2.4-.3.1-.4a.7.7 0 0 0-.7.2 1.4 1.4 0 0 0-.2.8 9.8 9.8 0 0 0 .3 2.3 27.1 27.1 0 0 0 1.6 4.4 2.6 2.6 0 0 0 1.2 1.5 4 4 0 0 0 1.8.3H40l10.3.2c3.5 0 6.8-.3 10.2-.5A94.8 94.8 0 0 0 72 48c.3 0 .1-.5-.2-.5Z"/>
    <path d="M35.6 43a4.1 4.1 0 0 0 0-1.6l-.4-1.7a10.5 10.5 0 0 0-1.2-3c-.2-.3-.4-.9-.9-.7a.7.7 0 0 0-.4.6 4.4 4.4 0 0 0 .3 1.7 18.7 18.7 0 0 1 1 4.2c0 .3.5.3.4 0a18.3 18.3 0 0 0-.5-3.1c-.2-.7-.5-1.3-.6-2a2 2 0 0 1-.1-.8c0-.4.3.2.4.3a9.3 9.3 0 0 1 1 2.7L35 41A5 5 0 0 1 35 43c0 .3.5.5.5.1ZM37.8 34.9c-.8-1-1.6-2.3-3-1.8a1 1 0 0 0-.8 1.3 2.8 2.8 0 0 0 .6 1.3 5.3 5.3 0 0 0 2.5 1.6l1.6.5 1.9.8a33.7 33.7 0 0 0 3.6 1.5 23.4 23.4 0 0 0 3.3.7l6.8 1a24.3 24.3 0 0 0 7.3 0c.3-.1.1-.6-.2-.6a22 22 0 0 1-5.8.2l-6.6-.9-2.7-.4a15.1 15.1 0 0 1-3.5-1l-3.4-1.5-3-1.1a3 3 0 0 1-1.8-2.2.5.5 0 0 1 .4-.8 1.3 1.3 0 0 1 1 .2 7 7 0 0 1 1.4 1.5c.2.3.6 0 .4-.3Z"/>
    <path d="m36.8 33.7-.5-1.7-.5-1.6-.6-1.3a1.3 1.3 0 0 1 0-1.2c.1-.2.5-.6.7-.2a4.5 4.5 0 0 1 .4 1 18.4 18.4 0 0 1 .8 3.4c0 .3.6.2.5-.2a18 18 0 0 0-.7-3c0-.4-.2-.8-.3-1.1a1.1 1.1 0 0 0-.6-.7c-.7-.3-1.3.4-1.4 1a3.8 3.8 0 0 0 .7 2.3 13.3 13.3 0 0 1 .5 1.6l.5 1.8a.3.3 0 0 0 .5-.1Z"/>
    <path d="M36.6 27.8c-.1-.4-.4-1.2 0-1.6.6-.3 1 .6 1.2 1a10.3 10.3 0 0 1 .5 1.8l.4 2c0 .4.6.2.5 0a24.6 24.6 0 0 0-.5-2.7 5.5 5.5 0 0 0-.9-2.1 1 1 0 0 0-1.6-.2 2 2 0 0 0-.1 2c.1.3.6.1.5-.2Z"/>
    <path d="M38.1 27c.3-.3.6-.2.9 0a3 3 0 0 1 .6 1.3 11.3 11.3 0 0 1 .4 2.9c0 .3.5.3.5 0a10.3 10.3 0 0 0-.6-3.5 2.3 2.3 0 0 0-1-1.3 1 1 0 0 0-1.2.2c-.1.3.2.7.4.4Z"/>
    <path d="M40.1 28.8a3 3 0 0 1 1 2.2 7.4 7.4 0 0 1 0 1.2 3.6 3.6 0 0 0 0 1.3c0 .4.5.6.8.8a7.6 7.6 0 0 0 1.3.6 13.7 13.7 0 0 0 2.7.7l2.8.2 3 .1a30.9 30.9 0 0 0 5.7-.4 17.4 17.4 0 0 0 6.1-2.2c.3-.2 0-.6-.3-.4a21 21 0 0 1-10.8 2.5c-2 0-3.8-.1-5.7-.3a11.7 11.7 0 0 1-2.7-.4 6.2 6.2 0 0 1-2.3-1.2c-.3-.2-.1-.5-.1-.8v-.6a6.2 6.2 0 0 0 .1-1.3 3.5 3.5 0 0 0-1.2-2.4c-.2-.2-.6.2-.4.4ZM78.7 38a54.3 54.3 0 0 0-4.4-3.8 11.1 11.1 0 0 0-1.2-.8 4.4 4.4 0 0 1-1-.7 2.8 2.8 0 0 1-.5-2.4c0-.3-.5-.3-.5 0a3.6 3.6 0 0 0 .3 2.5 7 7 0 0 0 2.3 1.5 42.2 42.2 0 0 1 4.6 4.1c.3.3.6-.1.4-.3ZM67.6 49.3l3 6.1c.1.3.6 0 .4-.2-.9-2.1-1.9-4.1-3-6.2 0-.3-.5 0-.4.3ZM77 67.7 67.3 73 65 74.3a19.5 19.5 0 0 0-2.1 1.2 3.6 3.6 0 0 0-1.4 1.7 10.4 10.4 0 0 0-.5 2.6 99.9 99.9 0 0 0-.7 11.1c0 3.7.4 7.4.4 11.2a38 38 0 0 1-1.6 10.8l-.5 1.3c0 .2 0 .3.2.3a40.4 40.4 0 0 0 6.5 0 10.9 10.9 0 0 0 3-.7 3.7 3.7 0 0 0 1.8-1.5 3.3 3.3 0 0 0 .3-1.3 49 49 0 0 0 .7-7.8l.2-10.5v-7.9c0-.7 0-1.7.6-2.2a3.6 3.6 0 0 1 1.7-.5l2.6-.3a54 54 0 0 0 5-1c5.2-1.2 10.4-3 14.6-6.4a15.2 15.2 0 0 0 4.5-5.7 8 8 0 0 0 .6-3.9 16.5 16.5 0 0 0-1-4.3l-.7-2c-.1-.2-.7 0-.5.2a29.1 29.1 0 0 1 1.4 4.1 9.1 9.1 0 0 1 .2 4.3 12.7 12.7 0 0 1-3.8 6A31.8 31.8 0 0 1 82.6 80c-1.6.4-3.3.8-5 1l-2.5.4-2.2.2a3 3 0 0 0-1.6.7 2.6 2.6 0 0 0-.6 2v5a195.5 195.5 0 0 1-.8 20.8 6.6 6.6 0 0 1-.3 1.7 2.3 2.3 0 0 1-.7.9 5.6 5.6 0 0 1-2.3 1 26 26 0 0 1-6.4.4l-1.5-.1.3.3a34.9 34.9 0 0 0 2-10.6v-5.4c0-1.9-.2-3.7-.3-5.6a78.6 78.6 0 0 1 .5-10.8l.4-2.9a4.3 4.3 0 0 1 .7-2.4 6.3 6.3 0 0 1 1.9-1.4l2.3-1.2 9.6-5.3 1.2-.6c.3-.1 0-.6-.3-.4Z"/>
    <path d="M90.6 77.2a41 41 0 0 0 4.1 5.3 154.5 154.5 0 0 0 16.5 16.3 32 32 0 0 0 3.4 2.7 40.6 40.6 0 0 0 3 1.8 6.2 6.2 0 0 0 .8.6.8.8 0 0 0 .9-.2 8.2 8.2 0 0 1 1-.5 14.4 14.4 0 0 0 2-1.2 10.5 10.5 0 0 0 3.4-3.4.6.6 0 0 0 .1-.4 3.8 3.8 0 0 0-.3-.7 16 16 0 0 0-.6-1 15 15 0 0 0-1.4-2 14.6 14.6 0 0 0-3.6-3.3l-2.4-1.5-2.3-1.6a31.4 31.4 0 0 1-7.5-7.7 36.2 36.2 0 0 1-3.9-8.7c-1-3-1.8-6.1-3-9.2l-1-2.2c-.2-.3-.6 0-.5.2a62.8 62.8 0 0 1 3.2 8.6 65.9 65.9 0 0 0 2.8 8 25.5 25.5 0 0 0 5.2 7.5 43.2 43.2 0 0 0 8 6.3l2.2 1.4a16.6 16.6 0 0 1 1.9 1.8 16.8 16.8 0 0 1 2.7 4.3V98a10.1 10.1 0 0 1-3.5 3.7 16.3 16.3 0 0 1-2.2 1.2 4.6 4.6 0 0 0-.5.2c-.1 0-.3.3-.5.3l-.3-.3-.5-.4-2.2-1.3-1.9-1.2a44.8 44.8 0 0 1-3.5-3 229.3 229.3 0 0 1-14-14 52.6 52.6 0 0 1-4.8-5.8l-.3-.5c-.2-.3-.7 0-.5.2Z"/>
    <path d="M125 99.3a8.2 8.2 0 0 1 4.2 3 3.4 3.4 0 0 1 .7 1.3c0 .4 0 .6-.4.8l-2.2 2-.3.3-.4.3-.3-.1a2.4 2.4 0 0 1-.3-.4l-.2-.1s0-.1 0 0c0-.3-.2-.6-.4-.4l-1 .7a11.7 11.7 0 0 1-1.2.6l-2.6 1.2a25.3 25.3 0 0 1-5.3 1.5c-1.4.2-3.3.5-4.5-.7a.7.7 0 0 1 0-1 3.8 3.8 0 0 1 1.2-.6l2.4-1a50.4 50.4 0 0 0 5.3-3.1c.3-.2 0-.7-.3-.5a53.9 53.9 0 0 1-5 3 20.4 20.4 0 0 1-2.8 1.2c-.6.3-1.5.6-1.5 1.5 0 .8.9 1.4 1.5 1.6a5.9 5.9 0 0 0 2.4.3 21.5 21.5 0 0 0 5.7-1.3l3.2-1.3 1.4-.8c.5-.2 1-.6 1.4-.9l-.4-.3c-.2.5.7 1.1 1 1.4a.5.5 0 0 0 .7 0l.7-.7 1.4-1.3.7-.6a4.1 4.1 0 0 0 .5-.4 1.3 1.3 0 0 0 0-1.3 6.8 6.8 0 0 0-2-2.6 8.9 8.9 0 0 0-3.1-1.7.3.3 0 0 0-.2.5ZM58.6 113.9c-1.9.7-3.8 1.4-5.7 1.9-1 .2-1.9.3-2.8.6q-.7 0-1.4.3a3.4 3.4 0 0 0-1.1.5c-.7.5-.4 1.5 0 2a3.4 3.4 0 0 0 2.2 1.1 17.4 17.4 0 0 0 5.7 0l6.6-1.4-.3-.2.1 1.3c0 .3.2.6.5.6h.8l2.4-.4a14.6 14.6 0 0 0 2.6-.6c.6-.2 1.3-.5 1.4-1.1a5 5 0 0 0-.1-1l-.2-1.5c-.2-1-.3-2-.6-2.9 0-.3-.5-.2-.5.1a35.3 35.3 0 0 1 .8 4.7 1.7 1.7 0 0 1 0 .6.5.5 0 0 1-.1.2 1.8 1.8 0 0 1-.7.4 9.8 9.8 0 0 1-2.2.5l-2.4.4h-1.2V119.5l-.2-.7a.3.3 0 0 0-.3-.3c-3.5.6-7 1.8-10.7 1.6a5.8 5.8 0 0 1-2.6-.6 2.2 2.2 0 0 1-.7-.7c-.2-.3-.4-.8 0-1.1a2.8 2.8 0 0 1 1-.5 12.4 12.4 0 0 1 1.4-.3l2.5-.5 3-.9 2.9-1c.4-.1.2-.7 0-.5ZM33.3 37.4c0-.6-.5-1.5-1.3-1.5a.7.7 0 0 0-.6.6 2.5 2.5 0 0 0 .1 1.2l1.5 5.7a.3.3 0 0 0 .5-.1L32.4 39a21.4 21.4 0 0 1-.5-2.1.5.5 0 0 1 0-.5c.2-.1.4 0 .5.1a1.5 1.5 0 0 1 .4.9c0 .3.5.3.5 0Z"/>
    <path d="M32 37.6a.8.8 0 0 0-1.3.2c-.3.6 0 1.4.2 2 .4 1.5 1 2.9 1.3 4.4 0 .3.5.1.5-.2a24.9 24.9 0 0 0-1-3.4 15 15 0 0 1-.5-1.6 1.6 1.6 0 0 1 0-.8c0-.2.2-.3.4-.2.2.2.6-.2.3-.4ZM53.7 22.7a3.2 3.2 0 0 0 2.8 1.5 8.7 8.7 0 0 0 4.1-.7c.3-.2 0-.6-.2-.5a8 8 0 0 1-3.7.7c-1 0-2.1-.2-2.6-1.2-.1-.3-.6 0-.4.2ZM64.4 35a4.5 4.5 0 0 0-2.4 3.2 1.5 1.5 0 0 0 .6 1.6 2.7 2.7 0 0 0 1.8.3c2.6-.4 4.4-2.3 6.5-3.6a5.3 5.3 0 0 1 4.6-1c.3.2.4-.3.1-.4-2.5-1-4.9.9-6.8 2.3a12.5 12.5 0 0 1-3 1.8 5.7 5.7 0 0 1-1.7.4c-.5 0-1.3 0-1.5-.5-.4-.7 0-1.6.4-2.1a4.2 4.2 0 0 1 1.6-1.5.2.2 0 1 0-.2-.4ZM42.7 34.3a.5.5 0 0 0-.8 0 4.6 4.6 0 0 0-.7.7 11.4 11.4 0 0 0-1.1 1.8.3.3 0 0 0 0 .4.3.3 0 0 0 .4-.1 12.6 12.6 0 0 1 1-1.5 7.1 7.1 0 0 1 .4-.7 1.4 1.4 0 0 1 .3-.3h.1c.2.2.6 0 .4-.3ZM37.1 46a9.5 9.5 0 0 0-1 3 .3.3 0 1 0 .4.1 8.3 8.3 0 0 1 1-2.9c.2-.3-.2-.5-.4-.2ZM130.7 123.6q-13.8 2-27.6 3.3-13.7 1.3-27.5 2l-13.7.4h-3.4a27.4 27.4 0 0 1-3.4 0l-5.9-.3a53.2 53.2 0 0 1-11.8-1.6 24.5 24.5 0 0 1-3-1 15.6 15.6 0 0 1-2.7-1.3c-1.5-1-1-2.8-.2-4a5.7 5.7 0 0 1 2-1.7l2.7-1.5a50.6 50.6 0 0 1 5.7-2.4c4-1.4 8.3-2.4 12.3-3.8l3-1.1c.2-.1 0-.6-.2-.5-4.2 1.7-8.5 2.8-12.8 4.1a53 53 0 0 0-11.5 5 5.3 5.3 0 0 0-2.5 3.5 2.7 2.7 0 0 0 .3 1.8 4.2 4.2 0 0 0 2 1.5 31.4 31.4 0 0 0 11.6 3c2 .3 4.1.4 6.2.5l3 .2 3.3.2 14.1-.3q14.2-.6 28.4-1.8 14.1-1.3 28.2-3.3l3.5-.5c.3 0 .2-.5-.1-.4Z"/>
    <path d="M13.3 142.4a156 156 0 0 0 4-3.6 45.7 45.7 0 0 0 3.6-3.6 16.2 16.2 0 0 0 1.4-2 19.3 19.3 0 0 0 1-2.1 13.9 13.9 0 0 1 1.2-2.3A11 11 0 0 1 26 127a27.5 27.5 0 0 1 4.3-3.7c.3-.1 0-.5-.2-.3a29.3 29.3 0 0 0-4 3.2 13 13 0 0 0-2.8 3.8l-1 2.4a12.1 12.1 0 0 1-1.3 2 37.7 37.7 0 0 1-3.5 3.7 111 111 0 0 1-4.5 4c-.2.2 0 .5.3.3ZM58.4 13.1a8 8 0 0 1 4.5-3.6.3.3 0 0 0-.1-.5 8.6 8.6 0 0 0-4.9 3.9c-.2.2.3.5.5.2Z"/>
    <path d="M71 30.9a19 19 0 0 0 4.7-4.6c1.3-1.7 2.6-3.9 2-6a3.4 3.4 0 0 0-.6-1.4 4 4 0 0 0-1.2-.9v.4a3 3 0 0 0 3.1-2.3 2.8 2.8 0 0 0-.4-2.1 2.6 2.6 0 0 0-1-.7 3.2 3.2 0 0 0-1-.3l.2.3 1-3.3a2.8 2.8 0 0 0-.3-2.6 1.6 1.6 0 0 0-2-.4c-.7.3-1.2 1-2 1.3l.4.2a9.9 9.9 0 0 0-.5-4.7c-.3-.7-.8-1.5-1.5-1.7a1.3 1.3 0 0 0-1.4 1 8.3 8.3 0 0 0-.5 1.2l-.5 1.8h.4A10.5 10.5 0 0 0 66.3 2c-.8-.4-1.8-.8-2.4 0a2 2 0 0 0-.1 2c.4.8 1.6 1.7 1.2 2.8h.4C64.4 4.5 63 2 60.2 2A2.1 2.1 0 0 0 58 3.8 4.8 4.8 0 0 0 59.2 7a9.3 9.3 0 0 0 3.1 2.6c.3.1.5-.3.2-.4A8.7 8.7 0 0 1 60 7.2a6.3 6.3 0 0 1-1.6-2.7 1.6 1.6 0 0 1 .2-1.5 2 2 0 0 1 1.5-.5 4.1 4.1 0 0 1 3 1.3A10.9 10.9 0 0 1 65 7a.2.2 0 0 0 .4 0c.5-1.8-1.8-2.7-1.5-4.3.1-1 1.3-.7 2-.4a6.2 6.2 0 0 1 1.9 1.6 17 17 0 0 1 1.7 2.3.2.2 0 0 0 .4 0l.4-1.6a8.4 8.4 0 0 1 .4-1.4c.2-.3.4-.7.8-.7.5 0 .9.5 1.1.9 1 1.5.9 3.4.7 5a.2.2 0 0 0 .3.3 4.3 4.3 0 0 0 1.6-1 1.4 1.4 0 0 1 .9-.5 1.4 1.4 0 0 1 1 .6 2.7 2.7 0 0 1 .1 2.6l-1 2.8a.2.2 0 0 0 .3.3 3 3 0 0 1 1 .3 2 2 0 0 1 .7.6 2.4 2.4 0 0 1 .3 1.8 2.5 2.5 0 0 1-2.7 1.9c-.2 0-.3.3-.1.4a3.8 3.8 0 0 1 1 .6 3.1 3.1 0 0 1 .6 1.2 4.6 4.6 0 0 1-.3 3 13.6 13.6 0 0 1-1.5 2.7 20.2 20.2 0 0 1-2 2.4 18 18 0 0 1-2.8 2.2c-.3 0-.1.4.1.3ZM59.8 29.3a8.8 8.8 0 0 0 4-1.3c.2-.2 0-.6-.3-.5a8.3 8.3 0 0 1-3.7 1.3c-.3 0-.3.5 0 .5Z"/>
  </g>
</svg>