<svg xmlns="http://www.w3.org/2000/svg" viewBox="0 0 110.8 80.8">
  <g>
    <path fill="#f7f7f7" d="M99.8 10.5h2.2v20.6h-2.2z" data-name="Rectangle 119614"/>
    <path fill="#e5e5e5" d="M100.2 10.5h.7v20.6h-.7z" data-name="Rectangle 119615"/>
    <circle cx="3.3" cy="3.3" r="3.3" fill="#18162e" data-name="Ellipse 6990" transform="translate(97.5 5)"/>
    <path fill="#18162e" d="M103.1 30.4h-7.6v21.4h7.6c4 0 7.7-4.8 7.7-10.7s-3.8-10.7-7.7-10.7Z" data-name="Path 276887"/>
    <path fill="#18162e" d="M15.3 51.8V30.4H7.7c-4 0-7.7 4.8-7.7 10.7s3.8 10.7 7.7 10.7Z" data-name="Path 276888"/>
    <g data-name="Group 210047">
      <path fill="#0a0a11" d="M5.6 41.1c0-5.9 3.8-10.7 7.6-10.7H9.8C5.9 30.4 2 35.2 2 41.1S6 51.8 9.8 51.8h3.4C9.4 51.8 5.6 47 5.6 41Z" data-name="Path 276889"/>
      <path fill="#0a0a11" d="M12 30.4h2.3v21.3H12z" data-name="Rectangle 119616"/>
      <g fill="#2a2a3f" data-name="Group 210046">
        <path d="M105.2 41.1c0-5.9-3.8-10.7-7.6-10.7h3.4c3.9 0 7.7 4.8 7.7 10.7s-3.8 10.7-7.7 10.7h-3.4c3.8 0 7.6-4.8 7.6-10.7Z" data-name="Path 276890"/>
        <path d="M98.9 51.8h-2.4V30.5h2.4z" data-name="Rectangle 119617"/>
      </g>
    </g>
    <path fill="#f7f7f7" d="M20.1 27.3v27.6a7.1 7.1 0 0 1-7-7V34.3a7.1 7.1 0 0 1 7-7.1Z" data-name="Path 276891"/>
    <path fill="#e5e5e5" d="M18.7 54.8A3.9 3.9 0 0 1 16 51V31.3a3.9 3.9 0 0 1 2.8-4H18a3.8 3.8 0 0 0-3.5 4v19.6a3.8 3.8 0 0 0 3.5 4h.7Z" data-name="Path 276892"/>
    <path fill="#f7f7f7" d="M90.7 27.3a7.1 7.1 0 0 1 7 7v13.5a7.1 7.1 0 0 1-7 7.1Z" data-name="Path 276893"/>
    <path fill="#fff" d="M92.1 54.8a3.9 3.9 0 0 0 2.8-3.9V31.3a3.9 3.9 0 0 0-2.8-4h.7a3.8 3.8 0 0 1 3.6 4v19.6a3.8 3.8 0 0 1-3.6 4h-.7Z" data-name="Path 276894"/>
    <g data-name="Group 210050" transform="translate(18.7)">
      <path fill="#f7f7f7" d="M36.7 0A40.7 40.7 0 0 0 0 22.7v36.6C6.7 73 20.6 78 36.7 78s30-5 36.7-18.7V22.7A40.7 40.7 0 0 0 36.7 0Z" data-name="Path 276895"/>
      <g data-name="Group 210048">
        <path fill="#e5e5e5" d="M9.8 59.3V22.7C14.7 9 24.9 0 36.8 0A36.3 36.3 0 0 0 9.6 12.2 26.3 26.3 0 0 0 2.8 30v20.3a27.4 27.4 0 0 0 21 26.3 51.4 51.4 0 0 0 13 1.5c-11.9 0-22.1-5-27-18.7Z" data-name="Path 276896"/>
        <path fill="#fff" d="M36.7 0c11.8 0 22 9 27 22.7v36.6C58.6 73 48.4 78 36.6 78a51.4 51.4 0 0 0 13-1.5 27.4 27.4 0 0 0 20.9-26.2V29.9a26.3 26.3 0 0 0-6.8-17.7A36.3 36.3 0 0 0 36.7 0Z" data-name="Path 276897"/>
      </g>
      <path fill="#18162e" d="M67.8 52.3a5.3 5.3 0 0 1-4.2 4.3 426.2 426.2 0 0 1-53.8 0 5.3 5.3 0 0 1-4.2-4.3 70 70 0 0 1 0-25 5.3 5.3 0 0 1 4.2-4.2 426.3 426.3 0 0 1 53.8 0 5.3 5.3 0 0 1 4.2 4.2 70.1 70.1 0 0 1 0 25Z" data-name="Path 276898"/>
      <g fill="#0a0a11" data-name="Group 210049">
        <path d="M36.7 57.4h-3.1 3.1Z" data-name="Path 276899"/>
        <path d="M5.6 29.5a5.2 5.2 0 0 1 4.2-4 441.8 441.8 0 0 1 53.8 0 5.2 5.2 0 0 1 4.2 4A53.6 53.6 0 0 1 69 40.1a70.5 70.5 0 0 0-1-12.8 5.3 5.3 0 0 0-4.3-4.2 426.3 426.3 0 0 0-53.8 0 5.3 5.3 0 0 0-4.2 4.2 70.4 70.4 0 0 0-1.1 12.8 53.6 53.6 0 0 1 1.1-10.6Z" data-name="Path 276900"/>
        <path d="M36.7 57.4h3.1-3.1Z" data-name="Path 276901"/>
        <path d="M40.4 57.4h2.2Z" data-name="Path 276902"/>
        <path d="M28.5 57.4Z" data-name="Path 276903"/>
        <path d="M44.9 57.4Z" data-name="Path 276904"/>
        <path d="M33 57.4h-2.2Z" data-name="Path 276905"/>
      </g>
      <path fill="#f7f7f7" d="M42.7 47.5c0 2-2.7 3.6-6 3.6s-6-1.6-6-3.6Z" data-name="Path 276906"/>
      <circle cx="5.7" cy="5.7" r="5.7" fill="#f5df4d" data-name="Ellipse 6991" transform="translate(16.7 32.1)"/>
      <circle cx="5.7" cy="5.7" r="5.7" fill="#f5df4d" data-name="Ellipse 6992" transform="translate(45.2 32.1)"/>
    </g>
    <path fill="#0a0a11" d="M103.1 10.8a4.5 4.5 0 0 1-2.3-4.1A3.7 3.7 0 0 1 101 5h-.2a3.3 3.3 0 1 0 2.2 5.8Z" data-name="Path 276907"/>
    <g data-name="Group 210051">
      <path fill="#2a2a3f" d="m17.4 79.9-6-22a.7.7 0 0 0-.9-.4c-3.2 1-5.6 2.2-4 8.2 1.6 5.9 6.5 14.3 10 15a.7.7 0 0 0 1-.8Z" data-name="Path 276908"/>
      <path fill="#0a0a11" d="M17.4 79.9v-.1a4.2 4.2 0 0 0-.7-1 25.1 25.1 0 0 1-6-8.5 18 18 0 0 1-.3-10.7 6.4 6.4 0 0 1 .8-2 .7.7 0 0 0-.7-.1c-3.2 1-5.6 2.2-4 8.2 1.6 5.9 6.5 14.3 10 15a.7.7 0 0 0 1-.8Z" data-name="Path 276909"/>
    </g>
  </g>
</svg>