<svg xmlns="http://www.w3.org/2000/svg" width="240" height="120" viewBox="0 0 240 120"><g transform="translate(-563 -491)"><g transform="translate(470.785 190.625)"><path d="M566.093,324.112a12.446,12.446,0,0,0-2.09-.321,42.816,42.816,0,0,0-4.327.117,26.991,26.991,0,0,1-8.506-1.051c-1.589-.438-3.12-.993-4.65-1.577a.472.472,0,0,0-.441.058,8.591,8.591,0,0,0-2.943-.643,7.6,7.6,0,0,0-3.591.789,8.576,8.576,0,0,0-1.207.175l-.029.029c-.029.029-.412.5-.53.672l-.353.526c-.059.088-.118.146-.147.2a2.981,2.981,0,0,1-.206.73c.059.058.088.117.147.175a3.057,3.057,0,0,0-.147.555,2.448,2.448,0,0,0,.324,1.431,4.365,4.365,0,0,0,.824,1.11,3.638,3.638,0,0,0,.618.526.1.1,0,0,0,.059.029c.118.146.235.263.353.409a33.742,33.742,0,0,0-5.681-.847,1.273,1.273,0,0,0-.795.234h-.206a1.347,1.347,0,0,0-1.3.847,3.107,3.107,0,0,0-1.089,2.95,6.452,6.452,0,0,0,1.766,3.125,9.486,9.486,0,0,0,3.326,3.651,15.15,15.15,0,0,0,2.384,1.2c.412.146.824.263,1.266.38a2.5,2.5,0,0,0,1.383.117,1.276,1.276,0,0,0,1.442-.759c0-.029.029-.058.029-.088.029-.058.088-.146.118-.2a7.74,7.74,0,0,1,3.679-3.621,1.129,1.129,0,0,0,.648-.73c.324-.058.648-.088.971-.146a.993.993,0,0,0,.471-.175c.795-.088,1.619-.2,2.414-.292a1.1,1.1,0,0,0,.765-.409,43.385,43.385,0,0,1,5.416,2.132c.059.058.118.146.177.2.412.409.854.789,1.3,1.168a12.409,12.409,0,0,0,1.413,1.022c.265.175.5.321.765.467,1.119,1.343,2.208,2.658,3.326,4a1.2,1.2,0,0,0,.559.38c.029.117.088.2.118.321a.692.692,0,0,0,.235.263c.029.058.029.088.059.146a.4.4,0,0,0,.088.117.643.643,0,0,0,.147.088.376.376,0,0,0,.177.029.222.222,0,0,0,.147-.029.406.406,0,0,0,.206-.234c0-.029.029-.058.029-.117a.493.493,0,0,0-.029-.2l-.029-.029a.5.5,0,0,0,.059-.35c0-.058-.029-.146-.029-.2a1.325,1.325,0,0,0,.383-.5,3.478,3.478,0,0,1,1.884-1.928,20.12,20.12,0,0,1,2.3.088,7.79,7.79,0,0,1,1.383.292h.029a10.588,10.588,0,0,1,1.854,1.081,8.27,8.27,0,0,1,1.06.964,6.254,6.254,0,0,1,.412.759,2.192,2.192,0,0,1,.206,1.022c.324.905.677,1.811,1,2.716,0,.058-.029.117,0,.175a3.732,3.732,0,0,1-.912,3.242l-.088.088a4.661,4.661,0,0,1-2.5,1.577,5.26,5.26,0,0,1-1.648.263.8.8,0,0,0-.059.73,4.365,4.365,0,0,0,.883,1.4,1.172,1.172,0,0,0,.265.584c1.737,1.986,3.708,4.06,6.21,4.936a7.54,7.54,0,0,0,.854.38,8.075,8.075,0,0,0,2.207.5c.03,0,.088.029.118.029a2.993,2.993,0,0,0,2.826-.964,2.71,2.71,0,0,0,.795-.467,11.624,11.624,0,0,0,1.03-4.614c0-.088.029-.175.029-.263-.029-.029-.059-.088-.088-.117a9.365,9.365,0,0,0,0-1.285c-.029-.73-.059-1.46-.059-2.19q-.044-1.1-.088-2.19a8.7,8.7,0,0,0-.294-2.307c-.029-.088-.059-.146-.147-.175a8.669,8.669,0,0,0-.618-4.06,6.2,6.2,0,0,0-.235-1.285,11.017,11.017,0,0,0-.765-2.074,7.175,7.175,0,0,0-1.118-1.811l-.029-.029c-.147-.321-.294-.643-.412-.964a1.568,1.568,0,0,0-.412-.526c-.029-.088-.059-.2-.088-.321a5.323,5.323,0,0,0-.706-1.343,8,8,0,0,0-2.384-2.161c-1-.613-2.06-1.2-3.12-1.723a9.225,9.225,0,0,1-1.8-1.139l-.029-.029a1.421,1.421,0,0,0-.235-.672,7.518,7.518,0,0,0-5-3.154A3.375,3.375,0,0,0,566.093,324.112Z" transform="translate(-309.028 -14.384)" fill="#797c7e"/><g transform="translate(140.628 344.716)"><path d="M287.34,519.985c-11.744-20.444-18.9-32.038-30.64-52.482q12.715-7.666,25.46-15.3c9.389,18.341,14.893,27.686,25.636,45.735l-20.456,22.05" transform="translate(-256.7 -452.2)" fill="#4667cc"/></g><path d="M538.126,510.621A19.258,19.258,0,0,1,534.3,518.3h0s25.459,12.938,40.941,3.5h0l4.15-2.132s-8.241,16.034-30.257,18.107h0s1.06,6.6-.5,8.7h0s21.987-1.4,35.849-15.391c2.561-2.6,3.09-1.548,3.679,0s4.592,15.858,3.561,21.583c-1,5.724,34.79,3.388,32.229-13.96s-13.539-33.849-21.81-42.23c-4.68-4.76-7.505-5.286-7.505-5.286s-1.56,4.556-9.507,10.4a17.9,17.9,0,0,0-2.443-3.563,28.656,28.656,0,0,1-6.093,10.017c-4.238,4.293-12.391,9.7-22.664,7.564-10.3-2.161-15.805-4.994-15.805-4.994" transform="translate(-311.966 -135.094)" fill="#b9cafc"/><g transform="translate(92.215 300.375)"><g transform="translate(121.604 107.714)"><path d="M528.219,672.145a20.757,20.757,0,0,0-3.3.409,9.85,9.85,0,0,0-1.5.467c-.53.234-1.06.526-1.589.7a6.424,6.424,0,0,1-4.915-.584,7.032,7.032,0,0,1-2.031-1.577,20.924,20.924,0,0,0-1.325-1.84,2.088,2.088,0,0,0-2-.438,3.454,3.454,0,0,0-1.531,1.285,3.592,3.592,0,0,1-2.09,1.606,1.635,1.635,0,0,1-1.531-.409,1.227,1.227,0,0,1-.324-1.314c.177-.38-.412-.73-.559-.321a1.906,1.906,0,0,0,.618,2.278,2.649,2.649,0,0,0,2.708.175,4.5,4.5,0,0,0,1.707-1.606c.442-.555.942-1.168,1.707-1.139.942.058,1.207.876,1.648,1.548a6.919,6.919,0,0,0,1.854,1.84,7.787,7.787,0,0,0,5.121,1.373,5.4,5.4,0,0,0,1.5-.38c.618-.263,1.177-.584,1.8-.789a15.7,15.7,0,0,1,4.032-.642c.412-.029.412-.672,0-.643Z" transform="translate(-505.371 -669.194)" fill="#797c7e"/></g><g transform="translate(178.133 87.881)"><path d="M704.956,601.435a41.544,41.544,0,0,1-7.417,9.083c-.324.292.147.759.471.467a42.584,42.584,0,0,0,7.505-9.2.33.33,0,0,0-.559-.35Z" transform="translate(-697.43 -601.284)" fill="#797c7e"/></g><g transform="translate(122.021 58.856)"><path d="M507.408,544.074a6.731,6.731,0,0,1,1.678-5.2,6.074,6.074,0,0,1,5.3-2.044,8.5,8.5,0,0,1,4.562,2.8c.677.7,1.266,1.431,1.884,2.19a8.485,8.485,0,0,0,2.119,1.84,12.8,12.8,0,0,0,5.416,1.9,18.923,18.923,0,0,0,6.887-.7,51.257,51.257,0,0,0,12.921-5.082,32.288,32.288,0,0,0,9.536-8.5,41.851,41.851,0,0,0,5.916-11.069,34.868,34.868,0,0,0,2.413-8.586,7.264,7.264,0,0,0-.618-3.943,6.693,6.693,0,0,0-6.24-3.359,8.668,8.668,0,0,0-2.943.935c-1,.467-1.972,1.051-2.943,1.548-1.089.555-2.208,1.051-3.355,1.519-1.118.438-2.266.847-3.414,1.2s-2.472.847-3.65.438a5.373,5.373,0,0,1-2.237-2.044,25.237,25.237,0,0,1-1.884-2.745,8.606,8.606,0,0,1-1.118-3.037c-.059-.409-.706-.234-.647.175a13.769,13.769,0,0,0,2.973,5.783,7.814,7.814,0,0,0,2.031,2.132,4.076,4.076,0,0,0,3.149.35A36.1,36.1,0,0,0,552,508.152c1.06-.5,2.119-1.022,3.149-1.577a15.153,15.153,0,0,1,2.973-1.344,6,6,0,0,1,5.474,1.11,5.1,5.1,0,0,1,1.854,3.388,12.122,12.122,0,0,1-.383,4.235,42.815,42.815,0,0,1-1.354,4.293c-.618,1.723-1.207,3.446-1.972,5.111a41.816,41.816,0,0,1-3.032,5.52A31.873,31.873,0,0,1,549.88,538a45.408,45.408,0,0,1-12.686,5.666,26.172,26.172,0,0,1-7.329,1.343,12.228,12.228,0,0,1-5.622-1.4,9.365,9.365,0,0,1-2.325-1.665c-.677-.672-1.207-1.46-1.825-2.161a11.28,11.28,0,0,0-4.356-3.329c-3.709-1.373-7.653,1.343-8.683,4.906a7.521,7.521,0,0,0-.235,2.687c-.029.438.618.438.589.029Z" transform="translate(-506.786 -501.903)" fill="#797c7e"/></g><g transform="translate(119.823 96.893)"><path d="M510.323,633.912a14.239,14.239,0,0,0-3.8-1.694,3.092,3.092,0,0,0-3.149,1.139c-.383.5-.706,1.051-1.06,1.548-.383.555-.824,1.051-1.266,1.577a5.573,5.573,0,0,0-1.707,2.716,2.107,2.107,0,0,0,1.442,2.366c.412.146.589-.5.177-.642a1.5,1.5,0,0,1-.971-1.782,6.2,6.2,0,0,1,1.619-2.366,27.87,27.87,0,0,0,1.972-2.628,2.638,2.638,0,0,1,2.708-1.344,13.061,13.061,0,0,1,3.679,1.665c.412.234.736-.351.353-.555Z" transform="translate(-499.321 -632.143)" fill="#797c7e"/></g><g transform="translate(120.941 100.274)"><path d="M513.355,646.312c-1.089-1.431-3.385-3.534-5.239-2.132a19.784,19.784,0,0,0-2.5,2.453c-.706.788-1.324,1.9-2.325,2.366-.383.175-.059.759.324.555a6.376,6.376,0,0,0,2-1.957c.706-.818,1.442-1.606,2.237-2.366a3.554,3.554,0,0,1,1.207-.876,1.983,1.983,0,0,1,1.5.321,6.652,6.652,0,0,1,2.207,1.928c.265.38.854.058.589-.292Z" transform="translate(-503.117 -643.718)" fill="#797c7e"/></g><g transform="translate(120.439 104.53)"><path d="M511.357,659.929c-.559-.321-1.148-.613-1.707-.935a5.255,5.255,0,0,0-1.56-.672c-1.089-.2-1.766.613-2.325,1.431-.353.5-.736.964-1.118,1.431a4.478,4.478,0,0,1-1.3,1.168.954.954,0,0,1-1.207-.7,1.526,1.526,0,0,1,.206-1.373c.265-.321-.206-.789-.471-.467a2.146,2.146,0,0,0,.059,2.745,1.5,1.5,0,0,0,1.413.467,3.268,3.268,0,0,0,1.472-1.051,16.458,16.458,0,0,0,1.3-1.548,5.2,5.2,0,0,1,1.089-1.314c.618-.409,1.324,0,1.884.321l1.943,1.051a.321.321,0,1,0,.324-.555Z" transform="translate(-501.412 -658.291)" fill="#797c7e"/></g><g transform="translate(146.25 39.543)" opacity="0"><path d="M589.663,436.481a1.189,1.189,0,0,0,.677,2.044,1.312,1.312,0,0,0,1.06-2.19,1.58,1.58,0,0,0-1.531-.438.355.355,0,0,0-.206.5,4.472,4.472,0,0,0,.912,1.2.342.342,0,0,0,.559-.146v-.058c0-.058.029-.029,0,.029.029-.029.029-.058.059-.088,0-.029.029-.029.029-.058h0c.029-.029.059-.058.059-.088a.845.845,0,0,0,.265-.438.587.587,0,0,0-.324-.643,2.155,2.155,0,0,0-.853-.321c-1-.117-1.472,1.051-1.177,1.84a.946.946,0,0,0,1.207.672,1.133,1.133,0,0,0,.471-.438,4.721,4.721,0,0,0,.294-.526,1.1,1.1,0,0,0,.177-.672.806.806,0,0,0-.589-.555.863.863,0,0,0-.795.117.981.981,0,0,0-.412.818,1.171,1.171,0,0,0,1.177,1.227.722.722,0,0,0,.677-.555.706.706,0,0,0-.324-.759.593.593,0,0,0-.442-.058.32.32,0,0,0-.235.409.361.361,0,0,0,.412.234h-.029c-.059,0,.029.029-.029,0s-.029,0,0,0l-.029-.029.029.029c-.029-.058-.029-.029,0,0s-.029-.058,0,0v.029c.029.058,0-.029,0-.029v.058c0,.029.029-.058,0-.029v.029c0,.029.029-.058,0-.029v.029l.029-.029c-.029.029-.029,0,.029,0l-.029.029h-.029c-.059.029.029,0,0,0h-.118c-.029,0-.029,0-.059-.029h0c-.029-.029-.059-.029-.088-.058h0l-.029-.029-.059-.058h0c0-.029-.029-.029-.029-.058-.029-.029-.029-.058-.059-.088.029.058,0,0,0-.029s-.029-.058-.029-.088h0v-.146h0v-.029c0-.029.029-.058.029-.088,0,0-.029.058,0,.029,0-.029.029-.029.029-.058a.029.029,0,0,1,.029-.029c.029-.058-.029.029,0,0l.029-.029-.029.029c0-.029.059-.029.059-.029.029-.029-.059.029-.029,0h.177c.029,0,.059.029.088.029h.029l.029.029c.059.029-.029,0-.029,0l.029.029c.029.029-.029,0,0-.029l.029.029v.029h0c-.029,0,0-.029,0,0V436.8c-.029.088-.059.146-.088.234a.1.1,0,0,1-.029.058h0a.492.492,0,0,0-.059.146c-.059.088-.088.2-.147.292-.029.029-.088.088-.088.117,0,0,.029-.058.029-.029l-.029.029-.059.058c-.029.029-.029.029-.059.029-.059.058.059-.029,0,0-.029,0-.029.029-.059.029-.059.029.088-.029,0,0-.029,0-.088.029-.029,0h-.059c-.029,0,.059.029.029,0l-.029-.029c-.029,0,0-.029,0,0h0l-.029-.029-.059-.058h0l-.029-.029a.221.221,0,0,1-.059-.117h0c0-.029-.029-.058-.029-.088a1.259,1.259,0,0,1-.029-.146c-.029-.088,0,.058,0,0v-.321c0-.058.029-.088.029-.146v-.029s-.029.058-.029.029.029-.058.029-.088l.059-.117-.029.029.029-.029.059-.058.029-.029s-.059.029-.029.029.029-.029.059-.029l.059-.029s-.088.029-.029,0h.029a.109.109,0,0,0,.088-.029c.059-.029-.088,0,0,0h.177a.109.109,0,0,1,.088.029.754.754,0,0,0,.206.058l.177.088s.088.058.029.029c-.029-.029,0,.029.029.029.059.029-.029-.058,0,0,.029.029-.029-.088,0-.029V436.6h0c0-.029.029-.058,0-.029,0,.029-.029.029-.029.058a.029.029,0,0,1-.029.029l.029-.029c0,.029-.029.029-.029.058a1.614,1.614,0,0,0-.353.555c.177-.058.383-.088.559-.146a1.774,1.774,0,0,1-.235-.234l-.118-.117c-.029-.029-.029-.058-.059-.088.029.029,0-.029-.029-.029a4.006,4.006,0,0,1-.383-.584,3.556,3.556,0,0,1-.206.5c.029,0,.088-.029.118-.029-.088.029.059,0,.059,0h.118c.029,0,.088.029,0,0a.109.109,0,0,1,.088.029c.029,0,.088.029.118.029s.029,0,.059.029h0c.029.029.059.029.118.058.029,0,.029.029.059.029.059.029-.029-.029.029,0l.177.175c-.059-.058.029.029.029.058s.029.029.029.058.029.029.029.058c0-.029-.029-.029,0-.029,0,.029.029.088.029.117v.175c0,.058-.029.088-.029.146,0,.029-.029.058-.029.088h0c-.029.029-.029.088-.059.117,0,.029-.029.029-.029.058h0l-.118.117h0c-.029,0-.029.029-.059.029-.029.029-.059.029-.118.058h0c-.029,0-.029,0-.059.029a.109.109,0,0,0-.088.029h-.177l-.029-.029a.029.029,0,0,1-.029-.029s-.088-.058-.029-.029l-.059-.058c-.029-.029-.029-.029-.029-.058-.029-.029,0,.029,0,.029l-.059-.088a.029.029,0,0,0-.029-.029c-.029-.058-.029,0,0,0-.029,0-.029-.117-.029-.117v-.029h0v-.146h0l.029-.117s.029-.029,0-.029c-.029.058-.029.058,0,.029a.029.029,0,0,1,.029-.029c0-.029.029-.029.029-.058.029-.058-.059.058,0,0l.088-.088a.324.324,0,0,0,0-.467c-.206-.263-.383-.263-.53-.146Z" transform="translate(-589.106 -435.772)" fill="#797c7e"/></g><g transform="translate(139.362 42.23)" opacity="0"><path d="M566.263,445.681a1.189,1.189,0,0,0,.677,2.044,1.312,1.312,0,0,0,1.06-2.19,1.58,1.58,0,0,0-1.53-.438.355.355,0,0,0-.206.5,4.47,4.47,0,0,0,.912,1.2.342.342,0,0,0,.559-.146v-.058c0-.058.029-.029,0,.029.029-.029.029-.058.059-.088,0-.029.029-.029.029-.058h0c.029-.029.059-.058.059-.088a.846.846,0,0,0,.265-.438.587.587,0,0,0-.324-.643,2.156,2.156,0,0,0-.854-.321c-1-.117-1.472,1.051-1.177,1.84a.946.946,0,0,0,1.207.672,1.134,1.134,0,0,0,.471-.438,4.712,4.712,0,0,0,.294-.526,1.1,1.1,0,0,0,.177-.672.807.807,0,0,0-.589-.555.863.863,0,0,0-.795.117.981.981,0,0,0-.412.818,1.171,1.171,0,0,0,1.177,1.227.722.722,0,0,0,.677-.555.706.706,0,0,0-.324-.759.593.593,0,0,0-.442-.058.32.32,0,0,0-.236.409.361.361,0,0,0,.412.234h-.029c-.059,0,.029.029-.03,0s-.029,0,0,0l-.029-.029.029.029c-.029-.058-.029-.029,0,0s-.029-.058,0,0v.029c.03.058,0-.029,0-.029v.058c0,.029.03-.058,0-.029v.029c0,.029.03-.058,0-.029v.029l.03-.029c-.03.029-.03,0,.029,0l-.029.029h-.03c-.059.029.03,0,0,0h-.118c-.029,0-.029,0-.059-.029h0c-.029-.029-.059-.029-.088-.058h0l-.029-.029-.059-.058h0c0-.029-.029-.029-.029-.058-.029-.029-.029-.058-.059-.088.029.058,0,0,0-.029s-.029-.058-.029-.088h0v-.146h0v-.029c0-.029.029-.058.029-.088,0,0-.029.058,0,.029,0-.029.029-.029.029-.058a.029.029,0,0,1,.029-.029c.029-.058-.029.029,0,0L567,446l-.029.029c0-.029.059-.029.059-.029.029-.029-.059.029-.029,0h.177c.029,0,.059.029.088.029h.029l.029.029c.059.029-.029,0-.029,0l.029.029c.029.029-.029,0,0-.029l.029.029v.029h0c-.029,0,0-.029,0,0V446c-.029.088-.059.146-.088.234a.1.1,0,0,1-.029.058h0a.492.492,0,0,0-.059.146c-.059.088-.088.2-.147.292-.03.029-.088.088-.088.117,0,0,.029-.058.029-.029l-.029.029-.059.058c-.029.029-.029.029-.059.029-.059.058.059-.029,0,0-.029,0-.029.029-.059.029-.059.029.088-.029,0,0-.029,0-.088.029-.029,0h-.059c-.029,0,.059.029.029,0l-.029-.029c-.029,0,0-.029,0,0h0l-.029-.029-.059-.058h0l-.029-.029a.22.22,0,0,1-.059-.117h0c0-.029-.029-.058-.029-.088a1.254,1.254,0,0,1-.029-.146c-.029-.088,0,.058,0,0v-.321c0-.058.029-.088.029-.146v-.029s-.029.058-.029.029.029-.058.029-.088l.059-.117-.029.029.029-.029.059-.058.029-.029s-.059.029-.029.029.029-.029.059-.029l.059-.029s-.088.029-.029,0h.029a.109.109,0,0,0,.088-.029c.059-.029-.088,0,0,0h.177a.108.108,0,0,1,.088.029.752.752,0,0,0,.206.058l.177.088s.088.058.029.029c-.029-.029,0,.029.029.029.059.029-.029-.058,0,0,.029.029-.029-.088,0-.029V445.8h0c0-.029.029-.058,0-.029,0,.029-.029.029-.029.058a.029.029,0,0,1-.029.029l.029-.029c0,.029-.029.029-.029.058a1.616,1.616,0,0,0-.353.555c.177-.058.383-.088.559-.146a1.765,1.765,0,0,1-.235-.234l-.118-.117c-.029-.029-.029-.058-.059-.088.029.029,0-.029-.029-.029a4.016,4.016,0,0,1-.383-.584,3.541,3.541,0,0,1-.206.5c.029,0,.088-.029.118-.029-.088.029.059,0,.059,0h.118c.029,0,.088.029,0,0a.109.109,0,0,1,.088.029c.029,0,.088.029.118.029s.029,0,.059.029h0c.029.029.059.029.118.058.029,0,.029.029.059.029.059.029-.029-.029.029,0l.177.175c-.059-.058.029.029.029.058s.029.029.029.058.029.029.029.058c0-.029-.029-.029,0-.029,0,.029.029.088.029.117v.175c0,.058-.029.088-.029.146,0,.029-.029.058-.029.088h0c-.029.029-.029.088-.059.117,0,.029-.029.029-.029.058h0l-.118.117h0c-.029,0-.029.029-.059.029-.029.029-.059.029-.118.058h0c-.029,0-.029,0-.059.029a.109.109,0,0,0-.088.029h-.177l-.029-.029a.029.029,0,0,1-.029-.029s-.088-.058-.03-.029l-.059-.058c-.029-.029-.029-.029-.029-.058-.029-.029,0,.029,0,.029l-.059-.088a.029.029,0,0,0-.029-.029c-.029-.058-.029,0,0,0-.029,0-.029-.117-.029-.117v-.029h0v-.146h0l.029-.117s.029-.029,0-.029c-.029.058-.029.058,0,.029a.029.029,0,0,1,.029-.029c0-.029.029-.029.029-.058.029-.058-.059.058,0,0l.088-.088a.324.324,0,0,0,0-.467c-.206-.263-.383-.234-.53-.146Z" transform="translate(-565.706 -444.972)" fill="#797c7e"/></g><g transform="translate(78.692 88.586)"><path d="M405.2,625.984c-.353.5-.677.993-1.03,1.489a2.609,2.609,0,0,1,.294-.175c-6,.2-12.009.409-18.042.438-5.151.029-10.3-.117-15.452-.321q-5.519-.219-11.037-.526c.088.175.147.38.235.555l16.159-17.085c1.531-1.635,3.09-3.271,4.621-4.877-.088.029-.147.058-.235.088,5.239-.117,10.449-.263,15.688-.467,4.209-.146,8.388-.321,12.6-.467q5.3-.175,10.6-.263a4.39,4.39,0,0,0-.294-.5l-4.5,7.184c-.235.35.353.7.559.321,1.5-2.395,2.973-4.819,4.5-7.184a.337.337,0,0,0-.294-.5c-4.592.117-9.154.2-13.745.38l-9.389.35c-3.738.146-7.447.263-11.184.35l-3.8.088a2.374,2.374,0,0,0-.912.058,2.68,2.68,0,0,0-.706.7c-.471.526-.971,1.022-1.442,1.548-1.913,2.044-3.856,4.06-5.769,6.1q-5.739,6.089-11.508,12.149c-.471.526-.971,1.022-1.442,1.548a.325.325,0,0,0,.235.555c6.328.321,12.656.643,18.984.759,5.5.117,11.008.058,16.512-.088l5.681-.175c1.089-.029,2.149-.058,3.238-.117a.456.456,0,0,0,.471-.234c.118-.146.235-.321.353-.5.206-.321.442-.643.648-.935s-.353-.613-.589-.263Z" transform="translate(-359.574 -603.7)" fill="#797c7e"/></g><g transform="translate(128.86 18.452)"><path d="M566.367,380.886a4.505,4.505,0,0,0,4.68,2.22,5.134,5.134,0,0,0,4.386-3.359,7.291,7.291,0,0,0-1.325-6.63,7.14,7.14,0,0,0-6.534-3.008,3.283,3.283,0,0,0-2.8,2.307,5.511,5.511,0,0,0,.824,3.826,5.478,5.478,0,0,1,.559-.321,42.952,42.952,0,0,0-6.5-7.681c-2.531-2.307-5.681-4.468-9.213-4.673a9.837,9.837,0,0,0-8.653,4.906,21.7,21.7,0,0,0-3,10.718c-.206,4.03.294,8.411,2.826,11.711l.1.139.9,1c-.029-.117-.059-.2-.088-.321-.537,1.8-1.7,1.441-1.833,2.311s.656.589,1.3,1.168a29.047,29.047,0,0,0,2.8,2.588c1.886,1.366,4.225,2.156,4.678.175.088-.409-.559-.584-.648-.175-.22.993-1.6.763-2.693.363-1.481-.507-4.471-4.32-4.938-3.939-.075-.51,1.184-.711,1.98-2.345a.328.328,0,0,0-.088-.321c-2.855-2.891-3.708-6.98-3.679-10.893a23.6,23.6,0,0,1,2.266-10.631c1.531-2.979,4.268-5.578,7.8-5.783,3.385-.2,6.5,1.694,8.977,3.8a40.622,40.622,0,0,1,6.593,7.418c.177.263.383.526.559.789.235.35.795.029.559-.321a5.1,5.1,0,0,1-.824-3.037,2.535,2.535,0,0,1,1.972-2.015c2.207-.613,4.621.7,6,2.336a6.915,6.915,0,0,1,1.648,5.724,4.455,4.455,0,0,1-3.473,3.475,3.974,3.974,0,0,1-4.592-1.811c-.118-.409-.706-.088-.53.292Z" transform="translate(-530.025 -363.554)" fill="#797c7e"/></g><g transform="translate(128.65 5.787)"><path d="M540.7,339.176a12.873,12.873,0,0,1-9.477-5.461c-1.089-1.606-1.825-3.767-.648-5.52,1.236-1.869,3.767-1.314,5.592-.818,2.325.613,4.621,1.577,7.064,1.635a.328.328,0,0,0,.088-.642c-1.619-.438-3.3-.467-4.739-1.4a3.85,3.85,0,0,1-1.913-2.95c0-1.519,1.53-2.541,2.884-2.891a11.314,11.314,0,0,1,4.945.146c3.179.672,6.152,2.074,9.36,2.541a35.791,35.791,0,0,0,5,.117,32.48,32.48,0,0,1,5.327.409c3.414.584,7.476,1.869,8.918,5.374.147.38.765.234.647-.175a1.965,1.965,0,0,1-.206.321h-.029s.088.029.029,0c.088.029.177.029.265.058l.795.263a13,13,0,0,1,1.472.613,6.284,6.284,0,0,1,1.531,1.081,15.3,15.3,0,0,1,2.207,2.366,24,24,0,0,1,4.415,11.273,40.718,40.718,0,0,1,.471,6.279,23.355,23.355,0,0,1-.589,5.9,3.306,3.306,0,0,1-2.5,2.57,6.338,6.338,0,0,1-3.8-.555,10.89,10.89,0,0,1-2.031-1.2c-.824-.584-1.648-1.168-2.443-1.811a10.515,10.515,0,0,1-3.65-4.79.336.336,0,0,0-.648.175,10.8,10.8,0,0,0,3.326,4.673c.736.643,1.531,1.227,2.325,1.811a18.061,18.061,0,0,0,2.149,1.4c2.355,1.227,5.945,1.782,7.417-.993a7.11,7.11,0,0,0,.706-2.6,31.8,31.8,0,0,0,.324-3.329,40.4,40.4,0,0,0-.324-6.8c-.589-4.439-1.825-8.791-4.591-12.383a17.987,17.987,0,0,0-2.266-2.453,7.181,7.181,0,0,0-1.737-1.227c-.559-.263-1.118-.467-1.678-.7a2.725,2.725,0,0,0-1.354-.321.409.409,0,0,0-.294.5c.206-.058.412-.117.648-.175-1.325-3.242-4.621-4.76-7.859-5.52a27.932,27.932,0,0,0-5.622-.7c-.942-.029-1.884-.029-2.826-.029a20.5,20.5,0,0,1-2.678-.029c-3.532-.321-6.77-1.957-10.213-2.658a11.931,11.931,0,0,0-5.18-.117,4.259,4.259,0,0,0-3.3,2.921,3.993,3.993,0,0,0,1.648,3.709,6.382,6.382,0,0,0,2.149,1.168c1.06.35,2.208.438,3.3.7.029-.2.059-.438.088-.642-2.384-.058-4.621-.993-6.887-1.606-1.972-.526-4.592-1.022-6.063.759-1.354,1.635-1.089,3.855-.177,5.637a12.618,12.618,0,0,0,4.209,4.5,13.951,13.951,0,0,0,6.387,2.22c.471.088.441-.584.029-.613Z" transform="translate(-529.311 -320.19)" fill="#797c7e"/></g><g transform="translate(148.481 49.086)"><path d="M596.691,472.32c.324,2.1.648,4.206,1,6.338a.345.345,0,0,0,.412.234c4.209-1.051,9.036-2.424,10.89-6.746a6.105,6.105,0,0,0,.5-3.388c-.059-.409-.706-.409-.647,0A6.621,6.621,0,0,1,606.9,474.1a12.7,12.7,0,0,1-5.386,3.154c-1.177.38-2.384.7-3.62.993.147.088.265.146.412.234-.324-2.1-.648-4.205-1-6.337-.029-.409-.677-.234-.618.175Z" transform="translate(-596.687 -468.45)" fill="#797c7e"/></g><g transform="translate(167.064 27.914)"><path d="M660.229,396.726a2.609,2.609,0,0,1,3.208,2.979.336.336,0,0,0,.648.175,3.293,3.293,0,0,0-2.561-3.855,2.681,2.681,0,0,0-1.442.058.33.33,0,1,0,.147.642Z" transform="translate(-659.825 -395.953)" fill="#797c7e"/></g><path d="M427.282,662.621a.734.734,0,0,0-1,0c-.589.759-1.177,1.489-1.737,2.249a.8.8,0,0,0-.147.759c-.059.058-.088.117-.147.175a.522.522,0,0,0-.235.2.793.793,0,0,0-.177.35.524.524,0,0,0,.324.643.532.532,0,0,0,.677-.234,9.207,9.207,0,0,1,.647-.847l.059-.058c.589-.759,1.177-1.489,1.737-2.249A.719.719,0,0,0,427.282,662.621Z" transform="translate(-326.214 -556.687)" fill="#797c7e"/><path d="M439.282,650.83a.584.584,0,0,0-.677.088,2.061,2.061,0,0,0-.235.292c-.029.058-.088.146-.118.2l-.265.438c-.177.292-.353.584-.559.876a.511.511,0,0,0,.177.7.526.526,0,0,0,.706-.175c.206-.292.412-.555.618-.847a4.962,4.962,0,0,1,.294-.409,1.953,1.953,0,0,0,.324-.526A.52.52,0,0,0,439.282,650.83Z" transform="translate(-335.771 -548.43)" fill="#797c7e"/><path d="M449.11,637.583a.76.76,0,0,0-.706-.5.85.85,0,0,0-.53.2,1.619,1.619,0,0,0-.177.234c-.059.088-.118.146-.177.234-.118.146-.206.292-.324.438-.206.292-.442.613-.648.905a.73.73,0,0,0-.088.555.826.826,0,0,0,.324.438.637.637,0,0,0,.559.058.962.962,0,0,0,.441-.321l.648-.876.324-.438.177-.234c.029-.029.059-.088.088-.117A.8.8,0,0,0,449.11,637.583Z" transform="translate(-342.184 -538.745)" fill="#797c7e"/><path d="M459.708,622.861a.471.471,0,0,0-.383-.088,1.52,1.52,0,0,0-.677.613,4.017,4.017,0,0,1-.383.584c-.235.409-.471.788-.706,1.2a.539.539,0,0,0,.177.7.519.519,0,0,0,.706-.175c.265-.38.53-.759.765-1.139.118-.2.235-.38.353-.584.059-.088.088-.2.147-.292a1.026,1.026,0,0,0,.118-.5A.291.291,0,0,0,459.708,622.861Z" transform="translate(-349.986 -528.609)" fill="#797c7e"/><path d="M442.141,664.017a.58.58,0,0,0-.736.029,11.435,11.435,0,0,0-1.148,1.694c-.353.555-.677,1.11-1.03,1.665a.477.477,0,0,0,.177.672.556.556,0,0,0,.706-.175c.383-.526.736-1.051,1.118-1.577.177-.263.353-.5.53-.759a8.239,8.239,0,0,0,.53-.847A.509.509,0,0,0,442.141,664.017Z" transform="translate(-337.041 -557.732)" fill="#797c7e"/><path d="M453.408,650.541a.719.719,0,0,0-.648.029,1.19,1.19,0,0,0-.412.438l-.353.613c-.265.438-.5.847-.765,1.285a.634.634,0,0,0,.206.818.645.645,0,0,0,.824-.2c.265-.409.559-.818.824-1.256.118-.2.265-.38.383-.584C453.7,651.359,453.82,650.775,453.408,650.541Z" transform="translate(-345.511 -548.229)" fill="#797c7e"/><path d="M463.456,637.454a.62.62,0,0,0-.765-.409.822.822,0,0,0-.5.438c-.059.088-.088.175-.147.263-.118.2-.206.38-.324.584s-.206.38-.324.584a5.485,5.485,0,0,0-.265.613.667.667,0,0,0-.059.409.52.52,0,0,0,.235.321.562.562,0,0,0,.736-.175c.147-.175.265-.35.412-.526.118-.175.235-.38.353-.555s.235-.38.353-.555l.177-.263c.029-.058.059-.088.088-.146A1.329,1.329,0,0,0,463.456,637.454Z" transform="translate(-352.499 -538.705)" fill="#797c7e"/><path d="M471.875,625.294a.729.729,0,0,0-.324-.409.668.668,0,0,0-.912.234c-.294.467-.589.964-.854,1.431a.6.6,0,0,0-.059.5.646.646,0,0,0,.294.38.675.675,0,0,0,.912-.234c.294-.467.589-.964.883-1.431A.758.758,0,0,0,471.875,625.294Z" transform="translate(-358.592 -530.049)" fill="#797c7e"/><path d="M461.113,663.747a1.586,1.586,0,0,0-.618.7c-.147.234-.294.438-.442.672-.265.438-.53.906-.795,1.344a.5.5,0,0,0,.177.672.491.491,0,0,0,.677-.175c.324-.409.647-.847.942-1.256.147-.2.294-.438.442-.643a1.866,1.866,0,0,0,.412-.876A.53.53,0,0,0,461.113,663.747Z" transform="translate(-351.185 -557.58)" fill="#797c7e"/><path d="M469.741,651.281a.641.641,0,0,0-.265.292.222.222,0,0,0-.059.146c-.059.088-.088.2-.147.292l-.265.526c-.177.38-.383.73-.559,1.11a.528.528,0,0,0,.206.73.537.537,0,0,0,.736-.2l.618-1.051c.088-.175.206-.35.294-.526.059-.088.088-.175.147-.263a1.637,1.637,0,0,0,.206-.526A.607.607,0,0,0,469.741,651.281Z" transform="translate(-357.664 -548.734)" fill="#797c7e"/><path d="M479.392,636.584a.478.478,0,0,0-.265-.146.634.634,0,0,0-.706.292c-.412.759-.795,1.49-1.207,2.249a.57.57,0,0,0,.206.789.622.622,0,0,0,.824-.2c.412-.73.824-1.489,1.266-2.22A.713.713,0,0,0,479.392,636.584Z" transform="translate(-363.843 -538.272)" fill="#797c7e"/><path d="M486.919,626.421a.635.635,0,0,0-.736.117.97.97,0,0,0-.177.292c-.059.117-.147.234-.206.38-.088.146-.147.263-.235.409a1.26,1.26,0,0,0-.118.2,1.208,1.208,0,0,0-.118.292.261.261,0,0,1-.029.146.493.493,0,0,0,.029.2.521.521,0,0,0,.206.234.866.866,0,0,0,.265.058.49.49,0,0,0,.353-.146l.088-.088a.891.891,0,0,0,.147-.2h0c.029-.029.059-.058.059-.088l.029-.029a2.671,2.671,0,0,0,.235-.38c.088-.117.147-.234.235-.351a2.57,2.57,0,0,0,.177-.292A.6.6,0,0,0,486.919,626.421Z" transform="translate(-369.603 -531.147)" fill="#797c7e"/><path d="M476.613,668.114a.58.58,0,0,0-.795.2c-.353.672-.706,1.343-1.06,1.986a.547.547,0,0,0,.177.7.556.556,0,0,0,.706-.175c.383-.643.795-1.285,1.177-1.928A.547.547,0,0,0,476.613,668.114Z" transform="translate(-362.123 -560.661)" fill="#797c7e"/><path d="M486.032,639.113a6.168,6.168,0,0,0-.618.905c-.147.263-.294.526-.471.789-.324.555-.648,1.081-.971,1.635-.648,1.11-1.236,2.249-1.854,3.388a.58.58,0,0,0,1,.584c.706-1.081,1.442-2.132,2.119-3.242.324-.526.677-1.081,1-1.606.147-.263.324-.526.471-.789a4.422,4.422,0,0,0,.53-.964A.725.725,0,0,0,486.032,639.113Z" transform="translate(-367.304 -540.042)" fill="#797c7e"/><path d="M501.686,627.7a.721.721,0,0,0-.795.088,2.013,2.013,0,0,0-.383.584c-.088.146-.177.321-.265.467l-.53.964a.57.57,0,0,0,.206.789.653.653,0,0,0,.824-.2c.206-.321.412-.613.618-.935.088-.146.206-.292.294-.438a3.1,3.1,0,0,0,.324-.613A.688.688,0,0,0,501.686,627.7Z" transform="translate(-379.72 -532.046)" fill="#797c7e"/><g transform="translate(181.362 44.939)"><path d="M717.966,464.662a59.718,59.718,0,0,1-5.121-4.7c-.795-.818-1.56-1.665-2.325-2.541a4.6,4.6,0,0,1-1.472-2.862.324.324,0,0,0-.647,0,4.689,4.689,0,0,0,1.236,2.833c.765.935,1.619,1.84,2.443,2.716a61.782,61.782,0,0,0,5.386,4.994c.353.292.824-.175.5-.438Z" transform="translate(-708.4 -454.25)" fill="#797c7e"/></g><g transform="translate(181.867 93.557)"><path d="M715.469,633.184c-.383-2.22-.824-4.439-1.413-6.63a26.662,26.662,0,0,0-1-3.067,7.483,7.483,0,0,0-1.148-2.132,1.339,1.339,0,0,0-1.619-.526c-.383.175-.059.73.324.555a.382.382,0,0,1,.353.029,1.515,1.515,0,0,1,.5.467,7.854,7.854,0,0,1,1.03,2.044,37.43,37.43,0,0,1,1.678,6.162c.235,1.081.442,2.19.618,3.3.118.38.765.2.677-.2Z" transform="translate(-710.117 -620.72)" fill="#797c7e"/></g><g transform="translate(128.141 65.323)"><path d="M533.562,533.581c-.648-.292-1.589-.73-1.884-1.431-.177-.467.177-.905.5-1.227.912-.876,2.119-1.431,3.091-2.22.795-.643,1.913-1.606,1.884-2.745-.029-1.519-2.266-2.015-3.444-1.9-2.5.292-4,2.424-5.975,3.709-.353.234-.029.788.324.555,1.737-1.139,3.061-2.979,5.121-3.534a3.65,3.65,0,0,1,2.708.35.95.95,0,0,1,.53,1.139,5.24,5.24,0,0,1-2.178,2.336,10.407,10.407,0,0,0-2.973,2.307c-1.03,1.49.736,2.629,1.942,3.183.383.234.736-.35.353-.526Z" transform="translate(-527.582 -524.044)" fill="#797c7e"/></g><g transform="translate(118.145 65.517)"><path d="M505.24,527.013a25.284,25.284,0,0,0-3.767-1.635,6.547,6.547,0,0,0-3.473-.584,2.087,2.087,0,0,0-1.266,2.541,3.906,3.906,0,0,0,1.707,2.57c1.089.73,2.384.5,3.591.818a2.094,2.094,0,0,1,1.3.935,1.127,1.127,0,0,1-.5,1.431,2.707,2.707,0,0,1-1.913.263,8.976,8.976,0,0,1-1.943-.467,10.364,10.364,0,0,1-3.355-1.811c-.971-.788-1.678-1.869-1.118-3.154a4.014,4.014,0,0,1,2.943-2.249c.412-.088.235-.7-.177-.643-2.09.409-4.386,2.658-3.414,4.906a6.075,6.075,0,0,0,2.443,2.424,11.829,11.829,0,0,0,3.8,1.489c1.177.234,2.649.38,3.532-.613a1.766,1.766,0,0,0-.441-2.716c-1.118-.789-2.531-.467-3.767-.905a3.126,3.126,0,0,1-2.031-2.628c-.059-.7.088-1.489.912-1.635a4.639,4.639,0,0,1,2,.292,23.792,23.792,0,0,1,4.65,1.869c.353.292.677-.292.294-.5Z" transform="translate(-493.62 -524.709)" fill="#797c7e"/></g><g transform="translate(117.049 68.78)"><path d="M491.251,535.976a4.691,4.691,0,0,0-1.354,3.446,3.1,3.1,0,0,0,.5,1.84,4.814,4.814,0,0,0,1.678,1.168,34.565,34.565,0,0,0,4,2.074,4.363,4.363,0,0,0,3.767-.088,2.354,2.354,0,0,0,.765-3.242c-.235-.351-.824-.029-.559.321a1.705,1.705,0,0,1-.648,2.395,3.713,3.713,0,0,1-3.149-.029,29.913,29.913,0,0,1-3.326-1.723c-.53-.292-1.06-.555-1.56-.876a1.607,1.607,0,0,1-.589-.584,3.123,3.123,0,0,1-.206-.905,3.983,3.983,0,0,1,1.118-3.329c.324-.292-.147-.759-.441-.467Z" transform="translate(-489.896 -535.883)" fill="#797c7e"/></g><g transform="translate(117.519 74.255)"><path d="M492.053,554.738a2.215,2.215,0,0,0-.559,1.344,1.931,1.931,0,0,0,.559,1.4,7.1,7.1,0,0,0,2.649,1.986,11.05,11.05,0,0,0,3.031.789,4.37,4.37,0,0,0,2.855-.409,1.721,1.721,0,0,0,.648-2.424c-.265-.321-.824,0-.559.321a.958.958,0,0,1,0,1.139,1.9,1.9,0,0,1-1.177.7,6.822,6.822,0,0,1-2.973-.2,7.717,7.717,0,0,1-3.032-1.373,4.47,4.47,0,0,1-1.118-1.227,1.363,1.363,0,0,1,.177-1.577c.265-.321-.206-.789-.5-.467Z" transform="translate(-491.492 -554.63)" fill="#797c7e"/></g><g transform="translate(120.435 78.698)"><path d="M501.724,570.561h0a.317.317,0,0,0,.353.029.4.4,0,0,0-.059-.73c-.442-.117-.618.409-.618.759.029.876.795,1.373,1.53,1.635a9.549,9.549,0,0,0,2.708.584,2.67,2.67,0,0,0,2.237-.584,1.262,1.262,0,0,0-.118-1.9c-.353-.234-.677.321-.324.555.412.292.059.905-.265,1.081a3.345,3.345,0,0,1-1.854.146,9.811,9.811,0,0,1-2.031-.5,2.947,2.947,0,0,1-.854-.438,1.007,1.007,0,0,1-.265-.35.538.538,0,0,1-.059-.2c0-.088.059-.175-.029-.146-.118-.029-.206-.058-.324-.088l.029.029c-.029-.088-.059-.146-.088-.234a1.271,1.271,0,0,0,.118-.2h.324a.029.029,0,0,1-.029-.029.35.35,0,0,0-.383.584Z" transform="translate(-501.4 -569.843)" fill="#797c7e"/></g><g transform="translate(126.356 80.656)"><path d="M525.456,578.432q-1.766-.876-3.444-1.84a.321.321,0,1,0-.324.555q1.678.964,3.444,1.84c.383.2.706-.38.324-.555Z" transform="translate(-521.517 -576.548)" fill="#797c7e"/></g><g transform="translate(159.151 48.926)"><path d="M633.427,469.272a5.121,5.121,0,0,1,5.21-.058.321.321,0,1,0,.324-.555,5.833,5.833,0,0,0-5.857.058.321.321,0,0,0,.324.555Z" transform="translate(-632.937 -467.9)" fill="#797c7e"/></g><g transform="translate(81.809)"><path d="M391.6,303.39a77.038,77.038,0,0,0-5.71,7.36c-.824,1.256-1.589,2.512-2.325,3.826a29.366,29.366,0,0,0-1.972,3.972,12.451,12.451,0,0,0-.942,4.731.324.324,0,0,0,.648,0h0c0,.029,0-.029.059-.058l.235-.117a3.388,3.388,0,0,1,.942-.2,6.6,6.6,0,0,1,2.266.146,2.138,2.138,0,0,1,.795.35.376.376,0,0,1,.147.467,8.258,8.258,0,0,1-.971,1.811c-.412.643-.883,1.256-1.354,1.869a30.2,30.2,0,0,1-4.68,5.169,5.424,5.424,0,0,1-2.59,1.285,2.249,2.249,0,0,1-2.207-1.227,13.951,13.951,0,0,1-.971-2.132c-.294-.789-.589-1.577-.824-2.366a33.762,33.762,0,0,1-1.266-4.79,9.109,9.109,0,0,1-.088-2.19,6.031,6.031,0,0,1,.177-1.051c.029-.175.059-.38.265-.438a.641.641,0,0,1,.324.029c.912.263,1.589,1.051,2.472,1.4a.9.9,0,0,0,1-.117,2.6,2.6,0,0,0,.442-.789c.147-.409.324-.818.5-1.256.647-1.606,1.324-3.213,2.031-4.79.677-1.519,1.413-3.008,2.119-4.527.677-1.4,1.3-2.833,2-4.235a19.65,19.65,0,0,1,2.414-3.972,1.255,1.255,0,0,1,1.325-.526,3.469,3.469,0,0,1,.706.263c.147.058.265.117.412.175l.177.088.147.058c1.354.584,2.708,1.256,4,1.957a1.215,1.215,0,0,1,.324.2c.029.029.059.058.088.058-.147-.058,0-.029-.029,0-.059.029.029-.438-.029-.35-.177.38.412.73.559.321.235-.555-.912-.935-1.266-1.11-.854-.438-1.737-.876-2.59-1.285a13.445,13.445,0,0,0-2.325-.964c-1.472-.38-2.266.964-2.943,2.015a34.935,34.935,0,0,0-2.414,4.5c-.736,1.577-1.472,3.154-2.208,4.7-.795,1.694-1.56,3.388-2.266,5.082-.353.876-.706,1.723-1.06,2.6a5.416,5.416,0,0,1-.5,1.2c-.118.175-.177.146-.383.058-.942-.35-1.648-1.285-2.649-1.46a1.157,1.157,0,0,0-.824.117,1.4,1.4,0,0,0-.442.876,8.945,8.945,0,0,0-.177,2.336,21.5,21.5,0,0,0,1.118,5.082c.265.905.559,1.811.912,2.687a17.145,17.145,0,0,0,1,2.395,3.326,3.326,0,0,0,2.443,1.957,4.521,4.521,0,0,0,2.884-.905,25.463,25.463,0,0,0,5.151-5.345,19.766,19.766,0,0,0,2.708-4.03,1.266,1.266,0,0,0,.088-1.081,1.452,1.452,0,0,0-.647-.613,4.936,4.936,0,0,0-2.414-.438,4.276,4.276,0,0,0-2.178.409.753.753,0,0,0-.412.643h.647c-.059-2.891,1.236-5.578,2.62-8.031a63.788,63.788,0,0,1,4.827-7.389c1.06-1.373,2.149-2.687,3.3-4C392.339,303.537,391.868,303.069,391.6,303.39Z" transform="translate(-370.166 -300.375)" fill="#797c7e"/></g><g transform="translate(40.395 1.029)"><path d="M237.89,304.278a68.005,68.005,0,0,0-.53,10.076,39.315,39.315,0,0,0,.883,8.294,12.143,12.143,0,0,0,1.8,4.089c.235.35.795.029.559-.321-.029-.029,0,.029,0,0v-.058a1.186,1.186,0,0,1,.177-.321,3.022,3.022,0,0,1,.765-.73,6.253,6.253,0,0,1,2.09-1.11,1.376,1.376,0,0,1,.765-.029c.294.146.294.759.324,1.081a20.9,20.9,0,0,1-.088,4.5,27.532,27.532,0,0,1-.912,6.016c-.471,1.431-1.413,3.213-3.208,2.862a4.423,4.423,0,0,1-1.472-.643c-.706-.438-1.413-.935-2.09-1.431a50.251,50.251,0,0,1-3.915-3.183,9.372,9.372,0,0,1-2.855-3.8c-.059-.175-.118-.321.059-.467a.319.319,0,0,1,.206-.088,2.923,2.923,0,0,1,.706-.088c.5-.029,1.03,0,1.53-.029a1.95,1.95,0,0,0,1.148-.321c.471-.438.177-1.227.059-1.723-.412-1.723-.765-3.475-1.089-5.228-.324-1.723-.589-3.475-.883-5.228-.265-1.694-.589-3.388-.795-5.111-.118-.818-.177-1.665-.235-2.512a10.6,10.6,0,0,1,.029-2.366c.235-1.022,1.3-1.051,2.178-1.227a38.3,38.3,0,0,1,4.474-.613c.118,0,.265-.029.383-.029h.147c-.088.029-.265-.234-.265-.2.088.409.706.234.648-.175-.059-.292-.441-.263-.648-.263-.383.029-.765.058-1.118.117-.971.117-1.972.263-2.943.409a12.926,12.926,0,0,0-2.355.467c-1.324.5-1.266,1.9-1.266,3.1a38.186,38.186,0,0,0,.589,5.491c.294,1.869.589,3.709.883,5.578.324,1.928.677,3.826,1.089,5.753.206.935.412,1.84.618,2.774.059.234.147.438-.059.555a1.959,1.959,0,0,1-.706.088c-.559.029-1.118,0-1.678.058a1.638,1.638,0,0,0-1.324.613,1.111,1.111,0,0,0,.029.964,7.685,7.685,0,0,0,.53,1.11,11.034,11.034,0,0,0,1.5,1.986,39.659,39.659,0,0,0,4.121,3.534c.736.584,1.531,1.11,2.3,1.635a7.947,7.947,0,0,0,1.766.964,2.891,2.891,0,0,0,2.59-.2,4.67,4.67,0,0,0,1.619-2.132,20.615,20.615,0,0,0,1.177-6.25,28.026,28.026,0,0,0,.177-4.965c-.059-.876-.118-2.044-1.236-2.074a4.6,4.6,0,0,0-2.355.847,4.655,4.655,0,0,0-1.737,1.635.834.834,0,0,0-.029.789,5.5,5.5,0,0,1,.559-.321,15.315,15.315,0,0,1-2.325-7.506,62.431,62.431,0,0,1-.235-9.083c.088-1.84.265-3.709.471-5.549C238.6,303.84,237.92,303.84,237.89,304.278Z" transform="translate(-229.461 -303.897)" fill="#797c7e"/></g><g transform="translate(0 50.576)"><path d="M94.271,474.207a73.45,73.45,0,0,0,8.212,4.352c1.354.584,2.737,1.139,4.15,1.635a31.23,31.23,0,0,0,4.356,1.314,12.367,12.367,0,0,0,4.856.117c.412-.088.235-.7-.177-.643.059,0,.029,0,0-.029a1.222,1.222,0,0,1-.177-.234,3.06,3.06,0,0,1-.353-.905,6.445,6.445,0,0,1-.235-2.249,2.014,2.014,0,0,1,.235-.818.342.342,0,0,1,.412-.175,7.282,7.282,0,0,1,2.031.7,18.853,18.853,0,0,1,2.031,1.022c2.384,1.285,10.949,5.461,6.3,8.762a33.731,33.731,0,0,1-4.238,2.424,26.664,26.664,0,0,1-4.415,1.869,7.9,7.9,0,0,1-2.178.35c-.265,0-.824.088-1.03-.058-.206-.117-.118-.467-.059-.642a21.326,21.326,0,0,0,.971-2.6.858.858,0,0,0-.648-.964c-.324-.117-.706-.146-1.06-.234-.471-.088-.942-.2-1.413-.292-1.678-.38-3.355-.759-5.033-1.2-1.589-.409-3.179-.876-4.8-1.314-1.531-.409-3.032-.818-4.533-1.285-.765-.234-1.531-.526-2.266-.818a6.778,6.778,0,0,1-1.943-.993c-.765-.643-.265-1.723-.088-2.512.353-1.4.795-2.833,1.266-4.206.059-.117.088-.263.147-.38-.029.058.029-.029.029-.058l.029-.029v-.029c.088-.117-.029-.058-.324.117a.333.333,0,0,0,.177-.643c-.324-.088-.442.234-.53.467-.147.321-.235.672-.353.993-.294.905-.559,1.811-.824,2.745a20.285,20.285,0,0,0-.559,2.307,1.888,1.888,0,0,0,.265,1.373,3.936,3.936,0,0,0,1.707,1.11,68.851,68.851,0,0,0,9.86,3.1c1.825.526,3.65.993,5.475,1.431.942.234,1.854.438,2.8.613.471.088.942.2,1.413.292.235.058.53.058.53.321a4.525,4.525,0,0,1-.5,1.373,6.69,6.69,0,0,0-.53,1.46.937.937,0,0,0,.883,1.168,7.788,7.788,0,0,0,2.325-.117,20.254,20.254,0,0,0,4.8-1.811,41.313,41.313,0,0,0,4.739-2.6,3.686,3.686,0,0,0,1.943-2.745,4.036,4.036,0,0,0-1.236-2.775c-1.707-1.9-4.121-3.1-6.328-4.322a18.211,18.211,0,0,0-4.444-1.957,1.165,1.165,0,0,0-1.03.088,1.461,1.461,0,0,0-.53.789,5.311,5.311,0,0,0-.029,2.453,4.23,4.23,0,0,0,.765,2.044.884.884,0,0,0,.736.292c-.059-.2-.118-.409-.177-.643-2.884.526-5.8-.321-8.477-1.285a65.325,65.325,0,0,1-8.182-3.563c-1.5-.789-2.943-1.635-4.415-2.482C94.242,473.418,93.918,474,94.271,474.207Z" transform="translate(-92.215 -473.549)" fill="#797c7e"/></g><g transform="translate(218.208 46.367)"><path d="M834.974,514.414c-.235-8.82-.53-17.64-.677-26.431a106.846,106.846,0,0,1,.441-13.025c.412-3.826,1.06-7.827,3.12-11.156a8.781,8.781,0,0,1,3.826-3.621,4.748,4.748,0,0,1,4.3.292,8.61,8.61,0,0,1,2.914,3.242,18.673,18.673,0,0,1,1.678,4.41,127.3,127.3,0,0,1,3.885,24.24,131.457,131.457,0,0,1-.706,24.532c-.118.993-.265,1.957-.412,2.95-.059.409.589.584.648.175a132.325,132.325,0,0,0-2.237-49.97c-.795-3.183-1.648-6.63-4.062-9.054a6.082,6.082,0,0,0-3.738-1.84,6.326,6.326,0,0,0-4.562,1.723c-2.884,2.541-4.121,6.542-4.8,10.163a76.185,76.185,0,0,0-1,12.938c-.029,4.527.118,9.024.235,13.551s.235,9.024.353,13.551c.029,1.11.059,2.249.088,3.359.059.409.706.409.706-.029Z" transform="translate(-833.587 -459.14)" fill="#797c7e"/></g><g transform="translate(-107.302 -489.519)"><g transform="translate(178.076 563.442)"><g transform="translate(0 0)"><path d="M211.507,584.182a1.748,1.748,0,0,1-.793,1.341c-.52.41-1.094.766-1.642,1.177-1.286.93-2.6,1.888-3.885,2.818s-2.627,1.861-3.913,2.791a3.962,3.962,0,0,1-1.56.848,1.913,1.913,0,0,1-1.532-.629,4.749,4.749,0,0,1-1.423-2.764,2.052,2.052,0,0,1,.9-1.5c.575-.492,1.149-1.012,1.751-1.5,2.408-2,4.925-3.885,7.524-5.636.465-.328.958-.739,1.56-.52a3.968,3.968,0,0,1,1.286.821,4.461,4.461,0,0,1,1.724,2.764.329.329,0,0,0,.657,0,4.461,4.461,0,0,0-1.532-2.846,3.763,3.763,0,0,0-2.627-1.45,4.636,4.636,0,0,0-1.943,1.04c-.711.493-1.45.985-2.162,1.5-1.4,1.012-2.791,2.079-4.132,3.174-.711.575-1.4,1.149-2.079,1.724a5,5,0,0,0-1.478,1.642c-.465,1.094.274,2.435.9,3.311a2.752,2.752,0,0,0,3.064,1.4,7.676,7.676,0,0,0,1.806-1.122c.739-.52,1.45-1.012,2.189-1.532,1.669-1.177,3.311-2.408,4.98-3.584.684-.493,1.423-.93,2.052-1.478a2.23,2.23,0,0,0,.9-1.751C212.164,583.771,211.507,583.771,211.507,584.182Z" transform="translate(-196.066 -579.88)" fill="#fff"/></g></g><g transform="translate(181.672 570.66)"><g transform="translate(0 0)"><path d="M211.475,607.039c-.192-.219-.383-.465-.575-.684a.359.359,0,0,0-.328-.082,1.825,1.825,0,0,0-1.313,1.04.922.922,0,0,0,.629,1.231,2.643,2.643,0,0,0,1.286-.191c.027,0,.137-.027.082-.027h.137c.027,0,.137.027.082,0,.027,0,.027,0,.055.027.055.027-.027-.027.027.027.055.027.109.055.109.137a.231.231,0,0,1,0,.192c-.109.547-.821.575-1.313.6a.329.329,0,0,0,0,.657,2.269,2.269,0,0,0,1.669-.52A1.09,1.09,0,0,0,212.1,608a1.332,1.332,0,0,0-1.313-.192c-.082.027-.192.055-.274.082-.055,0-.109.027-.164.027h-.3c-.027,0-.027,0-.055-.027h0c-.027,0-.027-.027-.055-.055-.109-.137-.027-.383.082-.52a1.971,1.971,0,0,1,.739-.41l-.328-.082c.192.219.383.465.575.684a.329.329,0,0,0,.465-.465Z" transform="translate(-209.206 -606.262)" fill="#fff"/></g></g><g transform="translate(183.953 569.5)"><g transform="translate(0 0)"><path d="M218.518,602.07a3.179,3.179,0,0,0-.575.438c-.192.164-.465.411-.383.684.055.219.3.328.438.493a4.558,4.558,0,0,1,.328.629,2.114,2.114,0,0,0,.465.52c.191.164.438.41.711.356a1.121,1.121,0,0,0,.547-.465,2.925,2.925,0,0,0,.41-.6.335.335,0,0,0-.109-.438.343.343,0,0,0-.438.109,3.246,3.246,0,0,1-.438.629c-.027.027-.137.109-.137.137.027-.055.192.027.164-.027,0,0-.082-.055-.055-.027a1.432,1.432,0,0,1-.3-.274,2.923,2.923,0,0,1-.438-.684c-.082-.137-.164-.246-.246-.383-.055-.055-.082-.109-.137-.164-.027-.027-.055-.027-.055-.055-.027,0-.027-.027-.055-.027-.055-.027-.027,0,.055.109-.027.055-.027.109-.055.164a1.247,1.247,0,0,1,.328-.328,1.944,1.944,0,0,1,.383-.274c.274-.164-.055-.739-.41-.52Z" transform="translate(-217.545 -602.021)" fill="#fff"/></g></g><g transform="translate(184.744 570.105)"><g transform="translate(0 0)"><path d="M221.027,605.648a.724.724,0,0,1,.137-.164c-.027.027-.027.055-.055.055a4.064,4.064,0,0,1,.766-.766c-.027.027-.055.027-.055.055h0c.082-.055.137-.109.137-.192a.366.366,0,0,0-.027-.246c-.055-.082-.109-.137-.192-.137a.257.257,0,0,0-.246.027,4.68,4.68,0,0,0-.547.492c-.164.192-.328.383-.465.575a.257.257,0,0,0-.027.246.35.35,0,0,0,.137.192.387.387,0,0,0,.246.027.289.289,0,0,0,.192-.164Z" transform="translate(-220.434 -604.234)" fill="#fff"/></g></g><g transform="translate(185.726 568.981)"><g transform="translate(0 0)"><path d="M224.128,600.665c.52.575,1.04,1.177,1.532,1.751a.339.339,0,0,0,.465,0,.57.57,0,0,0,.137-.547.329.329,0,0,0-.629.192c.027.055,0-.027,0-.055s.055-.082.027-.027h.465c-.52-.575-1.04-1.177-1.532-1.751a.315.315,0,0,0-.465,0,.284.284,0,0,0,0,.438Z" transform="translate(-224.025 -600.125)" fill="#fff"/></g></g><g transform="translate(185.802 567.869)"><g transform="translate(0)"><path d="M224.628,597.8a3.635,3.635,0,0,1,1.286.465,1.37,1.37,0,0,0,1.368.109.967.967,0,0,0,.438-.547c.082-.328-.219-.492-.438-.657-.41-.328-.848-.657-1.259-1.012a.329.329,0,0,0-.465.465l.821.657c.137.109.246.192.383.3a2.4,2.4,0,0,1,.41.328c-.027-.055-.055-.082-.082-.137q.041-.164,0-.082c-.027.027-.027.055-.027.027-.027.027-.055.082-.082.082a.364.364,0,0,1-.219.082,1.058,1.058,0,0,1-.575-.219,4.378,4.378,0,0,0-1.56-.52c-.164-.027-.328.164-.328.328a.333.333,0,0,0,.328.328Z" transform="translate(-224.3 -596.061)" fill="#fff"/></g></g><g transform="translate(188.463 567.048)"><path d="M234.128,593.619c.274.328.547.657.876.985l.219.219a1.072,1.072,0,0,0,.274.219.457.457,0,0,0,.493-.027.425.425,0,0,0,.164-.219.569.569,0,0,0-.027-.3.319.319,0,0,0-.547.328c0-.109.027-.192.027-.3.027-.027.055-.055.082-.055a.124.124,0,0,1,.137,0c-.055-.027.027,0,0,0a.1.1,0,0,0-.055-.027l-.164-.164-.356-.356c-.219-.246-.438-.492-.657-.766a.339.339,0,0,0-.465,0,.315.315,0,0,0,0,.465Z" transform="translate(-234.025 -593.061)" fill="#fff"/></g><g transform="translate(188.07 566.72)"><g transform="translate(0 0)"><path d="M233.221,593.1a.205.205,0,0,1,.027-.137c0-.027.055-.082.027-.055s0-.027.027-.027l.055-.055.082-.082.027-.027h0a.688.688,0,0,1,.192-.109h0c.027,0,.027,0,.055-.027.027,0,.082-.027.109-.027s.055-.027.082-.027h.192a.644.644,0,0,1,.219.055c-.055-.027.027,0,.027.027.027.027.055.027.082.055l.027.027h0l.082.082.055.055.027.027.027.055c.027.027.027.055.055.082,0,.027.027.027.027.055.027.055-.027-.027,0,0a.508.508,0,0,1,.055.192v.137h0v.055c0,.027-.027.055-.027.082-.027.055,0-.027-.027.027-.027.027-.027.082-.055.109l-.027.027c-.027.055.027-.027,0,0l-.082.082-.027.027c-.027.027-.055.055-.082.055s-.027.027-.055.027c0,0-.055.027-.027.027h-.027c-.027,0-.027,0-.055.027-.027,0-.137.027-.055.027H234.1a.353.353,0,0,0-.328.328.316.316,0,0,0,.328.328,1.369,1.369,0,0,0,1.313-1.669,1.463,1.463,0,0,0-1.915-.985,1.631,1.631,0,0,0-.575.383.977.977,0,0,0-.328.739.353.353,0,0,0,.328.328.273.273,0,0,0,.3-.3Z" transform="translate(-232.589 -591.863)" fill="#fff"/></g></g></g></g></g><path d="M3.262,13.7a.173.173,0,0,1-.107.031A.259.259,0,0,1,3.05,13.7a.544.544,0,0,1-.094-.063c-.028-.023-.054-.047-.074-.066a2.883,2.883,0,0,1-.372-.413.657.657,0,0,1-.132-.307.338.338,0,0,1,.073-.24.993.993,0,0,1,.244-.214,1.125,1.125,0,0,1,.206-.11.863.863,0,0,1,.226-.059.576.576,0,0,1,.224.017.478.478,0,0,1,.2.117.461.461,0,0,1,.127.338,1.263,1.263,0,0,1-.079.419,2.077,2.077,0,0,1-.175.375A.742.742,0,0,1,3.262,13.7ZM1.2,12.661a.12.12,0,0,0-.065.075.377.377,0,0,0,.077.25,3.892,3.892,0,0,0,.449.584c.237.268.574.619,1.051,1.08.362.35.637.6.849.782a3.5,3.5,0,0,0,.466.35.379.379,0,0,0,.216.073.207.207,0,0,0,.1-.05l.541-.366.047-.029a.417.417,0,0,0,.053-.037.1.1,0,0,0,.032-.043A.045.045,0,0,0,5,15.283c-.007-.007-.056-.036-.13-.081s-.174-.106-.282-.174-.224-.145-.331-.223a2.61,2.61,0,0,1-.28-.226.321.321,0,0,1-.094-.182.484.484,0,0,1,.014-.2.67.67,0,0,1,.08-.182.408.408,0,0,1,.106-.118.5.5,0,0,1,.344-.02,2.742,2.742,0,0,1,.526.165,4.378,4.378,0,0,1,.557.278,2.467,2.467,0,0,1,.438.319.067.067,0,0,0,.058.017.224.224,0,0,0,.073-.026.783.783,0,0,0,.077-.048l.07-.049.526-.356c.024-.017.043-.03.058-.042a.112.112,0,0,0,.028-.031.03.03,0,0,0,0-.026.086.086,0,0,0-.021-.028,2.661,2.661,0,0,0-.739-.5,3.707,3.707,0,0,0-.744-.245c-.232-.051-.438-.079-.594-.1a.814.814,0,0,1-.287-.062c-.027-.026-.015-.086.007-.172a2.628,2.628,0,0,0,.075-.32.933.933,0,0,0-.3-.859,1.168,1.168,0,0,0-.3-.209,1.118,1.118,0,0,0-.4-.109,1.359,1.359,0,0,0-.5.059,2.241,2.241,0,0,0-.6.3Zm7.08.574a1.432,1.432,0,0,0,.341-.316.9.9,0,0,0,.171-.363.707.707,0,0,0-.026-.38.951.951,0,0,0-.248-.369c-.008-.007-.027-.024-.053-.045s-.058-.045-.091-.067a.5.5,0,0,0-.1-.052.085.085,0,0,0-.074,0c-.016.011,0,.048.026.106a.769.769,0,0,1,.064.229.546.546,0,0,1-.067.317,1.092,1.092,0,0,1-.366.371,1.015,1.015,0,0,1-.213.106,1.308,1.308,0,0,1-.255.066.833.833,0,0,1-.246,0,.336.336,0,0,1-.184-.081c-.1-.1-.071-.222.016-.368s.232-.312.364-.492a1.418,1.418,0,0,0,.283-.568.643.643,0,0,0-.226-.6,1.091,1.091,0,0,0-.376-.237,1.159,1.159,0,0,0-.421-.071,1.426,1.426,0,0,0-.432.076,1.687,1.687,0,0,0-.407.2,1.182,1.182,0,0,0-.37.391,1.046,1.046,0,0,0-.138.52,1.358,1.358,0,0,0,.154.61,2.449,2.449,0,0,0,.505.661,2.551,2.551,0,0,0,.514.385,2.032,2.032,0,0,0,.59.224,1.63,1.63,0,0,0,.63.007A1.681,1.681,0,0,0,8.281,13.235Zm-2.087-2.08a.6.6,0,0,1,.155-.073.671.671,0,0,1,.182-.031.545.545,0,0,1,.185.026.423.423,0,0,1,.162.1c.049.047.043.128.005.222A1.477,1.477,0,0,1,6.7,11.7c-.078.1-.163.2-.232.279a1.478,1.478,0,0,1-.137.137.119.119,0,0,1-.046.019.116.116,0,0,1-.045,0,.147.147,0,0,1-.042-.016.182.182,0,0,1-.036-.027.683.683,0,0,1-.142-.2.7.7,0,0,1-.066-.253.525.525,0,0,1,.242-.484Zm3.123-.967a.684.684,0,0,1-.215.1.654.654,0,0,1-.224.017.665.665,0,0,1-.215-.058.7.7,0,0,1-.189-.129.552.552,0,0,1-.131-.182.363.363,0,0,1-.028-.183.377.377,0,0,1,.065-.17.55.55,0,0,1,.149-.144.683.683,0,0,1,.2-.093.667.667,0,0,1,.22-.022.655.655,0,0,1,.219.054.693.693,0,0,1,.2.135.552.552,0,0,1,.131.182.363.363,0,0,1,.028.183.377.377,0,0,1-.065.17A.55.55,0,0,1,9.317,10.189Zm-1.154-1.1a1.439,1.439,0,0,0-.362.334.786.786,0,0,0-.153.364.707.707,0,0,0,.058.377,1.173,1.173,0,0,0,.272.372,1.237,1.237,0,0,0,.321.223,1.515,1.515,0,0,0,.307.107c.095.023.18.036.246.049a.305.305,0,0,1,.139.048c.027.026.017.07-.006.129s-.06.132-.085.215a.56.56,0,0,0-.021.277.6.6,0,0,0,.187.315.772.772,0,0,0,.264.167.834.834,0,0,0,.3.052,1.013,1.013,0,0,0,.308-.052,1.174,1.174,0,0,0,.292-.144,1.023,1.023,0,0,0,.12-.1,1.232,1.232,0,0,0,.1-.1c.031-.036.059-.072.086-.109s.053-.074.078-.11.051-.075.077-.111.052-.071.079-.1a1.059,1.059,0,0,1,.086-.093.746.746,0,0,1,.1-.079.442.442,0,0,1,.183-.074.527.527,0,0,1,.158,0c.048.007.092.017.131.02a.152.152,0,0,0,.1-.02c.035-.023.045-.075.04-.14a.92.92,0,0,0-.055-.224,1.731,1.731,0,0,0-.1-.224.639.639,0,0,0-.095-.141.227.227,0,0,0-.156-.048.87.87,0,0,0-.214.03,1.6,1.6,0,0,0-.208.068.826.826,0,0,0-.137.067,1.781,1.781,0,0,0-.284.242,2.963,2.963,0,0,0-.216.255c-.063.082-.119.159-.171.224a.742.742,0,0,1-.149.15.22.22,0,0,1-.07.031.261.261,0,0,1-.078.007.248.248,0,0,1-.076-.017.2.2,0,0,1-.064-.041.137.137,0,0,1-.033-.117.474.474,0,0,1,.056-.166.919.919,0,0,1,.125-.178.934.934,0,0,1,.173-.154,1.249,1.249,0,0,0,.374-.371.772.772,0,0,0,.119-.391.823.823,0,0,0-.085-.375,1.133,1.133,0,0,0-.24-.325,1.416,1.416,0,0,0-.292-.219,1.173,1.173,0,0,0-.244-.1c-.072-.021-.135-.033-.188-.047a.274.274,0,0,1-.122-.057A.113.113,0,0,1,9.1,8.635.438.438,0,0,1,9.216,8.5a1.547,1.547,0,0,0,.131-.115c.032-.035.044-.067.015-.095a.338.338,0,0,0-.12-.047,1.779,1.779,0,0,0-.213-.039A1.463,1.463,0,0,0,8.8,8.2a.323.323,0,0,0-.156.034.187.187,0,0,0-.074.14,1.127,1.127,0,0,0,0,.2.889.889,0,0,1,0,.2.218.218,0,0,1-.09.151l-.015.008-.024.01-.031.013-.038.016-.046.022-.051.026-.055.031Zm4.571,1.042.085-.055a.4.4,0,0,0,.074-.059.1.1,0,0,0,.03-.068.12.12,0,0,0-.045-.081c-.009-.008-.064-.043-.157-.1s-.225-.15-.385-.267-.351-.261-.562-.435-.442-.376-.686-.608c-.105-.1-.19-.187-.259-.261S10.7,8.051,10.658,8l-.119-.144a1.332,1.332,0,0,0-.1-.112.121.121,0,0,0-.032-.025.059.059,0,0,0-.041,0,.3.3,0,0,0-.068.031c-.03.017-.067.041-.115.074l-.254.171a.4.4,0,0,0-.1.068c-.02.027-.018.067.03.144a2.629,2.629,0,0,0,.306.361c.164.172.4.4.73.72s.592.563.781.735a3.834,3.834,0,0,0,.408.339.266.266,0,0,0,.195.066.447.447,0,0,0,.142-.082ZM9.806,7.581a.528.528,0,0,0,.117-.106.338.338,0,0,0,.065-.123.235.235,0,0,0,0-.129.285.285,0,0,0-.08-.125.4.4,0,0,0-.141-.086A.474.474,0,0,0,9.6,6.986a.571.571,0,0,0-.166.026.584.584,0,0,0-.152.072.48.48,0,0,0-.115.107.335.335,0,0,0-.061.127.252.252,0,0,0,0,.133.3.3,0,0,0,.082.126.38.38,0,0,0,.139.085.443.443,0,0,0,.159.023.564.564,0,0,0,.162-.03A.631.631,0,0,0,9.806,7.581Zm4.6,1.51a1.467,1.467,0,0,0,.345-.319.973.973,0,0,0,.181-.373.73.73,0,0,0-.017-.392.916.916,0,0,0-.25-.378,1.1,1.1,0,0,0-.669-.295,2.642,2.642,0,0,0-.736.052c-.241.044-.47.1-.664.121a.555.555,0,0,1-.451-.088.131.131,0,0,1-.043-.094.215.215,0,0,1,.029-.106.474.474,0,0,1,.078-.1.655.655,0,0,1,.1-.086.775.775,0,0,1,.3-.125.79.79,0,0,1,.251,0c.075.01.14.027.194.036a.177.177,0,0,0,.127-.01.172.172,0,0,0,.051-.116.886.886,0,0,0,0-.191,1.149,1.149,0,0,0-.029-.191.268.268,0,0,0-.049-.115A.307.307,0,0,0,13,6.27a1.3,1.3,0,0,0-.295,0,1.757,1.757,0,0,0-.388.086,1.826,1.826,0,0,0-.429.214,1.324,1.324,0,0,0-.311.286.868.868,0,0,0-.164.337.661.661,0,0,0,.018.358.868.868,0,0,0,.234.35,1.02,1.02,0,0,0,.629.283,2.16,2.16,0,0,0,.664-.064c.216-.048.419-.107.594-.13a.491.491,0,0,1,.421.084.3.3,0,0,1,.089.146.26.26,0,0,1-.01.148.43.43,0,0,1-.083.136.659.659,0,0,1-.128.112,1.073,1.073,0,0,1-.488.181,1.272,1.272,0,0,1-.438-.031,1.792,1.792,0,0,1-.319-.112.876.876,0,0,0-.133-.059c-.009.006-.009.029,0,.063a.741.741,0,0,0,.051.128,1.228,1.228,0,0,0,.092.156.957.957,0,0,0,.124.147,1.013,1.013,0,0,0,.383.229,1.228,1.228,0,0,0,.437.058A1.58,1.58,0,0,0,14,9.291,1.7,1.7,0,0,0,14.4,9.092Zm-.638-4.6a.835.835,0,0,0-.115.108,1.877,1.877,0,0,0-.153.19.881.881,0,0,0-.113.207.167.167,0,0,0,.007.161c.028.036.06.075.09.114a.851.851,0,0,1,.078.118.22.22,0,0,1,.03.109.109.109,0,0,1-.053.087.183.183,0,0,1-.029.016l-.029.011-.026.009-.019.009a.539.539,0,0,0-.107.088.157.157,0,0,0-.043.1.236.236,0,0,0,.045.13,1.017,1.017,0,0,0,.157.179l.048.045a.268.268,0,0,0,.043.033.084.084,0,0,0,.041.013A.074.074,0,0,0,13.66,6.2a.111.111,0,0,0,.03-.032c.008-.013.016-.027.024-.042a.314.314,0,0,1,.03-.046.217.217,0,0,1,.049-.045.232.232,0,0,1,.147-.044.276.276,0,0,1,.13.047.725.725,0,0,1,.113.094c.035.034.067.069.1.1s.042.043.075.078l.128.137c.054.057.121.126.2.209s.182.18.3.293c.053.051.15.138.268.238s.257.214.4.318a3.227,3.227,0,0,0,.388.258c.113.061.2.088.247.058a.567.567,0,0,0,.11-.131c.044-.064.091-.143.134-.222a1.866,1.866,0,0,0,.1-.219c.023-.062.032-.108.017-.122a.449.449,0,0,0-.121-.049,2.049,2.049,0,0,1-.279-.121,3.5,3.5,0,0,1-.46-.293,7.1,7.1,0,0,1-.663-.564c-.086-.082-.166-.157-.234-.228a1.205,1.205,0,0,1-.16-.2.261.261,0,0,1-.048-.167.206.206,0,0,1,.1-.14.472.472,0,0,1,.068-.037c.024-.011.049-.021.072-.029l.063-.023a.233.233,0,0,0,.042-.02.065.065,0,0,0,.032-.06.156.156,0,0,0-.028-.073.5.5,0,0,0-.056-.07c-.02-.021-.039-.04-.053-.052-.033-.031-.064-.06-.1-.085a.37.37,0,0,0-.1-.057.2.2,0,0,0-.1-.012.3.3,0,0,0-.12.051.364.364,0,0,0-.041.033l-.037.035L14.4,5a.365.365,0,0,1-.041.033.13.13,0,0,1-.052.021.12.12,0,0,1-.052,0,.19.19,0,0,1-.052-.024.364.364,0,0,1-.052-.042.3.3,0,0,1-.044-.076c-.017-.037-.037-.084-.059-.133s-.045-.1-.07-.143a.459.459,0,0,0-.076-.107.323.323,0,0,0-.048-.039.1.1,0,0,0-.036-.015.056.056,0,0,0-.028,0A.1.1,0,0,0,13.764,4.487Zm4.793,1.791a1.4,1.4,0,0,0,.336-.312.88.88,0,0,0,.166-.358.7.7,0,0,0-.029-.375.951.951,0,0,0-.25-.364c-.008-.007-.027-.024-.053-.044s-.058-.044-.091-.066a.5.5,0,0,0-.1-.052.085.085,0,0,0-.074,0c-.016.011,0,.048.027.1a.761.761,0,0,1,.065.226.533.533,0,0,1-.063.313,1.066,1.066,0,0,1-.36.366,1,1,0,0,1-.21.1,1.3,1.3,0,0,1-.253.065.832.832,0,0,1-.244,0,.338.338,0,0,1-.184-.08c-.1-.1-.073-.219.012-.363s.228-.308.356-.485a1.38,1.38,0,0,0,.276-.561.638.638,0,0,0-.23-.59,1.1,1.1,0,0,0-.376-.234,1.163,1.163,0,0,0-.419-.07,1.419,1.419,0,0,0-.428.075,1.662,1.662,0,0,0-.4.2,1.153,1.153,0,0,0-.364.386,1.02,1.02,0,0,0-.132.513,1.343,1.343,0,0,0,.159.6,2.452,2.452,0,0,0,.508.653,2.568,2.568,0,0,0,.514.38,2.046,2.046,0,0,0,.588.221,1.631,1.631,0,0,0,.626.007A1.659,1.659,0,0,0,18.558,6.279ZM16.465,4.226a.589.589,0,0,1,.153-.072.668.668,0,0,1,.181-.03.547.547,0,0,1,.184.025.426.426,0,0,1,.162.095c.049.047.044.126.007.219a1.438,1.438,0,0,1-.181.3,3.553,3.553,0,0,1-.228.275,1.443,1.443,0,0,1-.135.135.114.114,0,0,1-.09.018.148.148,0,0,1-.042-.016.184.184,0,0,1-.036-.027.683.683,0,0,1-.143-.2.691.691,0,0,1-.068-.25.512.512,0,0,1,.236-.477Zm4.018.656c.013-.009.028-.019.044-.031a.284.284,0,0,0,.043-.04.093.093,0,0,0,.023-.045.055.055,0,0,0-.017-.047,1.007,1.007,0,0,0-.128-.081c-.067-.04-.158-.094-.271-.169s-.248-.17-.4-.293-.329-.271-.522-.453c-.058-.055-.133-.128-.206-.211a1.605,1.605,0,0,1-.2-.269.537.537,0,0,1-.082-.277.288.288,0,0,1,.141-.233.422.422,0,0,1,.214-.079.368.368,0,0,1,.167.032.95.95,0,0,1,.118.065c.031.018.053.029.067.02a.286.286,0,0,0,.09-.109.433.433,0,0,0,.045-.168.464.464,0,0,0-.032-.2.554.554,0,0,0-.139-.2.6.6,0,0,0-.181-.116.708.708,0,0,0-.212-.052.7.7,0,0,0-.216.014.58.58,0,0,0-.194.083.4.4,0,0,0-.079.071.481.481,0,0,0-.057.083.733.733,0,0,0-.041.09c-.012.03-.022.061-.031.091s-.016.061-.023.089-.015.055-.023.08a.324.324,0,0,1-.029.065.148.148,0,0,1-.043.046.141.141,0,0,1-.067.025.148.148,0,0,1-.063-.009.289.289,0,0,1-.058-.029c-.019-.012-.036-.025-.053-.037a.092.092,0,0,0-.108-.015.307.307,0,0,0-.051.032c-.017.012-.034.026-.051.037l-.379.256c-.031.022-.037.052-.012.1a1.058,1.058,0,0,0,.175.207c.094.094.225.217.4.379s.393.365.662.618c.321.3.559.519.739.672a2.623,2.623,0,0,0,.387.289A.224.224,0,0,0,20,5.2a.5.5,0,0,0,.112-.074Z" transform="translate(625.345 555.236)" fill="#fff"/></g></svg>