<svg xmlns="http://www.w3.org/2000/svg" width="144" height="144" viewBox="0 0 144 144"><g transform="translate(-1026 -523)"><path d="M20.695-48.666C32.175-38.045,43.967-27.034,47.559-12.43S46.544,20.448,35.142,30.835,5.466,43.877-11.481,42.627s-32.722-6.4-39.75-16.79C-58.338,15.45-56.776-.325-57.244-16.491c-.547-16.244-3.046-32.878,4.061-43.5s23.741-15.15,37.642-12.339C-1.719-69.518,9.293-59.287,20.695-48.666Z" transform="translate(1098.115 610.146)" fill="#fff6e6"/><g transform="translate(23 -313)"><g transform="translate(1003 836)"><circle cx="72" cy="72" r="72" fill="#fff" opacity="0"/></g><g transform="translate(1019.221 853.432)"><g transform="translate(0 8.508)"><path d="M376.978,471.931c-.188-1.126-.493-2.229-.751-3.356-.023-.023-.047-.07-.07-.094a4.511,4.511,0,0,1-.54-1.549c-.493-2.3-.939-4.623-1.455-6.923a8.221,8.221,0,0,0-1.244-1.924c-.681-3.215-2.37-6.219-5.937-6.641-1.854-.211-3.684.282-5.515.094a13.593,13.593,0,0,1-2.347-.54,11.3,11.3,0,0,0-4.365-2.394,10.836,10.836,0,0,0-4.2-.4,9.8,9.8,0,0,0-6.008,1.948c-3.379,2.37-5.445,6.125-7.087,9.833-2.488,5.656-3.5,11.429-4.248,17.483a46.527,46.527,0,0,0,1.314,18.164c.845,3.074,1.924,6.313,4.694,8.214,3.356,2.323,15.794,2.136,15.043-4.2a6.669,6.669,0,0,0-1.056-2.394c-1.314-2.511-2.84-5.069-4.154-7.721a34.351,34.351,0,0,1-1.831-5.7,26.8,26.8,0,0,1-.868-4.506,6.515,6.515,0,0,1,.657-3.638,7.254,7.254,0,0,1,5.21-4.107,7.033,7.033,0,0,1,4.271.587c1.971,1.009,1.5,2.933,1.525,4.858a4.324,4.324,0,0,0,.188,1.549,1.579,1.579,0,0,0,.141.282,7.9,7.9,0,0,0,1.69,5.867,1.828,1.828,0,0,0-.094.493c.023.023.023.047.047.07a5.116,5.116,0,0,0,1.244,1.408c.164.047.329.117.493.164,2.84.774,5.7-.352,8.261-1.784a19.732,19.732,0,0,0,2.98-2.957,9.417,9.417,0,0,0,2.347-1.784c.727-1.15,1.455-2.3,2.253-3.426C377.448,475.24,377.26,473.574,376.978,471.931Z" transform="translate(-332.847 -409.77)" fill="#fdb933"/><path d="M393.369,291.96a7.477,7.477,0,0,0-5.022-5.632,1.177,1.177,0,0,0-.282-.047c-2.746-1.525-6.571-1.737-9.34-1.643a15.97,15.97,0,0,0-6.571,1.549c-1.385.681-3.661,1.971-4.224,3.591a.762.762,0,0,0-.54.657,2.55,2.55,0,0,0-.023.422.994.994,0,0,0-.094.282,1.764,1.764,0,0,0,.094,1.2,2.7,2.7,0,0,0,.939,1.126h0a3.674,3.674,0,0,0-.8.892.807.807,0,0,0-.61.493,6.961,6.961,0,0,0-.422,3.825,7.591,7.591,0,0,0,1.15,4.295,6.627,6.627,0,0,0,.727,1.924,5.7,5.7,0,0,0,.868,2.347c.211.54.446,1.08.657,1.619v.023a.834.834,0,0,0-.047.235h0a.233.233,0,0,0,.164.282.268.268,0,0,0,.352-.141c.094-.235.164-.446.282-.681a2.527,2.527,0,0,1,.422-.563,3.83,3.83,0,0,1,.469-.4,2.062,2.062,0,0,1,.235-.141c.023-.023.047-.023.07-.047l.141-.07c.023,0,.047-.023.094-.023a.394.394,0,0,0,.329.141c0,.023.023.07.023.094.094.305.657.164.563-.164-.023-.117-.047-.211-.07-.329h0a7.315,7.315,0,0,0-.258-1.244,33.37,33.37,0,0,1,.235-4.6,11.35,11.35,0,0,0,.164-1.267,13.307,13.307,0,0,1,1.807-3.168c.282-.352.868-.868,1.338-1.408l.211-.141a4.578,4.578,0,0,0,.54-.4,2.368,2.368,0,0,0,.305-.375,16.657,16.657,0,0,1,3.1-1.737,9.168,9.168,0,0,0,2.347-.962,23.345,23.345,0,0,1,6.524-.164,6.624,6.624,0,0,0,.681.422.289.289,0,0,0,.188.329,5.083,5.083,0,0,1,1.244.728c.094.094.164.188.258.282.094.141.188.305.282.446a.3.3,0,0,0,.329.117,4.757,4.757,0,0,1,.54.8.373.373,0,0,0,.235.188c.023.282.07.563.117.845a.332.332,0,0,0,.657-.094c-.023-.188-.047-.4-.07-.587-.023-.211-.047-.4-.07-.61a.3.3,0,0,0,.094-.282c-.07-.657-.141-1.338-.188-1.995A.834.834,0,0,0,393.369,291.96Z" transform="translate(-358.507 -284.619)"/></g><g transform="translate(7.581 0)"><g transform="translate(49.722 15.136)"><path d="M577.513,355.139a113.709,113.709,0,0,0,2.347-12.555,101.454,101.454,0,0,0,.8-12.79c0-1.056,0-2.112.023-3.168a19.814,19.814,0,0,0-.094-3.121c-.282-2.042-1.126-3.966-1.408-6.008-.188-1.267-.164-3.027,1.056-3.825,1.314-.868,2.816.375,3.473,1.478a6.292,6.292,0,0,1,.751,2.042c.141.845.047,1.713.141,2.581a3.294,3.294,0,0,0,.915,2.206,2.8,2.8,0,0,0,2.159.446,59.965,59.965,0,0,1,6.149-.329,7.547,7.547,0,0,1,2.6.493,2.612,2.612,0,0,1,1.5,1.408c.4,1.267-1.15,1.713-2.089,1.9a20.929,20.929,0,0,1-4.529.329,25.581,25.581,0,0,0-4.647.094c-.962.188-2.253.681-2.182,1.877.07,1.432,1.6,2.159,2.793,2.488a10.6,10.6,0,0,0,3.332.329,8.085,8.085,0,0,0,3.473-.868,2.793,2.793,0,0,0,1.549-2.722,1.4,1.4,0,0,0-1.126-1.291c-.329-.023-.329.493,0,.516.305.023.493.4.563.657a1.56,1.56,0,0,1,0,.868,2.421,2.421,0,0,1-.868,1.244,6.233,6.233,0,0,1-3.262,1.033,10.018,10.018,0,0,1-3.239-.211,5.264,5.264,0,0,1-1.9-.821,1.647,1.647,0,0,1-.751-1.525,1.439,1.439,0,0,1,1.033-.868,6.183,6.183,0,0,1,1.619-.305c.751-.047,1.525,0,2.3.023,1.079.023,2.159.047,3.239-.023a13.167,13.167,0,0,0,3.591-.54,2.923,2.923,0,0,0,1.361-.821,1.529,1.529,0,0,0,.235-1.572c-.493-1.432-2.206-1.948-3.544-2.136a28.8,28.8,0,0,0-6.031.141c-.516.047-1.056.094-1.572.117a2.659,2.659,0,0,1-1.056-.094c-.8-.329-1.033-1.361-1.1-2.136-.07-.845,0-1.69-.117-2.511a6.981,6.981,0,0,0-.681-2.042,3.746,3.746,0,0,0-3.332-2.253,2.844,2.844,0,0,0-2.323,2.558,6.607,6.607,0,0,0,.047,2.253,24.582,24.582,0,0,0,.681,2.957,21.875,21.875,0,0,1,.727,3.027,20.416,20.416,0,0,1,.07,3.168c-.07,2.112,0,4.2-.07,6.313-.07,2.089-.188,4.2-.4,6.289a108.653,108.653,0,0,1-1.971,12.579c-.211,1.009-.446,1.995-.7,2.98a.245.245,0,1,0,.469.141Z" transform="translate(-577.026 -312.865)"/></g><g transform="translate(58.013 32.084)"><path d="M620.485,385.557c.422.469,1.009,1.22.7,1.877a2.406,2.406,0,0,1-1.6.986,10.314,10.314,0,0,1-2.534.352,12.235,12.235,0,0,1-2.276-.117,2.423,2.423,0,0,1-1.619-.915,1.4,1.4,0,0,1,.3-1.995c.282-.164.023-.634-.258-.446a1.89,1.89,0,0,0-.845,1.831,2.339,2.339,0,0,0,1.314,1.713,6.151,6.151,0,0,0,2.769.446,13.13,13.13,0,0,0,3.027-.305,3.535,3.535,0,0,0,2.112-1.173c.61-.915-.094-1.948-.7-2.652a.283.283,0,0,0-.4.4Z" transform="translate(-612.355 -385.085)"/></g><g transform="translate(47.318 35.446)"><path d="M585.278,399.595a3.113,3.113,0,0,1-.8,1.784,4.631,4.631,0,0,1-1.408.892,6.388,6.388,0,0,0-2.863,1.784,4.858,4.858,0,0,0-.587,2.7c-.047,1.126-.094,2.276-.117,3.4-.047,2.276-.023,4.553-.023,6.829.047,4.529.094,9.059-.188,13.588a65.142,65.142,0,0,1-.751,6.782,19.517,19.517,0,0,1-1.643,5.491,8.879,8.879,0,0,1-3.661,3.943,6.458,6.458,0,0,1-4.928.54,5.8,5.8,0,0,1-1.15-.563c-.282-.188-.54.258-.258.446a6.1,6.1,0,0,0,4.9.681,8.063,8.063,0,0,0,4.388-2.933,13.857,13.857,0,0,0,2.37-5.092,43.275,43.275,0,0,0,1.033-6.477,129.737,129.737,0,0,0,.446-13.846c-.023-2.323-.047-4.67-.023-6.993,0-2.276,0-4.6.211-6.876a2.515,2.515,0,0,1,1.056-1.924,7.172,7.172,0,0,1,1.525-.774,4.5,4.5,0,0,0,2.722-2.159,5.964,5.964,0,0,0,.305-1.056c0-.352-.516-.493-.563-.164Z" transform="translate(-566.781 -399.409)"/></g><g transform="translate(17.089 49.581)"><path d="M468.555,472.256c2.511-.141,5.163.047,7.557-.892,1.1-.422,2.511-1.314,2.441-2.675a1.823,1.823,0,0,0-1.22-1.572,5.519,5.519,0,0,0-2.7-.117,51.581,51.581,0,0,1-5.679.774,6.876,6.876,0,0,1-1.385-.094,1.225,1.225,0,0,1-.821-.469,2.668,2.668,0,0,1-.094-1.549c.07-.61.188-1.22.258-1.854a3.665,3.665,0,0,0-.211-1.737c-.446-1.291-1.572-2.581-3.074-2.417-1.478.164-2.136,1.572-2.276,2.886-.188,1.737.516,3.4.634,5.116a29.293,29.293,0,0,1,0,5.914,24.99,24.99,0,0,1-1.338,5.21,31.017,31.017,0,0,1-4.717,8.871,24.04,24.04,0,0,1-6.876,6.547,11.48,11.48,0,0,1-4.459,1.455,3.9,3.9,0,0,1-2.182-.375,4.659,4.659,0,0,1-1.619-1.478,7.891,7.891,0,0,1-.986-2.229,24.918,24.918,0,0,1-.727-2.675,25.226,25.226,0,0,1-.587-5.632,18.135,18.135,0,0,1,.258-2.769c.047-.329-.446-.469-.516-.141a24.118,24.118,0,0,0,.915,10.889,7.805,7.805,0,0,0,2.253,3.99,4.265,4.265,0,0,0,1.877.915,6.2,6.2,0,0,0,2.276-.094,14.982,14.982,0,0,0,7.791-4.576,34.285,34.285,0,0,0,5.82-7.885,32.114,32.114,0,0,0,1.948-4.529,27.109,27.109,0,0,0,1.338-5.092,27.7,27.7,0,0,0,.07-5.75,16.455,16.455,0,0,0-.352-2.628,13.446,13.446,0,0,1-.352-2.534,3.608,3.608,0,0,1,.681-2.253,1.718,1.718,0,0,1,1.525-.61,2.584,2.584,0,0,1,1.69,1.1,3.769,3.769,0,0,1,.681,1.995,25.507,25.507,0,0,0-.329,3.52,1.436,1.436,0,0,0,.821,1.22,5.661,5.661,0,0,0,2.581.258c1.9-.094,3.731-.61,5.632-.8a3.155,3.155,0,0,1,2.511.446,1.377,1.377,0,0,1-.188,2.042,6.06,6.06,0,0,1-3.309,1.385,27.642,27.642,0,0,1-3.943.328c-.54.023-1.1.023-1.643.07-.305,0-.305.516.023.493Z" transform="translate(-437.97 -459.64)"/></g><g transform="translate(48.648 60.789)"><path d="M579.08,507.94c.258.023.282.681.305.868a1.207,1.207,0,0,1-.352,1.08,5,5,0,0,1-1.995.821,14.2,14.2,0,0,1-4.341.235c-.329-.023-.329.493,0,.516a13.305,13.305,0,0,0,5.351-.493c.8-.282,1.713-.681,1.854-1.619.094-.634.023-1.877-.8-1.948a.27.27,0,1,0-.023.54Z" transform="translate(-572.45 -507.4)"/></g><g transform="translate(5.265 66.386)"><path d="M434.432,531.66c.282.587-.164,1.056-.657,1.361a10.924,10.924,0,0,1-2.206.986,5.481,5.481,0,0,0-1.784.868,5.117,5.117,0,0,0-1.385,2.957c-.117.563-.188,1.126-.305,1.69-.141.634-.352,1.267-.54,1.877a35.328,35.328,0,0,1-1.619,4.412,33.163,33.163,0,0,1-4.694,7.439,27.163,27.163,0,0,1-12.931,8.707,18.142,18.142,0,0,1-7.838.774,9.346,9.346,0,0,1-3.614-1.338,9.605,9.605,0,0,1-2.769-2.98,38.331,38.331,0,0,1-3.755-7.932,42.9,42.9,0,0,1-2.018-8.566c-.094-.727-.164-1.455-.211-2.206-.023-.329-.563-.329-.516,0a42.177,42.177,0,0,0,5.116,17.366,16.2,16.2,0,0,0,2.394,3.5,8.535,8.535,0,0,0,3.285,2.159,14.709,14.709,0,0,0,8,.258,27.023,27.023,0,0,0,13.846-7.838,32.164,32.164,0,0,0,5.163-7.134,33.825,33.825,0,0,0,1.9-4.2q.422-1.162.774-2.323a13.78,13.78,0,0,0,.54-1.924,13.086,13.086,0,0,1,.845-3.426,2.813,2.813,0,0,1,.868-1.079,4.9,4.9,0,0,1,.868-.4c.774-.305,1.572-.563,2.323-.939a2.582,2.582,0,0,0,1.5-1.432,1.432,1.432,0,0,0-.141-.939c-.141-.258-.61,0-.446.305Z" transform="translate(-387.588 -531.249)"/></g><g transform="translate(29.855 51.769)"><path d="M492.425,469.348a26.214,26.214,0,0,1,4.083,8.519c.446,1.525.751,3.074,1.056,4.647a4.856,4.856,0,0,0,1.877,3.426,2.773,2.773,0,0,0,3.591-.282c.211-.258-.164-.634-.375-.375a2.286,2.286,0,0,1-3.027.164c-1.173-.774-1.432-2.276-1.666-3.544a35.238,35.238,0,0,0-2.534-8.425,25.218,25.218,0,0,0-2.581-4.412c-.164-.258-.634.023-.422.282Z" transform="translate(-492.371 -468.964)"/></g><g transform="translate(13.612 32.471)"><path d="M423.187,400.053a8.8,8.8,0,0,0,5.28,4.271,12.64,12.64,0,0,0,8.049-.493,29.5,29.5,0,0,0,3.286-1.5,17.935,17.935,0,0,0,2.793-1.737,8.046,8.046,0,0,0,2.135-2.323,6.488,6.488,0,0,0,.774-3.5c-.117-2.98-1.807-5.7-3.638-7.956-.211-.258-.587.117-.375.375a14.514,14.514,0,0,1,3.379,6.688,6.6,6.6,0,0,1-.329,3.567,6.511,6.511,0,0,1-1.807,2.347,14.628,14.628,0,0,1-2.581,1.737q-1.373.774-2.816,1.408a13.2,13.2,0,0,1-7.815,1.1,8.393,8.393,0,0,1-5.914-4.248c-.117-.329-.587-.047-.422.258Z" transform="translate(-423.153 -386.73)"/></g><g transform="translate(18.773 32.392)"><path d="M458.114,386.585c-.493,1.877-2.488,3.1-4.13,3.849a7.484,7.484,0,0,1-5.726.493,4.734,4.734,0,0,1-2.628-2.182c-.164-.305-.61-.023-.446.258a5.933,5.933,0,0,0,5.7,2.793,9.971,9.971,0,0,0,2.957-.751,11.941,11.941,0,0,0,2.863-1.643,5.479,5.479,0,0,0,1.948-2.7c.07-.305-.446-.446-.54-.117Z" transform="translate(-445.148 -386.397)"/></g><g transform="translate(30.956 29.427)"><path d="M498.5,377.525a4.825,4.825,0,0,0-.986-3.684.265.265,0,0,0-.375.375,4.168,4.168,0,0,1,.868,3.168.288.288,0,0,0,.188.329.253.253,0,0,0,.305-.188Z" transform="translate(-497.061 -373.761)"/></g><g transform="translate(6.177 14.765)"><path d="M414.408,320.558c-.751-2.746-1.877-5.515-4.107-7.392a7.929,7.929,0,0,0-3.426-1.737,9.374,9.374,0,0,0-4.482.329,19.452,19.452,0,0,0-7.017,3.8,10.792,10.792,0,0,0-3.8,6.759c-.446,3.426.681,6.853,1.76,10.068a.268.268,0,0,0,.516-.141,25.816,25.816,0,0,1-1.831-8.589,9.767,9.767,0,0,1,.892-4.083A10.3,10.3,0,0,1,395,316.639a18.154,18.154,0,0,1,6.219-3.919,11.54,11.54,0,0,1,4.341-.939,6.788,6.788,0,0,1,3.708,1.22c2.581,1.76,3.849,4.764,4.647,7.674a.253.253,0,1,0,.493-.117Z" transform="translate(-391.474 -311.285)"/></g><g transform="translate(3.522 30.984)"><path d="M383.807,381.076a1.075,1.075,0,0,0-.962-.681,1.586,1.586,0,0,0-1.22.563,5.919,5.919,0,0,0-1.408,3.027c-.305,1.995.634,4.318,2.722,4.858a3.246,3.246,0,0,0,3-.681c.258-.235-.117-.61-.376-.375a2.857,2.857,0,0,1-4.13-.587,4.567,4.567,0,0,1-.07-4.928,3.546,3.546,0,0,1,.868-1.15c.282-.211.892-.352,1.08.094.117.305.61.188.493-.141Z" transform="translate(-380.16 -380.394)"/></g><g transform="translate(5.159 33.915)"><path d="M387.761,392.959a2.206,2.206,0,0,0,.446,3.426c.305.164.563-.305.258-.446a1.662,1.662,0,0,1-.352-2.581.266.266,0,1,0-.352-.4Z" transform="translate(-387.136 -392.885)"/></g><g transform="translate(0 17.173)"><path d="M369.457,337.8c-.563-1.385-1.15-2.769-1.713-4.177-.54-1.291-1.056-2.581-1.478-3.919a12.042,12.042,0,0,1-.587-4.083c.07-1.1.329-2.7,1.385-3.309a3.643,3.643,0,0,1,2.182-.141l2.488.282c.329.047.329-.493,0-.516-.8-.094-1.6-.188-2.37-.282a5.966,5.966,0,0,0-2.042-.023c-1.267.329-1.784,1.69-2.018,2.863-.563,2.91.54,5.8,1.619,8.448.681,1.666,1.361,3.309,2.042,4.975.117.329.61.188.493-.117Z" transform="translate(-365.151 -321.545)"/></g><g transform="translate(0.907 8.398)"><path d="M371.1,292.894a1.318,1.318,0,0,1-1.291-.7,1.962,1.962,0,0,1-.07-1.737,7.1,7.1,0,0,1,2.3-2.84,13.417,13.417,0,0,1,6.594-2.769,24.576,24.576,0,0,1,8.589.469,17.608,17.608,0,0,1,3.637,1.1,8.3,8.3,0,0,1,2.98,2.065c1.643,1.924,1.408,4.717,1.6,7.087.023.329.563.329.516,0-.188-2.323,0-4.9-1.361-6.923-1.478-2.182-4.295-3.168-6.735-3.708-5.421-1.244-11.8-1.385-16.31,2.394a6.574,6.574,0,0,0-2.488,3.52,2.309,2.309,0,0,0,.4,1.83,1.824,1.824,0,0,0,1.619.774c.352-.07.352-.61.023-.563Z" transform="translate(-369.016 -284.153)"/></g><g transform="translate(6.206 38.905)"><path d="M391.6,414.4a71.68,71.68,0,0,1,.07,8.4c-.023.329.516.329.516,0a71.68,71.68,0,0,0-.07-8.4c-.023-.329-.54-.329-.516,0Z" transform="translate(-391.597 -414.15)"/></g><g transform="translate(23.485 23.745)"><path d="M465.278,350.053c1.784,1.877,3.71.493,5.57.4.361-.023.835.07.863,1.22a2.8,2.8,0,0,1-1.879,2.91,3.1,3.1,0,0,1-1.347.305,4.1,4.1,0,0,1-2.941-1.478c-.123-.141-.18.375-.057.516a4.291,4.291,0,0,0,2.752,1.478,3.515,3.515,0,0,0,2.752-1.033,3.059,3.059,0,0,0,.873-1.83,3.929,3.929,0,0,0-.266-2.323.709.709,0,0,0-.569-.329,2.71,2.71,0,0,0-.75.07c-.522.094-1.044.235-1.566.352a3.109,3.109,0,0,1-3.312-.751c-.142-.094-.247.375-.123.493Z" transform="translate(-461.223 -349.548)"/></g><g transform="translate(18.087 24.342)"><path d="M443.532,352.445a.785.785,0,0,0-.61-.047,1.064,1.064,0,0,0-.493.352.883.883,0,0,0-.023,1.1,1.079,1.079,0,0,0,.962.4,1.008,1.008,0,0,0,.868-.7,1.275,1.275,0,0,0-.282-1.244.281.281,0,0,0-.422.047,3.121,3.121,0,0,0-.493,1.1c-.047.188.141.4.329.329h.047c.047-.023-.023,0-.023,0h.117s-.07-.023-.047,0h.023a.177.177,0,0,1,.094.023.862.862,0,0,0,.422.023c.446-.094.4-.7.305-1.033a.925.925,0,0,0-.821-.7,1.292,1.292,0,0,0-.939.375.828.828,0,0,0-.164,1.056,1.162,1.162,0,0,0,.868.258,3.177,3.177,0,0,0,.469-.047.492.492,0,0,0,.258-.094.674.674,0,0,0,.188-.305.8.8,0,0,0-.164-.681.72.72,0,0,0-.7-.235.967.967,0,0,0-.728,1.2.573.573,0,0,0,1.126,0,.533.533,0,0,0-.117-.422.266.266,0,0,0-.375.376l-.023-.023c.023.023.023.023,0-.023.023.047,0-.07,0,0,0,.047.023-.07,0,0h0l-.047.047c-.047.047.047-.023,0,0-.07.023.023,0-.023,0h0c0-.023-.07.023,0,0l-.047-.023h0c-.047-.047.023.047,0,0,0-.023-.023-.023-.023-.047.023.07,0-.023,0-.023h0v-.141c0-.07-.023.047,0,0,0-.023,0-.047.023-.047,0,0,.023-.07,0-.023l.07-.141.023-.023.047-.047s.07-.047.023-.023c.023-.023.047-.023.047-.047a.082.082,0,0,0,.047-.023c-.047.023,0,0,.023,0a.086.086,0,0,0,.07-.023h.07a.086.086,0,0,1,.07.023c.047,0-.047-.023,0,0l.047.023h0s.047.023.047.047h0s.047.047.023.07h0c0,.023,0,.023.023.047.023.047,0-.07,0,0v.047c0,.047-.023,0,0,0,0,0,0,.047-.023.047h0c-.047.07.023-.023,0,.023-.07.047.023-.023.047-.023H443.6c.094-.023.047,0,.023,0h-.094a1.776,1.776,0,0,1-.352.023h-.164c-.047,0,.07.023.023,0h-.047c-.023,0-.047-.023-.094-.023-.024,0-.047-.023-.07-.023.07,0,.047.023.023,0a.023.023,0,0,1-.023-.023l-.023-.023c.047.023.047.047.023.023l-.023-.023c-.023-.023.047.07,0,.023a.023.023,0,0,0-.023-.023c.047.023.023.07.023.023v-.023c-.023-.047,0,.07,0,.023v-.023l.023-.094s0-.047.023-.047a.023.023,0,0,1-.023.023.023.023,0,0,1,.023-.023c.023-.023.023-.047.047-.07,0-.023.023-.023.023-.047.023-.047-.047.047,0,0l.07-.07c.023-.023.047-.047.07-.047-.047.023-.023.023,0,0,.023,0,.023-.023.047-.023.023-.023.047-.023.07-.047.023,0,.023-.023.047-.023.07-.023-.047,0,0,0a.436.436,0,0,1,.164-.047h.164c.047,0-.07-.023-.023,0a.086.086,0,0,1,.07.023c.023,0,.023,0,.047.023.047.023-.047-.023-.023,0s.047.023.07.047c.047.023-.047-.047,0,0l.023.023.023.023c.047.047-.023-.047,0,0,.023.023.023.047.047.07h0a.237.237,0,0,1,.023.07.255.255,0,0,1,.023.117v.305c0,.047.023-.07,0,0v.047c0,.047.047-.07,0-.023-.023.047,0,0,.023-.023l-.023.023c.023-.023.07-.047.023-.023-.023.023.07-.023.023-.023h-.023c.07-.023.07,0,.023,0h-.094c-.047,0-.094-.023-.141-.023a.765.765,0,0,0-.4,0l.329.329c.023-.094.047-.164.07-.258.023-.047.023-.094.047-.117.023-.094-.023.047.023-.047,0-.023.023-.047.023-.07a2.64,2.64,0,0,1,.282-.493,2.583,2.583,0,0,1-.422.047c.023.023.07.094.047.047a.122.122,0,0,1,.047.094c.023.023.023.047.047.094h0a.082.082,0,0,0,.023.047c0,.023.023.07.023.094h0v.235c0,.023-.023.07-.023.094s0,.023-.023.047c0,0-.023.07,0,.023s0,.023,0,.023c0,.023-.023.023-.023.047s-.023.023-.023.047-.047.047,0,0l-.07.07h0l-.023.023c-.023.023-.047.023-.07.047-.047.023.047,0,0,0-.023,0-.047.023-.07.023l-.094.023H443.2c-.023,0-.047-.023-.07-.023s-.023,0-.047-.023c-.047-.023,0,0,.023,0-.023,0-.07-.023-.07-.047-.023,0-.023-.023-.047-.023h-.023c-.023,0-.047-.047-.07-.07l-.023-.023c-.023-.023.023.047,0,0-.023-.023-.023-.047-.047-.07-.023-.047,0,.023,0,.023a.086.086,0,0,1-.023-.07v-.047c-.023-.07,0,.047,0,0v-.094c0-.047-.023.07,0,0v-.047c0-.023,0-.023.023-.047h0c.024-.023.047-.07.07-.094.023-.047-.023.023,0,0s.023-.047.047-.047l.023-.023.023-.023h0a.122.122,0,0,1,.094-.047c.023,0,.07-.023,0,0a.082.082,0,0,0,.047-.023c.023,0,.047,0,.047-.023.047-.023-.047,0,0,0h.047c.023,0,.141.047.07.023a.265.265,0,0,0,.352-.094c.023-.188,0-.376-.117-.422Z" transform="translate(-442.223 -352.091)"/></g><g transform="translate(25.198 21.666)"><path d="M473.832,341.045a.785.785,0,0,0-.61-.047,1.064,1.064,0,0,0-.493.352.883.883,0,0,0-.023,1.1,1.079,1.079,0,0,0,.962.4,1.008,1.008,0,0,0,.868-.7,1.275,1.275,0,0,0-.282-1.244.281.281,0,0,0-.422.047,3.123,3.123,0,0,0-.493,1.1c-.047.188.141.4.329.329h.047c.047-.023-.023,0-.023,0h.117s-.07-.023-.047,0h.023a.178.178,0,0,1,.094.023.862.862,0,0,0,.422.023c.446-.094.4-.7.305-1.033a.925.925,0,0,0-.821-.7,1.292,1.292,0,0,0-.939.375.828.828,0,0,0-.164,1.056,1.162,1.162,0,0,0,.868.258,3.185,3.185,0,0,0,.469-.047.493.493,0,0,0,.258-.094.674.674,0,0,0,.188-.305.8.8,0,0,0-.164-.681.72.72,0,0,0-.7-.235.967.967,0,0,0-.727,1.2.573.573,0,0,0,1.126,0,.533.533,0,0,0-.117-.422.266.266,0,0,0-.376.375l-.023-.023c.023.023.023.023,0-.023.023.047,0-.07,0,0,0,.047.023-.07,0,0h0l-.047.047c-.047.047.047-.023,0,0-.07.023.023,0-.023,0h0c0-.023-.07.023,0,0l-.047-.023h0c-.047-.047.023.047,0,0,0-.023-.023-.023-.023-.047.023.07,0-.023,0-.023h0v-.141c0-.07-.023.047,0,0,0-.023,0-.047.023-.047,0,0,.023-.07,0-.023l.07-.141.023-.023.047-.047s.07-.047.023-.023c.023-.023.047-.023.047-.047a.082.082,0,0,0,.047-.023c-.047.023,0,0,.023,0a.086.086,0,0,0,.07-.023h.07a.086.086,0,0,1,.07.023c.047,0-.047-.023,0,0l.047.023h0s.047.023.047.047h0s.047.047.023.07h0c0,.023,0,.023.023.047.023.047,0-.07,0,0v.047c0,.047-.023,0,0,0,0,0,0,.047-.023.047h0c-.047.07.023-.023,0,.023-.07.047.023-.023.047-.023H473.9c.094-.023.047,0,.023,0h-.094a1.779,1.779,0,0,1-.352.023h-.164c-.047,0,.07.023.023,0h-.047c-.023,0-.047-.023-.094-.023-.023,0-.047-.023-.07-.023.07,0,.047.023.023,0a.023.023,0,0,1-.023-.023l-.023-.023c.047.023.047.047.023.023l-.023-.023c-.023-.023.047.07,0,.023a.023.023,0,0,0-.023-.023c.047.023.023.07.023.023v-.023c-.023-.047,0,.07,0,.023v-.023l.023-.094s0-.047.023-.047a.023.023,0,0,1-.023.023.023.023,0,0,1,.023-.023c.023-.023.023-.047.047-.07,0-.023.023-.023.023-.047.023-.047-.047.047,0,0l.07-.07c.023-.023.047-.047.07-.047-.047.023-.023.023,0,0,.023,0,.023-.023.047-.023.023-.023.047-.023.07-.047.023,0,.023-.023.047-.023.07-.023-.047,0,0,0a.435.435,0,0,1,.164-.047h.164c.047,0-.07-.023-.023,0a.086.086,0,0,1,.07.023c.023,0,.023,0,.047.023.047.023-.047-.023-.023,0s.047.023.07.047c.047.023-.047-.047,0,0l.023.023.023.023c.047.047-.023-.047,0,0,.023.023.023.047.047.07h0a.237.237,0,0,1,.023.07.255.255,0,0,1,.023.117v.305c0,.047.023-.07,0,0v.047c0,.047.047-.07,0-.023-.023.047,0,0,.023-.023l-.023.023c.023-.023.07-.047.023-.023-.023.023.07-.023.023-.023h-.023c.07-.023.07,0,.023,0h-.094c-.047,0-.094-.023-.141-.023a.764.764,0,0,0-.4,0l.329.329c.023-.094.047-.164.07-.258.023-.047.023-.094.047-.117.023-.094-.023.047.023-.047,0-.023.023-.047.023-.07a2.644,2.644,0,0,1,.282-.493,2.589,2.589,0,0,1-.422.047c.023.023.07.094.047.047a.122.122,0,0,1,.047.094c.023.023.023.047.047.094h0a.082.082,0,0,0,.023.047c0,.023.023.07.023.094h0v.235c0,.023-.023.07-.023.094s0,.023-.023.047c0,0-.023.07,0,.023s0,.023,0,.023c0,.023-.023.023-.023.047s-.023.023-.023.047-.047.047,0,0l-.07.07h0l-.023.023c-.023.023-.047.023-.07.047-.047.023.047,0,0,0-.023,0-.047.023-.07.023l-.094.023H473.5c-.023,0-.047-.023-.07-.023s-.023,0-.047-.023c-.047-.023,0,0,.023,0-.023,0-.07-.023-.07-.047-.023,0-.023-.023-.047-.023h-.023c-.023,0-.047-.047-.07-.07l-.023-.023c-.023-.023.023.047,0,0-.023-.023-.023-.047-.047-.07-.023-.047,0,.023,0,.023a.086.086,0,0,1-.023-.07v-.047c-.023-.07,0,.047,0,0v-.094c0-.047-.023.07,0,0v-.047c0-.023,0-.023.023-.047h0c.023-.023.047-.07.07-.094.023-.047-.023.023,0,0s.023-.047.047-.047l.023-.023.023-.023h0a.122.122,0,0,1,.094-.047c.023,0,.07-.023,0,0a.082.082,0,0,0,.047-.023c.023,0,.047,0,.047-.023.047-.023-.047,0,0,0h.047c.023,0,.141.047.07.023a.265.265,0,0,0,.352-.094c.023-.164,0-.352-.117-.422Z" transform="translate(-472.523 -340.691)"/></g><g transform="translate(60.049 35.901)"><path d="M624.9,403.637a3.393,3.393,0,0,1-2.581-.188,1.489,1.489,0,0,1-.657-1.76.288.288,0,0,0-.188-.329.267.267,0,0,0-.328.188,2.027,2.027,0,0,0,.821,2.3,3.8,3.8,0,0,0,3.074.305.268.268,0,0,0-.141-.516Z" transform="translate(-621.031 -401.348)"/></g><g transform="translate(47.863 64.075)"><path d="M575.767,521.731c.422,1.314-1.713,2.018-2.628,2.253a8.6,8.6,0,0,1-3.708.258c-.328-.047-.469.446-.141.516a9.325,9.325,0,0,0,4.318-.352c1.173-.352,3.192-1.244,2.675-2.816a.268.268,0,0,0-.516.141Z" transform="translate(-569.103 -521.403)"/></g><g transform="translate(19.099 101.665)"><path d="M446.669,684.637a9.931,9.931,0,0,0,10.3-.563,9.432,9.432,0,0,0,2.206-2.112c.211-.282-.258-.54-.446-.258a9.46,9.46,0,0,1-9.105,3.473,8.64,8.64,0,0,1-2.7-.962c-.282-.211-.563.258-.258.422Z" transform="translate(-446.537 -681.581)"/></g><g transform="translate(28.099 103.692)"><path d="M485.148,696.15a11.512,11.512,0,0,0,8.4-3.426,10.1,10.1,0,0,0,1.619-2.112.258.258,0,1,0-.446-.258,10.913,10.913,0,0,1-7.04,5.045,10.017,10.017,0,0,1-2.511.235.259.259,0,1,0-.023.516Z" transform="translate(-484.887 -690.217)"/></g><g transform="translate(82.148)"><path d="M726.23,262.666c1.478-.258,1.056-2.018.774-3.051a12.077,12.077,0,0,0-1.15-2.793,21.71,21.71,0,0,0-4.811-6.1,16.243,16.243,0,0,0-1.619-1.22,7.6,7.6,0,0,0-1.995-1.009,1.971,1.971,0,0,0-1.1-.07,1.691,1.691,0,0,0-.657.563,2.489,2.489,0,0,0-.469,1.572,8.478,8.478,0,0,0,1.15,3.661,19.086,19.086,0,0,0,2.253,3.52,17.308,17.308,0,0,0,3.379,3.168,14.648,14.648,0,0,0,1.948,1.15c.328.164.681.305,1.009.446a2.275,2.275,0,0,0,1.291.164c.329-.047.188-.563-.141-.516a3.5,3.5,0,0,1-1.948-.587,17.194,17.194,0,0,1-1.572-.915,16.6,16.6,0,0,1-2.84-2.441,16.961,16.961,0,0,1-2.253-3.074,13.862,13.862,0,0,1-1.525-3.4,4.076,4.076,0,0,1-.164-1.6c.047-.422.3-1.056.751-1.2a1.949,1.949,0,0,1,1.033.141,6.625,6.625,0,0,1,1.079.54,11.592,11.592,0,0,1,1.525,1.033,20.165,20.165,0,0,1,4.694,5.468,14.074,14.074,0,0,1,1.385,2.793,9.488,9.488,0,0,1,.493,1.948,2.149,2.149,0,0,1-.047.868.668.668,0,0,1-.61.422C725.76,262.22,725.9,262.713,726.23,262.666Z" transform="translate(-715.2 -248.367)"/></g><g transform="translate(79.894 0.354)"><path d="M708.412,249.926a7.868,7.868,0,0,0-1.807,1.83,6.844,6.844,0,0,0-.681,1.126,2.25,2.25,0,0,0-.329.939,4.04,4.04,0,0,0,.516,1.713c.258.587.54,1.2.845,1.784a18.169,18.169,0,0,0,3.238,4.647,25.967,25.967,0,0,0,4.318,3.52,2.475,2.475,0,0,0,1.1.563,1.445,1.445,0,0,0,.54-.164c.235-.094.469-.188.7-.305a10.885,10.885,0,0,0,2.581-1.807.266.266,0,0,0-.375-.375A10.221,10.221,0,0,1,717,264.922a8.963,8.963,0,0,1-1.2.54c-.282.117-.563-.117-.8-.282a25.153,25.153,0,0,1-4.036-3.192,18.435,18.435,0,0,1-3.121-4.107c-.352-.634-.634-1.291-.939-1.924a9.835,9.835,0,0,1-.681-1.619,1.056,1.056,0,0,1-.047-.657,6.9,6.9,0,0,1,.634-1.244,7.411,7.411,0,0,1,1.9-2.018c.235-.235-.023-.7-.305-.493Z" transform="translate(-705.594 -249.873)"/></g><g transform="translate(80.321 3.471)"><path d="M707.9,265.422c.446-.634.915-1.267,1.385-1.877a.241.241,0,0,0-.094-.352.259.259,0,0,0-.352.094c-.469.634-.939,1.244-1.385,1.877a.241.241,0,0,0,.094.352.245.245,0,0,0,.352-.094Z" transform="translate(-707.415 -263.159)"/></g><g transform="translate(81.223 5.115)"><path d="M711.738,272.447a6.864,6.864,0,0,1,1.455-1.83.265.265,0,0,0-.375-.375,6.743,6.743,0,0,0-1.525,1.924.265.265,0,0,0,.094.352.242.242,0,0,0,.352-.07Z" transform="translate(-711.259 -270.161)"/></g><g transform="translate(82.138 6.978)"><path d="M715.638,280.212a6.065,6.065,0,0,1,1.338-1.666.262.262,0,0,0,0-.375.285.285,0,0,0-.376,0,6.483,6.483,0,0,0-1.408,1.784.265.265,0,0,0,.094.352.249.249,0,0,0,.352-.094Z" transform="translate(-715.159 -278.1)"/></g><g transform="translate(83.453 8.776)"><path d="M721.238,287.859a13.849,13.849,0,0,1,1.173-1.643.265.265,0,0,0-.375-.375,10.343,10.343,0,0,0-1.244,1.76.259.259,0,0,0,.094.352.265.265,0,0,0,.352-.094Z" transform="translate(-720.759 -285.761)"/></g><g transform="translate(85.395 11.873)"><path d="M729.543,300.329c.235-.329.493-.634.728-.962a.221.221,0,0,0,.023-.211.42.42,0,0,0-.117-.164.331.331,0,0,0-.211-.023.421.421,0,0,0-.164.117c-.235.329-.493.634-.727.962a.221.221,0,0,0-.023.211.42.42,0,0,0,.117.164.331.331,0,0,0,.211.023.42.42,0,0,0,.164-.117Z" transform="translate(-729.034 -298.959)"/></g><g transform="translate(86.724 11.108)"><path d="M735.146,296.381c.07-.07.117-.141.188-.211a.122.122,0,0,0,.047-.094.141.141,0,0,0,.023-.094c0-.047,0-.07-.023-.094a.178.178,0,0,0-.047-.094c-.023-.023-.047-.023-.047-.047a.333.333,0,0,0-.141-.047h-.07c-.047.023-.094.023-.117.07-.07.07-.117.141-.188.211a.122.122,0,0,0-.047.094.141.141,0,0,0-.023.094c0,.047,0,.07.023.094a.178.178,0,0,0,.047.094c.023.023.047.023.047.047a.334.334,0,0,0,.141.047h.07a.129.129,0,0,0,.117-.07Z" transform="translate(-734.7 -295.7)"/></g><g transform="translate(87.043 12.422)"><path d="M736.538,303.412a11.251,11.251,0,0,1,1.338-1.666.266.266,0,0,0-.375-.375,12.857,12.857,0,0,0-1.408,1.76.265.265,0,0,0,.094.352.239.239,0,0,0,.352-.07Z" transform="translate(-736.059 -301.3)"/></g><g transform="translate(84.556 10.817)"><path d="M725.938,295.808c.047-.07.117-.164.164-.235a.414.414,0,0,1,.094-.117c.023-.023.023-.047.047-.047.023-.023-.023.047,0,0a.082.082,0,0,0,.023-.047c.117-.164.258-.305.375-.446a.266.266,0,0,0-.375-.375q-.422.493-.774.986a.259.259,0,0,0,.094.352.235.235,0,0,0,.352-.07Z" transform="translate(-725.459 -294.461)"/></g><g transform="translate(88.653 13.686)"><path d="M743.312,308.776a11.084,11.084,0,0,0,2.112-1.643c.235-.235-.141-.61-.375-.375a10.7,10.7,0,0,1-1.995,1.572.258.258,0,1,0,.258.446Z" transform="translate(-742.917 -306.683)"/></g><g transform="translate(86.128 4.254)"><path d="M734.186,266.917a1.105,1.105,0,0,0-1.525-.211,1.6,1.6,0,0,0,.235,2.488,1.624,1.624,0,0,0,1.1.094,1.833,1.833,0,0,1,1.1.211,1.467,1.467,0,0,1,.774.681.865.865,0,0,1-.235.962,1.054,1.054,0,0,1-1.08.117c-.3-.117-.446.375-.141.516a1.521,1.521,0,0,0,1.737-.422,1.375,1.375,0,0,0,0-1.713,2.694,2.694,0,0,0-1.877-.892c-.352,0-.774.188-1.1.023a1.078,1.078,0,0,1-.493-.774.779.779,0,0,1,.3-.868.568.568,0,0,1,.728.07c.211.258.681-.023.469-.282Z" transform="translate(-732.158 -266.492)"/></g><g transform="translate(86.005 3.945)"><path d="M731.7,265.65a56.226,56.226,0,0,0,4.435,5c.235.235.61-.141.375-.375a52.749,52.749,0,0,1-4.435-5c-.211-.282-.587.094-.375.375Z" transform="translate(-731.634 -265.175)"/></g><g transform="translate(75.785 6.145)"><path d="M688.091,274.8a15.317,15.317,0,0,0,2.628,6.993c.188.282.657.023.446-.258a14.87,14.87,0,0,1-2.558-6.735c-.023-.329-.563-.329-.516,0Z" transform="translate(-688.088 -274.55)"/></g><g transform="translate(64.295 9.183)"><path d="M639.142,287.8a7.013,7.013,0,0,0,6.078,4.341c.329.023.329-.516,0-.516a6.464,6.464,0,0,1-5.562-3.943c-.141-.329-.634-.188-.516.117Z" transform="translate(-639.124 -287.497)"/></g><g transform="translate(63.498 15.2)"><path d="M635.817,313.6a4.475,4.475,0,0,0,4.67,1.08c.329-.117.188-.634-.141-.516a3.957,3.957,0,0,1-4.154-.962c-.258-.211-.634.164-.375.4Z" transform="translate(-635.73 -313.135)"/></g><g transform="translate(63.002 21.179)"><path d="M633.752,339.128a3.121,3.121,0,0,0,2.933.4.267.267,0,0,0,.188-.329.275.275,0,0,0-.329-.188,2.6,2.6,0,0,1-2.534-.352.241.241,0,0,0-.352.094.271.271,0,0,0,.094.375Z" transform="translate(-633.615 -338.615)"/></g><g transform="translate(71.237 5.578)"><path d="M668.751,272.387a8.141,8.141,0,0,0,1.831,6.031c.211.258.587-.117.375-.375a7.632,7.632,0,0,1-1.69-5.679c.047-.305-.469-.305-.516.023Z" transform="translate(-668.706 -272.137)"/></g><g transform="translate(79.696 9.729)"><path d="M704.763,290.147a6.033,6.033,0,0,0,2.933,3.708c.305.164.563-.305.258-.446a5.552,5.552,0,0,1-2.7-3.379.253.253,0,1,0-.493.117Z" transform="translate(-704.752 -289.824)"/></g></g></g></g></g></svg>