<svg xmlns="http://www.w3.org/2000/svg" viewBox="0 0 144 144">
  <path fill="#fff6e6" d="M92.8 38.5C104.3 49 116.1 60 119.7 74.7s-1 32.9-12.4 43.3-29.7 13-46.7 11.8S28 123.4 21 113c-7.1-10.4-5.6-26.2-6-42.3-.6-16.3-3-33 4-43.5S42.7 12 56.6 14.8c13.8 2.8 24.8 13 36.2 23.7Z"/>
  <path fill="#fdb933" d="m60.4 88.1-.8-3.4A4.5 4.5 0 0 1 59 83l-1.5-7a8.2 8.2 0 0 0-1.2-1.8c-.7-3.3-2.4-6.3-6-6.7-1.8-.2-3.6.3-5.5.1a13.6 13.6 0 0 1-2.3-.5 11.3 11.3 0 0 0-4.4-2.4 10.8 10.8 0 0 0-4.2-.4 9.8 9.8 0 0 0-6 2 22.8 22.8 0 0 0-7 9.8 60.8 60.8 0 0 0-4.3 17.4 46.5 46.5 0 0 0 1.3 18.2c.8 3 2 6.3 4.7 8.2 3.3 2.3 15.8 2.2 15-4.2a6.7 6.7 0 0 0-1-2.4c-1.3-2.5-2.9-5-4.2-7.7a34.4 34.4 0 0 1-1.8-5.7 26.8 26.8 0 0 1-.9-4.5 6.5 6.5 0 0 1 .7-3.6 7.3 7.3 0 0 1 5.2-4.2 7 7 0 0 1 4.3.6c2 1 1.5 3 1.5 4.9a4.3 4.3 0 0 0 .2 1.5 1.6 1.6 0 0 0 .1.3 7.9 7.9 0 0 0 1.7 5.9 1.8 1.8 0 0 0 0 .5 5.1 5.1 0 0 0 1.2 1.5l.5.1c2.8.8 5.7-.3 8.3-1.8a19.7 19.7 0 0 0 3-3 9.4 9.4 0 0 0 2.3-1.7l2.2-3.4c0-1.7-.3-3.4-.5-5Z"/>
  <path d="M51 33.3a7.5 7.5 0 0 0-5-5.7 1.2 1.2 0 0 0-.2 0 19 19 0 0 0-9.4-1.6 16 16 0 0 0-6.5 1.5c-1.4.7-3.7 2-4.3 3.6a.8.8 0 0 0-.5.7 2.5 2.5 0 0 0 0 .4 1 1 0 0 0-.1.3 1.8 1.8 0 0 0 0 1.2 2.7 2.7 0 0 0 1 1 3.7 3.7 0 0 0-.8 1 .8.8 0 0 0-.6.5 7 7 0 0 0-.4 3.8 7.6 7.6 0 0 0 1.1 4.3 6.6 6.6 0 0 0 .8 2 5.7 5.7 0 0 0 .8 2.3l.7 1.6a.8.8 0 0 0 0 .2.2.2 0 0 0 .1.3.3.3 0 0 0 .4-.1l.2-.7a2.5 2.5 0 0 1 .5-.6 3.8 3.8 0 0 1 .4-.4 2 2 0 0 1 .3-.1l.2-.1a.4.4 0 0 0 .4.1c.1.4.7.3.6 0v-.4a7.3 7.3 0 0 0-.3-1.2 33.4 33.4 0 0 1 .2-4.6 11.3 11.3 0 0 0 .2-1.3 13.3 13.3 0 0 1 1.8-3.2l1.3-1.4.2-.1a4.6 4.6 0 0 0 .6-.4 2.4 2.4 0 0 0 .3-.4 16.7 16.7 0 0 1 3-1.7 9.2 9.2 0 0 0 2.4-1 23.3 23.3 0 0 1 6.5-.2 6.6 6.6 0 0 0 .7.5.3.3 0 0 0 .2.3 5 5 0 0 1 1.2.7l.3.3.3.4a.3.3 0 0 0 .3.2 4.8 4.8 0 0 1 .6.8.4.4 0 0 0 .2.1l.1.9a.3.3 0 0 0 .7-.1l-.1-.6v-.6a.3.3 0 0 0 0-.3l-.2-2a.8.8 0 0 0-.1-.2Z"/>
  <g>
    <path d="M74 74.8a113.7 113.7 0 0 0 2.4-12.5 101.5 101.5 0 0 0 .8-12.8v-3.2a19.8 19.8 0 0 0-.1-3c-.3-2.1-1.1-4-1.4-6.1-.2-1.3-.2-3 1-3.8 1.3-.9 2.9.3 3.5 1.5a6.3 6.3 0 0 1 .8 2l.1 2.6a3.3 3.3 0 0 0 1 2.2 2.8 2.8 0 0 0 2 .4 60 60 0 0 1 6.2-.3 7.5 7.5 0 0 1 2.6.5 2.6 2.6 0 0 1 1.5 1.4c.4 1.3-1.1 1.7-2 1.9a21 21 0 0 1-4.6.3 25.6 25.6 0 0 0-4.6.1c-1 .2-2.3.7-2.2 1.9 0 1.4 1.6 2.2 2.8 2.5a10.6 10.6 0 0 0 3.3.3 8 8 0 0 0 3.5-.9 2.8 2.8 0 0 0 1.5-2.7 1.4 1.4 0 0 0-1.1-1.3c-.3 0-.3.5 0 .6.3 0 .5.4.6.6a1.6 1.6 0 0 1 0 .9 2.4 2.4 0 0 1-1 1.2 6.2 6.2 0 0 1-3.2 1 10 10 0 0 1-3.2-.2 5.3 5.3 0 0 1-2-.8 1.6 1.6 0 0 1-.7-1.5 1.4 1.4 0 0 1 1-.9 6.2 6.2 0 0 1 1.7-.3h5.5a13.2 13.2 0 0 0 3.6-.5 3 3 0 0 0 1.4-.8 1.5 1.5 0 0 0 .2-1.6c-.5-1.4-2.2-2-3.5-2.1a28.8 28.8 0 0 0-6 .1l-1.6.1a2.7 2.7 0 0 1-1 0c-.9-.4-1.1-1.4-1.2-2.2l-.1-2.5a7 7 0 0 0-.7-2 3.7 3.7 0 0 0-3.3-2.3 2.8 2.8 0 0 0-2.3 2.5 6.6 6.6 0 0 0 0 2.3 24.6 24.6 0 0 0 .7 3 21.9 21.9 0 0 1 .7 3 20.4 20.4 0 0 1 0 3.1V53c0 2-.2 4.2-.4 6.2a108.7 108.7 0 0 1-2 12.6l-.7 3a.2.2 0 1 0 .5.1Z"/>
    <path d="M90 50c.4.5 1 1.2.6 1.9a2.4 2.4 0 0 1-1.6 1 10.3 10.3 0 0 1-2.5.3 12.2 12.2 0 0 1-2.3-.1 2.4 2.4 0 0 1-1.6-1 1.4 1.4 0 0 1 .3-2c.3 0 0-.6-.2-.4a1.9 1.9 0 0 0-.9 1.9 2.3 2.3 0 0 0 1.3 1.7 6.2 6.2 0 0 0 2.8.4 13.1 13.1 0 0 0 3-.3 3.5 3.5 0 0 0 2.1-1.2c.6-.9 0-2-.7-2.6a.3.3 0 0 0-.4.4Z"/>
    <path d="M89.6 53a3.1 3.1 0 0 1-.8 1.8 4.6 4.6 0 0 1-1.4 1 6.4 6.4 0 0 0-2.9 1.7 4.9 4.9 0 0 0-.5 2.7l-.2 3.4v6.9c0 4.5.1 9-.2 13.5a65.1 65.1 0 0 1-.7 6.8 19.5 19.5 0 0 1-1.7 5.5 8.9 8.9 0 0 1-3.6 4 6.5 6.5 0 0 1-5 .5 5.8 5.8 0 0 1-1.1-.6c-.3-.2-.5.3-.3.5a6.1 6.1 0 0 0 5 .7 8 8 0 0 0 4.3-3 13.9 13.9 0 0 0 2.4-5 43.3 43.3 0 0 0 1-6.5 129.7 129.7 0 0 0 .5-13.9v-7c0-2.3 0-4.6.2-6.9a2.5 2.5 0 0 1 1-1.9 7.2 7.2 0 0 1 1.5-.8 4.5 4.5 0 0 0 2.8-2.1 6 6 0 0 0 .3-1c0-.4-.5-.6-.6-.2Z"/>
    <path d="M71.5 79.6c2.5-.1 5.1 0 7.5-.9 1.1-.4 2.5-1.3 2.5-2.6a1.8 1.8 0 0 0-1.2-1.6 5.5 5.5 0 0 0-2.7-.1 51.6 51.6 0 0 1-5.7.7 6.9 6.9 0 0 1-1.4 0 1.2 1.2 0 0 1-.8-.5 2.7 2.7 0 0 1-.1-1.6l.2-1.8a3.7 3.7 0 0 0-.2-1.8c-.4-1.2-1.5-2.5-3-2.4-1.5.2-2.2 1.6-2.3 3-.2 1.7.5 3.3.6 5a29.3 29.3 0 0 1 0 6 25 25 0 0 1-1.3 5.2 31 31 0 0 1-4.7 8.8 24 24 0 0 1-7 6.6 11.5 11.5 0 0 1-4.4 1.4 3.9 3.9 0 0 1-2.2-.3 4.7 4.7 0 0 1-1.6-1.5 7.9 7.9 0 0 1-1-2.3 25 25 0 0 1-.7-2.6 25.2 25.2 0 0 1-.6-5.7 18.1 18.1 0 0 1 .3-2.7c0-.4-.5-.5-.5-.2a24.1 24.1 0 0 0 .9 11 7.8 7.8 0 0 0 2.2 4 4.3 4.3 0 0 0 1.9.8 6.2 6.2 0 0 0 2.3 0 15 15 0 0 0 7.8-4.6 34.3 34.3 0 0 0 5.8-8 32.1 32.1 0 0 0 2-4.5 27.1 27.1 0 0 0 1.3-5 27.7 27.7 0 0 0 0-5.8 16.5 16.5 0 0 0-.3-2.6 13.4 13.4 0 0 1-.4-2.6 3.6 3.6 0 0 1 .7-2.2 1.7 1.7 0 0 1 1.5-.6 2.6 2.6 0 0 1 1.7 1 3.8 3.8 0 0 1 .7 2 25.5 25.5 0 0 0-.3 3.6 1.4 1.4 0 0 0 .8 1.2 5.7 5.7 0 0 0 2.6.3c1.9-.1 3.7-.6 5.6-.8a3.2 3.2 0 0 1 2.5.4 1.4 1.4 0 0 1-.2 2 6 6 0 0 1-3.3 1.4 27.6 27.6 0 0 1-4 .4h-1.5c-.4 0-.4.6 0 .5Z"/>
    <path d="M79 78.8c.3 0 .4.6.4.8a1.2 1.2 0 0 1-.4 1.1 5 5 0 0 1-2 .8 14.2 14.2 0 0 1-4.3.3c-.3 0-.3.5 0 .5a13.3 13.3 0 0 0 5.3-.5c.8-.3 1.8-.7 1.9-1.6.1-.7 0-2-.8-2a.3.3 0 1 0 0 .6ZM76 84.2c.2.6-.3 1-.7 1.4a11 11 0 0 1-2.3 1 5.5 5.5 0 0 0-1.7.8 5.1 5.1 0 0 0-1.4 3l-.3 1.7L69 94a35.3 35.3 0 0 1-1.6 4.4 33.2 33.2 0 0 1-4.7 7.4 27.2 27.2 0 0 1-13 8.7 18.1 18.1 0 0 1-7.7.8 9.3 9.3 0 0 1-3.7-1.3 9.6 9.6 0 0 1-2.7-3 38.3 38.3 0 0 1-3.8-8 42.9 42.9 0 0 1-2-8.5l-.2-2.2c0-.4-.6-.4-.5 0a42.2 42.2 0 0 0 5 17.3 16.2 16.2 0 0 0 2.5 3.5 8.5 8.5 0 0 0 3.3 2.2 14.7 14.7 0 0 0 8 .3 27 27 0 0 0 13.8-7.9 32.2 32.2 0 0 0 5.2-7.1 33.8 33.8 0 0 0 1.9-4.2l.7-2.3a13.8 13.8 0 0 0 .6-2 13 13 0 0 1 .8-3.4 2.8 2.8 0 0 1 .9-1 4.9 4.9 0 0 1 .9-.5l2.3-.9a2.6 2.6 0 0 0 1.5-1.4 1.4 1.4 0 0 0-.2-1c0-.2-.6 0-.4.3Z"/>
    <path d="M53.7 69.6a26.2 26.2 0 0 1 4 8.5c.5 1.5.8 3 1.2 4.7a4.9 4.9 0 0 0 1.8 3.4 2.8 2.8 0 0 0 3.6-.3c.2-.3-.1-.6-.4-.4a2.3 2.3 0 0 1-3 .2c-1.2-.8-1.4-2.3-1.6-3.6a35.2 35.2 0 0 0-2.6-8.4 25.2 25.2 0 0 0-2.6-4.4c-.1-.3-.6 0-.4.3ZM37.4 63.2a8.8 8.8 0 0 0 5.3 4.3 12.6 12.6 0 0 0 8-.5 29.5 29.5 0 0 0 3.4-1.5 18 18 0 0 0 2.8-1.7 8 8 0 0 0 2-2.4 6.5 6.5 0 0 0 .9-3.5 14 14 0 0 0-3.7-8c-.2-.2-.6.2-.3.5A14.5 14.5 0 0 1 59 57a6.6 6.6 0 0 1-.3 3.5A6.5 6.5 0 0 1 57 63a14.6 14.6 0 0 1-2.6 1.7l-2.8 1.4a13.2 13.2 0 0 1-7.8 1.1 8.4 8.4 0 0 1-6-4.2c0-.4-.5 0-.4.2Z"/>
    <path d="M55.5 50c-.5 1.9-2.4 3.1-4 3.9a7.5 7.5 0 0 1-5.8.5 4.7 4.7 0 0 1-2.6-2.2c-.2-.3-.7 0-.5.2a6 6 0 0 0 5.7 2.8 10 10 0 0 0 3-.7 12 12 0 0 0 2.8-1.7 5.5 5.5 0 0 0 2-2.7c0-.3-.5-.4-.6 0Z"/>
    <path d="M56.2 50.6a4.8 4.8 0 0 0-1-3.7.3.3 0 0 0-.4.4 4.2 4.2 0 0 1 .9 3.2.3.3 0 0 0 .2.3.3.3 0 0 0 .3-.2ZM53 41.5c-.8-2.8-2-5.5-4.2-7.4a8 8 0 0 0-3.4-1.8 9.4 9.4 0 0 0-4.5.4 19.5 19.5 0 0 0-7 3.8 10.8 10.8 0 0 0-3.8 6.7 23 23 0 0 0 1.7 10.1.3.3 0 0 0 .6-.1 25.8 25.8 0 0 1-1.9-8.6 9.8 9.8 0 0 1 1-4.1 10.3 10.3 0 0 1 2-3 18.2 18.2 0 0 1 6.2-3.9 11.5 11.5 0 0 1 4.4-1 6.8 6.8 0 0 1 3.7 1.3c2.6 1.8 3.8 4.8 4.6 7.7a.3.3 0 1 0 .5-.1Z"/>
    <path d="M31 49.1a1 1 0 0 0-1-.7 1.6 1.6 0 0 0-1.2.6 6 6 0 0 0-1.4 3C27 54 28 56.3 30 57a3.2 3.2 0 0 0 3-.7c.3-.3-.1-.6-.4-.4a2.9 2.9 0 0 1-4.1-.6 4.6 4.6 0 0 1 0-5 3.5 3.5 0 0 1 .8-1c.3-.3.9-.4 1 0 .2.3.7.2.6-.1Z"/>
    <path d="M29.6 51.4a2.2 2.2 0 0 0 .4 3.4c.3.2.6-.3.3-.4a1.7 1.7 0 0 1-.4-2.6.3.3 0 1 0-.3-.4ZM28.1 50.9l-1.7-4.2a46 46 0 0 1-1.5-4 12 12 0 0 1-.6-4c.1-1.1.4-2.7 1.4-3.3a3.6 3.6 0 0 1 2.2-.2l2.5.3c.3 0 .3-.5 0-.5l-2.4-.3a6 6 0 0 0-2 0c-1.3.3-1.8 1.7-2 2.9-.6 2.9.5 5.8 1.6 8.4l2 5c.1.3.6.2.5-.1Z"/>
    <path d="M26.8 34.6a1.3 1.3 0 0 1-1.3-.7 2 2 0 0 1 0-1.8 7.1 7.1 0 0 1 2.2-2.8 13.4 13.4 0 0 1 6.6-2.8 24.6 24.6 0 0 1 8.6.5 17.6 17.6 0 0 1 3.7 1 8.3 8.3 0 0 1 3 2.2c1.6 1.9 1.3 4.7 1.5 7 0 .4.6.4.5 0-.1-2.3 0-4.9-1.3-6.9-1.5-2.2-4.3-3.1-6.7-3.7-5.5-1.2-11.8-1.4-16.4 2.4a6.6 6.6 0 0 0-2.4 3.5 2.3 2.3 0 0 0 .4 1.9 1.8 1.8 0 0 0 1.6.7c.3 0 .3-.6 0-.5ZM30 56.6a71.7 71.7 0 0 1 0 8.4c0 .3.6.3.6 0a71.7 71.7 0 0 0 0-8.4c-.1-.3-.6-.3-.6 0ZM51.3 41.7c1.8 1.9 3.8.5 5.6.4.4 0 .8 0 .9 1.2a2.8 2.8 0 0 1-1.9 3 3.1 3.1 0 0 1-1.4.2 4.1 4.1 0 0 1-2.9-1.5c-.1-.1-.2.4 0 .6a4.3 4.3 0 0 0 2.7 1.4 3.5 3.5 0 0 0 2.8-1 3 3 0 0 0 .8-1.8 4 4 0 0 0-.2-2.4.7.7 0 0 0-.6-.3 2.7 2.7 0 0 0-.8 0l-1.5.4a3.1 3.1 0 0 1-3.3-.7c-.2-.1-.3.4-.2.5ZM43.2 42.1a.8.8 0 0 0-.6 0 1 1 0 0 0-.5.3.9.9 0 0 0 0 1.1 1 1 0 0 0 1 .4 1 1 0 0 0 .8-.7 1.3 1.3 0 0 0-.3-1.2.3.3 0 0 0-.4 0 3.1 3.1 0 0 0-.5 1.1c0 .2.1.4.3.4.1 0 0 0 0 0h.2a.9.9 0 0 0 .5 0c.4 0 .4-.7.3-1a1 1 0 0 0-.8-.7 1.3 1.3 0 0 0-1 .4.8.8 0 0 0-.2 1 1.2 1.2 0 0 0 1 .3 3.2 3.2 0 0 0 .4 0 .5.5 0 0 0 .2-.2.7.7 0 0 0 .2-.3.8.8 0 0 0-.1-.7.7.7 0 0 0-.7-.2 1 1 0 0 0-.8 1.2.6.6 0 0 0 1.2 0 .5.5 0 0 0-.2-.4.3.3 0 0 0-.3.4s0-.2 0 0c0 0 0-.2 0 0h-.1c-.1-.1 0 0 0 0V43s-.1 0 0 0v-.2h.1v-.1h.4v.1c0 .1 0 0 0 0v.1c0 .1 0 0 0 0 0 .1 0 0 0 0h-.1a1.8 1.8 0 0 1-.4 0H42.5v-.2c.1-.1 0 0 0 0l.2-.2h.1v-.1c.2 0 0 0 0 0a.4.4 0 0 1 .3 0h.2c.1 0 0 0 0 0h.1c0 .1 0 0 0 0v.2a.3.3 0 0 1 .1.1v.3c0 .1 0 0 0 0v.1c0-.1 0 0 0 0l-.2-.1a.8.8 0 0 0-.4 0l.3.3.1-.2V43c0-.1 0 0 0 0l.1-.2a2.6 2.6 0 0 1 .3-.5 2.6 2.6 0 0 1-.4.1.1.1 0 0 1 0 .1l.1.1v.5c0 .1 0 0 0 0s0 .1 0 0v.1s0 .1 0 0l-.1.2h-.5c-.1 0 0 0 0 0-.1 0 0 0 0 0h-.1l-.1-.1-.1-.1V43c0-.1 0 0 0 0V42.7h.1a.1.1 0 0 1 .1-.1s.1 0 0 0H43a.3.3 0 0 0 .3-.1l-.1-.5ZM50.3 39.5a.8.8 0 0 0-.6 0 1 1 0 0 0-.5.3.9.9 0 0 0 0 1 1 1 0 0 0 1 .5 1 1 0 0 0 .8-.7 1.3 1.3 0 0 0-.3-1.3.3.3 0 0 0-.4 0 3.1 3.1 0 0 0-.5 1.2c0 .1.2.4.3.3.1 0 0 0 0 0h.2a.9.9 0 0 0 .5 0c.4 0 .4-.7.3-1a1 1 0 0 0-.8-.7 1.3 1.3 0 0 0-1 .4.8.8 0 0 0-.1 1 1.2 1.2 0 0 0 .8.3 3.2 3.2 0 0 0 .5 0 .5.5 0 0 0 .3-.1.7.7 0 0 0 .1-.4.8.8 0 0 0-.1-.6.7.7 0 0 0-.7-.3 1 1 0 0 0-.7 1.2.6.6 0 0 0 1 0 .5.5 0 0 0 0-.4.3.3 0 0 0-.4.4s0-.1 0 0c0 0 0-.1 0 0-.1 0 0 0 0 0h-.1c-.1 0 0 0 0 0V40.2s-.1.1 0 0V40h.1V40h.4v.1c.1.1 0 0 0 0v.1c0 .1 0 0 0 0 0 .1 0 0 .1 0h-.1a1.8 1.8 0 0 1-.4 0h-.2s0 .1 0 0h-.2V40c.1-.1 0 0 0 0l.2-.1v-.1h.2c0-.1 0 0 0 0a.4.4 0 0 1 .2-.1h.2c.1 0 0 0 0 0l.1.1a.2.2 0 0 1 0 .2.3.3 0 0 1 .1 0v.4s0-.1 0 0c0 0 .1 0 0 0 .1 0 .1 0 0 0h-.2a.8.8 0 0 0-.4 0l.3.3.1-.3v-.1c0-.1 0 0 0 0l.1-.1a2.6 2.6 0 0 1 .3-.5 2.6 2.6 0 0 1-.4 0s0 .1 0 0a.1.1 0 0 1 0 .2h.1v.5s0 .1 0 0v.2c0 .1 0 0 0 0h-.1v.1h-.1l-.2.1H50v-.1h-.2v-.1h-.1c0-.1 0 0 0 0v-.1c0-.1 0 0 0 0v-.2s0 .1 0 0V40c.1 0 0 0 0 0h.1a.1.1 0 0 1 .2-.1c.1 0 0 0 0 0h.1s.1 0 0 0a.3.3 0 0 0 .4-.1v-.4ZM87.7 55.6a3.4 3.4 0 0 1-2.6-.2 1.5 1.5 0 0 1-.6-1.7.3.3 0 0 0-.2-.4.3.3 0 0 0-.3.2 2 2 0 0 0 .8 2.3 3.8 3.8 0 0 0 3 .3.3.3 0 0 0 0-.5ZM78.3 81.8c.5 1.3-1.7 2-2.6 2.3a8.6 8.6 0 0 1-3.7.2c-.3 0-.5.5-.1.6a9.3 9.3 0 0 0 4.3-.4c1.1-.3 3.2-1.2 2.6-2.8a.3.3 0 0 0-.5.1ZM43 122.2a10 10 0 0 0 10.3-.6 9.4 9.4 0 0 0 2.2-2.1c.3-.3-.2-.6-.4-.3a9.5 9.5 0 0 1-9.1 3.5 8.6 8.6 0 0 1-2.7-1c-.3-.2-.6.3-.3.5ZM52.2 127a11.5 11.5 0 0 0 8.4-3.4 10.1 10.1 0 0 0 1.6-2 .3.3 0 1 0-.5-.3 11 11 0 0 1-7 5 10 10 0 0 1-2.5.2.3.3 0 1 0 0 .6ZM117 31.7c1.5-.2 1-2 .8-3a12 12 0 0 0-1.2-2.8 21.7 21.7 0 0 0-4.8-6.1 16.2 16.2 0 0 0-1.6-1.2 7.6 7.6 0 0 0-2-1 2 2 0 0 0-1.1-.1 1.7 1.7 0 0 0-.7.6 2.5 2.5 0 0 0-.4 1.5 8.5 8.5 0 0 0 1.1 3.7 19 19 0 0 0 2.3 3.5 17.3 17.3 0 0 0 3.3 3.2 14.6 14.6 0 0 0 2 1.1l1 .5a2.3 2.3 0 0 0 1.3.1c.3 0 .2-.5-.2-.5a3.5 3.5 0 0 1-2-.6 17.2 17.2 0 0 1-1.5-.9 16.6 16.6 0 0 1-2.8-2.4 17 17 0 0 1-2.3-3.1 13.9 13.9 0 0 1-1.5-3.4 4 4 0 0 1-.2-1.6c0-.4.3-1 .8-1.2a2 2 0 0 1 1 .1 6.6 6.6 0 0 1 1.1.6 11.6 11.6 0 0 1 1.5 1 20.2 20.2 0 0 1 4.7 5.5A14 14 0 0 1 117 28a9.5 9.5 0 0 1 .5 2 2.1 2.1 0 0 1 0 .8.7.7 0 0 1-.7.4c-.3 0-.2.6.2.5Z"/>
    <path d="M106.5 17.8a7.9 7.9 0 0 0-1.8 1.9 6.8 6.8 0 0 0-.7 1 2.3 2.3 0 0 0-.3 1 4 4 0 0 0 .5 1.7l.9 1.8a18.2 18.2 0 0 0 3.2 4.7 26 26 0 0 0 4.3 3.5 2.5 2.5 0 0 0 1.1.6 1.4 1.4 0 0 0 .6-.2l.7-.3a10.9 10.9 0 0 0 2.5-1.8.3.3 0 0 0-.3-.4 10.2 10.2 0 0 1-2.1 1.5 9 9 0 0 1-1.2.6c-.3 0-.6-.1-.8-.3a25.2 25.2 0 0 1-4-3.2 18.4 18.4 0 0 1-3.2-4.1l-.9-2a9.8 9.8 0 0 1-.7-1.5 1 1 0 0 1 0-.7 6.9 6.9 0 0 1 .6-1.2 7.4 7.4 0 0 1 2-2c.1-.3-.1-.8-.4-.6Z"/>
    <path d="m104.6 23.2 1.4-2a.2.2 0 0 0-.1-.3.3.3 0 0 0-.4.1l-1.3 2a.2.2 0 0 0 0 .3.2.2 0 0 0 .4-.1ZM105.5 24.8A6.9 6.9 0 0 1 107 23a.3.3 0 0 0-.4-.4 6.7 6.7 0 0 0-1.5 2 .3.3 0 0 0 0 .3.2.2 0 0 0 .4 0ZM106.4 26.5a6 6 0 0 1 1.4-1.6.3.3 0 0 0 0-.4.3.3 0 0 0-.4 0 6.5 6.5 0 0 0-1.4 1.8.3.3 0 0 0 0 .3.2.2 0 0 0 .4 0ZM107.7 28.3a13.8 13.8 0 0 1 1.2-1.6.3.3 0 0 0-.4-.4 10.3 10.3 0 0 0-1.2 1.7.3.3 0 0 0 0 .4.3.3 0 0 0 .4 0ZM109.7 30.7l.7-1a.2.2 0 0 0 0-.2.4.4 0 0 0 0-.2.3.3 0 0 0-.3 0 .4.4 0 0 0-.1.1l-.8 1a.2.2 0 0 0 0 .2.4.4 0 0 0 .1.2.3.3 0 0 0 .2 0 .4.4 0 0 0 .2-.1ZM111 29.2l.2-.2a.1.1 0 0 0 0-.2.2.2 0 0 0 0-.2.3.3 0 0 0-.2 0h-.2l-.2.2a.1.1 0 0 0 0 .1.1.1 0 0 0 0 .1v.1a.2.2 0 0 0 0 .1.3.3 0 0 0 .2 0 .1.1 0 0 0 .2 0ZM111.3 32a11.3 11.3 0 0 1 1.4-1.7.3.3 0 0 0-.4-.4 12.9 12.9 0 0 0-1.4 1.8.3.3 0 0 0 0 .3.2.2 0 0 0 .4 0ZM108.8 29.6l.2-.2a.4.4 0 0 1 .1-.2l.4-.5a.3.3 0 0 0-.3-.4l-.8 1a.3.3 0 0 0 0 .4.2.2 0 0 0 .4-.1ZM112.9 33.2a11 11 0 0 0 2-1.6c.3-.3 0-.6-.3-.4a10.7 10.7 0 0 1-2 1.6.3.3 0 1 0 .3.4ZM112 22.1a1.1 1.1 0 0 0-1.6-.2 1.6 1.6 0 0 0 .3 2.5 1.6 1.6 0 0 0 1 0 1.8 1.8 0 0 1 1.2.3 1.5 1.5 0 0 1 .7.7.9.9 0 0 1-.2 1 1 1 0 0 1-1 0c-.4 0-.5.4-.2.6a1.5 1.5 0 0 0 1.7-.5 1.4 1.4 0 0 0 0-1.7 2.7 2.7 0 0 0-1.9-.9c-.3 0-.7.2-1 0a1 1 0 0 1-.5-.7.8.8 0 0 1 .3-.9.6.6 0 0 1 .7 0c.2.4.7 0 .4-.2Z"/>
    <path d="M109.9 21.9a56.2 56.2 0 0 0 4.4 5c.2.2.6-.2.4-.4a52.7 52.7 0 0 1-4.5-5c-.2-.3-.5 0-.3.4ZM99.6 23.8a15.3 15.3 0 0 0 2.6 7c.2.3.7 0 .5-.2a14.9 14.9 0 0 1-2.6-6.8c0-.3-.6-.3-.5 0ZM88.1 27a7 7 0 0 0 6 4.3c.4 0 .4-.6 0-.6a6.5 6.5 0 0 1-5.5-3.9c-.1-.3-.6-.2-.5.1ZM87.4 33.1a4.5 4.5 0 0 0 4.7 1c.3 0 .1-.6-.2-.4a4 4 0 0 1-4.1-1c-.3-.2-.7.2-.4.4ZM87 39.1a3.1 3.1 0 0 0 2.9.4.3.3 0 0 0 .2-.3.3.3 0 0 0-.4-.2 2.6 2.6 0 0 1-2.5-.3.2.2 0 0 0-.4 0 .3.3 0 0 0 .1.4ZM95 23.3a8.1 8.1 0 0 0 2 6c.1.2.5-.1.3-.4a7.6 7.6 0 0 1-1.7-5.7c0-.3-.5-.3-.5 0ZM103.5 27.5a6 6 0 0 0 3 3.7c.2.2.5-.3.2-.5a5.6 5.6 0 0 1-2.7-3.3.3.3 0 1 0-.5 0Z"/>
  </g>
</svg>