<svg xmlns="http://www.w3.org/2000/svg" viewBox="0 0 144 144">
  <path fill="#ebf9f4" d="M102.2 39.8c11.4 9.5 22.5 21 25.1 35.1a42.2 42.2 0 0 1-15 39.3c-11.4 8.5-28 9-41.4 5.9s-23.7-10-33.4-18.6C27.8 93 18.6 82.7 17.2 71c-1.4-11.7 5-24.7 14.6-34.3 9.8-9.5 22.8-15.4 35.1-14.6s24 8.2 35.3 17.7Z"/>
  <path d="M55 23.3a15.4 15.4 0 0 1-5.2-.7 13 13 0 0 1-2.3-1l-1.2-.8a10.5 10.5 0 0 0-1.3-.7 4.3 4.3 0 0 0-3 0l-3.3.8a45.4 45.4 0 0 1-6.5.7c-1.7.1-3.3.3-5 .3a6.6 6.6 0 0 1-4.4-1.4 7.2 7.2 0 0 1-2-3.9 18.8 18.8 0 0 1-.3-4.5v-2l.2-2.4a6.6 6.6 0 0 1 .5-2.2 3 3 0 0 1 1.7-1.6 11.8 11.8 0 0 1 2.7-.5l3-.3c2.1-.3 4.2-.4 6.3-.5a53.5 53.5 0 0 1 6.1 0 10 10 0 0 1 4.4 1c2.2 1.3 2.8 3.8 3 6.2l-.1 2.2a17 17 0 0 0 0 2.6 7.2 7.2 0 0 0 1.4 3.7l2 2.6a16.8 16.8 0 0 0 2.4 2.4 1.4 1.4 0 0 0 .8.4c.3 0 .3-.4 0-.4l-.3-.1a3.5 3.5 0 0 1-.4-.4 12.1 12.1 0 0 1-1.2-1.1l-2.4-3a8.7 8.7 0 0 1-1.7-3c-.5-1.6-.1-3.3 0-5 0-2.4-.4-5.2-2.4-6.8A7.3 7.3 0 0 0 43 2.3a32.5 32.5 0 0 0-6-.3 90.1 90.1 0 0 0-12.4 1A6.2 6.2 0 0 0 22 4a3.5 3.5 0 0 0-1.3 1.7 14 14 0 0 0-.5 4.7c-.1 3-.4 6 1 8.8a5.6 5.6 0 0 0 3.3 2.9 13.4 13.4 0 0 0 5 .3c2 0 3.8-.2 5.8-.4a53.5 53.5 0 0 0 6.5-1.1l1.7-.4a2.4 2.4 0 0 1 1.6.3l2.5 1.4a14 14 0 0 0 4.8 1.6 22.6 22.6 0 0 0 2.7 0c.2 0 .2-.4 0-.4Z"/>
  <path d="m38.8 9.4-11.6.7c-.3 0-.3.5 0 .4l11.6-.6c.3 0 .3-.5 0-.5ZM27.2 13.1c2.3 0 4.6 0 6.9-.4.3 0 .3-.5 0-.5a66.4 66.4 0 0 1-6.9.4.2.2 0 1 0 0 .5ZM123.6 109a2.1 2.1 0 0 0-.3-.7h-.5l-.6.1a83.3 83.3 0 0 0-7.1 4.9 1.4 1.4 0 0 1-.6.2 2 2 0 0 1-.9.2h-.1a.2.2 0 0 1-.2 0h-.4c-.1 0-.2 0-.3.2l-.5.3a3.2 3.2 0 0 1-.3.5 10.5 10.5 0 0 1-6 3.7c.3.6.5 1 .6 1.6a16.6 16.6 0 0 0 1 2.5 6.9 6.9 0 0 0 1.6 2.3l.1.1a2 2 0 0 0 .9 1l.6.5a.7.7 0 0 0 .9.1l4.1-2.7a.8.8 0 0 0 .2-1.2l-.3-.3a37.8 37.8 0 0 0 3.3-3.2 22.6 22.6 0 0 0 3.3-4.5l.9-1.9a6.5 6.5 0 0 0 .6-3.7ZM104.8 130.1a39.3 39.3 0 0 1-6.3-2.6 6 6 0 0 1-3.4-2.7l-.4.2a11.7 11.7 0 0 1-2.8 1 4.5 4.5 0 0 1-4.5-1.6 10.7 10.7 0 0 0-.1 2 8 8 0 0 0 0 1.7l.1.2a4 4 0 0 0 0 1.2 4.8 4.8 0 0 0 .3 1.6 1.6 1.6 0 0 0 .7 1.3 3 3 0 0 0 .8.4c1 .3 3 .9 4 .1a1.4 1.4 0 0 0 .3-.5l2.3.2c1.5.2 3 .2 4.6.2h.5a17.3 17.3 0 0 0 2.6-.8 7.3 7.3 0 0 0 1.2-1 1.6 1.6 0 0 0 0-.9Z"/>
  <path fill="#68cec1" d="M37.4 79.7v.3a.4.4 0 0 1 0-.3Z"/>
  <path fill="#5acea8" d="M95.7 65a20.8 20.8 0 0 1-3.8-2.7c-3-3-3.4-9-3.8-11.7a15.8 15.8 0 0 0-1.8-5.3c-2-2.5-5.5-2.3-8.5-2l-1.1.1a5 5 0 0 0-1-1.6 1 1 0 0 0 0-.2.8.8 0 0 0-1-.6 1.5 1.5 0 0 0-1 1 1.7 1.7 0 0 0 0 .7 2.5 2.5 0 0 1 .1 1v.9c0 .5.1 1.1-.3 1.6a.5.5 0 0 1-.6 0 5.8 5.8 0 0 1-1.3-1.2 4.1 4.1 0 0 1-.5-.7l-.2-.4c-1-.5-1.9-1.2-2.9-1.6a6 6 0 0 0-.3-.2 22.4 22.4 0 0 1-2.6-1c-.7 1.2-2 3-3.5 3h-3.3s-6.1-1-13.7 9.4a39 39 0 0 0-7.2 26.2v.3a.5.5 0 0 0 0 .2.4.4 0 0 0 .6 0 1.4 1.4 0 0 0 .4-.3 1 1 0 0 0 .4-.2 4.8 4.8 0 0 1 3.6-.8.8.8 0 0 0 1-.8v-1.2a.7.7 0 0 0-.4-.7l.5-1.7.2-1.4a5.5 5.5 0 0 0 .6-1.6 2.3 2.3 0 0 0 .3-1.5 4 4 0 0 0-.1-2.4l.3-1.4a13.7 13.7 0 0 1 .7-4.8v-.1a.4.4 0 0 0 0-.3.3.3 0 0 1 .3-.2l1.8-1.6A11.8 11.8 0 0 1 50 58a11 11 0 0 1 2.4-.6A26.7 26.7 0 0 1 56 57a.4.4 0 0 1 .4.6 18.7 18.7 0 0 0-1.3 3.2l-1.9 5.8-.4 1.5a9.2 9.2 0 0 0-.4 1.5l-.1.9a3.4 3.4 0 0 0 .3-.6 19.9 19.9 0 0 0-.5 3.2l-.2 1.7a9.2 9.2 0 0 0-.3 3 9.7 9.7 0 0 0 0 3.8l.1.1a10.4 10.4 0 0 0 0 1.2v.2h.2a15.6 15.6 0 0 0 7 1h1a2.7 2.7 0 0 1 1-.3l2.3-.2a32.3 32.3 0 0 0 8-2.2 22 22 0 0 0 4.4-2.6l2-1.5a18.5 18.5 0 0 1-.2-10.4 70 70 0 0 1 2-6.6 5 5 0 0 1 .8-1.6c.7-.8 2.4-1.2 3 0 .5 1.3.6 2.6 1 3.9a10.7 10.7 0 0 0 2 3.3 53.7 53.7 0 0 0 4.4 3.9c.3.3.9.5 1.1 0l1.7-3.6 1.2-.4a.6.6 0 0 0 .4-.3.3.3 0 0 0 .1-.1.8.8 0 0 1 .2 0l.1.1c.3.1.5-.4.2-.6Z"/>
  <path d="M85.9 18.6a2.2 2.2 0 0 0-.4-1.4 7.8 7.8 0 0 0-2-3 11.8 11.8 0 0 0-4.5-2.7 12.7 12.7 0 0 0-10.4 1.1 12.9 12.9 0 0 0-3.6 3.1 8.7 8.7 0 0 0-1.4 1.7 12.3 12.3 0 0 0-2 4.3 11 11 0 0 0-.7 3.5.4.4 0 0 0 0 .2 15.1 15.1 0 0 0 1 8.2 9.8 9.8 0 0 0 .8 1.4 3.1 3.1 0 0 0 .5 1 2.4 2.4 0 0 0 .8.6 1.2 1.2 0 0 0 1.2 0 1.3 1.3 0 0 0 .5-.9 1.9 1.9 0 0 0 0-.6 1.3 1.3 0 0 0-.2-.4l.2-2.3.2-1.8a3.2 3.2 0 0 0 0-.6 9 9 0 0 1-1.8-2.5 1.2 1.2 0 0 1-.2-.3V27c0-.4 0-.7.2-1a2.7 2.7 0 0 1 1.4-1.4 2.1 2.1 0 0 1 .8-.1 11.7 11.7 0 0 1 1.3.1 3.7 3.7 0 0 0 2.3-.3c1.2-.6 1.7-2 2.3-3a5 5 0 0 1 2.6-2.3 6 6 0 0 1 1.8-.4 1.6 1.6 0 0 0 .4 0l1.7.2a.4.4 0 0 0 .2 0l1.5.8a3.6 3.6 0 0 0 1.5.6 3.4 3.4 0 0 0 2.3.5.7.7 0 0 0 .8-.3 1.8 1.8 0 0 0 .9-1.8ZM80.2 58.7a3.9 3.9 0 0 1 .6 1.6 5.8 5.8 0 0 1 0 1.1l.1 1 .3 4.4v4.3a5 5 0 0 1-.1 1.8 2.4 2.4 0 0 1-.8 1 5.8 5.8 0 0 1-3 1c-.3 0-.3.4 0 .4 1.9-.2 4.2-.9 4.4-3.1a36.4 36.4 0 0 0 0-4.6c0-1.6-.2-3.2-.3-4.7v-1.2l-.1-1.3a4.4 4.4 0 0 0-.7-2c-.2-.1-.6.1-.4.3ZM56.6 56.5a60.2 60.2 0 0 0-4.4 14 47.6 47.6 0 0 0-.5 14.5 15.1 15.1 0 0 0 1.6 5.9 7.2 7.2 0 0 0 2 2.2 14.4 14.4 0 0 0 3 1.6c4.4 1.7 9.2 1.8 13.8 1.7a98.7 98.7 0 0 0 16.4-2l2-.5c.3 0 .2-.5-.1-.4a111.4 111.4 0 0 1-16.2 2.3 62 62 0 0 1-7.1 0 31 31 0 0 1-6.9-1 18 18 0 0 1-3-1.2 8.2 8.2 0 0 1-2.7-1.9 10.9 10.9 0 0 1-2.2-5.5 45 45 0 0 1 0-14 59.5 59.5 0 0 1 4-14l.7-1.5c.2-.3-.2-.5-.4-.2ZM99.1 103.5a8 8 0 0 1 .4 3 22.5 22.5 0 0 0 .6 3.3l1.4 6.2a20 20 0 0 0 1.1 3.3.2.2 0 0 0 .3.1 20.7 20.7 0 0 0 5.7-1.8 10.3 10.3 0 0 0 4.1-3.5c.2-.3-.2-.5-.4-.3a10 10 0 0 1-4 3.4 20.3 20.3 0 0 1-5.5 1.8h.3a29.2 29.2 0 0 1-1.8-6l-.6-3.2a25.3 25.3 0 0 1-.7-3.3v-1.7a4 4 0 0 0-.5-1.5c-.1-.3-.5 0-.4.2Z"/>
  <path d="M56.7 57a19.7 19.7 0 0 0-7 1 9.6 9.6 0 0 0-3 1.5A5.4 5.4 0 0 0 45 62a11.3 11.3 0 0 0-.6 3.2 27.5 27.5 0 0 0 0 3.8l.9 6.6c.1 1.4.5 2.8 1.9 3.3a4.8 4.8 0 0 0 3.7-.4 6.7 6.7 0 0 0 .8-.4c.3-.2 0-.6-.2-.4a5.8 5.8 0 0 1-3.6 1 2.3 2.3 0 0 1-1.4-.8 3.8 3.8 0 0 1-.7-2l-.8-6.4a20 20 0 0 1 .3-6.7 5.2 5.2 0 0 1 1.3-2.4 7.4 7.4 0 0 1 2.7-1.7 19 19 0 0 1 7.4-1.1c.3 0 .3-.5 0-.5ZM53 89a5.6 5.6 0 0 0-3.2 1.2 2.3 2.3 0 0 0-.7 2.4 5.2 5.2 0 0 0 2.3 2.6 16.8 16.8 0 0 0 4.4 1.9c1.5.5 3 .8 4.7 1.1a43.3 43.3 0 0 0 5 .7 42.3 42.3 0 0 0 9.9-.3 39 39 0 0 0 4.9-1.2 15 15 0 0 0 4.3-1.8 8.8 8.8 0 0 0 .8-.7c.3-.2 0-.5-.3-.3a9.5 9.5 0 0 1-3.8 2 34 34 0 0 1-4.6 1.3 40.5 40.5 0 0 1-9.5.6 49.8 49.8 0 0 1-9.2-1.3 24.4 24.4 0 0 1-4.4-1.4 9.3 9.3 0 0 1-3.4-2.3 2.1 2.1 0 0 1-.4-2.6 4.5 4.5 0 0 1 3.2-1.5c.3 0 .3-.5 0-.5Z"/>
  <path d="M55.1 96.7 55 114c0 5.7-.2 11.5-.4 17.3l-.4 9.5c0 .3.5.3.5 0a970.2 970.2 0 0 0 1-44c0-.3-.5-.3-.5 0ZM83.1 96.2q.8 8.3 1.4 16.7l1 16.8.4 9.4c0 .3.5.3.5 0l-.8-16.8-1.2-16.8-.8-9.3c0-.3-.5-.3-.5 0ZM60.2 98.2l-.5 14.6-.5 15.4-.2 8.2a.3.3 0 0 0 .2.2 32.2 32.2 0 0 0 17.9 1.2 30.5 30.5 0 0 0 4.9-1.5s.2 0 .1-.2a912.4 912.4 0 0 0-1.9-30.3l-.7-8.3c0-.3-.5-.3-.5 0a891.6 891.6 0 0 1 2.3 30.1l.4 8.5a1.6 1.6 0 0 0 .2-.2 31.8 31.8 0 0 1-17.8 1.6 32.4 32.4 0 0 1-4.8-1.3 1.6 1.6 0 0 1 .1.2l.5-15 .5-15.3.3-7.9c0-.3-.5-.3-.5 0ZM58.8 140.5a28.5 28.5 0 0 0 9 2.3 29 29 0 0 0 9.4-.6 27.6 27.6 0 0 0 5-1.7c.3-.2.1-.6-.2-.4a27.6 27.6 0 0 1-8.9 2.3 28.3 28.3 0 0 1-9.1-.7 27 27 0 0 1-5-1.7c-.3 0-.5.3-.2.5Z"/>
  <path d="m71 99 .9 11.2.9 12.2.4 6c0 .2.6.2.5 0L73 117l-1-12c0-2-.2-4-.4-6 0-.3-.5-.3-.4 0ZM76.2 98.5l.8 11.1 1 12.2c0 2 .2 4 .4 6 0 .2.5.2.4 0l-.8-11.2-1-12.2c0-2-.2-4-.4-6 0-.2-.4-.2-.4 0ZM44.3 70.8a21 21 0 0 0-1 9.3c0 .3.4.3.4 0a21 21 0 0 1 1-9.2c.2-.3-.3-.4-.4-.1Z"/>
  <path d="M41.2 80.4a4 4 0 0 1 2.6.3 3.4 3.4 0 0 1 1.2 1.7 6.1 6.1 0 0 1 .5 2c0 .3.2.9-.2 1a1.7 1.7 0 0 1-1.1-.4 4.4 4.4 0 0 1-1-2c-.2-.4-.6-.3-.5 0a5.4 5.4 0 0 0 1 2.3c.6.5 2 1 2.3 0a4.1 4.1 0 0 0 0-1.3 8.2 8.2 0 0 0-.3-1.3 4.7 4.7 0 0 0-1.3-2 4 4 0 0 0-3.2-.7c-.3 0-.3.5 0 .4ZM38.2 79.6c-2 1.2-2.3 3.6-2 5.7l.3 1.8a8 8 0 0 0 .4 1.7 2.6 2.6 0 0 0 .8 1.2.7.7 0 0 0 1-.2c.4-.6.2-1.5.2-2.2a.2.2 0 0 0-.4 0 5.7 5.7 0 0 1-.1 1.7c-.1.2-.3.4-.5.2a2.5 2.5 0 0 1-.6-1 8.4 8.4 0 0 1-.3-1.6l-.3-1.6a7.7 7.7 0 0 1 0-2.8 3.6 3.6 0 0 1 1.7-2.5c.3-.1 0-.6-.2-.4Z"/>
  <path d="m38.1 85.8.7 3.5a5 5 0 0 0 .6 1.7.8.8 0 0 0 1.3.2 2.8 2.8 0 0 0 .5-2.3c0-1.1-.5-2.2-.6-3.4 0-.3-.5-.3-.5 0l.5 2.7a4 4 0 0 1 0 2.2c0 .2-.3.6-.5.6s-.3-.2-.4-.3a5.6 5.6 0 0 1-.4-1.6l-.7-3.4a.3.3 0 0 0-.5.1Z"/>
  <path d="M40.6 88a6 6 0 0 0 1 2.6 1.2 1.2 0 0 0 .9.6 1 1 0 0 0 .9-.7 3.6 3.6 0 0 0-.2-2.7 16.2 16.2 0 0 1-.8-2.8c0-.3-.5-.3-.4 0a13.6 13.6 0 0 0 .5 2.3 7.8 7.8 0 0 1 .6 2.2 1.3 1.3 0 0 1-.4 1.1c-.4.2-.7-.3-.8-.5a6.2 6.2 0 0 1-.9-2.2.3.3 0 0 0-.4.1Z"/>
  <path d="M42.9 83.7c.4 1.4 1.3 2.7 1.6 4.1 0 .3.3 1-.2 1a1.5 1.5 0 0 1-1-.7c-.2-.2-.6.1-.4.4.4.4 1.4 1.1 2 .5.3-.4.2-1 0-1.4a10.3 10.3 0 0 0-.7-1.8 13.2 13.2 0 0 1-.9-2.1.2.2 0 1 0-.4 0ZM37.7 80.5a6.4 6.4 0 0 1 5.6-1.4.2.2 0 0 0 .1-.5 7 7 0 0 0-6 1.5.2.2 0 1 0 .3.4ZM88.6 76.6c-3.7 0-7.3 0-11 .3-.3 0-.3.5 0 .5 3.7-.3 7.3-.3 11-.4.3 0 .3-.4 0-.4ZM99.7 103.7a70.8 70.8 0 0 0 2-13c.1-3.4.2-7-1.8-10a7.8 7.8 0 0 0-4-3.1c-.3-.2-.4.3-.1.4 3 1 4.6 3.8 5.2 6.7a23.8 23.8 0 0 1 .2 5.5 57.6 57.6 0 0 1-.6 6.4c-.4 2.3-.8 4.7-1.4 7 0 .3.4.4.5.1ZM87.6 82.9a3 3 0 0 1 2.5 1.4 3.2 3.2 0 0 1 .3 1.6V88a250.7 250.7 0 0 1-2 27.1l-1 8.9a18.3 18.3 0 0 0-.3 4.3 3.3 3.3 0 0 0 1.4 2.8 1.8 1.8 0 0 0 .7.1l1 .2 2.3.4 4.2.7a27 27 0 0 0 4.4.2h1a6.5 6.5 0 0 0 1.1-.2 2.7 2.7 0 0 0 1.4-1 1.6 1.6 0 0 0-.8-2.3 6 6 0 0 0-1.3-.5l-1.6-.5a10.2 10.2 0 0 1-5.3-3.5 5.7 5.7 0 0 1-.7-1.3c-.1-.3-.6-.2-.5 0a8.2 8.2 0 0 0 4.2 4.4 16.7 16.7 0 0 0 3 1.2c1 .2 2.1.3 2.7 1.2a1 1 0 0 1-.4 1.4 2.3 2.3 0 0 1-.7.4 3.9 3.9 0 0 1-1 .1 23.9 23.9 0 0 1-4.4 0l-4.2-.6-2.2-.4-2-.4a1.6 1.6 0 0 1-1.3-.7 3.7 3.7 0 0 1-.5-1.7 17.1 17.1 0 0 1 .2-4.3 294.5 294.5 0 0 0 3-35.3v-2.2a7.5 7.5 0 0 0 0-1.8 3 3 0 0 0-1.7-2 4.7 4.7 0 0 0-1.5-.4c-.3 0-.3.5 0 .5Z"/>
  <path d="M101.4 86.5a7.1 7.1 0 0 0 .6 1.1 5.2 5.2 0 0 1 .5 1.4 160.4 160.4 0 0 0 8.1 23.1 4.8 4.8 0 0 0 .6 1.2 2.5 2.5 0 0 0 1 .6c.4.1.5-.3.2-.4a2 2 0 0 1-.9-.6 5.5 5.5 0 0 1-.5-1.1l-1.2-2.7-2.2-5.5A171.8 171.8 0 0 1 103 89a9.3 9.3 0 0 0-.4-1.5c-.3-.4-.6-.8-.7-1.3-.1-.2-.6-.1-.5.2ZM36.9 81.3V80l.3-2.3.5 2.2.3.3-.3.3ZM76.2 127.9a42.4 42.4 0 0 0-9.7 1.4.2.2 0 0 0 .1.5 40.1 40.1 0 0 1 9.6-1.4c.3 0 .3-.5 0-.5ZM79.2 26.4a.5.5 0 0 0-.4-.1.9.9 0 0 0-.3 0 .6.6 0 0 0-.3.7.6.6 0 0 0 .5.4.6.6 0 0 0 .4 0 .5.5 0 0 0 .3-.3.7.7 0 0 0 0-.7.2.2 0 0 0-.2-.1.3.3 0 0 0-.2 0 2.1 2.1 0 0 0-.4.5.2.2 0 0 0 .2.4h.2a.3.3 0 0 0 .3 0 .6.6 0 0 0 .2-.3.7.7 0 0 0 0-.4.5.5 0 0 0-.2-.3.5.5 0 0 0-.3 0 .7.7 0 0 0-.6.2.5.5 0 0 0-.1.2.4.4 0 0 0 0 .4.9.9 0 0 0 .5.2h.1a.6.6 0 0 0 .2 0 .4.4 0 0 0 .3-.3.5.5 0 0 0-.1-.4.4.4 0 0 0-.4-.2.7.7 0 0 0-.4.2.6.6 0 0 0-.1.5.4.4 0 0 0 .4.3.4.4 0 0 0 .3-.5.2.2 0 0 0-.4.2v-.2h.1s0 .1 0 0v.1h.1c0-.1 0 0 0 0h.1a1.8 1.8 0 0 1-.2-.2v.1c.1 0 0 0 0 0H79.2s0-.1 0 0a.6.6 0 0 1 0 .2s0-.1 0 0v-.1h.2l-.4-.1a3.2 3.2 0 0 0 .3.3V27l.3-.2a2.3 2.3 0 0 0-.4 0 .3.3 0 0 1 0 .1c-.1 0-.1 0 0 0h-.2c-.1 0 0 0 0 0h-.1c0-.1 0 0 0 0v-.1a.2.2 0 0 1 .1 0 .3.3 0 0 0 .3 0v-.4ZM82.9 26.1a.5.5 0 0 0-.4-.1.9.9 0 0 0-.3 0 .6.6 0 0 0-.2.7.6.6 0 0 0 .4.4.7.7 0 0 0 .4 0 .5.5 0 0 0 .3-.3.7.7 0 0 0 0-.7.2.2 0 0 0-.1 0 .3.3 0 0 0-.2 0 2.1 2.1 0 0 0-.4.4.2.2 0 0 0 .2.4h.1a.3.3 0 0 0 .4 0 .6.6 0 0 0 .1-.3.7.7 0 0 0 0-.4.5.5 0 0 0-.2-.2.5.5 0 0 0-.3-.1.7.7 0 0 0-.5.2.5.5 0 0 0-.2.3.4.4 0 0 0 .1.3.9.9 0 0 0 .5.2.6.6 0 0 0 .3 0 .4.4 0 0 0 .2-.3.5.5 0 0 0 0-.4.4.4 0 0 0-.4-.1.7.7 0 0 0-.4.1.6.6 0 0 0-.2.5.4.4 0 0 0 .4.4.4.4 0 0 0 .3-.6.2.2 0 0 0-.4.3v-.2s.1-.1 0 0h.4a1.8 1.8 0 0 1-.3-.1h.4-.1a.6.6 0 0 1 0 .2s.1 0 0 0h.2v-.1l-.3-.1a3.2 3.2 0 0 0 .2.4.5.5 0 0 1 0-.1l.1-.1.2-.2a2.3 2.3 0 0 0-.4 0 .3.3 0 0 1 0 .2.1.1 0 0 1-.1 0h-.1a.1.1 0 0 1 0-.1s-.1 0 0 0c-.1 0 0 0 0 0a.3.3 0 0 0 .4 0l-.1-.5ZM83.8 28.3l.4-7.6a.2.2 0 0 0-.5 0c0 2.6-.1 5-.4 7.6 0 .3.4.3.5 0ZM71.3 41a15 15 0 0 0 6.1-.6 9.1 9.1 0 0 0 1.4-.7 4 4 0 0 0 1.2-1 24.4 24.4 0 0 0 1.8-3 14.6 14.6 0 0 0 1.3-3.7c.1-.3-.4-.4-.4-.1a16.6 16.6 0 0 1-2.7 6 3.3 3.3 0 0 1-.6.8 4.3 4.3 0 0 1-.6.4 7.1 7.1 0 0 1-1.3.7 10.3 10.3 0 0 1-2.9.7 22.1 22.1 0 0 1-3.3 0c-.3 0-.3.5 0 .5ZM66 25.4a1.8 1.8 0 0 0-1 1.7c0 .2 0 .3.2.3a.2.2 0 0 0 .2-.3v-.6s.1 0 0 0h.1v-.1a.3.3 0 0 1 .1-.1c.1-.1 0 0 0-.1l.2-.2h.1a.7.7 0 0 1 .3-.2.2.2 0 0 0 0-.3.2.2 0 0 0-.2-.1Z"/>
  <path d="M82 33.7a4.7 4.7 0 0 1-3.6 1c-1.2-.1-2.8-.9-3-2.3 0-.3-.5-.3-.4 0 .1 1.6 1.8 2.6 3.2 2.8a5.2 5.2 0 0 0 4.2-1.2c.3-.2 0-.5-.3-.3ZM65.5 41a19.8 19.8 0 0 0 .4-3v-3l.3-3a3.5 3.5 0 0 0-.4-2.3c-.3-.6-.8-1-1.2-1.7a2.6 2.6 0 0 1-.2-1.6 1.8 1.8 0 0 1 .9-1.4 3.7 3.7 0 0 1 2.3 0 5.3 5.3 0 0 0 2 0 2.9 2.9 0 0 0 1.6-1.3c.7-1 1.2-2.2 2-3.2a4.6 4.6 0 0 1 1.4-1.2 4.3 4.3 0 0 1 2.3-.5 8.9 8.9 0 0 1 4.8 1.7 4.7 4.7 0 0 0 1.6.7 2.5 2.5 0 0 0 1.9-.2c1.3-.9 1.3-2.8.7-4a9.2 9.2 0 0 0-3.2-3.7 13.7 13.7 0 0 0-4.5-2.1 13 13 0 0 0-9.7 1.4 20 20 0 0 0-2 1.4 12.7 12.7 0 0 0-1.9 1.7 16.1 16.1 0 0 0-2.7 4.2 14 14 0 0 0-1.1 4.7l-.2 3.8c0 2.5.5 5.3 2.4 7.1a6.3 6.3 0 0 0 1.5 1.2c.3.1.5-.3.3-.4a6 6 0 0 1-2.6-2.7 10 10 0 0 1-1-3.5 25.5 25.5 0 0 1 0-3.9 20 20 0 0 1 .4-4.2 14.5 14.5 0 0 1 2.1-4.4 16.8 16.8 0 0 1 1.6-2l.8-.8a12.2 12.2 0 0 1 1-.8 14.7 14.7 0 0 1 4.4-2.3 13.5 13.5 0 0 1 5-.4 11.9 11.9 0 0 1 8.2 4.6 5.9 5.9 0 0 1 1 2 2.6 2.6 0 0 1-.4 2.3 1.8 1.8 0 0 1-1.7.5 4.4 4.4 0 0 1-1.6-.6 12 12 0 0 0-2.2-1.2 8.2 8.2 0 0 0-2.3-.6 4.9 4.9 0 0 0-4 1.2 13.5 13.5 0 0 0-2 3 9.4 9.4 0 0 1-1.2 1.6 2.1 2.1 0 0 1-2 .4c-1.2-.1-2.8-.6-3.8.5a2.7 2.7 0 0 0-.6 1.6 3 3 0 0 0 .2 1.6l1.3 1.6a2 2 0 0 1 .4.9 6 6 0 0 1 0 1.4l-.4 2.9v3a19 19 0 0 1-.4 2.8c0 .3.4.4.5.2Z"/>
  <path d="M65 41.3a37.7 37.7 0 0 1 5.8 2.8c.2.2.5-.2.2-.4A40.1 40.1 0 0 0 65 41c-.3-.2-.4.3 0 .4Z"/>
  <path d="m70.5 43.8-1.7 5 .4-.2a39.1 39.1 0 0 1-5.4-5.4c-.2-.3-.5 0-.3.3a43 43 0 0 0 5.3 5.4.2.2 0 0 0 .4 0l1.7-5c.1-.2-.3-.4-.4 0Z"/>
  <path d="m70.7 44 1.9 3.2c.1.3.5 0 .4-.2l-2-3.2a.2.2 0 1 0-.3.2ZM74.2 46.5a19.7 19.7 0 0 1-.2-4.2c0-.3-.5-.3-.5 0a19.5 19.5 0 0 0 .3 4.3c0 .3.4.2.4-.1Z"/>
  <path d="m73.9 42.6 1.8 1.4.5.3a2.3 2.3 0 0 0 .3.2.4.4 0 0 0 .4-.2 1.2 1.2 0 0 0 0-.9 3.4 3.4 0 0 0-.2-.8 6.3 6.3 0 0 0-1.4-1.8c-.2-.2-.5.2-.3.4a6.2 6.2 0 0 1 1 1.3 3.4 3.4 0 0 0 .3.4l.1.4a3.4 3.4 0 0 1 .1.5.4.4 0 0 1 0 .1v.2h.1c0-.1 0 0 0 0 .2-.1 0 0 .1 0a5.2 5.2 0 0 1-.7-.6L74 42.2a.2.2 0 0 0-.2.4ZM51.3 83a30.8 30.8 0 0 0 10.6.8 31.6 31.6 0 0 0 10-2.7 29.7 29.7 0 0 0 5.2-3.1c.2-.2 0-.6-.2-.4a30 30 0 0 1-9.3 4.6 30.8 30.8 0 0 1-10.4 1.3 29.7 29.7 0 0 1-5.8-.9c-.2-.1-.4.4 0 .5ZM86 83.5c1.6-3.8 3.2-7.6 5-11.4l1.2-2.8.7-1.4.3-.7c.1-.2.2-.5.4-.6a10.1 10.1 0 0 1 1.2-.6l1.2-.5 2.7-1.1 5.7-2.5c.3 0 0-.5-.2-.4-3.4 1.6-7 2.9-10.4 4.5a4 4 0 0 1-.5.2c-.2 0-.3.3-.4.6l-.7 1.5a170.4 170.4 0 0 0-3.8 8.4l-2.9 6.6c-.1.3.3.5.4.2Z"/>
  <path d="M96.7 75.6 95.5 78 95 79a1 1 0 0 1-.5.3l-.6.3a104.7 104.7 0 0 1-7.4 3.2l-.6.2a2 2 0 0 1-.7 0h-1.4l-5.8-.3-6.9-.2.2.4 9.4-4.5 2.6-1.3a.2.2 0 1 0-.2-.4l-9.5 4.6-2.6 1.2c-.2.1 0 .5.2.5l12.2.4h1.4a3.2 3.2 0 0 0 1.3 0l2.5-1 5.1-2.1 1.4-.7a1 1 0 0 0 .2-.1 2.2 2.2 0 0 0 .2-.4l.4-.7L97 76c.2-.3-.3-.6-.4-.3ZM104 61.6l-3.3 6.5c-.2.2.3.5.4.2l3.4-6.5c.1-.3-.3-.5-.4-.2Z"/>
  <path d="M98.2 73.3a3.3 3.3 0 0 1-1.5-.4 8.9 8.9 0 0 0-1.6-.5 1.3 1.3 0 0 0-1 .3.8.8 0 0 0-.2 1 2.5 2.5 0 0 0 1.2.8 11 11 0 0 0 1.4.5 6 6 0 0 0 3 .3 4.7 4.7 0 0 0 2.4-1.8 3.7 3.7 0 0 0 1-2.8 5.1 5.1 0 0 0-1.6-2.5 6 6 0 0 0-1.3-1 1.7 1.7 0 0 0-1.2-.3 1.1 1.1 0 0 0-1 1 2.2 2.2 0 0 0 .4 1.4 2.6 2.6 0 0 0 2.5 1.2l-.1-.5a3 3 0 0 1-2.1.3 3.4 3.4 0 0 1-1-.4 4 4 0 0 0-1-.5 1 1 0 0 0-1.3.5 1.3 1.3 0 0 0 .6 1.5c.2.1.5-.3.2-.4-.3-.3-.6-1 0-1.2.5-.1 1 .4 1.5.6a3.7 3.7 0 0 0 3.3 0c.3-.1 0-.5-.2-.4a2.1 2.1 0 0 1-2-1 2 2 0 0 1-.3-1 .7.7 0 0 1 .7-.7 1.8 1.8 0 0 1 1 .4 5.8 5.8 0 0 1 1 1 4.4 4.4 0 0 1 1.4 2 3.2 3.2 0 0 1-.8 2.4 3.7 3.7 0 0 1-4.5 1.5 11.2 11.2 0 0 1-2.3-.8c-.3-.1-.9-.6-.4-.9a1.4 1.4 0 0 1 1.2 0l1.4.6a2.6 2.6 0 0 0 1.3.2c.3 0 .2-.5-.1-.4Z"/>
  <path d="M95 72.4a.8.8 0 0 1-.3-.8c.1-.4.7-.3 1-.2l1.3.5a13.2 13.2 0 0 0 1.5.3c.3 0 .5-.4.2-.4a9.8 9.8 0 0 1-2-.5 5.6 5.6 0 0 0-1.6-.5 1 1 0 0 0-1 .9 1.3 1.3 0 0 0 .6 1.1.2.2 0 0 0 .3 0 .2.2 0 0 0 0-.4ZM99.2 75a6.9 6.9 0 0 1-2.6.5 3.1 3.1 0 0 1-1.3-.2c-.3-.1-.7-.5-.5-.8.1-.3-.3-.6-.4-.3a1.1 1.1 0 0 0 .2 1.2 2 2 0 0 0 1.4.6 7.4 7.4 0 0 0 3.4-.6c.2-.1.1-.6-.2-.5ZM99.1 103.4a38.7 38.7 0 0 1-.1 6.1l-.4 3-.2 3-.2 2.9a7.3 7.3 0 0 0 0 1.4 3.3 3.3 0 0 0 .1.6 6.8 6.8 0 0 1 .2.7 8.2 8.2 0 0 1 0 1v.2a5.7 5.7 0 0 1-.7.2 30.7 30.7 0 0 1-3 .7 19 19 0 0 1-7-.1c-.3 0-.4.4-.1.4a19.6 19.6 0 0 0 6.4.3 26.4 26.4 0 0 0 3.1-.6 11.5 11.5 0 0 0 1.5-.4.6.6 0 0 0 .3-.6 8.5 8.5 0 0 0 0-1l-.3-1.5a16.2 16.2 0 0 1 .1-2.8l.2-3.2.2-1.6.2-1.6a44 44 0 0 0 .2-7c0-.4-.5-.4-.5 0Z"/>
  <path fill="#212529" d="M82.5 32.2a2 2 0 0 1-1.6-.7.3.3 0 1 1 .5-.4 1.7 1.7 0 0 0 1.9.3c.8-.3 1.5-1 1.5-1.4 0-.1 0-.6-1.8-1.6l-2-1a.3.3 0 0 1 .3-.5l2 1c1.9 1.1 2 1.7 2 2 0 .8-.8 1.7-1.8 2.1a2.9 2.9 0 0 1-1 .2Z"/>
</svg>