<svg xmlns="http://www.w3.org/2000/svg" width="152.085" height="172" viewBox="0 0 152.085 172"><g transform="translate(-761 -344)"><path d="M-56.471-46.5c-12.5,15.1-21.9,30.8-24.9,49.4-2.9,18.7.6,40.2,13.1,51.2,12.6,10.9,34.1,11.2,56,11.5,21.8.3,44,.6,59.8-10.4,15.9-10.9,25.5-33.1,21.2-50.9-4.2-17.9-22.3-31.6-38.2-46.6C14.729-57.4,1.029-74-13.571-75-28.271-76-43.971-61.5-56.471-46.5Z" transform="translate(843.328 435.049)" fill="#f8f5ff"/><g transform="translate(9 9)"><g transform="translate(785.962 335)"><path d="M449.346,741.778l-.092-.277a1.573,1.573,0,0,0-.432-.8,1.862,1.862,0,0,0-1.912-.493,23.378,23.378,0,0,0-3.577-.586c-1.079-.247-2.159-.524-3.238-.74-.463-.092-1.018-.154-1.573-.247-.154-.062-.278-.123-.432-.185-.308-.154-.586-.278-.894-.432-.278-.154-.555-.308-.833-.493a3.75,3.75,0,0,1-.432-.308,1.655,1.655,0,0,0-.493-.308h-.093c-.493-.463-.277-.74-.771-.339a13.2,13.2,0,0,1-3.978,1.665c-1.48.308-2.991.709-4.625.956-.678.093-1.141-.031-1.511.154-.586.308-.493.4-.894.863a7.98,7.98,0,0,1-1.141,1.141c-.185,0-.462.4-.648.493-3.176,1.727-5.4,1.634-9,.678-.031-.093-.092-.154-.123-.247a.979.979,0,0,0-1.758.216,28.116,28.116,0,0,0-.493,3.022c.031.093.031.185.062.278.092.987.216,2.806.247,3.793a4.541,4.541,0,0,0,3.546,2.313c.062-.308.093-.771.247-.771a1.885,1.885,0,0,0,.432-.216,17.338,17.338,0,0,0,2.189,2.775c.123.123.277.463.4.586a8.743,8.743,0,0,0,2.1,1.357,11.618,11.618,0,0,0,2.344,1.11,7.219,7.219,0,0,0,.771.216c.092.031.216.092.308.123a5.833,5.833,0,0,0,4.194,1.264,1.157,1.157,0,0,0,.308.031,3.389,3.389,0,0,0,.8-.062,4.532,4.532,0,0,0,3.33-.339,1.547,1.547,0,0,0,.4-.154,1.511,1.511,0,0,1,.216-.092h.031a1.765,1.765,0,0,0,.863-.432,5.512,5.512,0,0,0,.771-.678,1.563,1.563,0,0,0,.277-.493.234.234,0,0,0,.123-.062.989.989,0,0,0,.154-.833,6.814,6.814,0,0,0-.154-.771,7.2,7.2,0,0,0-.648-1.511,6.023,6.023,0,0,0-1.973-2.066,22.065,22.065,0,0,0-1.357-1.85,1.566,1.566,0,0,0-.278-.4l-.555-.555a16.039,16.039,0,0,0-1.11-1.418c-.062-.062-.093-.123-.154-.185,2.652,1.2,6.013,1.11,8.757.771a11.261,11.261,0,0,0,5.612-.74,7.341,7.341,0,0,0,3.269-1.018,6.2,6.2,0,0,0,2.1-1.2,4.678,4.678,0,0,0,.987-1.2h0A.973.973,0,0,0,449.346,741.778Z" transform="translate(-397.176 -586.669)"/><path d="M429.8,265.786c-.586.123-1.357-.031-1.943.092-.062-.031-.093-.092-.154-.123a2.132,2.132,0,0,0-1.3.123c-.308.092-.247-.339-.4-.031-.185.339-.093.4-.123.771a13.889,13.889,0,0,1-.339,1.974,15.406,15.406,0,0,1-2.405,5.674,14.649,14.649,0,0,1-1.758,2.128,5.931,5.931,0,0,1-1.912,1.172c0-1.3.031-3.176-.092-4.5a1.552,1.552,0,0,0-1.388-1.449,2.9,2.9,0,0,0-.678-.37,3.485,3.485,0,0,0-2.929.524,1.489,1.489,0,0,0-1.418,1.48,31.146,31.146,0,0,1-.031,5.088c-.062.771,0,1.85-.678,2.344a11.017,11.017,0,0,1-6.753,2,9.575,9.575,0,0,1-3.454-.925c-.863-.37-1.758-.74-2.652-1.048-.771-.277-1.758-.863-2.59-.555a1.209,1.209,0,0,0-.432.247c-.092.062-.247.339-.339.37-1.048.463-2.1.894-3.145,1.357a1.473,1.473,0,0,0-.555,2.189,1.594,1.594,0,0,0-.062.339,9.329,9.329,0,0,0,.031,2.621,7.335,7.335,0,0,1,.093,1.2,1.094,1.094,0,0,0-.278.123c-.432.216-.894.432-1.326.678a27.441,27.441,0,0,0-2.96-4.07,1.7,1.7,0,0,0-.278-.216,3.491,3.491,0,0,0-.4-.308,17.593,17.593,0,0,0-4.872-2.714,1.225,1.225,0,0,0-.493-.555,3.229,3.229,0,0,0-.863-.308,1.341,1.341,0,0,0-.648-.278c-1.388-.185-3.669,2.374-4.656,3.207-.586.493-1.11.987-1.634,1.48a.907.907,0,0,0-.432.463c-3.053,3.207-4.872,7.061-4.224,11.779v.031a74.935,74.935,0,0,0-1.727,12.55,68.368,68.368,0,0,0,.493,12.3c.278,2.066.617,4.132,1.048,6.2.463,2.251.833,4.286,2.5,6.013a.817.817,0,0,0,.185.154,3.3,3.3,0,0,0,.493.432,2.59,2.59,0,0,0,2.559,1.079c3.392,1.326,7.616,1.233,11.008,1.048a41.6,41.6,0,0,0,17.453-4.78,1.743,1.743,0,0,0,.771-.863,1.943,1.943,0,0,0,.462-.863c4.317-1.511,3.022-8.942,2.683-12.365a69.15,69.15,0,0,0-2.374-12.581.425.425,0,0,1,.123-.093,32.84,32.84,0,0,0,12.4-18.1c.031,0,.031,0,.062-.031a16.156,16.156,0,0,0,7.771-5.674c3.885-4.009,5.92-10.793,6.568-16.22A2.885,2.885,0,0,0,429.8,265.786Zm-26.334,29.726c-.185.154-.37.278-.555.432a13.372,13.372,0,0,0-.493-1.912,18.93,18.93,0,0,0-.247-2.313,2.233,2.233,0,0,0,1.079.339,27.364,27.364,0,0,0,3.885-.092A28.563,28.563,0,0,1,403.464,295.511Z" transform="translate(-367.513 -243.124)" fill="#ab9eff"/><path d="M426.335,204.093a2.669,2.669,0,0,0-.339-1.819,10.021,10.021,0,0,0-2.035-4.039,14.88,14.88,0,0,0-5.489-4.039,16.5,16.5,0,0,0-13.506.123,17.047,17.047,0,0,0-4.934,3.546,10.861,10.861,0,0,0-1.943,2,15.6,15.6,0,0,0-3.114,5.18,13.946,13.946,0,0,0-1.326,4.44v.185a19.144,19.144,0,0,0,.339,10.7,13.171,13.171,0,0,0,.74,1.881,3.557,3.557,0,0,0,.555,1.2,3.414,3.414,0,0,0,.956.925,1.482,1.482,0,0,0,1.511.154,1.6,1.6,0,0,0,.8-1.079,2.165,2.165,0,0,0,.031-.771,3.221,3.221,0,0,0-.123-.524c.185-.956.37-1.943.555-2.9.154-.74.308-1.511.432-2.282a7.587,7.587,0,0,0,.062-.8h0c-.709-1.141-1.727-2.066-2-3.361a2.389,2.389,0,0,1-.216-.493.9.9,0,0,1-.062-.278c.154-.432.277-.863.432-1.3a3.292,3.292,0,0,1,2.035-1.48,2.418,2.418,0,0,1,1.048-.062,13.8,13.8,0,0,1,1.542.339,4.793,4.793,0,0,0,3.084-.092c1.573-.678,2.374-2.282,3.3-3.608a6.745,6.745,0,0,1,3.608-2.621,7.857,7.857,0,0,1,2.374-.308,1.629,1.629,0,0,1,.4.031c.709.185,1.418.37,2.159.555a.854.854,0,0,0,.277.031c.617.4,1.2.8,1.819,1.2a4.715,4.715,0,0,0,1.943,1.018,4.393,4.393,0,0,0,2.806.863h0a.922.922,0,0,0,1.079-.339.03.03,0,0,0,.031-.031A2.26,2.26,0,0,0,426.335,204.093Z" transform="translate(-385.174 -192.717)"/><g transform="translate(1.188 41.826)"><path d="M405.05,362.027c-5.828,3.423-13.013,5.18-19.7,3.639a18.23,18.23,0,0,1-9.066-4.934,15.49,15.49,0,0,1-3.238-5.15,14.1,14.1,0,0,1,.092-10.577c.185-.4-.432-.771-.586-.339a14.648,14.648,0,0,0-.524,10.114,16.337,16.337,0,0,0,2.714,5.242c4.5,5.828,12.427,7.647,19.427,6.63a30.6,30.6,0,0,0,11.255-4.009c.339-.247,0-.833-.37-.617Z" transform="translate(-371.367 -344.473)"/></g><g transform="translate(49.348 17.466)"><path d="M530.186,254.1a24.382,24.382,0,0,1,.308-4.5c-.154.092-.278.154-.432.247a3.293,3.293,0,0,1,1.758,3.392,13.6,13.6,0,0,1-.278,2.251,10.876,10.876,0,0,1-.493,1.973c-.37.863-1.018,1.573-1.326,2.5a4.557,4.557,0,0,0-.216,1.3,15,15,0,0,0-.031,1.665c.062,1.079.278,2.128.37,3.176a13.948,13.948,0,0,1-.216,3.392,54.291,54.291,0,0,1-2.066,7.832.352.352,0,0,0,.678.185,59.907,59.907,0,0,0,1.973-7.339,18.133,18.133,0,0,0,.37-3.392c-.031-1.141-.247-2.251-.37-3.392a10.4,10.4,0,0,1-.062-1.7,5.2,5.2,0,0,1,.247-1.542,7.691,7.691,0,0,1,.678-1.326,5,5,0,0,0,.678-1.264,16.333,16.333,0,0,0,.771-4.409,3.892,3.892,0,0,0-2.251-3.978.351.351,0,0,0-.432.247,26.422,26.422,0,0,0-.339,4.687c-.031.432.648.432.678,0Z" transform="translate(-527.55 -249.148)"/></g><g transform="translate(49.114 15.43)"><path d="M531.356,243.612a2.7,2.7,0,0,0-1.727-1.048,2.063,2.063,0,0,0-1.85.771,5.649,5.649,0,0,0-.987,3.793,10.071,10.071,0,0,0,.247,2.159c.092.432.771.247.678-.185a8.765,8.765,0,0,1,.062-4.286,2.1,2.1,0,0,1,1.264-1.511,1.788,1.788,0,0,1,1.85.8c.247.339.74-.154.463-.493Z" transform="translate(-526.788 -242.547)"/></g><g transform="translate(47.37 15.457)"><path d="M524.67,242.87c-.185,0-.308-.154-.493-.185a.9.9,0,0,0-.493-.031,2.965,2.965,0,0,0-.894.247,2.594,2.594,0,0,0-1.326,1.172,3.011,3.011,0,0,0-.216,1.018c-.031.463-.093.894-.093,1.357a27.07,27.07,0,0,0,.031,2.744c.031.432.709.432.678,0a19.732,19.732,0,0,1-.031-2.344c0-.4.031-.8.062-1.233a6.81,6.81,0,0,1,.123-1.079,1.744,1.744,0,0,1,.987-1.048,3.353,3.353,0,0,1,.74-.216c.308-.062.586.216.925.216.432.093.432-.617,0-.617Z" transform="translate(-521.134 -242.634)"/></g><g transform="translate(45.472 15.814)"><path d="M518.407,243.826a3.741,3.741,0,0,0-2.1.247,2.524,2.524,0,0,0-.987,1.511,11.153,11.153,0,0,0-.154,4.841c.062.432.74.247.678-.185a10.831,10.831,0,0,1,.092-4.225,1.978,1.978,0,0,1,.678-1.264c.493-.37,1.233-.216,1.789-.185a.371.371,0,0,0,0-.74Z" transform="translate(-514.977 -243.793)"/></g><g transform="translate(15.607 17.105)"><path d="M448.677,247.985c-.956-.092-1.6.771-1.973,1.511a7.585,7.585,0,0,0-.709,2.96,7.734,7.734,0,0,0,.555,3.022,10.527,10.527,0,0,1,.74,3.053c.062,2.282.339,4.533.278,6.815a22.627,22.627,0,0,1-1.326,6.691,24.493,24.493,0,0,1-6.661,10.022,23.564,23.564,0,0,1-10.361,5.643,11.368,11.368,0,0,1-6.013-.031,6.964,6.964,0,0,1-4.379-3.793c-.154-.4-.833-.216-.678.185,1.449,3.454,5.273,4.965,8.819,4.687a21.655,21.655,0,0,0,10.793-4.317,25.241,25.241,0,0,0,7.771-8.942,24.816,24.816,0,0,0,2.22-6.26,25.412,25.412,0,0,0,.432-7c-.062-1.326-.154-2.621-.216-3.947a12.624,12.624,0,0,0-.863-3.33,7.04,7.04,0,0,1-.278-3.577c.185-.863.678-2.837,1.881-2.714.4.062.4-.617-.031-.678Z" transform="translate(-418.127 -247.978)"/></g><g transform="translate(63.527 11.711)"><path d="M573.984,234.13c2.128-.339,4.255-.709,6.383-1.048,2.96-.493,5.89-.987,8.85-1.449l2.775-.463c.432-.062.247-.74-.185-.678-2.128.339-4.255.709-6.383,1.048-2.96.493-5.89.987-8.85,1.449l-2.775.463c-.463.093-.278.74.185.678Z" transform="translate(-573.531 -230.487)"/></g><g transform="translate(51.948 15.718)"><path d="M536.419,244.936c1.634-.247,3.3-.524,4.934-.771a.361.361,0,0,0,.247-.432.378.378,0,0,0-.432-.247c-1.634.247-3.3.524-4.934.771a.362.362,0,0,0-.247.432c.031.216.247.278.432.247Z" transform="translate(-535.981 -243.481)"/></g><g transform="translate(80.427 11.672)"><path d="M628.479,237.741a10.749,10.749,0,0,0,.678,2.775c.216.493.617,1.418,1.3,1.388.617-.031.894-.8,1.048-1.3a10.39,10.39,0,0,0,.432-2.374,15.357,15.357,0,0,0-.524-5.427,6.907,6.907,0,0,0-.832-2.035c-.493-.678-1.172-.463-1.542.216a7.434,7.434,0,0,0-.648,3.053,15.4,15.4,0,0,0,.123,3.577c.062.463.833.493.771,0a16.761,16.761,0,0,1,.093-5.119,3.615,3.615,0,0,1,.278-.987c.062-.123.154-.247.216-.37s.123,0,0-.062c.031.031.062.092.093.123a5.4,5.4,0,0,1,.678,1.634,13.96,13.96,0,0,1,.586,4.348,12.765,12.765,0,0,1-.185,2.159,5.451,5.451,0,0,1-.463,1.573.553.553,0,0,1-.154.216c.062-.031-.031-.031-.092-.123a3.043,3.043,0,0,1-.524-.987,11.757,11.757,0,0,1-.586-2.5C629.158,237.063,628.418,237.279,628.479,237.741Z" transform="translate(-628.336 -230.359)"/></g><g transform="translate(35.157 18.064)"><path d="M489.906,255.316c-1.2,0-2.405.031-3.608.031-1.264,0-2.529.062-3.793-.062.092.031.154.062.247.093a2.05,2.05,0,0,1-.432-2.035,2.384,2.384,0,0,1,.216-.493c.123-.216.247-.185.493-.216.524-.062,1.048-.093,1.573-.154,2.066-.216,4.163-.432,6.229-.709.432-.062.432-.74,0-.678-1.634.216-3.238.4-4.872.586-.8.092-1.6.154-2.405.247a4.378,4.378,0,0,0-1.11.123,1.278,1.278,0,0,0-.555.586,2.76,2.76,0,0,0,.216,3.053.763.763,0,0,0,.648.339c.37.031.709.031,1.079.031h1.881c1.388,0,2.806,0,4.194-.031.462-.031.462-.74,0-.709Z" transform="translate(-481.527 -251.087)"/></g><g transform="translate(53.234 22.409)"><path d="M540.474,266.019c1.449-.123,2.929-.123,4.41-.154,2.1-.031,4.194,0,6.26.031,4.44.031,8.912.123,13.352.154,1.7,0,3.392.031,5.088-.031.432-.031.463-.709,0-.678-3.546.154-7.092.031-10.638-.031-4.44-.062-8.912-.154-13.352-.123-1.7,0-3.423,0-5.119.154-.432.031-.432.74,0,.678Z" transform="translate(-540.15 -265.18)"/></g><g transform="translate(40.492 22.612)"><path d="M502.581,267.12a2.269,2.269,0,0,0-1.943-.308,1.63,1.63,0,0,1-.863-.062.719.719,0,0,1-.216-.216c-.031-.031,0-.031-.031-.062,0,0-.031-.093-.031-.031v-.093c.062-.185.062-.37-.123-.463a.316.316,0,0,0-.463.123,1.062,1.062,0,0,0,.154,1.079,1.338,1.338,0,0,0,.987.493,7.215,7.215,0,0,0,1.172-.092,1,1,0,0,1,.833.185c.37.216.863-.247.524-.555Z" transform="translate(-498.827 -265.836)"/></g><g transform="translate(51.273 16.591)"><path d="M534.473,246.4a2.536,2.536,0,0,0-.586,2.405.352.352,0,0,0,.678-.185.951.951,0,0,1-.062-.247v-.524h0c0-.062.031-.092.031-.123.031-.092.031-.154.062-.247,0-.031,0-.031.031-.062.031-.062-.031.031,0,0s.031-.093.062-.123c.031-.062.093-.154.123-.216l.031-.031.031-.031.093-.093a.361.361,0,0,0-.493-.524Z" transform="translate(-533.792 -246.311)"/></g><g transform="translate(76.8 12.611)"><path d="M617.044,233.649a10.309,10.309,0,0,0-.247,5.211c.093.432.771.247.678-.185a9.558,9.558,0,0,1,.247-4.841.352.352,0,0,0-.678-.185Z" transform="translate(-616.573 -233.403)"/></g><g transform="translate(81.016 16.274)"><path d="M631.559,245.536c-.432,1.2-.863,2.436-1.3,3.639a.352.352,0,0,0,.678.185c.432-1.2.863-2.436,1.3-3.639a.351.351,0,0,0-.247-.432.438.438,0,0,0-.432.247Z" transform="translate(-630.248 -245.285)"/></g><g transform="translate(30.566 42.359)"><path d="M466.811,345.112a11.413,11.413,0,0,0,9.436,1.11.352.352,0,0,0-.185-.678,10.778,10.778,0,0,1-8.912-1.048.352.352,0,0,0-.339.617Z" transform="translate(-466.637 -344.448)"/></g><g transform="translate(58.344 15.138)"><path d="M558.6,241.938c0,.8-.031,1.6-.062,2.405-.031.37.093,1.172-.37,1.326-.216.062-.339-.123-.432-.277a2.427,2.427,0,0,1-.247-.925,5.96,5.96,0,0,1,.062-2.22.378.378,0,0,0-.247-.432.351.351,0,0,0-.432.247,8.391,8.391,0,0,0-.123,2.159,3.291,3.291,0,0,0,.586,1.85,1,1,0,0,0,1.511,0,2.269,2.269,0,0,0,.37-1.542c.031-.833.062-1.7.062-2.529,0-.524-.679-.524-.679-.062Z" transform="translate(-556.721 -241.599)"/></g><g transform="translate(60.191 14.926)"><path d="M562.8,241.525a1.891,1.891,0,0,0-.062.925c.031.308,0,.648,0,.956a2.3,2.3,0,0,0,.524,1.788.97.97,0,0,0,1.449-.278,2.366,2.366,0,0,0,.432-1.449c0-.74-.185-1.48-.216-2.22-.031-.432-.709-.463-.678,0,.031.678.185,1.357.216,2.035a1.529,1.529,0,0,1-.432,1.326c-.462.4-.586-.709-.617-.956-.031-.37.031-.709.031-1.079a2.5,2.5,0,0,1,.031-.956.351.351,0,0,0-.247-.432.5.5,0,0,0-.432.339Z" transform="translate(-562.711 -240.912)"/></g><g transform="translate(61.754 14.582)"><path d="M569.791,239.828c-.555.247-.555.956-.524,1.48a6.744,6.744,0,0,1,.093,1.573.439.439,0,0,1-.062.185.311.311,0,0,1-.031.093c-.031.031-.031.062-.062.093.031-.062-.092.062-.062.031s-.062.031-.062.031c.062-.031-.031,0-.062,0,.062-.031,0,0-.031,0h-.062c-.062-.031.031.031-.031-.031-.062-.031,0,.031-.031-.031l-.031-.031h0c0-.031-.062-.123-.031-.062a2.534,2.534,0,0,1-.062-.709c-.062-.709-.185-1.418-.278-2.128a.361.361,0,0,0-.432-.247.378.378,0,0,0-.247.432c.093.648.216,1.3.247,1.973a4.1,4.1,0,0,0,.093.863,1.026,1.026,0,0,0,.432.524.9.9,0,0,0,1.141-.185,2.032,2.032,0,0,0,.339-1.634c-.031-.339-.093-.678-.093-1.018,0-.216-.062-.586.185-.678a.328.328,0,0,0,.123-.463.479.479,0,0,0-.463-.062Z" transform="translate(-567.781 -239.796)"/></g><g transform="translate(53.989 13.147)"><path d="M544.449,237.813a1.634,1.634,0,0,1-1.018-.062c-.432-.247.031-.648.339-.771a3.647,3.647,0,0,1,1.634-.093,3.937,3.937,0,0,0,1.7-.154,6.118,6.118,0,0,0,.617-.339,2.651,2.651,0,0,1,.833-.278,10.221,10.221,0,0,1,1.7-.247,5.393,5.393,0,0,1,1.727.154c.339.093,1.388.37,1.388.8a.34.34,0,0,0,.678,0c.031-1.079-1.665-1.48-2.467-1.6a7.694,7.694,0,0,0-3.454.308,3.617,3.617,0,0,0-.74.278,2.7,2.7,0,0,1-.8.37,10.922,10.922,0,0,1-2-.031c-.8,0-2,.37-1.974,1.388s1.326,1.141,2.1.956c.37-.092.185-.771-.247-.678Z" transform="translate(-542.598 -235.143)"/></g><g transform="translate(56.809 15.662)"><path d="M551.791,243.67a6.606,6.606,0,0,0,.216,2.806,1.468,1.468,0,0,0,.8.956,1.047,1.047,0,0,0,1.018-.247,1.313,1.313,0,0,0,.185-1.48c-.216-.4-.8-.031-.586.339a.558.558,0,0,1,.031.493c0,.031-.031.062-.062.092s0,.031-.062.062l-.031.031h0s-.093.062-.031.031c0,0-.123.031-.062.031h-.123c-.062,0,.031,0-.062-.031l-.031-.031h0c-.031-.031-.062-.062-.062-.093a.9.9,0,0,1-.123-.247,5.93,5.93,0,0,1-.247-2.744.342.342,0,0,0-.339-.339.436.436,0,0,0-.432.37Z" transform="translate(-551.743 -243.3)"/></g><g transform="translate(11.697 33.514)"><path d="M405.679,313.574a54.747,54.747,0,0,1,8.326,4.07c.37.216.74-.37.339-.586a58.21,58.21,0,0,0-8.48-4.132c-.432-.185-.586.463-.185.648Z" transform="translate(-405.446 -312.893)"/></g><g transform="translate(9.658 36.365)"><path d="M409.03,324.531c-.833,2.344-1.665,4.718-2.467,7.061.185-.062.4-.092.586-.154a56.738,56.738,0,0,1-7.74-7.894c-.277-.339-.771.154-.493.493a62.4,62.4,0,0,0,7.74,7.894.357.357,0,0,0,.586-.154c.833-2.344,1.665-4.718,2.467-7.061a.352.352,0,0,0-.678-.185Z" transform="translate(-398.834 -323.43)"/></g><g transform="translate(20.085 37.212)"><path d="M432.695,326.736c.925,1.542,1.85,3.084,2.744,4.625.216.37.833.031.586-.339-.925-1.542-1.85-3.084-2.744-4.625a.338.338,0,1,0-.586.339Z" transform="translate(-432.648 -326.217)"/></g><g transform="translate(24.242 35.047)"><path d="M447.139,324.948a28.572,28.572,0,0,1-.277-6.075c.031-.432-.678-.432-.678,0a28.334,28.334,0,0,0,.308,6.26c.062.432.74.247.648-.185Z" transform="translate(-446.131 -318.55)"/></g><g transform="translate(24.627 33.094)"><path d="M447.539,314.487c.833.617,1.7,1.2,2.529,1.819l.648.463a1.928,1.928,0,0,0,.617.4c.493.154.709-.277.863-.648a12.554,12.554,0,0,0,.8-2.282,8.253,8.253,0,0,0,.154-2.467c-.031-.432-.709-.432-.678,0a7.254,7.254,0,0,1-.093,2.158,10.563,10.563,0,0,1-.648,1.974,2.733,2.733,0,0,1-.247.524c-.031.031-.031.062-.062.123.093-.031.123-.031.062-.062-.031-.062-.216-.154-.277-.185-.37-.277-.74-.524-1.11-.8-.74-.524-1.511-1.079-2.251-1.6-.339-.277-.678.308-.308.586Z" transform="translate(-447.379 -311.45)"/></g><g transform="translate(3.726 79.063)"><path d="M379.844,481.637a39.834,39.834,0,0,0,14.215,2.282,35.249,35.249,0,0,0,3.608-.123c1.079-.092,2.128-.277,3.176-.462a30.78,30.78,0,0,0,6.167-1.819,19.287,19.287,0,0,0,6.013-4.039c.308-.308-.185-.8-.493-.493A21.658,21.658,0,0,1,401.4,482.5a41.729,41.729,0,0,1-13.568.339A34.2,34.2,0,0,1,380,480.928c-.4-.123-.586.555-.154.709Z" transform="translate(-379.597 -476.883)"/></g><g transform="translate(3.041 73.581)"><path d="M388.423,572.728a104.024,104.024,0,0,0-.709-16.1c-.648-5.55-1.573-11.039-2.621-16.528-1.048-5.458-2.189-10.916-3.207-16.4-.987-5.211-1.819-10.484-2.652-15.726-.833-5.3-1.6-10.762-.987-16.127.062-.648.185-1.264.308-1.912.093-.432-.586-.617-.648-.185-.987,5.211-.432,10.608.308,15.85.771,5.273,1.6,10.546,2.559,15.788,1.018,5.489,2.159,10.947,3.207,16.4,1.079,5.52,2.1,11.07,2.806,16.651a111.62,111.62,0,0,1,1.048,16.343c0,.648-.031,1.3-.062,1.943-.062.432.617.432.648,0Z" transform="translate(-377.376 -489.503)"/></g><g transform="translate(13.404 86.732)"><path d="M426.1,532.474a55.751,55.751,0,0,1-.617,6.414c-.278,2.159-.4,4.348-.586,6.537-.37,4.317-.709,8.665-1.018,12.982-.617,8.665-1.079,17.33-.863,26.025a117.724,117.724,0,0,0,1.141,14.37c.031-.123.062-.216.093-.339a9.921,9.921,0,0,1-9.991,2.621,9.136,9.136,0,0,1-2.775-1.3c-.37-.247-.709.339-.339.586a11.055,11.055,0,0,0,11.286.432,8.475,8.475,0,0,0,2.251-1.788c.216-.247.154-.4.123-.709-.062-.4-.123-.8-.154-1.172-.093-.709-.185-1.388-.247-2.1-.308-2.868-.493-5.7-.586-8.572-.216-5.766-.123-11.5.154-17.268.278-5.8.678-11.594,1.141-17.36.216-2.9.462-5.8.709-8.727.123-1.449.216-2.868.4-4.317.185-1.418.4-2.837.524-4.255.062-.678.092-1.388.092-2.066-.062-.432-.74-.432-.74,0Z" transform="translate(-410.982 -532.15)"/></g><g transform="translate(27.78 82.575)"><path d="M460.408,490.43c.031,1.912.154,3.824.123,5.735a4.183,4.183,0,0,1-.524,2.189,3.818,3.818,0,0,1-2.159,1.233.352.352,0,0,0,.185.678,4.81,4.81,0,0,0,2.282-1.2,3.608,3.608,0,0,0,.863-2.282c.092-.956,0-1.974,0-2.929-.031-1.141-.062-2.251-.062-3.392a.355.355,0,1,0-.709-.031Z" transform="translate(-457.603 -490.087)"/></g><g transform="translate(26.499 69.618)"><path d="M463.425,476.974a147.288,147.288,0,0,1,1.11,18.07,152.979,152.979,0,0,1-1.079,18.008c-.37,2.93-.771,5.859-.987,8.819s-.308,5.89-.278,8.85a146.479,146.479,0,0,0,1.233,17.607c.185,1.419.37,2.868.586,4.286.093.709.247,1.449.308,2.159a1.969,1.969,0,0,1-.555,1.819,4.751,4.751,0,0,1-1.634.8c-.678.216-1.357.432-2.035.617a28.243,28.243,0,0,1-4.194.894,16.452,16.452,0,0,1-2.128.154.34.34,0,0,0,0,.678,30.438,30.438,0,0,0,8.418-1.665c1.079-.339,2.282-.771,2.714-1.943a3.888,3.888,0,0,0,.062-1.881c-.092-.709-.216-1.418-.339-2.128a161.292,161.292,0,0,1-1.7-18.07,106.97,106.97,0,0,1,.833-18.039,151.689,151.689,0,0,0,1.449-18.286,142.661,142.661,0,0,0-.833-18.5c-.093-.74-.154-1.511-.278-2.251-.062-.432-.74-.432-.678,0Z" transform="translate(-453.45 -476.65)"/></g><g transform="translate(29.022 149.431)"><path d="M469.947,736.043a12.4,12.4,0,0,0,4.132,2.189,26.069,26.069,0,0,0,4.379.8,22.626,22.626,0,0,1,4.533.863,1.9,1.9,0,0,1,1.48,1.388,2.385,2.385,0,0,1-.987,2.1,10.749,10.749,0,0,1-3.145,1.573,31.9,31.9,0,0,1-3.361.925,29.626,29.626,0,0,1-7.74.617c-2.405-.154-5.15-.648-7-2.344-.339-.308-.833.185-.493.493a11.047,11.047,0,0,0,6.506,2.436,28.572,28.572,0,0,0,8.11-.4,20.617,20.617,0,0,0,6.846-2.282c1.264-.771,2.5-2.374,1.634-3.885-.74-1.326-2.683-1.542-4.039-1.788-1.758-.308-3.577-.432-5.335-.8a12.129,12.129,0,0,1-5.119-2.344c-.247-.308-.771.185-.4.463Z" transform="translate(-461.63 -735.482)"/></g><g transform="translate(16.149 156.211)"><path d="M430.589,758.128c.8.555,1.6,1.11,2.344,1.7a6.691,6.691,0,0,1,1.758,1.85,12.334,12.334,0,0,0,1.233,1.881,18.927,18.927,0,0,0,1.6,1.542,10.549,10.549,0,0,1,2.929,3.361,2.433,2.433,0,0,1,.154,2.066,2.4,2.4,0,0,1-.771.987,5.413,5.413,0,0,1-2.652.956,14.483,14.483,0,0,1-3.269.031,17.5,17.5,0,0,1-6.136-1.573,15.506,15.506,0,0,1-7.277-7.246c-.185-.4-.771-.062-.586.339a15.962,15.962,0,0,0,6.63,7.061,17.16,17.16,0,0,0,6.846,2.066,18.754,18.754,0,0,0,3.484.062,7.05,7.05,0,0,0,3.053-.925,3.282,3.282,0,0,0,1.542-2.436,4.241,4.241,0,0,0-.833-2.467,9.114,9.114,0,0,0-1.511-1.758c-1.326-1.264-2.775-2.282-3.669-3.916a5.765,5.765,0,0,0-1.85-2.189c-.863-.709-1.788-1.357-2.714-1.973-.339-.278-.678.339-.308.586Z" transform="translate(-419.884 -757.472)"/></g><g transform="translate(13.001 154.354)"><path d="M410.054,751.774c.278,2.313-.678,4.625-.277,6.938a3.808,3.808,0,0,0,1.634,2.621,2.665,2.665,0,0,0,2.744.154c.4-.216.031-.833-.339-.586a2.023,2.023,0,0,1-2.374-.4,3.715,3.715,0,0,1-1.018-2.744c-.031-2,.617-3.947.37-5.982-.092-.432-.8-.432-.74,0Z" transform="translate(-409.677 -751.45)"/></g><g transform="translate(44.918 27.727)"><path d="M513.681,284.3a6.181,6.181,0,0,1,6.013-.74c.4.185.771-.432.339-.586a6.844,6.844,0,0,0-6.691.74c-.37.247-.031.863.339.586Z" transform="translate(-513.182 -282.424)"/></g><g transform="translate(30.366 20.289)"><path d="M467.226,258.58a.744.744,0,0,0-.833-.092.711.711,0,0,0-.4.678.83.83,0,0,0,.586.709.733.733,0,0,0,.8-.247,1.14,1.14,0,0,0,.216-.432.663.663,0,0,0,0-.247.6.6,0,0,0-.092-.308.453.453,0,0,0-.185-.154.247.247,0,0,0-.247.031,2.346,2.346,0,0,0-.617.617.28.28,0,0,0,0,.308.324.324,0,0,0,.278.154h-.062c.031,0,.062,0,.062.031a.107.107,0,0,1-.062-.031l.185.092a.494.494,0,0,0,.462.031.663.663,0,0,0,.278-.37.9.9,0,0,0,.031-.493.7.7,0,0,0-.524-.524.815.815,0,0,0-.709.123.906.906,0,0,0-.308.37.457.457,0,0,0,.062.4,1.082,1.082,0,0,0,.617.37.782.782,0,0,0,.37.062.54.54,0,0,0,.37-.4.564.564,0,0,0-.092-.493.606.606,0,0,0-.524-.278.737.737,0,0,0-.74.74.527.527,0,0,0,.432.493.546.546,0,0,0,.524-.247.424.424,0,0,0,.031-.339c-.031-.062-.062-.154-.154-.185a.328.328,0,0,0-.247-.031.306.306,0,0,0-.216.37V259.2a.108.108,0,0,1,.031-.062c-.031.031-.031,0,.031-.031l-.031.031c0,.031.062-.031.031-.031h-.031a.108.108,0,0,0,.062-.031c-.031,0-.031,0-.062.031h.062a.108.108,0,0,1,.062.031h0c.031.031.031.031.031,0h0s.031.062.031.031a.03.03,0,0,0-.031-.031.108.108,0,0,0,.031.062c0-.031,0-.031-.031-.062v.093c0-.031.031-.062.031-.093a.108.108,0,0,1-.031.062c0-.031.031-.031.031-.062l-.031.031.031-.031h0a.108.108,0,0,0,.062-.031.108.108,0,0,0-.062.031c.031,0,.062-.031.123-.031h-.062a.113.113,0,0,1,.093.031.108.108,0,0,1-.062-.031c.031,0,.031.031.062.031.062.031-.062-.062,0,0,.031.031-.062-.062,0-.031a.03.03,0,0,0,.031.031.108.108,0,0,0-.031-.062c0,.031.031.062.031.092v-.092c0,.031,0,.062-.031.062a.108.108,0,0,1,.031-.062.03.03,0,0,1-.031.031c-.031.062.031-.031.031-.031l.031-.031a.03.03,0,0,0-.031.031.108.108,0,0,0,.062-.031h.123a2,2,0,0,1-.4-.123.108.108,0,0,1,.062.031.671.671,0,0,1-.154-.093l.031.031h-.031l-.031-.031c-.031-.031.031.062.031.031a.03.03,0,0,0-.031-.031.108.108,0,0,0,.031.062v.062a.108.108,0,0,1-.031.062c0-.031.031-.031.031-.062l-.031.031.031-.031.031-.031h0c.031-.031-.062.031-.031.031a.03.03,0,0,0,.031-.031.108.108,0,0,0,.062-.031.108.108,0,0,0-.062.031.278.278,0,0,1,.154-.031h-.031c.062,0,.092.031.154.031a.108.108,0,0,1-.062-.031c.031,0,.031.031.062.031l-.031-.031a.03.03,0,0,1,.031.031l.031.031c.031.031-.031-.062-.031-.031s.031.031.031.062a.108.108,0,0,0-.031-.062c0,.031.031.062.031.093v-.062a.725.725,0,0,1-.062.247.108.108,0,0,1,.031-.062c0,.031,0,.031-.031.062s-.062.031.031-.031l-.031.031.031-.031h0a.108.108,0,0,0,.062-.031h.062a.108.108,0,0,1,.062.031c-.062-.031-.093-.062-.154-.092a.521.521,0,0,0-.308-.093l.278.463.031-.031h0l.062-.062c.031-.031.062-.093.123-.123.031-.031.092-.062.123-.123.031-.031.092-.062.031-.031.031-.031.062-.031.062-.062a2.273,2.273,0,0,1-.432-.123h0a.108.108,0,0,0-.031-.062.185.185,0,0,1,.031.123v-.031a1.335,1.335,0,0,1-.031.154.108.108,0,0,1,.031-.062c0,.031-.031.062-.062.092h0l-.031.031-.031.031c-.062.062.062-.031,0,0-.031.031-.062.031-.093.062a.108.108,0,0,0,.062-.031c-.031,0-.062.031-.093.031h.062c-.031,0-.093-.031-.123-.031a.108.108,0,0,1,.062.031c-.031,0-.062-.031-.092-.031h0l-.031-.031-.031-.031c-.031-.031.031.062,0,.031s-.031-.062-.062-.092a.108.108,0,0,0,.031.062c0-.031-.031-.062-.031-.092v.092a.113.113,0,0,1,.031-.092.107.107,0,0,1-.031.062.107.107,0,0,1,.031-.062c.031-.031-.062.062,0,.031l.031-.031c.031-.031.062-.031-.031,0l.031-.031a.108.108,0,0,0,.062-.031.108.108,0,0,0-.062.031.185.185,0,0,1,.123-.031h-.062a.113.113,0,0,1,.092.031.108.108,0,0,1-.062-.031c.031,0,.031.031.062.031s.031.031-.031-.031a.03.03,0,0,1,.031.031.3.3,0,0,0,.432,0c.216-.154.247-.339.123-.463Z" transform="translate(-465.989 -258.303)"/></g><g transform="translate(33.501 21.476)"><path d="M3.967,7.065A3.6,3.6,0,0,1,1.26,5.752a.325.325,0,0,1,.487-.431,2.839,2.839,0,0,0,3.645.719c.957-.5,1.549-1.372,1.439-1.812-.074-.3-.539-.338-.811-.337A5.281,5.281,0,0,1,2.288,2.467,4.934,4.934,0,0,1,1.206,1.016.325.325,0,0,1,1.8.755h0a4.379,4.379,0,0,0,.952,1.258A4.6,4.6,0,0,0,6.018,3.241c1.075,0,1.366.518,1.444.83.2.8-.577,1.918-1.767,2.544A3.7,3.7,0,0,1,3.967,7.065Z"/></g><g transform="translate(37.454 13.596)"><path d="M489.569,242.027c.247-1.7.462-3.392.678-5.119.031-.154-.154-.308-.308-.308-.185,0-.277.154-.308.308-.216,1.634-.432,3.3-.648,4.934a.293.293,0,0,0,.216.37.251.251,0,0,0,.37-.185Z" transform="translate(-488.975 -236.6)"/></g><g transform="translate(19.49 27.833)"><path d="M430.928,293.263a19.955,19.955,0,0,0,8.11-.092,7.211,7.211,0,0,0,3.515-1.943,29.8,29.8,0,0,0,2.652-3.577,18.515,18.515,0,0,0,2.035-4.5.3.3,0,0,0-.586-.154,21.164,21.164,0,0,1-4.1,7.308c-.185.247-.4.493-.586.709a3.8,3.8,0,0,1-.894.678,9.051,9.051,0,0,1-1.758.8,13.367,13.367,0,0,1-3.824.586,26.192,26.192,0,0,1-4.379-.339c-.4-.123-.555.463-.185.524Z" transform="translate(-430.718 -282.769)"/></g><g transform="translate(13.317 17.589)"><path d="M412.273,249.564a2.36,2.36,0,0,0-1.573,2.158.332.332,0,0,0,.308.308.309.309,0,0,0,.308-.308v-.247c.031-.093.031-.185.062-.278a.16.16,0,0,1,.062-.123h0c0-.031.031-.031.031-.062a.672.672,0,0,1,.154-.247c0-.031.031-.031.031-.062h0a.424.424,0,0,0,.092-.123,1.343,1.343,0,0,1,.216-.185c-.062.031.031,0,.031-.031.031,0,.031-.031.062-.031a.234.234,0,0,1,.123-.062c.031-.031.093-.031.123-.062.093-.031-.062.031.031,0a.108.108,0,0,0,.062-.031.306.306,0,0,0,.216-.37.248.248,0,0,0-.339-.247Z" transform="translate(-410.7 -249.548)"/></g><g transform="translate(25.497 27.511)"><path d="M459.2,284.462a6,6,0,0,1-4.841.956c-1.573-.37-3.577-1.573-3.546-3.392a.308.308,0,0,0-.617,0c-.031,2.035,2,3.454,3.793,3.947a6.6,6.6,0,0,0,5.52-.956c.308-.277,0-.8-.308-.555Z" transform="translate(-450.199 -281.725)"/></g><g transform="translate(7.523 0)"><path d="M396.687,229.97a21.576,21.576,0,0,0,.894-3.7c.185-1.233.216-2.5.4-3.731.185-1.264.524-2.529.74-3.793a4.949,4.949,0,0,0-.062-2.991c-.37-.863-1.018-1.542-1.449-2.344a3.256,3.256,0,0,1-.092-2.1,2.411,2.411,0,0,1,1.357-1.758,4.808,4.808,0,0,1,2.868.154,6.166,6.166,0,0,0,2.683.37,3.783,3.783,0,0,0,2.1-1.418c1.11-1.233,1.912-2.714,3.084-3.916a5.1,5.1,0,0,1,4.841-1.7,10.973,10.973,0,0,1,5.766,2.683c1.172.987,3.145,1.819,4.595,1.048,1.819-.956,1.943-3.454,1.326-5.15a11.858,11.858,0,0,0-3.608-5,17.748,17.748,0,0,0-5.242-3.114,16.8,16.8,0,0,0-12.365.339,21.178,21.178,0,0,0-5.55,3.454,20.217,20.217,0,0,0-4.009,4.841,17.009,17.009,0,0,0-2.22,5.92c-.278,1.665-.555,3.3-.709,5-.308,3.3-.154,7,2.066,9.682a8.942,8.942,0,0,0,1.912,1.665c.339.216.648-.308.308-.524a7.764,7.764,0,0,1-3.084-3.854,12.982,12.982,0,0,1-.709-4.872,34.26,34.26,0,0,1,.493-5.026,22.229,22.229,0,0,1,1.357-5.427,19.891,19.891,0,0,1,3.33-5.242,23.1,23.1,0,0,1,2.159-2.1,21.345,21.345,0,0,1,8.788-4.07,17.666,17.666,0,0,1,6.229.278,15.119,15.119,0,0,1,9.621,6.846,7.224,7.224,0,0,1,.987,2.868,3.36,3.36,0,0,1-.987,2.744c-1.449,1.2-3.454-.093-4.656-1.048-2.806-2.189-7.216-3.824-10.33-1.326a20.33,20.33,0,0,0-3.053,3.639,8.081,8.081,0,0,1-1.7,1.85,2.979,2.979,0,0,1-2.559.154c-1.6-.4-3.639-1.11-4.934.37a4.237,4.237,0,0,0-.648,3.978c.4.8,1.018,1.449,1.418,2.251a4.691,4.691,0,0,1,0,3.114c-.247,1.2-.524,2.405-.678,3.608-.154,1.233-.185,2.467-.4,3.669a23,23,0,0,1-.863,3.484.307.307,0,0,0,.586.185Z" transform="translate(-391.911 -192.507)"/></g></g></g></g></svg>