<svg xmlns="http://www.w3.org/2000/svg" viewBox="0 0 144 144">
  <path fill="#edf5fe" d="M100.2 38c11 9.5 20 22.7 18.3 34.2-1.8 11.4-14.2 21.2-25.3 30.4-11 9.1-20.8 17.8-30.3 17.5s-18.6-9.4-25.4-18.5A49.1 49.1 0 0 1 26 73.8a49 49 0 0 1 10.7-28.6c6.9-9.6 16.4-19 27.8-20.9s24.6 4.2 35.7 13.7Z"/>
  <path d="M94.3 39.3a2.2 2.2 0 0 0-.6-1.4 1.3 1.3 0 0 0-.9-.3 3 3 0 0 0-1-.6.7.7 0 0 0-.6 0l.7-2.4a8.6 8.6 0 0 0 .6-3.5 3.7 3.7 0 0 0-.1-.5 1.9 1.9 0 0 0 0-.5 1.6 1.6 0 0 0-.2-.5 1.5 1.5 0 0 0-1.2-.8 2 2 0 0 0-1.3.5l-.1.1a3.5 3.5 0 0 0-1.3.8 1.6 1.6 0 0 0-.6.6 2.5 2.5 0 0 1-.1-.6v-2l-.1-2.3a3.3 3.3 0 0 0-.6-2 2 2 0 0 0-1.5-.7 1.7 1.7 0 0 0-1.5 1.2 15.5 15.5 0 0 0-.5 2 1.7 1.7 0 0 1-.1.3l-2.3-2a13.4 13.4 0 0 0-3.5-2 2.1 2.1 0 0 0-1.6 0 1.5 1.5 0 0 0-.7 1.6 3.7 3.7 0 0 0-4.1-1.6 3 3 0 0 0-1.3.8 1.2 1.2 0 0 0-1.1 1.8s0 .2.2.3v.1c-.1 1.8 1 3 2.3 4.2a1.3 1.3 0 0 0 .6.3 7.2 7.2 0 0 0 1.5 1.3l.3.2v.1a1 1 0 0 0 1.3.6l.2-.1a1 1 0 0 0 .6-.2 11 11 0 0 1 8.6 15.1 8.1 8.1 0 0 1-1.4 1.5.6.6 0 0 0 .7 1 2.5 2.5 0 0 1 .4-.2 1.2 1.2 0 0 0 1.6.4.4.4 0 0 1 0 .2 5.7 5.7 0 0 1 .4.8 3.1 3.1 0 0 1-.3 2.5 7.6 7.6 0 0 1-3.6 2.8h-.3l-1 .1a3.3 3.3 0 0 0-.5.2.4.4 0 0 0-.1 0 2.6 2.6 0 0 0-.4.2 2 2 0 0 0-.7.3 2.5 2.5 0 0 0-.9 1.1 2.6 2.6 0 0 0-.3 2 2.1 2.1 0 0 0 .1.7 1 1 0 0 0 .7.6.7.7 0 0 0 .4 0 .9.9 0 0 0 .5 0 1.3 1.3 0 0 0 .6.1 3.2 3.2 0 0 0 .8-.1 3.8 3.8 0 0 0 1.4-.7.3.3 0 0 0 0-.2l.7-.5a.6.6 0 0 0 .5-.2 44.3 44.3 0 0 0 5.3-5.2 15 15 0 0 0 .9-1.2l.7-.9a9.9 9.9 0 0 0 1.4-2.7.7.7 0 0 0 .3-.3 6.3 6.3 0 0 0-.5-5.6.7.7 0 0 0-.8-.4l.7-.5a3.2 3.2 0 0 0 2.1-1.6 3 3 0 0 0 .5-.7 3.1 3.1 0 0 0 .1-1.4Z"/>
  <path fill="#69aefa" d="M87.5 119.5c-10.1 4.8-25.4 2-29.8 1-4.3-1.2-4.9-2.9-4.9-2.9a2.2 2.2 0 0 0 .2-.3l.1-.3 1-2a18.4 18.4 0 0 1 3-4.2c3-3 4-4 1.9-10.7-2.2-6.7-5.8-12.8-7.3-15.8h2C57 84 59.4 81 60.1 78c.7-3.4-.4-6.7-1.4-9.9a3.4 3.4 0 0 0 2.2.1 2.9 2.9 0 0 0 1-.5l.8 2.4a15.6 15.6 0 0 0 4 6.9c2.5 2.3 5.6 3.5 9 2.6 2.5-.6 5-2 6.1-4.4a8 8 0 0 0 .4-4.7 16.4 16.4 0 0 0-.8-3 4.8 4.8 0 0 0 1.3 0 6.8 6.8 0 0 0 1.3-.2 3.5 3.5 0 0 0 .9-.3l2.7 7a44.7 44.7 0 0 1 1.2 5.3 14.7 14.7 0 0 0 .4 1.4l1.2 5.4c2 12.3.9 17-4.5 23.9-1 1.4.3 6.5 1.6 9.4Z"/>
  <path fill="#69aefa" d="M88.8 79.4a56.8 56.8 0 0 0-4.8-12 3.5 3.5 0 0 0 .9-.3l2.7 7a42.7 42.7 0 0 1 1.2 5.3ZM53 117.3a1.8 1.8 0 0 0-.1.3 1.4 1.4 0 0 1 0-.3Z"/>
  <g>
    <path d="M89.3 82.2a2.7 2.7 0 0 1 .9-2.6 6 6 0 0 1 2.4-1.5c1.9-.5 3.8-.1 5.7.2a25.1 25.1 0 0 0 6 .3 21.9 21.9 0 0 0 6.4-1.5 18.5 18.5 0 0 0 8.8-7.5 12.2 12.2 0 0 0 1.7-5.4 15.6 15.6 0 0 0-.8-5.5 18.3 18.3 0 0 0-6.2-9.2l-1.1-.8c-.3-.2-.6.2-.3.4a16.9 16.9 0 0 1 6.8 8.8 18.3 18.3 0 0 1 1.1 5.5 11 11 0 0 1-1.4 5.4 17.7 17.7 0 0 1-8.6 7.7 21.2 21.2 0 0 1-6.4 1.5 25.5 25.5 0 0 1-3.3.1c-1 0-1.8-.2-2.8-.3a13.7 13.7 0 0 0-5.5-.2 6.1 6.1 0 0 0-2.5 1.2 4.6 4.6 0 0 0-1 1 2.8 2.8 0 0 0-.4 1.3 2.9 2.9 0 0 0 0 1.2c.1.3.6.2.5-.1ZM65 42.1a24.8 24.8 0 0 1 5-6.8 10.1 10.1 0 0 1 6.6-2.9 5.6 5.6 0 0 1 3.4 1.4 18.5 18.5 0 0 1 2.7 2.8 9.5 9.5 0 0 1 2.2 7.2c-.5 3.1-2.9 5.6-5.2 7.6-.3.2 0 .5.3.3a15 15 0 0 0 5.2-7 9.4 9.4 0 0 0-1.4-7.6 15.8 15.8 0 0 0-2.8-3.2 7.3 7.3 0 0 0-3.4-1.9c-2.5-.5-5 .6-7 2-2.8 2-4.5 5-6 7.8-.2.4.3.6.4.3Z"/>
    <path d="M73 41.3a1 1 0 0 0-1.3.2 1 1 0 0 0-.2 1.2 1.2 1.2 0 0 0 1 .6 1.1 1.1 0 0 0 1-.7 1.3 1.3 0 0 0 0-1.3.3.3 0 0 0-.2-.2.3.3 0 0 0-.3.1 4 4 0 0 0-.7 1.2.3.3 0 0 0 0 .3.3.3 0 0 0 .3 0l.3.1a.9.9 0 0 0 .4 0c.5 0 .5-.7.5-1.1a1 1 0 0 0-.8-.8 1.4 1.4 0 0 0-1.1.3c-.3.3-.6.8-.3 1.1a1.3 1.3 0 0 0 1 .4 2.8 2.8 0 0 0 .4 0 .5.5 0 0 0 .3 0 .8.8 0 0 0 .3-.4.8.8 0 0 0-.8-1 1 1 0 0 0-1 1.2.7.7 0 0 0 .5.6.7.7 0 0 0 .7-.5.5.5 0 0 0 0-.4.3.3 0 0 0-.5-.1.3.3 0 0 0 0 .4h-.1s-.1 0 0 0c0 0 0-.1 0 0v-.2s0-.1 0 0v-.1s0-.1 0 0V42h.1s.1-.1.1 0V42s.2 0 0 0h.2s.1 0 0 0h.1l.1.1v.2h.1-.5a.3.3 0 0 1-.1 0l-.3-.1c-.1 0 0 0 0 0H72v-.4h.1c.1 0 0 0 0 0a.5.5 0 0 0 .2-.1h.2s0-.1 0 0h.2s0-.1 0 0a190.3 190.3 0 0 1 .2 0h.1c0 .1 0 0 0 0v.2h.1V42.6h-.1a1 1 0 0 0-.6-.1l.3.3.2-.2.1-.3a3.1 3.1 0 0 1 .3-.4l-.4-.1.1.2v.2s0-.1 0 0v.2s0-.1 0 0v.1s0 .1 0 0v.1a.2.2 0 0 0 0 .1H73v.1h-.2l-.1.1h-.2a1 1 0 0 1-.1 0h-.2a.3.3 0 0 0 0-.2H72v-.1c-.1-.2 0 0 0 0v-.2c-.1 0 0 0 0 0v-.1a.2.2 0 0 0 0-.1V42h.1a.2.2 0 0 1 .1 0H72.7s-.1-.1 0 0h.1a.3.3 0 0 0 .4-.1l-.1-.6ZM67.6 37.8a1 1 0 0 0-1.3.2 1 1 0 0 0-.2 1.2 1.2 1.2 0 0 0 1 .6 1.1 1.1 0 0 0 1-.6 1.3 1.3 0 0 0 0-1.4.3.3 0 0 0-.2-.1.4.4 0 0 0-.3 0A4 4 0 0 0 67 39a.3.3 0 0 0 0 .2.3.3 0 0 0 .3.1h.3a.9.9 0 0 0 .4.1c.5 0 .5-.8.5-1.2a1 1 0 0 0-.8-.7 1.4 1.4 0 0 0-1.1.3c-.3.2-.6.7-.3 1a1.3 1.3 0 0 0 1 .5 2.8 2.8 0 0 0 .4 0 .5.5 0 0 0 .3 0 .8.8 0 0 0 .3-.4.8.8 0 0 0-.8-1.1 1 1 0 0 0-1 1.2.7.7 0 0 0 .5.6.7.7 0 0 0 .7-.4.5.5 0 0 0 0-.5.3.3 0 0 0-.5 0 .3.3 0 0 0 0 .3H67s-.1 0 0 0V38.7l.1-.1h.1s.2 0 0 0h.2s.1 0 0 0h.2v.1c0 .1 0 0 0 0v.1c0 .1 0 0 0 0v.1h.1-.5a.3.3 0 0 1-.1 0l-.3-.2c-.1 0 0 0 0 0h-.1c0-.1 0 0 0 0V38.3h.1v-.1c.1 0 0 0 0 0a.5.5 0 0 0 .2 0l.2-.1h.2c.1 0 0 0 0 0a285.3 285.3 0 0 0 .2 0l.1.1c0 .1 0 0 0 0v.2h.1v.5h-.1a1 1 0 0 0-.6 0l.4.3V39l.2-.2a3.1 3.1 0 0 1 .3-.5h-.4l.1.1v.6c0-.1 0 0 0 0a.2.2 0 0 0 0 .2h-.2v.1H67a1 1 0 0 1-.1 0h-.2a.3.3 0 0 0 0-.1h-.1V39s0 .1 0 0c-.1-.1 0 0 0 0v-.2c-.1 0 0 0 0 0a.2.2 0 0 0 0-.2h.1a.2.2 0 0 1 .1-.1H67.3s-.1 0 0 0h.1a.3.3 0 0 0 .4 0l-.1-.7ZM62.8 46.4l-4.4 6.9-2.1 3.4a2.5 2.5 0 0 0-.2 3 5.6 5.6 0 0 0 2.5 1.5 18.6 18.6 0 0 0 3.2 1 18.9 18.9 0 0 0 6.5.2 17.8 17.8 0 0 0 7-2.5c.2-.2 0-.7-.3-.5A17.6 17.6 0 0 1 63 62a18.1 18.1 0 0 1-3-.7 10.9 10.9 0 0 1-2.8-1.3 2 2 0 0 1-.9-1.1 2 2 0 0 1 .4-1.6l2-3.2 4.6-7.4c.1-.3-.3-.5-.5-.2Z"/>
    <path d="M59.4 52.2a13.4 13.4 0 0 0 11.7 1c.3 0 .2-.6-.2-.5a12.9 12.9 0 0 1-11.3-1 .3.3 0 0 0-.2.5ZM81 51a3.9 3.9 0 0 1 3-1 2 2 0 0 1 1.7 2.1 3.9 3.9 0 0 1-1.8 2.7 7.4 7.4 0 0 1-3.2 1.5c-1 .2-2.5-.4-2.6-1.6 0-.4-.5-.4-.5 0a2.5 2.5 0 0 0 2.3 2.2 6.2 6.2 0 0 0 4-1.4 5 5 0 0 0 2.3-3 2.6 2.6 0 0 0-1.5-3c-1.5-.5-3 .2-4 1.2-.4.2 0 .5.3.3Z"/>
    <path d="M82.2 52.2a1 1 0 0 1 .7 1.3 1.5 1.5 0 0 1-1.7.8.3.3 0 0 0-.3.2.3.3 0 0 0 .2.3 2.2 2.2 0 0 0 2-.6 1.6 1.6 0 0 0 .1-2 1.4 1.4 0 0 0-1-.6l-.2.3a.2.2 0 0 0 .2.3ZM79.2 60.1a7.4 7.4 0 0 0-1.8 3.6 3.6 3.6 0 0 0 .6 2.5 5.3 5.3 0 0 0 4.7 1.8c2.3-.2 4-1.7 5.8-2.9a11.3 11.3 0 0 1 3.2-1.6 8 8 0 0 1 4.3.1c4.4 1.3 9.7 5.7 14.3 2.5A6.3 6.3 0 0 0 113 62a6.2 6.2 0 0 0-1.5-5 7.4 7.4 0 0 0-2.8-2 5.3 5.3 0 0 0-2-.3 5.6 5.6 0 0 0-1.8.3 11 11 0 0 1-2 .6c-.6.1-1.4.1-1.7-.7-.5-1.5 1.1-2.6 2.3-3a2.2 2.2 0 0 1 2 .1c.3.2.5-.3.2-.4-1-.7-2.5-.3-3.6.4-1 .7-1.9 2-1.3 3.2.5 1.4 2.3 1 3.3.6a13 13 0 0 1 1.9-.6 4.2 4.2 0 0 1 2 .1 6.4 6.4 0 0 1 4.4 4.3 5.6 5.6 0 0 1-.9 4.7 5.9 5.9 0 0 1-4.5 2.5c-2.8.2-5.4-1.3-8-2.5s-5.3-2-8-1c-2.3.8-4 2.5-6.2 3.6a5.8 5.8 0 0 1-5.1 0 3.2 3.2 0 0 1-1.6-1.6 3.8 3.8 0 0 1 .4-3 14 14 0 0 1 1.1-1.8c.2-.3-.2-.5-.4-.3ZM64.6 62.6a17.4 17.4 0 0 1-1.6 3.7 4.5 4.5 0 0 1-1.6 1.4 4.3 4.3 0 0 1-2.6.3c-2-.2-3.7-1.2-5.5-1.8a17 17 0 0 0-5.5-1 13.5 13.5 0 0 0-2.8.3l-2.6.7a11.1 11.1 0 0 1-4 .6A4.3 4.3 0 0 1 35 65a7.5 7.5 0 0 1-.5-1.2l-.5-1.3a9.1 9.1 0 0 1-.3-2.8 6.5 6.5 0 0 1 2.2-4.1 7 7 0 0 1 1.8-1.3A2.5 2.5 0 0 1 39 54a6.6 6.6 0 0 1 1.3.3l1.3.3c.3 0 .5-.4.1-.5a18.2 18.2 0 0 0-2.7-.6 2.6 2.6 0 0 0-1.3.2 9 9 0 0 0-1 .6 8 8 0 0 0-3 3.6 4.2 4.2 0 0 0-.4 1.2 7.8 7.8 0 0 0 0 1.5 10.5 10.5 0 0 0 .5 2.8 7.1 7.1 0 0 0 1.1 2.4 4.5 4.5 0 0 0 1.7 1.2 7.7 7.7 0 0 0 4.2.2c1.7-.3 3.3-1 5-1.3a14.9 14.9 0 0 1 6 .4 21.8 21.8 0 0 1 3 1 21.3 21.3 0 0 0 2.9 1 6.8 6.8 0 0 0 2.9.2 4.1 4.1 0 0 0 2-1 9.3 9.3 0 0 0 2.2-3.7c0-.4.2-.7.3-1 .2-.4-.3-.5-.5-.2ZM73.9 31.6a11.1 11.1 0 0 1-3.2-2.4 8 8 0 0 1-2-3.4A2.2 2.2 0 0 1 69 24a2.4 2.4 0 0 1 2-.8 5 5 0 0 1 3.6 1.6 14.6 14.6 0 0 1 2.5 4.1c.1.2.4.1.5 0 .6-2.2-2.2-3.4-1.8-5.6a1 1 0 0 1 .7-.8 2.7 2.7 0 0 1 1.8.4 7.8 7.8 0 0 1 2.3 2 24.6 24.6 0 0 1 2.1 3 .3.3 0 0 0 .5 0l.9-3.2c.2-.6.5-1.6 1.3-1.5a1.6 1.6 0 0 1 1 .8 5.5 5.5 0 0 1 .7 1.2 7.9 7.9 0 0 1 .5 2.5 26.9 26.9 0 0 1 0 3.1.3.3 0 0 0 .3.3 4.3 4.3 0 0 0 1.7-1.2c.5-.4 1-.9 1.8-.6a2.2 2.2 0 0 1 1.3 2 8.7 8.7 0 0 1-.7 3l-1.1 3.3c-.1.4.4.5.5.2l1-3.4a8.8 8.8 0 0 0 .8-3.2A2.8 2.8 0 0 0 92 29a2 2 0 0 0-2.2 0c-.7.5-1.2 1.3-2 1.5l.3.3a12.7 12.7 0 0 0-.6-6c-.3-.7-1-1.9-1.8-2-1-.3-1.5.4-1.9 1.2a10.5 10.5 0 0 0-.5 1.6l-.6 2.2h.5a13 13 0 0 0-4.5-5.2c-.9-.5-2.2-1-3 0a2.6 2.6 0 0 0 0 2.5c.5 1.1 1.9 2.2 1.5 3.6h.5a15.4 15.4 0 0 0-2.6-4.2 5.7 5.7 0 0 0-3.9-1.9 3.4 3.4 0 0 0-2 .6 2.2 2.2 0 0 0-1 1.8 6.1 6.1 0 0 0 1.7 3.9 11.6 11.6 0 0 0 3.9 3.2c.1.1.4-.3 0-.5Z"/>
    <path d="M91.5 37.8a1.5 1.5 0 0 1 1.7-.1 1.9 1.9 0 0 1 1 1.8c-.1 1.8-1.7 3-3 3.9a.3.3 0 0 0-.1.4 4.3 4.3 0 0 1 1.3 4 12.2 12.2 0 0 1-2 4.6 32 32 0 0 1-3.2 4 19 19 0 0 1-3.7 3.4 5.7 5.7 0 0 1-5 1c-.3-.1-.4.4 0 .5 3.3 1.2 6.5-1.8 8.6-4a32.5 32.5 0 0 0 3.4-4.2 14 14 0 0 0 2.4-5 4.9 4.9 0 0 0-1.4-4.7 2.6 2.6 0 0 0 0 .5c1.2-1 2.6-2 3-3.5a2.6 2.6 0 0 0-1.5-3.3 2 2 0 0 0-2 .4c-.2.2.2.5.5.3ZM41 41.8a24.1 24.1 0 0 1 2.5 1c.8.3 1.5.8 2.3 1.2a2 2 0 0 1 1 1.7 3.4 3.4 0 0 1-1 2.1 10.5 10.5 0 0 1-.8 1 9.1 9.1 0 0 0-.8.9 3 3 0 0 1-1.8 1.3c-.6.1-1.2-.2-1.1-.8a3.7 3.7 0 0 1 .7-1.4c1-1.5 2.1-3 3.3-4.3.2-.2-.2-.6-.4-.4-1.2 1.4-2.3 3-3.3 4.4a3.8 3.8 0 0 0-.8 1.6 1.2 1.2 0 0 0 .9 1.4 2.3 2.3 0 0 0 2.2-.7 7.2 7.2 0 0 0 .9-1 14.5 14.5 0 0 1 1-1 9 9 0 0 0 .8-1.1 4.3 4.3 0 0 0 .6-1.2 2.8 2.8 0 0 0-.3-2.2 2.3 2.3 0 0 0-1-.9l-1.6-.8a20 20 0 0 0-3-1.3c-.4-.1-.5.4-.2.5Z"/>
    <path d="M40.6 41.4a12.7 12.7 0 0 0-2.3 2.8l-1 1.5a7 7 0 0 0-.7 1.5 1.4 1.4 0 0 0 .2 1.4 1.8 1.8 0 0 0 1.5.3c.6 0 1-.6 1.3-1l1-1.6a19.8 19.8 0 0 0 1-2l1.2-2c.1-.4-.3-.6-.5-.3a125.1 125.1 0 0 1-2.6 4.6l-.8 1.3a1.4 1.4 0 0 1-.6.5 1.5 1.5 0 0 1-.8 0c-.5-.2-.5-.8-.3-1.2a9 9 0 0 1 .7-1.4l.8-1.3a13.6 13.6 0 0 1 2.3-2.7c.3-.2-.1-.6-.4-.4Z"/>
    <path d="M41.2 41.2a3.9 3.9 0 0 0-4 1.2 8.6 8.6 0 0 0-1.3 2 4.1 4.1 0 0 0-.6 2.4c0 .6.6 1.5 1.3 1 .3-.2 0-.7-.2-.5-.3.2-.5-.2-.6-.4a2.1 2.1 0 0 1 .2-1.2 8.8 8.8 0 0 1 1.2-2.4 3.6 3.6 0 0 1 3.9-1.6c.3.2.4-.3.1-.5ZM39 53.6a5 5 0 0 1-2.6-1.1.3.3 0 0 0-.4.4 5.5 5.5 0 0 0 3 1.3.3.3 0 0 0 .3-.3c0-.2 0-.3-.2-.3ZM39.1 48a.9.9 0 0 0-.3.9 1.3 1.3 0 0 0 .6.8 1.8 1.8 0 0 0 2-.1.3.3 0 0 0-.3-.5 1.6 1.6 0 0 1-.7.3 1 1 0 0 1-.6-.1 1 1 0 0 1-.4-.5.5.5 0 0 1 0-.3v-.1a.3.3 0 0 0 0-.4.2.2 0 0 0-.3 0ZM111.6 53a7.3 7.3 0 0 0 1.2-3.2 5.8 5.8 0 0 0-.5-3.3 16.3 16.3 0 0 0-2.2-3.1 5.8 5.8 0 0 0-2.7-2 2.5 2.5 0 0 0-2.9 1.5c-.1.4.4.5.5.2a2 2 0 0 1 2.4-1.2 5.8 5.8 0 0 1 2.4 1.9 17.8 17.8 0 0 1 2 2.9 5 5 0 0 1 .5 2.8 6.9 6.9 0 0 1-1.1 3.2c-.2.3.2.5.4.3Z"/>
    <path d="M100.8 53.3a5.5 5.5 0 0 1 .8-6.6 3.8 3.8 0 0 1 3.6-1 5.8 5.8 0 0 1 2.2 1.2 5.1 5.1 0 0 1 1 1.1 2.7 2.7 0 0 1 .5 1.4c0 .6-.5.8-1 .8-.4 0-.4.6 0 .6a1.6 1.6 0 0 0 1.4-.8 1.9 1.9 0 0 0-.1-1.5 6 6 0 0 0-2.7-2.9 4.1 4.1 0 0 0-2.7-.5 4.6 4.6 0 0 0-2 .7 6 6 0 0 0-1.5 7.8c.2.3.7 0 .5-.3Z"/>
    <path d="M101.3 50.3a20.3 20.3 0 0 1 3-1.4 3 3 0 0 1 2.6 0 2.1 2.1 0 0 1 .8.9 1.8 1.8 0 0 1 .2.6.5.5 0 0 1-.3.6c-.7.4-1.8 1-2.6.3-.2-.2-.6.2-.4.4a2.2 2.2 0 0 0 2.4.2 3.2 3.2 0 0 0 1.3-.7 1.3 1.3 0 0 0 .1-1.1 2.8 2.8 0 0 0-1.4-1.8 3.3 3.3 0 0 0-2.7 0 19.7 19.7 0 0 0-3.2 1.5.3.3 0 1 0 .2.5ZM102 46.4a3.1 3.1 0 0 1 4.2-2.5c1.6.7 3.5 2.6 3 4.4a.3.3 0 0 0 .5.2c.4-1.8-.8-3.4-2-4.4a4.3 4.3 0 0 0-2.6-1 3.6 3.6 0 0 0-3.7 3.3c0 .3.5.3.5 0ZM124.1 53.4a13.7 13.7 0 0 1 1.4 8.5c0 .4.4.5.5.2a14.2 14.2 0 0 0-1.4-9c-.2-.3-.6 0-.5.3ZM129 55.4a13.7 13.7 0 0 1 0 6 .3.3 0 0 0 .6 0 14.3 14.3 0 0 0 0-6.2.3.3 0 0 0-.5.2ZM29 51.6a2.5 2.5 0 0 1-3.3 0 5 5 0 0 1-1.2-3V48a6.1 6.1 0 0 1 .1-.9 17.8 17.8 0 0 1 .5-1.9 16.1 16.1 0 0 1 1.6-3.4 13.9 13.9 0 0 1 5.5-5 10.6 10.6 0 0 1 3.9-1.2 2.8 2.8 0 0 1 2.9 1.4 4.2 4.2 0 0 1-.2 3.1 8.6 8.6 0 0 1-1.7 2.7c-.3.4.2 1 .6.6a9 9 0 0 0 1.8-2.7 6 6 0 0 0 .4-3.4 3.2 3.2 0 0 0-2.3-2.4 7.6 7.6 0 0 0-4.7.6 14.4 14.4 0 0 0-6.5 5.2 15.6 15.6 0 0 0-2 3.8 14.6 14.6 0 0 0-.5 2 7 7 0 0 0-.2 2 6.2 6.2 0 0 0 1.2 3.5 3.2 3.2 0 0 0 3.6 1 3.8 3.8 0 0 0 1.1-.7c.4-.4-.2-1-.6-.6Z"/>
    <path d="M40 38.3c.5-2.4-1.2-4.3-3.1-5.5a8.4 8.4 0 0 0-6.6-1.2 15.1 15.1 0 0 0-7.4 5.3 14.8 14.8 0 0 0-3.2 8.8 5.3 5.3 0 0 0 1.4 4 13.7 13.7 0 0 0 3.5 2.3 8.3 8.3 0 0 0 .8.4c.5.2.9-.5.4-.7a20 20 0 0 1-3.3-2 5 5 0 0 1-1.3-1.2 4.2 4.2 0 0 1-.6-1.8 11 11 0 0 1 .5-4.5 14.3 14.3 0 0 1 1.8-3.8 15 15 0 0 1 6.5-5.6 6.3 6.3 0 0 1 3.2-.6 9 9 0 0 1 3 .8c1.9.9 4.1 2.7 3.6 5a.4.4 0 1 0 .7.3ZM54.8 54.5a14.3 14.3 0 0 0 .5-3.9 8.4 8.4 0 0 0-.7-3.4 3.4 3.4 0 0 0-3.7-1.8 9 9 0 0 0-4.6 2.4 20 20 0 0 0-4.3 5.3 12.3 12.3 0 0 0-1.4 9 4.4 4.4 0 0 0 2 2.8 4.3 4.3 0 0 0 3.7-.1 10.8 10.8 0 0 0 2.5-1.5 17.8 17.8 0 0 0 2.3-2.1 15.1 15.1 0 0 0 3.2-5.2 8.8 8.8 0 0 0 .5-1.5.4.4 0 0 0-.8-.2 15.6 15.6 0 0 1-6.7 9 5.2 5.2 0 0 1-3.7 1.1 2.9 2.9 0 0 1-2-1.8 8.4 8.4 0 0 1-.5-3.6 12 12 0 0 1 1-4 17.5 17.5 0 0 1 3.3-5 18 18 0 0 1 2.3-2.2 8.3 8.3 0 0 1 2-1.2c1.1-.5 2.6-.7 3.6.2a3.9 3.9 0 0 1 1 2.1 11.5 11.5 0 0 1 0 3.6 11.7 11.7 0 0 1-.3 1.8.4.4 0 0 0 .8.2Z"/>
    <path d="M28.6 44.7c0 .3.1.3.1.1v-.1l.2-.4.2-.5a8.5 8.5 0 0 1 .5-1 9.2 9.2 0 0 1 5.7-4.4.4.4 0 0 0-.2-.8 9.9 9.9 0 0 0-7 6.7c-.2.4-.3.9 0 1.2.5.3 1-.5.5-.8Z"/>
    <path d="M31.7 44a2.8 2.8 0 0 1 0-.4h.1v-.1l.1-.2.2-.4h.1v-.1l.2-.2a3.7 3.7 0 0 1 .3-.3 1 1 0 0 1 .1-.1c.1 0 0 0 0 0l.2-.1.3-.2a.8.8 0 0 1 .2-.1c.1 0 0 0 0 0h.2a.4.4 0 0 0-.2-.9 4.1 4.1 0 0 0-2.6 2.9.4.4 0 0 0 .3.5.4.4 0 0 0 .5-.2ZM43.1 56.8a5.1 5.1 0 0 0 .9 6.6c.4.4 1-.2.6-.5a4.3 4.3 0 0 1-.8-5.6c.3-.5-.4-1-.7-.5ZM52.8 45.3c-1.6-1.6-4-2.5-6-1.3-.5.2 0 1 .4.7 1.8-1 3.7-.1 5 1.2a.4.4 0 0 0 .6-.6ZM38.1 53.3c-1.6 1.1-1.8 3.5-1.7 5.4a6 6 0 0 0 1 3 7.9 7.9 0 0 0 2.2 2.1 12.3 12.3 0 0 0 3.3 1.5c.6.1.8-.7.3-1a9.4 9.4 0 0 1-4.8-2.8 6.3 6.3 0 0 1-1-5 3.7 3.7 0 0 1 1.2-2.5c.5-.3 0-1-.5-.7ZM16.4 37.4a13.4 13.4 0 0 1 6.4-8 12.7 12.7 0 0 1 2.8-1 .3.3 0 0 0-.2-.5 13.8 13.8 0 0 0-8.3 6.6 13.5 13.5 0 0 0-1.2 2.8.3.3 0 0 0 .5.1ZM15.6 31.1a9.4 9.4 0 0 1 3.3-3.8c.3-.2 0-.6-.2-.4a10.3 10.3 0 0 0-3.5 4c-.2.3.3.5.4.2ZM26.4 81a9.4 9.4 0 0 0 6 3.3c.4 0 .4-.5 0-.5a8.8 8.8 0 0 1-5.6-3c-.3-.4-.6 0-.4.3ZM74 77.5a25.2 25.2 0 0 1 4.5 14.3 24 24 0 0 1-.3 4.3c-.1.3.4.5.5.1a25.8 25.8 0 0 0-2-15.2 23.5 23.5 0 0 0-2.2-3.8c-.2-.2-.6 0-.4.3Z"/>
    <path d="M52.2 84c-.6-1.5-1.1-3.3-2.5-4.3-1.8-1.4-4.3-1.1-6.3-.8a32.9 32.9 0 0 1-3.7.6 13.1 13.1 0 0 1-3.5-.3 15.8 15.8 0 0 1-6.1-2.6 8.6 8.6 0 0 1-1.4-1.1 11 11 0 0 0-1-1.2 2.5 2.5 0 0 1-.6-.6 16.5 16.5 0 0 1-1.5-2.2 16 16 0 0 1-2.1-6.4 11.8 11.8 0 0 1 0-3.3 14.9 14.9 0 0 1 1-2.8 14 14 0 0 1 3.1-4.7 15.2 15.2 0 0 1 2.4-2c.4-.2 1-.4 1.3-.7a7.5 7.5 0 0 0 1.3-1 22.5 22.5 0 0 0 3.4-5.4l.8-1.4c.2-.3-.3-.5-.4-.2-1.2 1.8-2 3.9-3.3 5.6a8 8 0 0 1-2.4 2.1 17.6 17.6 0 0 0-2.5 1.8 14.6 14.6 0 0 0-3.7 4.5 13.8 13.8 0 0 0-1.6 5.8 15.5 15.5 0 0 0 1.3 6.6 18.3 18.3 0 0 0 1.7 3 14.7 14.7 0 0 0 1 1.4l.6.5.6.6a10.7 10.7 0 0 0 2.7 2.2 17.3 17.3 0 0 0 3 1.4 15.4 15.4 0 0 0 6.8.9c2.4-.3 5-1.2 7.4-.6a4 4 0 0 1 2.2 1.5 8.7 8.7 0 0 1 1.1 2.2l.5 1.2c0 .3.6 0 .4-.3ZM62.4 46.4c-1.8 0-3-.3-3.5-.9a1.6 1.6 0 0 1-.3-1.4 3.8 3.8 0 0 1 1.3-1.8A8.7 8.7 0 0 1 62 41a2.5 2.5 0 0 1 2.7.6 6.2 6.2 0 0 1 1.1 1.3l-.5.3s-1.5-2.4-3-1.7c-1.4.6-2.8 1.7-3 2.7a1 1 0 0 0 .1 1c.4.4 1.6.7 3.4.6a23 23 0 0 0 2.7-.2v.6a23.2 23.2 0 0 1-2.7.2h-.4Z"/>
  </g>
</svg>