<svg xmlns="http://www.w3.org/2000/svg" width="172" height="172" viewBox="0 0 172 172"><g transform="translate(-187 -297)"><path d="M50.6-31.3C63.2-7.4,69.4,18.1,59.9,34.4,50.4,50.6,25.2,57.6-1.2,58.3c-26.4.8-54.1-4.8-66.1-22.5-12-17.8-8.4-47.6,5.4-72.2S-24-80.4-2.5-78.9C19-77.5,38-55.2,50.6-31.3Z" transform="translate(281.566 392.981)" fill="#fff4f4"/><g transform="translate(5 -38)"><circle cx="86" cy="86" r="86" transform="translate(182 335)" fill="#ffe3e3" opacity="0"/><g transform="translate(188.382 349.484)"><path d="M12.583.905c0-.475-.2-.724-.611-.724a.747.747,0,0,0-.679.407C9.211,1.629,5.794,2.331,1.018,2.671c-.475.045-.7.272-.7.7,0,.5.2.747.634.747.226,0,.724-.045,1.516-.136,1.358-.136,2.489-.294,3.44-.453a28.207,28.207,0,0,1,1,6.7,9.322,9.322,0,0,1-.86,4.187,3.424,3.424,0,0,1-3.191,2.2,1.485,1.485,0,0,1-1-.407,1.113,1.113,0,0,1-.5-.928,5.6,5.6,0,0,1,.385-1.562c0-.43-.249-.656-.7-.656-.317,0-.566.226-.747.656A3.846,3.846,0,0,0,0,15.322,2.538,2.538,0,0,0,.453,16.77a2.77,2.77,0,0,0,2.6,1.29,4.487,4.487,0,0,0,3.983-2.671A10.446,10.446,0,0,0,8.283,10.32,25.24,25.24,0,0,0,7.242,3.372a36.849,36.849,0,0,0,3.6-.951C11.995,2.014,12.583,1.494,12.583.905Zm7.423,10.954a4.237,4.237,0,0,0-.724-2.354,3.993,3.993,0,0,0-1.9-1.516,2.806,2.806,0,0,0-.5-.136,1.336,1.336,0,0,0-.317.045,2.61,2.61,0,0,1-.883.634,4.386,4.386,0,0,0-1.856,2.059,6.137,6.137,0,0,0-.679,2.761A4.252,4.252,0,0,0,13.986,16a2.663,2.663,0,0,0,2.308,1.267,2.989,2.989,0,0,0,1.811-.769,3.748,3.748,0,0,0,1.267-1.652c.136-.362.226-.634.294-.815A5.914,5.914,0,0,0,20.006,11.859Zm-1.313.339a4.339,4.339,0,0,1-.747,2.308c-.543.86-1.086,1.29-1.675,1.29a1.5,1.5,0,0,1-1.313-.724,2.768,2.768,0,0,1-.5-1.72A4.706,4.706,0,0,1,15.027,11a2.225,2.225,0,0,1,1.856-1.222,1.783,1.783,0,0,0,.905.226A2.485,2.485,0,0,1,18.694,12.2Zm12.47-.588a2.9,2.9,0,0,0-.611-1.9,2.118,2.118,0,0,0-1.72-.747c-1.267,0-2.761,1.109-4.526,3.3a68.127,68.127,0,0,1,.656-8.034,1.013,1.013,0,0,0,.453-.543,7.99,7.99,0,0,0,.317-1.381A8.225,8.225,0,0,0,25.913,1c0-.656-.249-1-.747-1-.43,0-.769.588-1,1.743a57.349,57.349,0,0,0-1.132,11.474q0,1.629.136,3.123a1.144,1.144,0,0,0-.634.747.957.957,0,0,0,1.041.747,6.994,6.994,0,0,0,1.675-.362,10.79,10.79,0,0,0,2.014-.86,9.5,9.5,0,0,0,2.761-2.263A4.5,4.5,0,0,0,31.164,11.61Zm-1.29.023c0,.973-.656,1.946-1.924,2.919a9.107,9.107,0,0,1-3.44,1.72,11.063,11.063,0,0,1-.045-1.154,2.279,2.279,0,0,1,.272-1,8.942,8.942,0,0,1,2.4-2.9,2.846,2.846,0,0,1,1.584-.792A1.044,1.044,0,0,1,29.874,11.633Zm9.392-3.168a4.271,4.271,0,0,1-.136-.475c-.113-.407-.272-.634-.475-.7a4.06,4.06,0,0,0-1-.181c-.634,0-1.041.181-1.177.543a2.059,2.059,0,0,0-1.539,2.059,3.54,3.54,0,0,0,.226,1.245c.181.453.339.883.5,1.29a18.819,18.819,0,0,1,1,3.282c0,.724-.543,1.064-1.629,1.064a5.224,5.224,0,0,1-.883-.091c-.407-.045-.634-.068-.724-.068-.385,0-.566.294-.566.86,0,.5.7.769,2.1.769a4.4,4.4,0,0,0,2.1-.453,1.83,1.83,0,0,0,.951-1.675,10.763,10.763,0,0,0-.724-2.942c-.2-.543-.407-1.086-.634-1.629a4.594,4.594,0,0,1-.385-1.335c0-.656.362-1,1.132-1,.136,0,.339.023.611.045a3.469,3.469,0,0,0,.611.045C39.017,9.121,39.221,8.917,39.266,8.464Z" transform="matrix(0.978, -0.208, 0.208, 0.978, 13.91, 32.547)" fill="#212529"/><g transform="translate(0 0)"><g transform="translate(41.541 0.08)"><path d="M442.537,440.112a17.149,17.149,0,0,0-3.459-7.866,26.467,26.467,0,0,0-1.757-2.594c-.056-.084-.139-.167-.2-.251a2.417,2.417,0,0,1-.2-.279,1.479,1.479,0,0,0-.335-.279c-.391-.335-.809-.642-1.144-.893a12.721,12.721,0,0,0-1.562-.921,25.722,25.722,0,0,0-5.411-4.017,8.184,8.184,0,0,0-3.208-1.646c-.251-.14-.53-.251-.781-.363a4.337,4.337,0,0,0-2.315-.642c-1.227-.446-2.455-.976-3.682-1.311-2.371-.642-4.658-.251-6.973-.2a4.473,4.473,0,0,0-1.172.279,5.6,5.6,0,0,1-2.008.5h-.112a13.51,13.51,0,0,0-3.013,1.813c-.948.809-3.766.781-4.993.865a23.169,23.169,0,0,1-5.551-.251,20.57,20.57,0,0,1-9.093-3.793,7.117,7.117,0,0,0-2.287-1.172c-.251.7-1.255.781-1.841,1.227a8.37,8.37,0,0,0-1.7,2.12,83.144,83.144,0,0,1-7.894,10.488c-4.072,4.658-9.986,8.089-16.346,7.336a12.855,12.855,0,0,1-8.368-4.63c-.948-1.088-1.98-2.064-3.57-1.869-1.729.223-3.626,1.562-5.077,2.427a1.686,1.686,0,0,0-.167,2.873c.53.418,1.06.837,1.562,1.283a1.5,1.5,0,0,0,.279.558,19.312,19.312,0,0,0,15.76,8.033,18.1,18.1,0,0,0,4.324-.279,25.528,25.528,0,0,0,7.671-2.371,30.279,30.279,0,0,0,6.22-3.989c.335-.279.753-.614,1.227-1a37.469,37.469,0,0,0,4.853-4.547l.5-.753c.948-1.45,1.618-3.04,2.455-4.574.865-1.562,2.231.753,2.343,1.562a6.863,6.863,0,0,1-.14,2.259c-.53,3.375-1.562,6.583-.5,9.874a22.388,22.388,0,0,1,.753,7.085,19.728,19.728,0,0,1-1.841,7.671c-.837,1.9,8.786,2.9,9.818,2.985a49.114,49.114,0,0,0,12.273-.753.168.168,0,0,0,.112-.028c.056-.028.112-.084.167-.112,1.646-.865,3.515-1,5.16-1.841a34.75,34.75,0,0,0,5.579-3.626.742.742,0,0,1,.446-.167.212.212,0,0,0-.056-.112l-.251-.418a.737.737,0,0,0-.139-.167c-.028-.028-.056-.056-.084-.056-5.328-6.137-.809-13.082-.809-13.082s.084.2.251.53c.223-1.144.558-2.259.753-3.487,0-.056.028-.139.028-.223-.837-1.925-1.562-3.877-2.566-5.718a2.265,2.265,0,0,1-.2-1.423.951.951,0,0,1,.837-.865,7.916,7.916,0,0,1,4.407,1.088,18.463,18.463,0,0,0,3.208,1.2c.7.474,1.506.837,2.2,1.227.586.307,1.144.614,1.7.837a21.017,21.017,0,0,1,3.459,3.4,19.665,19.665,0,0,1,3.626,7.531,19.389,19.389,0,0,1,.586,4.017c.028.725-.028,1.423.028,2.064a1.716,1.716,0,0,0,.642,2.761c1.45.446,2.9.893,4.379,1.311a1.707,1.707,0,0,0,1.925-.642c.028-.084.084-.139.112-.223.279-1.534.725-3.013.865-4.575a25.638,25.638,0,0,1,.474-4.128A15.125,15.125,0,0,0,442.537,440.112Z" transform="translate(-337.603 -368.165)" fill="#ff8787"/><path d="M500.346,281.813a.5.5,0,0,0-.167-.363,22.119,22.119,0,0,0-1.06-5.858,20.952,20.952,0,0,0-1.395-3.515c-.2-.39-.418-.781-.642-1.172a12.183,12.183,0,0,0-.781-1.98c-.251-.53-.5-1.032-.781-1.534a3.6,3.6,0,0,0-.223-.781c-.112-.335-.223-.669-.363-1-.279-.7-.586-1.395-.893-2.12-.446-1.088-.92-2.148-1.395-3.236-.112-.307-.2-.586-.307-.893-.112-.363-.251-.753-.363-1.116-.167-.5-.335-1-.53-1.506a7.738,7.738,0,0,0-.279-.725c-.251-.725-.5-1.45-.781-2.176v-.056a12.893,12.893,0,0,0-.307-1.757,10.1,10.1,0,0,0-.614-1.757,6.573,6.573,0,0,0-.614-1.06c-.028-.056-.028-.112-.056-.167-.056-.2-.084-.391-.139-.614a.683.683,0,0,0-.307-.446c-.112-.251-.251-.5-.363-.753a.278.278,0,0,0-.112-.139l-.167-.335c-.251-.669-.53-1.311-.781-1.98a.4.4,0,0,0-.614-.167,15.674,15.674,0,0,0-1.311-1.729.258.258,0,0,0-.335-.056,11.634,11.634,0,0,0-1.032-1,.738.738,0,0,0-1,.112c-.028.056-.084.112-.084.167a7.359,7.359,0,0,0-1.367.028,6.452,6.452,0,0,0-2.734.976,6.192,6.192,0,0,0-1.98,2.008,6.3,6.3,0,0,0-.53,1.172,3.134,3.134,0,0,0-.112.893c-.112.139-.223.279-.335.446-.084-.028-.14-.056-.223-.084a4.635,4.635,0,0,0-5.858-.642,8.168,8.168,0,0,0-1.2.948,4.571,4.571,0,0,0-.7.586,14.863,14.863,0,0,0-1.757,1.98,10.425,10.425,0,0,0-1.813,3.6c-.725,1.506-1.423,3.04-2.148,4.547a1.057,1.057,0,0,0,.056,1l-2.845,5.049a.949.949,0,0,0-.084.893c-.474.7-.893,1.423-1.311,2.148a49.031,49.031,0,0,0-4.156,4.184,13.874,13.874,0,0,0-5.941,5.662,5.431,5.431,0,0,0-1.032,1.2,7.2,7.2,0,0,0-1.172,3.264c-.028.363-.056.7-.056,1.06a3.336,3.336,0,0,0,.056,1.032c.028.084.056.167.084.279a7.3,7.3,0,0,0,.307,1.116c.028.056.056.139.084.2a1.886,1.886,0,0,0,.056.39,1.091,1.091,0,0,0,.53.837,10.108,10.108,0,0,0,3.068,2.455,12.482,12.482,0,0,0,4.463,1.534h.056a1.35,1.35,0,0,0,.2.084,15.792,15.792,0,0,0,8.647.893.972.972,0,0,0,.669-.446,9.764,9.764,0,0,0,2.036-.112.8.8,0,0,0,.223-1.506,15.286,15.286,0,0,1-2.734-2.12,10.111,10.111,0,0,1-2.148-2.706.723.723,0,0,0-.307-.279c-.2-.474-.363-.948-.53-1.423A18.76,18.76,0,0,1,459.26,280a22.229,22.229,0,0,1-.167-3.849c.418-1.339.837-2.65,1.227-3.989a1.113,1.113,0,0,0,.028-.669c.335-.669.67-1.339,1-1.98.028-.028.028-.056.028-.112l.251-.418c.2-.335.418-.669.586-1s.335-.7.53-1.032a.265.265,0,0,0,0-.251l1.646-2.4a45.093,45.093,0,0,0,6.3-8.675,1.644,1.644,0,0,0,.112-.223l2.176-2.343c.976-.837,1.9-1.7,2.817-2.594.139-.084.279-.139.418-.223.39-.223.781-.474,1.172-.7a6.9,6.9,0,0,1,4.937,1.646,7.2,7.2,0,0,1,2.371,4.686.866.866,0,0,0,.251.5,9.351,9.351,0,0,0,.391,2.315.386.386,0,0,0,0,.251c.363,1.283.669,2.594,1.116,3.849a.286.286,0,0,0,.139.167c.2.614.446,1.227.669,1.785,0,.028,0,.028.028.056.921,2.845,1.813,5.718,2.761,8.535.056.279.112.558.167.809.2.976.474,1.953.7,2.9.056.2.084.363.139.558a28.334,28.334,0,0,1-.418,3.4,19.316,19.316,0,0,1-.725,2.845c-.167.5-.335.976-.53,1.45-.056.139-.112.279-.167.446-.2.307-.391.586-.586.893a10.619,10.619,0,0,1-1.729,1.98,11.643,11.643,0,0,1-2.231,1.423,2.815,2.815,0,0,0-1.785,2.008c-.279,2.036,2.2,2.873,3.766,3.152a10.305,10.305,0,0,0,4.128-.223,5.462,5.462,0,0,0,1.841-.586c.251-.056.53-.112.781-.167a7.884,7.884,0,0,0,4.128-2.817,3.309,3.309,0,0,0,.614-1.7c.112-.2.223-.363.335-.558a11.462,11.462,0,0,0,1.088-2.287A12.525,12.525,0,0,0,500.346,281.813Z" transform="translate(-415.216 -241.664)"/><path d="M651.785,647.8l-.056-.056c-.139-1.618-.251-3.208-.39-4.826a1.037,1.037,0,0,0-.809-.865.712.712,0,0,0-.391-.279,7.109,7.109,0,0,0-2.176,0q-1.088.084-2.176.251a18.71,18.71,0,0,0-3.291.725.738.738,0,0,0-.167-.14,22.644,22.644,0,0,0-2.371.586.707.707,0,0,1-.335.056c.028.279.056.586.056.865a1,1,0,0,0,.112.251,1.343,1.343,0,0,0,.223.614,69.057,69.057,0,0,1,.725,7.2c.056,1.06.112,2.12.2,3.18,0,.056.028.112.028.167a27.417,27.417,0,0,0,.614,3.682.7.7,0,0,0,.112.2l.084.084c.028,1.144.028,2.259.056,3.4-.809,3.012-1.59,6.025-2.4,9.037,0,.056-.028.084-.028.14a.4.4,0,0,1,.056.167c0,.028.028.056.028.084a.7.7,0,0,0,.112.2c.028.056.112.139.112.2l.028.028a3.405,3.405,0,0,0,2.287-.446c.112-.167.223-.307.335-.474a6.175,6.175,0,0,0,1.925-1.395h0a28.667,28.667,0,0,0,1.925-2.873c.056-.167.139-.307.2-.474a18.823,18.823,0,0,0,1.227-1.813,16.887,16.887,0,0,0,2.957-7.2c.5-2.678-.223-7.029-3.766-7v-.112a2.982,2.982,0,0,0,.7-.028c.335-.028.7-.084,1.032-.112.642-.084,1.311-.14,1.925-.279a2.075,2.075,0,0,0,1.562-1.227A1.208,1.208,0,0,0,651.785,647.8Z" transform="translate(-555.219 -530.104)"/><path d="M470.58,686.242c-.112-.139-.2-.251-.307-.391a1.458,1.458,0,0,0-.7-.92c-.418-.586-.837-1.2-1.227-1.813-.391-.586-.781-1.172-1.144-1.785-.139-.251-.279-.474-.391-.725-.139-.335-.279-.669-.446-1a1.579,1.579,0,0,0-.084-.5,3.425,3.425,0,0,0-.335-.725,1,1,0,0,0-.614-.5.386.386,0,0,0-.251,0,1.628,1.628,0,0,0-.363-.056,10.846,10.846,0,0,0-1.646.084l-1.757.084q-1.757.042-3.515-.084l-1.757-.167c-.279-.028-.558-.084-.837-.112a7.038,7.038,0,0,0-.753-.112c-.028-.028-.056-.028-.084-.056a.4.4,0,0,0-.2-.056.209.209,0,0,0-.139.028.632.632,0,0,0-.446.307.894.894,0,0,0,.167,1.088l.056.056a12.118,12.118,0,0,0,.781,1.283A5.991,5.991,0,0,0,455.853,682a.153.153,0,0,0,.084.139c.084.112.167.2.251.307a1.979,1.979,0,0,0,.279.391,3.012,3.012,0,0,0,1,.865,2.39,2.39,0,0,0,1.45.279,2.629,2.629,0,0,0,.446-.112h.056a.353.353,0,0,0,.39-.251h0a2.833,2.833,0,0,0,.7-.167,5.848,5.848,0,0,1,.837.418c-.139.167-.307.335-.446.5-.391.446-.781.865-1.172,1.311a2.659,2.659,0,0,0-.53.837.741.741,0,0,0-.474,1.227c1.451,1.478,2.9,2.957,4.351,4.407a.7.7,0,0,0,.53.223c.084.084.139.167.223.251a.791.791,0,0,0,1.116.056c.92-.893,1.841-1.813,2.761-2.706.474-.474.976-.948,1.451-1.422a5.59,5.59,0,0,0,.976-1.172A.7.7,0,0,0,470.58,686.242Z" transform="translate(-421.154 -555.858)"/></g><g transform="translate(0 0)"><g transform="translate(84.853 7.581)"><path d="M500,309.434a18.472,18.472,0,0,0,10.209,3.18,15.662,15.662,0,0,0,10.1-3.264,14.419,14.419,0,0,0,5.244-10.1,19.562,19.562,0,0,0-.92-6.834,67.477,67.477,0,0,0-2.371-6.527,35.775,35.775,0,0,1-2.148-6.527,55.616,55.616,0,0,0-1-5.718,7.938,7.938,0,0,0-3.291-4.407,4.739,4.739,0,0,0-4.017-.418,10.248,10.248,0,0,0-3.766,2.455,23.024,23.024,0,0,0-2.985,3.57c-1,1.478-1.9,3.012-2.957,4.463-1.227,1.674-2.51,3.292-3.738,4.965a34.332,34.332,0,0,0-3.291,5.383,21.812,21.812,0,0,0-2.092,6.443c-.558,4.324,1.562,8.312,4.574,11.269A19.228,19.228,0,0,0,500,309.434c.335.223.642-.307.307-.53-3.264-2.315-6.192-5.83-6.75-9.93a13.641,13.641,0,0,1,.921-6.415,28.971,28.971,0,0,1,2.817-5.662c2.148-3.375,4.853-6.332,6.973-9.707,1.562-2.483,3.264-5.021,5.718-6.722a5.929,5.929,0,0,1,3.738-1.255,5.42,5.42,0,0,1,3.821,2.678,11.94,11.94,0,0,1,1.562,5.244,29.283,29.283,0,0,0,1.395,6c1.506,4.212,3.542,8.229,4.24,12.691a13.71,13.71,0,0,1-12.078,16.039,18.138,18.138,0,0,1-10.209-1.674,12.849,12.849,0,0,1-2.148-1.283C500,308.653,499.692,309.211,500,309.434Z" transform="translate(-492.88 -268.558)"/></g><g transform="translate(71.062)"><path d="M481.113,291.314a3.531,3.531,0,0,0,1.172,2.594,5.785,5.785,0,0,0,2.622,1.283,11.151,11.151,0,0,0,6.806-.586,12.366,12.366,0,0,0,6.164-5.69,14.838,14.838,0,0,0,1.562-7.894,29.193,29.193,0,0,0-2.287-8.786c-1.2-2.985-2.622-5.886-3.933-8.842-.669-1.478-1.311-2.985-1.869-4.547-.53-1.478-.948-2.957-1.367-4.463a33.9,33.9,0,0,0-3.264-8.619c-1.339-2.231-3.4-4.519-6.248-4.379a7.171,7.171,0,0,0-6,4.212,6.3,6.3,0,0,0-.474,1.757c.167-.084.363-.139.53-.223a5.081,5.081,0,0,0-4.854-1.757,8.343,8.343,0,0,0-4.156,3.236c-2.4,3.1-3.877,6.778-5.328,10.376-1.255,3.124-2.566,6.3-4.8,8.9-2.176,2.566-4.993,4.463-7.42,6.778-1.925,1.841-3.877,4.156-4.407,6.834a5.857,5.857,0,0,0,.39,3.654,8.737,8.737,0,0,0,2.929,3.291,19.729,19.729,0,0,0,16.346,2.873,15.435,15.435,0,0,0,1.925-.614c.363-.139.223-.753-.167-.614a19.6,19.6,0,0,1-16.067-1.116c-2.315-1.283-4.826-3.291-4.854-6.165-.028-2.622,1.729-4.993,3.459-6.834,2.148-2.287,4.742-4.072,6.973-6.248a21.728,21.728,0,0,0,3.04-3.738,29.975,29.975,0,0,0,2.2-4.323c1.618-3.766,2.957-7.643,5.16-11.1a12.4,12.4,0,0,1,3.654-4.045,4.038,4.038,0,0,1,2.092-.669,3.984,3.984,0,0,1,2.231.7,6.939,6.939,0,0,1,1.2,1c.2.223.5.028.53-.223a6.42,6.42,0,0,1,4.658-5.16,4.842,4.842,0,0,1,3.682.418,8.669,8.669,0,0,1,2.678,2.65,26.941,26.941,0,0,1,3.347,8.005c.391,1.423.781,2.845,1.227,4.268.446,1.395.976,2.789,1.534,4.128,2.343,5.551,5.467,10.906,6.694,16.848a15.972,15.972,0,0,1-.2,7.7,12.136,12.136,0,0,1-4.491,6.443,10.72,10.72,0,0,1-6.945,2.092c-1.7-.084-3.905-.53-4.77-2.2a3.166,3.166,0,0,1-.335-1.339c.028-.279-.614-.279-.586.139Z" transform="translate(-443.441 -241.378)"/></g><g transform="translate(88.107 62.808)"><path d="M506.013,466.843c-.279,2.008-.642,4.017-.976,6.025-.167.948-.335,1.925-.446,2.873a3.075,3.075,0,0,0,2.845,3.682,10.854,10.854,0,0,0,4.435-.335,18.067,18.067,0,0,0,5.467-2.287c.335-.223.028-.753-.307-.53a18.006,18.006,0,0,1-4.547,2.036,13.163,13.163,0,0,1-4.407.614,3.155,3.155,0,0,1-2.622-1.423,2.92,2.92,0,0,1-.223-1.757c.139-.893.279-1.813.446-2.706.363-2.064.725-4.128,1-6.192,0-.39-.614-.39-.669,0Z" transform="translate(-504.548 -466.55)"/></g><g transform="translate(107.68 60.798)"><path d="M584.587,459.723a17.317,17.317,0,0,0,1.785,4.575,20.735,20.735,0,0,1,1.032,2.259,5.335,5.335,0,0,1,.5,2.259,3.538,3.538,0,0,1-2.2,2.789,10.766,10.766,0,0,1-4.686.948,13.171,13.171,0,0,1-5.83-1.283c-.363-.167-.669.363-.307.53a14.092,14.092,0,0,0,5.411,1.367,12.321,12.321,0,0,0,5.216-.781,4.737,4.737,0,0,0,2.845-2.678c.5-1.534-.251-3.152-.893-4.519a23.043,23.043,0,0,1-2.287-5.579c-.056-.446-.669-.279-.586.112Z" transform="translate(-574.717 -459.344)"/></g><g transform="translate(38.681 60.625)"><path d="M376.011,458.884a36.206,36.206,0,0,1-8.2,10.516,30.983,30.983,0,0,1-10.627,6.137,24.153,24.153,0,0,1-11.269,1.06,20.486,20.486,0,0,1-10.265-4.742,24.153,24.153,0,0,1-4.24-4.826c-.642-.976-1.227-1.98-1.785-3.013-.279-.558-.558-1.116-.809-1.7a11.7,11.7,0,0,1-.558-1.367c-.084-.335-.2-.642-.279-.976a.318.318,0,0,0-.614.167c.084.335.2.7.279,1.032a13.129,13.129,0,0,0,.586,1.45c.5,1.144,1.088,2.287,1.7,3.375a26.141,26.141,0,0,0,4.1,5.3,21.17,21.17,0,0,0,10.293,5.69,24.159,24.159,0,0,0,11.548-.363,31.078,31.078,0,0,0,11.018-5.634,35.886,35.886,0,0,0,8.786-10.209c.279-.5.558-1,.837-1.534.223-.418-.307-.725-.5-.363Z" transform="translate(-327.352 -458.723)"/></g><g transform="translate(46.909 49.943)"><path d="M356.864,430.349a14.259,14.259,0,0,0,6.3,7.894,16.818,16.818,0,0,0,10.07,2.482,17.092,17.092,0,0,0,9.484-3.989,38.279,38.279,0,0,0,6.639-7.727c1-1.423,1.98-2.845,3.013-4.24a17.925,17.925,0,0,0,1.06-1.478,10.439,10.439,0,0,1,1.283-1.646,2.3,2.3,0,0,1,.781-.586c.363-.139.2-.753-.167-.614a6.63,6.63,0,0,0-2.594,2.734c-.391.586-.865,1.144-1.255,1.7-.5.7-.976,1.395-1.478,2.092a55.188,55.188,0,0,1-6.22,7.922,17.437,17.437,0,0,1-8.675,4.881,15.833,15.833,0,0,1-10.181-1.311,14.3,14.3,0,0,1-7-7.085,10.216,10.216,0,0,1-.418-1.2c-.167-.39-.753-.223-.642.167Z" transform="translate(-356.85 -420.427)"/></g><g transform="translate(44.512 47.845)"><path d="M348.659,426.237a13.172,13.172,0,0,0,7.615-7.057,13.528,13.528,0,0,0,.837-2.538,3.375,3.375,0,0,0-.335-2.789c-.893-1.227-2.734-1.144-3.933-.418-1.785,1.116-2.064,3.542-2.259,5.439-.028.391.586.391.614,0,.139-1.59.335-3.515,1.59-4.658.865-.781,2.622-1.088,3.431-.028a3.054,3.054,0,0,1,.167,2.566,11.069,11.069,0,0,1-.753,2.232,12.58,12.58,0,0,1-7.2,6.611c-.335.167-.167.781.223.642Z" transform="translate(-348.257 -412.906)"/></g><g transform="translate(32.705 56.79)"><path d="M315.542,449.222c-2.482,1.311-5.662.251-7.475-1.7a7.666,7.666,0,0,1-1.506-2.343c-.139-.363-.753-.2-.614.167a7.842,7.842,0,0,0,7.615,5.049,5.519,5.519,0,0,0,2.287-.642c.363-.167.056-.725-.307-.53Z" transform="translate(-305.927 -444.975)"/></g><g transform="translate(0 15.43)"><path d="M241.095,335.916c5.328-1,10.683-2.008,16.011-3.04a.327.327,0,0,0,.223-.391c-.865-4.63-1.729-9.289-2.594-13.919-.865-4.6-1.785-9.2-2.678-13.807-.5-2.566-.976-5.16-1.367-7.754a.3.3,0,0,0-.307-.223c-4.351-.446-8.507.976-12.692,1.9-2.231.5-4.519.7-6.778,1-2.371.307-4.714.669-7.057,1.032-4.575.753-9.121,1.618-13.7,2.287-4.519.642-9.037,1.255-13.5,2.176-2.2.446-4.407.976-6.583,1.618a2.194,2.194,0,0,0-1.116.669,1.793,1.793,0,0,0-.279,1.2,25.529,25.529,0,0,0,.642,3.236c1,4.323,2.371,8.563,3.682,12.831a118.568,118.568,0,0,1,3.4,13.445c.307,1.7.837,3.654,2.678,4.268a6.132,6.132,0,0,0,3.1-.056c1.144-.223,2.287-.474,3.431-.725,2.315-.53,4.63-1.116,6.945-1.646,2.287-.53,4.6-.948,6.918-1.311,4.77-.725,9.512-1.478,14.254-2.259a19.925,19.925,0,0,0,2.176-.418.318.318,0,0,0-.167-.614,18.718,18.718,0,0,1-2.176.418c-1.172.2-2.343.391-3.487.558-2.315.363-4.6.725-6.918,1.088s-4.63.669-6.918,1.088c-2.231.418-4.463.948-6.694,1.478s-4.491,1.088-6.75,1.534a7.634,7.634,0,0,1-3.264.307,3.02,3.02,0,0,1-1.925-1.674,11.858,11.858,0,0,1-.725-2.761c-.223-1.116-.446-2.232-.7-3.347-.5-2.232-1.088-4.435-1.729-6.639-1.227-4.156-2.594-8.256-3.738-12.44-.279-1.06-.558-2.148-.809-3.208-.112-.53-.251-1.088-.363-1.618a10.554,10.554,0,0,1-.279-1.59.976.976,0,0,1,.586-1.088,14.447,14.447,0,0,1,1.562-.474c1.06-.279,2.092-.558,3.152-.809,4.351-1,8.786-1.646,13.194-2.287,2.2-.307,4.379-.614,6.555-.976,2.231-.363,4.463-.781,6.694-1.172,4.575-.809,9.177-1.395,13.779-2.008,4.156-.558,8.145-2.12,12.357-2.427a19.843,19.843,0,0,1,3.152.028,2.121,2.121,0,0,0-.307-.223c.669,4.6,1.646,9.149,2.566,13.724.92,4.63,1.757,9.261,2.622,13.891.474,2.622.976,5.216,1.45,7.838.084-.139.139-.251.223-.391-5.328,1-10.683,2.008-16.011,3.04-.335.112-.139.725.251.642Z" transform="translate(-188.677 -296.697)"/></g><g transform="translate(60.035 88.593)"><path d="M432.133,559.132a25.886,25.886,0,0,1-7.364,6.332c-3.236,2.008-6.471,4.045-9.651,6.137-1.618,1.06-3.236,2.12-4.8,3.236a23.024,23.024,0,0,0-3.57,2.985c-2.008,2.092-3.515,4.965-2.538,7.894,1.06,3.208,4.212,4.965,7.308,5.774a42.717,42.717,0,0,0,5.607.92c1.98.223,3.989.363,6,.418a108.159,108.159,0,0,0,12.022-.335c2.008-.14,3.989-.335,5.969-.558a55.73,55.73,0,0,1,5.718-.446c7.364.028,14.337,2.734,21.339,4.63.921.251,1.813.474,2.734.7a.318.318,0,0,0,.167-.614c-7.029-1.674-13.835-4.463-21.087-5.16a32.223,32.223,0,0,0-5.439-.084c-1.925.139-3.821.418-5.746.614-3.933.391-7.866.642-11.8.7a83.617,83.617,0,0,1-11.827-.7c-3.347-.474-7.057-1.227-9.289-4.017a5.969,5.969,0,0,1-1.339-4.156,7.482,7.482,0,0,1,1.618-3.877c2.008-2.65,4.993-4.435,7.7-6.248,3.208-2.148,6.415-4.212,9.707-6.248a35.335,35.335,0,0,0,7.615-5.662q.795-.879,1.506-1.841a.341.341,0,0,0-.558-.391Z" transform="translate(-403.906 -558.99)"/></g><g transform="translate(78.968 105.339)"><path d="M472.263,620.384c2.427-1.2,5.3-.725,7.866-.474l8.954.837,17.824,1.673c3.347.307,6.694.642,10.042.948a2.121,2.121,0,0,0-.307-.223,8.7,8.7,0,0,0,.586,1.395c.223.53.418,1.032.614,1.562a29.422,29.422,0,0,1,.948,3.152,30.916,30.916,0,0,1,.893,6.611,32.767,32.767,0,0,1-.112,3.71c-.028.391.586.391.614,0a31.316,31.316,0,0,0-1.59-13.138c-.2-.586-.418-1.144-.642-1.7a13.34,13.34,0,0,1-.725-1.729.3.3,0,0,0-.307-.223c-6.025-.558-12.078-1.144-18.1-1.7-6-.558-12.022-1.144-18.019-1.7-2.929-.279-6.137-.837-8.87.5-.335.139-.028.7.335.5Z" transform="translate(-471.784 -619.024)"/></g><g transform="translate(139.46 94.681)"><path d="M691.872,581.4a69.243,69.243,0,0,1,8.591,4.407,16.707,16.707,0,0,1,6.36,6.555c1.171,2.483,1.45,5.579-.084,7.978-1.478,2.343-4.184,3.682-6.722,4.575a44.984,44.984,0,0,1-9.791,2.064c-.418.056-.865.112-1.283.139-.391.056-.391.669,0,.614a53.864,53.864,0,0,0,10.321-1.925c2.734-.865,5.634-2.092,7.475-4.379a7.317,7.317,0,0,0,1.59-3.543,9.86,9.86,0,0,0-.418-4.491,14.972,14.972,0,0,0-5.8-7.252,50.263,50.263,0,0,0-8.842-4.826c-.363-.167-.725-.335-1.06-.474-.363-.139-.7.391-.335.558Z" transform="translate(-688.65 -580.817)"/></g><g transform="translate(96.714 86.156)"><path d="M569.6,554.114c-1.646-.53-3.291-1.032-4.909-1.646a27.556,27.556,0,0,1-4.351-2.176.338.338,0,0,0-.39.056,30.314,30.314,0,0,1-18.493,6.611,29.658,29.658,0,0,1-5.662-.474c-.39-.084-.558.53-.167.614a30.74,30.74,0,0,0,24.769-6.276c-.14.028-.251.028-.391.056a27.093,27.093,0,0,0,4.407,2.2c1.646.614,3.319,1.116,4.965,1.674.446.084.586-.53.223-.642Z" transform="translate(-535.403 -550.252)"/></g><g transform="translate(85.96 121.822)"><path d="M496.89,678.587c.53.893.809,1.925,1.283,2.845a28.211,28.211,0,0,0,1.7,2.761c1.227,1.813,2.594,3.515,3.766,5.384a.306.306,0,0,0,.53-.307.545.545,0,0,1,.028.2c-.056.223,0,.028,0,.028,0,.028-.056.056,0,0l.056-.056c.056-.056-.056.028.028-.028.028-.028.056-.028.084-.056.084-.056.139-.084.223-.139a12.827,12.827,0,0,1,1.367-.725c1.506-.753,3.04-1.45,4.6-2.12,3.961-1.7,7.977-3.292,12.078-4.658a32.946,32.946,0,0,1,5.411-1.45c.391-.056.223-.669-.167-.614a33.811,33.811,0,0,0-4.937,1.283c-2.092.669-4.184,1.423-6.248,2.232-3.738,1.422-7.475,2.957-11.046,4.742a11.441,11.441,0,0,0-1.506.837c-.251.167-.7.446-.5.809a5.159,5.159,0,0,1,.53-.307c-1.172-1.841-2.51-3.57-3.766-5.384a24.3,24.3,0,0,1-1.674-2.706c-.5-.948-.781-1.98-1.311-2.873a.306.306,0,1,0-.53.307Z" transform="translate(-496.848 -678.117)"/></g><g transform="translate(125.299 111.465)"><path d="M638.25,642.861c1.7-.391,3.459-.558,5.16-.809a25.194,25.194,0,0,1,2.873-.335c1.283-.056,2.538,0,3.821-.056l-.307-.307a25.387,25.387,0,0,0,.53,4.1c.14.7.251,1.422.335,2.12.028.335.084.7.084,1.032a3.384,3.384,0,0,0,.028.53c.028.251,0-.028.056-.028-.028,0-.391.167-.474.2a9.463,9.463,0,0,1-.948.223c-.753.167-1.534.279-2.287.418l-1.757.251c-.335.056-.279.53,0,.614,1.395.446,3.319.948,3.821,2.51a10.517,10.517,0,0,1-.251,6.081,17.1,17.1,0,0,1-1.618,3.989c-.446.753-.948,1.478-1.451,2.2a29.529,29.529,0,0,1-4.6,5.411,3.939,3.939,0,0,1-1.98,1.116.635.635,0,0,1-.586-.279c-.279-.363-.056-.893.084-1.283.2-.53.363-1.088.558-1.618a31.45,31.45,0,0,0,1.562-6.778,21.133,21.133,0,0,0,.056-3.515,11.666,11.666,0,0,0-.279-1.674,6.848,6.848,0,0,1-.335-1.674,3.76,3.76,0,0,0-.307-1.451c-.167-.362-.725-.056-.53.307a5.721,5.721,0,0,1,.279,1.7c.084.586.307,1.116.418,1.7a15.219,15.219,0,0,1,.2,3.738,29.488,29.488,0,0,1-1.562,7.28l-.586,1.757a2.555,2.555,0,0,0-.2,1.506,1.337,1.337,0,0,0,.865.865,2.655,2.655,0,0,0,2.176-.7,17.417,17.417,0,0,0,2.538-2.427c.865-.976,1.646-2.008,2.427-3.068.586-.837,1.172-1.674,1.729-2.538a17.992,17.992,0,0,0,1.562-3.515,13,13,0,0,0,.781-6.36,3.716,3.716,0,0,0-1.116-2.343,7.177,7.177,0,0,0-2.231-1.2c-.391-.139-.753-.251-1.144-.39v.614c1.339-.223,2.678-.391,4.017-.669a4.569,4.569,0,0,0,1.618-.5c.363-.251.223-.725.223-1.088a19.236,19.236,0,0,0-.251-2.176,34.33,34.33,0,0,1-.7-5.049.293.293,0,0,0-.307-.307c-1.283.056-2.538,0-3.821.056a25.908,25.908,0,0,0-2.957.335c-1.757.251-3.543.418-5.272.809-.5.167-.335.753.056.669Z" transform="translate(-637.882 -640.989)"/></g><g transform="translate(73.324 121.427)"><g transform="translate(0)"><path d="M469.416,685.768a38.912,38.912,0,0,1-3.319,3.794c-1.144,1.088-2.482,1.953-3.654,2.985h.446a26.072,26.072,0,0,0-2.789-2.761c-.474-.446-.976-.865-1.423-1.311l-.669-.669a1.918,1.918,0,0,1-.307-.363c-.056-.084-.279-.446-.363-.446.056,0-.028.139,0,.056.056-.084.112-.2.167-.279a7.152,7.152,0,0,1,.558-.725c.5-.614,1.06-1.2,1.59-1.785.418-.446.865-.893,1.283-1.367.2-.223,0-.642-.307-.53a11.7,11.7,0,0,1-2.734.753,3.073,3.073,0,0,1-1.423-.139,4.427,4.427,0,0,1-1.2-.837,12.751,12.751,0,0,1-3.1-5.216.318.318,0,0,0-.614.167,13,13,0,0,0,3.4,5.634,3.718,3.718,0,0,0,2.734,1.06,10.436,10.436,0,0,0,3.04-.809c-.112-.167-.2-.363-.307-.53-.976,1.06-1.98,2.064-2.9,3.152-.307.363-.893.921-.893,1.423a.515.515,0,0,0,.139.335,7.11,7.11,0,0,0,.725.837c.474.5.976.976,1.478,1.45a31.872,31.872,0,0,1,3.4,3.319.312.312,0,0,0,.446,0c1.2-1.032,2.51-1.925,3.654-2.985a35.9,35.9,0,0,0,3.319-3.793c.307-.307-.139-.753-.391-.418Z" transform="translate(-451.55 -676.703)"/></g></g><g transform="translate(117.99 104.099)"><path d="M612.077,619.605a88.353,88.353,0,0,1,23.9-4.351q3.431-.125,6.862,0c.391.028.391-.614,0-.614a88.392,88.392,0,0,0-24.351,2.483c-2.231.558-4.435,1.171-6.611,1.9-.363.112-.2.725.2.586Z" transform="translate(-611.681 -614.578)"/></g><g transform="translate(100.415 101.145)"><path d="M549.211,610.241c1.367-1.227,2.65-2.538,4.128-3.654a8.316,8.316,0,0,1,4.6-1.953c1.953-.056,3.6,1.06,5.188,2.064a33.178,33.178,0,0,0,4.519,2.594,10.665,10.665,0,0,0,6.053.641c.391-.084.223-.669-.167-.614a9.7,9.7,0,0,1-5.551-.586,33.1,33.1,0,0,1-4.63-2.65c-1.562-.976-3.208-2.036-5.132-2.092a7.893,7.893,0,0,0-4.714,1.674,50.657,50.657,0,0,0-4.714,4.1.316.316,0,1,0,.418.474Z" transform="translate(-548.673 -603.99)"/></g><g transform="translate(124.607 51.741)"><path d="M635.626,427.493a30.441,30.441,0,0,1,9.651,4.212,35.183,35.183,0,0,1,7.587,6.471c4.463,5.355,5.049,12.664,3.905,19.3a83.239,83.239,0,0,1-3.375,12.134c-.139.39.474.558.614.167,2.315-6.973,4.686-14.254,3.682-21.7a20.229,20.229,0,0,0-3.6-9.344,31.906,31.906,0,0,0-7.42-6.806,31.58,31.58,0,0,0-5.216-3.068,34.074,34.074,0,0,0-5.662-1.98c-.39-.084-.558.53-.167.614Z" transform="translate(-635.403 -426.872)"/></g><g transform="translate(123.344 62.166)"><path d="M631.048,464.792c1.7.725,3.431,1.45,5.1,2.231a16.422,16.422,0,0,1,4.3,2.706,15.424,15.424,0,0,1,4.3,7.866,28.033,28.033,0,0,1,.781,5.244,14.967,14.967,0,0,1-.14,2.734,5.791,5.791,0,0,1-.641,2.036c-.837,1.339-2.566,1.116-3.877.753a6.113,6.113,0,0,0-2.455-.363,1.788,1.788,0,0,0-1.395,1.423,3.185,3.185,0,0,0,1.841,3.654,2.972,2.972,0,0,0,2.287.139,14.907,14.907,0,0,0,2.287-1.2c.363-.2.028-.725-.307-.53-1.311.7-2.622,1.785-4.128.976a2.836,2.836,0,0,1-1.339-1.506,2.226,2.226,0,0,1,.223-1.925c.53-.753,1.757-.335,2.455-.139a8.889,8.889,0,0,0,2.092.363,3.294,3.294,0,0,0,1.925-.391,3.035,3.035,0,0,0,1.227-1.534,11.13,11.13,0,0,0,.558-4.686,29.18,29.18,0,0,0-.781-5.16,16.19,16.19,0,0,0-3.961-7.7,15,15,0,0,0-4.407-3.04c-1.841-.893-3.766-1.646-5.634-2.455-.363-.2-.7.335-.307.5Z" transform="translate(-630.873 -464.247)"/></g><g transform="translate(127.785 89.601)"><path d="M654.271,562.743a10.905,10.905,0,0,1-3.208,2.984c-1.2.725-2.65,1.255-3.6,2.371a2.351,2.351,0,0,0-.669,1.618,1.558,1.558,0,0,0,.865,1.367,2.409,2.409,0,0,0,1.813-.139,14.486,14.486,0,0,0,1.841-.976,16.864,16.864,0,0,0,3.738-3.152c.279-.307-.167-.753-.446-.446a15.655,15.655,0,0,1-2.873,2.566c-.53.363-1.088.725-1.646,1.032a4.377,4.377,0,0,1-1.7.642.92.92,0,0,1-.948-1.116,2.413,2.413,0,0,1,.976-1.423,36.637,36.637,0,0,1,3.347-2.008,11.353,11.353,0,0,0,3.04-2.957c.251-.363-.307-.7-.53-.363Z" transform="translate(-646.794 -562.605)"/></g><g transform="translate(127.607 95.286)"><path d="M646.809,584.968a1.659,1.659,0,0,0,.056,2.678,2.916,2.916,0,0,0,3.04.251,14.952,14.952,0,0,0,2.929-1.785,24.22,24.22,0,0,0,3.012-2.594c.279-.279-.167-.725-.446-.446a23.4,23.4,0,0,1-4.742,3.71,3.706,3.706,0,0,1-2.622.725c-.809-.2-1.9-1.311-.921-2.036.307-.2,0-.753-.307-.5Z" transform="translate(-646.155 -582.983)"/></g><g transform="translate(130.374 95.211)"><path d="M656.084,587.984a1.248,1.248,0,0,0,.725,1.2,2.584,2.584,0,0,0,1.59.112,7.646,7.646,0,0,0,2.873-1.283,14.861,14.861,0,0,0,4.3-4.826.306.306,0,1,0-.53-.307,15.044,15.044,0,0,1-3.543,4.184,8.164,8.164,0,0,1-2.371,1.395c-.586.223-2.51.725-2.4-.446.028-.446-.614-.418-.642-.028Z" transform="translate(-656.078 -582.717)"/></g><g transform="translate(135.966 93.701)"><path d="M676.2,583.829c1.478,1.562,3.6-.056,4.714-1.2a10.847,10.847,0,0,0,2.678-4.937.318.318,0,0,0-.614-.167,10.187,10.187,0,0,1-2.232,4.323,7.836,7.836,0,0,1-1.841,1.618,1.8,1.8,0,0,1-2.259-.084c-.279-.279-.7.167-.446.446Z" transform="translate(-676.124 -577.303)"/></g><g transform="translate(42.512 63.038)"><path d="M347.029,467.38a10.574,10.574,0,0,0-5.858,2.985c-.279.279.167.725.446.446a9.955,9.955,0,0,1,5.579-2.845c.391-.056.223-.669-.167-.586Z" transform="translate(-341.083 -467.372)"/></g><g transform="translate(96.542 21.222)"><path d="M536.213,317.807a.88.88,0,0,0-.53-.2.941.941,0,0,0-.474.139.824.824,0,0,0-.39.921.933.933,0,0,0,.753.669,1.059,1.059,0,0,0,.586-.056.823.823,0,0,0,.391-.363,1.071,1.071,0,0,0,.028-1.116.284.284,0,0,0-.223-.139.258.258,0,0,0-.251.084,2.911,2.911,0,0,0-.641.781.322.322,0,0,0,.279.474h.028c.056,0-.084-.028-.056,0,.028,0,.056,0,.056.028.056.028-.084-.028-.028-.028h.028a.1.1,0,0,1,.056.028.91.91,0,0,0,.363.112.453.453,0,0,0,.418-.307.562.562,0,0,0,.084-.307,1.245,1.245,0,0,0,.028-.307,1,1,0,0,0-.2-.5.8.8,0,0,0-.39-.223,1.125,1.125,0,0,0-.893.139.713.713,0,0,0-.335.921,1.081,1.081,0,0,0,.725.418,1.883,1.883,0,0,0,.391.056.57.57,0,0,0,.53-.391.714.714,0,0,0-.056-.586.669.669,0,0,0-.614-.335.9.9,0,0,0-.893.893.57.57,0,0,0,.446.558.6.6,0,0,0,.642-.307.5.5,0,0,0,0-.446.306.306,0,0,0-.53.307c0-.028,0-.028-.028-.056v-.056c0,.056.028-.084,0-.028.028-.084.028-.056,0-.028.056-.084.028-.056.028-.028-.028.028-.028,0,.028-.028l-.028.028c.056-.028.056-.028.028,0-.084.028.028,0,.028,0-.028,0-.028-.028.028,0h0c-.028,0-.028,0,.028.028h0c-.028-.028-.028,0,.028.028h0l.028.028-.028-.028c-.028-.056.028.084,0,.028v-.084c0-.028.028-.028.028-.056,0,.028,0,.028-.028.056a.027.027,0,0,1,.028-.028l.028-.028c.028-.028.028,0,0,0l.028-.028.028-.028-.028.028c.028,0,.056-.028.084-.056h0a.086.086,0,0,0,.056-.028h.084c.084,0-.056-.028,0,0a.1.1,0,0,0,.056.028s-.056-.028-.028,0a.1.1,0,0,0,.056.028c-.056-.028-.056-.028-.028,0s0,.056,0-.028a36,36,0,0,0,.056.056c-.056-.084-.028-.028,0,0v.028c0,.028-.028.056,0-.028v.028c0,.028-.028.028,0-.028v.028c-.028.056.056-.056,0,0-.028.028-.028,0,.028-.028l-.028.028c.028,0,.028,0,.056-.028.056,0,.084-.028.056-.028h-.028c-.028,0-.112-.028.028,0h-.056c-.084-.028-.2-.028-.279-.056-.056,0-.084-.028-.14-.028h-.028c-.056-.028.084.028.028,0a.1.1,0,0,1-.056-.028c-.028,0-.028-.028-.056-.028l.028.028h-.028a.027.027,0,0,0-.028-.028c-.028-.028,0-.056.028.028a.027.027,0,0,0-.028-.028c-.028-.056.028.028.028.056v-.028c-.028-.056,0,.084,0,.056v-.028c0-.056-.028.084,0,.056v-.028c0-.028.028-.028-.028.028.028-.028.028-.056.056-.084l.028-.028c-.056.084-.028.028,0,0l.056-.056.028-.028-.028.028c.028-.028.056-.028.084-.056.028,0,.028-.028.056-.028-.084.056-.056.028-.028,0h.028c.028,0,.028,0,.056-.028h.139c.028,0,.084.028,0,0a.1.1,0,0,1,.084.028c.028,0,.028,0,.056.028.056.028-.084-.028-.028,0a.027.027,0,0,1,.028.028c.028,0,.028.028.056.028.056.028-.056-.056-.028-.028l.028.028.028.028c-.056-.056-.028-.056-.028-.028s.028.028.028.056c.028.056-.028-.084,0-.028v.028h0v.112h0c-.028.084-.028.167-.056.223.028-.084.028-.056,0-.028a.027.027,0,0,1-.028.028c-.028.056.056-.056.028-.028s-.056.028.028-.028c-.056.028.084-.028.028,0,.112-.028.084,0,.056,0-.056,0,.084.028.056,0h-.056c-.028,0-.056-.028.056.028a.027.027,0,0,1-.028-.028c-.028-.028-.084-.028-.112-.056a.909.909,0,0,0-.363-.112,4.2,4.2,0,0,0,.279.474c.028-.056.084-.139.112-.2.028-.028.056-.056.056-.084l-.028.028.028-.028c0-.028.028-.028.028-.056a3.178,3.178,0,0,1,.307-.307,3.071,3.071,0,0,0-.5-.056c0,.028.028.028.028.056V318.2c0,.028.028.056.028.084h0v.167c0,.056.028-.056,0-.028v.028a.1.1,0,0,1-.028.084v.028c-.028.056.028-.056,0-.028,0,.028-.028.056-.028.084a.027.027,0,0,1-.028.028h0l-.056.056-.028.028c-.028.028.056-.028,0,0-.028.028-.056.028-.056.056a.027.027,0,0,0-.028.028c.056-.056.056-.028,0,0a.1.1,0,0,0-.084.028h-.056c-.028,0-.056-.028.028,0a.1.1,0,0,1-.084-.028c-.028,0-.084-.028-.028,0h0c-.028,0-.028-.028-.056-.028-.028-.028-.084-.084-.028,0l-.056-.056-.056-.056h0l-.028-.028a.027.027,0,0,0-.028-.028c.056.056.028.056,0,.028,0-.028,0-.056-.028-.056v-.056s-.028.084,0,.028v-.028c0-.028.028-.056,0,.028,0-.028.028-.028.028-.056l.028-.028c-.028.056-.028.056-.028.028.028-.028.028-.056.056-.056a.027.027,0,0,0,.028-.028h0a.1.1,0,0,1,.084-.028c.028-.028-.028,0-.028,0,.028,0,.028,0,.056-.028a.1.1,0,0,0,.084-.028c-.084.028-.056,0-.028,0h.084c.028,0,.028.028-.028,0,.028.028.112.084.028,0a.34.34,0,0,0,.446,0c.028-.2.056-.418-.084-.53Z" transform="translate(-534.786 -317.462)"/></g><g transform="translate(106.528 22.171)"><path d="M572.013,321.207a.881.881,0,0,0-.53-.2.941.941,0,0,0-.474.139.824.824,0,0,0-.39.921.933.933,0,0,0,.753.669,1.06,1.06,0,0,0,.586-.056.823.823,0,0,0,.391-.363,1.071,1.071,0,0,0,.028-1.116.285.285,0,0,0-.223-.139.258.258,0,0,0-.251.084,2.914,2.914,0,0,0-.642.781.322.322,0,0,0,.279.474h.028c.056,0-.084-.028-.056,0,.028,0,.056,0,.056.028.056.028-.084-.028-.028-.028h.028a.1.1,0,0,1,.056.028.909.909,0,0,0,.363.112.453.453,0,0,0,.418-.307.563.563,0,0,0,.084-.307,1.251,1.251,0,0,0,.028-.307,1,1,0,0,0-.2-.5.8.8,0,0,0-.391-.223,1.125,1.125,0,0,0-.893.139.713.713,0,0,0-.335.92,1.082,1.082,0,0,0,.725.418,1.888,1.888,0,0,0,.391.056.57.57,0,0,0,.53-.39.713.713,0,0,0-.056-.586.669.669,0,0,0-.614-.335.9.9,0,0,0-.893.893.57.57,0,0,0,.446.558.6.6,0,0,0,.641-.307.5.5,0,0,0,0-.446.306.306,0,0,0-.53.307c0-.028,0-.028-.028-.056v-.056c0,.056.028-.084,0-.028.028-.084.028-.056,0-.028.056-.084.028-.056.028-.028-.028.028-.028,0,.028-.028l-.028.028c.056-.028.056-.028.028,0-.084.028.028,0,.028,0-.028,0-.028-.028.028,0h0c-.028,0-.028,0,.028.028h0c-.028-.028-.028,0,.028.028h0l.028.028-.028-.028c-.028-.056.028.084,0,.028v-.084c0-.028.028-.028.028-.056,0,.028,0,.028-.028.056a.027.027,0,0,1,.028-.028l.028-.028c.028-.028.028,0,0,0l.028-.028.028-.028-.028.028c.028,0,.056-.028.084-.056h0a.086.086,0,0,0,.056-.028h.084c.084,0-.056-.028,0,0a.1.1,0,0,0,.056.028s-.056-.028-.028,0a.1.1,0,0,0,.056.028c-.056-.028-.056-.028-.028,0s0,.056,0-.028a36.054,36.054,0,0,0,.056.056c-.056-.084-.028-.028,0,0v.028c0,.028-.028.056,0-.028v.028c0,.028-.028.028,0-.028v.028c-.028.056.056-.056,0,0-.028.028-.028,0,.028-.028l-.028.028c.028,0,.028,0,.056-.028.056,0,.084-.028.056-.028h-.028c-.028,0-.112-.028.028,0h-.056c-.084-.028-.2-.028-.279-.056-.056,0-.084-.028-.139-.028h-.028c-.056-.028.084.028.028,0a.1.1,0,0,1-.056-.028c-.028,0-.028-.028-.056-.028l.028.028h-.028a.027.027,0,0,0-.028-.028c-.028-.028,0-.056.028.028a.027.027,0,0,0-.028-.028c-.028-.056.028.028.028.056v-.028c-.028-.056,0,.084,0,.056v-.028c0-.056-.028.084,0,.056v-.028c0-.028.028-.028-.028.028.028-.028.028-.056.056-.084l.028-.028c-.056.084-.028.028,0,0l.056-.056.028-.028-.028.028c.028-.028.056-.028.084-.056.028,0,.028-.028.056-.028-.084.056-.056.028-.028,0h.028c.028,0,.028,0,.056-.028h.139c.028,0,.084.028,0,0a.1.1,0,0,1,.084.028c.028,0,.028,0,.056.028.056.028-.084-.028-.028,0a.027.027,0,0,1,.028.028c.028,0,.028.028.056.028.056.028-.056-.056-.028-.028l.028.028.028.028c-.056-.056-.028-.056-.028-.028s.028.028.028.056c.028.056-.028-.084,0-.028v.028h0v.112h0c-.028.084-.028.167-.056.223.028-.084.028-.056,0-.028a.027.027,0,0,1-.028.028c-.028.056.056-.056.028-.028s-.056.028.028-.028c-.056.028.084-.028.028,0,.112-.028.084,0,.056,0-.056,0,.084.028.056,0h-.056c-.028,0-.056-.028.056.028a.027.027,0,0,1-.028-.028c-.028-.028-.084-.028-.112-.056a.908.908,0,0,0-.363-.112,4.187,4.187,0,0,0,.279.474c.028-.056.084-.139.112-.2.028-.028.056-.056.056-.084l-.028.028.028-.028c0-.028.028-.028.028-.056a3.182,3.182,0,0,1,.307-.307,3.074,3.074,0,0,0-.5-.056c0,.028.028.028.028.056V321.6c0,.028.028.056.028.084h0v.167c0,.056.028-.056,0-.028v.028a.1.1,0,0,1-.028.084v.028c-.028.056.028-.056,0-.028,0,.028-.028.056-.028.084a.027.027,0,0,1-.028.028h0l-.056.056-.028.028c-.028.028.056-.028,0,0-.028.028-.056.028-.056.056a.027.027,0,0,0-.028.028c.056-.056.056-.028,0,0a.1.1,0,0,0-.084.028h-.056c-.028,0-.056-.028.028,0a.1.1,0,0,1-.084-.028c-.028,0-.084-.028-.028,0h0c-.028,0-.028-.028-.056-.028-.028-.028-.084-.084-.028,0l-.056-.056-.056-.056h0l-.028-.028a.027.027,0,0,0-.028-.028c.056.056.028.056,0,.028,0-.028,0-.056-.028-.056v-.056s-.028.084,0,.028v-.028c0-.028.028-.056,0,.028,0-.028.028-.028.028-.056l.028-.028c-.028.056-.028.056-.028.028.028-.028.028-.056.056-.056a.027.027,0,0,0,.028-.028h0a.1.1,0,0,1,.084-.028c.028-.028-.028,0-.028,0,.028,0,.028,0,.056-.028a.1.1,0,0,0,.084-.028c-.084.028-.056,0-.028,0h.084c.028,0,.028.028-.028,0,.028.028.112.084.028,0a.339.339,0,0,0,.446,0c.028-.223.056-.446-.084-.53Z" transform="translate(-570.586 -320.862)"/></g><g transform="translate(91.413 18.028)"><path d="M526.246,314.209a3.913,3.913,0,0,0,1.339-2.761,13.531,13.531,0,0,0-.028-1.841c-.028-.614-.028-1.227-.084-1.841a1.523,1.523,0,0,0-.586-1.283,3.426,3.426,0,0,0-1.506-.363,18.585,18.585,0,0,0-3.738-.028,17.728,17.728,0,0,0-3.626.7c-.251.084-.307.2-.418.446-.112.307-.223.614-.307.921-.2.614-.335,1.2-.474,1.841a20.087,20.087,0,0,0-.418,3.626c0,.418,0,.92.418,1.172a3.367,3.367,0,0,0,1.59.279c2.622.279,5.634.92,7.838-.865.307-.251-.139-.7-.446-.446a5.691,5.691,0,0,1-3.738,1.032c-1.395-.028-2.789-.223-4.156-.363-.251-.028-.7,0-.809-.279a2.052,2.052,0,0,1,0-.92c.028-.7.112-1.367.2-2.064a21.768,21.768,0,0,1,1.032-3.961l-.223.223a19.542,19.542,0,0,1,4.044-.753,14.891,14.891,0,0,1,4.017.167.788.788,0,0,1,.669.53,3.013,3.013,0,0,1,.056.865q.042,1.046.084,2.092a6.164,6.164,0,0,1-.139,1.9,2.879,2.879,0,0,1-1,1.478A.327.327,0,0,0,526.246,314.209Z" transform="translate(-516.4 -306.011)"/></g><g transform="translate(103.426 18.412)"><path d="M561.094,308.338a23.061,23.061,0,0,1,3.4-.335,16.782,16.782,0,0,1,3.152.223,1.381,1.381,0,0,1,.92.446c.279.418.056,1.032,0,1.478-.112.893.028,1.813,0,2.706a2.939,2.939,0,0,1-.948,2.343,4.566,4.566,0,0,1-2.761.781c-1.59.028-3.961.139-4.6-1.729-.725-2.092.753-4.184.781-6.276a.307.307,0,0,0-.614,0c0,2.148-1.451,4.184-.781,6.332a2.907,2.907,0,0,0,1.757,1.9,8.454,8.454,0,0,0,3.012.391,6.041,6.041,0,0,0,3.208-.642,3.1,3.1,0,0,0,1.506-2.315c.14-1-.028-2.036.028-3.04.028-.92.474-2.036-.5-2.65a3.2,3.2,0,0,0-1.423-.391c-.725-.084-1.423-.139-2.148-.167a19.139,19.139,0,0,0-4.184.363c-.363.056-.2.669.2.586Z" transform="translate(-559.467 -307.385)"/></g><g transform="translate(101.915 21.243)"><path d="M554.509,318.335c.14-.028.279-.084.391-.112a.1.1,0,0,0,.084-.028h1a.317.317,0,0,0,.391-.223.342.342,0,0,0-.223-.391,4.71,4.71,0,0,0-1.869.112.317.317,0,0,0-.223.391c.112.2.279.307.446.251Z" transform="translate(-554.048 -317.536)"/></g><g transform="translate(98.029 29.61)"><path d="M540.021,331.332a3.73,3.73,0,0,1-1.113.885c-.423.255-.846.509-1.246.764-.734.473-1.558,1.091-.868,1.709a5.228,5.228,0,0,0,3.093.848,7.058,7.058,0,0,0,3.383-.7c.957-.509,1.469-1.26,1.358-1.988-.022-.17-.534-.17-.49,0,.178,1.248-1.58,2.363-3.895,2.412a4.993,4.993,0,0,1-2.982-.691c-.645-.57.334-1.127.979-1.539a9.377,9.377,0,0,0,2.292-1.636c.089-.158-.4-.218-.512-.061Z" transform="translate(-536.534 -331.24)"/><path d="M540.28,331.14a.4.4,0,0,1,.341.135.165.165,0,0,1,0,.167l-.008.011a5.887,5.887,0,0,1-1.661,1.257c-.219.13-.445.265-.657.4l-.119.076c-.445.281-1,.631-1.025.965a.415.415,0,0,0,.177.34,4.738,4.738,0,0,0,2.738.668l.175,0a4.779,4.779,0,0,0,3.452-1.261,1.308,1.308,0,0,0,.347-1.032.168.168,0,0,1,.031-.142.379.379,0,0,1,.287-.1c.157,0,.348.056.369.214a2.164,2.164,0,0,1-1.41,2.089,7.07,7.07,0,0,1-3.259.716l-.172,0a5.593,5.593,0,0,1-3.159-.875.738.738,0,0,1-.29-.612c.037-.464.585-.878,1.171-1.255.4-.256.833-.515,1.249-.765a3.689,3.689,0,0,0,1.083-.858A.428.428,0,0,1,540.28,331.14Zm.147.225a.4.4,0,0,0-.147-.025.247.247,0,0,0-.178.05,3.844,3.844,0,0,1-1.143.913c-.415.25-.843.508-1.244.762-.517.333-1.05.724-1.08,1.1a.545.545,0,0,0,.225.448,5.2,5.2,0,0,0,3.029.823l.168,0a6.867,6.867,0,0,0,3.164-.692c.924-.491,1.412-1.2,1.307-1.885a.275.275,0,0,0-.171-.042.29.29,0,0,0-.12.021,1.5,1.5,0,0,1-.393,1.187,4.975,4.975,0,0,1-3.6,1.332l-.18,0a4.92,4.92,0,0,1-2.87-.717.608.608,0,0,1-.244-.506c.035-.433.61-.8,1.117-1.118l.118-.075c.214-.139.442-.274.662-.406A5.971,5.971,0,0,0,540.427,331.365Z" transform="translate(-536.534 -331.24)"/></g><g transform="translate(89.846 49.995)"><path d="M510.926,421.224a21.488,21.488,0,0,0,15.9,3.766,21.842,21.842,0,0,0,4.63-1.255c.362-.139.2-.753-.167-.614a21.221,21.221,0,0,1-16.067-.167,20.234,20.234,0,0,1-3.989-2.287c-.335-.223-.641.335-.307.558Z" transform="translate(-510.781 -420.615)"/></g><g transform="translate(95.244 36.96)"><path d="M530.234,375.923a9.778,9.778,0,0,0,11.883.837,10.377,10.377,0,0,0,2.51-2.427c.223-.335-.307-.642-.53-.307a9.3,9.3,0,0,1-4.63,3.347,8.89,8.89,0,0,1-5.83-.139,8.469,8.469,0,0,1-2.929-1.757c-.335-.279-.781.167-.474.446Z" transform="translate(-530.132 -373.881)"/></g></g></g></g></g></g></svg>