<svg xmlns="http://www.w3.org/2000/svg" viewBox="0 0 152.1 172">
  <path fill="#f8f5ff" d="M25.9 44.5A103.3 103.3 0 0 0 .9 94c-2.8 18.7.7 40.2 13.2 51.2 12.6 11 34 11.2 56 11.5 21.8.3 44 .6 59.8-10.4 15.9-10.9 25.5-33 21.2-50.9-4.2-17.9-22.3-31.6-38.2-46.6C97 33.7 83.4 17 68.8 16c-14.7-1-30.4 13.5-43 28.5Z"/>
  <path d="M86.1 155.1v-.3a1.6 1.6 0 0 0-.5-.8 1.9 1.9 0 0 0-1.9-.5 23.4 23.4 0 0 0-3.6-.5l-3.2-.8-1.6-.2-.4-.2-1-.5-.8-.4a3.8 3.8 0 0 1-.4-.4 1.7 1.7 0 0 0-.5-.3c-.6-.4-.3-.7-.8-.3a13.2 13.2 0 0 1-4 1.7l-4.6 1c-.7 0-1.2-.1-1.6 0-.5.4-.4.5-.8 1a8 8 0 0 1-1.2 1c-.2 0-.5.5-.6.6-3.2 1.7-5.4 1.6-9 .7l-.2-.3a1 1 0 0 0-1.7.2 28.1 28.1 0 0 0-.5 3v.3l.3 3.8a4.5 4.5 0 0 0 3.5 2.3c.1-.3.1-.7.3-.7a1.9 1.9 0 0 0 .4-.3A17.3 17.3 0 0 0 54 167l.4.6a8.7 8.7 0 0 0 2.1 1.4 11.6 11.6 0 0 0 2.4 1 7.2 7.2 0 0 0 .7.3l.3.1a5.8 5.8 0 0 0 4.2 1.3 1.2 1.2 0 0 0 .3 0 3.4 3.4 0 0 0 .8 0 4.5 4.5 0 0 0 3.4-.4 1.5 1.5 0 0 0 .4-.2 1.5 1.5 0 0 1 .2 0 1.8 1.8 0 0 0 .9-.5 5.5 5.5 0 0 0 .7-.7 1.6 1.6 0 0 0 .3-.4.2.2 0 0 0 .1-.1 1 1 0 0 0 .2-.8 6.8 6.8 0 0 0-.2-.8 7.2 7.2 0 0 0-.6-1.5 6 6 0 0 0-2-2 22 22 0 0 0-1.3-2 1.6 1.6 0 0 0-.3-.3l-.6-.6a16 16 0 0 0-1-1.4l-.2-.2a17 17 0 0 0 8.7.8 11.3 11.3 0 0 0 5.6-.8 7.3 7.3 0 0 0 3.3-1 6.2 6.2 0 0 0 2.1-1.2 4.7 4.7 0 0 0 1-1.2 1 1 0 0 0 .3-1.3Z"/>
  <path fill="#ab9eff" d="M96.2 22.7h-2a2.1 2.1 0 0 0-1.3 0c-.4.1-.3-.3-.4 0l-.2.8a13.9 13.9 0 0 1-.3 2 15.4 15.4 0 0 1-2.4 5.6 14.6 14.6 0 0 1-1.8 2.2 6 6 0 0 1-1.9 1.1V30a1.6 1.6 0 0 0-1.5-1.4 2.9 2.9 0 0 0-.6-.4 3.5 3.5 0 0 0-3 .5 1.5 1.5 0 0 0-1.4 1.5 31.1 31.1 0 0 1 0 5.1c0 .8 0 1.9-.7 2.4a11 11 0 0 1-6.8 2 9.6 9.6 0 0 1-3.4-1l-2.7-1c-.7-.3-1.7-.9-2.5-.6a1.2 1.2 0 0 0-.5.3l-.3.3-3.2 1.4a1.5 1.5 0 0 0-.5 2.2 1.6 1.6 0 0 0 0 .3 9.3 9.3 0 0 0 0 2.7 7.3 7.3 0 0 1 0 1.2 1 1 0 0 0-.2 0l-1.4.8a27.4 27.4 0 0 0-3-4.1 1.7 1.7 0 0 0-.2-.2 3.5 3.5 0 0 0-.4-.3 17.6 17.6 0 0 0-4.9-2.8 1.2 1.2 0 0 0-.5-.5 3.2 3.2 0 0 0-.8-.3 1.3 1.3 0 0 0-.7-.3c-1.4-.2-3.6 2.4-4.6 3.2l-1.7 1.5a1 1 0 0 0-.4.5c-3 3.2-4.9 7-4.2 11.7A75 75 0 0 0 34 67.3a68.4 68.4 0 0 0 .4 12.3l1 6.2c.6 2.3 1 4.3 2.6 6a.8.8 0 0 0 .2.2 3.3 3.3 0 0 0 .5.4 2.6 2.6 0 0 0 2.5 1c3.4 1.4 7.6 1.3 11 1.1a41.6 41.6 0 0 0 17.5-4.7 1.7 1.7 0 0 0 .8-.9 2 2 0 0 0 .4-.9c4.3-1.5 3-9 2.7-12.3A69.2 69.2 0 0 0 71.3 63a.4.4 0 0 1 .2-.1 32.8 32.8 0 0 0 12.4-18.1 16.2 16.2 0 0 0 7.8-5.7c3.9-4 6-10.8 6.6-16.2a2.9 2.9 0 0 0-2-.2ZM70 52.4l-.5.4a13.4 13.4 0 0 0-.5-1.9 19 19 0 0 0-.3-2.3 2.2 2.2 0 0 0 1.1.3 27.4 27.4 0 0 0 3.9 0 28.6 28.6 0 0 1-3.7 3.5Z"/>
  <path d="M75.1 11.4a2.7 2.7 0 0 0-.3-1.8 10 10 0 0 0-2-4 14.9 14.9 0 0 0-5.5-4.1 16.5 16.5 0 0 0-13.5.1 17 17 0 0 0-5 3.5 10.9 10.9 0 0 0-2 2 15.6 15.6 0 0 0-3 5.2 14 14 0 0 0-1.4 4.5v.2a19.1 19.1 0 0 0 .4 10.7 13.2 13.2 0 0 0 .7 1.8 3.6 3.6 0 0 0 .6 1.2 3.4 3.4 0 0 0 1 1 1.5 1.5 0 0 0 1.4.1 1.6 1.6 0 0 0 .8-1 2.2 2.2 0 0 0 0-.8 3.2 3.2 0 0 0 0-.6l.5-2.9.4-2.2a7.6 7.6 0 0 0 .1-.8c-.7-1.2-1.7-2.1-2-3.4a2.4 2.4 0 0 1-.2-.5.9.9 0 0 1 0-.3l.3-1.3a3.3 3.3 0 0 1 2-1.5 2.4 2.4 0 0 1 1.1 0 13.8 13.8 0 0 1 1.6.3 4.8 4.8 0 0 0 3 0c1.6-.7 2.4-2.4 3.4-3.7a6.7 6.7 0 0 1 3.6-2.6 7.9 7.9 0 0 1 2.3-.3 1.6 1.6 0 0 1 .4 0l2.2.6a.9.9 0 0 0 .3 0L68 12a4.7 4.7 0 0 0 2 1 4.4 4.4 0 0 0 2.7.9 1 1 0 0 0 1.1-.3 2.3 2.3 0 0 0 1.2-2.2ZM68.8 59.4c-5.8 3.4-13 5.2-19.7 3.6a18.2 18.2 0 0 1-9-5 15.5 15.5 0 0 1-3.3-5 14.1 14.1 0 0 1 .1-10.6c.2-.4-.4-.8-.6-.4a14.6 14.6 0 0 0-.5 10.1 16.3 16.3 0 0 0 2.7 5.3C43 63.2 51 65 58 64a30.6 30.6 0 0 0 11.2-4c.3-.3 0-.8-.4-.6ZM86 22.4a24.4 24.4 0 0 1 .3-4.5l-.5.3a3.3 3.3 0 0 1 1.8 3.4 13.6 13.6 0 0 1-.3 2.2 10.9 10.9 0 0 1-.5 2c-.4.8-1 1.6-1.3 2.5a4.6 4.6 0 0 0-.2 1.3 15 15 0 0 0 0 1.6c0 1.1.2 2.2.3 3.2a14 14 0 0 1-.2 3.4 54.3 54.3 0 0 1-2 7.8.4.4 0 0 0 .6.2 60 60 0 0 0 2-7.3 18.1 18.1 0 0 0 .3-3.4l-.3-3.4a10.4 10.4 0 0 1 0-1.7 5.2 5.2 0 0 1 .2-1.5 7.7 7.7 0 0 1 .6-1.4 5 5 0 0 0 .7-1.2 16.3 16.3 0 0 0 .8-4.4 3.9 3.9 0 0 0-2.3-4 .4.4 0 0 0-.4.2 26.4 26.4 0 0 0-.3 4.7c0 .5.6.5.6 0Z"/>
  <path d="M87.6 16.5a2.7 2.7 0 0 0-1.7-1 2 2 0 0 0-1.8.7 5.6 5.6 0 0 0-1 3.8 10 10 0 0 0 .2 2.2c.1.4.8.2.7-.2a8.8 8.8 0 0 1 0-4.3 2.1 2.1 0 0 1 1.3-1.5 1.8 1.8 0 0 1 1.9.8c.2.3.7-.2.4-.5Z"/>
  <path d="m84.9 15.7-.5-.2a.9.9 0 0 0-.5 0 3 3 0 0 0-1 .2 2.6 2.6 0 0 0-1.2 1.2 3 3 0 0 0-.3 1v1.4a27 27 0 0 0 0 2.7c0 .4.7.4.7 0a19.7 19.7 0 0 1 0-2.3v-1.3a6.8 6.8 0 0 1 .1-1 1.7 1.7 0 0 1 1-1 3.4 3.4 0 0 1 .7-.3l1 .2c.4.1.4-.6 0-.6Z"/>
  <path d="M82.9 15.8a3.7 3.7 0 0 0-2.1.3 2.5 2.5 0 0 0-1 1.5 11.2 11.2 0 0 0-.2 4.8c0 .5.8.3.7-.1a10.8 10.8 0 0 1 0-4.3 2 2 0 0 1 .8-1.2c.5-.4 1.2-.2 1.8-.2a.4.4 0 0 0 0-.8Z"/>
  <path d="M80.1 17.1c-1 0-1.6.8-2 1.5a7.6 7.6 0 0 0-.7 3 7.7 7.7 0 0 0 .6 3 10.5 10.5 0 0 1 .7 3c0 2.3.4 4.6.3 6.9a22.6 22.6 0 0 1-1.3 6.7 24.5 24.5 0 0 1-6.7 10 23.6 23.6 0 0 1-10.3 5.6 11.4 11.4 0 0 1-6 0 7 7 0 0 1-4.4-3.8c-.2-.4-.9-.2-.7.2 1.4 3.4 5.3 5 8.8 4.7a21.7 21.7 0 0 0 10.8-4.3 25.2 25.2 0 0 0 7.8-9 24.8 24.8 0 0 0 2.2-6.2 25.4 25.4 0 0 0 .4-7l-.2-4a12.6 12.6 0 0 0-.9-3.3 7 7 0 0 1-.2-3.6c.2-.9.6-2.8 1.9-2.7.4 0 .4-.6 0-.7ZM98 15.4c2-.4 4.2-.8 6.3-1l8.9-1.5 2.8-.5c.4 0 .2-.7-.2-.7l-6.4 1-8.9 1.5-2.7.5c-.5 0-.3.7.1.7ZM86.3 17.2l5-.8a.4.4 0 0 0 .2-.4.4.4 0 0 0-.4-.3l-5 .8a.4.4 0 0 0-.2.4c0 .2.3.3.4.3Z"/>
  <path d="M114.5 19a10.7 10.7 0 0 0 .7 2.8c.2.5.6 1.4 1.3 1.4.6 0 .9-.8 1-1.3a10.4 10.4 0 0 0 .5-2.4 15.4 15.4 0 0 0-.5-5.4 7 7 0 0 0-.9-2c-.5-.7-1.1-.5-1.5.2a7.4 7.4 0 0 0-.7 3 15.4 15.4 0 0 0 .2 3.6c0 .5.8.5.7 0a16.8 16.8 0 0 1 .1-5 3.6 3.6 0 0 1 .3-1l.2-.4c0-.1.1 0 0-.1l.1.1a5.4 5.4 0 0 1 .7 1.6 14 14 0 0 1 .6 4.4 12.8 12.8 0 0 1-.2 2.2 5.5 5.5 0 0 1-.5 1.5.6.6 0 0 1-.1.2h-.1a3 3 0 0 1-.5-1 11.8 11.8 0 0 1-.6-2.6c0-.4-.8-.2-.8.3ZM77.5 22.3h-7.4.2a2 2 0 0 1-.4-2 2.4 2.4 0 0 1 .2-.5c.2-.2.3-.2.5-.2l1.6-.1 6.2-.8c.5 0 .5-.7 0-.6l-4.8.6-2.5.2a4.4 4.4 0 0 0-1 .1 1.3 1.3 0 0 0-.6.6 2.8 2.8 0 0 0 .2 3 .8.8 0 0 0 .6.4h7.2c.5 0 .5-.7 0-.7Z"/>
  <path d="m87.5 23.2 4.4-.1h6.3l13.3.2h5.1c.5 0 .5-.8 0-.7H106l-13.4-.2c-1.7 0-3.4 0-5 .2-.5 0-.5.7 0 .6ZM78.2 23.9a2.3 2.3 0 0 0-2-.3 1.6 1.6 0 0 1-.8 0 .7.7 0 0 1-.2-.3s0-.1 0 0V23c0-.2 0-.3-.2-.4a.3.3 0 0 0-.5 0 1 1 0 0 0 .2 1.2 1.3 1.3 0 0 0 1 .5 7.2 7.2 0 0 0 1.2-.1 1 1 0 0 1 .8.1c.4.3.8-.2.5-.5ZM86 16.7a2.5 2.5 0 0 0-.7 2.4.4.4 0 0 0 .7-.2 1 1 0 0 1 0-.2V17.7c.1 0 0 0 0 0l.1-.1.2-.2v-.1l.1-.1a.4.4 0 0 0-.5-.5ZM111.2 12.9a10.3 10.3 0 0 0-.2 5.2c0 .4.8.2.7-.2a9.6 9.6 0 0 1 .2-4.9.4.4 0 0 0-.7-.1ZM116.3 16.5l-1.3 3.7a.4.4 0 0 0 .7.1l1.3-3.6a.4.4 0 0 0-.3-.4.4.4 0 0 0-.4.2ZM64.7 43a11.4 11.4 0 0 0 9.4 1.1.4.4 0 0 0-.1-.6 10.8 10.8 0 0 1-9-1 .4.4 0 0 0-.3.5ZM94.2 15.5v2.4c-.1.4 0 1.2-.4 1.3-.3 0-.4-.1-.5-.3a2.4 2.4 0 0 1-.2-.9 6 6 0 0 1 0-2.2.4.4 0 0 0-.2-.4.4.4 0 0 0-.4.2 8.4 8.4 0 0 0-.2 2.2 3.3 3.3 0 0 0 .6 1.8 1 1 0 0 0 1.5 0 2.3 2.3 0 0 0 .4-1.5v-2.6c0-.5-.6-.5-.6 0Z"/>
  <path d="M94.2 15.5a1.9 1.9 0 0 0 0 1v1a2.3 2.3 0 0 0 .5 1.7 1 1 0 0 0 1.5-.3 2.4 2.4 0 0 0 .4-1.4l-.2-2.2c0-.5-.7-.5-.7 0l.2 2a1.5 1.5 0 0 1-.4 1.3c-.5.4-.6-.7-.6-1v-1a2.5 2.5 0 0 1 0-1 .4.4 0 0 0-.2-.4.5.5 0 0 0-.5.3Z"/>
  <path d="M97.7 14.6c-.5.3-.5 1-.5 1.5a6.7 6.7 0 0 1 .1 1.6.4.4 0 0 1 0 .2.3.3 0 0 1-.1 0v.1s-.2.1-.1 0v.1h-.2c-.1 0 0 0 0 0h-.1v-.2a2.5 2.5 0 0 1-.1-.7c0-.7-.2-1.4-.3-2a.4.4 0 0 0-.4-.3.4.4 0 0 0-.3.4l.3 2a4.1 4.1 0 0 0 0 .8 1 1 0 0 0 .5.6.9.9 0 0 0 1.1-.2 2 2 0 0 0 .4-1.7l-.1-1c0-.2 0-.6.2-.7a.3.3 0 0 0 0-.4.5.5 0 0 0-.4 0Z"/>
  <path d="M89.8 15.8a1.6 1.6 0 0 1-1 0c-.4-.3 0-.7.3-.8a3.6 3.6 0 0 1 1.7-.1 4 4 0 0 0 1.7-.2 6.1 6.1 0 0 0 .6-.3 2.7 2.7 0 0 1 .8-.3 10.2 10.2 0 0 1 1.7-.2 5.4 5.4 0 0 1 1.7.1c.4.1 1.4.4 1.4.8a.3.3 0 0 0 .7 0c0-1-1.7-1.5-2.5-1.6a7.7 7.7 0 0 0-3.4.3 3.6 3.6 0 0 0-.8.3 2.7 2.7 0 0 1-.8.4 11 11 0 0 1-2 0c-.8 0-2 .3-2 1.3s1.4 1.2 2.2 1c.3-.1.2-.8-.3-.7Z"/>
  <path d="M90.8 16a6.6 6.6 0 0 0 .2 2.8 1.5 1.5 0 0 0 .8 1 1 1 0 0 0 1-.3 1.3 1.3 0 0 0 .2-1.4c-.2-.4-.8 0-.5.3a.6.6 0 0 1 0 .5s0 .1-.1.2h-.1s-.1 0 0 0H92L92 19a.9.9 0 0 1-.2-.3 6 6 0 0 1-.2-2.7.3.3 0 0 0-.4-.3.4.4 0 0 0-.4.3ZM45.9 34.2a54.7 54.7 0 0 1 8.3 4c.4.3.8-.3.4-.5a58.2 58.2 0 0 0-8.5-4.2c-.5-.1-.6.5-.2.7Z"/>
  <path d="m53.8 37.5-2.5 7 .6-.1a56.7 56.7 0 0 1-7.7-8c-.3-.3-.8.2-.5.6a62.4 62.4 0 0 0 7.7 7.9.4.4 0 0 0 .6-.2l2.5-7a.4.4 0 0 0-.7-.2Z"/>
  <path d="M54 37.7c1 1.6 2 3.1 2.8 4.7.3.3.9 0 .6-.4l-2.7-4.6a.3.3 0 1 0-.6.3ZM59.2 41.4a28.6 28.6 0 0 1-.3-6c0-.5-.6-.5-.6 0a28.3 28.3 0 0 0 .3 6.2c0 .5.7.3.6-.2Z"/>
  <path d="m58.7 36.1 2.6 1.9.6.4a2 2 0 0 0 .6.4c.5.2.8-.3 1-.6a12.6 12.6 0 0 0 .7-2.3 8.3 8.3 0 0 0 .2-2.5c0-.4-.7-.4-.7 0a7.3 7.3 0 0 1-.1 2.2 10.6 10.6 0 0 1-.7 2 2.7 2.7 0 0 1-.2.5v.1l-.3-.3-1-.8-2.3-1.6c-.4-.2-.7.4-.4.6ZM38 83.8a39.8 39.8 0 0 0 14.2 2.3 35.2 35.2 0 0 0 3.6-.1l3.1-.5a30.8 30.8 0 0 0 6.2-1.8 19.3 19.3 0 0 0 6-4c.3-.4-.2-.8-.5-.5a21.7 21.7 0 0 1-11.1 5.5 41.7 41.7 0 0 1-13.6.3 34.2 34.2 0 0 1-7.8-1.9c-.4-.1-.6.6-.2.7Z"/>
  <path d="M48 156.8a104 104 0 0 0-.7-16c-.6-5.6-1.5-11.1-2.6-16.6l-3.2-16.4c-1-5.2-1.8-10.5-2.6-15.7a60.4 60.4 0 0 1-1-16.2l.3-1.9c0-.4-.6-.6-.7-.2-1 5.2-.4 10.6.3 15.9.8 5.3 1.6 10.5 2.6 15.8l3.2 16.4c1 5.5 2.1 11 2.8 16.6a111.6 111.6 0 0 1 1 16.4v1.9c0 .4.6.4.6 0Z"/>
  <path d="M62.5 87a55.8 55.8 0 0 1-.6 6.5c-.3 2.1-.4 4.3-.6 6.5l-1 13c-.7 8.7-1.1 17.3-.9 26a117.7 117.7 0 0 0 1.1 14.4l.1-.4a10 10 0 0 1-10 2.7 9.1 9.1 0 0 1-2.7-1.3c-.4-.3-.7.3-.4.6a11 11 0 0 0 11.3.4 8.5 8.5 0 0 0 2.3-1.8c.2-.3.1-.4 0-.7v-1.2l-.3-2-.6-8.7c-.2-5.7-.1-11.5.2-17.2.2-5.8.6-11.6 1.1-17.4l.7-8.7.4-4.3.5-4.3.1-2c0-.5-.7-.5-.7 0Z"/>
  <path d="m64.5 83 .2 5.7a4.2 4.2 0 0 1-.6 2.1 3.8 3.8 0 0 1-2.1 1.3.4.4 0 0 0 .2.7 4.8 4.8 0 0 0 2.3-1.2 3.6 3.6 0 0 0 .8-2.3V83a.4.4 0 1 0-.8 0ZM70.4 70a147.3 147.3 0 0 1 1.1 18 153 153 0 0 1-1 18c-.4 3-.8 5.9-1 8.8s-.3 6-.3 8.9a146.5 146.5 0 0 0 1.2 17.6l.6 4.3.3 2.1a2 2 0 0 1-.5 1.9 4.8 4.8 0 0 1-1.7.8l-2 .6a28.2 28.2 0 0 1-4.2.9 16.5 16.5 0 0 1-2.1.1.3.3 0 0 0 0 .7 30.4 30.4 0 0 0 8.4-1.7c1-.3 2.3-.7 2.7-2a3.9 3.9 0 0 0 0-1.8l-.3-2.1a161.3 161.3 0 0 1-1.7-18 107 107 0 0 1 .9-18.1 151.7 151.7 0 0 0 1.4-18.3 142.7 142.7 0 0 0-.8-18.5l-.3-2.3c0-.4-.7-.4-.7 0Z"/>
  <path d="M71.3 150a12.4 12.4 0 0 0 4.1 2.2 26 26 0 0 0 4.4.8 22.6 22.6 0 0 1 4.5.8 1.9 1.9 0 0 1 1.5 1.4 2.4 2.4 0 0 1-1 2.1 10.7 10.7 0 0 1-3.1 1.6 31.9 31.9 0 0 1-3.4 1 29.6 29.6 0 0 1-7.7.5c-2.4-.1-5.2-.6-7-2.3-.3-.3-.8.2-.5.5a11 11 0 0 0 6.5 2.4 28.6 28.6 0 0 0 8.1-.4 20.6 20.6 0 0 0 6.9-2.2c1.2-.8 2.5-2.4 1.6-4-.7-1.3-2.7-1.5-4-1.7l-5.4-.8a12.1 12.1 0 0 1-5.1-2.4c-.2-.3-.8.2-.4.5Z"/>
  <path d="M60.8 156.9c.8.5 1.6 1 2.4 1.7a6.7 6.7 0 0 1 1.7 1.8 12.3 12.3 0 0 0 1.3 1.9 19 19 0 0 0 1.6 1.5 10.5 10.5 0 0 1 2.9 3.4 2.4 2.4 0 0 1 .1 2 2.4 2.4 0 0 1-.7 1 5.4 5.4 0 0 1-2.7 1 14.5 14.5 0 0 1-3.3 0 17.5 17.5 0 0 1-6-1.5 15.5 15.5 0 0 1-7.4-7.3c-.2-.4-.7 0-.6.4a16 16 0 0 0 6.7 7 17.2 17.2 0 0 0 6.8 2 18.8 18.8 0 0 0 3.5.2 7 7 0 0 0 3-1 3.3 3.3 0 0 0 1.6-2.4 4.2 4.2 0 0 0-.8-2.5 9.1 9.1 0 0 0-1.5-1.7c-1.4-1.3-2.8-2.3-3.7-4a5.8 5.8 0 0 0-1.9-2.1l-2.7-2c-.3-.3-.7.3-.3.6Z"/>
  <path d="M47.3 154.7c.3 2.3-.6 4.6-.2 7a3.8 3.8 0 0 0 1.6 2.5 2.7 2.7 0 0 0 2.7.2c.4-.2 0-.8-.3-.6a2 2 0 0 1-2.4-.4 3.7 3.7 0 0 1-1-2.7c0-2 .6-4 .4-6-.1-.5-.8-.5-.8 0ZM79.4 29.6a6.2 6.2 0 0 1 6-.7c.4.1.8-.5.3-.6a6.8 6.8 0 0 0-6.7.7c-.3.3 0 .9.4.6ZM65.6 20.6a.7.7 0 0 0-.9-.1.7.7 0 0 0-.4.7.8.8 0 0 0 .6.7.7.7 0 0 0 .8-.3 1.1 1.1 0 0 0 .2-.4.7.7 0 0 0 0-.3.6.6 0 0 0 0-.3.5.5 0 0 0-.2-.1.2.2 0 0 0-.3 0 2.3 2.3 0 0 0-.6.6.3.3 0 0 0 0 .3.3.3 0 0 0 .3.2.5.5 0 0 0 .6.1.7.7 0 0 0 .2-.4.9.9 0 0 0 0-.5.7.7 0 0 0-.5-.5.8.8 0 0 0-.7.1 1 1 0 0 0-.3.4.5.5 0 0 0 0 .4 1 1 0 0 0 .7.4.8.8 0 0 0 .4 0 .5.5 0 0 0 .3-.4.6.6 0 0 0 0-.4.6.6 0 0 0-.6-.3.7.7 0 0 0-.7.7.5.5 0 0 0 .4.5.5.5 0 0 0 .5-.2.4.4 0 0 0 0-.4V21a.3.3 0 0 0-.3 0 .3.3 0 0 0-.2.4V21a.1.1 0 0 1 .1 0v.1a.1.1 0 0 0 .1-.1h.1a.1.1 0 0 0 .1 0h.1a2 2 0 0 1-.4-.2.1.1 0 0 1 .1 0 .7.7 0 0 1-.1 0c-.1 0 0 0 0 0a.1.1 0 0 1 0 .1.3.3 0 0 1 .1 0h.2a.1.1 0 0 1-.1 0c.1 0 0 0 0 0a.7.7 0 0 1 0 .2.1.1 0 0 0 .1 0 .1.1 0 0 1 .1 0l-.1-.1a.5.5 0 0 0-.3-.1l.3.5v-.1l.2-.2h.1V21a2.3 2.3 0 0 1-.3-.2 1.3 1.3 0 0 1 0 .2h-.1c-.1.1 0 0 0 0l-.2.1a.1.1 0 0 0 .1 0h-.2l-.1-.1s.1 0 0 0a.1.1 0 0 0 .1-.1.1.1 0 0 1 .1 0 .3.3 0 0 0 .4 0c.3-.1.3-.3.2-.4ZM71.4 28.5a3.6 3.6 0 0 1-2.7-1.3.3.3 0 0 1 .5-.4 2.8 2.8 0 0 0 3.7.7c1-.5 1.5-1.4 1.4-1.8 0-.3-.5-.3-.8-.3a5.3 5.3 0 0 1-3.7-1.5 5 5 0 0 1-1.1-1.4.3.3 0 0 1 .6-.3 4.4 4.4 0 0 0 1 1.3 4.6 4.6 0 0 0 3.2 1.2c1 0 1.3.5 1.4.8.2.8-.6 2-1.7 2.6a3.7 3.7 0 0 1-1.8.4ZM72 19l.7-5.1c0-.2-.2-.3-.3-.3-.2 0-.3.1-.3.3l-.7 5a.3.3 0 0 0 .2.3.3.3 0 0 0 .4-.2Z"/>
  <path d="M53.7 38.3a20 20 0 0 0 8 0 7.2 7.2 0 0 0 3.6-2 29.8 29.8 0 0 0 2.6-3.6 18.5 18.5 0 0 0 2-4.5.3.3 0 0 0-.5-.1 21.2 21.2 0 0 1-4.1 7.3l-.6.7a3.8 3.8 0 0 1-.9.7 9 9 0 0 1-1.8.8 13.4 13.4 0 0 1-3.8.5 26.2 26.2 0 0 1-4.4-.3c-.4-.1-.5.5-.1.5ZM48.9 17.6a2.4 2.4 0 0 0-1.6 2.2.3.3 0 0 0 .3.3.3.3 0 0 0 .3-.3v-.6a.2.2 0 0 1 .1 0V19a.7.7 0 0 1 .2-.3.4.4 0 0 0 .1-.2 1.3 1.3 0 0 1 .2-.2h.1a.2.2 0 0 1 .2 0v-.2h.1a.3.3 0 0 0 .3-.4.2.2 0 0 0-.3-.2Z"/>
  <path d="M68.5 30.2a6 6 0 0 1-4.9 1c-1.6-.4-3.6-1.6-3.5-3.4a.3.3 0 0 0-.6 0c0 2 2 3.5 3.7 4a6.6 6.6 0 0 0 5.6-1c.3-.3 0-.8-.3-.6ZM46.3 37.5a21.6 21.6 0 0 0 .9-3.7l.4-3.8c.1-1.2.5-2.5.7-3.8a5 5 0 0 0 0-3c-.4-.8-1-1.5-1.5-2.3a3.3 3.3 0 0 1-.1-2.1A2.4 2.4 0 0 1 48 17a4.8 4.8 0 0 1 3 .2 6.2 6.2 0 0 0 2.6.4 3.8 3.8 0 0 0 2.1-1.4l3-4a5.1 5.1 0 0 1 5-1.7 11 11 0 0 1 5.7 2.7c1.2 1 3.1 1.8 4.6 1 1.8-.9 2-3.4 1.3-5a11.9 11.9 0 0 0-3.6-5A17.7 17.7 0 0 0 66.5 1a16.8 16.8 0 0 0-12.4.3 21.2 21.2 0 0 0-5.6 3.5 20.2 20.2 0 0 0-4 4.8 17 17 0 0 0-2.2 6l-.7 5c-.3 3.3-.1 7 2 9.6a9 9 0 0 0 2 1.7c.3.2.6-.3.3-.5a7.8 7.8 0 0 1-3-3.9 13 13 0 0 1-.8-4.8 34.3 34.3 0 0 1 .5-5 22.2 22.2 0 0 1 1.4-5.5A19.9 19.9 0 0 1 47.3 7a23.1 23.1 0 0 1 2.1-2.1A21.3 21.3 0 0 1 58.2.8a17.7 17.7 0 0 1 6.3.3A15.1 15.1 0 0 1 74 7.9a7.2 7.2 0 0 1 1 2.9 3.4 3.4 0 0 1-1 2.7c-1.5 1.2-3.5 0-4.7-1-2.8-2.2-7.2-3.8-10.3-1.3a20.3 20.3 0 0 0-3 3.6 8 8 0 0 1-1.8 1.8 3 3 0 0 1-2.5.2c-1.6-.4-3.7-1.1-5 .4a4.2 4.2 0 0 0-.6 4l1.4 2.2a4.7 4.7 0 0 1 0 3.1l-.7 3.6c-.1 1.2-.1 2.5-.4 3.7a23 23 0 0 1-.8 3.5.3.3 0 0 0 .6.2Z"/>
</svg>