<svg xmlns="http://www.w3.org/2000/svg" width="48" height="35.003" viewBox="0 0 48 35.003"><rect width="0.952" height="8.939" transform="translate(43.222 4.557)" fill="#f7f7f7"/><rect width="0.302" height="8.939" transform="translate(43.397 4.557)" fill="#e5e5e5"/><circle cx="1.447" cy="1.447" r="1.447" transform="translate(42.252 2.168)" fill="#18162e"/><path d="M1186.838,771.661h-3.322v9.251h3.322c1.676,0,3.316-2.071,3.316-4.625S1188.514,771.661,1186.838,771.661Z" transform="translate(-1142.154 -758.483)" fill="#18162e"/><path d="M331.171,780.912v-9.251h-3.321c-1.676,0-3.316,2.071-3.316,4.625s1.64,4.625,3.316,4.625Z" transform="translate(-324.533 -758.483)" fill="#18162e"/><g transform="translate(0.911 13.178)"><path d="M344.959,776.286c0-2.555,1.64-4.625,3.317-4.625h-1.5c-1.676,0-3.317,2.071-3.317,4.625s1.64,4.625,3.317,4.625h1.5C346.6,780.912,344.959,778.841,344.959,776.286Z" transform="translate(-343.456 -771.661)" fill="#0a0a11"/><rect width="1.035" height="9.248" transform="translate(4.262 0.003)" fill="#0a0a11"/><g transform="translate(40.88)"><path d="M1205.675,776.286c0-2.555-1.64-4.625-3.316-4.625h1.5c1.677,0,3.317,2.071,3.317,4.625s-1.64,4.625-3.317,4.625h-1.5C1204.035,780.912,1205.675,778.841,1205.675,776.286Z" transform="translate(-1201.88 -771.661)" fill="#2a2a3f"/><rect width="1.035" height="9.248" transform="translate(1.035 9.251) rotate(180)" fill="#2a2a3f"/></g></g><path d="M3.074,0h0a0,0,0,0,1,0,0V11.96a0,0,0,0,1,0,0h0A3.074,3.074,0,0,1,0,8.887V3.074A3.074,3.074,0,0,1,3.074,0Z" transform="translate(5.637 11.823)" fill="#f7f7f7"/><path d="M456.486,755.452a1.684,1.684,0,0,1-1.227-1.687v-8.518a1.685,1.685,0,0,1,1.227-1.687v-.034h-.319a1.635,1.635,0,0,0-1.533,1.721v8.518a1.635,1.635,0,0,0,1.533,1.721h.319Z" transform="translate(-448.369 -731.703)" fill="#e5e5e5"/><path d="M0,0H0A3.074,3.074,0,0,1,3.074,3.074V8.887A3.074,3.074,0,0,1,0,11.96H0a0,0,0,0,1,0,0V0A0,0,0,0,1,0,0Z" transform="translate(39.29 11.823)" fill="#f7f7f7"/><path d="M1153.159,755.452a1.684,1.684,0,0,0,1.227-1.687v-8.518a1.685,1.685,0,0,0-1.227-1.687v-.034h.319a1.635,1.635,0,0,1,1.533,1.721v8.518a1.635,1.635,0,0,1-1.533,1.721h-.319Z" transform="translate(-1113.259 -731.703)" fill="#fff"/><g transform="translate(8.1 0)"><path d="M508.646,497.986a17.629,17.629,0,0,0-15.9,9.822v15.881c2.9,5.888,8.931,8.09,15.9,8.09s13-2.2,15.9-8.09V507.808A17.629,17.629,0,0,0,508.646,497.986Z" transform="translate(-492.746 -497.986)" fill="#f7f7f7"/><g transform="translate(1.227)"><path d="M521.224,523.689V507.808c2.131-5.888,6.555-9.822,11.67-9.822a15.718,15.718,0,0,0-11.719,5.3,11.391,11.391,0,0,0-2.954,7.642v8.826a11.867,11.867,0,0,0,9.044,11.355,22.265,22.265,0,0,0,5.63.668C527.779,531.779,523.355,529.577,521.224,523.689Z" transform="translate(-518.22 -497.986)" fill="#e5e5e5"/><path d="M822.951,497.986h0c5.115,0,9.539,3.934,11.669,9.822v15.881c-2.131,5.888-6.555,8.09-11.669,8.09h0a22.265,22.265,0,0,0,5.63-.668,11.867,11.867,0,0,0,9.044-11.355v-8.826a11.39,11.39,0,0,0-2.954-7.642A15.717,15.717,0,0,0,822.951,497.986Z" transform="translate(-808.278 -497.986)" fill="#fff"/></g><path d="M560.464,710.84a2.278,2.278,0,0,1-1.838,1.847,184.649,184.649,0,0,1-23.272,0,2.278,2.278,0,0,1-1.838-1.847,30.369,30.369,0,0,1,0-10.832,2.279,2.279,0,0,1,1.838-1.847,184.672,184.672,0,0,1,23.272,0,2.278,2.278,0,0,1,1.838,1.847A30.369,30.369,0,0,1,560.464,710.84Z" transform="translate(-531.091 -688.172)" fill="#18162e"/><g transform="translate(1.94 9.621)"><path d="M796.087,1014.615q-.679,0-1.359-.005Q795.407,1014.615,796.087,1014.615Z" transform="translate(-782.127 -999.354)" fill="#0a0a11"/><path d="M533.526,700.969a2.241,2.241,0,0,1,1.838-1.782,191.392,191.392,0,0,1,23.272,0,2.24,2.24,0,0,1,1.838,1.782,23.23,23.23,0,0,1,.486,4.591,30.538,30.538,0,0,0-.486-5.553,2.278,2.278,0,0,0-1.838-1.847,184.672,184.672,0,0,0-23.272,0,2.278,2.278,0,0,0-1.838,1.847,30.521,30.521,0,0,0-.486,5.553A23.225,23.225,0,0,1,533.526,700.969Z" transform="translate(-533.04 -697.793)" fill="#0a0a11"/><path d="M822.95,1014.615q.679,0,1.359-.005Q823.629,1014.615,822.95,1014.615Z" transform="translate(-808.99 -999.354)" fill="#0a0a11"/><path d="M855.85,1014.349l.987-.011Z" transform="translate(-840.306 -999.096)" fill="#0a0a11"/><path d="M746.637,1013.956l-.14,0Z" transform="translate(-736.218 -998.729)" fill="#0a0a11"/><path d="M896.5,1013.956l.14,0Z" transform="translate(-878.998 -998.729)" fill="#0a0a11"/><path d="M770.545,1014.349l-.987-.011Z" transform="translate(-758.169 -999.096)" fill="#0a0a11"/></g><path d="M774.114,925.651c0,.844-1.165,1.529-2.6,1.529s-2.6-.684-2.6-1.529Z" transform="translate(-755.612 -905.058)" fill="#f7f7f7"/><circle cx="2.481" cy="2.481" r="2.481" transform="translate(7.223 13.924)" fill="#f5df4d"/><circle cx="2.481" cy="2.481" r="2.481" transform="translate(19.596 13.924)" fill="#f5df4d"/></g><path d="M1204.408,545.535a1.94,1.94,0,0,1-1.018-1.8,1.612,1.612,0,0,1,.163-.717c-.038,0-.077-.005-.116-.005a1.447,1.447,0,1,0,.971,2.52Z" transform="translate(-1159.738 -540.847)" fill="#0a0a11"/><g transform="translate(2.59 24.882)"><path d="M383.283,1024.43l-2.58-9.475a.322.322,0,0,0-.405-.223c-1.408.434-2.451.96-1.738,3.579.691,2.538,2.8,6.175,4.348,6.52A.322.322,0,0,0,383.283,1024.43Z" transform="translate(-378.329 -1014.717)" fill="#2a2a3f"/><path d="M383.283,1024.431l-.008-.028a1.837,1.837,0,0,0-.312-.424,10.872,10.872,0,0,1-2.553-3.687,7.8,7.8,0,0,1-.166-4.636,2.785,2.785,0,0,1,.366-.853.321.321,0,0,0-.312-.071c-1.408.434-2.451.96-1.738,3.579.691,2.538,2.8,6.175,4.348,6.52A.321.321,0,0,0,383.283,1024.431Z" transform="translate(-378.329 -1014.719)" fill="#0a0a11"/></g></svg>