<svg xmlns="http://www.w3.org/2000/svg" width="144" height="144" viewBox="0 0 144 144"><g transform="translate(-749 -523)"><path d="M27.189-49.923C38.279-40.4,47.26-27.2,45.542-15.717c-1.8,11.4-14.213,21.164-25.3,30.379C9.149,23.8-.613,32.467-10.062,32.233s-18.665-9.45-25.459-18.587C-42.394,4.431-46.845-4.784-47-14.155c-.156-9.45,3.9-18.977,10.7-28.583C-29.43-52.266-19.9-61.794-8.5-63.59S16.1-59.451,27.189-49.923Z" transform="translate(822.006 610.91)" fill="#edf5fe"/><g transform="translate(43 -317)"><circle cx="72" cy="72" r="72" transform="translate(706 840)" fill="#fff" opacity="0"/><g transform="translate(721.158 861.979)"><g transform="translate(36.543 0.514)"><path d="M511.338,341.343a2.244,2.244,0,0,0-.587-1.361,1.348,1.348,0,0,0-.892-.329,2.955,2.955,0,0,0-1.1-.587.667.667,0,0,0-.563.07c.235-.821.469-1.643.7-2.488a8.62,8.62,0,0,0,.634-3.426,3.746,3.746,0,0,0-.117-.493,1.9,1.9,0,0,0,0-.516,1.641,1.641,0,0,0-.211-.563,1.49,1.49,0,0,0-1.2-.751,1.927,1.927,0,0,0-1.314.516l-.094.094a3.476,3.476,0,0,0-1.267.821,1.632,1.632,0,0,0-.657.54,2.509,2.509,0,0,1-.07-.587c-.047-.634-.023-1.291-.047-1.924-.023-.8-.047-1.572-.07-2.37a3.28,3.28,0,0,0-.54-1.924,1.912,1.912,0,0,0-1.5-.774,1.72,1.72,0,0,0-1.5,1.15,15.528,15.528,0,0,0-.563,1.971,1.73,1.73,0,0,1-.094.329c-.751-.634-1.479-1.267-2.276-1.877a13.363,13.363,0,0,0-3.45-2.112,2.1,2.1,0,0,0-1.643,0,1.484,1.484,0,0,0-.7,1.6,3.68,3.68,0,0,0-4.13-1.525,2.982,2.982,0,0,0-1.291.751,1.218,1.218,0,0,0-1.1,1.784c.07.117.117.211.188.329v.094c-.07,1.76,1.126,3.074,2.347,4.177a1.323,1.323,0,0,0,.563.305,7.194,7.194,0,0,0,1.572,1.338l.211.211a.023.023,0,0,0,.023.023c.023.023.023.047.047.094a1.075,1.075,0,0,0,1.244.516c.07-.023.141-.07.211-.094a.946.946,0,0,0,.634-.141,10.989,10.989,0,0,1,8.589,15.113,8.115,8.115,0,0,1-1.408,1.431.616.616,0,0,0,.681,1.009,2.5,2.5,0,0,1,.446-.164,1.215,1.215,0,0,0,1.549.422.412.412,0,0,1,.094.117,5.7,5.7,0,0,1,.305.892,3.125,3.125,0,0,1-.282,2.464,7.6,7.6,0,0,1-3.614,2.84h-.282c-.328,0-.657.07-.962.094a3.33,3.33,0,0,0-.516.117.4.4,0,0,0-.164.023,2.562,2.562,0,0,0-.352.188,2.062,2.062,0,0,0-.657.282,2.452,2.452,0,0,0-.915,1.15v.023a2.645,2.645,0,0,0-.282,2.018,2.119,2.119,0,0,0,.094.657,1.037,1.037,0,0,0,.657.634.651.651,0,0,0,.422,0,.88.88,0,0,0,.493,0h0a1.337,1.337,0,0,0,.61.094,3.169,3.169,0,0,0,.8-.141,3.769,3.769,0,0,0,1.361-.7.289.289,0,0,0,.094-.188c.211-.164.446-.352.657-.516a.582.582,0,0,0,.493-.141,44.3,44.3,0,0,0,5.28-5.21,15.09,15.09,0,0,0,.892-1.244c.258-.282.469-.587.68-.845a9.869,9.869,0,0,0,1.408-2.7.694.694,0,0,0,.352-.375,6.316,6.316,0,0,0-.563-5.609.709.709,0,0,0-.751-.352v-.023c.235-.164.493-.352.7-.516a3.207,3.207,0,0,0,2.089-1.6l.047-.047a3.065,3.065,0,0,0,.4-.657A3.112,3.112,0,0,0,511.338,341.343Z" transform="translate(-468.721 -324.583)"/><path d="M449.688,567.05c-10.138,4.787-25.439,2.018-29.757.892-4.318-1.15-4.9-2.793-4.9-2.793a.073.073,0,0,1,.023-.047,2.185,2.185,0,0,0,.117-.329v-.023l.141-.282c.023-.023.023-.047.047-.047q.422-.986.915-1.971a18.359,18.359,0,0,1,3.051-4.154c2.957-2.957,3.99-3.943,1.83-10.654-2.159-6.688-5.726-12.813-7.252-15.794.446-.023,1.6-.047,2.018-.094,3.285-.258,5.7-3.121,6.36-6.125.727-3.4-.4-6.688-1.432-9.9a3.448,3.448,0,0,0,2.276.117,2.9,2.9,0,0,0,1.033-.54c.282.845.493,1.69.7,2.417a15.612,15.612,0,0,0,4.083,6.876c2.488,2.3,5.585,3.52,8.988,2.652,2.464-.61,5-2.018,6.078-4.435a8.006,8.006,0,0,0,.422-4.694,16.408,16.408,0,0,0-.868-2.957,4.75,4.75,0,0,0,1.291,0,6.832,6.832,0,0,0,1.385-.235c.023,0,.023,0,.047-.023a3.535,3.535,0,0,0,.774-.305c.915,2.323,1.877,4.623,2.722,6.97a44.657,44.657,0,0,1,1.244,5.3,14.74,14.74,0,0,0,.4,1.455v.023c.422,1.666.8,3.473,1.126,5.351,1.995,12.3.939,17.014-4.412,23.89C447.013,559.024,448.35,564.163,449.688,567.05Z" transform="translate(-413.9 -470.007)" fill="#69aefa"/><path d="M556.487,526.8a56.794,56.794,0,0,0-4.787-11.969c.023,0,.023,0,.047-.023a3.538,3.538,0,0,0,.775-.305c.915,2.323,1.877,4.623,2.722,6.97A42.681,42.681,0,0,1,556.487,526.8Z" transform="translate(-519.362 -469.931)" fill="#69aefa"/><path d="M419.017,728.4a1.837,1.837,0,0,0-.117.329A1.392,1.392,0,0,1,419.017,728.4Z" transform="translate(-417.727 -633.634)" fill="#69aefa"/></g><g transform="translate(0 0)"><g transform="translate(73.563 26.641)"><path d="M572.272,469.446a2.68,2.68,0,0,1,.821-2.581,5.984,5.984,0,0,1,2.464-1.455c1.83-.516,3.8-.117,5.632.164a25.1,25.1,0,0,0,6.078.282,21.874,21.874,0,0,0,6.36-1.5,18.489,18.489,0,0,0,8.753-7.463,12.234,12.234,0,0,0,1.76-5.374,15.609,15.609,0,0,0-.821-5.491,18.319,18.319,0,0,0-6.149-9.246c-.375-.282-.774-.563-1.173-.821-.282-.188-.563.282-.258.446a16.9,16.9,0,0,1,6.759,8.824,18.315,18.315,0,0,1,1.126,5.491,10.946,10.946,0,0,1-1.431,5.421,17.714,17.714,0,0,1-8.589,7.65,21.213,21.213,0,0,1-6.36,1.549,25.5,25.5,0,0,1-3.285.07c-.939-.047-1.877-.188-2.816-.329a13.67,13.67,0,0,0-5.515-.211,6.129,6.129,0,0,0-2.464,1.244,4.564,4.564,0,0,0-.962.939,2.8,2.8,0,0,0-.493,1.291,2.889,2.889,0,0,0,.023,1.267c.117.305.634.164.54-.164Z" transform="translate(-571.65 -435.914)"/></g><g transform="translate(49.376 9.895)"><path d="M469.081,374.823a24.82,24.82,0,0,1,4.952-6.876,10.128,10.128,0,0,1,6.618-2.816,5.584,5.584,0,0,1,3.379,1.338,18.476,18.476,0,0,1,2.769,2.816,9.519,9.519,0,0,1,2.182,7.158c-.516,3.145-2.91,5.632-5.28,7.6-.258.211.117.587.375.375,2.206-1.854,4.412-4.13,5.21-6.993a9.361,9.361,0,0,0-1.478-7.65,15.8,15.8,0,0,0-2.722-3.145,7.29,7.29,0,0,0-3.4-1.948c-2.534-.516-5.116.61-7.111,2.089-2.675,1.995-4.388,4.858-5.961,7.721-.141.352.305.61.469.329Z" transform="translate(-468.585 -364.558)"/></g><g transform="translate(56.26 18.92)"><path d="M499.464,403.41a1.036,1.036,0,0,0-1.22.188,1,1,0,0,0-.211,1.2,1.2,1.2,0,0,0,1.033.587,1.125,1.125,0,0,0,1.009-.634,1.347,1.347,0,0,0-.094-1.361.342.342,0,0,0-.211-.141.35.35,0,0,0-.235.07,3.966,3.966,0,0,0-.751,1.2.257.257,0,0,0,.07.282.308.308,0,0,0,.282.07h.047c.07.023.117.023.188.047a.892.892,0,0,0,.422.07c.516-.07.516-.774.469-1.173a.921.921,0,0,0-.774-.774,1.416,1.416,0,0,0-1.126.305c-.282.235-.54.728-.282,1.079a1.278,1.278,0,0,0,.986.422,2.836,2.836,0,0,0,.446.023.456.456,0,0,0,.305-.07.768.768,0,0,0,.258-.352.827.827,0,0,0-.821-1.079,1.084,1.084,0,0,0-1.009,1.22.673.673,0,0,0,.587.587.685.685,0,0,0,.657-.446.527.527,0,0,0-.047-.422.3.3,0,0,0-.4-.094.294.294,0,0,0-.094.4l.023.023s-.023-.047-.023-.023v-.047c0,.047.023-.047,0,0s.023-.047-.023.023l-.023.023h0a.023.023,0,0,0-.023.023c-.023.023.047,0,.023,0h-.023c-.047.023.023-.023.023,0,0,0-.117-.023-.023,0h0c-.023-.023.023,0,.023.023l-.023-.023c-.047-.023.023.023,0,0,0-.023-.023-.023-.023-.047,0,.023.023.047,0,0,0-.023-.023-.117-.023-.023v-.117h0v-.07c0-.023.023-.07,0-.023.023-.023.023-.047.047-.07,0-.023.047-.07.023-.023l.07-.07c.023,0,.023-.023.047-.023h0c.023,0,.023-.023.047-.023,0,0,.07-.047.047-.023h0a.082.082,0,0,0,.047-.023c.023,0,.094-.023.023,0h.141c-.023,0-.07-.023,0,0,.023,0,.094.047.047,0,.023,0,.047.023.07.023l-.023-.023.023.023.023.023-.023-.023s.047.047.047.07l.023.023s-.023-.047,0-.023c0,.023.023.047.023.094v.047c0,.047.023-.047,0,0,0,.023-.023.047-.023.07s0-.023.023-.023l-.023.047c-.023.047.023-.047,0,.023l-.023.023h0c.047-.023.094-.023.141-.047h-.493a.3.3,0,0,1-.141-.023h-.023s.07.023.023,0a.086.086,0,0,1-.07-.023c-.094-.023-.164-.047-.258-.07-.07-.023.047.023,0,0-.023,0-.023-.023-.047-.023s-.023-.023-.047-.023c-.047-.023.023.023.023.023l-.023-.023a.082.082,0,0,1-.023-.047c.047.023.023.047.023,0-.023-.047.023.047,0,.023v-.023c-.023-.047,0,.07,0,.023v-.047c0-.047-.023.07,0,0,0-.023.023-.047.023-.07v.023l.023-.047.07-.141-.023.023.023-.023c.023-.023.023-.047.047-.047l.047-.047c.047-.023-.023.023-.023.023l.023-.023a.514.514,0,0,0,.117-.07l.07-.023c0,.023-.07.023-.023,0h.023c.047-.023.094-.023.141-.047.023,0,.047-.023.07,0h.164c.047,0-.07-.023-.023,0a190.334,190.334,0,0,1,.141.047h.023c.07.023-.047-.023-.023,0s.07.047.094.07l-.023-.023.023.023.047.047c.047.023-.023-.023-.023-.023l.023.023a.082.082,0,0,0,.023.047.023.023,0,0,0,.023.023c.023.047,0-.023,0-.023,0,.023.023.07.023.094l.023.07v.352c0,.047.023-.07,0,0v.047c0,.023-.023.047-.023.07v.023s.047-.07,0-.023a.023.023,0,0,1-.023.023c-.023.047.023-.023.023-.023l-.023.023c-.023.023.07-.047.023-.023-.023.023.094-.023.023,0h0c-.047,0-.023-.023.047,0H499.7c-.047,0-.07-.023-.117-.023a1,1,0,0,0-.587-.07l.352.352c0-.023.023-.047.047-.094l.07-.141c.047-.094.094-.164.141-.258a3.121,3.121,0,0,1,.328-.446c-.141-.023-.305-.047-.446-.07.047.07.07.117.117.188-.023-.07,0,.047.023.047,0,.047.023.07.023.117.023.047,0-.07,0,0v.211c0,.047.023-.07,0,0,0,.047-.023.07-.023.117,0,.023,0,.047-.023.047,0,0-.023.07,0,.023s0,.023-.023.023c0,.023-.023.023-.023.047a.178.178,0,0,0-.047.094h0c-.023.023-.023.047-.047.047l-.023.023-.023.023c.047-.023-.023.023-.023.023-.023,0-.023.023-.047.023a.082.082,0,0,0-.047.023c.047-.023.023,0,0,0-.047,0-.07.023-.117.023-.047.023.023,0,.023,0h-.164c-.023,0-.047.023,0,0h-.047a1.016,1.016,0,0,1-.117-.023s-.07-.023-.023,0-.023,0-.023,0c-.023-.023-.07-.023-.094-.047a.023.023,0,0,1-.023-.023h0a.324.324,0,0,0-.094-.07l-.023-.023c.023.023,0-.023-.023-.023-.023-.023-.023-.07-.047-.094,0,0,.023.07,0,.023,0-.023-.023-.047-.023-.07v-.047c-.023-.07,0,.047,0,0V404.4c-.023.047,0,.023,0,0s0-.023.023-.047c0-.023,0-.023.023-.047h0a.178.178,0,0,0,.047-.094c.047-.07-.047.047,0,0l.047-.047.047-.047.023-.023a.178.178,0,0,1,.094-.047c.023,0,.07-.023,0,0,.023,0,.047-.023.07-.023h.047s.094-.023.047,0h.094c.07,0-.07-.023,0,0a.086.086,0,0,1,.07.023c.023,0,.023,0,.047.023-.07-.023,0,0,.023.023a.318.318,0,0,0,.4-.094c.023-.329-.023-.493-.141-.587Z" transform="translate(-497.919 -403.014)"/></g><g transform="translate(50.863 15.47)"><path d="M476.464,388.71a1.036,1.036,0,0,0-1.22.188,1,1,0,0,0-.211,1.2,1.2,1.2,0,0,0,1.033.587,1.125,1.125,0,0,0,1.009-.634,1.347,1.347,0,0,0-.094-1.361.342.342,0,0,0-.211-.141.351.351,0,0,0-.235.07,3.966,3.966,0,0,0-.751,1.2.257.257,0,0,0,.07.282.308.308,0,0,0,.282.07h.047c.07.023.117.023.188.047a.892.892,0,0,0,.422.07c.516-.07.516-.774.469-1.173a.921.921,0,0,0-.774-.774,1.416,1.416,0,0,0-1.126.305c-.282.235-.54.727-.282,1.079a1.278,1.278,0,0,0,.986.422,2.836,2.836,0,0,0,.446.023.456.456,0,0,0,.305-.07.768.768,0,0,0,.258-.352.827.827,0,0,0-.821-1.08,1.084,1.084,0,0,0-1.009,1.22.673.673,0,0,0,.587.587.685.685,0,0,0,.657-.446.527.527,0,0,0-.047-.422.3.3,0,0,0-.4-.094.294.294,0,0,0-.094.4l.023.023s-.023-.047-.023-.023v-.047c0,.047.023-.047,0,0s.023-.047-.023.023l-.023.023h0a.023.023,0,0,0-.023.023c-.023.023.047,0,.023,0h-.023c-.047.023.023-.023.023,0,0,0-.117-.023-.023,0h0c-.023-.023.023,0,.023.023l-.023-.023c-.047-.023.023.023,0,0,0-.023-.023-.023-.023-.047,0,.023.023.047,0,0,0-.023-.023-.117-.023-.023v-.117h0v-.07c0-.023.023-.07,0-.023.023-.023.023-.047.047-.07,0-.023.047-.07.023-.023l.07-.07c.023,0,.023-.023.047-.023h0c.023,0,.023-.023.047-.023,0,0,.07-.047.047-.023h0a.082.082,0,0,0,.047-.023c.023,0,.094-.023.023,0h.141c-.023,0-.07-.023,0,0,.023,0,.094.047.047,0,.023,0,.047.023.07.023l-.023-.023.023.023.023.023-.023-.023s.047.047.047.07l.023.023s-.023-.047,0-.023c0,.023.023.047.023.094v.047c0,.047.023-.047,0,0,0,.023-.023.047-.023.07s0-.023.023-.023l-.023.047c-.023.047.023-.047,0,.023l-.023.023h0c.047-.023.094-.023.141-.047h-.493a.3.3,0,0,1-.141-.023h-.023s.07.023.023,0a.086.086,0,0,1-.07-.023c-.094-.023-.164-.047-.258-.07-.07-.023.047.023,0,0-.023,0-.023-.023-.047-.023s-.023-.023-.047-.023c-.047-.023.023.023.023.023l-.023-.023a.082.082,0,0,1-.023-.047c.047.023.023.047.023,0-.023-.047.023.047,0,.023v-.023c-.023-.047,0,.07,0,.023v-.047c0-.047-.023.07,0,0,0-.023.023-.047.023-.07v.023l.023-.047.07-.141-.023.023.023-.023c.023-.023.023-.047.047-.047l.047-.047c.047-.023-.023.023-.023.023l.023-.023a.515.515,0,0,0,.117-.07l.07-.023c0,.023-.07.023-.023,0h.023c.047-.023.094-.023.141-.047.023,0,.047-.023.07,0h.164c.047,0-.07-.023-.023,0a285.347,285.347,0,0,0,.141.047h.023c.07.023-.047-.023-.023,0s.07.047.094.07l-.023-.023.023.023.047.047c.047.023-.023-.023-.023-.023l.023.023a.082.082,0,0,0,.023.047.023.023,0,0,0,.023.023c.023.047,0-.023,0-.023,0,.023.023.07.023.094l.023.07v.352c0,.047.023-.07,0,0v.047c0,.023-.023.047-.023.07v.023s.047-.07,0-.023a.023.023,0,0,1-.023.023c-.023.047.023-.023.023-.023l-.023.023c-.023.023.07-.047.023-.023-.023.023.094-.023.023,0h0c-.047,0-.023-.023.047,0H476.7c-.047,0-.07-.023-.117-.023a1,1,0,0,0-.587-.07l.352.352c0-.023.023-.047.047-.094l.07-.141c.047-.094.094-.164.141-.258a3.114,3.114,0,0,1,.329-.446c-.141-.023-.305-.047-.446-.07.047.07.07.117.117.188-.023-.07,0,.047.023.047,0,.047.023.07.023.117.023.047,0-.07,0,0v.211c0,.047.023-.07,0,0,0,.047-.023.07-.023.117,0,.023,0,.047-.023.047,0,0-.023.07,0,.023s0,.023-.023.023c0,.023-.023.023-.023.047a.178.178,0,0,0-.047.094h0c-.023.023-.023.047-.047.047l-.023.023-.023.023c.047-.023-.023.023-.023.023-.023,0-.023.023-.047.023a.082.082,0,0,0-.047.023c.047-.023.023,0,0,0-.047,0-.07.023-.117.023-.047.023.023,0,.023,0h-.164c-.023,0-.047.023,0,0h-.047a1.02,1.02,0,0,1-.117-.023s-.07-.023-.023,0-.023,0-.023,0c-.023-.023-.07-.023-.094-.047a.023.023,0,0,1-.023-.023h0a.324.324,0,0,0-.094-.07l-.023-.023c.023.023,0-.023-.023-.023-.023-.023-.023-.07-.047-.094,0,0,.023.07,0,.023,0-.023-.023-.047-.023-.07v-.047c-.023-.07,0,.047,0,0V389.7c-.023.047,0,.023,0,0s0-.023.023-.047c0-.023,0-.023.023-.047h0a.178.178,0,0,0,.047-.094c.047-.07-.047.047,0,0l.047-.047.047-.047.023-.023a.178.178,0,0,1,.094-.047c.023,0,.07-.023,0,0,.023,0,.047-.023.07-.023h.047s.094-.023.047,0h.094c.07,0-.07-.023,0,0a.086.086,0,0,1,.07.023c.023,0,.023,0,.047.023-.07-.023,0,0,.023.023a.318.318,0,0,0,.4-.094c.047-.329,0-.493-.141-.587Z" transform="translate(-474.919 -388.314)"/></g><g transform="translate(40.56 24.263)"><path d="M438.1,425.905c-1.455,2.3-2.933,4.623-4.388,6.923-.7,1.126-1.455,2.253-2.136,3.4a2.508,2.508,0,0,0-.141,2.933,5.611,5.611,0,0,0,2.511,1.619,18.62,18.62,0,0,0,3.192.986,18.9,18.9,0,0,0,6.5.188,17.77,17.77,0,0,0,6.9-2.534c.282-.188.023-.634-.258-.446a17.551,17.551,0,0,1-12.062,2.464,18.1,18.1,0,0,1-3-.727,10.875,10.875,0,0,1-2.746-1.291,2.076,2.076,0,0,1-.845-1.1,2.047,2.047,0,0,1,.329-1.6c.61-1.08,1.338-2.112,1.995-3.168,1.549-2.464,3.1-4.9,4.67-7.369.117-.305-.329-.563-.516-.282Z" transform="translate(-431.02 -425.784)"/></g><g transform="translate(44.072 29.676)"><path d="M446.105,449.353a13.427,13.427,0,0,0,11.734,1.079c.305-.117.188-.634-.141-.516a12.9,12.9,0,0,1-11.311-1.033.274.274,0,0,0-.282.469Z" transform="translate(-445.984 -448.848)"/></g><g transform="translate(62.474 27.372)"><path d="M527.73,440.713a3.887,3.887,0,0,1,3.121-1.1,1.95,1.95,0,0,1,1.572,2.206,3.9,3.9,0,0,1-1.783,2.675,7.375,7.375,0,0,1-3.168,1.525c-1.08.164-2.535-.422-2.558-1.69,0-.329-.54-.352-.516,0a2.485,2.485,0,0,0,2.3,2.229,6.2,6.2,0,0,0,3.919-1.385,4.936,4.936,0,0,0,2.323-3.027,2.564,2.564,0,0,0-1.478-2.91c-1.478-.587-2.957.188-4.083,1.1-.305.211.07.587.352.375Z" transform="translate(-524.397 -439.03)"/></g><g transform="translate(65.724 29.662)"><path d="M539.6,449.309a1.012,1.012,0,0,1,.7,1.361,1.517,1.517,0,0,1-1.713.774.288.288,0,0,0-.329.188.257.257,0,0,0,.188.329,2.18,2.18,0,0,0,2.042-.61,1.621,1.621,0,0,0,.094-1.971,1.407,1.407,0,0,0-.986-.587c-.141-.023-.258.141-.258.258a.246.246,0,0,0,.258.258Z" transform="translate(-538.248 -448.79)"/></g><g transform="translate(62.24 29.15)"><path d="M525.184,455.617a7.417,7.417,0,0,0-1.76,3.567,3.58,3.58,0,0,0,.61,2.488,5.276,5.276,0,0,0,4.693,1.784c2.229-.188,4.013-1.643,5.8-2.863a11.265,11.265,0,0,1,3.215-1.643,8.069,8.069,0,0,1,4.224.164c4.482,1.22,9.739,5.656,14.386,2.488a6.331,6.331,0,0,0,2.675-4.2,6.17,6.17,0,0,0-1.5-5,7.392,7.392,0,0,0-2.816-1.971,5.281,5.281,0,0,0-1.971-.4,5.554,5.554,0,0,0-1.854.375,11.017,11.017,0,0,1-1.9.563c-.681.117-1.525.117-1.784-.681-.469-1.478,1.15-2.628,2.347-3a2.216,2.216,0,0,1,1.924.117c.281.188.563-.282.258-.446-1.1-.7-2.558-.235-3.591.422-1.033.681-1.924,1.995-1.385,3.239.563,1.314,2.3.962,3.379.587a13.069,13.069,0,0,1,1.854-.587,4.2,4.2,0,0,1,1.948.094,6.436,6.436,0,0,1,4.435,4.271,5.586,5.586,0,0,1-.845,4.74,5.877,5.877,0,0,1-4.482,2.441c-2.816.164-5.444-1.338-7.956-2.441s-5.4-2.089-8.12-1.1c-2.276.845-4.013,2.6-6.148,3.661a5.818,5.818,0,0,1-5.139.07,3.2,3.2,0,0,1-1.6-1.69,3.836,3.836,0,0,1,.375-3.074,14.088,14.088,0,0,1,1.173-1.737c.211-.235-.258-.516-.446-.235Z" transform="translate(-523.401 -446.607)"/></g><g transform="translate(18.041 31.492)"><path d="M366.494,465.717a17.383,17.383,0,0,1-1.666,3.684,4.54,4.54,0,0,1-1.525,1.385,4.3,4.3,0,0,1-2.652.375c-1.948-.235-3.684-1.267-5.491-1.877a16.955,16.955,0,0,0-5.515-.986,13.521,13.521,0,0,0-2.769.282c-.892.188-1.713.516-2.581.774a11.107,11.107,0,0,1-4.013.587,4.323,4.323,0,0,1-3.4-1.807,7.456,7.456,0,0,1-.563-1.244c-.164-.422-.305-.868-.422-1.291a9.13,9.13,0,0,1-.305-2.769,6.489,6.489,0,0,1,2.159-4.13,7.089,7.089,0,0,1,1.83-1.267,2.5,2.5,0,0,1,1.244-.305,6.64,6.64,0,0,1,1.361.258c.422.117.821.235,1.267.329.329.07.469-.446.141-.516a18.181,18.181,0,0,0-2.769-.61,2.618,2.618,0,0,0-1.267.258,8.974,8.974,0,0,0-1.033.587,8.082,8.082,0,0,0-3,3.567,4.186,4.186,0,0,0-.375,1.2,7.808,7.808,0,0,0-.07,1.478,10.5,10.5,0,0,0,.54,2.816,7.115,7.115,0,0,0,1.173,2.394,4.462,4.462,0,0,0,1.69,1.2,7.653,7.653,0,0,0,4.177.235c1.737-.305,3.332-1.079,5.069-1.338a14.851,14.851,0,0,1,6.008.422,21.751,21.751,0,0,1,2.933,1.033,21.256,21.256,0,0,0,2.886,1.056,6.794,6.794,0,0,0,2.91.164,4.1,4.1,0,0,0,2.065-1.079,9.293,9.293,0,0,0,2.089-3.684c.117-.352.258-.681.375-1.033.141-.305-.375-.446-.493-.141Z" transform="translate(-335.063 -456.585)"/></g><g transform="translate(53.127)"><path d="M490.186,332.04a11.114,11.114,0,0,1-3.168-2.441,8.007,8.007,0,0,1-1.971-3.426,2.221,2.221,0,0,1,.282-1.76,2.391,2.391,0,0,1,1.9-.821,4.985,4.985,0,0,1,3.614,1.619,14.556,14.556,0,0,1,2.558,4.107c.094.211.422.141.493-.07.634-2.136-2.206-3.379-1.807-5.491a.979.979,0,0,1,.728-.821,2.744,2.744,0,0,1,1.737.422,7.79,7.79,0,0,1,2.37,1.995,24.575,24.575,0,0,1,2.065,3.027.274.274,0,0,0,.493-.07c.305-1.056.563-2.136.892-3.192.164-.563.563-1.572,1.314-1.478a1.636,1.636,0,0,1,1.033.821,5.5,5.5,0,0,1,.634,1.15,7.869,7.869,0,0,1,.516,2.534,26.88,26.88,0,0,1-.047,3.074.265.265,0,0,0,.329.258,4.285,4.285,0,0,0,1.69-1.126c.516-.469,1.126-.939,1.854-.657a2.179,2.179,0,0,1,1.244,1.995,8.746,8.746,0,0,1-.681,2.957c-.375,1.126-.751,2.276-1.1,3.4-.117.329.4.469.516.141.375-1.126.727-2.229,1.1-3.356a8.758,8.758,0,0,0,.7-3.262,2.779,2.779,0,0,0-1.173-2.182,1.908,1.908,0,0,0-2.183.047c-.7.469-1.22,1.314-2.089,1.525.117.094.211.164.329.258a12.716,12.716,0,0,0-.563-5.937c-.329-.8-.939-1.924-1.854-2.136-.868-.211-1.5.516-1.807,1.22a10.518,10.518,0,0,0-.516,1.666c-.188.728-.4,1.432-.587,2.159l.493-.07c-1.173-1.948-2.464-4.036-4.506-5.139-.892-.493-2.276-1.009-3.051-.047a2.585,2.585,0,0,0-.023,2.6c.516,1.126,1.924,2.182,1.5,3.567l.493-.07a15.4,15.4,0,0,0-2.534-4.107,5.71,5.71,0,0,0-3.9-1.877,3.394,3.394,0,0,0-2.065.61,2.239,2.239,0,0,0-.868,1.713,6.109,6.109,0,0,0,1.619,3.9,11.641,11.641,0,0,0,3.849,3.239c.164.141.422-.329.141-.469Z" transform="translate(-484.57 -322.393)"/></g><g transform="translate(63.062 15.029)"><path d="M540.138,387.224a1.517,1.517,0,0,1,1.737-.094,1.9,1.9,0,0,1,.939,1.807c-.047,1.807-1.643,2.933-2.98,3.849a.281.281,0,0,0-.047.422,4.25,4.25,0,0,1,1.338,3.966,12.18,12.18,0,0,1-2.136,4.694,32.061,32.061,0,0,1-3.1,4.013,18.979,18.979,0,0,1-3.684,3.309,5.678,5.678,0,0,1-4.975,1.009c-.329-.117-.469.4-.141.516,3.379,1.2,6.618-1.76,8.73-3.989A32.51,32.51,0,0,0,539.2,402.5a13.985,13.985,0,0,0,2.37-4.9,4.872,4.872,0,0,0-1.432-4.74,2.582,2.582,0,0,0-.047.422c1.291-.868,2.675-1.877,3.121-3.45a2.58,2.58,0,0,0-1.572-3.309,2,2,0,0,0-1.877.375c-.258.188.117.563.375.329Z" transform="translate(-526.903 -386.434)"/></g><g transform="translate(25.593 19.307)"><path d="M367.582,405.165a24.117,24.117,0,0,1,2.441.986c.774.375,1.5.821,2.253,1.2a2.029,2.029,0,0,1,.986,1.76,3.387,3.387,0,0,1-.962,2.065,10.5,10.5,0,0,1-.845.939,9.147,9.147,0,0,0-.751.915,2.992,2.992,0,0,1-1.83,1.385c-.54.07-1.22-.235-1.1-.868a3.726,3.726,0,0,1,.751-1.408c1.056-1.431,2.065-2.887,3.215-4.248.211-.258-.164-.634-.376-.375-1.173,1.408-2.229,2.887-3.285,4.365a3.794,3.794,0,0,0-.821,1.619,1.216,1.216,0,0,0,.892,1.361,2.327,2.327,0,0,0,2.253-.634,7.23,7.23,0,0,0,.868-1.033,14.543,14.543,0,0,1,.986-1.079,9.07,9.07,0,0,0,.821-1.056,4.3,4.3,0,0,0,.657-1.15,2.835,2.835,0,0,0-.375-2.253,2.3,2.3,0,0,0-1.033-.845c-.516-.235-.986-.563-1.5-.821a20.027,20.027,0,0,0-3.1-1.291c-.329-.164-.469.352-.141.469Z" transform="translate(-367.239 -404.664)"/></g><g transform="translate(21.333 19.358)"><path d="M353.245,404.957a12.686,12.686,0,0,0-2.323,2.793c-.329.493-.657,1.009-.962,1.525a6.907,6.907,0,0,0-.8,1.478,1.429,1.429,0,0,0,.282,1.432,1.778,1.778,0,0,0,1.5.282c.563-.094.915-.634,1.22-1.08.329-.516.634-1.033.986-1.525a19.8,19.8,0,0,0,1.1-1.948c.375-.7.751-1.432,1.126-2.136.164-.305-.305-.563-.446-.258-.54,1.056-1.1,2.112-1.666,3.145-.282.493-.587.962-.915,1.432-.282.422-.516.892-.821,1.314a1.364,1.364,0,0,1-.587.516,1.533,1.533,0,0,1-.8,0c-.563-.141-.54-.774-.376-1.22a9.063,9.063,0,0,1,.751-1.314c.258-.446.54-.892.821-1.314a13.62,13.62,0,0,1,2.3-2.769c.235-.211-.141-.587-.4-.352Z" transform="translate(-349.089 -404.882)"/></g><g transform="translate(20.117 19.118)"><path d="M349.842,404.009a3.881,3.881,0,0,0-3.919,1.2,8.558,8.558,0,0,0-1.385,2.018,4.142,4.142,0,0,0-.61,2.347c.094.61.634,1.478,1.314.962.258-.211,0-.657-.258-.446-.282.211-.446-.211-.516-.446a2.1,2.1,0,0,1,.141-1.2,8.791,8.791,0,0,1,1.244-2.37A3.581,3.581,0,0,1,349.7,404.5c.329.117.469-.375.141-.493Z" transform="translate(-343.907 -403.858)"/></g><g transform="translate(20.717 30.43)"><path d="M349.639,453.244a4.925,4.925,0,0,1-2.675-1.1.3.3,0,0,0-.422.422,5.515,5.515,0,0,0,3.074,1.267.271.271,0,0,0,.282-.282c.047-.188-.094-.282-.258-.305Z" transform="translate(-346.461 -452.061)"/></g><g transform="translate(23.601 25.889)"><path d="M359.091,432.755a.859.859,0,0,0-.305.939,1.32,1.32,0,0,0,.587.821,1.768,1.768,0,0,0,2.018-.07.29.29,0,0,0-.305-.493,1.6,1.6,0,0,1-.657.282,1.015,1.015,0,0,1-.657-.141.925.925,0,0,1-.4-.446.464.464,0,0,1-.047-.258c0-.07-.023.023,0-.047,0,0,.023-.094,0-.047,0-.023.023-.047.023-.07h0a.3.3,0,0,0,.094-.4.248.248,0,0,0-.352-.07Z" transform="translate(-358.752 -432.711)"/></g><g transform="translate(89.328 19.285)"><path d="M645.954,416.287a7.279,7.279,0,0,0,1.15-3.168,5.831,5.831,0,0,0-.422-3.285,16.265,16.265,0,0,0-2.229-3.145,5.776,5.776,0,0,0-2.7-2.042,2.466,2.466,0,0,0-2.91,1.6c-.117.329.4.446.516.141a1.936,1.936,0,0,1,2.417-1.2,5.783,5.783,0,0,1,2.347,1.9,17.811,17.811,0,0,1,2.042,2.886,5.021,5.021,0,0,1,.469,2.863,6.867,6.867,0,0,1-1.126,3.168c-.211.282.258.54.446.282Z" transform="translate(-638.827 -404.57)"/></g><g transform="translate(84.325 23.032)"><path d="M618.8,428.811a5.466,5.466,0,0,1,.8-6.547,3.809,3.809,0,0,1,3.661-1.079,5.752,5.752,0,0,1,2.136,1.244,5.109,5.109,0,0,1,1.009,1.126,2.651,2.651,0,0,1,.516,1.408c0,.587-.54.751-1.033.8-.328.023-.328.563,0,.516a1.615,1.615,0,0,0,1.432-.751,1.869,1.869,0,0,0-.094-1.5,6.068,6.068,0,0,0-2.746-2.887,4.138,4.138,0,0,0-2.628-.563,4.636,4.636,0,0,0-1.971.774,5.955,5.955,0,0,0-1.549,7.744c.188.282.657,0,.469-.282Z" transform="translate(-617.511 -420.536)"/></g><g transform="translate(85.794 26.046)"><path d="M624.152,435.639a20.319,20.319,0,0,1,2.887-1.361,2.938,2.938,0,0,1,2.722-.023,2.127,2.127,0,0,1,.775.868,1.846,1.846,0,0,1,.188.61.537.537,0,0,1-.258.61c-.728.446-1.877,1.033-2.628.352-.258-.211-.634.141-.375.375a2.221,2.221,0,0,0,2.37.188,3.168,3.168,0,0,0,1.244-.727,1.293,1.293,0,0,0,.141-1.1,2.8,2.8,0,0,0-1.431-1.784,3.32,3.32,0,0,0-2.675.047,19.688,19.688,0,0,0-3.192,1.478.262.262,0,1,0,.235.469Z" transform="translate(-623.77 -433.382)"/></g><g transform="translate(86.244 21.098)"><path d="M626.206,415.6a3.1,3.1,0,0,1,4.318-2.511c1.6.7,3.426,2.581,2.91,4.459a.268.268,0,0,0,.516.141c.469-1.737-.727-3.379-2.042-4.388A4.321,4.321,0,0,0,629.4,412.3a3.581,3.581,0,0,0-3.708,3.309c-.047.329.469.329.516,0Z" transform="translate(-625.687 -412.294)"/></g><g transform="translate(108.937 30.975)"><path d="M722.412,454.787a13.712,13.712,0,0,1,1.338,8.566c-.047.329.446.469.516.141a14.217,14.217,0,0,0-1.385-8.988c-.164-.282-.61-.023-.469.282Z" transform="translate(-722.385 -454.384)"/></g><g transform="translate(113.885 33.068)"><path d="M743.5,463.631a13.7,13.7,0,0,1-.023,5.937.268.268,0,0,0,.516.141,14.256,14.256,0,0,0,.023-6.219.268.268,0,0,0-.516.141Z" transform="translate(-743.471 -463.303)"/></g><g transform="translate(8.512 12.632)"><path d="M299.816,393.206a2.512,2.512,0,0,1-3.356-.07,4.976,4.976,0,0,1-1.126-2.84c-.023-.258-.047-.493-.047-.751a6.105,6.105,0,0,1,.117-.915,17.8,17.8,0,0,1,.493-1.924,16.1,16.1,0,0,1,1.6-3.4,13.862,13.862,0,0,1,5.491-5.045,10.6,10.6,0,0,1,3.872-1.173,2.843,2.843,0,0,1,2.91,1.432,4.17,4.17,0,0,1-.211,3.1,8.6,8.6,0,0,1-1.643,2.7c-.375.4.211.986.587.587a9.081,9.081,0,0,0,1.737-2.746,5.944,5.944,0,0,0,.493-3.309,3.243,3.243,0,0,0-2.3-2.441,7.564,7.564,0,0,0-4.74.61,14.366,14.366,0,0,0-6.477,5.21A15.591,15.591,0,0,0,295.264,386a14.6,14.6,0,0,0-.587,2.042,6.959,6.959,0,0,0-.211,1.971,6.22,6.22,0,0,0,1.173,3.45,3.2,3.2,0,0,0,3.661.962,3.842,3.842,0,0,0,1.08-.634c.422-.352-.164-.939-.563-.587Z" transform="translate(-294.455 -376.22)"/></g><g transform="translate(4.532 9.408)"><path d="M297.749,369.408c.516-2.37-1.15-4.318-3.051-5.468a8.434,8.434,0,0,0-6.594-1.2,15.116,15.116,0,0,0-7.392,5.3,14.822,14.822,0,0,0-3.215,8.73,5.31,5.31,0,0,0,1.385,4.013,13.682,13.682,0,0,0,3.52,2.323,8.314,8.314,0,0,0,.8.375c.469.235.892-.493.422-.728a20.011,20.011,0,0,1-3.309-1.877A4.913,4.913,0,0,1,279,379.593a4.2,4.2,0,0,1-.587-1.831,10.933,10.933,0,0,1,.54-4.506,14.28,14.28,0,0,1,1.784-3.778,14.907,14.907,0,0,1,6.477-5.562,6.346,6.346,0,0,1,3.145-.61,8.907,8.907,0,0,1,3,.8c1.9.868,4.177,2.675,3.661,5.046a.387.387,0,1,0,.727.258Z" transform="translate(-277.495 -362.48)"/></g><g transform="translate(25.089 23.343)"><path d="M379.646,431.047a14.348,14.348,0,0,0,.469-3.872,8.4,8.4,0,0,0-.681-3.4,3.447,3.447,0,0,0-3.684-1.877,8.917,8.917,0,0,0-4.623,2.464,19.929,19.929,0,0,0-4.248,5.257,12.333,12.333,0,0,0-1.455,8.988,4.426,4.426,0,0,0,1.948,2.816,4.307,4.307,0,0,0,3.825-.117,10.84,10.84,0,0,0,2.441-1.5,17.8,17.8,0,0,0,2.323-2.089,15.149,15.149,0,0,0,3.215-5.21,8.8,8.8,0,0,0,.469-1.455.413.413,0,0,0-.8-.211,15.63,15.63,0,0,1-6.688,9.035,5.235,5.235,0,0,1-3.684,1.1,2.85,2.85,0,0,1-1.971-1.83,8.355,8.355,0,0,1-.516-3.567,12.022,12.022,0,0,1,.915-4.036,17.537,17.537,0,0,1,3.332-5.092,17.977,17.977,0,0,1,2.3-2.136,8.275,8.275,0,0,1,1.995-1.22c1.126-.446,2.6-.681,3.591.235a3.855,3.855,0,0,1,1.009,2.159,11.51,11.51,0,0,1,.094,3.591,11.682,11.682,0,0,1-.352,1.76A.4.4,0,0,0,379.646,431.047Z" transform="translate(-365.095 -421.863)"/></g><g transform="translate(12.747 15.638)"><path d="M313.2,396.157c.07.211.117.235.141.094.023-.047.023-.117.047-.164.023-.117.07-.211.094-.329l.211-.563a8.473,8.473,0,0,1,.516-1.033,9.238,9.238,0,0,1,5.656-4.318.413.413,0,0,0-.211-.8,9.885,9.885,0,0,0-7.017,6.665c-.141.422-.282.892.141,1.173.446.282.868-.446.422-.727Z" transform="translate(-312.5 -389.029)"/></g><g transform="translate(15.717 18.915)"><path d="M325.941,406.163a2.837,2.837,0,0,1,.117-.422c0-.023.023-.07.023-.094.023-.094-.023.047.023-.047.023-.07.07-.141.094-.211l.211-.352c.023-.023.047-.07.07-.094,0-.023.07-.094.023-.047.047-.047.094-.117.141-.164a3.739,3.739,0,0,1,.305-.305,1.02,1.02,0,0,1,.164-.141c.07-.07-.023.023.047-.023.023-.023.07-.047.094-.07l.352-.211a.833.833,0,0,1,.211-.094c.07-.047-.047.023.047-.023.047-.023.07-.023.117-.047a.416.416,0,0,0-.235-.8,4.1,4.1,0,0,0-2.581,2.886.435.435,0,0,0,.282.516.37.37,0,0,0,.493-.258Z" transform="translate(-325.156 -402.994)"/></g><g transform="translate(27.129 34.661)"><path d="M374.61,470.281a5.132,5.132,0,0,0,.892,6.618c.4.329.986-.235.587-.587a4.294,4.294,0,0,1-.774-5.609c.329-.446-.4-.868-.7-.422Z" transform="translate(-373.785 -470.092)"/></g><g transform="translate(31.433 21.454)"><path d="M398.364,415.687c-1.6-1.572-3.943-2.534-6.031-1.338-.469.258-.047.986.422.727,1.76-1.009,3.708-.094,5.022,1.2a.415.415,0,0,0,.587-.587Z" transform="translate(-392.128 -413.813)"/></g><g transform="translate(21.209 31.219)"><path d="M350.328,455.513c-1.619,1.126-1.877,3.544-1.737,5.374a5.938,5.938,0,0,0,.986,3,7.9,7.9,0,0,0,2.253,2.159,12.253,12.253,0,0,0,3.309,1.455c.563.164.8-.7.235-.892a9.416,9.416,0,0,1-4.787-2.863,6.286,6.286,0,0,1-1.009-5.046,3.686,3.686,0,0,1,1.2-2.441c.493-.305.047-1.1-.446-.751Z" transform="translate(-348.559 -455.425)"/></g><g transform="translate(0.743 5.881)"><path d="M261.879,357.014a13.434,13.434,0,0,1,6.383-7.932,12.676,12.676,0,0,1,2.746-1.1.268.268,0,0,0-.141-.516,13.846,13.846,0,0,0-8.331,6.594,13.472,13.472,0,0,0-1.173,2.816.268.268,0,0,0,.516.141Z" transform="translate(-261.352 -347.452)"/></g><g transform="translate(0 4.829)"><path d="M258.657,347.3a9.421,9.421,0,0,1,3.285-3.825c.282-.188.023-.657-.258-.446a10.252,10.252,0,0,0-3.473,4.013c-.141.305.305.563.446.258Z" transform="translate(-258.184 -342.972)"/></g><g transform="translate(11.159 58.641)"><path d="M305.8,572.726a9.4,9.4,0,0,0,6.055,3.239c.329.047.329-.493,0-.516a8.846,8.846,0,0,1-5.679-3.074c-.211-.282-.587.094-.375.352Z" transform="translate(-305.734 -572.273)"/></g><g transform="translate(58.886 55.151)"><path d="M509.153,557.776a25.241,25.241,0,0,1,4.459,14.292,23.948,23.948,0,0,1-.375,4.294c-.07.329.446.469.516.141a25.788,25.788,0,0,0-1.971-15.184,23.464,23.464,0,0,0-2.182-3.8c-.188-.282-.634,0-.446.258Z" transform="translate(-509.107 -557.4)"/></g><g transform="translate(7.765 21.436)"><path d="M320.565,454.328c-.657-1.525-1.126-3.285-2.488-4.341-1.784-1.361-4.295-1.1-6.36-.727a32.889,32.889,0,0,1-3.708.563,13.142,13.142,0,0,1-3.45-.329,15.788,15.788,0,0,1-6.125-2.6,8.575,8.575,0,0,1-1.338-1.1,11.017,11.017,0,0,0-1.126-1.22,2.451,2.451,0,0,1-.563-.54c-.211-.258-.4-.516-.587-.774-.329-.469-.634-.939-.915-1.432a15.988,15.988,0,0,1-2.089-6.407,11.843,11.843,0,0,1,.117-3.285,14.872,14.872,0,0,1,.821-2.816,13.921,13.921,0,0,1,3.215-4.74,15.154,15.154,0,0,1,2.37-1.877c.446-.282.915-.516,1.338-.8a7.454,7.454,0,0,0,1.244-1.033,22.462,22.462,0,0,0,3.4-5.3c.258-.493.54-.962.845-1.432.188-.282-.282-.563-.446-.258-1.15,1.854-1.971,3.9-3.285,5.632a8,8,0,0,1-2.37,2.159,17.648,17.648,0,0,0-2.558,1.76,14.561,14.561,0,0,0-3.661,4.529,13.766,13.766,0,0,0-1.572,5.75,15.5,15.5,0,0,0,1.291,6.571,18.27,18.27,0,0,0,1.666,3.051,14.673,14.673,0,0,0,1.056,1.408c.164.188.4.282.587.469.211.211.4.446.587.657a10.726,10.726,0,0,0,2.675,2.135,17.294,17.294,0,0,0,2.98,1.408,15.425,15.425,0,0,0,6.829.915c2.417-.305,4.928-1.22,7.369-.563a4.087,4.087,0,0,1,2.206,1.432,8.66,8.66,0,0,1,1.126,2.229c.164.422.329.821.516,1.244.07.258.54-.023.4-.329Z" transform="translate(-291.271 -413.737)"/></g><path d="M47.29,24.468c-1.838,0-3.017-.319-3.506-.948a1.622,1.622,0,0,1-.3-1.44,3.764,3.764,0,0,1,1.3-1.8,8.682,8.682,0,0,1,2.077-1.289,2.452,2.452,0,0,1,2.713.669,6.181,6.181,0,0,1,1.068,1.293l-.517.3c-.014-.024-1.449-2.409-3.023-1.718-1.316.578-2.781,1.687-3.035,2.69a1.015,1.015,0,0,0,.193.924c.384.494,1.571.747,3.344.713a23.074,23.074,0,0,0,2.733-.23l.093.593a23.244,23.244,0,0,1-2.808.237Q47.451,24.468,47.29,24.468Z"/></g></g></g></g></svg>