<svg xmlns="http://www.w3.org/2000/svg" viewBox="0 0 172 172">
  <path fill="#fff4f4" d="M145.2 64.7c12.6 23.9 18.8 49.4 9.3 65.7-9.5 16.2-34.7 23.2-61.1 23.9-26.4.8-54.1-4.8-66.1-22.5-12-17.8-8.4-47.6 5.4-72.2S70.6 15.6 92 17c21.5 1.4 40.5 23.7 53 47.6Z"/>
  <path fill="#212529" d="M32.8 45.3c-.1-.5-.4-.7-.8-.6a.7.7 0 0 0-.5.6c-1.9 1.4-5 2.8-9.7 4.1-.4.2-.6.4-.5.9.1.5.4.7.8.6l1.4-.5 3.3-1.1a28.2 28.2 0 0 1 2.4 6.3 9.3 9.3 0 0 1 0 4.3 3.4 3.4 0 0 1-2.7 2.8 1.5 1.5 0 0 1-1-.2 1.1 1.1 0 0 1-.7-.8 5.6 5.6 0 0 1 0-1.6c0-.4-.3-.6-.8-.5-.3 0-.5.3-.6.8a3.8 3.8 0 0 0 0 1.6 2.5 2.5 0 0 0 .8 1.3 2.8 2.8 0 0 0 2.8.8 4.5 4.5 0 0 0 3.4-3.5 10.4 10.4 0 0 0 .1-5.2 25.2 25.2 0 0 0-2.4-6.6 36.8 36.8 0 0 0 3.3-1.7c1-.6 1.5-1.2 1.4-1.8Zm9.5 9.2a4.2 4.2 0 0 0-1.2-2.2 4 4 0 0 0-2.1-1 2.8 2.8 0 0 0-.6-.1 1.3 1.3 0 0 0-.3.1 2.6 2.6 0 0 1-.7.8 4.4 4.4 0 0 0-1.4 2.4 6.1 6.1 0 0 0 0 2.9 4.3 4.3 0 0 0 1.3 2.4 2.7 2.7 0 0 0 2.5.7 3 3 0 0 0 1.6-1.1 3.7 3.7 0 0 0 1-1.9v-.8a6 6 0 0 0 0-2.2Zm-1.2.6a4.3 4.3 0 0 1-.2 2.4c-.4 1-.8 1.5-1.4 1.6a1.5 1.5 0 0 1-1.4-.4 2.8 2.8 0 0 1-.9-1.6 4.7 4.7 0 0 1 0-2.4 2.2 2.2 0 0 1 1.6-1.6 1.8 1.8 0 0 0 1 0 2.5 2.5 0 0 1 1.3 2Zm12-3.2a2.9 2.9 0 0 0-1-1.7 2.1 2.1 0 0 0-1.7-.4c-1.3.3-2.5 1.7-3.8 4.2a68.1 68.1 0 0 1-1-8 1 1 0 0 0 .3-.7 8 8 0 0 0 0-1.4 8.2 8.2 0 0 0 0-1.3c-.2-.6-.5-1-1-.8-.4 0-.6.7-.6 2a57.3 57.3 0 0 0 1.3 11.4q.3 1.6.8 3a1.1 1.1 0 0 0-.5.9 1 1 0 0 0 1.2.5 7 7 0 0 0 1.5-.7 10.8 10.8 0 0 0 1.8-1.3 9.5 9.5 0 0 0 2.2-2.8 4.5 4.5 0 0 0 .6-2.9Zm-1.2.3c.2 1-.2 2-1.2 3.2a9.1 9.1 0 0 1-3 2.4 11 11 0 0 1-.3-1 2.3 2.3 0 0 1 0-1.1 9 9 0 0 1 1.8-3.3 2.8 2.8 0 0 1 1.3-1.1 1 1 0 0 1 1.4.9Zm8.6-5a4.3 4.3 0 0 1-.3-.5c-.2-.4-.4-.6-.6-.6a4 4 0 0 0-1 0c-.6.2-1 .4-1 .8a2 2 0 0 0-1.1 2.4 3.5 3.5 0 0 0 .5 1.1l.7 1.2a18.8 18.8 0 0 1 1.7 3c.1.7-.3 1.1-1.4 1.4a5.2 5.2 0 0 1-.9 0l-.7.1c-.4.1-.5.5-.4 1 .1.5.9.6 2.2.3a4.4 4.4 0 0 0 2-.9 1.8 1.8 0 0 0 .6-1.8 10.8 10.8 0 0 0-1.3-2.7l-1-1.5a4.6 4.6 0 0 1-.7-1.2c0-.6.2-1 1-1.2l.6-.1a3.5 3.5 0 0 0 .6 0c.3-.2.5-.4.5-.9Z"/>
  <path fill="#ff8787" d="M152.9 86.5a17.1 17.1 0 0 0-3.5-7.9 26.5 26.5 0 0 0-1.8-2.5l-.2-.3a2.4 2.4 0 0 1-.2-.3 1.5 1.5 0 0 0-.3-.3l-1.1-.9a12.7 12.7 0 0 0-1.6-.9 25.7 25.7 0 0 0-5.4-4 8.2 8.2 0 0 0-3.2-1.6l-.8-.4a4.3 4.3 0 0 0-2.3-.6l-3.7-1.4c-2.4-.6-4.7-.2-7-.2a4.5 4.5 0 0 0-1.1.3 5.6 5.6 0 0 1-2 .5h-.2a13.5 13.5 0 0 0-3 1.8c-1 .8-3.7.8-5 1a23.2 23.2 0 0 1-5.5-.3 20.6 20.6 0 0 1-9.1-3.8 7.1 7.1 0 0 0-2.3-1.2c-.3.7-1.3.8-1.8 1.2a8.4 8.4 0 0 0-1.7 2.1 83.1 83.1 0 0 1-8 10.5c-4 4.7-10 8.1-16.3 7.4a12.9 12.9 0 0 1-8.3-4.7c-1-1-2-2-3.6-1.8-1.7.2-3.6 1.5-5.1 2.4a1.7 1.7 0 0 0-.2 2.9l1.6 1.2a1.5 1.5 0 0 0 .3.6 19.3 19.3 0 0 0 15.7 8 18.1 18.1 0 0 0 4.4-.2 25.5 25.5 0 0 0 7.6-2.4 30.3 30.3 0 0 0 6.3-4l1.2-1a37.5 37.5 0 0 0 4.8-4.5l.5-.8c1-1.5 1.7-3 2.5-4.6.9-1.5 2.2.8 2.3 1.6a6.9 6.9 0 0 1-.1 2.2c-.5 3.4-1.6 6.6-.5 10a22.4 22.4 0 0 1 .7 7 19.7 19.7 0 0 1-1.8 7.7c-.8 1.9 8.8 2.9 9.8 3a49.1 49.1 0 0 0 12.3-.8.2.2 0 0 0 .1 0l.2-.1c1.6-.9 3.5-1 5.1-1.9a34.8 34.8 0 0 0 5.6-3.6.7.7 0 0 1 .5-.2.2.2 0 0 0-.1 0l-.2-.5a.7.7 0 0 0-.2-.2c-5.4-6.2-.9-13.1-.9-13.1l.3.5.7-3.5v-.2c-.8-2-1.5-3.9-2.5-5.7a2.3 2.3 0 0 1-.2-1.4 1 1 0 0 1 .8-.9 8 8 0 0 1 4.4 1.1A18.5 18.5 0 0 0 133 78c.7.5 1.5.8 2.2 1.2l1.7.9a21 21 0 0 1 3.5 3.4A19.7 19.7 0 0 1 144 91a19.4 19.4 0 0 1 .6 4v2a1.7 1.7 0 0 0 .7 2.8c1.4.5 2.9 1 4.4 1.3a1.7 1.7 0 0 0 1.9-.6v-.2c.4-1.6.8-3 1-4.6a25.6 25.6 0 0 1 .4-4.1 15.1 15.1 0 0 0-.1-5Z"/>
  <path d="M133 54.7a.5.5 0 0 0-.1-.4 22.1 22.1 0 0 0-1-5.8 21 21 0 0 0-1.5-3.5 29 29 0 0 0-.6-1.2 12.2 12.2 0 0 0-.8-2l-.8-1.5a3.6 3.6 0 0 0-.2-.8l-.4-1-.9-2.1-1.3-3.2-.4-1-.3-1-.5-1.6a7.7 7.7 0 0 0-.3-.7l-.8-2.2a12.9 12.9 0 0 0-.3-1.8 10.1 10.1 0 0 0-.6-1.7 6.6 6.6 0 0 0-.6-1l-.1-.3-.1-.6a.7.7 0 0 0-.3-.4l-.4-.8a.3.3 0 0 0-.1-.1l-.2-.3-.8-2a.4.4 0 0 0-.6-.2 15.7 15.7 0 0 0-1.3-1.7.3.3 0 0 0-.3 0 11.6 11.6 0 0 0-1-1 .7.7 0 0 0-1 0l-.1.2a7.4 7.4 0 0 0-1.4 0 6.5 6.5 0 0 0-2.7 1 6.2 6.2 0 0 0-2 2 6.3 6.3 0 0 0-.6 1.2 3.1 3.1 0 0 0 0 .9l-.4.4h-.2a4.6 4.6 0 0 0-5.9-.7 8.2 8.2 0 0 0-1.2 1 4.6 4.6 0 0 0-.7.5 14.9 14.9 0 0 0-1.7 2 10.4 10.4 0 0 0-1.9 3.6l-2.1 4.6a1 1 0 0 0 0 1l-2.8 5a1 1 0 0 0 0 .9l-1.4 2.1a49 49 0 0 0-4.1 4.2 13.9 13.9 0 0 0-6 5.7 5.4 5.4 0 0 0-1 1.2 7.2 7.2 0 0 0-1.2 3.3v1a3.3 3.3 0 0 0 0 1l.1.3a7.3 7.3 0 0 0 .3 1.1v.2a1.9 1.9 0 0 0 .1.4 1 1 0 0 0 .6.9 10.1 10.1 0 0 0 3 2.4 12.5 12.5 0 0 0 4.5 1.6 1.4 1.4 0 0 0 .3 0 15.8 15.8 0 0 0 8.6 1 1 1 0 0 0 .7-.5 9.8 9.8 0 0 0 2-.1.8.8 0 0 0 .2-1.5 15.3 15.3 0 0 1-2.7-2.1 10.1 10.1 0 0 1-2.1-2.8.7.7 0 0 0-.4-.2l-.5-1.5A18.8 18.8 0 0 1 92 53a22.2 22.2 0 0 1-.2-3.8l1.2-4a1.1 1.1 0 0 0 0-.7l1-2v-.1l.3-.4.6-1 .5-1a.3.3 0 0 0 0-.3l1.7-2.4a45 45 0 0 0 6.3-8.7 1.6 1.6 0 0 0 .1-.2l2.2-2.3 2.8-2.6.4-.3 1.2-.7a6.9 6.9 0 0 1 5 1.7 7.2 7.2 0 0 1 2.3 4.7.9.9 0 0 0 .2.5 9.4 9.4 0 0 0 .4 2.3.4.4 0 0 0 0 .2l1.2 3.9a.3.3 0 0 0 .1.2l.7 1.7v.1l2.8 8.5.1.8.7 3 .2.5a28.3 28.3 0 0 1-.5 3.4 19.3 19.3 0 0 1-.7 2.8 22.6 22.6 0 0 1-.7 2l-.6.8a10.6 10.6 0 0 1-1.7 2 11.6 11.6 0 0 1-2.2 1.4 2.8 2.8 0 0 0-1.8 2c-.3 2 2.2 3 3.8 3.2a10.3 10.3 0 0 0 4-.2 5.5 5.5 0 0 0 2-.6l.7-.2a7.9 7.9 0 0 0 4.1-2.8 3.3 3.3 0 0 0 .6-1.7l.4-.6a11.5 11.5 0 0 0 1-2.2 12.5 12.5 0 0 0 .9-5ZM144.5 132.3v-.1l-.5-4.8a1 1 0 0 0-.8-.9.7.7 0 0 0-.4-.3 7.1 7.1 0 0 0-2.1 0l-2.2.3a18.7 18.7 0 0 0-3.3.7.7.7 0 0 0-.2-.1 22.6 22.6 0 0 0-2.3.6.7.7 0 0 1-.4 0v.9a1 1 0 0 0 .2.2 1.3 1.3 0 0 0 .2.6 69 69 0 0 1 .7 7.2l.2 3.2v.2a27.4 27.4 0 0 0 .7 3.7.7.7 0 0 0 .1.2l.1 3.5-2.4 9v.1a.4.4 0 0 1 0 .2.7.7 0 0 0 .2.3l.1.2a3.4 3.4 0 0 0 2.3-.4l.4-.5a6.2 6.2 0 0 0 1.9-1.4 28.7 28.7 0 0 0 2-2.9l.1-.5a18.8 18.8 0 0 0 1.2-1.8 16.9 16.9 0 0 0 3-7.2c.5-2.6-.2-7-3.8-7a3 3 0 0 0 .7-.1l1-.1 2-.3a2 2 0 0 0 1.6-1.2 1.2 1.2 0 0 0-.3-1.5ZM97.3 145c0-.2-.2-.3-.3-.4a1.5 1.5 0 0 0-.7-1A41.7 41.7 0 0 1 94 140l-.4-.7-.5-1a1.6 1.6 0 0 0 0-.5 3.4 3.4 0 0 0-.4-.7 1 1 0 0 0-.6-.5.4.4 0 0 0-.3 0 1.6 1.6 0 0 0-.3 0 10.8 10.8 0 0 0-1.7 0l-1.7.1h-3.5l-1.8-.2-.8-.2a7 7 0 0 0-.8 0v-.1a.4.4 0 0 0-.3 0 .2.2 0 0 0-.1 0 .6.6 0 0 0-.4.2.9.9 0 0 0 .1 1.1 12.1 12.1 0 0 0 .9 1.4 6 6 0 0 0 1.2 1.8.2.2 0 0 0 .1.1c0 .2.2.2.3.4a2 2 0 0 0 .2.3 3 3 0 0 0 1 1 2.4 2.4 0 0 0 1.5.2 2.6 2.6 0 0 0 .4-.1.4.4 0 0 0 .5-.3 2.8 2.8 0 0 0 .7-.1 5.8 5.8 0 0 1 .8.4l-.4.5-1.2 1.3a2.7 2.7 0 0 0-.5.8.7.7 0 0 0-.5 1.3l4.3 4.4a.7.7 0 0 0 .6.2l.2.2a.8.8 0 0 0 1.1 0l2.8-2.6 1.4-1.4a5.6 5.6 0 0 0 1-1.2.7.7 0 0 0 .4-1.2Z"/>
  <g>
    <path d="M98.4 63a18.5 18.5 0 0 0 10.2 3.1 15.7 15.7 0 0 0 10-3.2 14.4 14.4 0 0 0 5.3-10.1 19.6 19.6 0 0 0-1-6.9 67.5 67.5 0 0 0-2.3-6.5 35.8 35.8 0 0 1-2.1-6.5 55.6 55.6 0 0 0-1-5.7 8 8 0 0 0-3.3-4.5 4.7 4.7 0 0 0-4-.4 10.2 10.2 0 0 0-3.8 2.5 23 23 0 0 0-3 3.6c-1 1.4-1.9 3-3 4.4l-3.7 5a34.3 34.3 0 0 0-3.3 5.4 21.8 21.8 0 0 0-2 6.4c-.6 4.3 1.5 8.3 4.5 11.3a19.2 19.2 0 0 0 2.5 2c.3.3.6-.3.3-.5a15.4 15.4 0 0 1-6.8-10 13.6 13.6 0 0 1 1-6.3 29 29 0 0 1 2.8-5.7c2.1-3.4 4.8-6.3 7-9.7 1.5-2.5 3.2-5 5.6-6.7a6 6 0 0 1 3.8-1.3 5.4 5.4 0 0 1 3.8 2.7 12 12 0 0 1 1.6 5.2 29.3 29.3 0 0 0 1.4 6c1.5 4.3 3.5 8.3 4.2 12.7a13.7 13.7 0 0 1-12 16 18.1 18.1 0 0 1-10.3-1.6 12.8 12.8 0 0 1-2.1-1.3c-.3-.2-.7.3-.3.5Z"/>
    <path d="M115.1 64.4a3.5 3.5 0 0 0 1.2 2.6 5.8 5.8 0 0 0 2.6 1.3 11.2 11.2 0 0 0 6.8-.6A12.4 12.4 0 0 0 132 62a14.8 14.8 0 0 0 1.5-7.9 29.2 29.2 0 0 0-2.2-8.8c-1.2-3-2.7-5.8-4-8.8a59.9 59.9 0 0 1-3.2-9 33.9 33.9 0 0 0-3.3-8.6c-1.3-2.3-3.4-4.5-6.2-4.4a7.2 7.2 0 0 0-6 4.2 6.3 6.3 0 0 0-.5 1.8l.5-.3a5 5 0 0 0-4.8-1.7 8.3 8.3 0 0 0-4.2 3.2c-2.4 3.1-3.9 6.8-5.3 10.4a30.9 30.9 0 0 1-4.8 8.9c-2.2 2.6-5 4.5-7.4 6.8-2 1.8-3.9 4.1-4.4 6.8a5.9 5.9 0 0 0 .4 3.7 8.7 8.7 0 0 0 2.9 3.2 19.7 19.7 0 0 0 16.3 3 15.4 15.4 0 0 0 2-.7c.3-.1.2-.7-.2-.6A19.6 19.6 0 0 1 83 62c-2.4-1.3-4.9-3.3-5-6.2 0-2.6 1.8-5 3.5-6.8 2.2-2.3 4.8-4 7-6.3a21.7 21.7 0 0 0 3-3.7 30 30 0 0 0 2.2-4.3c1.7-3.8 3-7.7 5.2-11.1a12.4 12.4 0 0 1 3.7-4 4 4 0 0 1 2-.7 4 4 0 0 1 2.3.7 7 7 0 0 1 1.2 1c.2.2.5 0 .5-.3a6.4 6.4 0 0 1 4.7-5.1 4.8 4.8 0 0 1 3.6.4 8.7 8.7 0 0 1 2.7 2.6 27 27 0 0 1 3.4 8l1.2 4.3a52 52 0 0 0 1.5 4.1c2.4 5.6 5.5 11 6.7 16.9a16 16 0 0 1-.2 7.7 12.1 12.1 0 0 1-4.5 6.4 10.7 10.7 0 0 1-7 2.1c-1.6 0-3.8-.5-4.7-2.2a3.2 3.2 0 0 1-.3-1.3c0-.3-.6-.3-.6.1ZM96 77.6l-1 6-.5 2.9a3 3 0 0 0 2.9 3.7 10.9 10.9 0 0 0 4.4-.4 18 18 0 0 0 5.5-2.3c.3-.2 0-.7-.3-.5a18 18 0 0 1-4.6 2 13.2 13.2 0 0 1-4.4.7 3.2 3.2 0 0 1-2.6-1.5 3 3 0 0 1-.2-1.7l.4-2.7 1-6.2c0-.4-.6-.4-.6 0ZM124 75.7a17.3 17.3 0 0 0 1.7 4.5 20.7 20.7 0 0 1 1 2.3 5.3 5.3 0 0 1 .5 2.3 3.5 3.5 0 0 1-2.2 2.7 10.8 10.8 0 0 1-4.6 1 13.2 13.2 0 0 1-5.9-1.3c-.3-.2-.6.4-.3.5a14 14 0 0 0 5.4 1.4 12.3 12.3 0 0 0 5.3-.8 4.7 4.7 0 0 0 2.8-2.7c.5-1.5-.3-3.1-.9-4.5a23 23 0 0 1-2.3-5.6c0-.4-.7-.2-.6.2ZM93.7 75.3a36.2 36.2 0 0 1-8.2 10.5A31 31 0 0 1 75 91.9a24.2 24.2 0 0 1-11.3 1 20.5 20.5 0 0 1-10.2-4.7 24.2 24.2 0 0 1-4.3-4.8 40.4 40.4 0 0 1-2.6-4.7 11.7 11.7 0 0 1-.5-1.4l-.3-1a.3.3 0 0 0-.6.2c0 .4.2.7.3 1a13.1 13.1 0 0 0 .5 1.5 38 38 0 0 0 1.7 3.4 26.1 26.1 0 0 0 4.1 5.3A21.2 21.2 0 0 0 62 93.4a24.2 24.2 0 0 0 11.6-.4 31 31 0 0 0 11-5.6 35.9 35.9 0 0 0 8.8-10.2l.8-1.6c.2-.4-.3-.7-.5-.3Z"/>
    <path d="M53.3 74.3a14.3 14.3 0 0 0 6.3 8 16.8 16.8 0 0 0 10 2.4 17 17 0 0 0 9.6-4 38.3 38.3 0 0 0 6.6-7.7l3-4.2a18 18 0 0 0 1-1.5 10.4 10.4 0 0 1 1.4-1.7 2.3 2.3 0 0 1 .7-.5c.4-.2.2-.8-.1-.7a6.6 6.6 0 0 0-2.6 2.8l-1.3 1.7-1.5 2a55.2 55.2 0 0 1-6.2 8 17.4 17.4 0 0 1-8.7 4.9 15.8 15.8 0 0 1-10.1-1.3 14.3 14.3 0 0 1-7-7.1 10.2 10.2 0 0 1-.5-1.2c-.1-.4-.7-.2-.6.1Z"/>
    <path d="M51.3 75.7a13.2 13.2 0 0 0 7.6-7.1 13.5 13.5 0 0 0 .8-2.5 3.4 3.4 0 0 0-.3-2.8c-.9-1.3-2.7-1.2-4-.4-1.7 1-2 3.5-2.2 5.4 0 .4.6.4.6 0 .2-1.6.4-3.5 1.6-4.7.9-.7 2.6-1 3.5 0a3 3 0 0 1 .1 2.6 11 11 0 0 1-.7 2.2A12.6 12.6 0 0 1 51 75c-.4.2-.2.8.2.7ZM48.7 75.5c-2.5 1.3-5.7.3-7.5-1.7a7.7 7.7 0 0 1-1.5-2.3c-.1-.4-.7-.2-.6.1a7.8 7.8 0 0 0 7.6 5 5.5 5.5 0 0 0 2.3-.5c.4-.2 0-.8-.3-.6Z"/>
    <path d="m58.8 69.1 16-3a.3.3 0 0 0 .2-.4l-2.6-14L69.8 38l-1.4-7.8a.3.3 0 0 0-.3-.2c-4.4-.4-8.5 1-12.7 1.9-2.2.5-4.5.7-6.8 1l-7 1-13.7 2.3c-4.6.7-9 1.3-13.5 2.2-2.2.4-4.4 1-6.6 1.6a2.2 2.2 0 0 0-1.1.7 1.8 1.8 0 0 0-.3 1.2A25.5 25.5 0 0 0 7 45c1 4.3 2.4 8.6 3.7 12.8a118.6 118.6 0 0 1 3.4 13.5c.3 1.7.8 3.6 2.7 4.3a6.1 6.1 0 0 0 3-.1l3.5-.7 7-1.7c2.2-.5 4.6-1 6.9-1.3l14.2-2.2a20 20 0 0 0 2.2-.5.3.3 0 0 0-.2-.6 18.7 18.7 0 0 1-2.1.4l-3.5.6-7 1.1-6.9 1-6.7 1.6-6.7 1.5a7.6 7.6 0 0 1-3.3.3 3 3 0 0 1-1.9-1.7 11.9 11.9 0 0 1-.7-2.7l-.7-3.4-1.7-6.6-3.8-12.5-.8-3.2-.4-1.6a10.6 10.6 0 0 1-.2-1.6 1 1 0 0 1 .6-1 14.4 14.4 0 0 1 1.5-.5l3.2-.8A164.5 164.5 0 0 1 32 36.2l6.7-1.2c4.6-.8 9.2-1.4 13.8-2 4.1-.5 8.1-2.1 12.3-2.4a19.8 19.8 0 0 1 3.2 0 2.1 2.1 0 0 0-.3-.2c.7 4.6 1.6 9.1 2.6 13.7L72.9 58l1.4 7.8.3-.3-16 3c-.4.1-.2.7.2.6ZM94.6 103.2a25.9 25.9 0 0 1-7.3 6.4l-9.7 6-4.8 3.3a23 23 0 0 0-3.5 3c-2 2.1-3.6 5-2.6 7.9 1 3.2 4.2 5 7.3 5.8a42.7 42.7 0 0 0 5.6.9c2 .2 4 .4 6 .4a108.2 108.2 0 0 0 12-.3l6-.6a55.7 55.7 0 0 1 5.7-.4c7.4 0 14.4 2.7 21.4 4.6l2.7.7a.3.3 0 0 0 .2-.6c-7-1.7-13.9-4.5-21.1-5.2a32.2 32.2 0 0 0-5.4 0c-2 0-3.9.4-5.8.6-4 .4-7.9.6-11.8.7a83.6 83.6 0 0 1-11.8-.7c-3.4-.5-7-1.3-9.3-4a6 6 0 0 1-1.3-4.2 7.5 7.5 0 0 1 1.6-3.9c2-2.6 5-4.4 7.7-6.2 3.2-2.2 6.4-4.2 9.7-6.3a35.3 35.3 0 0 0 7.6-5.6l1.5-1.9a.3.3 0 0 0-.6-.4Z"/>
    <path d="M85.8 121.2c2.5-1.2 5.3-.7 7.9-.5l9 .8 17.8 1.7 10 1a2.1 2.1 0 0 0-.3-.3 8.7 8.7 0 0 0 .6 1.4l.6 1.6a29.4 29.4 0 0 1 1 3.2 31 31 0 0 1 .8 6.6 32.8 32.8 0 0 1 0 3.7c0 .4.5.4.6 0a31.3 31.3 0 0 0-1.6-13.2l-.7-1.7a13.3 13.3 0 0 1-.7-1.7.3.3 0 0 0-.3-.2l-18.1-1.7-18-1.7c-3-.3-6.2-.9-8.9.5-.3.1 0 .7.3.5ZM149 109.7a69.2 69.2 0 0 1 8.7 4.5 16.7 16.7 0 0 1 6.3 6.5c1.2 2.5 1.5 5.6 0 8-1.5 2.3-4.3 3.7-6.8 4.6a45 45 0 0 1-9.8 2l-1.3.2c-.4 0-.4.6 0 .6a53.9 53.9 0 0 0 10.4-2c2.7-.8 5.6-2 7.4-4.3a7.3 7.3 0 0 0 1.6-3.6 9.9 9.9 0 0 0-.4-4.5 15 15 0 0 0-5.8-7.2 50.3 50.3 0 0 0-8.8-4.8l-1.1-.5c-.4-.1-.7.4-.3.5ZM137.3 104.5l-5-1.6a27.6 27.6 0 0 1-4.3-2.2.3.3 0 0 0-.4 0 30.3 30.3 0 0 1-18.4 6.6 29.7 29.7 0 0 1-5.7-.4c-.4-.1-.6.5-.2.6a30.7 30.7 0 0 0 24.8-6.3h-.4a27 27 0 0 0 4.4 2.3l5 1.6c.4.1.6-.5.2-.6ZM92.4 136.8l1.3 2.8a28.2 28.2 0 0 0 1.7 2.8c1.2 1.8 2.6 3.5 3.7 5.4a.3.3 0 0 0 .6-.3.5.5 0 0 1 0 .2c0 .2 0 0 0 0 .1-.1 0 0 0-.1h.2l.2-.2a12.8 12.8 0 0 1 1.3-.7 154.4 154.4 0 0 1 16.7-6.8 33 33 0 0 1 5.4-1.4c.4-.1.3-.7-.1-.7a33.8 33.8 0 0 0-5 1.3c-2 .7-4.2 1.4-6.2 2.3-3.8 1.4-7.5 3-11 4.7a11.4 11.4 0 0 0-1.6.8c-.2.2-.7.5-.5.8a5.2 5.2 0 0 1 .6-.3l-3.8-5.3a24.3 24.3 0 0 1-1.7-2.8c-.5-.9-.8-2-1.3-2.8a.3.3 0 1 0-.5.3Z"/>
    <path d="M132 127.8c1.7-.4 3.5-.5 5.2-.8a25.2 25.2 0 0 1 2.9-.3h3.8l-.3-.4a25.4 25.4 0 0 0 .5 4.1l.4 2.1v1a3.4 3.4 0 0 0 0 .6c.1.2 0 0 .1 0l-.4.2a9.5 9.5 0 0 1-1 .2l-2.3.4-1.7.3c-.4 0-.3.5 0 .6 1.4.4 3.3 1 3.8 2.5a10.5 10.5 0 0 1-.3 6 17.1 17.1 0 0 1-1.6 4l-1.4 2.3a29.5 29.5 0 0 1-4.6 5.4 4 4 0 0 1-2 1 .6.6 0 0 1-.6-.2c-.3-.4 0-.9 0-1.3.3-.5.4-1 .6-1.6a31.4 31.4 0 0 0 1.6-6.8 21.1 21.1 0 0 0 0-3.5 11.7 11.7 0 0 0-.2-1.7 6.8 6.8 0 0 1-.4-1.6 3.8 3.8 0 0 0-.3-1.5c-.1-.4-.7 0-.5.3a5.7 5.7 0 0 1 .3 1.7c0 .6.3 1.1.4 1.7a15.2 15.2 0 0 1 .2 3.8 29.5 29.5 0 0 1-1.6 7.2l-.5 1.8a2.6 2.6 0 0 0-.2 1.5 1.3 1.3 0 0 0 .8.9 2.7 2.7 0 0 0 2.2-.7 17.4 17.4 0 0 0 2.5-2.5 43.3 43.3 0 0 0 4.2-5.6 18 18 0 0 0 1.6-3.5 13 13 0 0 0 .7-6.3 3.7 3.7 0 0 0-1-2.4 7.2 7.2 0 0 0-2.3-1.2l-1.2-.4v.6l4-.6a4.6 4.6 0 0 0 1.7-.5c.3-.3.2-.8.2-1.1a19.2 19.2 0 0 0-.2-2.2 34.3 34.3 0 0 1-.7-5 .3.3 0 0 0-.4-.4l-3.8.1a26 26 0 0 0-3 .3l-5.2.8c-.5.2-.3.8 0 .7ZM97.6 145a39 39 0 0 1-3.3 3.8l-3.7 3h.4a26 26 0 0 0-2.7-2.8l-1.5-1.3-.6-.7a2 2 0 0 1-.3-.3l-.4-.5s0 .1 0 0l.2-.2a7.2 7.2 0 0 1 .5-.7l1.6-1.8 1.3-1.4c.2-.2 0-.6-.3-.5a11.7 11.7 0 0 1-2.7.7 3 3 0 0 1-1.5-.1 4.4 4.4 0 0 1-1.2-.8 12.8 12.8 0 0 1-3-5.3.3.3 0 0 0-.7.2 13 13 0 0 0 3.4 5.6 3.7 3.7 0 0 0 2.7 1.1 10.4 10.4 0 0 0 3-.8l-.2-.5-3 3.1c-.2.4-.8 1-.8 1.4a.5.5 0 0 0 .1.4 7.1 7.1 0 0 0 .8.8L87 149a31.9 31.9 0 0 1 3.4 3.3.3.3 0 0 0 .5 0l3.6-3a35.9 35.9 0 0 0 3.3-3.8c.4-.3 0-.8-.3-.4ZM124.8 123.6a88.4 88.4 0 0 1 23.9-4.3q3.4-.2 6.8 0c.4 0 .4-.7 0-.7a88.4 88.4 0 0 0-24.3 2.5c-2.3.6-4.5 1.2-6.6 2-.4 0-.2.7.2.5Z"/>
    <path d="M107.3 121.9c1.4-1.2 2.7-2.6 4.2-3.7a8.3 8.3 0 0 1 4.6-2c2 0 3.6 1.1 5.2 2.1a33.2 33.2 0 0 0 4.5 2.6 10.7 10.7 0 0 0 6 .7c.4-.1.2-.7-.1-.6a9.7 9.7 0 0 1-5.6-.6 33.1 33.1 0 0 1-4.6-2.7c-1.6-1-3.2-2-5.2-2a7.9 7.9 0 0 0-4.7 1.6 50.7 50.7 0 0 0-4.7 4.1.3.3 0 1 0 .4.5ZM131.2 66.8a30.4 30.4 0 0 1 9.7 4.3 35.2 35.2 0 0 1 7.5 6.4c4.5 5.4 5.1 12.7 4 19.3A83.2 83.2 0 0 1 149 109c-.2.4.5.5.6.1 2.3-7 4.7-14.2 3.7-21.7a20.2 20.2 0 0 0-3.6-9.3 32 32 0 0 0-7.4-6.8 31.6 31.6 0 0 0-5.3-3 34 34 0 0 0-5.6-2c-.4-.2-.6.5-.2.5Z"/>
    <path d="m129.9 77.2 5.1 2.2a16.4 16.4 0 0 1 4.3 2. e7 15.4 15.4 0 0 1 4.3 7.9 28 28 0 0 1 .8 5.2 15 15 0 0 1-.2 2.8 5.8 5.8 0 0 1-.6 2c-.8 1.4-2.6 1.1-3.9.8a6.1 6.1 0 0 0-2.4-.4 1.8 1.8 0 0 0-1.4 1.4 3.2 3.2 0 0 0 1.8 3.7 3 3 0 0 0 2.3.1 15 15 0 0 0 2.3-1.2c.4-.2 0-.7-.3-.5-1.3.7-2.6 1.8-4.1 1a2.8 2.8 0 0 1-1.4-1.5 2.2 2.2 0 0 1 .2-2c.6-.7 1.8-.3 2.5-.1a8.9 8.9 0 0 0 2 .4 3.3 3.3 0 0 0 2-.4 3 3 0 0 0 1.2-1.6 11.1 11.1 0 0 0 .6-4.7 29.2 29.2 0 0 0-.8-5.1 16.2 16.2 0 0 0-4-7.7 15 15 0 0 0-4.4-3c-1.8-1-3.7-1.7-5.6-2.5-.4-.2-.7.3-.3.5Z"/>
    <path d="M141.6 104.2a10.9 10.9 0 0 1-3.2 3c-1.2.7-2.6 1.3-3.6 2.4a2.4 2.4 0 0 0-.6 1.6 1.6 1.6 0 0 0 .8 1.4 2.4 2.4 0 0 0 1.8-.2 14.5 14.5 0 0 0 1.9-1 16.9 16.9 0 0 0 3.7-3.1c.3-.3-.1-.8-.4-.4a15.7 15.7 0 0 1-2.9 2.5l-1.6 1a4.4 4.4 0 0 1-1.7.7 1 1 0 0 1-1-1.1 2.4 2.4 0 0 1 1-1.4 36.6 36.6 0 0 1 3.3-2 11.4 11.4 0 0 0 3-3c.3-.4-.2-.7-.5-.4Z"/>
    <path d="M134.6 111.8a1.7 1.7 0 0 0 .1 2.6 3 3 0 0 0 3 .3 15 15 0 0 0 3-1.8 24.2 24.2 0 0 0 3-2.6c.3-.3-.2-.7-.5-.4a23.4 23.4 0 0 1-4.7 3.7 3.7 3.7 0 0 1-2.6.7c-.8-.2-2-1.3-1-2 .4-.2 0-.8-.3-.5Z"/>
    <path d="M136.8 115a1.2 1.2 0 0 0 .7 1.2 2.6 2.6 0 0 0 1.6 0 7.6 7.6 0 0 0 2.8-1.2 14.9 14.9 0 0 0 4.3-4.8.3.3 0 1 0-.5-.3 15 15 0 0 1-3.5 4.1 8.2 8.2 0 0 1-2.4 1.4c-.6.3-2.5.8-2.4-.4 0-.5-.6-.4-.6 0Z"/>
    <path d="M142.4 114.7c1.5 1.6 3.6 0 4.7-1.2a10.8 10.8 0 0 0 2.7-5 .3.3 0 0 0-.6 0 10.2 10.2 0 0 1-2.2 4.2 7.8 7.8 0 0 1-1.9 1.6 1.8 1.8 0 0 1-2.2 0c-.3-.3-.7.1-.5.4ZM54.8 77.5a10.6 10.6 0 0 0-5.8 3c-.3.3.1.7.4.5A10 10 0 0 1 55 78c.4 0 .2-.7-.2-.6ZM104.4 36a.9.9 0 0 0-.6-.1 1 1 0 0 0-.5 0 .8.8 0 0 0-.3 1 1 1 0 0 0 .7.7 1 1 0 0 0 .6 0 .8.8 0 0 0 .4-.4 1 1 0 0 0 0-1.2.3.3 0 0 0-.2 0 .3.3 0 0 0-.3 0 3 3 0 0 0-.6.8.3.3 0 0 0 .3.4c0 .1 0 0 0 0a1 1 0 0 0 .4.2.5.5 0 0 0 .4-.3.6.6 0 0 0 .1-.3 1.2 1.2 0 0 0 0-.3 1 1 0 0 0-.1-.5.8.8 0 0 0-.4-.3 1.1 1.1 0 0 0-1 .2.7.7 0 0 0-.3.9 1 1 0 0 0 .8.4 1.9 1.9 0 0 0 .4 0 .6.6 0 0 0 .5-.3.7.7 0 0 0 0-.6.7.7 0 0 0-.7-.3.9.9 0 0 0-.9.9.6.6 0 0 0 .5.5.6.6 0 0 0 .6-.3.5.5 0 0 0 0-.4.3.3 0 0 0-.5.3v-.1s0-.1 0 0v-.1h.1s0 .1 0 0c.1-.1.1 0 0 0l.1-.1.1-.1h.1c.1 0 0 0 0 0a.1.1 0 0 0 .1 0v.1s.1 0 0 0h.1l-.3-.1h-.1c-.1 0 0 0 0 0h-.1c0-.1 0-.1 0 0 0-.1 0 0 0 0 0-.1 0 0 0 0v-.1h.1l.1-.1h.2s.1 0 0 0a.1.1 0 0 1 .1 0c.1 0 0 0 0 0h.1v.5c0-.1 0-.1 0 0 0 0 0-.1 0 0v-.1c.1 0 .1 0 0 0h.1a1 1 0 0 0-.5-.2 4.2 4.2 0 0 0 .3.5l.1-.2.1-.1a3.2 3.2 0 0 1 .3-.3 3 3 0 0 0-.5-.1V36.7s.1 0 0 0v.2c-.1.1 0 0 0 0l-.1.1a.1.1 0 0 0-.2 0s-.1 0 0 0h-.1s-.1 0 0 0h-.1l-.1-.1v-.2a.1.1 0 0 1 .1 0 .1.1 0 0 0 .1-.1c.1 0 .1 0 0 0 0 0 .2 0 0 0a.3.3 0 0 0 .5 0V36ZM114.3 37a.9.9 0 0 0-.5-.2 1 1 0 0 0-.5.1.8.8 0 0 0-.4 1 1 1 0 0 0 .8.6 1 1 0 0 0 .6 0 .8.8 0 0 0 .4-.4 1 1 0 0 0 0-1.1.3.3 0 0 0-.2-.1.3.3 0 0 0-.3 0 3 3 0 0 0-.6.8.3.3 0 0 0 .3.5 1 1 0 0 0 .4.1.5.5 0 0 0 .4-.3.6.6 0 0 0 .1-.3 1.3 1.3 0 0 0 0-.3 1 1 0 0 0-.2-.5.8.8 0 0 0-.3-.2 1.1 1.1 0 0 0-1 .1.7.7 0 0 0-.3 1 1 1 0 0 0 .7.4 1.9 1.9 0 0 0 .4 0 .6.6 0 0 0 .6-.4.7.7 0 0 0 0-.6.7.7 0 0 0-.7-.3.9.9 0 0 0-.9.9.6.6 0 0 0 .5.6.6.6 0 0 0 .6-.3.5.5 0 0 0 0-.5.3.3 0 0 0-.5.3v-.1c0-.1 0 0 0 0 0-.1 0-.1 0 0v-.1h.1v.1-.1h.1v-.1h.2a36 36 0 0 0 .1 0s0 .1 0 0c0 .1 0 0 0 0h.1s-.1 0 0 0h-.4c-.1-.1 0 0 0 0a.1.1 0 0 1-.1-.1c-.1 0 0 0 0 0-.1 0 0 0 0 0s0 .1 0 0v-.1h.2v-.1H114.4v.1c.1 0 0 0 0 0h.1c0 .1 0 0 0 0v.4c.1 0 .1 0 0 0h.1l-.1-.1a1 1 0 0 0-.4-.1 4.2 4.2 0 0 0 .3.5l.1-.2v-.1h.1a3.2 3.2 0 0 1 .3-.4 3 3 0 0 0-.5 0v.2c0 .1 0 0 0 0a.1.1 0 0 1 0 .1c0 .1 0 0 0 0v.2h-.1v.1a.1.1 0 0 0-.2 0h-.1s-.1-.1 0 0h-.1l-.1-.1v-.1c0-.1 0-.1 0 0v-.1a.1.1 0 0 1 .1-.1.1.1 0 0 0 .1 0c.1 0 .1 0 0 0 0 0 .2 0 0 0a.3.3 0 0 0 .5 0V37Z"/>
    <path d="M107.6 40.7A4 4 0 0 0 109 38a13.5 13.5 0 0 0 0-1.8l-.1-1.8a1.5 1.5 0 0 0-.6-1.3 3.4 3.4 0 0 0-1.5-.4 18.6 18.6 0 0 0-3.8 0 17.7 17.7 0 0 0-3.6.7c-.2 0-.3.2-.4.4l-.3 1-.5 1.8a20 20 0 0 0-.4 3.6c0 .4 0 1 .4 1.2a3.4 3.4 0 0 0 1.6.3c2.6.3 5.6.9 7.8-.9.3-.2-.1-.7-.4-.4a5.7 5.7 0 0 1-3.7 1c-1.4 0-2.8-.2-4.2-.4-.3 0-.7 0-.8-.2a2 2 0 0 1 0-1l.2-2a21.8 21.8 0 0 1 1-4l-.2.2a19.5 19.5 0 0 1 4-.7 14.9 14.9 0 0 1 4 .1.8.8 0 0 1 .7.6 3 3 0 0 1 0 .8l.2 2.1a6.2 6.2 0 0 1-.2 2 2.9 2.9 0 0 1-1 1.4.3.3 0 0 0 .4.5ZM111.4 33.8a23 23 0 0 1 3.4-.3 16.8 16.8 0 0 1 3.2.2 1.4 1.4 0 0 1 1 .5c.2.4 0 1 0 1.5-.2.9 0 1.8 0 2.7a3 3 0 0 1-1 2.3 4.6 4.6 0 0 1-2.8.8c-1.6 0-4 .1-4.6-1.7-.7-2.1.8-4.2.8-6.3a.3.3 0 0 0-.6 0c0 2.1-1.5 4.2-.8 6.3a3 3 0 0 0 1.7 2 8.5 8.5 0 0 0 3 .3 6 6 0 0 0 3.3-.6 3.1 3.1 0 0 0 1.5-2.3v-3c0-1 .5-2.1-.5-2.7a3.2 3.2 0 0 0-1.4-.4l-2.2-.2a19.1 19.1 0 0 0-4.2.4c-.3 0-.2.6.2.6Z"/>
    <path d="M108.8 36.5h.3a.1.1 0 0 0 .1-.1h1a.3.3 0 0 0 .4-.2.3.3 0 0 0-.2-.4 4.7 4.7 0 0 0-1.9 0 .3.3 0 0 0-.2.5c.1.2.3.3.5.2ZM107.9 44.2a3.7 3.7 0 0 1-1.1.9l-1.3.7c-.7.5-1.5 1.1-.8 1.7a5.2 5.2 0 0 0 3 .9 7 7 0 0 0 3.4-.7c1-.5 1.5-1.3 1.4-2 0-.2-.5-.2-.5 0 .2 1.3-1.6 2.4-3.9 2.4a5 5 0 0 1-3-.7c-.6-.5.4-1.1 1-1.5a9.4 9.4 0 0 0 2.3-1.7c.1-.1-.4-.2-.5 0Z"/>
    <path d="M108.2 44a.4.4 0 0 1 .3.1.2.2 0 0 1 0 .2 5.9 5.9 0 0 1-1.7 1.3c-.2 0-.4.2-.6.4h-.1c-.5.3-1 .7-1 1a.4.4 0 0 0 .1.3 4.7 4.7 0 0 0 2.7.7h.2a4.8 4.8 0 0 0 3.5-1.2 1.3 1.3 0 0 0 .3-1 .2.2 0 0 1 0-.2.4.4 0 0 1 .3-.1c.2 0 .4 0 .4.2a2.2 2.2 0 0 1-1.4 2 7 7 0 0 1-3.3.8h-.1a5.6 5.6 0 0 1-3.2-.9.7.7 0 0 1-.3-.6c0-.5.6-.9 1.2-1.2l1.2-.8a3.7 3.7 0 0 0 1.1-.9.4.4 0 0 1 .4-.1Zm.1.2a.4.4 0 0 0-.1 0 .2.2 0 0 0-.2 0 3.8 3.8 0 0 1-1.2 1l-1.2.7c-.5.4-1 .7-1 1.1a.5.5 0 0 0 .1.5 5.2 5.2 0 0 0 3 .8h.2a6.9 6.9 0 0 0 3.2-.7c1-.5 1.4-1.2 1.3-1.9a.3.3 0 0 0-.2 0 1.5 1.5 0 0 1-.5 1.2 5 5 0 0 1-3.6 1.3h-.2a5 5 0 0 1-2.8-.7.6.6 0 0 1-.3-.5c0-.4.6-.8 1.1-1.1l.2-.1.6-.4a6 6 0 0 0 1.6-1.2ZM96.4 65a21.5 21.5 0 0 0 15.9 3.9 21.8 21.8 0 0 0 4.6-1.3c.4-.1.2-.8-.2-.6a21.2 21.2 0 0 1-16-.2 20.2 20.2 0 0 1-4-2.3c-.4-.2-.7.4-.3.6Z"/>
    <g>
      <path d="M101.7 53.5a9.8 9.8 0 0 0 12 .8A10.4 10.4 0 0 0 116 52c.2-.3-.3-.6-.5-.3a9.3 9.3 0 0 1-4.6 3.3 8.9 8.9 0 0 1-5.9-.1 8.5 8.5 0 0 1-2.9-1.8c-.3-.2-.8.2-.5.5Z"/>
    </g>
  </g>
</svg>