<svg xmlns="http://www.w3.org/2000/svg" width="144" height="144" viewBox="0 0 144 144"><g transform="translate(-473 -523)"><path d="M19.512-46.368C27.478-37,31.695-25.283,33.1-12.241,34.428.879,32.944,15.327,24.979,22.9c-7.966,7.653-22.413,8.512-36.158,7.731-13.667-.7-26.709-2.968-34.284-10.621C-53.117,12.437-55.381-.6-53.741-11.928c1.718-11.324,7.263-20.93,14.916-30.379,7.653-9.371,17.259-18.509,27.958-19.524C-.168-62.925,11.546-55.818,19.512-46.368Z" transform="translate(555.245 610.942)" fill="#ebf7e9"/><g transform="translate(27 -315)"><circle cx="72" cy="72" r="72" transform="translate(446 838)" fill="#fff" opacity="0"/><g transform="translate(458.884 839.516)"><g transform="translate(23.438 0.048)"><path d="M421.325,201.638a1.656,1.656,0,0,0-.479-1.073.909.909,0,0,0-.708-.251,3.041,3.041,0,0,0-.89-.479.513.513,0,0,0-.457.068c.183-.639.365-1.3.571-1.941.023-.091.068-.206.091-.3a3.347,3.347,0,0,0,.594-1.6c.114-.639.3-1.461-.365-1.872a.022.022,0,0,1-.023-.023l-.068-.137a1.243,1.243,0,0,0-.959-.594,1.58,1.58,0,0,0-1.073.411.316.316,0,0,0-.069.091,3,3,0,0,0-1.027.639,1.647,1.647,0,0,0-.548.434,3.688,3.688,0,0,1-.068-.457c-.046-.5-.023-1-.046-1.507-.023-.616-.023-1.233-.068-1.849a2.528,2.528,0,0,0-.434-1.507,1.374,1.374,0,0,0-.571-.457.935.935,0,0,0-1.142-.228,1.462,1.462,0,0,0-.594.776c-.046.069-.068.137-.114.205a12.113,12.113,0,0,0-.457,1.552c-.023.091-.046.16-.069.251-.594-.5-1.21-1-1.826-1.461-.479-.365-1-.731-1.552-1.073a2.081,2.081,0,0,0-.388-.525,1.874,1.874,0,0,0-1.278-.639,1.254,1.254,0,0,0-1.027.662,1.2,1.2,0,0,0-.434,1.164,2.968,2.968,0,0,0-3.333-1.187,2.434,2.434,0,0,0-.434.16,1.6,1.6,0,0,0-1.347.731.849.849,0,0,0-.274.685,1.877,1.877,0,0,0,.388,1.621,5.27,5.27,0,0,0,1.781,2.352,1.228,1.228,0,0,0,.457.228,5.708,5.708,0,0,0,1.279,1.05.615.615,0,0,0,.183.16.022.022,0,0,0,.023.023c.023.023.023.046.046.069a1.26,1.26,0,0,0,.16.205,4.766,4.766,0,0,1,.571-.023c.091,0,.16-.023.251-.023a3.485,3.485,0,0,1,.685.068c.023,0,.023,0,.046-.023,5.662.8,9.292,6.644,6.94,11.849a6.618,6.618,0,0,1-1.142,1.119c-.457.342.046,1.027.548.8a1.711,1.711,0,0,1,.365-.114,1.174,1.174,0,0,0,.8.434,3.182,3.182,0,0,0,.731,1.1c.046.046.114.091.16.137a2.259,2.259,0,0,1-.32,1.37,4.671,4.671,0,0,1-.571.753c-.023.046-.068.068-.091.114a.994.994,0,0,1-.16.137,5.8,5.8,0,0,0-1.027.822.574.574,0,0,0-.16.091c-.068.068-.137.16-.206.228l-.137.137v.114a.818.818,0,0,0-.091.251c-.023.046-.023.068-.046.114a2.451,2.451,0,0,0,.959,2.6.672.672,0,0,0,.776.114.62.62,0,0,0,.388-.137,12.972,12.972,0,0,0,2.055-2.762c.388-.571.708-1.164,1.05-1.735l.616-.822c.206-.228.388-.457.548-.662a8.287,8.287,0,0,0,1.142-2.123.448.448,0,0,0,.274-.3,4.8,4.8,0,0,0-.457-4.406.567.567,0,0,0-.616-.274h0c.205-.137.388-.274.571-.411a2.512,2.512,0,0,0,1.689-1.256l.046-.046a2.339,2.339,0,0,0,.32-.5A8.813,8.813,0,0,0,421.325,201.638Z" transform="translate(-378.671 -188.1)"/><path d="M359.559,358.344c-3.7,1.735-10.776,2.945-12.579,2.648-1.826-.3-3.219-4.772-3.219-4.772-2.717-6.621-6.986-14.589-7.146-14.908h0c-5.456.616-10.981.913-16.483,1.073a.668.668,0,0,1-.205-.046c-4.315-.046-8.653-.137-12.968-.16a.5.5,0,0,1-.32-.114H306.5l-.776.068a.575.575,0,0,1-.548-.708,4.512,4.512,0,0,1,.845-2.329,3.437,3.437,0,0,1,2.42-.913c.982-.114,1.941-.206,2.922-.3.959-.091,1.918-.3,2.877-.479.5-.091.982-.16,1.461-.228a5.621,5.621,0,0,1,.594-.046.564.564,0,0,1,.205-.091q1.61-.24,3.219-.548c3.493-.662,6.94-1.507,10.388-2.466-.616.023-1.233.046-1.872.046h-.5a.084.084,0,0,1-.069-.023c-.365,0-.731,0-1.119-.023-.411,0-.8-.023-1.187-.046l-1.3-.068a59.9,59.9,0,0,1-6.05-.731c-.434-.046-.868-.091-1.3-.16-.685-.091-1.37-.137-2.055-.274a5.456,5.456,0,0,1-1.164-.3.1.1,0,0,1-.114,0,6.422,6.422,0,0,0-.708-.228l-.685-.274a10.2,10.2,0,0,1-1.347-.616.172.172,0,0,1-.091-.16,9.486,9.486,0,0,1-1.073-.548.5.5,0,0,1-.32-.023.553.553,0,0,1-.32-.616,1.284,1.284,0,0,1,.16-.411l.205-.479a5.9,5.9,0,0,1,.411-.731,6.6,6.6,0,0,1,1.164-1.347.453.453,0,0,1,.594-.046.446.446,0,0,1,.16.023c.183.046.342.091.525.137.32.091.639.16.959.228.662.16,1.324.274,1.963.411.571.091,1.142.183,1.735.251.3,0,.594.023.89.023.274,0,.548.023.8.023.274,0,.548.046.822.068.023,0,.069.023.091.023h0c.5.023,1,.023,1.507.023a28.328,28.328,0,0,0,5.365-.548,25.862,25.862,0,0,0,2.625-.639c.434-.137.868-.274,1.279-.411.205-.068.411-.137.639-.205.069-.023.137-.023.206-.046.205-.114.388-.228.571-.342a.08.08,0,0,0,.046-.023,2.422,2.422,0,0,0,.274-.228c.023,0,.023-.023.046-.023a.361.361,0,0,1,.685-.023c.023,0,.023.023.046.046a14.706,14.706,0,0,1,.548,1.393c.023.023.023.046.046.091.023.091.046.205.068.3a.216.216,0,0,1-.114.251c-.023.023-.069.046-.091.069a7.023,7.023,0,0,1-.548.594c-.205.205-.411.388-.639.594l-.023.023c-.091.114-.205.251-.3.365-.023.023-.023.069-.046.091-.069.16-.114.3-.183.434-.046.137-.114.274-.16.434a8.736,8.736,0,0,0-.069,1.073c.046.069.091.16.137.228.023.023.023.046.046.068s.068.023.091.046a1.433,1.433,0,0,0,1.073.479,2.789,2.789,0,0,0,.753-.046,1.479,1.479,0,0,0,.3-.091,7.788,7.788,0,0,0,3.7-1.758,15.541,15.541,0,0,1,5.936-2.922.173.173,0,0,0,.091.046,2.092,2.092,0,0,0,.845.068.137.137,0,0,1,.091.023,3.775,3.775,0,0,0,.685.662c.046.046.091.068.137.114,0,.046.023.114.023.183a6.4,6.4,0,0,1,1.187,1.027c.091.114.205.205.3.32l.137.137c1.621,1.484,8.812,7.854,9.885,8.927,1.05,1.05,10.685,8.4,11.118,11.643C368.051,353.892,363.257,356.609,359.559,358.344Z" transform="translate(-305.17 -294.1)" fill="#5abd4a"/><path d="M409.524,245.392a.364.364,0,0,0-.274-.091H409.2c-.342.023-.639.16-.982.205-1.872.342-3.63-.845-5-1.986-1.1-.89-2.055-1.941-3.059-2.922-.959-.936-1.963-1.8-2.877-2.808a7.649,7.649,0,0,1-1.1-1.347.714.714,0,0,0-.206-.251.292.292,0,0,0-.365.091.683.683,0,0,0-.091.228,12.584,12.584,0,0,1-.662,1.507c-.251.525-.479,1.027-.731,1.552a.764.764,0,0,0-.068.731.647.647,0,0,0,.388.251,17.541,17.541,0,0,1,3.881,2.055c1.233.913,2.283,2.055,3.47,3.036a7.275,7.275,0,0,0,4.041,1.872,3.966,3.966,0,0,1,.411-.251,2.424,2.424,0,0,1,1.8-.3c.3-.205.571-.457.845-.685.16-.137.32-.3.479-.434C409.478,245.734,409.638,245.529,409.524,245.392Z" transform="translate(-373.719 -225.187)"/><path d="M375.511,681.793a1.337,1.337,0,0,0-.046-.3,4.863,4.863,0,0,0-.068-.571,4.441,4.441,0,0,0-.16-.753c-.023-.091-.069-.183-.091-.274-.023-.342-.023-.662-.046-1a.465.465,0,0,0-.137-.342c.205-.411-.365-.845-.776-.525-.023.023-.068.046-.091.068a.388.388,0,0,0-.16.023,31.332,31.332,0,0,1-7.991.753c-.228-.023-.479-.046-.708-.046a.486.486,0,0,0-.479-.046c-1.279.457-2.557.936-3.858,1.393-.936.205-1.872.411-2.831.616a28.59,28.59,0,0,0-3.151.685,1.115,1.115,0,0,0-.251.091.39.39,0,0,0-.228,0,1.335,1.335,0,0,0-.388.228,1.127,1.127,0,0,0-.365.731.967.967,0,0,0,.205.708.022.022,0,0,0,.023.023,2.484,2.484,0,0,0,.137.251,1.731,1.731,0,0,0,.457.457c1.347.959,3.858.731,5.388.594.16-.023.342-.046.5-.068a18.169,18.169,0,0,0,4.452-.753.754.754,0,0,0,.32,0c.457-.091.89-.183,1.347-.3.068-.023.114-.046.183-.068h.137c.183-.023.388-.046.594-.091a3.244,3.244,0,0,0,.411-.183H368c.091.457.183.913.3,1.347a.587.587,0,0,0,1,.228c.685-.068,1.37-.16,2.055-.251.753-.114,1.552-.183,2.306-.32a4.1,4.1,0,0,0,.5-.137,1.547,1.547,0,0,0,.959-.388,1.211,1.211,0,0,0,.388-.959A1.134,1.134,0,0,0,375.511,681.793Z" transform="translate(-342.606 -566.089)"/><path d="M648.7,620.168c0-.023-.023-.023-.023-.046a1.726,1.726,0,0,0-.069-.365,1.933,1.933,0,0,0-.251-.594c-.114-.183-.228-.343-.342-.5a2.077,2.077,0,0,0-.411-.479.084.084,0,0,0-.069-.023c-.137-.183-.3-.365-.457-.548a6.524,6.524,0,0,0-2.466-1.758.338.338,0,0,0-.16-.023.608.608,0,0,0-.137-.114.623.623,0,0,0-.822.205,11.822,11.822,0,0,1-2.808,2.625h-.023c-.342.183-.708.342-1.05.548-.114.069-.228.137-.365.206a.437.437,0,0,0-.411.046c-.228.16-.434.3-.639.457a.5.5,0,0,1-.114.069l-.046.046a1.254,1.254,0,0,0-.206.16c-.206.16-.388.32-.594.479-2.078,1.119-4.132,2.237-6.21,3.333a2.752,2.752,0,0,0-.411.114,3.444,3.444,0,0,1-1.119.388,1.072,1.072,0,0,0-.5.388.656.656,0,0,0-.114.457.608.608,0,0,0,.068.274.33.33,0,0,0,.16.228c.046.046.114.068.16.114a.631.631,0,0,0,.3.571,6.984,6.984,0,0,0,4.863.091h.091a6.875,6.875,0,0,0,.959-.114,4.359,4.359,0,0,0,.936-.251,4.021,4.021,0,0,0,.457-.205.08.08,0,0,0,.046-.023c.731-.206,1.461-.434,2.192-.708.685-.251,1.37-.548,2.055-.845a12.576,12.576,0,0,0,1.552-.822,5.122,5.122,0,0,0,.479-.274,5.942,5.942,0,0,0,.731-.594,2.034,2.034,0,0,0,.685.639.6.6,0,0,0,.936.228c.868-.822,1.712-1.644,2.58-2.466a.244.244,0,0,0,.137-.046,1.081,1.081,0,0,0,.228-.228.842.842,0,0,0,.114-.251h0A.368.368,0,0,0,648.7,620.168Z" transform="translate(-554.972 -518.026)"/></g><g transform="translate(0 0)"><g transform="translate(54.142 21.446)"><path d="M440.787,283.214a2.924,2.924,0,0,1,2.922-.753,1.611,1.611,0,0,1,.959,1.712,2.745,2.745,0,0,1-1.142,1.53,4.12,4.12,0,0,1-1.895.8,1.784,1.784,0,0,1-1.187-.183c-.479-.3-.388-1-.342-1.484.023-.274-.388-.274-.411,0a2.28,2.28,0,0,0,.228,1.553,1.607,1.607,0,0,0,1.324.548,4.321,4.321,0,0,0,2.283-.753,3.393,3.393,0,0,0,1.53-1.849,1.968,1.968,0,0,0-.845-2.123c-1.21-.845-2.694-.137-3.721.662-.205.228.091.525.3.342Z" transform="translate(-439.659 -281.827)"/></g><g transform="translate(56.474 22.764)"><path d="M450.885,287.965a.8.8,0,0,1,.548,1.027,1.182,1.182,0,0,1-1.3.594.2.2,0,0,0-.114.388,1.636,1.636,0,0,0,1.552-.457,1.2,1.2,0,0,0,.068-1.484,1,1,0,0,0-.753-.434.2.2,0,0,0-.205.205.2.2,0,0,0,.205.16Z" transform="translate(-449.875 -287.6)"/></g><g transform="translate(38.097 18.678)"><path d="M372.945,269.885a19.287,19.287,0,0,1-2.74,4.5,2.637,2.637,0,0,0-.753,2.283A2.575,2.575,0,0,0,371,278.081a11.251,11.251,0,0,0,2.74.708,13.1,13.1,0,0,0,2.831.16,18.248,18.248,0,0,1,2.489-.183,2.336,2.336,0,0,1,1.986,1.393,18.583,18.583,0,0,1,1.1,3.036,33.589,33.589,0,0,1,.776,3.333c.046.32.548.183.5-.137a31.115,31.115,0,0,0-1.575-5.708,3.981,3.981,0,0,0-1.279-1.941,3.471,3.471,0,0,0-2.329-.479,23.208,23.208,0,0,1-2.511.183,15.712,15.712,0,0,1-2.922-.342,5.536,5.536,0,0,1-2.4-.959,1.272,1.272,0,0,1-.5-.89,2.169,2.169,0,0,1,.5-1.256,22.7,22.7,0,0,0,3.036-4.977c.114-.32-.388-.457-.5-.137Z" transform="translate(-369.379 -269.703)"/></g><g transform="translate(43.417 10.741)"><path d="M394.514,235.066c-.616,1.324-1.21,2.625-1.8,3.95-.137.3.3.571.434.251.594-1.324,1.21-2.648,1.8-3.95.16-.274-.3-.548-.434-.251Z" transform="translate(-392.684 -234.937)"/></g><g transform="translate(37.229 12.369)"><path d="M6.926,6.689A10.564,10.564,0,0,1,4.592,6.4a3.679,3.679,0,0,1-2.313-1.28A1.126,1.126,0,0,1,2.5,3.8,3.176,3.176,0,0,1,5.327,2.72a5.614,5.614,0,0,1,1.613.364l-.193.461c-.025-.011-2.552-1.04-3.861.572-.31.381-.243.618-.165.763.495.928,3.369,1.406,4.619,1.292l.046.5C7.246,6.683,7.091,6.689,6.926,6.689Z"/></g><g transform="translate(22.002 38.678)"><path d="M301.42,362.785c-.228.023-.183-.479-.183-.639v-.731a13.561,13.561,0,0,0-.069-1.667,3.166,3.166,0,0,0-.479-1.393,2.1,2.1,0,0,0-.5-.5c-.3-.205-.639-.32-.936-.5-.274-.183-.525.251-.251.434.3.205.662.3.936.5a1.574,1.574,0,0,1,.479.548,3.869,3.869,0,0,1,.342,1.6c.023.548,0,1.119.023,1.667.023.5,0,1.279.708,1.187.251-.023.251-.525-.069-.5Z" transform="translate(-298.881 -357.307)"/></g><g transform="translate(17.668 38.911)"><path d="M321.063,365.536a118.342,118.342,0,0,1-19.223,2.009c-3.219.114-6.461-.023-9.68-.114-1.621-.046-3.242-.046-4.863-.069-.662,0-1.3-.023-1.963.023a5.377,5.377,0,0,1-1.712-.114,1.675,1.675,0,0,1-.776-.457,3.792,3.792,0,0,1-.594-1.073c-.342-.753-.685-1.53-.982-2.306a13.636,13.636,0,0,1-.685-2.329,8.439,8.439,0,0,1-.16-1.3c-.023-.206-.137-1.1.3-.936.32.114.457-.388.137-.5a.674.674,0,0,0-.753.205,1.405,1.405,0,0,0-.205.868,9.823,9.823,0,0,0,.3,2.306,27.14,27.14,0,0,0,1.644,4.361,2.607,2.607,0,0,0,1.233,1.507,4.094,4.094,0,0,0,1.735.3c.639,0,1.279-.046,1.918-.046.868.023,1.735.023,2.6.046,3.425.046,6.849.205,10.274.183s6.872-.251,10.274-.525a94.8,94.8,0,0,0,11.347-1.552c.3-.068.16-.548-.16-.479Z" transform="translate(-279.9 -358.329)"/></g><g transform="translate(19.807 34.446)"><path d="M292.221,345.855a4.127,4.127,0,0,0-.114-1.667c-.091-.548-.183-1.119-.3-1.667a10.506,10.506,0,0,0-1.187-3.036c-.206-.32-.479-.845-.936-.685a.679.679,0,0,0-.411.639,4.387,4.387,0,0,0,.32,1.712,18.669,18.669,0,0,1,.89,4.178c.023.32.548.32.5,0a18.319,18.319,0,0,0-.548-3.128c-.183-.662-.434-1.3-.594-1.986a1.922,1.922,0,0,1-.091-.8c.068-.388.342.228.411.342a9.3,9.3,0,0,1,1.05,2.625c.137.5.228,1.027.32,1.552a4.984,4.984,0,0,1,.16,1.735c-.046.388.457.525.525.183Z" transform="translate(-289.269 -338.77)"/></g><g transform="translate(21.141 31.453)"><path d="M298.852,327.54c-.731-.913-1.6-2.215-2.968-1.8a1.06,1.06,0,0,0-.753,1.324,2.848,2.848,0,0,0,.571,1.347,5.3,5.3,0,0,0,2.443,1.552c.525.183,1.073.342,1.6.548.639.228,1.279.5,1.918.8a33.729,33.729,0,0,0,3.63,1.507,23.353,23.353,0,0,0,3.288.685c2.26.365,4.52.731,6.781.959a24.335,24.335,0,0,0,7.283-.023c.32-.069.183-.548-.137-.5a21.944,21.944,0,0,1-5.867.114c-2.192-.183-4.361-.479-6.507-.822-.936-.137-1.849-.3-2.785-.457a15.1,15.1,0,0,1-3.425-1c-1.142-.479-2.26-1.05-3.425-1.507-.959-.388-1.986-.639-2.922-1.073a3.036,3.036,0,0,1-1.941-2.192.537.537,0,0,1,.457-.8,1.259,1.259,0,0,1,1.027.206,6.955,6.955,0,0,1,1.347,1.484c.251.274.594-.091.388-.342Z" transform="translate(-295.11 -325.658)"/></g><g transform="translate(21.673 25.497)"><path d="M299.691,306.245c-.16-.571-.32-1.142-.5-1.712-.16-.525-.274-1.073-.479-1.6-.183-.434-.411-.868-.594-1.3a1.338,1.338,0,0,1-.046-1.142c.137-.251.5-.639.753-.274a4.465,4.465,0,0,1,.388,1.1,18.354,18.354,0,0,1,.776,3.31c.046.32.548.183.5-.137a17.922,17.922,0,0,0-.685-3.059c-.114-.365-.228-.753-.365-1.1a1.12,1.12,0,0,0-.571-.708c-.662-.251-1.256.457-1.393,1.05a3.848,3.848,0,0,0,.685,2.306,13.32,13.32,0,0,1,.5,1.621c.183.594.342,1.21.525,1.8a.265.265,0,0,0,.5-.16Z" transform="translate(-297.441 -299.572)"/></g><g transform="translate(23.008 24.144)"><path d="M304.021,295.8c-.16-.457-.388-1.21.068-1.575.5-.388.982.594,1.119.936a10.328,10.328,0,0,1,.525,1.872c.16.662.274,1.324.388,2.009.046.32.548.183.5-.137a24.6,24.6,0,0,0-.525-2.58,5.468,5.468,0,0,0-.89-2.169,1.019,1.019,0,0,0-1.6-.205,1.948,1.948,0,0,0-.114,1.963c.137.342.639.205.525-.114Z" transform="translate(-303.287 -293.646)"/></g><g transform="translate(24.798 24.787)"><path d="M311.578,297.176c.251-.3.616-.183.868.068a2.914,2.914,0,0,1,.594,1.187,11.257,11.257,0,0,1,.411,2.9c.023.32.525.32.5,0a10.273,10.273,0,0,0-.616-3.516,2.3,2.3,0,0,0-.913-1.21.974.974,0,0,0-1.256.183c-.16.274.205.639.411.388Z" transform="translate(-311.128 -296.459)"/></g><g transform="translate(27.173 26.847)"><path d="M321.615,305.9a3.015,3.015,0,0,1,1.05,2.215,7.445,7.445,0,0,1-.068,1.233,3.558,3.558,0,0,0-.114,1.3c.114.388.594.616.913.8a7.578,7.578,0,0,0,1.233.571,13.666,13.666,0,0,0,2.694.662c.959.114,1.918.16,2.877.228.982.046,1.941.091,2.922.114a30.853,30.853,0,0,0,5.8-.411,17.368,17.368,0,0,0,6.05-2.192c.274-.16.023-.616-.251-.434a21,21,0,0,1-10.844,2.534c-1.918,0-3.813-.114-5.73-.251a11.743,11.743,0,0,1-2.648-.479,6.193,6.193,0,0,1-2.374-1.142c-.228-.205-.091-.548-.069-.8.023-.228.069-.434.091-.662a6.206,6.206,0,0,0,.023-1.3,3.458,3.458,0,0,0-1.187-2.329c-.251-.228-.616.137-.365.342Z" transform="translate(-321.53 -305.482)"/></g><g transform="translate(58.106 28.529)"><path d="M464.735,320.875a54.3,54.3,0,0,0-4.361-3.9,11.1,11.1,0,0,0-1.233-.753,4.445,4.445,0,0,1-1.1-.685,2.8,2.8,0,0,1-.457-2.443c.046-.32-.479-.32-.5,0a3.65,3.65,0,0,0,.365,2.557,7.092,7.092,0,0,0,2.237,1.484,42.169,42.169,0,0,1,4.68,4.109c.251.228.616-.137.365-.365Z" transform="translate(-457.023 -312.85)"/></g><g transform="translate(54.711 47.402)"><path d="M442.187,395.9c1.05,2.009,2.055,4.041,2.968,6.118.137.3.571.046.434-.251-.913-2.078-1.918-4.109-2.968-6.119-.137-.3-.594-.046-.434.251Z" transform="translate(-442.153 -395.517)"/></g><g transform="translate(45.596 56.912)"><path d="M420.76,446.427c-3.242,1.735-6.461,3.516-9.68,5.274-.8.434-1.621.868-2.42,1.324a19.548,19.548,0,0,0-2.123,1.21,3.584,3.584,0,0,0-1.416,1.712,10.364,10.364,0,0,0-.434,2.648,99.886,99.886,0,0,0-.776,11.073c0,3.721.479,7.42.411,11.141a37.924,37.924,0,0,1-1.621,10.844c-.137.434-.3.868-.457,1.3-.069.16.091.32.251.32a40.412,40.412,0,0,0,6.438-.068,10.888,10.888,0,0,0,2.922-.685,3.709,3.709,0,0,0,1.872-1.461,3.273,3.273,0,0,0,.365-1.324c.114-.868.206-1.712.274-2.58.16-1.758.274-3.493.365-5.251.16-3.493.183-6.986.183-10.5,0-1.758,0-3.516.023-5.274,0-.868.023-1.735.046-2.58.023-.708-.114-1.712.525-2.215a3.561,3.561,0,0,1,1.735-.5c.845-.091,1.712-.183,2.557-.3,1.689-.228,3.356-.548,5.023-.936,5.205-1.21,10.388-3.059,14.589-6.484a15.181,15.181,0,0,0,4.52-5.662,8.079,8.079,0,0,0,.662-3.881,16.522,16.522,0,0,0-1.027-4.315q-.342-.959-.753-1.918c-.114-.3-.616-.16-.5.137a29.119,29.119,0,0,1,1.415,4.109,9.105,9.105,0,0,1,.183,4.292,12.737,12.737,0,0,1-3.79,5.936c-3.813,3.562-8.79,5.571-13.767,6.895-1.644.434-3.31.8-5,1.073-.845.137-1.667.274-2.511.365-.753.091-1.507.137-2.237.251a2.934,2.934,0,0,0-1.6.662,2.616,2.616,0,0,0-.548,1.918c-.046,1.712-.068,3.447-.068,5.16a195.488,195.488,0,0,1-.731,20.684,6.6,6.6,0,0,1-.3,1.758,2.318,2.318,0,0,1-.685.868,5.631,5.631,0,0,1-2.374,1,26.037,26.037,0,0,1-6.393.365l-1.438-.068c.091.114.16.205.251.32a34.883,34.883,0,0,0,2.055-10.593c.091-1.8.068-3.607,0-5.411-.091-1.872-.274-3.721-.32-5.593a78.573,78.573,0,0,1,.525-10.867c.091-.936.205-1.872.32-2.808a4.343,4.343,0,0,1,.776-2.489,6.343,6.343,0,0,1,1.872-1.324c.776-.411,1.53-.822,2.306-1.233,3.219-1.735,6.415-3.516,9.612-5.251l1.164-.616c.274-.16,0-.616-.274-.457Z" transform="translate(-402.229 -437.175)"/></g><g transform="translate(77.692 58.634)"><g transform="translate(0 0)"><path d="M542.857,461.813a41.009,41.009,0,0,0,4.087,5.251c1.986,2.26,4.064,4.452,6.187,6.6,2.26,2.283,4.589,4.52,6.94,6.712,1.1,1.027,2.215,2.032,3.333,3.014a32.082,32.082,0,0,0,3.425,2.671c.708.457,1.415.868,2.146,1.279.3.183.594.365.867.548a6.155,6.155,0,0,0,.776.571.811.811,0,0,0,.89-.183,8.234,8.234,0,0,1,1-.5,14.37,14.37,0,0,0,2.078-1.187,10.472,10.472,0,0,0,3.31-3.4.552.552,0,0,0,.137-.457,3.811,3.811,0,0,0-.3-.616c-.183-.365-.388-.731-.594-1.073a15.023,15.023,0,0,0-1.393-2.009,14.647,14.647,0,0,0-3.63-3.288c-.8-.5-1.6-.959-2.374-1.461-.776-.525-1.53-1.05-2.283-1.621a31.41,31.41,0,0,1-7.557-7.694,36.235,36.235,0,0,1-3.836-8.653c-.982-3.082-1.849-6.187-3.082-9.2-.32-.753-.639-1.507-1-2.26-.137-.3-.594-.046-.434.251a62.817,62.817,0,0,1,3.173,8.539,65.854,65.854,0,0,0,2.854,8.036,25.513,25.513,0,0,0,5.114,7.488,43.243,43.243,0,0,0,7.991,6.278c.753.479,1.552.913,2.26,1.461a16.638,16.638,0,0,1,1.849,1.735,16.828,16.828,0,0,1,2.785,4.315V482.7a10.1,10.1,0,0,1-3.516,3.63,16.251,16.251,0,0,1-2.237,1.21,4.553,4.553,0,0,0-.479.228c-.114.068-.342.274-.479.251-.114-.023-.274-.206-.365-.274l-.479-.342c-.685-.479-1.438-.868-2.146-1.3-.662-.411-1.3-.822-1.918-1.279a44.785,44.785,0,0,1-3.539-3.014c-2.466-2.215-4.863-4.5-7.237-6.826-2.329-2.283-4.612-4.635-6.8-7.055a52.614,52.614,0,0,1-4.726-5.822c-.114-.183-.251-.365-.365-.548-.16-.274-.616-.023-.434.251Z" transform="translate(-542.814 -444.717)"/></g></g><g transform="translate(97.186 97.317)"><path d="M643.154,614.665a8.151,8.151,0,0,1,4.2,3.036,3.356,3.356,0,0,1,.639,1.233c.091.434-.046.571-.365.822-.776.639-1.484,1.347-2.215,2.032-.114.091-.205.183-.32.274-.068.068-.251.274-.343.3-.068.023-.228-.137-.3-.183a2.442,2.442,0,0,1-.365-.32c-.046-.046-.091-.114-.137-.16-.023-.046-.046-.114-.068-.068.114-.205-.114-.5-.342-.342-.365.228-.662.525-1.027.753a11.721,11.721,0,0,1-1.187.616c-.845.411-1.712.8-2.58,1.141a25.265,25.265,0,0,1-5.319,1.507c-1.438.228-3.333.479-4.475-.685a.677.677,0,0,1,.068-1.073,3.817,3.817,0,0,1,1.119-.5c.822-.32,1.621-.685,2.42-1.073a50.36,50.36,0,0,0,5.251-3.1c.274-.183.023-.616-.251-.434a53.88,53.88,0,0,1-5.068,3.014,20.406,20.406,0,0,1-2.717,1.187c-.685.251-1.575.616-1.575,1.507,0,.8.913,1.324,1.575,1.575a5.9,5.9,0,0,0,2.351.274,21.519,21.519,0,0,0,5.753-1.324q1.609-.582,3.151-1.3c.479-.228.982-.457,1.438-.708.479-.274.89-.616,1.347-.936l-.342-.342c-.274.571.639,1.164,1,1.438a.482.482,0,0,0,.616-.023c.251-.206.479-.411.731-.639.479-.434.936-.868,1.393-1.3l.708-.639a4.141,4.141,0,0,0,.479-.411,1.277,1.277,0,0,0,.046-1.278,6.772,6.772,0,0,0-1.963-2.58,8.9,8.9,0,0,0-3.173-1.781.264.264,0,0,0-.16.5Z" transform="translate(-628.2 -614.152)"/></g><g transform="translate(34.299 111.415)"><path d="M364.172,676.839c-1.872.708-3.79,1.393-5.73,1.918-.936.251-1.872.365-2.808.571q-.685.137-1.37.342a3.417,3.417,0,0,0-1.141.5c-.639.525-.365,1.461.068,2.009a3.407,3.407,0,0,0,2.146,1.119,17.389,17.389,0,0,0,5.753-.114c2.192-.342,4.361-.936,6.552-1.3-.114-.091-.205-.16-.32-.251.046.457.091.89.137,1.347.046.3.16.571.479.594.091,0,.183-.023.3-.023.046,0,.023,0,.091-.023.137-.023.251-.023.388-.046.822-.091,1.644-.183,2.466-.3a14.6,14.6,0,0,0,2.625-.594c.525-.183,1.279-.5,1.324-1.142a5.02,5.02,0,0,0-.114-1c-.069-.5-.114-1-.183-1.507-.137-.959-.3-1.918-.525-2.854-.068-.32-.571-.183-.5.137a35.311,35.311,0,0,1,.731,4.657,1.735,1.735,0,0,1,.046.571.539.539,0,0,1-.137.205,1.849,1.849,0,0,1-.639.388,9.839,9.839,0,0,1-2.283.571c-.776.137-1.575.228-2.352.32-.3.023-.594.068-.89.091-.114.023-.274.068-.342,0-.046-.046-.023-.206-.023-.274-.023-.137-.023-.274-.046-.388-.023-.251-.046-.479-.068-.731a.27.27,0,0,0-.32-.251c-3.562.616-7.077,1.8-10.73,1.575a5.814,5.814,0,0,1-2.557-.571,2.238,2.238,0,0,1-.753-.708c-.183-.3-.365-.822-.068-1.1a2.833,2.833,0,0,1,1.119-.457,12.43,12.43,0,0,1,1.324-.32c.845-.16,1.712-.3,2.557-.5,1-.251,1.963-.594,2.945-.913s1.963-.685,2.922-1.027c.388-.137.251-.639-.069-.525Z" transform="translate(-352.744 -675.903)"/></g><g transform="translate(18.454 34.383)"><path d="M285.295,340.024c-.068-.616-.525-1.575-1.278-1.53a.728.728,0,0,0-.639.571,2.531,2.531,0,0,0,.16,1.233l1.507,5.685a.261.261,0,0,0,.5-.137c-.388-1.438-.753-2.854-1.142-4.292a21.377,21.377,0,0,1-.548-2.078.547.547,0,0,1,.091-.457c.137-.137.32.023.434.114a1.479,1.479,0,0,1,.411.845c.023.365.525.365.5.046Z" transform="translate(-283.341 -338.493)"/></g><g transform="translate(17.714 35.93)"><path d="M281.445,345.437a.839.839,0,0,0-1.21.228c-.32.548,0,1.393.137,1.941.411,1.484,1,2.877,1.279,4.383.068.32.548.183.5-.137a24.864,24.864,0,0,0-.982-3.379,15.073,15.073,0,0,1-.457-1.667,1.6,1.6,0,0,1-.068-.8c.046-.137.274-.32.434-.205.251.205.616-.16.365-.365Z" transform="translate(-280.098 -345.27)"/></g><g transform="translate(40.746 20.85)"><path d="M381.011,279.6a3.16,3.16,0,0,0,2.854,1.461,8.735,8.735,0,0,0,4.109-.753c.3-.137.046-.571-.251-.434a8.038,8.038,0,0,1-3.653.708c-.959-.046-2.146-.251-2.6-1.233-.16-.3-.594-.046-.457.251Z" transform="translate(-380.985 -279.217)"/></g><g transform="translate(49.082 33.294)"><path d="M419.893,333.993a4.469,4.469,0,0,0-2.374,3.151,1.532,1.532,0,0,0,.639,1.621,2.658,2.658,0,0,0,1.781.228c2.557-.365,4.383-2.237,6.484-3.561a5.319,5.319,0,0,1,4.566-.959c.32.114.457-.388.137-.5-2.511-.913-4.886.913-6.8,2.329a12.508,12.508,0,0,1-2.945,1.781,5.677,5.677,0,0,1-1.758.434c-.525.046-1.256,0-1.53-.548-.32-.639.114-1.507.434-2.055a4.155,4.155,0,0,1,1.6-1.484.245.245,0,1,0-.228-.434Z" transform="translate(-417.495 -333.725)"/></g><g transform="translate(27.156 32.552)"><path d="M324.162,330.686a.543.543,0,0,0-.822-.046,4.616,4.616,0,0,0-.708.776,11.437,11.437,0,0,0-1.142,1.8.258.258,0,0,0,.091.342.252.252,0,0,0,.342-.091,12.6,12.6,0,0,1,.913-1.507,7.114,7.114,0,0,1,.525-.639,1.435,1.435,0,0,1,.251-.274c.046-.023.068-.046.114-.068,0,0,.023-.023.023,0a.328.328,0,0,1-.068-.046c.205.274.662.023.479-.251Z" transform="translate(-321.459 -330.475)"/></g><g transform="translate(23.143 44.324)"><path d="M304.958,382.166a9.52,9.52,0,0,0-1.073,3.014.26.26,0,1,0,.5.137,8.32,8.32,0,0,1,1.027-2.9c.137-.274-.3-.548-.457-.251Z" transform="translate(-303.881 -382.037)"/></g><g transform="translate(17.307 108.566)"><path d="M378.79,676.913q-13.732,1.986-27.533,3.31-13.732,1.336-27.51,1.986c-4.566.206-9.155.365-13.721.457l-3.424.068a27.44,27.44,0,0,1-3.356-.023c-1.963-.205-3.927-.32-5.89-.411a53.207,53.207,0,0,1-11.872-1.53,24.488,24.488,0,0,1-2.922-1,15.561,15.561,0,0,1-2.762-1.37c-1.438-.982-.982-2.762-.137-3.973a5.684,5.684,0,0,1,1.941-1.667c.89-.525,1.8-1,2.74-1.484a50.554,50.554,0,0,1,5.73-2.4c4.041-1.415,8.242-2.42,12.283-3.836.982-.342,1.941-.708,2.9-1.1.3-.114.16-.616-.137-.5-4.155,1.69-8.493,2.785-12.762,4.109a53.065,53.065,0,0,0-11.507,5,5.307,5.307,0,0,0-2.488,3.539,2.741,2.741,0,0,0,.274,1.8,4.243,4.243,0,0,0,1.941,1.507,31.425,31.425,0,0,0,11.666,3.036c2.055.205,4.132.3,6.187.411,1,.046,2.032.114,3.036.205,1.1.091,2.146.206,3.242.206,4.7-.046,9.429-.16,14.132-.342q14.212-.548,28.4-1.8,14.109-1.267,28.173-3.219c1.164-.16,2.329-.32,3.493-.5.342-.046.205-.525-.114-.479Z" transform="translate(-278.318 -663.427)"/></g><g transform="translate(0 121.42)"><path d="M202.9,739.218c1.347-1.164,2.694-2.374,4-3.584a45.674,45.674,0,0,0,3.63-3.653,16.17,16.17,0,0,0,1.393-1.895,19.307,19.307,0,0,0,1.05-2.192,13.866,13.866,0,0,1,1.119-2.26,10.955,10.955,0,0,1,1.53-1.872,27.5,27.5,0,0,1,4.338-3.63c.228-.16.023-.525-.228-.365a29.287,29.287,0,0,0-3.927,3.2,13.074,13.074,0,0,0-2.831,3.836c-.365.776-.662,1.6-1.05,2.374a12.131,12.131,0,0,1-1.324,2.055,37.715,37.715,0,0,1-3.493,3.653c-1.461,1.393-2.968,2.762-4.52,4.087-.205.137.114.434.32.251Z" transform="translate(-202.51 -719.727)"/></g><g transform="translate(44.999 7.457)"><path d="M400.09,224.695a8.033,8.033,0,0,1,4.566-3.63.261.261,0,0,0-.137-.5,8.647,8.647,0,0,0-4.863,3.881c-.183.274.274.525.434.251Z" transform="translate(-399.614 -220.552)"/></g><g transform="translate(44.988)"><path d="M412.61,217.252a19.082,19.082,0,0,0,4.817-4.566c1.233-1.689,2.6-3.881,2.032-6.073a3.417,3.417,0,0,0-.708-1.37,3.936,3.936,0,0,0-1.119-.822c-.046.137-.068.251-.114.388a2.914,2.914,0,0,0,3.173-2.374,2.787,2.787,0,0,0-.434-2.078,2.609,2.609,0,0,0-.913-.662,3.22,3.22,0,0,0-1.1-.342l.206.274c.365-1.073.776-2.146,1.073-3.242a2.786,2.786,0,0,0-.365-2.6,1.6,1.6,0,0,0-2.032-.434c-.662.365-1.1,1.1-1.849,1.279l.274.205a9.857,9.857,0,0,0-.457-4.68c-.274-.639-.776-1.507-1.507-1.667a1.338,1.338,0,0,0-1.438.936,8.335,8.335,0,0,0-.411,1.279c-.16.571-.32,1.164-.5,1.735.137-.023.251-.023.388-.046a10.527,10.527,0,0,0-3.676-4.064c-.708-.365-1.781-.753-2.4-.023a1.988,1.988,0,0,0-.068,1.986c.388.913,1.6,1.781,1.256,2.877.137-.023.251-.023.388-.046-1.05-2.123-2.511-4.657-5.205-4.68a2.126,2.126,0,0,0-2.352,1.781,4.818,4.818,0,0,0,1.3,3.1A9.348,9.348,0,0,0,404,195.86c.251.114.457-.251.205-.365a8.746,8.746,0,0,1-2.557-1.918,6.3,6.3,0,0,1-1.6-2.671,1.647,1.647,0,0,1,.274-1.484,2.033,2.033,0,0,1,1.461-.571,4.116,4.116,0,0,1,2.945,1.279,10.877,10.877,0,0,1,2.032,3.2.218.218,0,0,0,.388-.046c.5-1.667-1.712-2.6-1.484-4.246.16-1.027,1.324-.685,1.986-.365a6.15,6.15,0,0,1,1.941,1.575,17.071,17.071,0,0,1,1.667,2.374.212.212,0,0,0,.388-.046c.16-.548.32-1.1.457-1.644a8.444,8.444,0,0,1,.434-1.347c.16-.3.388-.662.753-.685.479-.046.868.479,1.1.845.982,1.484.868,3.4.753,5.114a.225.225,0,0,0,.274.205,4.306,4.306,0,0,0,1.575-1.073,1.441,1.441,0,0,1,.89-.388,1.373,1.373,0,0,1,1,.525,2.7,2.7,0,0,1,.137,2.6c-.3.959-.639,1.895-.959,2.831a.222.222,0,0,0,.206.274,3.094,3.094,0,0,1,.982.32,1.968,1.968,0,0,1,.776.594,2.381,2.381,0,0,1,.274,1.8,2.537,2.537,0,0,1-2.717,1.895c-.206-.023-.274.3-.114.388a3.778,3.778,0,0,1,.936.639,3.11,3.11,0,0,1,.685,1.187,4.581,4.581,0,0,1-.251,2.968,13.558,13.558,0,0,1-1.575,2.74,20.246,20.246,0,0,1-2.032,2.374,18.019,18.019,0,0,1-2.74,2.192c-.32.114-.114.479.114.32Z" transform="translate(-399.566 -187.89)"/></g><g transform="translate(46.688 25.985)"><path d="M407.26,303.464a8.779,8.779,0,0,0,3.9-1.278c.274-.183.023-.616-.251-.434a8.253,8.253,0,0,1-3.653,1.21c-.32.023-.342.525,0,.5Z" transform="translate(-407.012 -301.707)"/></g></g></g></g></g></svg>