<svg xmlns="http://www.w3.org/2000/svg" width="144" height="144" viewBox="0 0 144 144"><g transform="translate(9533 -8379)"><circle cx="72" cy="72" r="72" transform="translate(-9533 8379)" fill="#fff" opacity="0"/><path d="M20.213-46.792c11.4,9.528,22.569,21.086,25.147,35.143,2.5,14.135-3.592,30.691-14.994,39.282-11.4,8.512-27.958,9.059-41.39,5.857s-23.741-10-33.425-18.587c-9.684-8.512-18.9-18.821-20.3-30.457-1.406-11.714,4.92-24.756,14.6-34.284,9.762-9.528,22.8-15.463,35.143-14.682S8.889-56.241,20.213-46.792Z" transform="translate(-9451.05 8465.588)" fill="#ebf9f4"/><g transform="translate(-9513 8381)"><g transform="translate(0 0)"><path d="M270.9,187.28a15.381,15.381,0,0,1-5.1-.659,13.035,13.035,0,0,1-2.359-1.041c-.425-.234-.829-.468-1.211-.723a10.544,10.544,0,0,0-1.233-.744,4.342,4.342,0,0,0-3.018.064c-1.084.255-2.168.51-3.273.7a45.373,45.373,0,0,1-6.567.765c-1.658.064-3.294.276-4.952.234a6.639,6.639,0,0,1-4.4-1.381,7.236,7.236,0,0,1-2-3.868,18.783,18.783,0,0,1-.319-4.506c.021-.7.064-1.381.085-2.083.021-.765.021-1.551.085-2.317a6.575,6.575,0,0,1,.51-2.21,3.09,3.09,0,0,1,1.743-1.573,11.824,11.824,0,0,1,2.72-.51c1-.128,2.019-.234,3.018-.34,2.083-.234,4.144-.4,6.227-.51a53.46,53.46,0,0,1,6.121,0,10.051,10.051,0,0,1,4.378,1.041c2.21,1.275,2.869,3.8,2.954,6.185.021.744,0,1.466-.042,2.21a17.049,17.049,0,0,0-.064,2.55,7.21,7.21,0,0,0,1.466,3.719c.659.893,1.36,1.764,2.083,2.614a16.827,16.827,0,0,0,2.338,2.423,1.394,1.394,0,0,0,.829.4c.276.043.276-.446-.021-.446h-.021c-.021,0-.064-.021-.085-.021l-.17-.085a3.528,3.528,0,0,1-.446-.34,12.14,12.14,0,0,1-1.169-1.169c-.85-.914-1.636-1.892-2.4-2.869a8.713,8.713,0,0,1-1.722-3.018c-.468-1.615-.106-3.337-.085-4.994.021-2.444-.319-5.228-2.3-6.907a7.25,7.25,0,0,0-3.656-1.573,32.526,32.526,0,0,0-5.93-.276c-2.125.043-4.251.191-6.355.383-2.019.191-4.038.4-6.057.68a6.173,6.173,0,0,0-2.593.808,3.5,3.5,0,0,0-1.36,1.764,13.994,13.994,0,0,0-.51,4.612c-.085,2.954-.319,6.121,1.084,8.863a5.588,5.588,0,0,0,3.252,2.848,13.392,13.392,0,0,0,5.037.361c1.892-.106,3.8-.191,5.717-.4a53.454,53.454,0,0,0,6.588-1.169c.553-.128,1.084-.3,1.658-.383a2.447,2.447,0,0,1,1.594.276c.85.468,1.615,1.041,2.487,1.488a14.084,14.084,0,0,0,4.8,1.509,22.591,22.591,0,0,0,2.678.128C271.2,187.748,271.2,187.28,270.9,187.28Z" transform="translate(-235.976 -166.007)"/></g><g transform="translate(7.008 7.415)"><path d="M280.777,200.9c-3.868.213-7.736.446-11.6.659-.3.021-.3.489,0,.468,3.868-.213,7.736-.446,11.6-.659.3-.021.3-.489,0-.468Z" transform="translate(-268.95 -200.897)"/></g><g transform="translate(6.992 10.24)"><path d="M269.114,215.061c2.274-.085,4.569-.106,6.822-.4.3-.042.3-.51,0-.468a66.394,66.394,0,0,1-6.822.4.234.234,0,1,0,0,.468Z" transform="translate(-268.875 -214.187)"/></g><path d="M657.746,666.823a2.129,2.129,0,0,0-.276-.723c-.17.021-.616.021-.531.021-.213.021-.425.064-.638.106a83.34,83.34,0,0,0-7.077,4.846,1.45,1.45,0,0,1-.553.255c-.021.021-.064.021-.085.042a1.917,1.917,0,0,1-.85.191h-.149a.192.192,0,0,1-.106-.021c-.149-.021-.3-.042-.425-.064-.021,0-.064-.021-.085-.021-.085.064-.17.149-.255.213l-.51.383a3.194,3.194,0,0,1-.319.489,10.512,10.512,0,0,1-5.887,3.7c.191.531.4,1.063.574,1.615a16.552,16.552,0,0,0,.893,2.423,6.869,6.869,0,0,0,1.7,2.359c.021.042.064.064.085.106a2.08,2.08,0,0,0,.871.893c.213.213.425.425.638.616a.708.708,0,0,0,.85.106c1.381-.914,2.763-1.849,4.144-2.784a.759.759,0,0,0,.149-1.169c-.085-.106-.149-.191-.234-.3a37.847,37.847,0,0,0,3.252-3.145,22.591,22.591,0,0,0,3.294-4.548c.3-.574.616-1.19.893-1.849A6.53,6.53,0,0,0,657.746,666.823Z" transform="translate(-554.132 -559.815)"/><path d="M569.934,747.46a39.264,39.264,0,0,1-6.312-2.657,5.958,5.958,0,0,1-3.379-2.657l-.383.191a11.713,11.713,0,0,1-2.784.978,4.522,4.522,0,0,1-4.484-1.615,10.654,10.654,0,0,0-.191,2.019,7.931,7.931,0,0,0,.128,1.743c0,.064.021.149.021.212a3.947,3.947,0,0,0-.043,1.126,4.792,4.792,0,0,0,.34,1.636v.042a1.619,1.619,0,0,0,.659,1.275,3.014,3.014,0,0,0,.85.361c1.02.3,3.082.935,3.974.149a1.4,1.4,0,0,0,.361-.489c.765.106,1.551.17,2.3.212,1.509.128,3.039.149,4.548.149l.553-.064a17.329,17.329,0,0,0,2.55-.68,7.255,7.255,0,0,0,1.254-1.041A1.6,1.6,0,0,0,569.934,747.46Z" transform="translate(-485.15 -619.348)"/><path d="M317.612,531.5l-.021.34A.389.389,0,0,1,317.612,531.5Z" transform="translate(-300.221 -453.822)" fill="#68cec1"/><path d="M375.525,373.265a20.825,20.825,0,0,1-3.783-2.635h0c-2.933-2.975-3.379-8.99-3.826-11.689a15.8,15.8,0,0,0-1.785-5.292c-.021-.021-.043-.064-.064-.085-2.019-2.4-5.441-2.189-8.437-2.019-.383.064-.765.149-1.126.213a5.041,5.041,0,0,0-.893-1.615.954.954,0,0,0-.021-.234.841.841,0,0,0-1.041-.574,1.481,1.481,0,0,0-.935.914,1.67,1.67,0,0,0-.17.808h0a2.517,2.517,0,0,1,.191,1.041c0,.276-.043.553-.021.829.021.553.17,1.148-.276,1.594a.548.548,0,0,1-.616.085,5.783,5.783,0,0,1-1.275-1.318,4.131,4.131,0,0,1-.489-.7l-.191-.383c-1.02-.446-1.913-1.126-2.933-1.615-.106-.043-.213-.085-.34-.128a22.422,22.422,0,0,1-2.529-1.02c-.7,1.233-1.977,3.018-3.549,3.082-.871.043-2.062-.085-3.316-.085,0,0-6.057-.914-13.644,9.351a38.958,38.958,0,0,0-7.247,26.226l-.021.34a.463.463,0,0,0,.106.17.446.446,0,0,0,.51.085,1.357,1.357,0,0,0,.446-.4.938.938,0,0,0,.34-.128,4.832,4.832,0,0,1,3.634-.893.79.79,0,0,0,1-.765c0-.4-.021-.829-.021-1.233a.715.715,0,0,0-.361-.638c.128-.638.383-1.318.468-1.743q.128-.7.191-1.4a5.465,5.465,0,0,0,.6-1.551,2.326,2.326,0,0,0,.361-1.488,3.994,3.994,0,0,0-.149-2.4c.106-.468.191-.935.3-1.424a13.653,13.653,0,0,1,.68-4.782v-.128a.3.3,0,0,0,.064-.085.4.4,0,0,0,.042-.17.3.3,0,0,1,.213-.213.375.375,0,0,1,.085-.106c.574-.51,1.126-1.084,1.721-1.573a11.827,11.827,0,0,1,2.529-1.148v.021a10.966,10.966,0,0,1,2.359-.6,26.717,26.717,0,0,1,3.677-.446.409.409,0,0,1,.34.6,18.746,18.746,0,0,0-1.254,3.188c-.616,1.955-1.318,3.868-1.934,5.845-.149.51-.3,1-.446,1.509a9.24,9.24,0,0,0-.383,1.509c-.042.276-.064.574-.085.85a3.388,3.388,0,0,0,.319-.616l.021-.021a19.853,19.853,0,0,0-.553,3.209c-.043.51-.128,1.105-.17,1.7a9.247,9.247,0,0,0-.255,3.06,9.737,9.737,0,0,0,.021,3.762c.021.042.021.106.043.149a10.384,10.384,0,0,0,.064,1.148c0,.085-.021.149-.021.234.043.021.064.021.106.043a15.647,15.647,0,0,0,7.12,1.041c.276,0,.553-.021.829-.043a2.7,2.7,0,0,1,1.084-.34c.786-.106,1.573-.17,2.359-.234a32.3,32.3,0,0,0,7.927-2.189,21.909,21.909,0,0,0,4.463-2.614c.659-.489,1.254-1.02,1.892-1.488a18.518,18.518,0,0,1-.106-10.414c.531-2.21,1.275-4.378,2.019-6.525a5.071,5.071,0,0,1,.786-1.636c.68-.85,2.38-1.19,2.912.021.553,1.254.638,2.614,1.084,3.868a10.656,10.656,0,0,0,2.019,3.273,53.73,53.73,0,0,0,4.357,3.889c.34.3.871.574,1.126.064.574-1.19,1.126-2.4,1.7-3.592.383-.149.786-.319,1.169-.468a.645.645,0,0,0,.361-.3.343.343,0,0,0,.191-.064.758.758,0,0,1,.191.085c.021,0,.042.021.064.021C375.631,373.966,375.844,373.435,375.525,373.265Z" transform="translate(-299.838 -310.336)" fill="#5acea8"/><path d="M452.811,215.3a2.155,2.155,0,0,0-.4-1.381,7.8,7.8,0,0,0-1.892-2.975,11.825,11.825,0,0,0-4.548-2.72,12.718,12.718,0,0,0-10.457,1.126,12.875,12.875,0,0,0-3.571,3.124,8.691,8.691,0,0,0-1.36,1.7,12.293,12.293,0,0,0-2.04,4.251,11.093,11.093,0,0,0-.7,3.549.362.362,0,0,0,.021.149,15.108,15.108,0,0,0,1.063,8.267,9.793,9.793,0,0,0,.723,1.4,3.129,3.129,0,0,0,.51.893,2.449,2.449,0,0,0,.808.659,1.151,1.151,0,0,0,1.169,0,1.274,1.274,0,0,0,.531-.893,1.878,1.878,0,0,0-.042-.6,1.317,1.317,0,0,0-.149-.4c.064-.765.128-1.53.213-2.3.064-.6.128-1.19.17-1.785a3.205,3.205,0,0,0-.021-.638h0a8.99,8.99,0,0,1-1.806-2.444,1.182,1.182,0,0,1-.191-.361c-.021-.064-.043-.149-.064-.213.085-.34.149-.68.234-1.041a2.73,2.73,0,0,1,1.466-1.3,2.142,2.142,0,0,1,.808-.128,11.708,11.708,0,0,1,1.211.128,3.675,3.675,0,0,0,2.38-.319c1.169-.638,1.679-1.955,2.3-3.039a5.076,5.076,0,0,1,2.593-2.3,6.006,6.006,0,0,1,1.807-.4,1.61,1.61,0,0,0,.319-.021c.574.085,1.126.191,1.7.276a.362.362,0,0,0,.213,0c.51.255,1,.531,1.509.786a3.628,3.628,0,0,0,1.573.638,3.358,3.358,0,0,0,2.253.468h0a.716.716,0,0,0,.808-.34l.021-.021A1.772,1.772,0,0,0,452.811,215.3Z" transform="translate(-386.943 -198.747)"/><g transform="translate(57.038 56.397)"><path d="M507.527,431.715a3.86,3.86,0,0,1,.553,1.594,5.81,5.81,0,0,1,.106,1.063c.021.361.043.7.064,1.063.106,1.445.213,2.89.276,4.336.064,1.424.106,2.848.064,4.272a5.027,5.027,0,0,1-.213,1.785,2.434,2.434,0,0,1-.808,1.041,5.79,5.79,0,0,1-3,.935c-.3.021-.3.51,0,.468,1.934-.17,4.229-.893,4.442-3.145a36.426,36.426,0,0,0,0-4.569c-.064-1.573-.17-3.145-.276-4.7-.021-.4-.064-.808-.085-1.211-.021-.425-.021-.85-.085-1.275a4.436,4.436,0,0,0-.638-1.934c-.191-.191-.6.043-.4.276Z" transform="translate(-504.35 -431.368)"/></g><g transform="translate(31.318 54.345)"><path d="M388.641,421.838a60.188,60.188,0,0,0-4.442,13.985,47.65,47.65,0,0,0-.531,14.537,15.149,15.149,0,0,0,1.658,5.866,7.237,7.237,0,0,0,2.019,2.232,14.391,14.391,0,0,0,3,1.573c4.336,1.721,9.16,1.87,13.772,1.743a98.713,98.713,0,0,0,16.386-2.062c.68-.128,1.339-.276,2.019-.4.3-.064.17-.531-.128-.468A111.372,111.372,0,0,1,406.26,461.2a61.94,61.94,0,0,1-7.162.043,31.02,31.02,0,0,1-6.844-1.063,17.94,17.94,0,0,1-3.124-1.211,8.248,8.248,0,0,1-2.572-1.87,10.861,10.861,0,0,1-2.21-5.483,45,45,0,0,1,.043-14.027,59.538,59.538,0,0,1,3.974-14.006c.212-.51.446-1.02.68-1.53.128-.255-.276-.489-.4-.213Z" transform="translate(-383.335 -421.714)"/></g><g transform="translate(79.106 101.181)"><path d="M608.209,642.449a7.926,7.926,0,0,1,.4,2.912,22.456,22.456,0,0,0,.616,3.337c.468,2.062.807,4.144,1.339,6.185a19.942,19.942,0,0,0,1.148,3.337.232.232,0,0,0,.276.106,20.741,20.741,0,0,0,5.717-1.87,10.347,10.347,0,0,0,4.1-3.486c.17-.255-.255-.489-.4-.234a9.962,9.962,0,0,1-4.017,3.358,20.251,20.251,0,0,1-5.526,1.785c.085.042.17.064.276.106a29.241,29.241,0,0,1-1.764-6.163c-.213-1.02-.4-2.062-.638-3.082a25.292,25.292,0,0,1-.638-3.358c-.042-.553-.021-1.084-.064-1.636a3.928,3.928,0,0,0-.425-1.552c-.128-.255-.531-.021-.4.255Z" transform="translate(-608.184 -642.084)"/></g><g transform="translate(24.4 54.966)"><path d="M363.07,424.648a19.671,19.671,0,0,0-6.929.956,9.625,9.625,0,0,0-3.039,1.573,5.375,5.375,0,0,0-1.679,2.38,11.266,11.266,0,0,0-.6,3.252,27.5,27.5,0,0,0,.043,3.741c.149,2.232.51,4.442.786,6.652.17,1.339.553,2.742,1.934,3.294a4.79,4.79,0,0,0,3.656-.4,6.736,6.736,0,0,0,.871-.446c.276-.149.021-.574-.234-.4a5.781,5.781,0,0,1-3.571.956,2.284,2.284,0,0,1-1.445-.786,3.789,3.789,0,0,1-.7-2.019c-.276-2.1-.6-4.187-.765-6.312a20.048,20.048,0,0,1,.276-6.758,5.172,5.172,0,0,1,1.275-2.4,7.449,7.449,0,0,1,2.72-1.658,19.068,19.068,0,0,1,7.4-1.148c.319.021.319-.446,0-.468Z" transform="translate(-350.782 -424.634)"/></g><g transform="translate(29.006 86.921)"><path d="M376.461,574.99a5.645,5.645,0,0,0-3.252,1.3,2.3,2.3,0,0,0-.659,2.338,5.2,5.2,0,0,0,2.317,2.635,16.782,16.782,0,0,0,4.336,1.891c1.551.468,3.124.808,4.718,1.126a43.321,43.321,0,0,0,4.952.68,42.3,42.3,0,0,0,9.968-.34,39.022,39.022,0,0,0,4.909-1.105,14.983,14.983,0,0,0,4.293-1.807,8.756,8.756,0,0,0,.85-.7c.213-.213-.127-.553-.34-.34a9.487,9.487,0,0,1-3.847,2.04,33.916,33.916,0,0,1-4.591,1.211,40.546,40.546,0,0,1-9.479.68,49.8,49.8,0,0,1-9.2-1.339,24.362,24.362,0,0,1-4.378-1.381,9.3,9.3,0,0,1-3.443-2.317,2.1,2.1,0,0,1-.34-2.572,4.485,4.485,0,0,1,3.209-1.488c.276-.064.276-.553-.021-.51Z" transform="translate(-372.456 -574.988)"/></g><g transform="translate(34.137 94.5)"><path d="M397.575,610.873q0,8.576-.17,17.13c-.106,5.781-.255,11.583-.446,17.364-.106,3.167-.234,6.312-.361,9.479-.021.3.468.3.468,0,.255-5.717.446-11.413.6-17.13.149-5.781.276-11.583.34-17.364.043-3.167.064-6.333.064-9.479-.021-.3-.489-.3-.489,0Z" transform="translate(-396.597 -610.65)"/></g><g transform="translate(63.126 93.985)"><path d="M533,608.452q.765,8.321,1.36,16.684.606,8.416,1.02,16.832c.149,3.124.3,6.227.425,9.351.021.3.489.319.468,0q-.319-8.384-.829-16.747-.51-8.416-1.169-16.811c-.255-3.1-.51-6.206-.808-9.288-.021-.319-.489-.34-.468-.021Z" transform="translate(-532.997 -608.224)"/></g><g transform="translate(38.983 95.244)"><path d="M420.633,615.117c-.149,4.846-.3,9.713-.468,14.558q-.255,7.715-.51,15.408l-.255,8.225a.282.282,0,0,0,.17.234,32.174,32.174,0,0,0,17.916,1.211,30.471,30.471,0,0,0,4.909-1.509c.085-.042.191-.128.17-.234-.234-5.058-.51-10.138-.829-15.2s-.68-10.1-1.084-15.132c-.234-2.763-.468-5.526-.723-8.31-.021-.3-.51-.3-.468,0,.446,4.973.871,9.946,1.233,14.92.361,5.058.7,10.138.978,15.217.149,2.827.3,5.675.425,8.5a1.622,1.622,0,0,0,.17-.234,31.76,31.76,0,0,1-17.725,1.658,32.439,32.439,0,0,1-4.867-1.36,1.628,1.628,0,0,1,.17.234c.149-4.994.319-9.968.489-14.962q.255-7.651.489-15.3c.085-2.635.17-5.292.255-7.927.043-.319-.446-.319-.446,0Z" transform="translate(-419.4 -614.15)"/></g><g transform="translate(38.659 138.02)"><path d="M418.006,815.86a28.526,28.526,0,0,0,9.054,2.38,28.982,28.982,0,0,0,9.373-.659,27.624,27.624,0,0,0,5.037-1.722c.276-.128.043-.531-.234-.4a27.568,27.568,0,0,1-8.905,2.317,28.276,28.276,0,0,1-9.16-.659,26.981,26.981,0,0,1-4.931-1.679c-.276-.106-.531.3-.234.425Z" transform="translate(-417.873 -815.417)"/></g><g transform="translate(51.054 96.838)"><path d="M476.2,621.873c.276,3.719.553,7.438.829,11.179q.446,6.057.914,12.135c.149,1.977.3,3.953.446,5.951.021.3.51.3.468,0-.276-3.719-.553-7.439-.829-11.179q-.446-6.057-.914-12.136c-.149-1.976-.3-3.953-.446-5.951,0-.3-.489-.3-.468,0Z" transform="translate(-476.197 -621.65)"/></g><g transform="translate(56.176 96.243)"><path d="M500.3,619.073c.276,3.719.553,7.439.829,11.179q.446,6.057.914,12.135c.149,1.977.3,3.953.446,5.951.021.3.51.3.467,0-.276-3.719-.553-7.439-.829-11.179q-.446-6.057-.914-12.136c-.149-1.977-.3-3.953-.446-5.951-.021-.3-.489-.3-.468,0Z" transform="translate(-500.297 -618.85)"/></g><g transform="translate(23.102 68.604)"><path d="M345.893,488.973a21,21,0,0,0-1.084,9.373c.042.3.51.3.468,0a21,21,0,0,1,1.063-9.245c.128-.3-.34-.425-.446-.128Z" transform="translate(-344.676 -488.803)"/></g><g transform="translate(20.95 77.897)"><path d="M334.773,533.056a3.959,3.959,0,0,1,2.614.319,3.359,3.359,0,0,1,1.254,1.615,6.1,6.1,0,0,1,.489,2.04c.021.3.128.893-.276.956a1.669,1.669,0,0,1-1.084-.361,4.4,4.4,0,0,1-1.041-2.083c-.106-.3-.574-.17-.468.128a5.379,5.379,0,0,0,1.105,2.232c.51.489,1.977,1.02,2.21-.021a4.147,4.147,0,0,0-.021-1.254,8.237,8.237,0,0,0-.276-1.254,4.693,4.693,0,0,0-1.3-2.125,3.99,3.99,0,0,0-3.209-.659c-.3.021-.3.51,0,.468Z" transform="translate(-334.55 -532.531)"/></g><g transform="translate(16.136 77.561)"><path d="M313.919,530.98c-1.977,1.19-2.21,3.634-1.913,5.7.085.616.213,1.211.3,1.828a7.918,7.918,0,0,0,.4,1.7,2.628,2.628,0,0,0,.744,1.148.678.678,0,0,0,.935-.149c.489-.6.3-1.53.319-2.232a.234.234,0,0,0-.468,0,5.69,5.69,0,0,1-.106,1.7c-.085.234-.234.446-.468.234a2.546,2.546,0,0,1-.574-1.02,8.448,8.448,0,0,1-.361-1.615c-.064-.531-.17-1.063-.255-1.594a7.663,7.663,0,0,1,0-2.784,3.643,3.643,0,0,1,1.679-2.508c.276-.149.021-.553-.234-.4Z" transform="translate(-311.9 -530.948)"/></g><g transform="translate(18.106 83.321)"><path d="M321.177,558.571c.234,1.148.468,2.3.723,3.443a4.923,4.923,0,0,0,.553,1.743.79.79,0,0,0,1.318.149,2.754,2.754,0,0,0,.531-2.3c-.128-1.126-.51-2.21-.638-3.337-.043-.3-.51-.3-.468,0,.106.893.319,1.743.51,2.614a4.062,4.062,0,0,1,.021,2.253c-.085.213-.319.616-.574.616-.17,0-.276-.234-.34-.34a5.646,5.646,0,0,1-.446-1.551c-.234-1.126-.468-2.274-.7-3.4a.25.25,0,0,0-.489.106Z" transform="translate(-321.171 -558.05)"/></g><g transform="translate(20.551 82.769)"><path d="M332.678,558.712a5.974,5.974,0,0,0,1.063,2.572,1.18,1.18,0,0,0,.871.574,1.09,1.09,0,0,0,.871-.7,3.613,3.613,0,0,0-.191-2.657,16.22,16.22,0,0,1-.723-2.827c-.043-.3-.51-.3-.468,0a13.607,13.607,0,0,0,.531,2.274,7.779,7.779,0,0,1,.574,2.274,1.287,1.287,0,0,1-.425,1.084c-.34.213-.659-.319-.808-.553a6.234,6.234,0,0,1-.808-2.168.254.254,0,0,0-.489.128Z" transform="translate(-332.672 -555.45)"/></g><g transform="translate(22.842 81.45)"><path d="M343.462,549.533c.4,1.4,1.3,2.635,1.658,4.059.064.276.255.956-.234.935a1.52,1.52,0,0,1-1.02-.616c-.191-.234-.531.106-.34.34.383.489,1.4,1.148,1.955.531.34-.383.191-.978.064-1.4a10.343,10.343,0,0,0-.723-1.807,13.246,13.246,0,0,1-.893-2.125.238.238,0,1,0-.468.085Z" transform="translate(-343.452 -549.245)"/></g><g transform="translate(17.321 76.462)"><path d="M317.883,527.781a6.426,6.426,0,0,1,5.568-1.36.243.243,0,0,0,.128-.468,6.922,6.922,0,0,0-6.015,1.466.241.241,0,1,0,.319.361Z" transform="translate(-317.473 -525.778)"/></g><g transform="translate(57.42 74.575)"><path d="M517.3,516.9c-3.634.021-7.29.085-10.924.319-.3.021-.3.489,0,.468,3.634-.234,7.29-.3,10.924-.319.319.021.319-.468,0-.468Z" transform="translate(-506.15 -516.9)"/></g><g transform="translate(75.603 75.537)"><path d="M595.762,547.6a70.8,70.8,0,0,0,2-12.986c.17-3.443.213-7.1-1.785-10.074a7.763,7.763,0,0,0-3.974-3.1c-.3-.106-.425.361-.128.468,2.933,1,4.633,3.783,5.228,6.716a23.849,23.849,0,0,1,.213,5.5,57.561,57.561,0,0,1-.616,6.333c-.361,2.38-.829,4.718-1.4,7.056-.064.255.383.383.468.085Z" transform="translate(-591.703 -521.427)"/></g><g transform="translate(67.078 80.417)"><path d="M552.147,544.858a3.077,3.077,0,0,1,2.444,1.445,3.183,3.183,0,0,1,.3,1.53c0,.765,0,1.509-.021,2.274-.043,3-.149,6.015-.3,9.011-.319,6.036-.871,12.05-1.573,18.065-.34,2.954-.68,5.908-1.105,8.841a18.342,18.342,0,0,0-.255,4.314,3.313,3.313,0,0,0,1.424,2.784,1.83,1.83,0,0,0,.638.191c.382.042.744.128,1.105.191.723.127,1.466.276,2.189.4,1.4.255,2.827.51,4.251.659a27.081,27.081,0,0,0,4.357.191l1.02-.064a6.538,6.538,0,0,0,1.126-.128,2.669,2.669,0,0,0,1.339-.914,1.616,1.616,0,0,0-.744-2.4,6.056,6.056,0,0,0-1.36-.468c-.51-.149-1.041-.3-1.551-.468a10.247,10.247,0,0,1-5.292-3.507,5.713,5.713,0,0,1-.723-1.381c-.106-.276-.574-.17-.467.127a8.222,8.222,0,0,0,4.208,4.336,16.74,16.74,0,0,0,3.018,1.169c.85.255,2.083.361,2.593,1.211a1.027,1.027,0,0,1-.34,1.36,2.319,2.319,0,0,1-.7.4,3.853,3.853,0,0,1-1.105.149,23.892,23.892,0,0,1-4.272-.021c-1.424-.128-2.848-.34-4.272-.6-.7-.127-1.424-.255-2.125-.383s-1.4-.319-2.1-.383a1.586,1.586,0,0,1-1.211-.744,3.722,3.722,0,0,1-.531-1.636,17.147,17.147,0,0,1,.234-4.293c.425-2.89.765-5.8,1.105-8.714.68-5.908,1.233-11.817,1.573-17.746.17-2.954.276-5.887.319-8.841.021-.744.021-1.466.021-2.21a7.539,7.539,0,0,0-.085-1.828,3.007,3.007,0,0,0-1.7-2.019,4.712,4.712,0,0,0-1.424-.383c-.319-.043-.319.446,0,.468Z" transform="translate(-551.593 -544.388)"/></g><g transform="translate(81.367 84.194)"><path d="M618.842,562.463a7.11,7.11,0,0,0,.6,1.126,5.21,5.21,0,0,1,.489,1.36c.276,1,.553,2,.85,3,.574,1.934,1.148,3.868,1.785,5.8,1.233,3.8,2.593,7.566,4.166,11.243.446,1.041.893,2.083,1.36,3.1a4.776,4.776,0,0,0,.6,1.126,2.542,2.542,0,0,0,1.063.68c.3.106.4-.361.127-.468a2,2,0,0,1-.893-.616,5.518,5.518,0,0,1-.531-1.063c-.4-.893-.808-1.807-1.19-2.72q-1.148-2.71-2.168-5.483c-1.36-3.677-2.572-7.417-3.677-11.179-.319-1.084-.638-2.189-.935-3.273a9.3,9.3,0,0,0-.468-1.488c-.213-.446-.531-.85-.7-1.318-.106-.255-.574-.128-.468.17Z" transform="translate(-618.827 -562.157)"/></g><path d="M317.146,534.36l.1-1.288.178-2.3.556,2.225.012.011.305.306-.346.259a1.054,1.054,0,0,0-.09.074Z" transform="translate(-300.252 -455.082)"/><g transform="translate(46.337 125.901)"><path d="M463.821,758.4a42.374,42.374,0,0,0-9.649,1.445.243.243,0,0,0,.128.468,40.135,40.135,0,0,1,9.521-1.424c.3-.021.3-.51,0-.489Z" transform="translate(-454.003 -758.397)"/></g><g transform="translate(58.199 24.16)"><path d="M510.767,279.922a.536.536,0,0,0-.361-.128.89.89,0,0,0-.319.085.556.556,0,0,0-.255.616.628.628,0,0,0,.489.425.649.649,0,0,0,.4-.043.541.541,0,0,0,.255-.234.683.683,0,0,0,.021-.723.217.217,0,0,0-.17-.106.26.26,0,0,0-.191.064,2.132,2.132,0,0,0-.4.468.246.246,0,0,0,.213.361h-.021c.021,0,.042.021.064.021-.021,0-.043-.021-.064-.021.064.021.128.064.191.085a.333.333,0,0,0,.34-.064.558.558,0,0,0,.149-.319.7.7,0,0,0-.021-.361.544.544,0,0,0-.213-.276.488.488,0,0,0-.3-.085.717.717,0,0,0-.531.191.473.473,0,0,0-.17.276.392.392,0,0,0,.106.361.866.866,0,0,0,.468.213c.043,0,.064.021.106.021a.578.578,0,0,0,.191,0,.389.389,0,0,0,.276-.319.521.521,0,0,0-.106-.425.443.443,0,0,0-.383-.149.718.718,0,0,0-.4.191.56.56,0,0,0-.128.446.407.407,0,0,0,.361.361.373.373,0,0,0,.361-.531.233.233,0,0,0-.4.234h0c0-.021-.021-.042-.021-.064v-.064c0-.021.021-.043.021-.064a.021.021,0,0,1-.021.021c.021-.042.043-.042.021-.042h0c-.021.021.064-.043.021-.021a.021.021,0,0,0-.021.021c.021,0,.043-.021.064-.021a.074.074,0,0,0-.043.021h.043c.021,0,.043.021.064.021l-.021-.021.021.021c-.021-.021.021.064.021.021a.021.021,0,0,0-.021-.021c0,.021.021.043.021.064,0-.021,0-.021-.021-.043v.064c0-.021.021-.064.021-.085,0,.021-.021.043-.021.064,0-.021.021-.043.021-.064l-.021.021.021-.021.021-.021c-.042.042-.042.021-.021.021a.078.078,0,0,1,.064-.021c-.021,0-.043.021-.064.021a.128.128,0,0,1,.085-.021h-.043a.078.078,0,0,1,.064.021c-.021,0-.043-.021-.064-.021.021,0,.021.021.043.021l-.021-.021.021.021h0c-.021-.043-.021-.021,0,0,0,.021.021.021.021.043,0-.021-.021-.043-.021-.064,0,.021.021.042.021.064v-.042a.078.078,0,0,1-.021.064c0-.021.021-.043.021-.064a.021.021,0,0,1-.021.021l.021-.021c-.021.021-.021,0,.021-.021l-.021.021c.021,0,.043-.021.064-.021h.064a1.773,1.773,0,0,1-.319-.085c.021,0,.043.021.064.021a.074.074,0,0,1-.043-.021c-.021,0-.064-.043-.021,0l-.021-.021c-.021-.021.043.064.021.021v-.021c0,.021.021.043.021.064v.064c0-.021,0-.043.021-.043,0,.021-.021.043-.021.064,0-.021.043-.042.043-.064l-.021.021a.021.021,0,0,1,.021-.021l.021-.021h.021c.021-.021-.042.021-.021.021l.021-.021c.021-.021.043-.021.064-.042-.021,0-.043.021-.064.021.043-.021.085-.021.128-.043h0c.043,0,.064.021.106.021-.021,0-.043-.021-.064-.021a.074.074,0,0,1,.042.021.021.021,0,0,1,.021.021c-.064-.043-.043-.043-.021-.021l.021.021c.021.021-.043-.064-.021-.021a.074.074,0,0,0,.021.042c0-.021-.021-.042-.021-.064a.127.127,0,0,1,.021.085v0a.622.622,0,0,1-.043.191c0-.021.021-.043.021-.064a.021.021,0,0,1-.021.021c-.021.043.043-.043.021-.021-.042.043.064-.043.021-.021.021,0,.043-.021.064-.021h.085c-.021,0-.043,0-.043-.021.021,0,.043.021.064.021-.106-.043-.213-.128-.34-.106a3.2,3.2,0,0,0,.213.361.464.464,0,0,1,.064-.106c.021-.021.021-.043.043-.064-.021.021-.021.043,0,.021l.021-.021.191-.191a2.347,2.347,0,0,0-.383-.042c0,.021.021.021.021.042,0-.021-.021-.042-.021-.064a.191.191,0,0,1,.021.106v0a.3.3,0,0,1-.042.127c0-.021.021-.042.021-.064,0,.021-.021.042-.043.064l-.021.021c.043-.064.021-.021,0-.021l-.021.021c-.021.021-.043.021.021-.021-.021.021-.043.021-.064.043.021,0,.043-.021.064-.021a.128.128,0,0,1-.085.021h.021c-.043,0-.064-.021-.106-.021.021,0,.043.021.064.021-.021,0-.043-.021-.064-.021s-.021-.021-.042-.021c.064.043.021.021.021,0l-.021-.021c-.043-.042.021.021,0,.021-.021-.021-.021-.042-.043-.064,0,.021.021.042.021.064a.128.128,0,0,1-.021-.085v.043a.078.078,0,0,1,.021-.064c0,.021-.021.043-.021.064,0-.021.021-.043.021-.064.021-.043-.043.043-.021.021l.021-.021.021-.021c-.064.064-.021.021-.021,0a.078.078,0,0,1,.064-.021c-.021,0-.043.021-.064.021a.159.159,0,0,1,.106-.021h-.043a.078.078,0,0,1,.064.021c-.021,0-.043-.021-.064-.021.021,0,.085.064.021,0a.259.259,0,0,0,.34,0c.021-.149.043-.319-.064-.4Z" transform="translate(-509.813 -279.685)"/></g><g transform="translate(61.939 23.884)"><path d="M528.367,278.622a.536.536,0,0,0-.361-.128.89.89,0,0,0-.319.085.557.557,0,0,0-.255.616.628.628,0,0,0,.489.425.65.65,0,0,0,.4-.042.541.541,0,0,0,.255-.234.682.682,0,0,0,.021-.723.217.217,0,0,0-.17-.106.26.26,0,0,0-.191.064,2.135,2.135,0,0,0-.4.468.246.246,0,0,0,.213.361h-.021c.021,0,.042.021.064.021-.021,0-.043-.021-.064-.021.064.021.128.064.191.085a.333.333,0,0,0,.34-.064.558.558,0,0,0,.149-.319.7.7,0,0,0-.021-.361.544.544,0,0,0-.213-.276.488.488,0,0,0-.3-.085.717.717,0,0,0-.531.191.472.472,0,0,0-.17.276.392.392,0,0,0,.106.361.866.866,0,0,0,.468.213c.043,0,.064.021.106.021a.578.578,0,0,0,.191,0,.389.389,0,0,0,.276-.319.521.521,0,0,0-.106-.425.443.443,0,0,0-.383-.149.718.718,0,0,0-.4.191.56.56,0,0,0-.128.446.407.407,0,0,0,.361.361.373.373,0,0,0,.361-.531.233.233,0,0,0-.4.234h0c0-.021-.021-.043-.021-.064v-.064c0-.021.021-.043.021-.064a.021.021,0,0,1-.021.021c.021-.043.043-.043.021-.043h0c-.021.021.064-.043.021-.021a.021.021,0,0,0-.021.021c.021,0,.042-.021.064-.021a.074.074,0,0,0-.043.021h.043c.021,0,.042.021.064.021l-.021-.021.021.021c-.021-.021.021.064.021.021a.021.021,0,0,0-.021-.021c0,.021.021.043.021.064,0-.021,0-.021-.021-.043v.064c0-.021.021-.064.021-.085,0,.021-.021.043-.021.064,0-.021.021-.042.021-.064l-.021.021.021-.021.021-.021c-.043.043-.043.021-.021.021a.078.078,0,0,1,.064-.021c-.021,0-.042.021-.064.021a.128.128,0,0,1,.085-.021h-.042a.078.078,0,0,1,.064.021c-.021,0-.043-.021-.064-.021.021,0,.021.021.042.021l-.021-.021.021.021h0c-.021-.042-.021-.021,0,0,0,.021.021.021.021.043,0-.021-.021-.043-.021-.064,0,.021.021.043.021.064v-.042a.078.078,0,0,1-.021.064c0-.021.021-.043.021-.064a.021.021,0,0,1-.021.021l.021-.021c-.021.021-.021,0,.021-.021l-.021.021c.021,0,.042-.021.064-.021h.064a1.768,1.768,0,0,1-.319-.085c.021,0,.042.021.064.021a.074.074,0,0,1-.042-.021c-.021,0-.064-.043-.021,0l-.021-.021c-.021-.021.043.064.021.021v-.021c0,.021.021.042.021.064v.064c0-.021,0-.042.021-.042,0,.021-.021.042-.021.064,0-.021.042-.043.042-.064l-.021.021a.021.021,0,0,1,.021-.021l.021-.021h.021c.021-.021-.043.021-.021.021l.021-.021c.021-.021.042-.021.064-.043-.021,0-.042.021-.064.021.042-.021.085-.021.128-.043h0c.042,0,.064.021.106.021-.021,0-.042-.021-.064-.021a.074.074,0,0,1,.043.021.021.021,0,0,1,.021.021c-.064-.043-.042-.043-.021-.021l.021.021c.021.021-.042-.064-.021-.021a.074.074,0,0,0,.021.043c0-.021-.021-.043-.021-.064a.128.128,0,0,1,.021.085v0a.621.621,0,0,1-.042.191c0-.021.021-.043.021-.064a.021.021,0,0,1-.021.021c-.021.043.042-.043.021-.021-.043.043.064-.043.021-.021.021,0,.042-.021.064-.021h.085c-.021,0-.043,0-.043-.021.021,0,.043.021.064.021-.106-.043-.212-.128-.34-.106a3.213,3.213,0,0,0,.213.361.468.468,0,0,1,.064-.106c.021-.021.021-.043.043-.064-.021.021-.021.043,0,.021l.021-.021.191-.191a2.343,2.343,0,0,0-.383-.043c0,.021.021.021.021.043,0-.021-.021-.043-.021-.064a.192.192,0,0,1,.021.106v0a.3.3,0,0,1-.042.128c0-.021.021-.043.021-.064,0,.021-.021.042-.042.064l-.021.021c.043-.064.021-.021,0-.021l-.021.021c-.021.021-.043.021.021-.021-.021.021-.042.021-.064.043.021,0,.043-.021.064-.021a.128.128,0,0,1-.085.021h.021c-.042,0-.064-.021-.106-.021.021,0,.043.021.064.021-.021,0-.043-.021-.064-.021s-.021-.021-.042-.021c.064.043.021.021.021,0l-.021-.021c-.043-.042.021.021,0,.021-.021-.021-.021-.043-.043-.064,0,.021.021.042.021.064a.128.128,0,0,1-.021-.085v.043a.078.078,0,0,1,.021-.064c0,.021-.021.043-.021.064,0-.021.021-.043.021-.064.021-.043-.042.043-.021.021l.021-.021.021-.021c-.064.064-.021.021-.021,0a.078.078,0,0,1,.064-.021c-.021,0-.042.021-.064.021a.159.159,0,0,1,.106-.021h-.043a.078.078,0,0,1,.064.021c-.021,0-.043-.021-.064-.021.021,0,.085.064.021,0a.259.259,0,0,0,.34,0c0-.149.021-.319-.064-.4Z" transform="translate(-527.414 -278.385)"/></g><g transform="translate(63.294 18.52)"><path d="M534.258,260.918c.276-2.508.319-5.037.4-7.545a.234.234,0,0,0-.468,0c-.085,2.529-.127,5.037-.4,7.545-.042.3.446.3.468,0Z" transform="translate(-533.788 -253.15)"/></g><g transform="translate(51.068 29.711)"><path d="M476.5,315.133a14.909,14.909,0,0,0,6.121-.659,9.1,9.1,0,0,0,1.381-.659,4.073,4.073,0,0,0,1.19-.978,24.4,24.4,0,0,0,1.849-3.018,14.59,14.59,0,0,0,1.3-3.719c.064-.3-.4-.425-.468-.128a16.616,16.616,0,0,1-2.72,6.1,3.287,3.287,0,0,1-.51.7,4.283,4.283,0,0,1-.616.468,7.1,7.1,0,0,1-1.318.7,10.275,10.275,0,0,1-2.869.68,22.138,22.138,0,0,1-3.358.043c-.3-.021-.3.446.021.468Z" transform="translate(-476.262 -305.803)"/></g><g transform="translate(44.928 23.344)"><path d="M448.4,275.878a1.808,1.808,0,0,0-1.02,1.764c.021.128.106.255.234.234a.223.223,0,0,0,.234-.234v-.3h0c0-.043.021-.064.021-.106.021-.064.043-.149.064-.213,0,0,.021-.064,0-.021,0-.021.021-.021.021-.043.021-.042.043-.064.064-.106a.294.294,0,0,1,.064-.085c0-.021.021-.021.043-.043.021-.043,0,0,0-.021.043-.064.106-.106.149-.17.021-.021.064-.043.085-.064s-.021.021.021,0l.042-.043a.665.665,0,0,1,.213-.106.226.226,0,0,0,.085-.319.211.211,0,0,0-.319-.128Z" transform="translate(-447.37 -275.844)"/></g><g transform="translate(54.984 30.188)"><path d="M501.789,309.548a4.725,4.725,0,0,1-3.677,1.084c-1.211-.17-2.848-.956-2.954-2.359-.021-.3-.51-.3-.468,0,.128,1.594,1.807,2.572,3.23,2.805a5.176,5.176,0,0,0,4.229-1.19c.213-.191-.128-.531-.361-.34Z" transform="translate(-494.688 -308.05)"/></g><g transform="translate(40.616 8.789)"><path d="M431.933,237.526a19.79,19.79,0,0,0,.425-2.954c.064-1-.021-2,.021-3.018.064-1.02.213-2.019.3-3.039a3.493,3.493,0,0,0-.361-2.274c-.361-.6-.893-1.063-1.275-1.636a2.62,2.62,0,0,1-.191-1.615,1.793,1.793,0,0,1,.914-1.424,3.7,3.7,0,0,1,2.253-.085,5.3,5.3,0,0,0,2.083.085,2.858,2.858,0,0,0,1.53-1.254c.765-1.041,1.275-2.232,2.083-3.252a4.589,4.589,0,0,1,1.4-1.233,4.261,4.261,0,0,1,2.232-.446,8.876,8.876,0,0,1,4.782,1.7,4.662,4.662,0,0,0,1.679.68,2.487,2.487,0,0,0,1.828-.234c1.36-.85,1.3-2.742.723-4.038a9.178,9.178,0,0,0-3.145-3.656,13.658,13.658,0,0,0-4.506-2.1,13.076,13.076,0,0,0-9.691,1.4,20,20,0,0,0-2.083,1.424,12.714,12.714,0,0,0-1.849,1.7,16.1,16.1,0,0,0-2.7,4.166,14.081,14.081,0,0,0-1.148,4.761c-.085,1.254-.17,2.529-.149,3.8.043,2.508.468,5.292,2.338,7.12A6.272,6.272,0,0,0,431,233.233c.276.149.51-.276.234-.4a6.088,6.088,0,0,1-2.614-2.614,10.04,10.04,0,0,1-.978-3.592,25.544,25.544,0,0,1-.042-3.826,19.96,19.96,0,0,1,.51-4.187,14.517,14.517,0,0,1,2.083-4.463,16.754,16.754,0,0,1,1.53-1.913c.276-.3.574-.6.871-.871a12.168,12.168,0,0,1,1.041-.786,14.745,14.745,0,0,1,4.314-2.274,13.521,13.521,0,0,1,4.973-.425,11.865,11.865,0,0,1,8.289,4.569,5.9,5.9,0,0,1,1,2.083,2.636,2.636,0,0,1-.446,2.21,1.8,1.8,0,0,1-1.721.531,4.359,4.359,0,0,1-1.615-.6,11.932,11.932,0,0,0-2.168-1.19,8.188,8.188,0,0,0-2.338-.574,4.861,4.861,0,0,0-3.932,1.126,13.487,13.487,0,0,0-2.1,3.018,9.375,9.375,0,0,1-1.126,1.594,2.127,2.127,0,0,1-1.913.468c-1.275-.17-2.89-.659-3.868.489a2.663,2.663,0,0,0-.6,1.573,2.906,2.906,0,0,0,.234,1.594c.34.574.85,1.02,1.233,1.573a2.052,2.052,0,0,1,.383.914,6.013,6.013,0,0,1-.043,1.381c-.085.956-.234,1.934-.276,2.89-.043.978.042,1.976-.021,2.954a18.916,18.916,0,0,1-.4,2.89c-.085.319.383.446.446.149Z" transform="translate(-427.084 -207.36)"/></g><g transform="translate(44.85 38.848)"><path d="M447.172,349.262a37.729,37.729,0,0,1,5.738,2.805c.255.149.51-.255.234-.4a40.124,40.124,0,0,0-5.845-2.848c-.3-.128-.425.319-.128.446Z" transform="translate(-447.003 -348.793)"/></g><g transform="translate(43.432 41.087)"><path d="M447.362,360.089c-.574,1.615-1.148,3.252-1.7,4.867.128-.043.276-.064.4-.106a39.1,39.1,0,0,1-5.335-5.441c-.191-.234-.531.106-.34.34a43.01,43.01,0,0,0,5.335,5.441.246.246,0,0,0,.4-.106c.574-1.615,1.148-3.252,1.7-4.867.106-.3-.361-.425-.468-.128Z" transform="translate(-440.334 -359.33)"/></g><g transform="translate(50.633 41.679)"><path d="M474.254,362.475c.638,1.063,1.275,2.125,1.891,3.188.149.255.574.021.4-.234-.638-1.063-1.275-2.125-1.891-3.188a.233.233,0,1,0-.4.234Z" transform="translate(-474.214 -362.117)"/></g><g transform="translate(53.506 40.05)"><path d="M488.426,358.86a19.691,19.691,0,0,1-.191-4.187c.021-.3-.468-.3-.468,0a19.53,19.53,0,0,0,.213,4.314c.021.3.489.17.446-.128Z" transform="translate(-487.731 -354.45)"/></g><g transform="translate(53.755 38.761)"><path d="M489.009,350.236c.616.446,1.254.893,1.87,1.339l.446.319a2.332,2.332,0,0,0,.3.191.369.369,0,0,0,.468-.128,1.234,1.234,0,0,0,0-.914,3.4,3.4,0,0,0-.255-.786,6.317,6.317,0,0,0-1.36-1.806c-.234-.213-.574.128-.34.34a6.2,6.2,0,0,1,1.105,1.36,3.442,3.442,0,0,0,.213.383h0c0,.021.021.042.021.064.043.106.064.213.106.34a3.4,3.4,0,0,1,.106.446.415.415,0,0,1,.021.149v.17c0-.021.021-.021,0,0l.042-.042c.043-.043.043-.021.085-.021.127-.042,0,.021.021,0h-.021a5.183,5.183,0,0,1-.7-.489c-.616-.446-1.254-.893-1.87-1.339a.249.249,0,0,0-.255.425Z" transform="translate(-488.903 -348.383)"/></g><g transform="translate(31.161 75.545)"><path d="M382.767,526.976a30.775,30.775,0,0,0,10.52.786,31.567,31.567,0,0,0,10.116-2.784,29.673,29.673,0,0,0,5.122-3.06c.234-.191,0-.6-.234-.4A30.031,30.031,0,0,1,399,526.169a30.846,30.846,0,0,1-10.329,1.254,29.657,29.657,0,0,1-5.8-.871c-.276-.128-.4.34-.106.425Z" transform="translate(-382.597 -521.464)"/></g><g transform="translate(65.482 59.497)"><path d="M544.513,467.96c1.658-3.8,3.294-7.609,5.016-11.37.425-.935.85-1.87,1.3-2.805.213-.468.446-.956.68-1.424.106-.234.234-.489.34-.723.085-.191.17-.51.361-.616a10.1,10.1,0,0,1,1.19-.531c.4-.191.829-.361,1.233-.531.893-.383,1.785-.744,2.678-1.126,1.913-.786,3.826-1.573,5.675-2.444.276-.128.043-.553-.234-.4-3.379,1.615-6.907,2.869-10.308,4.421a4.016,4.016,0,0,1-.531.234c-.234.106-.3.361-.4.6-.234.489-.468,1-.7,1.488-.446.935-.893,1.892-1.318,2.827-.85,1.849-1.679,3.7-2.487,5.568-.978,2.21-1.934,4.421-2.89,6.631-.128.255.276.489.4.213Z" transform="translate(-544.084 -445.953)"/></g><g transform="translate(50.803 73.496)"><path d="M500.9,511.943c-.4.765-.786,1.509-1.169,2.274-.213.4-.4.808-.616,1.211a1.025,1.025,0,0,1-.468.319c-.191.106-.4.191-.6.276-1.637.786-3.315,1.488-4.994,2.189-.829.34-1.658.659-2.487.978-.191.064-.361.149-.553.213a1.947,1.947,0,0,1-.7.021l-1.381-.064c-1.934-.085-3.847-.128-5.781-.191-2.3-.064-4.612-.149-6.907-.255l.128.446c3.167-1.509,6.333-3.018,9.479-4.569.871-.425,1.743-.871,2.593-1.3a.233.233,0,1,0-.234-.4c-3.124,1.594-6.291,3.1-9.458,4.633-.871.425-1.743.829-2.614,1.233-.234.106-.106.425.128.446,4.081.191,8.182.276,12.263.425l1.424.064a3.211,3.211,0,0,0,1.275-.043c.829-.319,1.658-.638,2.487-.978,1.721-.7,3.422-1.424,5.1-2.189.446-.212.914-.425,1.36-.638a1.007,1.007,0,0,0,.255-.149,2.216,2.216,0,0,0,.212-.383c.106-.213.234-.446.34-.659.446-.893.914-1.764,1.36-2.657.127-.3-.3-.531-.446-.255Z" transform="translate(-475.016 -511.82)"/></g><g transform="translate(80.651 59.468)"><path d="M618.864,445.941c-1.126,2.147-2.253,4.314-3.379,6.461-.149.276.276.51.4.234,1.126-2.147,2.253-4.314,3.379-6.461.149-.276-.276-.51-.4-.234Z" transform="translate(-615.453 -445.817)"/></g><g transform="translate(73.757 64.902)"><path d="M587.457,477.744a3.265,3.265,0,0,1-1.466-.319,8.86,8.86,0,0,0-1.594-.553,1.345,1.345,0,0,0-1.126.276.815.815,0,0,0-.085,1.084,2.453,2.453,0,0,0,1.148.744,11.07,11.07,0,0,0,1.4.51,6.069,6.069,0,0,0,3.018.255A4.743,4.743,0,0,0,591.176,478a3.669,3.669,0,0,0,1.02-2.805,5.123,5.123,0,0,0-1.658-2.508,6.09,6.09,0,0,0-1.233-.978,1.741,1.741,0,0,0-1.254-.3,1.13,1.13,0,0,0-.956.893,2.177,2.177,0,0,0,.361,1.445,2.6,2.6,0,0,0,2.55,1.19l-.191-.446a3.01,3.01,0,0,1-2.1.255,3.4,3.4,0,0,1-1-.4,3.92,3.92,0,0,0-.935-.489,1.054,1.054,0,0,0-1.339.574,1.328,1.328,0,0,0,.6,1.424c.255.17.489-.234.234-.4-.361-.255-.638-1-.043-1.148.574-.149,1.084.383,1.573.616a3.692,3.692,0,0,0,3.273-.021c.255-.128.064-.468-.191-.446a2.118,2.118,0,0,1-1.955-.893,2,2,0,0,1-.383-1.02.7.7,0,0,1,.7-.723,1.772,1.772,0,0,1,1.02.383,5.8,5.8,0,0,1,1.02.893,4.371,4.371,0,0,1,1.4,2.04,3.186,3.186,0,0,1-.85,2.444,3.709,3.709,0,0,1-4.463,1.551,11.15,11.15,0,0,1-2.317-.829c-.3-.149-.893-.574-.425-.893a1.423,1.423,0,0,1,1.275.064c.446.17.893.361,1.36.51a2.624,2.624,0,0,0,1.275.17c.34,0,.213-.446-.085-.4Z" transform="translate(-583.019 -471.386)"/></g><g transform="translate(74.147 68.837)"><path d="M585.65,491.473a.767.767,0,0,1-.276-.85c.17-.383.7-.255,1-.149.446.149.871.34,1.339.489a13.167,13.167,0,0,0,1.53.34c.3.043.425-.425.127-.468a9.788,9.788,0,0,1-1.891-.446,5.587,5.587,0,0,0-1.636-.489.935.935,0,0,0-.978.829,1.314,1.314,0,0,0,.531,1.169.218.218,0,0,0,.319-.085.233.233,0,0,0-.064-.34Z" transform="translate(-584.854 -489.9)"/></g><g transform="translate(74.317 72.083)"><path d="M590.571,506.029a6.864,6.864,0,0,1-2.678.553,3.1,3.1,0,0,1-1.254-.17c-.319-.128-.659-.51-.489-.871.128-.276-.3-.531-.4-.234a1.112,1.112,0,0,0,.234,1.233,2.058,2.058,0,0,0,1.339.51,7.44,7.44,0,0,0,3.4-.531c.255-.128.127-.6-.149-.489Z" transform="translate(-585.652 -505.173)"/></g><g transform="translate(67.505 101.195)"><path d="M565.207,642.373a38.71,38.71,0,0,1-.128,6.078c-.085,1.02-.255,2.019-.361,3.039-.106,1-.17,2-.234,3.018-.064.956-.128,1.892-.17,2.848a7.267,7.267,0,0,0,.021,1.36,3.331,3.331,0,0,0,.106.638,6.789,6.789,0,0,1,.149.7,8.184,8.184,0,0,1,.042,1.02c0,.064-.021.106-.021.17,0,.021-.042.085-.021.064a5.745,5.745,0,0,1-.659.17,30.665,30.665,0,0,1-3.082.68,19.088,19.088,0,0,1-6.95-.128c-.3-.064-.425.4-.127.468a19.576,19.576,0,0,0,6.4.234,26.445,26.445,0,0,0,3.145-.595,11.507,11.507,0,0,0,1.466-.4.649.649,0,0,0,.34-.616,8.54,8.54,0,0,0-.043-1.041c-.021-.468-.213-.914-.255-1.4a16.186,16.186,0,0,1,.085-2.869c.085-1.041.128-2.083.213-3.124.042-.531.085-1.063.149-1.594s.191-1.084.234-1.615a44.054,44.054,0,0,0,.234-7.1c-.085-.3-.553-.3-.531,0Z" transform="translate(-553.603 -642.15)"/></g><path d="M62.454,30.206a2,2,0,0,1-1.528-.67.3.3,0,1,1,.446-.4,1.655,1.655,0,0,0,1.89.308c.864-.332,1.535-1.065,1.535-1.474,0-.081-.088-.536-1.822-1.552-.962-.564-1.94-1.008-1.95-1.012a.3.3,0,0,1,.247-.547c.041.019,1.013.46,2,1.039,1.9,1.114,2.122,1.716,2.122,2.072,0,.715-.861,1.627-1.92,2.034A2.861,2.861,0,0,1,62.454,30.206Z" fill="#212529"/></g></g></svg>