<svg xmlns="http://www.w3.org/2000/svg" xmlns:xlink="http://www.w3.org/1999/xlink" width="50" height="50" viewBox="0 0 50 50"><defs><linearGradient id="a" x1="0.5" x2="0.5" y2="1" gradientUnits="objectBoundingBox"><stop offset="0" stop-color="#4667cc"/><stop offset="1" stop-color="#7b96e8"/></linearGradient></defs><g transform="translate(-7.517 -9.2)"><g transform="translate(7.517 9.2)"><rect width="50" height="50" rx="8" fill="url(#a)"/></g><g transform="translate(13.07 10.617)"><g transform="translate(0 13.507)"><path d="M33.916,26.049v3.514a.282.282,0,0,1-.071.187l-.021.021-.225.2-.21.186-.2.168-.122.1-.115.094-.108.086-.051.04-.1.074-.042.031a18.512,18.512,0,0,1-2.572,1.533c-.118.059-.247.12-.384.183l-.212.1-.223.1-.115.049-.236.1-.243.1-.248.1-.252.1-.254.1-.127.047-.253.092c-.21.075-.418.146-.619.212l-.18.058-.126.039-.135.04-.144.041-.153.043-.246.066-.175.046-.279.071-.3.073-.21.05-.331.078-.35.08-.37.083-1.268.28a.605.605,0,0,0-.476.59V47.779h4.453V38.411a.212.212,0,0,1,.137-.2l.023-.007.245-.063.233-.062.221-.061.26-.074.242-.073.092-.029.077-.025c.33-.106.675-.224,1.023-.35l.3-.11c.249-.093.5-.189.743-.287l.291-.118.132-.055.26-.11.128-.055.249-.109c.286-.127.553-.252.792-.371a22.808,22.808,0,0,0,3.222-1.93l.129-.1.134-.1.069-.054.142-.114.147-.121.152-.128.157-.135.163-.142.168-.149.173-.156.179-.163.184-.17.19-.177.2-.185.2-.192.5-.476a.6.6,0,0,0,.186-.436V23.587l-4.229,2.1a.4.4,0,0,0-.224.361Z" transform="translate(0.089 -13.507)" fill="#fff"/><path d="M4.453,26.049v3.514a.282.282,0,0,0,.071.187l.021.021.225.2.21.186.2.168.122.1.115.094.108.086.051.04.1.074.042.031a18.512,18.512,0,0,0,2.572,1.533c.118.059.247.12.384.183l.212.1.223.1.115.049.236.1.243.1.248.1.252.1.254.1.127.047.253.092c.21.075.418.146.619.212l.18.058.126.039.135.04.144.041.153.043.246.066.175.046.279.071.3.073.21.05.331.078.35.08.37.083,1.268.28a.605.605,0,0,1,.476.59V47.779H11.74V38.411a.212.212,0,0,0-.137-.2l-.023-.007-.245-.063L11.1,38.08l-.221-.061-.26-.074-.242-.073-.092-.029-.077-.025c-.33-.106-.675-.224-1.023-.35l-.3-.11c-.249-.093-.5-.189-.743-.287l-.291-.118L7.72,36.9l-.26-.11-.128-.055-.249-.109c-.286-.127-.553-.252-.792-.371a22.809,22.809,0,0,1-3.222-1.93l-.129-.1-.134-.1-.069-.054-.142-.114-.147-.121L2.3,33.71l-.157-.135-.163-.142-.168-.149-.173-.156-.179-.163-.184-.17-.19-.177-.2-.185-.2-.192-.5-.476A.6.6,0,0,1,0,31.33V23.587l4.229,2.1a.4.4,0,0,1,.224.361Z" transform="translate(0 -13.507)" fill="#fff"/><path d="M19.227,13.507A28.5,28.5,0,0,1,38,20.525l-4.3,2.231a24.17,24.17,0,0,0-29.022.055l-4.3-2.227a28.5,28.5,0,0,1,18.843-7.076Z" transform="translate(0.002 -13.507)" fill="#fff"/></g><ellipse cx="5.263" cy="5.242" rx="5.263" ry="5.242" transform="translate(13.966 0)" fill="#fff"/></g></g></svg>