<svg xmlns="http://www.w3.org/2000/svg" xmlns:xlink="http://www.w3.org/1999/xlink" width="50" height="50" viewBox="0 0 50 50"><defs><linearGradient id="a" x1="0.5" x2="0.5" y2="1" gradientUnits="objectBoundingBox"><stop offset="0" stop-color="#db2d2e"/><stop offset="1" stop-color="#e2626a"/></linearGradient></defs><g transform="translate(-7.517 -9.2)"><rect width="50" height="50" rx="8" transform="translate(7.517 9.2)" fill="url(#a)"/><path d="M11953.783-6934.021V-6946.6a.6.6,0,0,1,.475-.589l1.268-.282.373-.081.348-.081.331-.078.21-.048.3-.075.276-.069.177-.048.246-.066.153-.042.145-.042.135-.039.127-.039.18-.057c.2-.066.409-.138.619-.213l.252-.09.126-.048.256-.1.252-.1.247-.1.243-.1.237-.1.114-.051.225-.1.211-.093c.138-.063.267-.126.384-.183a18.736,18.736,0,0,0,2.572-1.535l.042-.03.1-.075.055-.039.107-.087.114-.093.12-.1.2-.168.21-.186.226-.2.021-.021a.284.284,0,0,0,.072-.186v-3.515a.4.4,0,0,1,.222-.36l4.229-2.1v7.741a.614.614,0,0,1-.186.438l-.5.475-.2.192-.2.184-.189.177-.186.171-.178.162-.174.156-.166.15-.165.141-.156.135-.153.126-.146.121-.142.114-.069.054-.132.1c-.045.033-.09.063-.132.1a22.954,22.954,0,0,1-3.221,1.929c-.24.12-.508.243-.793.373l-.249.108-.127.054-.261.111-.133.054-.291.117c-.243.1-.493.2-.742.286l-.3.111c-.349.126-.694.243-1.024.351l-.078.024-.091.027-.243.072-.261.075-.22.061-.234.063-.246.063-.021.009a.212.212,0,0,0-.138.2v9.367Zm-10.526,0v-9.367a.212.212,0,0,0-.138-.2l-.021-.009-.246-.063-.231-.063-.223-.061-.261-.075-.24-.072-.094-.027-.078-.024c-.33-.108-.676-.225-1.021-.351l-.3-.111c-.25-.09-.5-.186-.742-.286l-.292-.117-.132-.054-.262-.111-.126-.054-.249-.108c-.285-.129-.553-.252-.793-.373a23.124,23.124,0,0,1-3.221-1.929c-.042-.033-.087-.063-.129-.1l-.135-.1-.069-.054-.142-.114-.147-.121-.152-.126-.156-.135-.163-.141-.168-.15-.174-.156-.178-.162-.186-.171-.189-.177-.2-.184-.2-.192-.5-.475a.615.615,0,0,1-.187-.438v-7.741l4.23,2.1a.407.407,0,0,1,.225.36v3.515a.281.281,0,0,0,.069.186l.021.021.225.2.211.186.2.168.12.1.117.093.107.087.052.039.1.075.042.03a18.782,18.782,0,0,0,2.571,1.535c.12.057.247.12.385.183l.214.093.222.1.114.051.237.1.243.1.246.1.253.1.255.1.127.048.252.09c.21.075.418.147.619.213l.18.057.126.039.136.039.144.042.153.042.247.066.177.048.279.069.3.075.21.048.33.078.352.081.37.081,1.268.282a.6.6,0,0,1,.475.589v12.584Zm-11.355-27.2a28.508,28.508,0,0,1,18.845-7.074,28.506,28.506,0,0,1,18.775,7.014l-4.3,2.232a24.039,24.039,0,0,0-14.474-4.812,24.052,24.052,0,0,0-14.549,4.867Zm13.581-15.342a5.253,5.253,0,0,1,5.264-5.242,5.253,5.253,0,0,1,5.263,5.242,5.253,5.253,0,0,1-5.263,5.242A5.254,5.254,0,0,1,11945.482-6976.559Z" transform="translate(-11918.447 6992.417)" fill="#fff"/></g></svg>