<svg xmlns="http://www.w3.org/2000/svg" viewBox="0 0 50 50">
  <defs>
    <linearGradient id="a" x1=".5" x2=".5" y2="1" gradientUnits="objectBoundingBox">
      <stop offset="0" stop-color="#db2d2e"/>
      <stop offset="1" stop-color="#e2626a"/>
    </linearGradient>
  </defs>
  <rect width="50" height="50" fill="url(#a)" rx="8"/>
  <g fill="#fff" transform="translate(5.6 1.4)">
    <path d="M34 26v3.6a.3.3 0 0 1 0 .1l-.3.3-.2.2-.2.1-.1.1-.2.1v.1h-.1l-.1.1a18.5 18.5 0 0 1-2.6 1.6l-.4.2h-.2l-.3.2-.3.1-.2.1-.3.1-.2.1-.3.1h-.1l-.3.2-.6.2H26.7l-.1.1H26.3l-.3.2h-.4l-.3.1H25l-.4.2h-.3l-.4.1-1.3.3a.6.6 0 0 0-.4.6v12.6h4.4v-9.4a.2.2 0 0 1 .1-.2h.3l.2-.1h.3l.2-.2h.4l1-.4.4-.1.7-.3.3-.1.1-.1.3-.1h.1l.3-.2.8-.3a22.8 22.8 0 0 0 3.2-2h.1l.1-.2h.1l.2-.1.1-.2.2-.1.1-.1.2-.2.1-.1.2-.2.2-.1.2-.2.2-.2.2-.2.2-.2.5-.4a.6.6 0 0 0 .2-.5v-7.7l-4.3 2a.4.4 0 0 0-.2.4ZM4.5 26v3.6a.3.3 0 0 0 0 .1l.3.3.2.2.2.1.1.1.1.1.1.1.2.1a18.5 18.5 0 0 0 2.6 1.6l.4.2h.2l.2.2h.1l.3.1.2.1.3.1.2.1.3.1.3.2.7.2H11.8l.1.1H12.2l.2.2h.5l.3.1h.2l.3.2h.4l.4.1 1.2.3a.6.6 0 0 1 .5.6v12.6h-4.5v-9.4a.2.2 0 0 0-.1-.2h-.3l-.2-.1h-.2l-.3-.2H10.3l-1.1-.4-.3-.1L8 37 8 37l-.2-.1-.2-.1h-.2l-.2-.2a20 20 0 0 1-.8-.3 22.8 22.8 0 0 1-3.2-2h-.2V34h-.2l-.1-.1-.2-.2h-.1l-.2-.2-.1-.2-.2-.1-.2-.2-.1-.1-.2-.2-.2-.2-.2-.2-.2-.2-.5-.4a.6.6 0 0 1-.2-.5v-7.7l4.2 2a.4.4 0 0 1 .3.4ZM19.2 13.5a28.5 28.5 0 0 1 18.8 7l-4.3 2.3a24.2 24.2 0 0 0-29 0L.4 20.6a28.5 28.5 0 0 1 18.8-7Z"/>
    <ellipse cx="5.3" cy="5.2" rx="5.3" ry="5.2" transform="translate(14)"/>
  </g>
</svg>