<svg xmlns="http://www.w3.org/2000/svg" xmlns:xlink="http://www.w3.org/1999/xlink" width="166" height="60.001" viewBox="0 0 166 60.001"><defs><linearGradient id="a" x1="-0.431" y1="-0.413" x2="1.329" y2="1.299" gradientUnits="objectBoundingBox"><stop offset="0" stop-color="#9d9da6"/><stop offset="1" stop-color="#e3e3e5"/></linearGradient><filter id="b" x="2.002" y="0.001" width="50.638" height="60" filterUnits="userSpaceOnUse"><feOffset dx="2" dy="2" input="SourceAlpha"/><feGaussianBlur stdDeviation="2" result="c"/><feFlood flood-opacity="0.102"/><feComposite operator="in" in2="c"/><feComposite in="SourceGraphic"/></filter></defs><g transform="translate(-6.479 -8.2)"><g transform="translate(62 9)"><path d="M13.242,50.219v-.4h-.484a1.958,1.958,0,0,1-.984-.21,1.109,1.109,0,0,1-.484-.489,4.6,4.6,0,0,1-.124-1.4V36.473h1.086a3.684,3.684,0,0,1,1.43.194,2.94,2.94,0,0,1,1.151.952,6.231,6.231,0,0,1,.764,1.963h.387V35.634H2.884v3.947h.409A4.126,4.126,0,0,1,4.476,37.1a3.066,3.066,0,0,1,2.14-.624H7.67v11.25a4.431,4.431,0,0,1-.118,1.355,1.028,1.028,0,0,1-.441.516,2.017,2.017,0,0,1-1.022.226H5.605v.4Zm8.606.14A2.411,2.411,0,0,0,23.155,50a3.922,3.922,0,0,0,1.113-1.156l-.323-.258q-.29.4-.57.4a.385.385,0,0,1-.247-.086.518.518,0,0,1-.161-.264,4.046,4.046,0,0,1-.054-.866v-3.9a8.537,8.537,0,0,0-.151-2.076,2.848,2.848,0,0,0-1.081-1.318,3.769,3.769,0,0,0-2.264-.608,6.976,6.976,0,0,0-2.28.376,3.873,3.873,0,0,0-1.71,1.081,2.229,2.229,0,0,0-.613,1.479,1.248,1.248,0,0,0,.457.957,1.64,1.64,0,0,0,1.135.409,1.434,1.434,0,0,0,1.027-.371,1.19,1.19,0,0,0,.393-.9A1.377,1.377,0,0,0,17.417,42a.938.938,0,0,1-.3-.559.55.55,0,0,1,.28-.452,1.981,1.981,0,0,1,1.151-.312,1.4,1.4,0,0,1,.774.22,1.156,1.156,0,0,1,.468.516,4.895,4.895,0,0,1,.124,1.436v1.011A18.728,18.728,0,0,0,15.6,46.309a2.771,2.771,0,0,0-.989,2.07,1.909,1.909,0,0,0,.57,1.414,1.95,1.95,0,0,0,1.43.565,5.3,5.3,0,0,0,3.3-1.624,1.827,1.827,0,0,0,.592,1.221,2.04,2.04,0,0,0,1.344.4Zm-3.184-1.807a.975.975,0,0,1-.753-.29,1.232,1.232,0,0,1-.355-.871,1.99,1.99,0,0,1,.419-1.172,6.283,6.283,0,0,1,1.936-1.635v3.366a2.067,2.067,0,0,1-1.248.6Zm7.993-9.938a1.614,1.614,0,0,0,1.178-.484,1.588,1.588,0,0,0,.489-1.172,1.662,1.662,0,0,0-1.667-1.667,1.588,1.588,0,0,0-1.172.489A1.615,1.615,0,0,0,25,36.957a1.652,1.652,0,0,0,1.656,1.656Zm2.721,11.605v-.387a1.342,1.342,0,0,1-.968-.339,2.4,2.4,0,0,1-.247-1.361v-7.97H23.947v.4a1.326,1.326,0,0,1,.957.339,2.4,2.4,0,0,1,.247,1.361v5.872a2.4,2.4,0,0,1-.215,1.312,1.312,1.312,0,0,1-.989.387v.387Zm4.358.3,2.7-7.378L39.19,50.52H39.8l2.818-7.991a5.152,5.152,0,0,1,.753-1.619,1.33,1.33,0,0,1,.785-.35v-.4H41.179v.4a1.335,1.335,0,0,1,.8.237.811.811,0,0,1,.2.613,3.9,3.9,0,0,1-.28,1.054l-1.291,3.614-1.42-3.926a4.021,4.021,0,0,1-.312-1.043.469.469,0,0,1,.161-.382,1.5,1.5,0,0,1,.764-.167v-.4H34.651v.4a1.463,1.463,0,0,1,.747.307,3.094,3.094,0,0,1,.565,1.027l.108.258-1.42,3.926-1.473-3.926a5.324,5.324,0,0,1-.344-1.1.433.433,0,0,1,.194-.344,1.211,1.211,0,0,1,.71-.151v-.4H28.66v.4a1.5,1.5,0,0,1,.817.495A8.325,8.325,0,0,1,30.5,43.228l2.678,7.292Zm17.738-.161A2.411,2.411,0,0,0,52.781,50a3.922,3.922,0,0,0,1.113-1.156l-.323-.258q-.29.4-.57.4a.385.385,0,0,1-.247-.086.518.518,0,0,1-.161-.264,4.046,4.046,0,0,1-.054-.866v-3.9a8.536,8.536,0,0,0-.151-2.076,2.848,2.848,0,0,0-1.081-1.318,3.769,3.769,0,0,0-2.264-.608,6.976,6.976,0,0,0-2.28.376,3.873,3.873,0,0,0-1.71,1.081A2.229,2.229,0,0,0,44.44,42.8a1.248,1.248,0,0,0,.457.957,1.64,1.64,0,0,0,1.135.409,1.434,1.434,0,0,0,1.027-.371,1.19,1.19,0,0,0,.393-.9A1.377,1.377,0,0,0,47.043,42a.938.938,0,0,1-.3-.559.55.55,0,0,1,.28-.452,1.981,1.981,0,0,1,1.151-.312,1.4,1.4,0,0,1,.774.22,1.157,1.157,0,0,1,.468.516,4.895,4.895,0,0,1,.124,1.436v1.011a18.728,18.728,0,0,0-4.313,2.447,2.771,2.771,0,0,0-.989,2.07,1.909,1.909,0,0,0,.57,1.414,1.95,1.95,0,0,0,1.43.565,5.3,5.3,0,0,0,3.3-1.624,1.827,1.827,0,0,0,.592,1.221,2.04,2.04,0,0,0,1.344.4Zm-3.184-1.807a.975.975,0,0,1-.753-.29,1.232,1.232,0,0,1-.355-.871,1.99,1.99,0,0,1,.419-1.172,6.283,6.283,0,0,1,1.936-1.635v3.366a2.067,2.067,0,0,1-1.248.6Zm10.671,1.667v-.387a1.07,1.07,0,0,1-.78-.376,3,3,0,0,1-.21-1.43V42.636q.8-1.323,1.721-1.323a.82.82,0,0,1,.511.177.954.954,0,0,1,.328.5,7.318,7.318,0,0,1,.1,1.56v4.474a3.088,3.088,0,0,1-.172,1.334,1.063,1.063,0,0,1-.817.473v.387h5.087v-.387a1.23,1.23,0,0,1-.877-.36,2.991,2.991,0,0,1-.21-1.447V44.109a10.408,10.408,0,0,0-.172-2.355,2.6,2.6,0,0,0-.86-1.35,2.435,2.435,0,0,0-1.624-.543,3.175,3.175,0,0,0-1.527.382,5.911,5.911,0,0,0-1.484,1.221v-1.3h-4.1v.4a1.277,1.277,0,0,1,.877.366,2.887,2.887,0,0,1,.21,1.42v5.679a3.015,3.015,0,0,1-.183,1.4,1.25,1.25,0,0,1-.9.409v.387Zm9.617.333a4.93,4.93,0,0,0,2.576-.64,3.531,3.531,0,0,0,1.49-1.592,8.108,8.108,0,0,0,.419-3.049V38.13a4.431,4.431,0,0,1,.118-1.355,1.047,1.047,0,0,1,.43-.516,2.041,2.041,0,0,1,1.033-.226h.473v-.4H67.364v.4h.613a1.933,1.933,0,0,1,.973.21,1.109,1.109,0,0,1,.484.489,4.6,4.6,0,0,1,.124,1.4v7.948a16.173,16.173,0,0,1-.124,2.63,1.3,1.3,0,0,1-.425.737,1.2,1.2,0,0,1-.764.237,1.751,1.751,0,0,1-1.065-.3.591.591,0,0,1-.28-.484,1.412,1.412,0,0,1,.3-.618,4.5,4.5,0,0,0,.339-.543,1.668,1.668,0,0,0,.075-.527,1.361,1.361,0,0,0-.446-1.033,1.549,1.549,0,0,0-1.1-.419,1.527,1.527,0,0,0-1.129.468,1.662,1.662,0,0,0-.462,1.221,2.8,2.8,0,0,0,1.135,2.14,4.424,4.424,0,0,0,2.974.968Zm11.048-.032a4.285,4.285,0,0,0,3.625-1.742A5.78,5.78,0,0,0,84.338,45.2a6.343,6.343,0,0,0-.586-2.732,4.334,4.334,0,0,0-1.715-1.925,4.662,4.662,0,0,0-2.441-.678,4.119,4.119,0,0,0-3.436,1.608,5.955,5.955,0,0,0-1.253,3.77,5.876,5.876,0,0,0,1.226,3.689,4.152,4.152,0,0,0,3.5,1.592Zm-.032-.742a1.2,1.2,0,0,1-.882-.4,2.078,2.078,0,0,1-.506-1.162,14.471,14.471,0,0,1-.151-2.151q0-2.173.124-3.393a2.892,2.892,0,0,1,.516-1.635,1.251,1.251,0,0,1,.941-.414,1.128,1.128,0,0,1,.731.226,1.919,1.919,0,0,1,.6.995,10.211,10.211,0,0,1,.2,2.511,24.834,24.834,0,0,1-.215,4.13,1.807,1.807,0,0,1-.559,1.022,1.217,1.217,0,0,1-.807.269Zm10.779.742a4.536,4.536,0,0,0,2.506-.7,4.928,4.928,0,0,0,1.753-2.049,6.726,6.726,0,0,0,.656-2.99,6.1,6.1,0,0,0-.516-2.581,4.049,4.049,0,0,0-1.43-1.726,3.455,3.455,0,0,0-1.947-.608,3.81,3.81,0,0,0-2.775,1.312V35.634H84.448v.4a1.668,1.668,0,0,1,.78.167.837.837,0,0,1,.339.446,4.348,4.348,0,0,1,.075,1.076V50.509h.366l1.667-1.086a4.063,4.063,0,0,0,1.248.839,3.828,3.828,0,0,0,1.452.258Zm-.129-.753a1.444,1.444,0,0,1-1.043-.393,1.794,1.794,0,0,1-.516-1.027,13.845,13.845,0,0,1-.065-1.742V42.131A2.351,2.351,0,0,1,90.4,41.087a1.3,1.3,0,0,1,1.129.624,6.1,6.1,0,0,1,.581,3.173,14.084,14.084,0,0,1-.264,3.334,2.423,2.423,0,0,1-.656,1.237,1.466,1.466,0,0,1-.941.312Zm9.348.753a3.381,3.381,0,0,0,1.689-.43,2.942,2.942,0,0,0,1.183-1.237,3.53,3.53,0,0,0,.419-1.646,2.941,2.941,0,0,0-.5-1.672,7.938,7.938,0,0,0-2.081-1.818,10.321,10.321,0,0,1-1.925-1.511.885.885,0,0,1-.215-.559.916.916,0,0,1,.312-.683,1.055,1.055,0,0,1,.753-.3,2.26,2.26,0,0,1,1.4.559,5.389,5.389,0,0,1,1.361,2.087h.366l-.161-3.431h-.366a2.044,2.044,0,0,1-.376.457.544.544,0,0,1-.312.081,1.05,1.05,0,0,1-.473-.161,3.38,3.38,0,0,0-1.581-.4,2.875,2.875,0,0,0-2.318.941,3.163,3.163,0,0,0-.8,2.1,3.033,3.033,0,0,0,.71,1.947,11.3,11.3,0,0,0,2.13,1.742,8.417,8.417,0,0,1,1.441,1.14,1.327,1.327,0,0,1,.323.893,1.03,1.03,0,0,1-.328.769,1.164,1.164,0,0,1-.844.317A2.548,2.548,0,0,1,97.8,49a4.678,4.678,0,0,1-1.328-2.13h-.366l.172,3.614h.355q.237-.538.592-.538a1.6,1.6,0,0,1,.441.118,5.857,5.857,0,0,0,1.925.452Z" transform="translate(-1)" fill="#c7c7cc"/><g transform="translate(100.48 -0.8)"><path d="M0,0A10,10,0,0,1,10,10H8.148A8.148,8.148,0,0,0,0,1.852Z" fill="#ababb3" fill-rule="evenodd"/><path d="M10602.119,5458.708v-.021a5.031,5.031,0,0,0-5.029-4.921H10597V5452a6.71,6.71,0,0,1,6.709,6.709Zm-2.647,0a2.468,2.468,0,0,0-2.47-2.47v-1.413a3.882,3.882,0,0,1,3.883,3.883Z" transform="translate(-10597.001 -5448.709)" fill="#d5d5d9"/></g><path d="M3.253,27.737q.781-.144,1.7-.287l1.684-.287V26.114h7.641v1.437l.246.062q.739-.144,1.684-.287l1.7-.267V20.611a2.731,2.731,0,0,1,.411-.411q.329-.308.555-.493l-1.212-.924q-1.068-.821-1.746-1.335-.39.308-.822.657-.39.308-.8.678H6.56q-.637-.267-1.479-.616l-1.417-.554h.308q1.253-.123,2.383-.287,1.746-.246,4.56-.739l2.28-.616q1.561-.411,2.321-.616.472.7,1.068,1.663.514.821.822,1.376l.144-.041q.924-.8,1.643-1.417.822-.719,1.274-1.068-1.541-1.6-3.266-3.1-1.212-1.047-2.568-2.074-.205-.144-.411-.267l-.781.678-.883.821.883.9q.514.554.842.924l-.141.027-.092.019-.67.139a16.62,16.62,0,0,1-1.931.205l-2.609.205q-1.274.1-1.684.1l.123-.185q1.212-1.211,2.609-2.916Q11.017,10,11.839,8.866L9.846,8.332,7.854,7.778A24.478,24.478,0,0,1,6.6,10.2q-.842,1.4-2.9,4.312H1.2l-.021-.062H.48l.062.308L1.1,16.238q.308.842.555,1.52l.1.082q.267,0,.657-.021l.637-.062v9.918Zm11.03-3.2H6.642V20.365h7.641Zm23.455,3a3.359,3.359,0,0,0,.781-.226,2.863,2.863,0,0,0,.678-.349,3.489,3.489,0,0,0,.575-1.129q.021-.062.329-1.232l.452-.329L41,23.958q-.657-.493-.986-.76-.555-.431-.965-.78l.082-.041V20.365l.308-.308a2.146,2.146,0,0,1,.329-.308q-.349-.226-.739-.513l-.739-.493q.39-.164.76-.287V17.121l.123.226q.1.287.226.678.062.246.226.719.349-.205.7-.39l.7-.39a5.253,5.253,0,0,0-.637-1.17q-.246-.37-.8-1.068l-.534.267v-.678a2.209,2.209,0,0,1,.575-.144,2.9,2.9,0,0,0,.123.37q.082.267.144.411.288-.123.637-.246.288-.1.657-.226-.211-.469-.362-.8l-.072-.155-.121-.258q-.308-.657-.555-1.129-.226.062-.493.144-.144.062-.452.185a3.9,3.9,0,0,0,.164.472q-.411.082-.555.1a2.652,2.652,0,0,1-.411.062l.185-.287q.452-.6,1.048-1.478l1.048-1.5-.9-.349-.641-.243-.221-.085-.164.144q-.288.513-.452.78-.246.431-.452.78l-.349-.185q.493-.76.965-1.6.452-.8.863-1.684l-.965-.287-.945-.267-.164.205q-.185.637-.452,1.4-.164.452-.534,1.355l-.267-.123.144-.062v-.7a4.285,4.285,0,0,0-.452-.411L34.9,8.887a5.153,5.153,0,0,1-.6.513H34V8.414l-.246-.123q-.452-.1-1.068-.246l-1.048-.226V9.4H29.974v1.088q-.082-.021-.431-.123l-.6-.205q-.164.267-.37.637-.308.513-.472.842a4.2,4.2,0,0,0-.349-.246,16.533,16.533,0,0,0,.9-1.458q.39-.719.739-1.54a6.406,6.406,0,0,0-1.006-.308l-.965-.267Q27.221,8.5,27,9.195q-.226.657-.472,1.355l-.329-.1q-.164.164-.37.39a5,5,0,0,0-.349.411q.349.411.8.965.267.349.822,1.047a2.477,2.477,0,0,1-.288.493l-.349.493h-.452a2.643,2.643,0,0,1,.082-.493q-.329-.1-.493-.164-.267-.1-.452-.164-.9,1.971-1.89,4.148l-1.849,4.189q.329,1.273.616,3.142.205,1.273.37,2.628.739-.534,1.643-1.211L25.7,25.088q-.082-.205-.144-.39-.411-.7-.842-1.355-.411-.657-.863-1.314.39-1.561.924-3.511.329-1.17.986-3.532.062.349.164.739a1.9,1.9,0,0,1,.411-.041h.534v.534q-.082-.021-.39-.123-.164-.062-.493-.205-.267.493-.534,1.109-.076.171-.182.424L25.2,17.6q-.1.234-.216.527.144.123.349.308.1.1.349.308a5.407,5.407,0,0,0,.6-.554,6.883,6.883,0,0,0,.514-.637l.082-.1v1.294l.246.062.965-.185.986-.164V17.1l.1.205q.062.329.144.719.062.246.185.719.39-.267.575-.39.349-.226.616-.39a7.611,7.611,0,0,0-.493-1.15q-.082-.164-.575-1.088-.349.164-.555.267v-.678a2.528,2.528,0,0,1,.575-.144,4.991,4.991,0,0,0,.246.719q.144-.041.39-.1.288-.062.575-.1v3.06l.226.041q.555-.123.822-.185l.8-.144.123-.226h.514v.431l.246.062q.37-.1.76-.185.431-.082.822-.144.164.164.37.349a5.569,5.569,0,0,0,.637-.554q.246-.246.555-.616l.1-.082v1.027q-.308.185-.678.411H25.927v1.355h1.006l-.021.267q-.267,1.047-.6,2.361-.185.8-.575,2.361h.288q.8-.082,1.582-.144l1.253-.1q.082-.329.205-.739h8.093v.246a.952.952,0,0,1-1.006.842q-.082,0-1.787-.287-.1.349-.144.513-.082.267-.164.513l.6.226a9.17,9.17,0,0,1,.883.37,2.969,2.969,0,0,1,.308.39,1.887,1.887,0,0,1,.226.431ZM24.243,12.11q.472-.575.945-1.109.472-.554.965-1.088a13.4,13.4,0,0,0-1.294-1.047q-.822-.575-1.561-1.027-.351.333-.536.516l-.039.039q-.288.287-.411.431l.082.226q.452.7.945,1.5Q23.75,11.248,24.243,12.11Zm11.092-.965-.37-.287a1.266,1.266,0,0,0-.308-.226l.226-.021h.842q-.185.246-.39.534Zm-1.356-.082H30.672l-.041-.308-.288-.144h4.17a4.608,4.608,0,0,0-.534.452Zm1.4,3.984q-.472-.329-.719-.472-.411-.267-.739-.472a3.429,3.429,0,0,1-.657.493,5.465,5.465,0,0,1-1.232-.164L30.857,14.1v.329q-.185-.267-.411-.616l-.329-.616a3.45,3.45,0,0,0-.472.123q-.041,0-.452.1.041.246.123.554-.205.021-.452.062t-.39.062q.493-.7,1.068-1.52.493-.7,1.068-1.52l.062.185v1.006h3.841q-.226.226-.472.452h-3.41v1.232h5.135V13.26a3.337,3.337,0,0,0-.37-.349l-.575-.493-.062-.164h.863q.267.287.555.616.267.308.555.657a2.556,2.556,0,0,1-.411.678h-.9l-.185.1q.062.411.144.739ZM22.949,16.4l.842-1.211q.514-.719.863-1.191-.534-.39-1.356-.986-.6-.411-1.048-.719a5.209,5.209,0,0,0-.514.554q-.185.185-.514.575.246.411.924,1.6.6,1.068.8,1.376Zm12.386.657V15.93l.226-.246h1.274v.534q-.226-.062-.514-.164-.185-.062-.452-.164l-.009.021-.018.041q-.059.139-.24.575-.164.349-.267.534Zm-1.992-.021h-.534V15.827h.534ZM36.156,21h-6.45l-.082-.329-1.232-.164a11.429,11.429,0,0,1-1.15-.226h8.915Zm1.15,1.992h-7.97a4.023,4.023,0,0,1,.123-.678h6.7v.554l.8-.144q.493-.082.822-.164l-.472.431Zm16.122-11.52V10.55q-.205-.205-.863-.76-.7-.6-1.191-.986-.205.164-.575.493-.37.349-.616.6H49.012V8.414q-.739-.164-1.725-.349L45.7,7.778V9.893H41.946v1.581Zm-1.417,16.3a16.886,16.886,0,0,0,2.321-2.567,12.444,12.444,0,0,0,1.623-2.977v3.676a1.745,1.745,0,0,0,.76,1.129,2.174,2.174,0,0,0,.924.308h2.752a1.868,1.868,0,0,0,1.13-.678,2.11,2.11,0,0,0,.431-1.191l-.164-.452a2.47,2.47,0,0,1-.123-.431v-.719q.021-.226.082-.657t.082-.657q-.226-.021-.678-.1-.431-.082-.657-.1-.164.554-.267,1.006-.144.554-.246,1.006l-.226.226a1.455,1.455,0,0,1-.6-.1.375.375,0,0,1-.267-.246V17.429q-.37-.1-.842-.205l-.842-.185-.246-.144A2.758,2.758,0,0,1,57,16.4V15.088h4.991v-.945q-.144-.1-.9-.76t-1.171-1.006q-.246.205-.616.534-.349.349-.534.554H57V8.414l-1.315-.267L54.352,7.88a1.156,1.156,0,0,0-.472-.062v5.647H52.545q-.637-.513-1.212-.924-.637-.472-1.212-.862-.288.205-.822.616-.431.349-.719.575H45.849l-1.643-.657q-.883-.349-1.4-.534v7.782l1.4-.267q.781-.144,1.4-.226l.246.041v1.211l-1.4-.267q-.8-.144-1.356-.246-.164.9-.514,2.649-.329,1.725-.575,2.916l.534.329q.329.226.555.37a2.676,2.676,0,0,1,.308-.411q.144-.164.246-.287a1.587,1.587,0,0,1,.1.575,3,3,0,0,1,1.15.308,1.615,1.615,0,0,1,.76.945v.452h1.787a1.786,1.786,0,0,0,.883-.37,2.211,2.211,0,0,0,.616-1.253V19.195l1.417-.267q.8-.144,1.4-.246l.246-.123V14.533l.246-.226v.78H53.88v2.156a20.873,20.873,0,0,1-.329,2.4,20.062,20.062,0,0,1-.76,3.121l-.863-1.478a8.763,8.763,0,0,0-1.6-1.93q-.288.164-.657.39-.411.267-.637.411l.062.308a22.209,22.209,0,0,1,.739,2.341q.616,2.156.678,2.382a6.016,6.016,0,0,1,.678-.329,6.514,6.514,0,0,1,.7-.267l-.678,1.15a7.475,7.475,0,0,0-.514.945l.719.575Zm7.415-15.359q.185-.1.9-.616.555-.39,1.294-.965l-.021-.144q-.575-.657-1.212-1.294a13.952,13.952,0,0,0-1.7-1.5q-.185.144-.637.472-.349.287-.575.452a14.137,14.137,0,0,0,.863,1.766q.678,1.211.924,1.766Zm-10.64,4.517H45.972V14.451h2.814Zm-2.937,7.741H44.822l-.021-.041h-.657q.7-1.232.965-1.786a12.494,12.494,0,0,0,.739-1.869Zm25.077,3.039q.7-.144,1.541-.308.616-.1,1.541-.267V24.307a6.506,6.506,0,0,0,2.218,1.478,28.7,28.7,0,0,0,4.519,1.54q.144-.246.822-1.314.842-1.376,1.171-1.869a17.8,17.8,0,0,1-3.656-.411,30.974,30.974,0,0,1-3.533-1.027h7.066v-.8q-.308-.308-.8-.739-.534-.472-1.027-.862a2.96,2.96,0,0,0-.452.37l-.493.452H74.007v-1.17h7.374v-.821l-.267-.205-.637-.534q-.534-.452-.924-.821-.144.1-.452.37l-.493.452h-4.6V17.346h8.3v-.8q-.267-.267-.781-.719-.534-.452-1.027-.862-.062.041-.39.329a6.488,6.488,0,0,1-.534.472H77.047q.431-.246.924-.575.39-.267.883-.616a3.147,3.147,0,0,0-.39-.287,6.088,6.088,0,0,0-.575-.308h4.519v-.821a8.937,8.937,0,0,0-.883-.842l-.924-.739a4.043,4.043,0,0,0-.37.349,3.643,3.643,0,0,1-.555.452h-.822q.493-.534,1.027-1.191A17.064,17.064,0,0,0,81.2,9.277q-.678-.267-1.52-.575-.514-.205-1.541-.554a3.676,3.676,0,0,0-.246.452q-.246.678-.76,1.848-.514,1.232-.822,1.869V8.476l-.246-.123q-.657-.144-1.479-.287l-1.438-.287v4.6H71.83v-3.9l-.246-.123q-.637-.144-1.479-.287l-1.458-.287v4.6H66.674l.739-.821q.6-.657.945-1.047l-.021-.144a18.558,18.558,0,0,0-2.034-1.5q-.411-.246-1.582-.842a3.191,3.191,0,0,0-.6.554q-.37.411-.657.8l.144.267q.739.7,1.191,1.129a14.854,14.854,0,0,1,1.458,1.6H63.038v1.6h3.245q-.185.164-.349.329l.144.226.76.637q.411.349.719.6H62.895v1.581h7.785v1.047H64.045v1.561h6.635v1.17H62.874v1.581h5.464l-.267.287a16.377,16.377,0,0,1-1.643,1.335,37.418,37.418,0,0,1-3.718,1.828q.1.205.246.534l.267.575a19.943,19.943,0,0,0,3.944-.678A11.68,11.68,0,0,0,70.68,24.8v2.875ZM73.72,15.765h-3.43a2.39,2.39,0,0,0,.452-.616q-.719-.452-1.048-.637a10.914,10.914,0,0,0-1.048-.534h6.717l-.678.8q-.39.472-.7.78ZM86.144,27.778l.082-.1a13.572,13.572,0,0,0,.657-1.889l.493-1.91a4.868,4.868,0,0,0,.226.431q.226.37.431.7a5.932,5.932,0,0,0,1.6,1.478,6.558,6.558,0,0,0,2.034.862h11.174q.205-1.027.308-1.52.185-.8.329-1.4h-2.629l-.021.041H91.9q-.1-.021-.431-.1-.308-.082-.575-.144.678-.164,1.191-.267l1.212-.226V19.79h1.582v4.086l.246.062q.8-.144,1.417-.267.76-.123,1.417-.246V22.11q.349.041.534.637a3.172,3.172,0,0,1,.144,1.088h2.075q.308-.062.637-.123a2.109,2.109,0,0,0,.678-.431,2.578,2.578,0,0,0,.739-1.253V14.451a3.409,3.409,0,0,1,.267-.349q.205-.226.411-.411l-.123-.205-1.294-1.027q-.657-.534-.986-.78l-.226.123a3.384,3.384,0,0,0-.472.349l-.719.6h-.945a5.714,5.714,0,0,1,.555-.452,2.677,2.677,0,0,0-.431-.308l.288-.246q1.541-.842,2.033-1.109a18.031,18.031,0,0,1,2.1-.924q-.781-.493-1.6-1.006-.719-.431-1.376-.821l-.185-.062q-.431.226-.616.349-.329.205-.555.329h-9.14v1.6h4.272q-.082.062-.349.308a4.606,4.606,0,0,1-.472.431L93.23,11q.719.513,1.294.986.308.267.863.76h-2.28q-.7-.308-1.561-.6l-1.417-.472V23.794l-.288-.205a3.583,3.583,0,0,1-.616-.821,3.392,3.392,0,0,1-.349-.965V16.258a3.493,3.493,0,0,1,.452-.452q.493-.411.514-.431l-.226-.164L88.4,14.266l-1.417-1.109q-.144.1-.616.513l-.842.76H83.453v1.581h2.116v5.175a9.844,9.844,0,0,1-.8,2.279,12.655,12.655,0,0,1-1.273,2.053l.082.205,1.5,1.211Zm.082-14.867q.739-.575,1.561-1.232.637-.493.965-.78a3.743,3.743,0,0,1-.308-.349,9.764,9.764,0,0,0-1.52-1.478A12.967,12.967,0,0,0,85.2,7.942q-.185.164-.6.493-.411.349-.6.513a4.979,4.979,0,0,0,.514.924l.616.924a8.656,8.656,0,0,1,.514.965l.493,1.006ZM97.154,11q-.308-.123-.924-.411-.6-.287-.9-.411L95,10.057h3.245q-.185.164-.555.472-.37.329-.534.472Zm-2.3,4.374h-1.6V14.307h1.6Zm4.745,0H97.955V14.369l.205-.062H99.6Zm-4.745,2.834h-1.6V16.977h1.6Zm4.745,0H97.955V17l.205-.021H99.6Zm-.37,2.71-.678-.062a2.123,2.123,0,0,1-.6-.164v-.9H99.6v.883A1.74,1.74,0,0,1,99.228,20.919Z" transform="translate(0 0.922)" fill="#656673"/></g></g><g transform="translate(-7.517 -7.2)"><g transform="translate(7.517 9.2)"><rect width="50" height="50" rx="14" fill="url(#a)"/></g><g transform="matrix(1, 0, 0, 1, 7.52, 7.2)" filter="url(#b)"><path d="M10769.37,5496v-12.644a.607.607,0,0,1,.479-.593l1.271-.281.374-.084.35-.079.332-.079.212-.051.3-.073.282-.07.176-.046.246-.068.154-.043.146-.041.135-.041.128-.038.179-.06c.2-.065.411-.138.622-.211l.255-.095.127-.046.257-.1.252-.1.249-.1.246-.1.235-.1.117-.051.222-.1.214-.1c.138-.062.268-.125.387-.184a18.341,18.341,0,0,0,2.582-1.541l.044-.03.1-.076.051-.041.108-.086.116-.095.122-.1.2-.168.211-.187.228-.2.021-.021a.284.284,0,0,0,.07-.189v-3.53a.4.4,0,0,1,.225-.36l4.25-2.111v7.78a.6.6,0,0,1-.189.436l-.5.479-.2.192-.2.187-.192.178-.184.171-.182.162-.173.157-.168.149-.165.144-.157.135-.154.127-.146.122-.143.114-.071.054-.132.106c-.046.032-.087.065-.13.095a23.113,23.113,0,0,1-3.237,1.94c-.241.119-.51.244-.8.371l-.249.111c-.044.016-.087.035-.13.054l-.261.111-.132.054-.295.119c-.244.1-.493.195-.745.287l-.3.111c-.35.127-.7.246-1.029.352l-.075.024-.095.03-.241.073-.263.073-.222.062-.235.063-.247.062-.021.008a.213.213,0,0,0-.138.2V5496Zm-10.575,0v-9.412a.214.214,0,0,0-.139-.2l-.021-.008-.246-.062-.235-.062-.223-.062-.262-.073-.241-.073-.095-.03-.076-.024c-.333-.106-.679-.225-1.028-.352l-.3-.111c-.251-.092-.5-.189-.744-.287l-.295-.119-.133-.054-.26-.111c-.043-.019-.087-.038-.13-.054l-.249-.111c-.287-.127-.555-.252-.8-.371a23.113,23.113,0,0,1-3.237-1.94c-.043-.03-.084-.062-.13-.095l-.133-.106-.07-.054-.144-.114-.146-.122-.154-.127-.157-.135-.165-.144-.168-.149-.174-.157-.181-.162-.185-.171-.192-.178-.194-.187-.2-.192-.5-.479a.6.6,0,0,1-.189-.436v-7.78l4.25,2.111a.4.4,0,0,1,.225.36v3.53a.284.284,0,0,0,.07.189l.021.021.228.2.211.187.2.168.121.1.117.095.107.086.052.041.1.076.043.03a18.4,18.4,0,0,0,2.582,1.541c.119.06.249.122.388.184l.214.1.222.1.116.051.235.1.247.1.249.1.251.1.258.1.127.046.255.095c.211.073.419.146.622.211l.179.06.127.038.136.041.146.041.154.043.246.068.176.046.281.07.3.073.211.051.333.079.35.079.373.084,1.272.281a.607.607,0,0,1,.479.593V5496Zm-11.4-27.323a28.763,28.763,0,0,1,37.793-.06l-4.323,2.241a24.283,24.283,0,0,0-29.155.057Zm13.643-15.413a5.287,5.287,0,1,1,5.286,5.265A5.275,5.275,0,0,1,10761.033,5453.266Z" transform="translate(-10741 -5444)" fill="#fff"/></g></g></svg>