<svg xmlns="http://www.w3.org/2000/svg" xmlns:xlink="http://www.w3.org/1999/xlink" width="52.637" height="60" viewBox="0 0 52.637 60"><defs><linearGradient id="a" x1="-0.396" y1="-0.282" x2="1.373" y2="1.229" gradientUnits="objectBoundingBox"><stop offset="0" stop-color="#de4e57"/><stop offset="1" stop-color="#92020b"/></linearGradient><filter id="b" x="2.003" y="0" width="50.634" height="60" filterUnits="userSpaceOnUse"><feOffset dx="2" dy="2" input="SourceAlpha"/><feGaussianBlur stdDeviation="2" result="c"/><feFlood flood-opacity="0.161"/><feComposite operator="in" in2="c"/><feComposite in="SourceGraphic"/></filter></defs><g transform="translate(0 1.999)"><rect width="50" height="50" rx="14" fill="url(#a)"/><g transform="translate(6.001 2)"><g transform="matrix(1, 0, 0, 1, -6, -4)" filter="url(#b)"><path d="M10499.367,5496v-12.644a.607.607,0,0,1,.48-.591l1.27-.285.375-.082.351-.079.333-.077.211-.053.3-.071.279-.071.175-.047.248-.066.155-.045.146-.04.135-.04.126-.042.183-.058c.2-.066.409-.137.62-.211l.256-.092.127-.047.253-.1.254-.1.25-.1.246-.1.237-.1.113-.047.225-.1.214-.095c.137-.063.267-.127.385-.185a18.4,18.4,0,0,0,2.584-1.541l.042-.029.1-.077.053-.04.108-.087.116-.095.121-.1.2-.169.208-.185.228-.2.019-.024a.277.277,0,0,0,.073-.187v-3.528a.407.407,0,0,1,.225-.364l4.249-2.108v7.777a.614.614,0,0,1-.187.438l-.5.478-.2.193-.2.185-.19.18-.185.168-.18.167-.174.156-.169.15-.164.143-.158.134-.153.129-.145.122-.146.113-.068.053-.135.106c-.042.031-.087.063-.129.1a22.87,22.87,0,0,1-3.238,1.934c-.24.122-.51.246-.795.375l-.25.111c-.043.016-.085.037-.13.055l-.259.111-.135.053-.292.119c-.243.1-.494.192-.745.288l-.3.108c-.348.129-.7.248-1.029.354l-.076.023-.095.032-.24.071-.262.074-.222.063-.234.061-.248.063-.021.008a.212.212,0,0,0-.14.2V5496Zm-10.574,0v-9.411a.209.209,0,0,0-.138-.2l-.023-.008-.245-.063-.235-.061-.222-.063-.261-.074-.246-.071-.09-.032-.076-.023c-.335-.106-.681-.225-1.029-.354l-.3-.108c-.251-.1-.5-.19-.747-.288l-.293-.119-.132-.053-.261-.111c-.043-.019-.085-.04-.13-.055l-.248-.111c-.285-.129-.557-.253-.794-.375a22.49,22.49,0,0,1-3.238-1.934c-.042-.035-.087-.066-.132-.1l-.135-.106-.066-.053-.145-.113-.148-.122-.15-.129-.161-.134-.163-.143-.169-.15-.174-.156-.18-.167-.183-.168-.192-.18-.2-.185-.206-.193-.5-.478a.607.607,0,0,1-.187-.438V5471.7l4.249,2.108a.405.405,0,0,1,.225.364v3.528a.3.3,0,0,0,.068.188l.021.024.227.2.211.185.2.169.124.1.116.095.108.087.053.04.1.077.04.029a18.145,18.145,0,0,0,2.586,1.541c.116.058.248.122.386.185l.214.095.224.1.113.047.238.1.245.1.248.1.251.1.256.1.129.047.254.092c.211.074.419.145.622.211l.183.058.127.042.134.04.146.04.153.045.245.066.18.047.279.071.3.071.209.053.332.077.354.079.369.082,1.274.285a.609.609,0,0,1,.48.591V5496Zm-11.406-27.322a28.764,28.764,0,0,1,37.794-.058l-4.322,2.24a24.288,24.288,0,0,0-29.154.053Zm13.644-15.413a5.288,5.288,0,1,1,5.286,5.265A5.275,5.275,0,0,1,10491.03,5453.265Z" transform="translate(-10471 -5444)" fill="#fff"/></g></g></g></svg>