<svg xmlns="http://www.w3.org/2000/svg" viewBox="0 0 50 50">
  <defs>
    <linearGradient id="a" x1=".5" x2=".5" y2="1" gradientUnits="objectBoundingBox">
      <stop offset="0" stop-color="#a39d9b"/>
      <stop offset=".3" stop-color="#908c8a"/>
      <stop offset="1" stop-color="#6a6a6a"/>
    </linearGradient>
  </defs>
  <path fill="url(#a)" d="M11092 5614h-34a8 8 0 0 1-8-8v-34a8 8 0 0 1 8-8h34a8 8 0 0 1 8 8v34a8 8 0 0 1-8 8Zm-12.1-14.4-.4.1-1.3.3a.6.6 0 0 0-.4.6v12.6h4.4v-9.4a.2.2 0 0 1 .1-.2h.3l.2-.1h.3l.2-.2h.4l1-.4.4-.1.7-.3.3-.1.1-.1.3-.1h.1l.3-.2.8-.3a22.8 22.8 0 0 0 3.2-2h.1l.1-.2h.1l.2-.1.1-.2.2-.1.1-.1.2-.2.1-.1.2-.2.2-.1.2-.2.2-.2.2-.2.2-.2.5-.4a.6.6 0 0 0 .2-.5v-7.7l-4.3 2a.4.4 0 0 0-.2.4h.1v3.6a.3.3 0 0 1 0 .1l-.3.3-.2.2-.2.1-.1.1-.2.1v.1h-.1l-.1.1a18.6 18.6 0 0 1-2.6 1.6l-.4.2h-.2l-.3.2-.3.1-.2.1-.3.1-.2.1-.3.1h-.1l-.3.2-.6.2h-.3l-.1.1h-.3l-.3.2h-.4l-.3.1h-.3l-.4.2Zm-12.7 4a.2.2 0 0 1 .1.2v9.4h4.5v-12.6a.6.6 0 0 0-.5-.6l-1.2-.3-.4-.1h-.4l-.3-.2h-.2l-.3-.1h-.5l-.2-.2h-.3l-.1-.1h-.3l-.7-.2-.3-.2-.3-.1-.2-.1-.3-.1-.2-.1-.3-.1h-.1l-.2-.2h-.2l-.4-.2a18.6 18.6 0 0 1-2.6-1.6l-.2-.1-.1-.1-.1-.1-.1-.1-.2-.1-.2-.2-.3-.3a.3.3 0 0 1 0-.1v-3.6l.1-.1a.4.4 0 0 0-.3-.4l-4.2-2v7.7a.6.6 0 0 0 .2.5l.5.4.2.2.2.2.2.2.2.2.1.1.2.2.2.1.1.2.2.2h.1l.2.2.1.1h.2v.3h.2a22.7 22.7 0 0 0 3.2 2l.8.3.2.2h.2l.2.1.2.1.9.4.3.1 1.1.4h.3l.3.2h.2l.2.1Zm7.6-20.2a24.2 24.2 0 0 1 14.5 4.8l4.3-2.3a28.5 28.5 0 0 0-18.7-7h-.1v.1a28.5 28.5 0 0 0-18.8 7l4.3 2.2a24.2 24.2 0 0 1 14.5-4.8Zm.1-18a5.2 5.2 0 1 0 5.3 5.2 5.3 5.3 0 0 0-5.3-5.2Z" transform="translate(-11050 -5564)"/>
</svg>