<svg xmlns="http://www.w3.org/2000/svg" viewBox="0 0 166 52">
  <defs>
    <linearGradient id="a" x1=".5" x2=".5" y2="1" gradientUnits="objectBoundingBox">
      <stop offset="0" stop-color="#4667cc"/>
      <stop offset="1" stop-color="#7b96e8"/>
    </linearGradient>
  </defs>
  <path fill="#aaacad" d="M68.4 51.4v-.3h-.5a1.9 1.9 0 0 1-1-.2 1 1 0 0 1-.4-.5 4.4 4.4 0 0 1-.1-1.4V38.3h1a3.5 3.5 0 0 1 1.4.2 2.8 2.8 0 0 1 1.1 1 6 6 0 0 1 .7 1.8h.4v-3.8H58.4v3.8h.4a4 4 0 0 1 1.1-2.4 3 3 0 0 1 2.1-.6h1V49a4.3 4.3 0 0 1-.1 1.3 1 1 0 0 1-.4.5 2 2 0 0 1-1 .3H61v.3Zm8.2.2a2.3 2.3 0 0 0 1.3-.4 3.8 3.8 0 0 0 1-1l-.2-.3q-.3.4-.6.4a.4.4 0 0 1-.2-.1.5.5 0 0 1-.2-.3 3.9 3.9 0 0 1 0-.8v-3.8a8.2 8.2 0 0 0-.2-2 2.7 2.7 0 0 0-1-1.2 3.6 3.6 0 0 0-2.2-.6 6.7 6.7 0 0 0-2.2.3 3.7 3.7 0 0 0-1.6 1 2.1 2.1 0 0 0-.6 1.5 1.2 1.2 0 0 0 .4 1 1.6 1.6 0 0 0 1.1.3 1.4 1.4 0 0 0 1-.3 1.1 1.1 0 0 0 .4-.9 1.3 1.3 0 0 0-.4-.9.9.9 0 0 1-.3-.5.5.5 0 0 1 .3-.4 2 2 0 0 1 1-.3 1.4 1.4 0 0 1 .8.2 1.1 1.1 0 0 1 .5.5 4.7 4.7 0 0 1 0 1.4v1a18 18 0 0 0-4 2.3 2.7 2.7 0 0 0-1 2 1.8 1.8 0 0 0 .5 1.3 1.9 1.9 0 0 0 1.4.6 5.1 5.1 0 0 0 3.2-1.6 1.8 1.8 0 0 0 .6 1.2 2 2 0 0 0 1.2.4Zm-3-1.8a1 1 0 0 1-.7-.2 1.2 1.2 0 0 1-.4-.9 2 2 0 0 1 .4-1.1 6 6 0 0 1 1.9-1.6v3.3a2 2 0 0 1-1.2.5Zm7.7-9.5a1.6 1.6 0 0 0 1.1-.5 1.5 1.5 0 0 0 .5-1.1 1.6 1.6 0 0 0-1.6-1.6 1.5 1.5 0 0 0-1.2.5 1.6 1.6 0 0 0-.4 1.1 1.6 1.6 0 0 0 1.6 1.6Zm2.6 11.1v-.3a1.3 1.3 0 0 1-1-.3 2.3 2.3 0 0 1-.2-1.4v-7.6h-4v.4a1.3 1.3 0 0 1 .9.3 2.3 2.3 0 0 1 .2 1.3v5.6a2.3 2.3 0 0 1-.2 1.3 1.3 1.3 0 0 1-1 .4v.3Zm4.2.3 2.6-7 2.6 7h.6l2.7-7.6a5 5 0 0 1 .8-1.6 1.3 1.3 0 0 1 .7-.3v-.4h-2.9v.4a1.3 1.3 0 0 1 .8.2.8.8 0 0 1 .2.6 3.8 3.8 0 0 1-.3 1l-1.2 3.5-1.4-3.8a3.9 3.9 0 0 1-.3-1 .5.5 0 0 1 .2-.4 1.4 1.4 0 0 1 .7-.1v-.4h-5v.4a1.4 1.4 0 0 1 .8.3 3 3 0 0 1 .5 1l.1.2-1.3 3.8-1.5-3.8a5.1 5.1 0 0 1-.3-1 .4.4 0 0 1 .2-.4 1.2 1.2 0 0 1 .7-.1v-.4h-4.9v.4a1.4 1.4 0 0 1 .8.4 8 8 0 0 1 1 2.1l2.5 7Zm17-.1a2.3 2.3 0 0 0 1.3-.4 3.8 3.8 0 0 0 1-1l-.2-.3q-.3.4-.6.4a.4.4 0 0 1-.2-.1.5.5 0 0 1-.2-.3 3.9 3.9 0 0 1 0-.8v-3.8a8.2 8.2 0 0 0-.2-2 2.7 2.7 0 0 0-1-1.2 3.6 3.6 0 0 0-2.2-.6 6.7 6.7 0 0 0-2.2.3 3.7 3.7 0 0 0-1.6 1 2.1 2.1 0 0 0-.6 1.5 1.2 1.2 0 0 0 .4 1 1.6 1.6 0 0 0 1.1.3 1.4 1.4 0 0 0 1-.3 1.1 1.1 0 0 0 .4-.9 1.3 1.3 0 0 0-.4-.9.9.9 0 0 1-.3-.5.5.5 0 0 1 .3-.4 2 2 0 0 1 1-.3 1.4 1.4 0 0 1 .8.2 1.1 1.1 0 0 1 .5.5 4.7 4.7 0 0 1 0 1.4v1a18 18 0 0 0-4 2.3 2.7 2.7 0 0 0-1 2 1.8 1.8 0 0 0 .5 1.3 1.9 1.9 0 0 0 1.4.6 5.1 5.1 0 0 0 3.2-1.6 1.8 1.8 0 0 0 .6 1.2 2 2 0 0 0 1.2.4Zm-3-1.8a1 1 0 0 1-.7-.2 1.2 1.2 0 0 1-.4-.9 2 2 0 0 1 .4-1.1 6 6 0 0 1 1.9-1.6v3.3a2 2 0 0 1-1.2.5Zm10.2 1.6v-.3a1 1 0 0 1-.7-.4 2.9 2.9 0 0 1-.2-1.4v-5.1q.8-1.3 1.7-1.3a.8.8 0 0 1 .4.2 1 1 0 0 1 .4.4 7 7 0 0 1 0 1.5v4.3a3 3 0 0 1-.1 1.3 1 1 0 0 1-.8.5v.3h4.9v-.3a1.2 1.2 0 0 1-.9-.4 2.9 2.9 0 0 1-.2-1.4v-3.7a10 10 0 0 0-.1-2.3 2.5 2.5 0 0 0-.8-1.3 2.3 2.3 0 0 0-1.6-.5 3 3 0 0 0-1.5.4 5.7 5.7 0 0 0-1.4 1.1v-1.2h-4v.4a1.2 1.2 0 0 1 .9.3 2.8 2.8 0 0 1 .2 1.4v5.4a2.9 2.9 0 0 1-.2 1.4 1.2 1.2 0 0 1-.8.4v.4Zm9.3.4a4.7 4.7 0 0 0 2.5-.6 3.4 3.4 0 0 0 1.4-1.6 7.8 7.8 0 0 0 .4-3v-6.8a4.3 4.3 0 0 1 .1-1.3 1 1 0 0 1 .4-.5 2 2 0 0 1 1-.2h.5v-.4h-7.5v.4h.6a1.9 1.9 0 0 1 1 .2 1 1 0 0 1 .4.5 4.4 4.4 0 0 1 .1 1.3v7.7a15.6 15.6 0 0 1 0 2.5 1.2 1.2 0 0 1-.5.7 1.2 1.2 0 0 1-.7.2 1.7 1.7 0 0 1-1-.3.6.6 0 0 1-.3-.4 1.4 1.4 0 0 1 .3-.6 4.3 4.3 0 0 0 .3-.5 1.6 1.6 0 0 0 0-.5 1.3 1.3 0 0 0-.4-1 1.5 1.5 0 0 0-1-.4 1.5 1.5 0 0 0-1.1.4 1.6 1.6 0 0 0-.5 1.2 2.7 2.7 0 0 0 1.1 2 4.3 4.3 0 0 0 2.9 1Zm10.6 0a4.1 4.1 0 0 0 3.5-1.7 5.6 5.6 0 0 0 1-3.5 6.1 6.1 0 0 0-.5-2.6 4.2 4.2 0 0 0-1.7-1.9 4.5 4.5 0 0 0-2.3-.6 4 4 0 0 0-3.3 1.5 5.7 5.7 0 0 0-1.2 3.7 5.7 5.7 0 0 0 1.2 3.5 4 4 0 0 0 3.3 1.5Zm0-.8a1.2 1.2 0 0 1-.9-.4 2 2 0 0 1-.4-1 14 14 0 0 1-.2-2.1l.1-3.3a2.8 2.8 0 0 1 .5-1.6 1.2 1.2 0 0 1 1-.4 1 1 0 0 1 .6.2 1.8 1.8 0 0 1 .6 1 9.8 9.8 0 0 1 .2 2.4 23.9 23.9 0 0 1-.2 4 1.7 1.7 0 0 1-.5 1 1.2 1.2 0 0 1-.8.2Zm10.4.7a4.4 4.4 0 0 0 2.4-.6 4.7 4.7 0 0 0 1.7-2 6.5 6.5 0 0 0 .6-2.9 5.9 5.9 0 0 0-.5-2.5 3.9 3.9 0 0 0-1.4-1.6 3.3 3.3 0 0 0-1.9-.6 3.7 3.7 0 0 0-2.6 1.2v-5.3h-4v.4a1.6 1.6 0 0 1 .7.2.8.8 0 0 1 .3.4 4.2 4.2 0 0 1 .1 1v12.3h.4l1.6-1a4 4 0 0 0 1.2.8 3.7 3.7 0 0 0 1.4.2Zm-.2-.7a1.4 1.4 0 0 1-1-.4 1.7 1.7 0 0 1-.5-1 13.3 13.3 0 0 1 0-1.6v-4.3a2.3 2.3 0 0 1 1.7-1 1.2 1.2 0 0 1 1 .6 5.9 5.9 0 0 1 .6 3 13.5 13.5 0 0 1-.2 3.2 2.3 2.3 0 0 1-.7 1.2 1.4 1.4 0 0 1-.9.3Zm9 .7a3.3 3.3 0 0 0 1.6-.4 2.8 2.8 0 0 0 1.2-1.2 3.4 3.4 0 0 0 .4-1.5 2.8 2.8 0 0 0-.5-1.7 7.6 7.6 0 0 0-2-1.7 10 10 0 0 1-1.8-1.5.9.9 0 0 1-.3-.5.9.9 0 0 1 .3-.7 1 1 0 0 1 .8-.2 2.2 2.2 0 0 1 1.3.5 5.2 5.2 0 0 1 1.3 2h.4l-.2-3.3h-.3a2 2 0 0 1-.4.4.5.5 0 0 1-.3.1 1 1 0 0 1-.4-.1 3.3 3.3 0 0 0-1.6-.4 2.8 2.8 0 0 0-2.2.9 3 3 0 0 0-.8 2 3 3 0 0 0 .7 1.9 10.9 10.9 0 0 0 2 1.7 8.1 8.1 0 0 1 1.5 1 1.3 1.3 0 0 1 .3 1 1 1 0 0 1-.4.7 1.1 1.1 0 0 1-.8.3 2.5 2.5 0 0 1-1.5-.7 4.5 4.5 0 0 1-1.3-2h-.3l.1 3.4h.4q.2-.5.5-.5a1.5 1.5 0 0 1 .5.1 5.6 5.6 0 0 0 1.8.4Z"/>
  <g fill-rule="evenodd">
    <path fill="#228be6" d="M156 0a10 10 0 0 1 10 10h-1.9a8.1 8.1 0 0 0-8.1-8.1Z"/>
    <path fill="#a5d8ff" d="M156 3.3a6.7 6.7 0 0 1 6.7 6.7h-1.6a5 5 0 0 0-5-5h-.1Z"/>
    <path fill="#d0ebff" d="M156 6.1a3.9 3.9 0 0 1 3.9 3.9h-1.4a2.5 2.5 0 0 0-2.5-2.5Z"/>
  </g>
  <path fill="#212529" d="m58.7 29 1.7-.3 1.6-.2v-1h7.4v1.3l.3.1 1.6-.3 1.7-.2V22a2.7 2.7 0 0 1 .4-.4l.5-.5-1.2-.9L71 19l-.8.6-.7.7h-7.6l-1.4-.6-1.4-.5h.3l2.3-.3 4.5-.7 2.2-.6 2.2-.6q.5.6 1 1.6l.9 1.3h.1l1.6-1.4 1.3-1q-1.5-1.6-3.2-3l-2.5-2-.4-.3-.8.6-.8.8.8.9.8.9h-.1l-.7.2a16.2 16.2 0 0 1-2 .2l-2.5.2h-1.6l.1-.1 2.6-2.8 1.9-2.5-2-.5-2-.5a23.8 23.8 0 0 1-1.1 2.3L59 16.1H56v.3l.6 1.4.5 1.5h1.4V29ZM69.4 26H62v-4h7.4Zm22.9 3a3.3 3.3 0 0 0 .7-.3 2.8 2.8 0 0 0 .7-.3 3.4 3.4 0 0 0 .6-1.1l.3-1.2.4-.4.5-.3-1-.7-1-.8h.1v-2l.3-.3a2 2 0 0 1 .4-.3l-.8-.5-.7-.4.8-.3v-1.3.2l.3.7.2.7.7-.4.7-.4a5.1 5.1 0 0 0-.6-1.1l-.8-1-.5.2v-.7a2.1 2.1 0 0 1 .5-.1 2.8 2.8 0 0 0 .1.3l.2.4.6-.2.6-.2-.3-.8v-.1l-.2-.3-.5-1.1-.5.1-.5.2a3.8 3.8 0 0 0 .2.5h-.5a2.6 2.6 0 0 1-.4.1l.1-.2 1-1.5 1-1.4-.8-.4-.6-.2-.2-.1-.2.1-.4.8-.5.8-.3-.2 1-1.6.8-1.6-1-.3-.9-.3-.2.2-.4 1.4-.5 1.3-.3-.1h.2v-.7a4.2 4.2 0 0 0-.5-.4l-.7-.6a5 5 0 0 1-.6.5h-.3v-1l-.2-.1-1-.3-1-.2v1.6h-1.7v1l-.4-.1-.6-.2-.3.6-.5.8a4 4 0 0 0-.3-.2 16.1 16.1 0 0 0 .8-1.4l.8-1.5a6.2 6.2 0 0 0-1-.3l-1-.3-.4 1.4-.4 1.3-.4-.1-.3.4a4.9 4.9 0 0 0-.4.4l.8.9.8 1a2.4 2.4 0 0 1-.3.5l-.3.5h-.4a2.6 2.6 0 0 1 0-.5l-.4-.2-.5-.1-1.8 4-1.8 4.1.6 3 .3 2.6 1.6-1.2 1.7-1.2-.2-.3-.8-1.4-.8-1.2q.3-1.6.9-3.5l1-3.4v.7a1.8 1.8 0 0 1 .5 0h.5v.5l-.4-.1-.5-.2-.5 1-.2.5v.1l-.2.6.3.3.3.3a5.3 5.3 0 0 0 .6-.6 6.7 6.7 0 0 0 .5-.6l.1-.1v1.3h.2l1-.2 1-.1v-1.3.2l.2.7.2.7.5-.4.6-.4a7.4 7.4 0 0 0-.5-1.1l-.5-1q-.4 0-.6.2v-.7a2.5 2.5 0 0 1 .6-.1 4.9 4.9 0 0 0 .2.7l.4-.1.6-.1v3h.2l.8-.2.8-.1.1-.2h.5v.4h.2l.8-.1.8-.2.3.4a5.4 5.4 0 0 0 .7-.6l.5-.6h.1v1l-.7.3h-10v1.4h1v.2l-.5 2.3-.6 2.3h.3l1.5-.1 1.2-.1.2-.7h8v.2a1 1 0 0 1-1 .8l-1.8-.3-.1.5-.2.5.6.3a9 9 0 0 1 .8.3 2.9 2.9 0 0 1 .3.4 1.8 1.8 0 0 1 .3.4ZM79 13.7l1-1 .9-1.1a13 13 0 0 0-1.3-1l-1.5-1-.5.4-.4.5v.2l1 1.5.8 1.5Zm10.8-1-.3-.2a1.2 1.2 0 0 0-.3-.2h1l-.4.5Zm-1.3 0h-3.2v-.3l-.3-.2h4a4.5 4.5 0 0 0-.5.5Zm1.4 3.9-.7-.5-.7-.5a3.3 3.3 0 0 1-.7.5 5.3 5.3 0 0 1-1.2-.1l-1.1-.4v.4l-.4-.6-.3-.6a3.4 3.4 0 0 0-.5 0l-.4.2v.5h-.4l-.3.1 1-1.4 1-1.5.1.2v1h3.7l-.4.4h-3.3v1.2h5v-.7a3.3 3.3 0 0 0-.4-.3l-.6-.5v-.2h.8l.6.6.5.7a2.5 2.5 0 0 1-.4.6H90l-.2.1.2.8ZM77.9 18l.8-1.2.8-1.2-1.3-1-1-.6a5 5 0 0 0-.5.5l-.5.6.9 1.5.8 1.4Zm12 .6v-1l.3-.3h1.2v.5l-.5-.2-.4-.1-.3.6-.3.5Zm-1.9 0h-.5v-1.2h.5Zm2.7 3.9h-6.2l-.1-.4-1.2-.1a11.1 11.1 0 0 1-1.1-.2h8.6Zm1.2 1.9H84a4 4 0 0 1 .1-.7h6.5v.6l.8-.2.8-.1-.4.4Zm15.7-11.2v-1l-.9-.7q-.7-.5-1.1-1l-.6.6-.6.5h-1.1v-1.4l-1.7-.3-1.6-.3v2h-3.6v1.6ZM106.2 29a16.4 16.4 0 0 0 2.2-2.5 12.1 12.1 0 0 0 1.6-3v3.6a1.7 1.7 0 0 0 .8 1.1 2.1 2.1 0 0 0 .9.3h2.6a1.8 1.8 0 0 0 1.1-.6 2 2 0 0 0 .5-1.2l-.2-.4a2.4 2.4 0 0 1-.1-.4v-1.4l.1-.6-.6-.1-.7-.1-.2 1-.3 1-.2.2a1.4 1.4 0 0 1-.6-.1.4.4 0 0 1-.2-.3V19l-.8-.2-.9-.2-.2-.1a2.7 2.7 0 0 1 0-.5v-1.3h4.9v-1l-.9-.7-1.1-1-.6.6-.5.5H111v-4.9l-1.2-.3-1.3-.2a1.1 1.1 0 0 0-.5 0V15h-1.3l-1.2-.9-1.2-.8-.8.6-.7.5h-2.6l-1.6-.6-1.4-.5V21l1.4-.3 1.3-.2h.3v1.2l-1.4-.3-1.3-.2-.5 2.6-.6 2.8.6.3.5.4a2.6 2.6 0 0 1 .3-.4l.2-.3a1.5 1.5 0 0 1 .1.6 3 3 0 0 1 1.2.3 1.6 1.6 0 0 1 .7.9v.4h1.7a1.7 1.7 0 0 0 .9-.3 2.2 2.2 0 0 0 .6-1.2v-6.6l1.4-.3 1.3-.2.3-.1v-4l.2-.2v.8h1.6v2.1a20.3 20.3 0 0 1-.3 2.3 19.5 19.5 0 0 1-.8 3l-.8-1.4a8.5 8.5 0 0 0-1.6-1.8l-.6.3-.6.4v.3a21.6 21.6 0 0 1 .8 2.3l.6 2.3a5.9 5.9 0 0 1 .7-.3 6.3 6.3 0 0 1 .7-.2l-.7 1a7.3 7.3 0 0 0-.5 1l.7.6Zm7.2-15 .9-.6 1.2-1q-.5-.7-1.2-1.3a13.6 13.6 0 0 0-1.6-1.5l-.6.5-.6.4a13.8 13.8 0 0 0 .8 1.7l1 1.7ZM103 18.5h-2.7v-2.4h2.7Zm-2.8 7.5h-1.7l1-1.7a12.2 12.2 0 0 0 .7-1.9Zm24.4 3 1.5-.3 1.5-.3v-2.7a6.3 6.3 0 0 0 2.2 1.4 28 28 0 0 0 4.4 1.5l.8-1.3 1.1-1.8a17.3 17.3 0 0 1-3.6-.4 30.2 30.2 0 0 1-3.4-1h6.9v-.8l-.8-.7-1-.8a2.9 2.9 0 0 0-.4.3l-.5.5h-5.7v-1.2h7.2v-.8l-.3-.2-.6-.5-.9-.8-.4.4-.5.4h-4.5v-1h8v-.8l-.7-.7-1-.8-.4.3a6.3 6.3 0 0 1-.5.5h-2.4l.9-.6.8-.6a3 3 0 0 0-.4-.3 6 6 0 0 0-.5-.3h4.4v-.8a8.7 8.7 0 0 0-.9-.8l-.9-.7a4 4 0 0 0-.3.3 3.5 3.5 0 0 1-.6.5h-.8l1-1.2a16.6 16.6 0 0 0 1.3-1.9l-1.5-.5-1.5-.6a3.6 3.6 0 0 0-.2.5l-.8 1.8-.8 1.8v-3.7l-.2-.2-1.4-.2-1.4-.3V14h-1.3v-3.8l-.3-.2-1.4-.2-1.4-.3V14h-2l.8-.8.9-1V12a18 18 0 0 0-2-1.5l-1.5-.8a3.1 3.1 0 0 0-.6.6l-.7.7.2.3 1.1 1.1a14.5 14.5 0 0 1 1.5 1.6h-3.2v1.5h3.2l-.4.3.2.3.7.6.7.6h-4.5v1.5h7.6v1h-6.5v1.5h6.5v1.2h-7.6V24h5.3l-.3.3a16 16 0 0 1-1.6 1.3 36.4 36.4 0 0 1-3.6 1.8l.2.5.3.6a19.4 19.4 0 0 0 3.8-.7 11.4 11.4 0 0 0 3.5-1.7V29Zm2.7-11.6H124a2.3 2.3 0 0 0 .4-.6l-1-.7a10.6 10.6 0 0 0-1-.5h6.5l-.6.8-.7.8ZM139.4 29l.1-.1a13.2 13.2 0 0 0 .6-1.9l.5-1.8.2.4.5.7a5.8 5.8 0 0 0 1.5 1.4 6.4 6.4 0 0 0 2 .8h10.9l.3-1.4.3-1.4h-11.7l-.6-.2 1.2-.3 1.2-.2v-3.8h1.5v4h.3l1.3-.2 1.4-.3v-1.3q.4 0 .5.7a3 3 0 0 1 .2 1h2l.6-.1a2 2 0 0 0 .7-.4 2.5 2.5 0 0 0 .7-1.2V16a3.3 3.3 0 0 1 .3-.4 5.7 5.7 0 0 1 .4-.4l-.2-.2-1.2-1-1-.7-.2.1a3.3 3.3 0 0 0-.5.3l-.7.6h-.9a5.6 5.6 0 0 1 .6-.4 2.6 2.6 0 0 0-.5-.3l.3-.3 2-1a17.6 17.6 0 0 1 2-1l-1.5-1-1.4-.7h-.1q-.5.1-.6.3l-.6.3H143v1.5h4.2l-.4.3a4.5 4.5 0 0 1-.4.5v.1l1.3 1 .8.7h-2.2l-1.5-.6-1.4-.4v11.8l-.3-.2a3.5 3.5 0 0 1-.6-.8 3.3 3.3 0 0 1-.3-1v-5.4a3.4 3.4 0 0 1 .4-.4l.5-.4-.2-.2-1.2-.9-1.4-1-.6.4-.8.8h-2v1.5h2v5a9.6 9.6 0 0 1-.7 2.3 12.3 12.3 0 0 1-1.3 2l.1.2 1.5 1.1Zm.1-14.5 1.5-1.2 1-.8a3.6 3.6 0 0 1-.3-.3 9.5 9.5 0 0 0-1.5-1.5 12.6 12.6 0 0 0-1.7-1l-.6.4-.6.5a4.9 4.9 0 0 0 .5 1l.6.8a8.4 8.4 0 0 1 .5 1l.5 1Zm10.6-1.9-.9-.4-.8-.4-.4-.1h3.2l-.5.5-.6.4ZM148 17h-1.6v-1h1.6Zm4.6 0H151v-1H152.5Zm-4.6 2.7h-1.6v-1.2h1.6Zm4.6 0H151v-1.1H152.5Zm-.3 2.7h-.7a2 2 0 0 1-.6-.2v-1h1.6v1a1.7 1.7 0 0 1-.3.2Z"/>
  <g>
    <rect width="50" height="50" fill="url(#a)" rx="8" transform="translate(0 2)"/>
    <g fill="#fff" transform="translate(5.6 3.4)">
      <path d="M34 26v3.6a.3.3 0 0 1 0 .1l-.3.3-.2.2-.2.1-.1.1-.2.1v.1h-.1l-.1.1a18.5 18.5 0 0 1-2.6 1.6l-.4.2h-.2l-.3.2-.3.1-.2.1-.3.1-.2.1-.3.1h-.1l-.3.2-.6.2H26.7l-.1.1H26.3l-.3.2h-.4l-.3.1H25l-.4.2h-.3l-.4.1-1.3.3a.6.6 0 0 0-.4.6v12.6h4.4v-9.4a.2.2 0 0 1 .1-.2h.3l.2-.1h.3l.2-.2h.4l1-.4.4-.1.7-.3.3-.1.1-.1.3-.1h.1l.3-.2.8-.3a22.8 22.8 0 0 0 3.2-2h.1l.1-.2h.1l.2-.1.1-.2.2-.1.1-.1.2-.2.1-.1.2-.2.2-.1.2-.2.2-.2.2-.2.2-.2.5-.4a.6.6 0 0 0 .2-.5v-7.7l-4.3 2a.4.4 0 0 0-.2.4ZM4.5 26v3.6a.3.3 0 0 0 0 .1l.3.3.2.2.2.1.1.1.1.1.1.1.2.1a18.5 18.5 0 0 0 2.6 1.6l.4.2h.2l.2.2h.1l.3.1.2.1.3.1.2.1.3.1.3.2.7.2H11.8l.1.1H12.2l.2.2h.5l.3.1h.2l.3.2h.4l.4.1 1.2.3a.6.6 0 0 1 .5.6v12.6h-4.5v-9.4a.2.2 0 0 0-.1-.2h-.3l-.2-.1h-.2l-.3-.2H10.3l-1.1-.4-.3-.1L8 37 8 37l-.2-.1-.2-.1h-.2l-.2-.2a20 20 0 0 1-.8-.3 22.8 22.8 0 0 1-3.2-2h-.2V34h-.2l-.1-.1-.2-.2h-.1l-.2-.2-.1-.2-.2-.1-.2-.2-.1-.1-.2-.2-.2-.2-.2-.2-.2-.2-.5-.4a.6.6 0 0 1-.2-.5v-7.7l4.2 2a.4.4 0 0 1 .3.4ZM19.2 13.5a28.5 28.5 0 0 1 18.8 7l-4.3 2.3a24.2 24.2 0 0 0-29 0L.4 20.6a28.5 28.5 0 0 1 18.8-7Z"/>
      <ellipse cx="5.3" cy="5.2" rx="5.3" ry="5.2" transform="translate(14)"/>
    </g>
  </g>
</svg>