<svg xmlns="http://www.w3.org/2000/svg" xmlns:xlink="http://www.w3.org/1999/xlink" width="52.636" height="59.999" viewBox="0 0 52.636 59.999"><defs><linearGradient id="a" x1="-0.323" y1="-0.265" x2="1.329" y2="1.299" gradientUnits="objectBoundingBox"><stop offset="0" stop-color="#5876d1"/><stop offset="1" stop-color="#31488e"/></linearGradient><filter id="b" x="2.001" y="0" width="50.635" height="59.999" filterUnits="userSpaceOnUse"><feOffset dx="2" dy="2" input="SourceAlpha"/><feGaussianBlur stdDeviation="2" result="c"/><feFlood flood-opacity="0.161"/><feComposite operator="in" in2="c"/><feComposite in="SourceGraphic"/></filter></defs><g transform="translate(0 1.999)"><rect width="50" height="50" rx="14" fill="url(#a)"/><g transform="translate(6.001 2)"><g transform="matrix(1, 0, 0, 1, -6, -4)" filter="url(#b)"><path d="M10886.368,5496v-12.641a.608.608,0,0,1,.479-.594l1.272-.282.372-.082.351-.08.334-.079.211-.049.3-.074.279-.071.178-.046.246-.066.153-.044.145-.041.137-.041.126-.038.181-.058c.2-.065.413-.14.624-.213l.252-.093.128-.047.255-.1.255-.1.249-.1.243-.1.238-.1.114-.049.225-.1.214-.1c.137-.063.268-.126.386-.183a18.6,18.6,0,0,0,2.583-1.541l.041-.03.1-.077.05-.038.109-.087.115-.1.123-.1.2-.169.211-.186.225-.206.021-.019a.282.282,0,0,0,.071-.189v-3.529a.409.409,0,0,1,.225-.364l4.249-2.109v7.779a.608.608,0,0,1-.188.438l-.5.479-.2.191-.2.186-.191.178-.184.172-.181.162-.175.159-.167.147-.164.143-.159.137-.153.126-.147.123-.143.115-.068.052-.134.1c-.044.035-.088.065-.132.1a22.794,22.794,0,0,1-3.236,1.938c-.241.12-.509.246-.794.372l-.251.112c-.044.016-.085.036-.129.055l-.26.109-.135.055-.292.118c-.244.1-.5.194-.747.29l-.3.109c-.35.126-.7.246-1.028.35l-.077.025-.093.03-.243.074-.263.074-.222.06-.235.063-.246.063-.022.008a.211.211,0,0,0-.137.2V5496Zm-10.575,0v-9.41a.211.211,0,0,0-.137-.2l-.022-.008-.246-.063-.235-.063-.222-.06-.263-.074-.243-.074-.093-.03-.077-.025c-.331-.1-.679-.224-1.028-.35l-.3-.109c-.252-.1-.5-.191-.747-.29l-.292-.118-.135-.055-.26-.109c-.044-.019-.085-.039-.129-.055l-.251-.112c-.285-.126-.553-.252-.794-.372a22.861,22.861,0,0,1-3.237-1.937c-.043-.033-.087-.063-.131-.1l-.134-.1-.068-.052-.143-.115-.147-.123-.153-.126-.159-.137-.164-.143-.167-.147-.175-.159-.181-.162-.184-.172-.191-.178-.2-.186-.2-.191-.5-.479a.608.608,0,0,1-.188-.438V5471.7l4.249,2.109a.409.409,0,0,1,.225.364v3.529a.282.282,0,0,0,.071.189l.021.019.225.206.213.186.194.169.123.1.115.1.109.087.052.038.1.077.041.03a18.6,18.6,0,0,0,2.583,1.541c.118.057.249.12.386.183l.214.1.225.1.114.049.238.1.243.1.249.1.255.1.255.1.128.047.252.093c.211.074.421.148.624.213l.181.058.126.038.137.041.145.041.153.044.246.066.178.046.279.071.3.074.211.049.334.079.351.08.372.082,1.274.282a.609.609,0,0,1,.477.594V5496Zm-11.407-27.321a28.76,28.76,0,0,1,37.795-.058l-4.323,2.241a24.282,24.282,0,0,0-29.154.055Zm13.646-15.413a5.286,5.286,0,1,1,5.286,5.267A5.274,5.274,0,0,1,10878.031,5453.266Z" transform="translate(-10858 -5444)" fill="#fff"/></g></g></g></svg>