<svg xmlns="http://www.w3.org/2000/svg" width="152" height="60" viewBox="0 0 152 60"><g transform="translate(-139 -4663.479)" opacity="0.7"><rect width="152" height="60" transform="translate(139 4663.479)" fill="#212529" opacity="0"/><g transform="translate(140.816 4671.027)"><path d="M25.625,45.759H20.133V34.334A.546.546,0,0,0,19.7,33.8l-1.148-.255-.334-.075-.317-.073-.3-.07-.19-.046-.27-.067-.253-.064-.158-.041-.222-.06-.139-.039-.131-.038-.122-.036-.114-.036-.162-.052c-.176-.057-.364-.122-.561-.193l-.229-.083-.115-.043-.229-.086-.228-.089-.224-.09-.22-.09-.214-.091-.1-.044-.2-.089-.192-.087c-.133-.062-.247-.116-.347-.166A16.746,16.746,0,0,1,10.655,30.3l-.038-.029-.088-.068-.047-.036-.1-.078-.1-.086-.11-.093-.176-.153L9.8,29.593l-.2-.185-.019-.019a.26.26,0,0,1-.064-.17V26.03a.364.364,0,0,0-.2-.328L5.491,23.794v7.03a.554.554,0,0,0,.168.4l.45.432.182.175.177.167.172.161.167.155.162.148.157.141.152.135.147.129.142.122L7.7,33.1l.133.109.128.1.062.05.121.094,0,0,.113.084A20.624,20.624,0,0,0,11.18,35.3c.207.1.448.217.716.337l.226.1.114.049.236.1.12.049.263.107c.228.092.454.179.672.26l.27.1c.345.125.647.229.925.318l.07.023.083.026.22.066.235.068.2.055.211.057.221.058.021.006a.192.192,0,0,1,.124.18v8.5H6.048A6.055,6.055,0,0,1,0,39.71V6.048A6.055,6.055,0,0,1,6.048,0H39.71a6.055,6.055,0,0,1,6.048,6.048V39.71a6.055,6.055,0,0,1-6.048,6.048H29.651V37.253a.192.192,0,0,1,.124-.18l.021-.006.221-.058.211-.057.2-.055.235-.068.22-.066.083-.026.07-.023c.278-.089.581-.193.925-.318l.27-.1c.222-.082.448-.17.671-.26l.264-.107.12-.049.235-.1.115-.049.226-.1c.268-.12.508-.233.715-.337a20.629,20.629,0,0,0,2.914-1.752l.113-.084,0,0,.122-.094.062-.05.128-.1.133-.109.138-.116.142-.122.147-.129.152-.135.157-.141.162-.148.166-.155.172-.161.177-.167.182-.175.45-.432a.554.554,0,0,0,.168-.4v-7.03L36.443,25.7a.364.364,0,0,0-.2.328v3.19a.26.26,0,0,1-.064.17l-.019.019-.2.185-.191.168-.176.153-.11.093-.1.086-.1.078-.047.036-.088.068L35.1,30.3a16.806,16.806,0,0,1-2.326,1.391c-.1.05-.214.1-.347.166l-.192.087-.2.089-.1.044-.214.091-.22.09-.224.09-.228.089-.23.086-.115.043-.229.083c-.2.07-.385.135-.561.193l-.162.052-.114.036-.122.036-.13.038-.139.039-.222.06-.158.041-.253.064-.27.067-.19.046-.3.07-.317.073-.334.075-1.147.255a.546.546,0,0,0-.429.536V45.758ZM22.879,14.643a25.712,25.712,0,0,0-17.04,6.424l3.884,2.022a21.758,21.758,0,0,1,26.244-.05l3.89-2.025a25.709,25.709,0,0,0-16.978-6.371Zm0-12.263a4.759,4.759,0,1,0,4.759,4.759A4.765,4.765,0,0,0,22.879,2.38Zm87.044,42.988a3.88,3.88,0,0,1-2.6-.845,2.452,2.452,0,0,1-.991-1.869,1.458,1.458,0,0,1,.4-1.066,1.341,1.341,0,0,1,.986-.409,1.361,1.361,0,0,1,.963.366,1.192,1.192,0,0,1,.39.9,1.456,1.456,0,0,1-.066.46,3.931,3.931,0,0,1-.3.474,1.246,1.246,0,0,0-.258.54.52.52,0,0,0,.244.423,1.539,1.539,0,0,0,.931.263,1.052,1.052,0,0,0,.667-.206,1.144,1.144,0,0,0,.371-.644,14.3,14.3,0,0,0,.108-2.3V34.52a4.038,4.038,0,0,0-.108-1.221.976.976,0,0,0-.423-.427,1.7,1.7,0,0,0-.85-.183h-.535v-.347h6.772v.347h-.413a1.8,1.8,0,0,0-.9.2.913.913,0,0,0-.375.451,3.879,3.879,0,0,0-.1,1.184v6.236a7.123,7.123,0,0,1-.366,2.663,3.088,3.088,0,0,1-1.3,1.39A4.329,4.329,0,0,1,109.923,45.367ZM79.5,45.34h-.488l-2.338-6.368a7.308,7.308,0,0,0-.893-1.9,1.324,1.324,0,0,0-.714-.432v-.347H79.5v.347h-.011a1.042,1.042,0,0,0-.609.13.381.381,0,0,0-.169.3,4.67,4.67,0,0,0,.3.958l1.287,3.428,1.239-3.428-.094-.226a2.672,2.672,0,0,0-.493-.9,1.28,1.28,0,0,0-.653-.268v-.347h4.5v.347a1.309,1.309,0,0,0-.667.146.411.411,0,0,0-.141.334,3.531,3.531,0,0,0,.273.911L85.5,41.46,86.625,38.3a3.415,3.415,0,0,0,.244-.921.711.711,0,0,0-.178-.536A1.172,1.172,0,0,0,86,36.642v-.347h2.6v.347a1.164,1.164,0,0,0-.685.305,4.518,4.518,0,0,0-.658,1.414l-2.46,6.978h-.536l-2.4-6.443L79.5,45.339Zm57.511,0a5.139,5.139,0,0,1-1.681-.394,1.4,1.4,0,0,0-.385-.1c-.206,0-.38.158-.517.47h-.31l-.15-3.156h.319a4.1,4.1,0,0,0,1.16,1.86,2.233,2.233,0,0,0,1.394.619,1.025,1.025,0,0,0,.738-.276.907.907,0,0,0,.286-.672,1.165,1.165,0,0,0-.282-.779,7.409,7.409,0,0,0-1.259-1,9.935,9.935,0,0,1-1.859-1.522,2.66,2.66,0,0,1-.62-1.7,2.772,2.772,0,0,1,.7-1.836,2.52,2.52,0,0,1,2.024-.822,2.97,2.97,0,0,1,1.381.347.928.928,0,0,0,.413.141.474.474,0,0,0,.273-.071,1.807,1.807,0,0,0,.329-.4h.32l.14,3H139.1a4.735,4.735,0,0,0-1.189-1.823,1.983,1.983,0,0,0-1.226-.488.923.923,0,0,0-.657.258.8.8,0,0,0-.273.6.778.778,0,0,0,.188.489,9.057,9.057,0,0,0,1.681,1.319,6.962,6.962,0,0,1,1.817,1.588,2.579,2.579,0,0,1,.437,1.461,3.1,3.1,0,0,1-.366,1.437,2.593,2.593,0,0,1-1.033,1.08A2.969,2.969,0,0,1,137.007,45.339Zm-8.05,0a3.356,3.356,0,0,1-1.268-.225,3.579,3.579,0,0,1-1.09-.733l-1.455.949h-.32V34.162a3.835,3.835,0,0,0-.066-.939.737.737,0,0,0-.3-.391,1.479,1.479,0,0,0-.681-.145v-.347h3.645v4.837a3.338,3.338,0,0,1,2.423-1.146,3.031,3.031,0,0,1,1.7.531A3.552,3.552,0,0,1,132.8,38.07a5.345,5.345,0,0,1,.451,2.254,5.89,5.89,0,0,1-.573,2.611,4.321,4.321,0,0,1-1.531,1.79A3.98,3.98,0,0,1,128.957,45.339Zm.018-8.237a2.059,2.059,0,0,0-1.549.911V41.92a12,12,0,0,0,.056,1.522,1.579,1.579,0,0,0,.451.9,1.265,1.265,0,0,0,.911.343,1.286,1.286,0,0,0,.823-.273,2.129,2.129,0,0,0,.572-1.08,12.341,12.341,0,0,0,.23-2.912,5.35,5.35,0,0,0-.508-2.771A1.137,1.137,0,0,0,128.975,37.1Zm-9.4,8.237a3.642,3.642,0,0,1-3.053-1.39,5.156,5.156,0,0,1-1.07-3.222,5.225,5.225,0,0,1,1.094-3.292,3.614,3.614,0,0,1,3-1.4,4.094,4.094,0,0,1,2.132.591,3.806,3.806,0,0,1,1.5,1.681,5.573,5.573,0,0,1,.512,2.386,5.068,5.068,0,0,1-.949,3.128A3.757,3.757,0,0,1,119.571,45.339Zm.009-8.641a1.1,1.1,0,0,0-.822.362,2.537,2.537,0,0,0-.451,1.427c-.072.708-.108,1.7-.108,2.964a12.745,12.745,0,0,0,.131,1.878,1.826,1.826,0,0,0,.442,1.014,1.052,1.052,0,0,0,.77.347,1.064,1.064,0,0,0,.7-.235,1.577,1.577,0,0,0,.489-.892,21.8,21.8,0,0,0,.188-3.607,8.978,8.978,0,0,0-.178-2.193,1.69,1.69,0,0,0-.527-.869A.991.991,0,0,0,119.58,36.7ZM94.986,45.2a1.789,1.789,0,0,1-1.174-.353,1.6,1.6,0,0,1-.517-1.066A4.654,4.654,0,0,1,90.412,45.2a1.709,1.709,0,0,1-1.249-.493,1.677,1.677,0,0,1-.5-1.236,2.429,2.429,0,0,1,.865-1.808,16.468,16.468,0,0,1,3.766-2.137v-.883a4.3,4.3,0,0,0-.108-1.254,1.016,1.016,0,0,0-.409-.451,1.226,1.226,0,0,0-.676-.193,1.74,1.74,0,0,0-1.005.273.481.481,0,0,0-.244.394.823.823,0,0,0,.263.489,1.206,1.206,0,0,1,.357.779,1.043,1.043,0,0,1-.343.784,1.258,1.258,0,0,1-.9.324,1.441,1.441,0,0,1-.991-.356,1.1,1.1,0,0,1-.4-.836,1.954,1.954,0,0,1,.536-1.291,3.4,3.4,0,0,1,1.493-.944,6.134,6.134,0,0,1,1.991-.328,3.306,3.306,0,0,1,1.977.531,2.5,2.5,0,0,1,.944,1.15,7.507,7.507,0,0,1,.131,1.813v3.409a3.5,3.5,0,0,0,.047.757.451.451,0,0,0,.141.229A.334.334,0,0,0,96.32,44c.162,0,.329-.117.5-.347l.282.225a3.443,3.443,0,0,1-.972,1.01A2.114,2.114,0,0,1,94.986,45.2Zm-1.691-5.044a5.508,5.508,0,0,0-1.69,1.428,1.744,1.744,0,0,0-.366,1.023,1.084,1.084,0,0,0,.31.761.858.858,0,0,0,.658.253,1.809,1.809,0,0,0,1.089-.526ZM69.114,45.2a1.787,1.787,0,0,1-1.174-.353,1.6,1.6,0,0,1-.517-1.066A4.658,4.658,0,0,1,64.54,45.2a1.709,1.709,0,0,1-1.249-.493,1.676,1.676,0,0,1-.5-1.236,2.431,2.431,0,0,1,.864-1.808,16.461,16.461,0,0,1,3.767-2.137v-.883a4.3,4.3,0,0,0-.108-1.254,1.021,1.021,0,0,0-.409-.451,1.232,1.232,0,0,0-.677-.193,1.735,1.735,0,0,0-1,.273.482.482,0,0,0-.245.394.828.828,0,0,0,.263.489,1.206,1.206,0,0,1,.357.779,1.043,1.043,0,0,1-.343.784,1.259,1.259,0,0,1-.9.324,1.44,1.44,0,0,1-.991-.356,1.1,1.1,0,0,1-.4-.836,1.954,1.954,0,0,1,.536-1.291A3.4,3.4,0,0,1,65,36.36a6.136,6.136,0,0,1,1.992-.328,3.3,3.3,0,0,1,1.976.531,2.5,2.5,0,0,1,.944,1.15,7.476,7.476,0,0,1,.131,1.813v3.409a3.6,3.6,0,0,0,.047.757.451.451,0,0,0,.141.229.338.338,0,0,0,.216.076c.162,0,.329-.117.5-.347l.282.225a3.443,3.443,0,0,1-.972,1.01A2.114,2.114,0,0,1,69.114,45.2Zm-1.69-5.044a5.515,5.515,0,0,0-1.691,1.428,1.744,1.744,0,0,0-.366,1.023,1.084,1.084,0,0,0,.31.761.858.858,0,0,0,.658.253,1.814,1.814,0,0,0,1.09-.526Zm34.1,4.923H97.082v-.338a1.1,1.1,0,0,0,.789-.356,2.654,2.654,0,0,0,.159-1.221V38.2a2.544,2.544,0,0,0-.183-1.24,1.124,1.124,0,0,0-.766-.319v-.347h3.578v1.137a5.191,5.191,0,0,1,1.3-1.067,2.789,2.789,0,0,1,1.334-.333,2.136,2.136,0,0,1,1.418.474,2.278,2.278,0,0,1,.752,1.179,9.139,9.139,0,0,1,.15,2.056V43.16a2.625,2.625,0,0,0,.184,1.264,1.074,1.074,0,0,0,.765.314v.337h-4.442v-.338a.93.93,0,0,0,.714-.413,2.714,2.714,0,0,0,.15-1.165V39.254a6.311,6.311,0,0,0-.085-1.363.844.844,0,0,0-.286-.437.72.72,0,0,0-.446-.155c-.536,0-1.042.388-1.5,1.155V43.16a2.629,2.629,0,0,0,.184,1.249.933.933,0,0,0,.68.329v.338Zm-25.835,0H70.947v-.338a1.152,1.152,0,0,0,.864-.337A2.109,2.109,0,0,0,72,43.254V38.126a2.1,2.1,0,0,0-.216-1.188,1.165,1.165,0,0,0-.836-.3v-.347h3.682v6.96a2.1,2.1,0,0,0,.216,1.188,1.176,1.176,0,0,0,.845.3v.337Zm-14.092,0H54.93v-.347h.422a1.774,1.774,0,0,0,.893-.2.91.91,0,0,0,.385-.451,3.918,3.918,0,0,0,.1-1.183V33.073h-.92a2.687,2.687,0,0,0-1.869.545,3.618,3.618,0,0,0-1.033,2.17h-.357V32.341h11.44v3.447h-.338a5.478,5.478,0,0,0-.667-1.715,2.591,2.591,0,0,0-1.005-.832,3.24,3.24,0,0,0-1.249-.168h-.949V42.9a4.025,4.025,0,0,0,.108,1.22.969.969,0,0,0,.423.427,1.714,1.714,0,0,0,.86.184H61.6v.346ZM73.314,34.942a1.451,1.451,0,1,1,1.033-2.475A1.418,1.418,0,0,1,74.77,33.5a1.394,1.394,0,0,1-.427,1.024A1.417,1.417,0,0,1,73.314,34.942ZM126.1,24.748h0L125.158,24l-1.326-1.072-.073-.182a11.2,11.2,0,0,0,1.126-1.815,8.788,8.788,0,0,0,.708-2.016V14.343h-1.87v-1.4h1.834l.744-.671c.283-.246.461-.4.544-.454l1.253.981,1.072.835.2.145q-.019.019-.454.382a3.091,3.091,0,0,0-.4.4v4.9a3.046,3.046,0,0,0,.309.854,3.178,3.178,0,0,0,.545.726l.254.182V10.511l1.253.418c.508.17.973.347,1.381.527h2.015c-.313-.278-.569-.5-.762-.672-.339-.277-.723-.571-1.144-.871l-.037-.146a3.924,3.924,0,0,0,.418-.381c.152-.141.259-.235.309-.273H129.28V7.7h8.08c.142-.077.307-.175.491-.291.112-.074.295-.178.545-.309l.164.055c.41.243.82.488,1.217.726.424.265.874.548,1.416.89a16.019,16.019,0,0,0-1.852.816q-.435.236-1.8.981l-.254.218a2.359,2.359,0,0,1,.381.273,4.982,4.982,0,0,0-.49.4h.836l.635-.527a3.018,3.018,0,0,1,.418-.309l.2-.109c.208.157.509.4.871.69l1.144.908.109.182a5.127,5.127,0,0,0-.363.363,2.987,2.987,0,0,0-.236.309v6.7a2.294,2.294,0,0,1-.654,1.108,1.879,1.879,0,0,1-.6.382c-.194.036-.381.073-.563.109h-1.834a2.816,2.816,0,0,0-.127-.962c-.108-.35-.267-.539-.473-.563V20.9c-.407.077-.828.15-1.253.218-.375.075-.8.155-1.253.237l-.218-.055V17.684h-1.4v3.487l-1.071.2c-.3.059-.641.136-1.053.236.151.036.328.079.508.127.206.052.324.08.381.091h7.9l.018-.036h2.325c-.086.359-.182.762-.291,1.235-.063.3-.157.766-.273,1.344h-9.878a5.824,5.824,0,0,1-1.8-.762,5.28,5.28,0,0,1-1.417-1.308c-.121-.194-.248-.4-.382-.617-.106-.188-.175-.32-.2-.382l-.436,1.689a12.178,12.178,0,0,1-.58,1.67l-.072.09Zm10.441-7.064h0v.8a1.9,1.9,0,0,0,.527.145l.6.055a1.516,1.516,0,0,0,.327-.218v-.781Zm.182-2.488-.182.018v1.072H138V15.2Zm-4.34,0h0v1.09H133.8V15.2Zm4.34-2.361h0l-.182.055v.889H138v-.944h-1.271Zm-4.34,0h0v.944H133.8v-.944Zm1.544-3.758h0l.29.108c.177.07.438.189.8.363s.637.291.817.364c.1-.086.255-.224.473-.418s.381-.321.49-.418Zm-38,15.671h0l-.526-.454-.636-.508a6.63,6.63,0,0,1,.454-.835l.6-1.017a5.817,5.817,0,0,0-.617.237,5.153,5.153,0,0,0-.6.291c-.036-.129-.215-.759-.6-2.107a19.953,19.953,0,0,0-.653-2.07l-.055-.273c.077-.049.251-.16.563-.363.217-.132.412-.249.581-.346a7.806,7.806,0,0,1,1.417,1.707l.762,1.308a17.766,17.766,0,0,0,.672-2.76,18.667,18.667,0,0,0,.291-2.125V13.526H96.144v-.69l-.218.2V16.6l-.218.109c-.32.055-.7.122-1.235.218l-1.254.236v5.956a1.961,1.961,0,0,1-.544,1.108,1.592,1.592,0,0,1-.781.327h-1.58v-.4a1.433,1.433,0,0,0-.671-.835,2.67,2.67,0,0,0-1.017-.273,1.415,1.415,0,0,0-.091-.509c-.066.079-.147.173-.218.255a2.4,2.4,0,0,0-.273.363c-.135-.086-.3-.2-.49-.327l-.472-.291c.139-.676.306-1.519.508-2.578.2-1.021.356-1.809.454-2.343q.434.081,1.031.188l.167.03,1.235.236V16.994l-.218-.036c-.361.048-.776.115-1.235.2l-1.235.236V10.511c.314.113.729.272,1.235.473l1.453.581h2.415c.161-.127.369-.293.635-.509.314-.241.558-.425.726-.545.352.239.712.5,1.072.763.336.24.7.515,1.071.817h1.181V7.1c.026,0,.053,0,.079,0A1.073,1.073,0,0,1,98,7.152l1.18.236,1.162.236v4.468H101.9c.1-.117.255-.273.472-.491.217-.192.4-.351.545-.473.244.207.59.506,1.035.89.425.369.708.607.8.672v.835h-4.412v1.162a2.439,2.439,0,0,0-.037.436l.218.127.745.164c.268.058.519.119.744.182v6.028a.333.333,0,0,0,.236.219,1.3,1.3,0,0,0,.527.09l.2-.2c.059-.261.133-.561.218-.889.059-.262.139-.562.237-.89.141.013.341.045.581.091.258.047.46.078.6.091-.012.137-.038.338-.073.581-.037.262-.061.452-.072.58v.635a2.077,2.077,0,0,0,.109.382l.145.4a1.872,1.872,0,0,1-.382,1.053,1.659,1.659,0,0,1-1,.6H100.9a1.921,1.921,0,0,1-.817-.273,1.544,1.544,0,0,1-.671-1V19.845a11.08,11.08,0,0,1-1.435,2.633,15.081,15.081,0,0,1-2.051,2.269Zm-5.448-6.011a11.111,11.111,0,0,1-.654,1.652c-.152.318-.431.835-.853,1.58h.581l.018.036h.908Zm.109-5.774v2.2h2.488v-2.2ZM52.822,24.711h0l-.182-.054V15.887l-.563.054c-.218.012-.414.018-.581.018l-.091-.072q-.217-.6-.491-1.344l-.49-1.308-.055-.273h.617l.018.055h2.216c1.2-1.7,2.061-2.986,2.56-3.813a21.871,21.871,0,0,0,1.107-2.143l1.761.491,1.762.472c-.486.669-1.067,1.408-1.725,2.2-.821,1-1.6,1.869-2.307,2.579l-.109.163.018,0c.253,0,.734-.029,1.472-.089l2.306-.181a14.733,14.733,0,0,0,1.707-.182c.242-.051.431-.09.565-.118l.027-.006.082-.016.125-.024c-.212-.237-.455-.5-.745-.817l-.78-.8.016-.015L61.828,10l.69-.6c.116.069.234.146.364.236.8.607,1.564,1.224,2.27,1.834,1.017.884,1.988,1.807,2.887,2.741-.261.2-.64.519-1.126.945-.421.36-.91.782-1.453,1.253l-.128.036c-.18-.324-.424-.733-.726-1.217-.362-.587-.671-1.068-.944-1.471-.5.137-1.321.352-2.052.544l-2.015.545c-1.7.3-3.021.511-4.032.653-.661.1-1.369.182-2.106.254h-.273l1.254.49,1.3.541.009,0h6.846c.247-.222.485-.423.708-.6.241-.2.486-.391.726-.581.4.3.9.686,1.544,1.18l1.071.817c-.125.1-.281.24-.491.437a2.416,2.416,0,0,0-.363.363v5.7l-1.508.236c-.553.084-1.054.169-1.489.254l-.218-.054V23.277H55.818V24.2l-1.489.255c-.542.084-1.049.17-1.506.254Zm3-6.519v3.686h6.755V18.193Zm56.83,6.5h0l-.219-.036V22.115a10.4,10.4,0,0,1-3.1,1.58,17.774,17.774,0,0,1-3.487.6l-.236-.509c-.083-.19-.157-.349-.218-.472a32.781,32.781,0,0,0,3.287-1.616,14.6,14.6,0,0,0,1.453-1.18l.236-.255h-4.83v-1.4h6.9V17.83h-5.865V16.449h5.865v-.926h-6.881v-1.4h4.122c-.213-.171-.427-.349-.636-.527l-.671-.562-.127-.2c.091-.092.192-.187.309-.291h-2.869V11.129h2.851a13.23,13.23,0,0,0-1.29-1.416c-.264-.252-.618-.588-1.053-1l-.127-.236c.169-.23.364-.468.581-.708a2.856,2.856,0,0,1,.526-.491c.686.349,1.156.6,1.4.744a16.555,16.555,0,0,1,1.8,1.326l.019.127c-.255.285-.536.6-.836.926l-.653.726h1.743V7.061l1.29.254c.5.086.939.172,1.307.255l.218.109v3.45h1.163V7.061l1.271.254c.487.086.927.172,1.308.255l.218.109v3.4c.176-.364.421-.92.726-1.652.308-.7.527-1.237.671-1.634a3.266,3.266,0,0,1,.219-.4c.623.212,1.068.373,1.362.491.516.189.955.355,1.344.508a15.18,15.18,0,0,1-1.162,1.688c-.316.389-.621.743-.908,1.053h.726a3.23,3.23,0,0,0,.491-.4,3.439,3.439,0,0,1,.327-.309l.817.653a8,8,0,0,1,.78.744v.726h-4a5.382,5.382,0,0,1,.508.273,2.866,2.866,0,0,1,.346.254c-.333.236-.574.4-.781.545-.29.193-.565.364-.817.508h2.234a5.819,5.819,0,0,0,.472-.418c.2-.174.31-.267.346-.29.33.275.627.524.908.762.3.265.533.479.689.635v.708h-7.336v.926h4.068l.436-.4c.181-.157.315-.267.4-.327.223.211.5.456.817.726l.562.473.236.181v.727h-6.519v1.035h5.157l.436-.4a2.56,2.56,0,0,1,.4-.327c.288.227.584.476.908.762.28.244.518.464.708.653v.708h-6.247a27.357,27.357,0,0,0,3.124.908,15.8,15.8,0,0,0,3.232.364c-.2.294-.535.834-1.035,1.652-.4.637-.642,1.017-.726,1.162a25.538,25.538,0,0,1-4-1.362,5.788,5.788,0,0,1-1.961-1.308v2.506c-.511.091-.956.168-1.362.237-.467.091-.925.182-1.362.272Zm-2.015-12.148h0a9.7,9.7,0,0,1,.926.471c.2.111.509.3.926.563a2.137,2.137,0,0,1-.4.545h3.033l.236-.182c.178-.178.38-.4.617-.69l.6-.708ZM69.742,24.531v0c-.094-.784-.2-1.565-.325-2.324-.169-1.1-.353-2.031-.545-2.778l.372-.842q.677-1.533,1.263-2.862c.525-1.16,1.072-2.36,1.67-3.668.116.039.254.09.4.146.1.038.252.088.436.145a2.346,2.346,0,0,0-.072.436h.4l.309-.436a2.209,2.209,0,0,0,.254-.436c-.335-.421-.572-.724-.726-.926-.276-.338-.507-.617-.708-.853a4.37,4.37,0,0,1,.309-.364c.126-.138.233-.251.327-.345l.291.091c.129-.366.263-.747.418-1.2.126-.39.255-.8.382-1.217l.853.237a5.745,5.745,0,0,1,.89.272c-.208.488-.428.946-.653,1.362a14.8,14.8,0,0,1-.8,1.29c.1.063.2.136.309.218.1-.2.239-.447.418-.744.122-.22.232-.409.327-.563l.526.182c.2.06.333.1.382.109V8.5h1.471V7.1l.926.2q.545.127.944.218L80,7.624V8.5h.273a4.488,4.488,0,0,0,.526-.454l.635.545a3.676,3.676,0,0,1,.4.363v.617l-.127.055.236.109c.214-.522.373-.926.472-1.2.156-.442.29-.858.4-1.235l.145-.182.835.237.854.254c-.24.517-.5,1.018-.763,1.489-.279.5-.566.974-.853,1.416l.309.164c.126-.216.254-.435.4-.69.1-.16.233-.392.4-.689l.145-.128.2.076q.257.1.567.215l.8.309-.926,1.326c-.353.523-.665.963-.926,1.308l-.163.254h.007A2.238,2.238,0,0,0,84.2,12.6c.094-.014.268-.046.49-.091a3.449,3.449,0,0,1-.145-.418c.19-.076.32-.13.4-.164.154-.048.3-.09.437-.127.153.294.317.63.49,1,.032.066.067.141.107.228l.063.138c.089.194.2.431.32.706-.2.068-.4.135-.58.2-.217.077-.4.148-.563.218-.037-.086-.079-.208-.127-.363a2.464,2.464,0,0,1-.109-.328,1.936,1.936,0,0,0-.508.128v.6l.472-.236c.329.414.567.731.708.944a4.686,4.686,0,0,1,.563,1.035l-.323.181-.295.164c-.2.107-.411.223-.617.345-.1-.284-.164-.492-.2-.635-.073-.229-.14-.431-.2-.6l-.109-.2V16.5c-.207.068-.427.151-.672.254l.654.436c.225.167.445.32.653.455a1.911,1.911,0,0,0-.291.272l-.272.273v1.779l-.073.037c.242.2.529.437.853.689.193.157.486.383.872.672l-.4.273-.4.29c-.175.666-.279,1.053-.291,1.09a3.106,3.106,0,0,1-.508,1,2.541,2.541,0,0,1-.6.309,3.031,3.031,0,0,1-.689.2H81.837a1.64,1.64,0,0,0-.2-.382,2.632,2.632,0,0,0-.272-.345,8.265,8.265,0,0,0-.781-.328l-.527-.2c.049-.145.1-.3.145-.454.025-.1.07-.259.128-.454.984.166,1.53.254,1.58.254a.844.844,0,0,0,.89-.744v-.218H75.645c-.069.23-.131.45-.182.653l-.954.078-.153.013c-.455.036-.925.078-1.4.127H72.7c.218-.871.394-1.593.508-2.088.208-.828.38-1.511.527-2.088l.018-.237h-.89v-1.2H81.91q.327-.2.6-.364V15.65l-.091.073c-.188.225-.349.4-.49.544a4.919,4.919,0,0,1-.563.49c-.125-.112-.235-.216-.328-.309-.2.031-.432.072-.726.127-.225.048-.451.1-.671.164l-.218-.055V16.3h-.455l-.109.2-.708.127c-.146.034-.391.089-.726.163l-.2-.036V14.053c-.173.025-.34.054-.509.091-.138.034-.254.065-.345.091a4.463,4.463,0,0,1-.218-.636,2.218,2.218,0,0,0-.509.128v.6c.14-.07.3-.147.491-.237.317.594.464.873.508.963a6.827,6.827,0,0,1,.436,1.016c-.156.1-.339.212-.545.346-.113.074-.284.19-.509.345-.07-.265-.122-.471-.159-.615l-.005-.02c-.049-.231-.091-.445-.127-.635l-.091-.182v1.2l-.871.145-.854.164-.218-.055V15.614l-.073.091a5.935,5.935,0,0,1-.454.563,4.79,4.79,0,0,1-.526.49c-.154-.128-.252-.215-.309-.273-.111-.1-.215-.191-.309-.272l.064-.158.127-.308.066-.157c.07-.165.118-.28.161-.375.159-.365.318-.7.472-.98.19.083.336.144.436.181.179.06.3.1.345.109v-.472H73.23a1.685,1.685,0,0,0-.364.036c-.062-.236-.11-.456-.145-.653l-.5,1.8-.37,1.323c-.306,1.119-.581,2.164-.817,3.1.274.4.531.791.763,1.163.254.387.5.79.744,1.2.036.108.078.224.127.346L71.2,23.458c-.531.4-1.02.759-1.453,1.072Zm6.247-4.613a3.644,3.644,0,0,0-.109.6h7.046c.145-.133.284-.261.418-.382-.2.051-.449.1-.726.145l-.708.128v-.49Zm-1.96-1.8h0a10.321,10.321,0,0,0,1.016.2l1.09.146.073.291h5.7V18.12Zm7.354-4.067h0l-.2.218v1c.06-.108.14-.267.236-.473l.046-.111c.081-.2.137-.328.166-.4l.015-.036.008-.018c.157.06.291.109.4.145.176.063.325.11.455.145v-.472H81.383Zm-2.434.127V15.25h.473V14.179Zm.981-1.525h0c.221.139.435.275.653.417.145.085.359.225.635.418-.05-.2-.092-.419-.127-.653l.164-.091h.8a2.26,2.26,0,0,0,.364-.6c-.176-.213-.336-.4-.49-.581s-.314-.354-.491-.545h-.762l.054.146.508.436a2.963,2.963,0,0,1,.328.309v.6h-4.54v-1.09H80.04c.146-.135.287-.269.418-.4h-3.4V10.13l-.055-.164-.105.152c-.294.418-.575.818-.839,1.191-.327.468-.645.92-.944,1.344.077-.011.184-.027.345-.054.14-.023.275-.042.4-.055-.049-.183-.085-.348-.109-.49.245-.061.375-.09.4-.09a3.043,3.043,0,0,1,.418-.11l.291.545c.142.219.261.4.363.544v-.291l1.035.291a4.838,4.838,0,0,0,1.09.145,3.066,3.066,0,0,0,.581-.435Zm.853-3.087-.2.018a1.141,1.141,0,0,1,.273.2l.327.255c.128-.179.241-.334.345-.472Zm-4.012,0h0l.253.127.037.272h2.923a4.084,4.084,0,0,1,.473-.4Zm-6.537,5.121h0c-.121-.182-.359-.591-.707-1.216-.395-.694-.67-1.17-.817-1.417.193-.229.346-.4.454-.509a4.6,4.6,0,0,1,.454-.49q.4.271.925.635.666.482,1.117.812l.082.06c-.2.269-.441.6-.762,1.054l-.743,1.07Zm55.94-3.087h0l-.072-.126-.436-.89a7.613,7.613,0,0,0-.455-.853l-.544-.817a4.362,4.362,0,0,1-.454-.817c.115-.1.3-.259.527-.454.254-.2.422-.343.526-.437a11.58,11.58,0,0,1,1.525,1,8.678,8.678,0,0,1,1.344,1.308,3.437,3.437,0,0,0,.272.309c-.2.178-.491.41-.853.689-.455.365-.919.731-1.379,1.089Zm-23.693-.436h0l-.144-.055c-.146-.328-.421-.853-.817-1.562a12.429,12.429,0,0,1-.762-1.561c.129-.094.3-.224.508-.4.272-.2.456-.335.563-.418A12.416,12.416,0,0,1,103.335,8.5c.367.367.727.752,1.071,1.144l.018.127c-.43.335-.815.622-1.144.854-.429.306-.69.484-.8.544Zm-31.1-.273h0c-.29-.507-.558-.971-.8-1.378-.295-.479-.576-.925-.835-1.326l-.073-.2c.076-.088.2-.216.364-.382l.034-.034c.115-.114.275-.268.473-.456.429.262.893.567,1.381.908a12.1,12.1,0,0,1,1.144.926c-.29.315-.577.638-.853.963-.267.3-.54.621-.834.979Zm25.8-.563H87.028v-1.4h3.323V7.061l1.4.254c.56.1,1.073.209,1.526.309V8.932H94.31c.144-.144.322-.316.544-.527.218-.194.389-.34.509-.436.294.232.638.517,1.053.871.382.322.639.548.763.672v.816Zm52.654-1.674h-1.6A7.061,7.061,0,0,0,141.177,1.6V0a8.666,8.666,0,0,1,8.656,8.655Zm-2.565,0h-1.444V8.635a4.569,4.569,0,0,0-4.567-4.468h-.08v-1.6a6.1,6.1,0,0,1,6.091,6.09Zm-2.565,0h-1.282a2.247,2.247,0,0,0-2.245-2.245V5.129A3.531,3.531,0,0,1,144.7,8.655Z" fill="#212529"/></g></g></svg>