<svg xmlns="http://www.w3.org/2000/svg" width="106" height="67" viewBox="0 0 106 67"><g transform="translate(0.033 0.403)" style="mix-blend-mode:luminosity;isolation:isolate"><g transform="translate(22.487 16.649)"><path d="M-197.9,22.609h-9.492V2.646L-207.536.7a2.239,2.239,0,0,0-2.042-1.313,1.451,1.451,0,0,0-.216.011h-.05a.691.691,0,0,1-.717-.38.535.535,0,0,1-.025-.276V-5.521c0-.534.586-.766.956-.859a13.9,13.9,0,0,0,5.776-3.985l.155-.179h5.8V22.609Z" transform="translate(210.594 10.545)" fill="#d50918"/><path d="M-178.3,22.609h-9.492V2.646L-187.935.7a2.238,2.238,0,0,0-2.041-1.313,1.462,1.462,0,0,0-.217.011h-.049a.691.691,0,0,1-.717-.38.535.535,0,0,1-.025-.276V-5.521c0-.534.585-.766.955-.859a13.893,13.893,0,0,0,5.776-3.985l.155-.179h5.8V22.609Z" transform="translate(207.202 10.545)" fill="#d50918"/><path d="M-159.123,22.609h-9.492V2.646L-168.757.7A2.238,2.238,0,0,0-170.8-.618a1.457,1.457,0,0,0-.216.011h-.05a.691.691,0,0,1-.717-.38.527.527,0,0,1-.021-.274V-5.521c0-.534.585-.766.955-.859a13.9,13.9,0,0,0,5.776-3.985l.155-.179h5.8V22.609Z" transform="translate(203.884 10.545)" fill="#d50918"/><path d="M-139.518,22.609h-9.491V2.646L-149.152.7a2.233,2.233,0,0,0-2.041-1.313,1.447,1.447,0,0,0-.216.011h-.05a.69.69,0,0,1-.717-.38.536.536,0,0,1-.025-.276V-5.521c0-.534.585-.766.956-.859a13.9,13.9,0,0,0,5.776-3.985l.155-.179h5.8V22.609Z" transform="translate(200.492 10.545)" fill="#d50918"/></g><g opacity="0"><rect width="106" height="67" transform="translate(-0.033 -0.403)" fill="#fff"/><path d="M1,1V66H105V1H1M0,0H106V67H0Z" transform="translate(-0.033 -0.403)" fill="#707070"/></g></g></svg>