<svg xmlns="http://www.w3.org/2000/svg" xmlns:xlink="http://www.w3.org/1999/xlink" width="128" height="128" viewBox="0 0 128 128"><defs><linearGradient id="a" x1="0.5" y1="1" x2="0.5" gradientUnits="objectBoundingBox"><stop offset="0" stop-color="#ced4da"/><stop offset="1" stop-color="#adb5bd"/></linearGradient><linearGradient id="b" x1="0.5" y1="1" x2="0.5" gradientUnits="objectBoundingBox"><stop offset="0" stop-color="#ced4da"/><stop offset="1" stop-color="#dee2e6"/></linearGradient><clipPath id="c"><circle cx="64" cy="64" r="64" fill="url(#a)"/></clipPath></defs><g transform="translate(18343 -1411)"><circle cx="64" cy="64" r="64" transform="translate(-18343 1411)" fill="url(#b)"/><g transform="translate(-18343 1411)" clip-path="url(#c)"><g transform="translate(43 -103.398)"><rect width="2.197" height="20.634" transform="translate(99.768 10.519)" fill="#f7f7f7"/><rect width="0.697" height="20.634" transform="translate(100.172 10.519)" fill="#e5e5e5"/><circle cx="3.34" cy="3.34" r="3.34" transform="translate(97.529 5.005)" fill="#18162e"/><path d="M1191.184,771.661h-7.668v21.354h7.668c3.869,0,7.654-4.78,7.654-10.676S1195.053,771.661,1191.184,771.661Z" transform="translate(-1088.042 -741.242)" fill="#18162e"/><path d="M339.854,793.015V771.661h-7.666c-3.869,0-7.654,4.78-7.654,10.676s3.786,10.676,7.654,10.676Z" transform="translate(-324.533 -741.242)" fill="#18162e"/><g transform="translate(2.109 30.419)"><path d="M346.921,782.337c0-5.9,3.786-10.676,7.657-10.676h-3.462c-3.869,0-7.657,4.78-7.657,10.676s3.786,10.676,7.657,10.676h3.462C350.709,793.015,346.921,788.235,346.921,782.337Z" transform="translate(-343.459 -771.661)" fill="#0a0a11"/><rect width="2.389" height="21.347" transform="translate(9.831 0.007)" fill="#0a0a11"/><g transform="translate(94.356)"><path d="M1210.013,782.337c0-5.9-3.786-10.676-7.655-10.676h3.463c3.871,0,7.656,4.78,7.656,10.676s-3.786,10.676-7.656,10.676h-3.463C1206.228,793.015,1210.013,788.235,1210.013,782.337Z" transform="translate(-1201.253 -771.661)" fill="#2a2a3f"/><rect width="2.389" height="21.347" transform="translate(2.389 21.354) rotate(180)" fill="#2a2a3f"/></g></g><path d="M7.1,0h0V27.607h0A7.1,7.1,0,0,1,0,20.514V7.1A7.1,7.1,0,0,1,7.1,0Z" transform="translate(13.011 27.291)" fill="#f7f7f7"/><path d="M458.912,771.055a3.887,3.887,0,0,1-2.832-3.894V747.5a3.889,3.889,0,0,1,2.832-3.894v-.079h-.736a3.774,3.774,0,0,0-3.539,3.973v19.662a3.774,3.774,0,0,0,3.539,3.973h.736Z" transform="translate(-440.177 -716.235)" fill="#e5e5e5"/><path d="M0,0H0A7.1,7.1,0,0,1,7.1,7.1V20.514A7.1,7.1,0,0,1,0,27.607H0Z" transform="translate(90.692 27.291)" fill="#f7f7f7"/><path d="M1153.159,771.055a3.887,3.887,0,0,0,2.832-3.894V747.5a3.888,3.888,0,0,0-2.832-3.894v-.078h.736a3.774,3.774,0,0,1,3.538,3.973v19.662a3.774,3.774,0,0,1-3.538,3.973h-.736Z" transform="translate(-1061.059 -716.235)" fill="#fff"/><g transform="translate(18.696 0)"><path d="M529.448,497.986a40.693,40.693,0,0,0-36.7,22.672v36.658c6.694,13.591,20.615,18.674,36.7,18.674s30.008-5.078,36.7-18.674V520.658A40.693,40.693,0,0,0,529.448,497.986Z" transform="translate(-492.746 -497.986)" fill="#f7f7f7"/><g transform="translate(2.835 0.001)"><path d="M525.153,557.316V520.658c4.919-13.591,15.131-22.672,26.938-22.672A36.282,36.282,0,0,0,525.04,510.22a26.294,26.294,0,0,0-6.819,17.64v20.373A27.393,27.393,0,0,0,539.1,574.443a51.394,51.394,0,0,0,13,1.542C540.284,575.99,530.072,570.907,525.153,557.316Z" transform="translate(-518.221 -497.986)" fill="#e5e5e5"/><path d="M822.951,497.986h0c11.807,0,22.019,9.081,26.935,22.672v36.658c-4.919,13.591-15.131,18.674-26.935,18.674h0a51.4,51.4,0,0,0,13-1.542,27.393,27.393,0,0,0,20.876-26.211V527.865A26.291,26.291,0,0,0,850,510.224a36.28,36.28,0,0,0-27.053-12.238Z" transform="translate(-789.084 -497.986)" fill="#fff"/></g><path d="M596.357,727.908a5.258,5.258,0,0,1-4.243,4.263,426.22,426.22,0,0,1-53.718,0,5.258,5.258,0,0,1-4.243-4.263,70.091,70.091,0,0,1,0-25,5.26,5.26,0,0,1,4.243-4.263,426.27,426.27,0,0,1,53.719,0,5.258,5.258,0,0,1,4.243,4.264,70.1,70.1,0,0,1,0,25Z" transform="translate(-528.555 -675.583)" fill="#18162e"/><g transform="translate(4.478 22.209)"><path d="M797.865,1014.621q-1.567,0-3.137-.011Q796.3,1014.621,797.865,1014.621Z" transform="translate(-765.641 -979.395)" fill="#0a0a11"/><path d="M534.162,705.124a5.172,5.172,0,0,1,4.243-4.114,441.837,441.837,0,0,1,53.719,0,5.171,5.171,0,0,1,4.243,4.113,53.631,53.631,0,0,1,1.122,10.6,70.514,70.514,0,0,0-1.122-12.818,5.259,5.259,0,0,0-4.243-4.264,426.289,426.289,0,0,0-53.718,0,5.258,5.258,0,0,0-4.243,4.263,70.44,70.44,0,0,0-1.122,12.818,53.614,53.614,0,0,1,1.122-10.6Z" transform="translate(-533.04 -697.793)" fill="#0a0a11"/><path d="M822.95,1014.621q1.567,0,3.137-.011Q824.517,1014.621,822.95,1014.621Z" transform="translate(-790.726 -979.395)" fill="#0a0a11"/><path d="M855.85,1014.363l2.278-.025Z" transform="translate(-819.969 -979.155)" fill="#0a0a11"/><path d="M746.82,1013.956h0Z" transform="translate(-722.769 -978.808)" fill="#0a0a11"/><path d="M896.5,1013.956h0Z" transform="translate(-856.099 -978.808)" fill="#0a0a11"/><path d="M771.836,1014.363l-2.278-.025Z" transform="translate(-743.268 -979.155)" fill="#0a0a11"/></g><path d="M780.917,925.651c0,1.948-2.689,3.53-6,3.53s-6-1.579-6-3.53Z" transform="translate(-738.209 -878.116)" fill="#f7f7f7"/><circle cx="5.727" cy="5.727" r="5.727" transform="translate(16.673 32.141)" fill="#f5df4d"/><circle cx="5.727" cy="5.727" r="5.727" transform="translate(45.233 32.141)" fill="#f5df4d"/></g><path d="M1207.571,548.834a4.478,4.478,0,0,1-2.35-4.155,3.725,3.725,0,0,1,.377-1.655c-.088,0-.178-.012-.268-.012a3.34,3.34,0,1,0,2.241,5.817Z" transform="translate(-1104.461 -538.013)" fill="#0a0a11"/><g transform="translate(5.978 57.433)"><path d="M389.763,1037.136l-5.955-21.871a.743.743,0,0,0-.935-.515c-3.25,1-5.658,2.216-4.012,8.261,1.6,5.859,6.463,14.254,10.036,15.05a.743.743,0,0,0,.866-.926Z" transform="translate(-378.329 -1014.713)" fill="#2a2a3f"/><path d="M389.764,1037.138l-.018-.064a4.237,4.237,0,0,0-.72-.979,25.1,25.1,0,0,1-5.893-8.51,18,18,0,0,1-.383-10.7,6.429,6.429,0,0,1,.845-1.969.741.741,0,0,0-.72-.164c-3.25,1-5.658,2.216-4.012,8.261,1.6,5.859,6.463,14.254,10.036,15.05a.741.741,0,0,0,.866-.923Z" transform="translate(-378.329 -1014.718)" fill="#0a0a11"/></g></g></g><g transform="translate(-18338 1432.003)" style="mix-blend-mode:luminosity;isolation:isolate"><path d="M5.971,63.832V59.094H5.217a4.051,4.051,0,0,1-3.541-2.849A7.668,7.668,0,0,1,0,51.563V36.92a7.645,7.645,0,0,1,1.74-4.867,4.045,4.045,0,0,1,3.477-2.664h.754v-4.95a43.47,43.47,0,0,1,78.164,0v5.121a6.911,6.911,0,0,1,1.068.319,3.877,3.877,0,0,0-1.068-.49h.75a4.066,4.066,0,0,1,3.707,3.057A7.673,7.673,0,0,1,90.1,36.92V51.457a7.656,7.656,0,0,1-1.51,4.576,4.062,4.062,0,0,1-3.707,3.062h-.75v4.738C77,78.577,62.2,83.961,45.049,83.961S13.1,78.577,5.971,63.832Zm78.164-4.909v.065a4.134,4.134,0,0,0,.545-.2C84.5,58.836,84.32,58.887,84.135,58.924Zm-78.164.065v-.065c-.158-.032-.311-.069-.453-.111A4.229,4.229,0,0,0,5.971,58.988Zm-.25-29.48c.078-.019.166-.042.25-.055v-.032C5.883,29.448,5.8,29.476,5.721,29.508ZM92.336,33.48V11.305h2.348V33.48Z" transform="translate(13.948 -0.003)" fill="#f7f7f7"/><path d="M17.574,81.483c-3.732-.754-8.947-9.793-10.652-16.146-1.7-6.459.85-7.749,4.258-8.826a.746.746,0,0,1,.963.43l6.389,23.682h.105a.767.767,0,0,1-.254.781.742.742,0,0,1-.467.164A.724.724,0,0,1,17.574,81.483ZM30.355,55.539A5.566,5.566,0,0,1,27.4,53.93a5.693,5.693,0,0,1-1.525-3.019,75.749,75.749,0,0,1,0-26.9,5.689,5.689,0,0,1,1.549-2.954,5.618,5.618,0,0,1,2.928-1.567c9.5-.606,19.131-.911,28.646-.911s19.152.305,28.648.911a5.654,5.654,0,0,1,4.471,4.522,75.749,75.749,0,0,1,0,26.9A5.707,5.707,0,0,1,90.6,53.93a5.564,5.564,0,0,1-2.945,1.609c-9.5.61-19.137.92-28.652.92S39.852,56.149,30.355,55.539ZM59,49.621c3.523,0,6.389-1.739,6.389-3.875H52.607C52.607,47.882,55.475,49.621,59,49.621Zm9.055-14.315a6.068,6.068,0,1,0,6.068-6.135A6.109,6.109,0,0,0,68.053,35.306Zm-30.352,0a6.069,6.069,0,1,0,6.07-6.135A6.11,6.11,0,0,0,37.7,35.306Zm64.006,15.068V27.34H109.8c4.15,0,8.2,5.169,8.2,11.517s-3.943,11.517-8.2,11.517Zm-93.5,0C4.045,50.375,0,45.21,0,38.857S3.939,27.34,8.2,27.34h8.092V50.375ZM103.832,3.556a3.517,3.517,0,1,1,7.033,0,3.517,3.517,0,1,1-7.033,0Z" transform="translate(0 5.38)" fill="#18162e" opacity="0.36"/></g></g></svg>