<svg xmlns="http://www.w3.org/2000/svg" xmlns:xlink="http://www.w3.org/1999/xlink" width="88" height="104" viewBox="0 0 88 104"><defs><clipPath id="a"><rect width="87" height="104" rx="2" fill="#fbfbfb" stroke="rgba(0,0,0,0.12)" stroke-width="1"/></clipPath></defs><g transform="translate(-785 -10195)"><rect width="88" height="104" rx="4" transform="translate(785 10195)" fill="#dbdbdb"/><g transform="translate(785 10195)" clip-path="url(#a)"><g transform="translate(6.201 0)"><g transform="translate(0 12.695)"><rect width="15.428" height="17.279" transform="translate(29.493 65.105)" fill="#fff"/><path d="M71.561,127.493a25.886,25.886,0,0,0,15.428,3.176V125.46H71.561Z" transform="translate(-42.067 -60.354)" fill="#fff"/><ellipse cx="7.528" cy="8.589" rx="7.528" ry="8.589" transform="translate(0 29.722)" fill="#fff"/><ellipse cx="7.528" cy="8.589" rx="7.528" ry="8.589" transform="translate(59.36 29.722)" fill="#fff"/><path d="M95.015,42.38c0-12.651-9.17-21.908-29.65-21.908s-29.65,9.257-29.65,21.908-2.139,45.974,29.65,45.974S95.015,55.031,95.015,42.38Z" transform="translate(-28.158 -20.472)" fill="#fff"/><g transform="translate(17.13 23.218)"><g transform="translate(2.259 9.488)"><ellipse cx="3.24" cy="3.548" rx="3.24" ry="3.548" fill="#fff"/><circle cx="0.969" cy="0.969" r="0.969" transform="translate(0.859 1.013)" fill="#fff"/></g><path d="M51.94,62.154c1.532.766,3.992-2.6,9.623.328,1.026.535,1.639-4.57-4.4-4.57C51.94,57.912,51.014,61.692,51.94,62.154Z" transform="translate(-51.624 -57.912)" fill="#fff"/><g transform="translate(31.816 9.488)"><ellipse cx="3.24" cy="3.548" rx="3.24" ry="3.548" fill="#fff"/><circle cx="0.969" cy="0.969" r="0.969" transform="translate(0.859 1.013)" fill="#fff"/></g><path d="M109.569,62.154c-1.532.766-3.992-2.6-9.623.328-1.026.535-1.639-4.57,4.4-4.57C109.569,57.912,110.494,61.692,109.569,62.154Z" transform="translate(-69.73 -57.912)" fill="#fff"/></g><path d="M80.858,98.111c-3.2,0-5.13-2.391-5.13-1.235s.926,3.356,5.13,3.356,5.13-2.2,5.13-3.356S84.059,98.111,80.858,98.111Z" transform="translate(-43.65 -49.375)" fill="#fff"/><path d="M82.913,115.889c-1.108,0-1.775-.827-1.775-.427s.321,1.16,1.775,1.16,1.774-.76,1.774-1.16S84.02,115.889,82.913,115.889Z" transform="translate(-45.705 -56.514)" fill="#fff"/><path d="M79.019,110.466c-5.075,0-8.132-2.066-8.132-1.542s1.467,2.585,8.132,2.585,8.132-2.061,8.132-2.585S84.093,110.466,79.019,110.466Z" transform="translate(-41.811 -54.04)" fill="#fff"/></g><path d="M61.036,136.653v19.439H23.547C23.547,148.224,43.294,136.653,61.036,136.653Z" transform="translate(-23.547 -51.911)" fill="#fff"/><path d="M84,136.653v19.439h37.489C121.489,148.224,101.743,136.653,84,136.653Z" transform="translate(-47.074 -51.911)" fill="#fff"/><path d="M77.027,136.653a49.1,49.1,0,0,0-11.384,1.426,15.248,15.248,0,0,0,11.384,5.362,16.923,16.923,0,0,0,11.789-5.264A49.351,49.351,0,0,0,77.027,136.653Z" transform="translate(-39.821 -51.911)" fill="#fff"/><path d="M71.56,136.945s2.257,2.8,7.714,2.8,7.714-2.8,7.714-2.8S78.985,134.031,71.56,136.945Z" transform="translate(-42.067 -51.53)" fill="#fff"/><path d="M87.409,9.994S76.392-4.122,53.493,1.2,28.879,20.408,29.568,33.917s2.522,21.435,4.7,20.456,1.041-9.9,1.271-11.956,2.3-11.365,16.223-9.976a57.181,57.181,0,0,0,25.663-3.7s4.724,6.021,7.833,7.174c6.212,2.3,4.175,17.674,6.609,17.674S106.232,18.094,87.409,9.994Z" transform="translate(-25.79 -0.001)" fill="#fff"/></g></g><path d="M4.368-15.455l-.13.035H1.422V-5.157H2.2v-9.461H3.909c-.236.778-.589,1.791-.931,2.639a3.521,3.521,0,0,1,1.06,2.392,1.052,1.052,0,0,1-.247.813.7.7,0,0,1-.365.106,3.388,3.388,0,0,1-.683-.012,1.947,1.947,0,0,1,.224.778,4.226,4.226,0,0,0,.778-.024,1.208,1.208,0,0,0,.624-.224,1.653,1.653,0,0,0,.46-1.355,3.784,3.784,0,0,0-1.06-2.569c.4-.931.825-2.085,1.178-3.04Zm2,2.993H9.823V-11H6.371Zm3.452-2.144v1.414H6.371v-1.414ZM10.8-9.859a20.211,20.211,0,0,1-1.838,1.39,8.122,8.122,0,0,1-.7-1.767h2.4v-5.149H5.523v8.707a.868.868,0,0,1-.436.825,2.673,2.673,0,0,1,.389.719,14.723,14.723,0,0,1,3.016-.931,5.43,5.43,0,0,1-.047-.8l-2.074.507v-3.876H7.5C8.091-7.9,9.187-6.1,11.025-5.228a4.138,4.138,0,0,1,.6-.742A5.116,5.116,0,0,1,9.352-7.844a17.775,17.775,0,0,0,2.027-1.4ZM16-14.312h2.2v-.86H12.922v.86h2.192v3.028H12.6v.86h2.51v5.255H16v-5.255h2.545v-.86H16Zm4.218-.2h-.872v6.5h.872Zm1.7-1.166v9.344c0,.224-.094.295-.318.306-.247,0-1.013.012-1.862-.024a3.686,3.686,0,0,1,.33.907,6.945,6.945,0,0,0,2.18-.165c.389-.141.554-.412.554-1.025v-9.344Zm9.626,7.765a10.766,10.766,0,0,1-.86,1.732H27.957l.731-.247a6.192,6.192,0,0,0-.719-1.461l-.789.247a6.056,6.056,0,0,1,.66,1.461H24.61v.766H34.92v-.766H31.574c.247-.448.542-1,.789-1.508Zm.566-.8h-4.89v-1.473H32.1Zm.919-2.2H26.354v2.934h6.669Zm1.166-3.488a14.652,14.652,0,0,1-1.638,1.426,9.335,9.335,0,0,1-.789-.9,16.92,16.92,0,0,0,1.791-1.449l-.672-.471a14.926,14.926,0,0,1-1.52,1.39,8.968,8.968,0,0,1-.813-1.461l-.766.236a10.822,10.822,0,0,0,1.956,3H27.851a8.144,8.144,0,0,0,1.6-2.569l-.577-.295-.165.035H25.093v.742h3.2a8.16,8.16,0,0,1-1.178,1.65,7.611,7.611,0,0,0-1.544-1.178l-.471.495a7.733,7.733,0,0,1,1.5,1.19A8.35,8.35,0,0,1,24.222-11a3.589,3.589,0,0,1,.542.66,10.189,10.189,0,0,0,2.9-2.085v.554H31.88v-.6a9.061,9.061,0,0,0,2.792,2.027,3.6,3.6,0,0,1,.6-.719,8.047,8.047,0,0,1-2.215-1.367,16.961,16.961,0,0,0,1.791-1.426Zm7.776,4.583v-3.122h3.382v3.122Zm-4.277,0v-3.122h3.37v3.122Zm4.277-3.982v-2.1h-.907v2.1h-4.23v5.573h.86v-.731h3.37v3.818h.907V-8.963h3.382v.672h.9v-5.514ZM8.68,8.966v.8H3.8v-.8ZM3.8,11.193v-.8H8.68v.8Zm-.86,1.013H3.8v-.389H8.68v.353h.884V8.342H2.942ZM7.879,7.14a12.91,12.91,0,0,0,.8-1.39l-.742-.236A10.107,10.107,0,0,1,7.29,6.928ZM3.72,5.761A5.021,5.021,0,0,1,4.38,7.14l.672-.247a4.736,4.736,0,0,0-.707-1.331Zm-.707-.33H5.794V7.187H3.013ZM9.34,7.187h-2.8V5.431h2.8Zm-7.081.6H10.13V4.819H2.259ZM4.722,3.605a8.865,8.865,0,0,0,1.52-1.178A9.973,9.973,0,0,0,7.8,3.605Zm1.4-2.18A10.178,10.178,0,0,1,.8,4.453a5.735,5.735,0,0,1,.495.672,16.235,16.235,0,0,0,2.887-1.2v.318H8.256V3.876a14.037,14.037,0,0,0,2.887,1.178,3.434,3.434,0,0,1,.554-.672A11.534,11.534,0,0,1,6.725,1.932a2.718,2.718,0,0,1,.165-.224ZM20.793,3.853H15.22V2.627h5.573ZM21.7,1.92H14.348V4.559H21.7ZM14.725,8.778h6.539v.848H14.725Zm0-1.449h6.539v.825H14.725Zm0-1.449h6.539V6.7H14.725Zm7.435,4.395V5.231H13.853v5.043h2.192a12.909,12.909,0,0,1-3.464,1.308,6.721,6.721,0,0,1,.648.648,14.956,14.956,0,0,0,3.664-1.449l-.778-.507Zm-3.228.589a30.926,30.926,0,0,1,3.7,1.379l.754-.636c-.919-.377-2.486-.954-3.7-1.308Zm9.626-7.989h1.555V2.2H28.558V1.472h-.719V3.593h.719Zm.624,2.474H28.145V4.336h1.037Zm.566-1.544H27.591V5.879h2.156Zm-3.711-.224h.719V1.472h-.719V2.2H24.351v.672h1.685Zm-.66.754h1V5.361h-1Zm-.554,1.555h2.133V3.805H24.822Zm6.256.566H33.9V7.623H31.079Zm0-1.885H33.9V5.738H31.079Zm0-1.873H33.9V3.841H31.079Zm-5.066,7.447h1.473v.825H26.013ZM27.485,8.2H26.013V7.493h1.473Zm0,1.331H26.013V8.8h1.473Zm6.28,1.838c-.165,0-.189-.035-.189-.283V8.412h1.108V1.9h-4.36V8.412h1.037a3.547,3.547,0,0,1-1.544,3v-.448H28.181v-.825h1.485V9.532H28.181V8.8h1.437V8.2H28.181V7.493h1.661V6.857H28.31a4.4,4.4,0,0,0-.507-.872l-.566.247a4.059,4.059,0,0,1,.353.624H26.177c.106-.247.212-.471.306-.719l-.613-.189a7.3,7.3,0,0,1-1.579,2.5,4.152,4.152,0,0,1,.412.589,8.64,8.64,0,0,0,.636-.778V12.23h.672v-.624h3.511a2.523,2.523,0,0,1,.507.648c1.485-.789,1.932-2.133,2.1-3.841h.731v2.675c0,.789.153,1.025.813,1.025H34.3c.6,0,.789-.377.848-2.027a2.062,2.062,0,0,1-.672-.306c-.024,1.426-.059,1.591-.259,1.591ZM44.688,8.177H39.574V7.364h5.114Zm-5.114,2.91v-.872h5.114v.872ZM44.688,9.6H39.574V8.778h5.114ZM46.7,5.856V5.125H40.529c.141-.283.271-.577.389-.86h5.1V3.558H41.165c.094-.295.189-.577.271-.872A32.169,32.169,0,0,0,45.9,2.191l-.554-.636a53.869,53.869,0,0,1-8.271.589,2.266,2.266,0,0,1,.177.672c1.013,0,2.121-.024,3.217-.082-.071.283-.153.554-.247.825H37.241v.707h2.722a9.226,9.226,0,0,1-.389.86H36.381v.731h2.781A8.636,8.636,0,0,1,36.1,8.943a3.758,3.758,0,0,1,.542.672,9.4,9.4,0,0,0,2.1-1.732v4.371h.837v-.46h5.114v.46h.86V6.669H39.68c.177-.259.33-.542.483-.813Z" transform="translate(805.161 10233.288)" fill="#aaacad"/></g></svg>