<svg xmlns="http://www.w3.org/2000/svg" viewBox="0 0 433.9 295.3">
  <defs>
    <clipPath id="a">
      <path fill="none" d="M135 267a21.7 21.7 0 0 1 13.1-20c2.6-1 6 3.3 9 3.3 3.6 0 6.6-4.1 9.6-2.6a21.7 21.7 0 0 1 11.6 19.3" transform="translate(-135 -246.8)"/>
    </clipPath>
    <clipPath id="c">
      <path fill="none" d="M285.1 285.4a34.5 34.5 0 0 1 21-31.7c4.1-1.8 9.5 5.2 14.3 5.2 5.7 0 10.4-6.6 15.1-4a34.5 34.5 0 0 1 18.6 30.5" transform="translate(-285.1 -253.4)"/>
    </clipPath>
    <clipPath id="d">
      <path fill="none" d="M536.7 181.1a17 17 0 0 1-.1-1.9.5.5 0 0 1 0-.3.5.5 0 0 1 .3-.1 7.5 7.5 0 0 1 2-.3 2.3 2.3 0 0 1 1 .2 1 1 0 0 1 .6 1 1.1 1.1 0 0 1-.1.4 2.2 2.2 0 0 1-.5.5 4.3 4.3 0 0 1-1.2.6 9.7 9.7 0 0 1-2 .6" transform="translate(-536.6 -178.5)"/>
    </clipPath>
    <clipPath id="e">
      <path fill="none" d="M85.3 178.1c-.3 1-.3 2.6-1 3.6-.2.2-.8 0-1.2.1a2.7 2.7 0 0 1-1.3-.1 4.5 4.5 0 0 1-2.9-2.2.5.5 0 0 1 0-.6 2.3 2.3 0 0 1 1.3-.3 16.7 16.7 0 0 1 3 0 4.2 4.2 0 0 0 1.6-.2" transform="translate(-78.8 -178.1)"/>
    </clipPath>
    <filter id="b" width="155.2" height="263" x="154.2" y="32.3" filterUnits="userSpaceOnUse">
      <feOffset dx="1" dy="5"/>
      <feGaussianBlur result="c" stdDeviation="4"/>
      <feFlood flood-opacity=".1"/>
      <feComposite in2="c" operator="in"/>
      <feComposite in="SourceGraphic"/>
    </filter>
  </defs>
  <g transform="translate(136.5 7.5)">
    <circle cx="26.5" cy="26.5" r="26.5" fill="#f0efed" opacity=".5" transform="rotate(-19.3 51.6 8.8)"/>
    <g opacity=".7">
      <path fill="#fff" d="M19.5 6a8.6 8.6 0 1 1-11.3 4.5A8.6 8.6 0 0 1 19.5 6Z"/>
      <path fill="#b9cafc" d="M16 4.8a9.1 9.1 0 1 1-8.3 5.5 9 9 0 0 1 8.4-5.5Zm0 17.3a8.1 8.1 0 1 0-3.2-.7 8.1 8.1 0 0 0 3.3.7Z"/>
    </g>
  </g>
  <path fill="#f7f7f6" d="M420.8 278.8c0 4.4-93 8-208 8s-208-3.6-208-8 93.2-8 208-8 208 3.7 208 8Z"/>
  <path fill="#f0efed" d="M420.9 40.4A10.8 10.8 0 1 1 410 29.5a10.8 10.8 0 0 1 10.8 10.9Z" opacity=".5"/>
  <path fill="#b9cafc" d="M434 48.9A24.4 24.4 0 1 1 434 0v1a23.4 23.4 0 1 0 0 46.9Z" opacity=".5"/>
  <path fill="#dedfe0" d="m381 42-5.4-5.5 5.5-5.3-5.4-5.5-5.4 5.3-5.4-5.5-5.5 5.4 5.4 5.5-5.5 5.4 5.4 5.5 5.5-5.4 5.3 5.5Z" opacity=".5"/>
  <g opacity=".6">
    <path fill="#b9cafc" d="M296 21.8v-3.7a.7.7 0 0 0-.7-.7h-4a.7.7 0 0 1-.8-.6.7.7 0 0 1 .7-.6h4.1a.7.7 0 0 0 .7-.7v-3.7a.7.7 0 0 1 .7-.7.7.7 0 0 1 .7.7v3.7a.7.7 0 0 0 .7.6h4.1a.7.7 0 0 1 .7.7.7.7 0 0 1-.7.6h-4a.7.7 0 0 0-.7.7v3.7a.7.7 0 0 1-.7.6.7.7 0 0 1-.7-.6ZM312.1 37v-6.1a1 1 0 0 0-1-1h-6.4a1 1 0 0 1-1-1.1 1 1 0 0 1 1-1h6.3a1 1 0 0 0 1-1.2v-6a1 1 0 0 1 1.1-1.1 1 1 0 0 1 1.1 1v6.1a1 1 0 0 0 1.1 1h6.3a1 1 0 0 1 1.1 1.1 1 1 0 0 1-1 1h-6.3a1 1 0 0 0-1.1 1.1V37a1 1 0 0 1-1 1 1 1 0 0 1-1.2-1Z"/>
  </g>
  <path fill="#dedfe0" d="M96 256.7 91 251l5.6-5.1-5.2-5.7-5.6 5.2-5.2-5.7L75 245l5.2 5.6-5.6 5.2 5.1 5.6 5.7-5.1 5.1 5.6ZM74.4 60.6l-4.7-5.2 5.1-4.7-4.7-5.1-5.2 4.7-4.7-5.2-5.2 4.7 4.8 5.2-5.2 4.7 4.8 5.2 5.1-4.7 4.8 5.1Z" opacity=".4"/>
  <g transform="translate(90.8 20.7)">
    <circle cx="20.1" cy="20.1" r="20.1" fill="#d1ddfd" transform="rotate(-7 40 2.4)"/>
    <circle cx="18.4" cy="18.4" r="18.4" fill="#fff" transform="rotate(-4.1 75.3 -34.6)"/>
    <path fill="#b9cafc" d="M24.8 24.3H14.4v-1h9.4V10.6h1Z"/>
  </g>
  <g transform="translate(.5 15.4)">
    <circle cx="16.5" cy="16.5" r="16.5" fill="#f0efed" opacity=".5" transform="rotate(-17.5 19.8 -84.6)"/>
    <path fill="#b9cafc" d="M26.3 6.7A26.8 26.8 0 1 1 12 11a26.6 26.6 0 0 1 14.4-4.3Zm0 52.7A26 26 0 1 0 16 57.2a25.8 25.8 0 0 0 10.4 2.2Z" opacity=".7"/>
  </g>
  <g>
    <path fill="#f7f7f6" d="M79.3 75h67a9.6 9.6 0 0 1 9.5 9.5v137.7a9.6 9.6 0 0 1-9.6 9.5H79.3a9.6 9.6 0 0 1-9.6-9.5V84.5a9.6 9.6 0 0 1 9.6-9.6Z"/>
    <g opacity=".5">
      <g transform="translate(92.9 109.5)">
        <ellipse cx="15.7" cy="16.2" fill="#38303b" rx="15.7" ry="16.2" transform="translate(7)"/>
        <path fill="#86514d" d="M28 42.3a69.9 69.9 0 0 1-2-11 1 1 0 0 0-.1-.3.5.5 0 0 0-.4-.2c-1.2-.3-2.5 0-3.7-.2-1-.3-2-1-3-.6a.5.5 0 0 0-.2.1 1 1 0 0 0-.1.5V33c0 2.3-1.2 8.4-1.1 10.8"/>
        <path fill="#794642" d="M18.4 29.5a.5.5 0 0 1 .3-.2c1-.3 2 .3 3 .6 1.2.3 2.4 0 3.7.2a.5.5 0 0 1 .4.3 1 1 0 0 1 0 .3l.5 3.6a6.7 6.7 0 0 1-3.6 1.6 4.8 4.8 0 0 1-4.4-2.6V30a1 1 0 0 1 .1-.4Z"/>
        <path fill="#86514d" d="M13 21.5C13 29 18.2 35 22.8 35s9.7-6 9.7-13.5-3-11.2-9.7-11.2c-6.1 0-9.8 3.7-9.8 11.2Z"/>
        <path fill="#86514d" d="M13.5 24.4a3.2 3.2 0 0 1-2.3-2.6 2.3 2.3 0 0 1 2.2-2.5M31.7 24.4a3.2 3.2 0 0 0 2.3-2.6 2.3 2.3 0 0 0-2.2-2.5"/>
        <path fill="#38303b" d="M27.2 20c0 .8.3 1.4.7 1.4s.8-.6.8-1.3-.4-1.4-.8-1.4-.7.6-.7 1.4ZM17.5 20c0 .8.3 1.4.8 1.4s.7-.6.7-1.4-.3-1.3-.7-1.3-.8.6-.8 1.3ZM15.3 17.3v.2c.2 0 .2-.2.5-.4a4 4 0 0 1 3.7-.2 6.2 6.2 0 0 0 .6.3.2.2 0 0 0 .2-.1.4.4 0 0 0 0-.2 1.8 1.8 0 0 0-.9-.7 3.7 3.7 0 0 0-3.3.3 2 2 0 0 0-.8.8"/>
        <path fill="#38303b" d="M29.3 20a1.6 1.6 0 0 0-2.8-.2l-.6-.4a2.3 2.3 0 0 1 4 .2ZM16.9 20l-.7-.4a2.3 2.3 0 0 1 4-.2l-.6.4a1.6 1.6 0 0 0-2.7.1ZM30.6 17.3v.2c-.2 0-.2-.2-.5-.4a4 4 0 0 0-3.7-.2 6.2 6.2 0 0 1-.6.3.2.2 0 0 1-.2-.1.4.4 0 0 1 0-.2 1.8 1.8 0 0 1 .9-.7 3.7 3.7 0 0 1 3.3.3 2 2 0 0 1 .8.8"/>
        <path fill="#794642" d="m24 27-1.4-.1v-1h1l-.7-6.3 1-.2.8 6.7a.7.7 0 0 1-.2.6.7.7 0 0 1-.5.2ZM19.8 29a4.4 4.4 0 0 0 4.2 1.2 4.5 4.5 0 0 0 2-1.3 9.2 9.2 0 0 1-6.2 0"/>
        <path fill="#b9cafc" d="M0 62.5a21.7 21.7 0 0 1 13.1-19.9c2.7-1.1 6 3.2 9 3.2 3.7 0 6.6-4 9.6-2.5a21.7 21.7 0 0 1 11.7 19.2"/>
        <path fill="#86514d" d="M31.8 43.4a21.7 21.7 0 0 0-18.7-.8c1 4.2 5.8 3.7 9.5 3.7s7.9 1 9.2-3Z"/>
        <g clip-path="url(#a)" transform="translate(0 42.4)">
          <g fill="#ffedd7" opacity=".2">
            <path d="M-5.6 17h52.9v.8H-5.6zM-5.6 14h52.9v.8H-5.6z"/>
          </g>
        </g>
        <path fill="#d5dffc" d="M15.7 41.6a16 16 0 0 0 6.2 4.2c.1 0 .3 0 .3.2a.4.4 0 0 1 0 .2l-2 5.7a1.4 1.4 0 0 1-2.2.6 23 23 0 0 1-6.4-7.6 1.6 1.6 0 0 1-.3-1.4 1.5 1.5 0 0 1 .7-.6 13.8 13.8 0 0 1 3-1.2M28.4 41.7a14.6 14.6 0 0 1-5.8 4l-.3.3a.4.4 0 0 0 0 .2l1.8 5.6a1.4 1.4 0 0 0 2.2.6A22.6 22.6 0 0 0 32 45a1.7 1.7 0 0 0 .2-1.3 1.5 1.5 0 0 0-.6-.7 12.2 12.2 0 0 0-2.7-1.2"/>
      </g>
      <path fill="#dedfe0" d="M79.5 103.5h70.2V173H79.5Zm68.2 2H81.5V171h66.2Z"/>
      <path fill="#90a6ea" d="m96.1 100.3-2.8-4a4.1 4.1 0 0 0 2.6-4c0-2.8-2.1-4.6-5.5-4.6h-5.5v12.6h3v-3.5h2.6l2.5 3.5Zm-3.2-8c0 1.4-.9 2.2-2.7 2.2H88v-4.4h2.3c1.8 0 2.7.8 2.7 2.2Zm8.2 5.7v-3h5.8v-2.2h-5.8v-2.7h6.6v-2.4h-9.5v12.6h9.7V98Zm13.3 2.5c3.6 0 5.3-1.8 5.3-3.9 0-4.6-7.3-3-7.3-5.3 0-.8.7-1.4 2.4-1.4a7.1 7.1 0 0 1 3.5 1l.9-2.3a8.5 8.5 0 0 0-4.4-1c-3.6 0-5.3 1.7-5.3 3.8 0 4.7 7.3 3.1 7.3 5.5 0 .7-.7 1.3-2.4 1.3a7.4 7.4 0 0 1-4.2-1.3l-1 2.2a9 9 0 0 0 5.2 1.4Zm13 0c3.5 0 5.6-2 5.6-5.7v-7h-2.8v6.9c0 2.4-1 3.4-2.9 3.4-1.7 0-2.8-1-2.8-3.4v-7h-2.9v7c0 3.8 2.1 5.8 5.7 5.8Zm22.7-.2V87.7h-2.4l-4.7 7.9-4.7-7.9H136v12.6h2.8V93l3.6 6.1h1.4l3.7-6.2v7.5Z"/>
      <g fill="#dedfe0">
        <path d="M81 177.8h35v3.5H81zM118.8 177.8H137v3.5h-18zM148.8 186.4h-25V183h25zM121.5 186.4H95.9V183h25.6zM139.4 177.8h9.2v3.5h-9.2zM93.1 186.4H80.8V183h12.3zM81 188h28.5v3.5H81zM111.6 188H130v3.5h-18.4zM132.2 188h16.4v3.5h-16.4z"/>
      </g>
      <g fill="#90a6ea" opacity=".6">
        <path d="m87.2 203.2 1.7 3.5 3.8.5L90 210l.6 3.8-3.4-1.8-3.4 1.8.6-3.8-2.8-2.7 3.9-.5ZM102 203.2l1.7 3.5 3.9.5-2.8 2.7.6 3.8-3.4-1.8-3.4 1.8.6-3.8-2.7-2.7 3.8-.5ZM116.8 203.2l1.7 3.5 3.9.5-2.8 2.7.7 3.8-3.5-1.8-3.4 1.8.7-3.8-2.8-2.7 3.8-.5ZM130.2 203.2l1.7 3.5 3.9.5-2.8 2.7.6 3.8-3.4-1.8-3.4 1.8.6-3.8-2.7-2.7 3.8-.5ZM143.8 203.2l1.7 3.5 3.8.5-2.8 2.7.7 3.8-3.4-1.8-3.5 1.8.7-3.8-2.8-2.7 3.8-.5Z"/>
      </g>
    </g>
    <g>
      <path fill="#f7f7f6" d="M316.6 63.3H390a9.6 9.6 0 0 1 9.6 9.6v149.3a9.6 9.6 0 0 1-9.6 9.5h-73.3a9.6 9.6 0 0 1-9.6-9.5V72.9a9.6 9.6 0 0 1 9.6-9.6Z"/>
      <g opacity=".1">
        <g fill="#dedfe0">
          <path d="M316.4 175.4H354v11.2h-37.5zM357 175.4h19.4v11.2H357zM389.2 202.7h-26.8v-11.2h26.8zM359.9 202.7h-27.5v-11.2h27.5zM379.1 175.4h10v11.2h-10zM329.4 202.7h-13.2v-11.2h13.2zM316.4 207.6H347v11.2h-30.6zM349.2 207.6H369v11.2h-19.7zM371.4 207.6H389v11.2h-17.6z"/>
        </g>
        <g fill="#92d5e4">
          <path d="m322.5 105.1 1.8 3.8 4.1.6-3 2.9.7 4-3.6-1.9-3.7 2 .7-4.1-3-3 4.1-.5ZM338.4 105.1l1.8 3.8 4.1.6-3 2.9.8 4-3.7-1.9-3.7 2 .7-4.1-3-3 4.1-.5ZM354.3 105.1l1.8 3.8 4.2.6-3 2.9.7 4-3.7-1.9-3.7 2 .7-4.1-3-3 4.1-.5ZM368.7 105.1l1.8 3.8 4.1.6-3 2.9.8 4-3.7-1.9-3.7 2 .7-4.1-3-3 4.1-.5ZM383.2 105.1l1.9 3.8 4 .6-2.9 2.9.7 4-3.7-1.9-3.7 2 .7-4.1-3-3 4.2-.5Z"/>
        </g>
        <g fill="#dedfe0">
          <path d="M316.4 123.5H354v11.2h-37.5zM357 123.5h19.4v11.2H357zM389.2 150.8h-26.8v-11.2h26.8zM359.9 150.8h-27.5v-11.2h27.5zM379.1 123.5h10v11.2h-10zM329.4 150.8h-13.2v-11.2h13.2zM316.4 155.7H347V167h-30.6zM349.2 155.7H369V167h-19.7zM371.4 155.7H389V167h-17.6z"/>
        </g>
      </g>
    </g>
  </g>
  <g>
    <path fill="#92d5e4" d="m165.9 251.2-1-.3a42.8 42.8 0 0 0 2.6-13.5h1a43.9 43.9 0 0 1-2.6 13.8Z"/>
    <path fill="#b9caff" d="M178 259.6c-9.2-39.3-28.4-57.8-50-75-1.1 14.9 1.5 32 7.7 44s18.7 34.3 33.6 43.7"/>
    <path fill="#90a6ea" d="M171 269.1a327.3 327.3 0 0 0-19-43.4 292.8 292.8 0 0 0-24.2-38.7l.8-.6a293.8 293.8 0 0 1 24.4 38.8 328.3 328.3 0 0 1 19 43.6Z"/>
    <path fill="#90a6ea" d="m161.4 241.8-1-.2 1.2-5.8 1.3-6 1 .3-1.3 5.9ZM153.7 226l-1-.2a42.2 42.2 0 0 0 1.6-13h1a43.2 43.2 0 0 1-1.6 13.2ZM146.2 213.3l-1-.2a33.2 33.2 0 0 0 .5-10l1-.1a34.2 34.2 0 0 1-.5 10.3ZM139 201.5l-1-.2a14.4 14.4 0 0 0 0-5.7l1-.2a15.4 15.4 0 0 1 0 6.1Z"/>
    <path fill="#90a6ea" d="m138.2 202.1-2.4-.3-2.7-.4.1-1 2.7.4 2.5.3ZM144.5 214a14.1 14.1 0 0 1-5-1 14.4 14.4 0 0 1-5.2-3.3l.7-.7a13.4 13.4 0 0 0 4.9 3.1 13.2 13.2 0 0 0 5.6.9l.1 1h-1.1ZM148.8 227a20.4 20.4 0 0 1-4.2-.5 19.8 19.8 0 0 1-7.5-3.3l.6-.8a19.2 19.2 0 0 0 15.1 3.1l.2 1a21.4 21.4 0 0 1-4.2.4ZM158.6 242.7h-.5a28.5 28.5 0 0 1-11.8-3.9l.5-.9a27.5 27.5 0 0 0 11.4 3.8 4.4 4.4 0 0 0 2.3-.5l.4 1a6 6 0 0 1-2.3.5ZM294 275.8c10.8-.6 27.2 1.7 37.7 5.7a126.8 126.8 0 0 0-25.7-9.8 168.7 168.7 0 0 1 45 .5 204.3 204.3 0 0 0-37-6.4 449.4 449.4 0 0 1 48.2-8.3c-15-1.7-28.6-3-43-.4a180 180 0 0 1 51-14.4c-18.8-1.7-39.7-.2-60.2 6.7-4.5 1.5-17.2 8.4-17.2 8.4l-6 9.3Z"/>
    <g>
      <path fill="#92d5e4" d="M291 259.6a27.1 27.1 0 0 1-.8-10.7l1 .1a26.1 26.1 0 0 0 .8 10.3Z"/>
      <path fill="#b9caff" d="M278.6 265.8c13.5-30 35.2-45.4 57.6-58.2-2.2 11.6-6.9 26-14.2 35.2s-21.6 26-36.7 33"/>
      <path fill="#90a6ea" d="m284 273.4-.8-.5a279.6 279.6 0 0 1 23-33.2 276.5 276.5 0 0 1 27.6-29.4l.7.8a275.5 275.5 0 0 0-27.5 29.2 278.6 278.6 0 0 0-23 33Z"/>
      <path fill="#90a6ea" d="m296.4 252.4-1-9 1-.2 1 9.1ZM305.4 240.4a27.3 27.3 0 0 1 .2-10.3l1 .3a26.3 26.3 0 0 0-.2 9.9ZM314 230.8a22.2 22.2 0 0 1 .8-8l1 .2a21.2 21.2 0 0 0-.8 7.7ZM322.3 221.8a10.2 10.2 0 0 1 .7-4.8l.9.4a9.2 9.2 0 0 0-.6 4.3Z"/>
      <path fill="#90a6ea" d="m323 222.4-.2-1 5-.4v1ZM316 231.5l-1.4-.1v-1a15.7 15.7 0 0 0 10.5-2.9l.5.8a16.7 16.7 0 0 1-9.6 3.2ZM310.5 241.4a23.4 23.4 0 0 1-4.4-.5l.2-1a22.6 22.6 0 0 0 14.6-2l.5.8a23.5 23.5 0 0 1-10.9 2.7ZM299 253.3a6 6 0 0 1-2.1-.5l.3-1a4.6 4.6 0 0 0 2.1.5 32.8 32.8 0 0 0 11.2-2.7l.4 1a33.8 33.8 0 0 1-11.5 2.7h-.4ZM290.9 262.6h-.3v-1a27.1 27.1 0 0 0 10.7-2l.4.8a28.1 28.1 0 0 1-10.8 2.2Z"/>
    </g>
    <path fill="#90a6ea" d="m168 273.1-9.7 2.3c-2 .5-4.3 1-6.3.3s-3.8-2.8-3-4.8c.8-2.5 4.5-3.2 5.1-5.7-2.7-2-6.4-1.8-9.8-1.3s-6.9 1.1-10-.2-5-5.8-2.7-8.3c1-1 2.4-1.4 3.5-2.1s2.1-2.2 1.5-3.5a3.4 3.4 0 0 0-2.2-1.5c-3.5-1.1-7.2-1.4-10.9-2.3s-7.3-2.2-9.6-5.1-3-7.5-.4-10.3c2.8-3.1 8-2.5 11.7-.3s6.2 5.8 9.5 8.4c1.1 1 2.7 1.8 4 1 1.5-1 .8-3.4.1-5.2s-.5-4.5 1.3-4.6a2.7 2.7 0 0 1 1.7.6c5.4 3.7 3.7 12.2 7 18 .6 1.2 2 2.4 3.4 2 2.7-1 .4-6.4 3-7.5 1.2-.5 2.5.3 3.2 1.4 2.5 3.6.5 8.5 1.6 12.8 1.4 5.6 7.5 8.3 13 10.1"/>
    <g>
      <g filter="url(#b)">
        <path fill="#f7f7f6" d="M174.8 39.3h112a9.6 9.6 0 0 1 9.5 9.5v219.9a9.6 9.6 0 0 1-9.5 9.6h-112a9.6 9.6 0 0 1-9.6-9.6V48.8a9.6 9.6 0 0 1 9.6-9.5Z"/>
      </g>
      <g fill="#b9caff">
        <path d="m189.8 227.2 2.4 5 5.6.8-4 4 1 5.4-5-2.6-5 2.6 1-5.5-4-3.9 5.5-.8ZM211.2 227.2l2.4 5 5.6.8-4 4 1 5.4-5-2.6-5 2.6 1-5.5-4-3.9 5.5-.8ZM232.6 227.2l2.4 5 5.6.8-4 4 1 5.4-5-2.6-5 2.6 1-5.5-4-3.9 5.5-.8ZM251.9 227.2l2.5 5 5.5.8-4 4 1 5.4-5-2.6-5 2.6 1-5.5-4-3.9 5.5-.8ZM271.5 227.2l2.4 5 5.6.8-4 4 1 5.4-5-2.6-5 2.6 1-5.5-4-3.9 5.5-.8Z"/>
      </g>
      <path fill="#90a6ea" d="m193.4 72.9-4.8-7a7 7 0 0 0 4.4-6.8c0-5-3.6-8-9.4-8h-9.4V73h5v-6h4.6l4.2 6ZM188 59c0 2.4-1.5 3.8-4.6 3.8h-4v-7.5h4c3 0 4.6 1.4 4.6 3.8Zm14 9.9v-5h10.2v-4H202v-4.7h11.4v-4H197v21.7h16.8v-4Zm23 4.4c6.2 0 9.2-3.1 9.2-6.8 0-8-12.6-5.2-12.6-9.2 0-1.3 1.2-2.5 4.1-2.5a12.3 12.3 0 0 1 6 1.7l1.6-3.8a14.6 14.6 0 0 0-7.5-1.9c-6.2 0-9.2 3-9.2 6.8 0 8 12.6 5.2 12.6 9.3 0 1.3-1.2 2.3-4.2 2.3a12.8 12.8 0 0 1-7.1-2.2l-1.7 3.7c2 1.5 5.4 2.5 8.8 2.5Zm22.3 0c6.2 0 9.8-3.6 9.8-10V51.2h-5v12c0 4-1.7 5.8-4.8 5.8-3 0-4.8-1.7-4.8-5.9v-12h-5v12.2c0 6.4 3.6 10 9.8 10Zm39.3-.4-.1-21.7h-4.1l-8 13.5-8.2-13.5H262v21.7h4.7V60l6.4 10.5h2.2l6.4-10.7v13Z"/>
      <path fill="#38303b" d="M195 170.1a19.5 19.5 0 0 1-5.9-24.7c3.2-5.8 9.2-9.5 13-14.8 4.3-6 5.8-13.4 8.5-20.2s7.7-13.6 14.9-14.7c7.5-1.2 14.8 4.6 17.3 11.8s1.3 15-1 22.2a72.7 72.7 0 0 1-41.4 43.6"/>
      <path fill="#38303b" d="M235.3 159.2a45.1 45.1 0 0 0 19.4-27 37.1 37.1 0 0 0-.6-20.2 25.5 25.5 0 0 0-13-15 14.5 14.5 0 0 0-7.5-1.4c-5.2.5-9.3 4.8-11.7 9.4a43.5 43.5 0 0 0-1.6 30.8"/>
      <path fill="#f7b094" d="M240 156.2a111.2 111.2 0 0 1-3-17.3 1.6 1.6 0 0 0-.2-.6.8.8 0 0 0-.6-.4c-2-.4-4 .2-6-.3-1.5-.4-3-1.5-4.6-1a.7.7 0 0 0-.5.3 1.6 1.6 0 0 0-.1.8v3.6c0 3.7-1.8 13.4-1.8 17.1"/>
      <path fill="#e89c82" d="M224.9 135.8a.7.7 0 0 1 .4-.3c1.6-.5 3.2.6 4.8 1 2 .5 4 0 5.9.3a.8.8 0 0 1 .6.4 1.6 1.6 0 0 1 0 .6c.2 2 .7 3.7.8 5.6a10.7 10.7 0 0 1-5.6 2.6 7.7 7.7 0 0 1-7-4v-5.4a1.6 1.6 0 0 1 .1-.8Z"/>
      <path fill="#f7b094" d="M216.3 123.2c0 11.8 8.2 21.5 15.5 21.5s15.5-9.7 15.5-21.5-8.2-21-15.5-21-15.5 9-15.5 21Z"/>
      <path fill="#f7b094" d="M217.1 127.8a5.1 5.1 0 0 1-3.7-4.2 3.7 3.7 0 0 1 3.6-4M246 127.8a5.1 5.1 0 0 0 3.7-4.2 3.7 3.7 0 0 0-3.5-4"/>
      <path fill="#38303b" d="M238.8 120.9c0 1.2.6 2.2 1.2 2.2s1.2-1 1.2-2.2-.5-2.2-1.2-2.2-1.2 1-1.2 2.2ZM223.5 120.8c0 1.2.5 2.2 1.2 2.2s1.1-1 1.1-2.2-.5-2.2-1.1-2.2-1.2 1-1.2 2.2ZM220 116.5v.3c.3 0 .3-.3.8-.6a6.4 6.4 0 0 1 5.8-.4 9.6 9.6 0 0 0 1 .5.3.3 0 0 0 .3-.2.7.7 0 0 0-.1-.3 2.9 2.9 0 0 0-1.3-1 6 6 0 0 0-5.3.4 3.1 3.1 0 0 0-1.2 1.3"/>
      <path fill="#38303b" d="M242.4 120.5a2.7 2.7 0 0 0-4.8-.2l-.6-.4a3.5 3.5 0 0 1 6 .3ZM222.2 120.5l-.6-.3a3.5 3.5 0 0 1 6-.3l-.6.4a2.7 2.7 0 0 0-4.8.2ZM244.3 116.5c0 .2 0 .4-.2.3l-.6-.6a6.4 6.4 0 0 0-5.9-.4 9.6 9.6 0 0 1-1 .5.3.3 0 0 1-.3-.2.7.7 0 0 1 .1-.3 2.9 2.9 0 0 1 1.4-1 6 6 0 0 1 5.2.4 3.1 3.1 0 0 1 1.3 1.3"/>
      <g opacity=".4">
        <path fill="#e66e60" d="M219.2 131.8a3.4 3.4 0 1 0 3.4-3.3 3.4 3.4 0 0 0-3.4 3.3ZM237.8 131.8a3.4 3.4 0 1 0 3.4-3.3 3.4 3.4 0 0 0-3.4 3.3Z" opacity=".5"/>
      </g>
      <path fill="#38303b" d="M213.3 119.1a73.2 73.2 0 0 0 22.8-19.7c.1-.2.3-.4.1-.7a.8.8 0 0 0-.7-.2 25 25 0 0 0-20.2 10.8"/>
      <path fill="#38303b" d="M227 103a23 23 0 0 0 5.9 4.7 77.5 77.5 0 0 0 16.8 8.6 1.3 1.3 0 0 0 .5 0c.5 0 .7-.5.7-1 .3-4.8-3-9.3-7.5-12.1s-10-4.2-15.7-4.8"/>
      <path fill="#e89c82" d="M233.8 131.5h-2.3v-1h2.1l-1.3-10.5h1l1.3 10.5a.9.9 0 0 1-.2.8.8.8 0 0 1-.6.2Z"/>
      <g>
        <path fill="#e66e60" d="M227.1 135a7 7 0 0 0 6.7 2 7.1 7.1 0 0 0 3.2-2 14.7 14.7 0 0 1-10 0"/>
      </g>
      <g>
        <path fill="#b9cafc" d="M195.6 188.4a34.5 34.5 0 0 1 21-31.7c4-1.8 9.4 5.2 14.3 5.2 5.7 0 10.3-6.6 15-4a34.5 34.5 0 0 1 18.7 30.5"/>
        <path fill="#f7b094" d="M246.2 158a34.5 34.5 0 0 0-29.7-1.3c1.7 6.8 12.1 14.8 15 14.8 2.9 0 12.6-7.5 14.7-13.6Z"/>
        <g clip-path="url(#c)" transform="translate(195.6 156.4)">
          <g fill="#ffedd7" opacity=".2">
            <path d="M-9 27h84.3v1.3H-9zM-9 22.2h84.3v1.3H-9z"/>
          </g>
        </g>
      </g>
      <g fill="#dedfe0">
        <path d="M175.1 197h57.2v5.4h-57.2zM237 197h29.6v5.4H237zM286 210.2h-41v-5.4h41zM241.3 210.2h-42v-5.4h42zM270.7 197h15v5.4h-15zM195 210.2h-20.2v-5.4H195zM175.1 212.6h46.7v5.4h-46.7zM225.1 212.6h30.1v5.4h-30zM258.9 212.6h26.8v5.4h-26.8z"/>
      </g>
      <path fill="#dedfe0" d="M175 80h110.6v109.5H175Zm108.6 2H177v105.5h106.5Z"/>
    </g>
  </g>
  <g>
    <path fill="#b9cafc" d="M321.4 50.9a22.8 22.8 0 0 1 29.8 32 .8.8 0 0 1-.4.6l7.8 9.7a.7.7 0 0 1-.9 1L345 89.8a23 23 0 0 1-34.2-8.3 22.8 22.8 0 0 1 10.6-30.5Z"/>
    <path fill="#fefefe" d="M319.5 73.6a2.3 2.3 0 0 1 3.3-.3l2.1 1.9a2.3 2.3 0 0 0 3.3-.2l11.4-13.1a2.3 2.3 0 0 1 3.3-.2 2.3 2.3 0 0 1 .2 3.2l-14 16a3 3 0 0 1-4.2.4l-5.1-4.4a2.3 2.3 0 0 1-.3-3.3Z"/>
    <path fill="#b7b7b7" d="M368 118.6c-.8-.3-5 1.2-7.4 4.3a95.7 95.7 0 0 0-12.6 25.7c9.4-7 14.9-17.2 20-27"/>
    <path fill="#86514d" d="m389.7 266.8 1.4 4a3 3 0 0 1 .2.9c0 1-1 1.9-1.3 3a.7.7 0 0 0 0 .3c.1.3.6.3 1 .3l3.1-.5c.4 0 1-.2 1-.5a1.2 1.2 0 0 0 .1-.6l-.4-8"/>
    <path fill="#38303b" d="m379.3 280.5 8.4-.3a5.9 5.9 0 0 0 2.6-.5c.5-.2.9-.6 1.4-.5.4 0 .7.3 1 .4a2.6 2.6 0 0 0 1 .1l3.2-.1a1.5 1.5 0 0 0 1-.3 1.2 1.2 0 0 0 .2-1 14.7 14.7 0 0 0-1.2-4.2c0-.3-.3-.7-.6-.8a1.4 1.4 0 0 0-1 .3c-1.1.7-2.6 1.2-3.8.6a4.4 4.4 0 0 0-.8-.5 2.3 2.3 0 0 0-1.2 0 41 41 0 0 0-9.3 3.4 4.1 4.1 0 0 0-1.8 1.4 1.3 1.3 0 0 0 .4 1.8"/>
    <path fill="#86514d" d="M342.7 265.3v4.7a3.2 3.2 0 0 1 0 .9c-.3 1.1-1.7 1.6-2.4 2.6a.7.7 0 0 0 0 .3c-.1.4.4.6.8.7l3.5.6a1 1 0 0 0 1.5-.8l2.3-8.5"/>
    <path fill="#38303b" d="m328.6 279.3 8.9.5a6 6 0 0 0 2.8-.3c.5-.2 1-.6 1.5-.5.4.1.7.5 1 .6a2.7 2.7 0 0 0 1 .2l3.4.2a1.6 1.6 0 0 0 1-.2 1.3 1.3 0 0 0 .4-1.1 16.6 16.6 0 0 0-.8-4.7 1.2 1.2 0 0 0-.7-.9 1.4 1.4 0 0 0-1 .3c-1.2.6-2.9 1-4 .2a4.6 4.6 0 0 0-.9-.6 2.3 2.3 0 0 0-1.2 0 42.5 42.5 0 0 0-10.2 2.8 4.4 4.4 0 0 0-2 1.3 1.4 1.4 0 0 0 .3 2M357.4 169.3l-15.5 100.3 6-.4s8.5-32.4 11-43.1 10.4-34.3 11.4-36.3l1.6-3.2s5.2 30.5 6.7 36c2 7 2.4 8.7 5.4 21a213.2 213.2 0 0 1 4.7 24.4l7.3-.9-5.6-49.3-.2-38.7c0-5.5-1.1-19.2-1.1-19.2Z"/>
    <path fill="#dedfe0" d="m354.8 181.3 28.2.7c2.5.1 6.4.4 8.2-1.5 2.8-3 .3-6.4.6-10.5.2-2.6.4-6.7 1.1-9.1.9-3-.2-6.7-.2-9.8 0-7 0-16.7-.4-25.4-.1-2.3.5-4.2-1.2-5.7-1.2-1.2-6-2.4-7.7-2.6a81 81 0 0 0-9-.7 18.4 18.4 0 0 0-6.5 1.4c-2.3 1-3 4-4 6.3a51 51 0 0 0-3.9 16c-.3 4.7 0 7.8-1.5 12.3a64.2 64.2 0 0 0-1.6 7.5c-.6 3-.6 5-1.3 7.8-1 3.8-3.8 9-1.6 12.3"/>
    <path fill="#38303b" d="M375 109.4a13.7 13.7 0 0 0 11.3-1.4 12.6 12.6 0 0 0 4.7-7.5 12.8 12.8 0 0 0 .2-7.6 8.4 8.4 0 0 0-5-5.8c-2.4-1-6.4-1.1-8.2-2.9a7.2 7.2 0 0 0-6.7-1.6 9.7 9.7 0 0 0-4 2.8c-2 2.7-1.7 5.4-.2 8 1.6 2.4 4.3 3 5.2 5.3.8 2.1-2.3 8.5.4 10"/>
    <path fill="#86514d" d="M379.9 120.2a2.3 2.3 0 0 0 1.3-2v-9.6a.8.8 0 0 0 0-.5.6.6 0 0 0-.3-.2c-1-.3-2 .1-3.1.2-1.3.2-2.7-.3-4-.2a.5.5 0 0 0-.4.2.7.7 0 0 0 0 .3l-.7 8.3c0 .6-.2 1.3 0 1.7l.6 1a4.5 4.5 0 0 0 4.5 1.5 10.2 10.2 0 0 0 2-.7Z"/>
    <path fill="#794642" d="M381.2 108.1a.6.6 0 0 0-.3-.2c-1-.3-2.1.1-3.1.2-1.3.2-2.7-.3-4-.2a.5.5 0 0 0-.4.2.7.7 0 0 0 0 .3l-.3 3.2a8 8 0 0 0 3.6 1.7 4.8 4.8 0 0 0 4.6-1.8v-3a.8.8 0 0 0-.1-.4Z"/>
    <path fill="#86514d" d="M385.7 103.7c1.6-.4 3-1.4 3-2.6s-1.2-2.4-2.9-2.4"/>
    <path fill="#86514d" d="M385 106c-2.7 5.5-7 5.4-11.6 5.9a8.5 8.5 0 0 1-3-.4c-2-.6-2.5-2.7-2.7-4.4a36.6 36.6 0 0 1 .4-8.9 12 12 0 0 1 2.1-5.6 7.2 7.2 0 0 1 6-2.7c3 .2 5.8 2.2 7.5 4.5 2.5 3.4 3.3 7.6 1.6 10.9"/>
    <path fill="#86514d" d="M368.1 98.1a8.3 8.3 0 0 1-.7 2.6 2.4 2.4 0 0 1-1 1.2 1 1 0 0 0-.5 1.5 1.5 1.5 0 0 0 .8.5 1.2 1.2 0 0 0 1.3-.2"/>
    <path fill="#38303b" d="m374.5 95.6-.2.1a.6.6 0 0 1-.2 0 6 6 0 0 0-3.6-.4 1.8 1.8 0 0 1-.5.1l-.4-.2a.2.2 0 0 1 .1-.2 1.7 1.7 0 0 1 .8-.3 5.3 5.3 0 0 1 3.2.3 1.7 1.7 0 0 1 .8.6M372.5 98.6c0 .7-.2 1.3-.7 1.3s-.8-.5-.9-1.2.3-1.3.7-1.4.9.6 1 1.3Z"/>
    <g clip-path="url(#d)" transform="translate(367.7 105.1)">
      <path fill="#e66e60" d="M-3.2.6A4.2 4.2 0 0 0 1 2 4.5 4.5 0 0 0 3.1.8 8.7 8.7 0 0 1-3.2.5"/>
      <path fill="#fff" d="M-3.2.6a8.6 8.6 0 0 0 5.2.6A2.2 2.2 0 0 0 3.3.7 15.7 15.7 0 0 1-3.4.5Z"/>
    </g>
    <path fill="#86514d" d="M368.6 152.6a14.7 14.7 0 0 0-3.1-5.4c-.2-.2-.4-.4-.6-.3a.6.6 0 0 0-.3.3l-3.2 6.1a2.1 2.1 0 0 0-.3 2 2 2 0 0 0 1.4.8q3.4.9 7 1.6"/>
    <path fill="#b9cafc" d="m368.2 116.9 14 12.7-79.8 88-14-12.7z"/>
    <path fill="#d1ddff" d="m288.4 205-7.5 20.8a.7.7 0 0 0 1 .9l20.5-9.1Z"/>
    <g fill="#b9caff" opacity=".2">
      <path d="m298.7 214.3-12.8 9.1a.7.7 0 0 0 .7 1.2l15.8-7ZM283.9 221.6l8.2-13.3-3.7-3.4-5.8 16.2a.7.7 0 0 0 1.3.5Z"/>
    </g>
    <g fill="#86514d">
      <path d="M369 157.6c-3.5 1-8.6.9-11.8-1a2.1 2.1 0 0 1-1-1 1 1 0 0 1 .5-1.2 1.5 1.5 0 0 1 1 .2 14.4 14.4 0 0 0 11.1-.1"/>
      <path d="M361.8 155.8a7.1 7.1 0 0 1-5-2.5 1.1 1.1 0 0 1-.4-.8.8.8 0 0 1 .9-.6 2.7 2.7 0 0 1 1 .5 13.2 13.2 0 0 0 10.6 1.4"/>
      <path d="M365 154.8a11.6 11.6 0 0 1-6.5-2.9c-.7-.5-1.3-1.4-1-2.2.8-.4 1.7.2 2.5.7a17.9 17.9 0 0 0 9.6 2.8"/>
      <path d="M364.2 152.7a6.5 6.5 0 0 1-4.4-4 .9.9 0 0 1 0-.7c0-.4.7-.4 1.2-.2a21 21 0 0 1 3.8 2.6 18.3 18.3 0 0 0 4.5 2.3"/>
    </g>
    <path fill="#b7b7b7" d="M390 154.1q-3.1-9-5.3-18.4c-.9-3.7-1.7-7.6-.6-11.2.6-2 2-4.2 4.1-4.7 2.1-.5 4.4.7 5.7 2.5a15.8 15.8 0 0 1 2.4 6 156.4 156.4 0 0 1 3.9 29c0 1.6 0 3.5-1.5 4.4a4.8 4.8 0 0 1-2.1.5c-10 1-10.6.3-20.6-1-3.1-.4-11.4-1.4-10.9-2.9a21.9 21.9 0 0 1 3.3-5.7c.6-.9 3.3-.2 6.4-.3 8.2-.2 10.2.2 18.4-1"/>
    <path fill="#86514d" d="M332.7 154.7a10.2 10.2 0 0 0 .7 4c0 .3.3.7.7.7.6 0 .8-.8.7-1.4l-.2-3.7a7 7 0 0 0 1 2.5 1 1 0 0 0 .6.5c.6 0 .9-.7.9-1.3a22.3 22.3 0 0 0-.2-4.2 5 5 0 0 0 1.3 3 .8.8 0 0 0 .4.4c.5 0 .8-.7.7-1.3l-.2-3.8a4.7 4.7 0 0 0 1 2.5c.6 0 .8-.8.8-1.3l-.5-3.7a.5.5 0 0 0-1-.5c-1.6 1-3.6 1.6-4.9 3a7.4 7.4 0 0 0-1.8 4.5"/>
    <path fill="#38303b" d="M386.2 98.2a9.6 9.6 0 0 1-1.6 2.2.9.9 0 0 1-.5.3.8.8 0 0 1-.6-.3c-2-2-1.9-5.6-4.3-6.9-1-.6-2.4-.5-3.6-.7a7.3 7.3 0 0 1-5.8-6 15.1 15.1 0 0 1 17.9 10.8"/>
    <path fill="#90a6ea" d="M284.9 220.7a4.6 4.6 0 0 0-1.2-.6.7.7 0 0 0-.9.4l-1.9 5.3a.7.7 0 0 0 1 .9l4.9-2.2a.7.7 0 0 0 .4-.9 6.3 6.3 0 0 0-2.3-3Z"/>
    <g>
      <path fill="#f7b094" d="m26 274-.2-4.7a2.6 2.6 0 0 1 .3-1.8c.8-1 2.4-1 3.7-1a2.3 2.3 0 0 1 1.3.3 1.4 1.4 0 0 1 .4 1.4l-1 6.6M66.3 273.4l-.1-4.8a2.4 2.4 0 0 0-.6-1.8c-.8-.9-2.6-.8-4.1-.7a2.8 2.8 0 0 0-1.5.4 1.3 1.3 0 0 0-.2 1.4l1.5 6.5"/>
      <path fill="#38303b" d="m77.5 279.6-8.2.3h-9a1.4 1.4 0 0 1-1-.2 1.3 1.3 0 0 1-.2-1.1 17.4 17.4 0 0 1 .8-4.6c.1-.4.3-.7.6-.8a1.2 1.2 0 0 1 1 .2 2.5 2.5 0 0 0 2.5.3c.4 0 1.7-.5 2-.6a2 2 0 0 1 1.1 0 37.2 37.2 0 0 1 9.3 3 4 4 0 0 1 1.8 1.3 1.5 1.5 0 0 1-.3 2M42.3 279.6l-8.2.3h-9a1.4 1.4 0 0 1-.9-.2 1.3 1.3 0 0 1-.3-1.1 17.4 17.4 0 0 1 .8-4.6c.1-.4.3-.7.7-.8a1.2 1.2 0 0 1 .9.2 2.5 2.5 0 0 0 2.6.3l2-.6a2 2 0 0 1 1 0 37.2 37.2 0 0 1 9.4 3 4 4 0 0 1 1.7 1.3 1.5 1.5 0 0 1-.2 2"/>
      <g fill="#38303b">
        <path d="M64.7 181c-.2 25.2 1.4 87 1.4 87l-6 .4s-5.8-34.4-6.9-39.8-5.4-38.7-5.4-38.7L31 268l-5.5-.1s3.8-59.8 4.6-86.6c0-3.1 3.6-15.8 3.6-15.8l27.7-2.2 3.1 16a8.9 8.9 0 0 1 .2 1.7Z"/>
        <path d="m24.4 270.2 8.4.3V267l-8.3-.3ZM58.9 265.1l8.3-.5.2 3.5-8.3.5z"/>
      </g>
      <path fill="#38303b" d="M60.3 90c-2.1-5-8.6-7.6-13.9-6.4S37 89 35 94c-1.7 4.3-2 9-3.5 13.4a28.5 28.5 0 0 1-6 10.2c-2.4 2.7-5.4 5-7.3 8a14.3 14.3 0 0 0 10.2 21.7c4.9.7 10-1.1 14.7.2 2.4.7 4.6 2.1 7 2.5 4.4.6 8.6-2.3 10.5-6.2s1.7-8.5.7-12.7c-1-4.6-3.1-9-3.3-13.7-.2-5.2 1-8.6 1.5-13.8.4-4.5 4-6.7.9-13.7Z"/>
      <path fill="#b9caff" d="m29.2 174.2.7 3.2a3.1 3.1 0 0 0 3.1 2q14.4.3 28.7.3a3.9 3.9 0 0 0 2.2-.4 4.2 4.2 0 0 0 1.4-1.7c.3-1.3-1.6-3.8-1.2-5.2"/>
      <path fill="#f7b094" d="M78.2 163.2c1.4 1.4 6.4 7.3 7.3 9 .9 1.8 1.6 3.8 3 5.2.2.3.9 0 1-.4a6.8 6.8 0 0 0-.2-2.2c-.1-.4.5-.8.9-.5a2.6 2.6 0 0 1 .6.6c1.2 1.5 2.3 2.6 3.4 4.1a12.1 12.1 0 0 0 1.9 2.1c.3.3.5 0 .4-.4 0-.4-.6-1.5-.5-1.4.2.3.8 0 .7-.5a21.8 21.8 0 0 0-3.3-6.7c-2.8-3.6-9-7.7-11.7-11.5"/>
      <path fill="#90a6ea" d="M51 134.3a115.2 115.2 0 0 0 26.8 30c1.1 1 2 1.7 3.2 1.4 1.6-.5 4.2-2 3-3.7-5.7-7.5-13.1-16-16.2-24a102.7 102.7 0 0 0-4.2-10.8 23.3 23.3 0 0 0-8.3-9.7"/>
      <path fill="#b9caff" d="M32.3 177.4c-1.9 0-3.4-1.9-3.7-3.8s2-6 1.7-8c-.5-3-3-28.1 2.6-41.8 1.3-3.1 3.5-6.3 6.7-7.1a18 18 0 0 1 5.4-.1c3.7.2 7.6-.4 11 1.3 5.6 2.8 6.6 10.4 6.8 16.7l.7 15.9c.2 6.5 1.3 12.2 1.3 17.9 0 2.2 2.4 5.6.7 7.5-1.3 1.4-5.5.6-7.4.7l-23 .6"/>
      <path fill="#90a6ea" d="M37 154.6c-2 .8-7 1.7-9.1 2.3-1.6.4-3.5-1-4.8-3.1-.8-1.6-1-4.3-1-6a43 43 0 0 1 2.3-11.2 73.1 73.1 0 0 1 5.5-12.4c1.7-3.4 6.3-7.4 9.6-7.6 4.7-.4 6 1.6 4.6 7.2-1 4-3.1 7-6.2 13.5-1.4 2.9-3.6 8.1-3.6 8.1Z"/>
      <path fill="#f7b094" d="m44 115.7 2-8.2.7-2.1a1 1 0 0 1 .2-.5.5.5 0 0 1 .3 0c1 0 1.9.8 2.8 1.3 1.1.6 2.5.7 3.6 1.3a.5.5 0 0 1 .3.3 1 1 0 0 1 0 .4c-.4 2-.8 7.8-1 10.5-.2 1.5-3 2.3-5.6 1.5-3.3-1-3.6-3.5-3.4-4.5Z"/>
      <path fill="#e89c82" d="M46.9 105a.5.5 0 0 1 .3-.2c1 0 1.9 1 2.8 1.4 1.1.6 2.5.7 3.6 1.3a.5.5 0 0 1 .3.3 1 1 0 0 1 0 .4l-.7 3.5a6.4 6.4 0 0 1-3.7.5 5 5 0 0 1-3.7-3.7l.3-1 .6-2.1a1 1 0 0 1 .2-.5Z"/>
      <path fill="#f7b094" d="M44.3 103c-1.6-.2-3-1-3.2-2.2s1-2.5 2.5-2.5"/>
      <path fill="#f7b094" d="M44.1 103.2c1.7 5.8 5.8 6.5 10 7.9a8.1 8.1 0 0 0 2.9.3c2-.3 2.9-2.1 3.2-3.7a35.4 35.4 0 0 0 1-8.5 12 12 0 0 0-1.1-5.8 7.3 7.3 0 0 0-5.2-3.7 9.6 9.6 0 0 0-7.8 2.8c-2.9 2.7-4.4 6.5-3.2 10"/>
      <path fill="#f7b094" d="M60.8 97.5a9.6 9.6 0 0 0 .4 3 3 3 0 0 0 1 1.6 1.1 1.1 0 0 1 .3 1.7 1.6 1.6 0 0 1-1 .4 1.4 1.4 0 0 1-1.4-.5"/>
      <path fill="#38303b" d="M40 98.8A33.2 33.2 0 0 0 52 95a15.4 15.4 0 0 0 4.5-3.2c.6-.7 1-1.7.5-2.5-.6-.8-2-1-3.3-.9-.9 0-1.7.2-2.6.3a14.1 14.1 0 0 0-4.1 1.2 14.8 14.8 0 0 0-3.6 2.8c-1.1 1-2.3 2.2-2.4 3.6"/>
      <g>
        <path fill="#38303b" d="M55 96a.6.6 0 0 0 .3 0 5.3 5.3 0 0 1 3.3-.2 1.6 1.6 0 0 0 .4.1c.2 0 .4 0 .4-.2a.2.2 0 0 0 0-.1 1.6 1.6 0 0 0-.8-.4 4.7 4.7 0 0 0-3 .2 1.5 1.5 0 0 0-.7.6"/>
      </g>
      <path fill="#38303b" d="M57 98.9c0 .7.4 1.2.8 1.2s.7-.6.7-1.3-.4-1.2-.8-1.2-.7.6-.7 1.3Z"/>
      <g>
        <g clip-path="url(#e)" transform="translate(54.4 104.9)">
          <path fill="#d1574e" d="M1.8 1.4C3 2.2 3.4 2.8 4.6 3a16.8 16.8 0 0 0 3.7-.2 4.2 4.2 0 0 0 2-1.8 14.5 14.5 0 0 1-8.5.4"/>
          <path fill="#fff" d="M1.8 1.3a13.4 13.4 0 0 0 7.2.2 2.7 2.7 0 0 0 1.5-.8 23.8 23.8 0 0 1-9 .5Z"/>
          <path fill="#e66e60" d="M4.6 2.9a2.9 2.9 0 0 1-.7-.2 5.2 5.2 0 0 1 2-.6 10 10 0 0 1 3 .3 1.9 1.9 0 0 1-.6.3 16.8 16.8 0 0 1-3.7.2Z"/>
        </g>
      </g>
      <g>
        <path fill="#38303b" d="M90.4 107c3.4-11 1.5-21.5-4.3-23.3s-13.2 5.8-16.6 17c-3.1 10-1.8 19.6 2.7 22.6v.2l-9 29.2c-.4 1.3-.2 2.5.5 2.7l1 .3c.7.2 1.5-.6 2-2l8.9-29.1v-.3c5.5-.2 11.7-7.3 14.8-17.2Z"/>
        <path fill="#e6fcff" d="M86.7 105.8c-2.8 9.3-8.3 15.8-12.3 14.5s-5-9.6-2-18.9S80.6 85.7 84.5 87s5 9.7 2.1 19Z" opacity=".8"/>
        <path fill="#fff" d="M86.7 105.8a38.5 38.5 0 0 0 1.4-6l-17.3 8.6c-.4 4 0 7.4 1 9.5l12.6-6.3a38.5 38.5 0 0 0 2.3-5.8ZM87.5 90.3 74 97.2a39.6 39.6 0 0 0-1.6 4.2l-.8 3 16.9-8.6a16.7 16.7 0 0 0-.9-5.5Z" opacity=".3"/>
      </g>
      <path fill="#f7b094" d="M58 140.5c5.9-2.8 10-4.7 15-5a2 2 0 0 1 1.7.5 1.2 1.2 0 0 1 0 1.4 3 3 0 0 1-1.1.7 1.2 1.2 0 0 1 .1 1.6 2.9 2.9 0 0 1-1.3.9c1 .7.3 1.8-1 2-.4 0 .8 2-2 1.8a22 22 0 0 1-4.1-.4c-.7-.2-1.6.4-2.3.4-1.7.1-2.8 1.3-4.4 1.3"/>
      <path fill="#90a6ea" d="M26.3 156.8c2.6 1.4 14.4-1.9 18.2-3.3a84 84 0 0 0 17.9-8.9c.5-.7-1.4-4.3-1.6-5.4 0-.4-5.6.8-10.3 2.1a335 335 0 0 1-16.7 3.1"/>
    </g>
  </g>
</svg>