<svg xmlns="http://www.w3.org/2000/svg" xmlns:xlink="http://www.w3.org/1999/xlink" width="433.922" height="295.261" viewBox="0 0 433.922 295.261"><defs><clipPath id="a"><path d="M134.983,266.97a21.686,21.686,0,0,1,13.147-19.936c2.619-1.123,5.984,3.234,9.014,3.234,3.6,0,6.52-4.1,9.51-2.544a21.678,21.678,0,0,1,11.69,19.247" transform="translate(-134.983 -246.849)" fill="none"/></clipPath><filter id="b" x="154.176" y="32.267" width="155.156" height="262.994" filterUnits="userSpaceOnUse"><feOffset dx="1" dy="5" input="SourceAlpha"/><feGaussianBlur stdDeviation="4" result="c"/><feFlood flood-opacity="0.149"/><feComposite operator="in" in2="c"/><feComposite in="SourceGraphic"/></filter><clipPath id="d"><path d="M285.143,285.43a34.5,34.5,0,0,1,20.913-31.714c4.166-1.786,9.52,5.145,14.34,5.145,5.731,0,10.372-6.522,15.128-4.047a34.485,34.485,0,0,1,18.6,30.616" transform="translate(-285.143 -253.422)" fill="none"/></clipPath><clipPath id="e"><path d="M536.732,181.132a16.951,16.951,0,0,1-.151-1.924.5.5,0,0,1,.061-.286.487.487,0,0,1,.291-.165,7.475,7.475,0,0,1,1.909-.27,2.3,2.3,0,0,1,1.144.217.983.983,0,0,1,.541.963,1.115,1.115,0,0,1-.175.413,2.242,2.242,0,0,1-.474.53,4.3,4.3,0,0,1-1.182.611,9.657,9.657,0,0,1-2.09.618" transform="translate(-536.581 -178.486)" fill="none"/></clipPath><clipPath id="f"><path d="M85.344,178.11c-.356,1.078-.391,2.554-1.089,3.6-.145.217-.757.012-1.156.1a2.679,2.679,0,0,1-1.328-.147,4.48,4.48,0,0,1-2.865-2.136.487.487,0,0,1,.062-.582,2.331,2.331,0,0,1,1.211-.367,16.671,16.671,0,0,1,2.953-.07,4.173,4.173,0,0,0,1.676-.09" transform="translate(-78.839 -178.11)" fill="none"/></clipPath></defs><g transform="translate(0.5 -26.432)"><g transform="translate(0 29.932)"><g transform="translate(0 -3)"><g transform="translate(135.991 7.001)"><circle cx="26.544" cy="26.544" r="26.544" transform="translate(0 17.567) rotate(-19.324)" fill="#f0efed" opacity="0.53"/><g opacity="0.66"><path d="M221.708,48.663a8.633,8.633,0,1,1-11.378,4.426A8.632,8.632,0,0,1,221.708,48.663Z" transform="translate(-202.17 -42.616)" fill="#fff"/><path d="M218.236,47.43a9.136,9.136,0,1,1-8.364,5.458A9.068,9.068,0,0,1,218.236,47.43Zm-.008,17.27a8.142,8.142,0,1,0-3.271-.691A8.139,8.139,0,0,0,218.228,64.7Z" transform="translate(-202.17 -42.616)" fill="#b9cafc"/></g></g><path d="M422.361,433.047c0,4.39-93.118,7.949-207.985,7.949S6.392,437.436,6.392,433.047s93.117-7.95,207.984-7.95S422.361,428.656,422.361,433.047Z" transform="translate(-2.018 -154.703)" fill="#f7f7f6"/><g transform="translate(398.679)"><path d="M604.34,83.221a10.846,10.846,0,1,1-10.82-10.872A10.845,10.845,0,0,1,604.34,83.221Z" transform="translate(-582.647 -43.325)" fill="#f0efed" opacity="0.53"/><path d="M622.374,78.316a24.442,24.442,0,1,1,0-48.884v1a23.442,23.442,0,1,0,0,46.884Z" transform="translate(-587.631 -29.932)" fill="#b9cafc" opacity="0.52"/></g><path d="M546.079,83.038l-5.378-5.5,5.477-5.353-5.378-5.5-5.477,5.353-5.378-5.5-5.477,5.353,5.378,5.5-5.477,5.353,5.378,5.5,5.477-5.353,5.378,5.5Z" transform="translate(-165.567 -41.488)" fill="#dedfe0" opacity="0.52"/><g transform="translate(290.038 10.624)" opacity="0.56"><path d="M429.4,56.133l-.016-3.729a.677.677,0,0,0-.709-.64l-4.093.018a.676.676,0,0,1-.708-.64h0a.677.677,0,0,1,.7-.646l4.092-.018a.676.676,0,0,0,.7-.646l-.016-3.729a.676.676,0,0,1,.7-.646h0a.677.677,0,0,1,.709.64l.016,3.729a.677.677,0,0,0,.709.64l4.093-.018a.677.677,0,0,1,.708.64h0a.677.677,0,0,1-.7.647l-4.093.018a.676.676,0,0,0-.7.646l.016,3.729a.676.676,0,0,1-.7.646h0A.676.676,0,0,1,429.4,56.133Z" transform="translate(-423.875 -45.459)" fill="#b9cafc"/><g transform="translate(13.11 8.362)"><path d="M451.519,75.161l-.027-6.106a1.069,1.069,0,0,0-1.088-1.048l-6.283.028a1.068,1.068,0,0,1-1.088-1.048h0a1.068,1.068,0,0,1,1.078-1.057L450.4,65.9a1.068,1.068,0,0,0,1.079-1.057l-.027-6.106a1.068,1.068,0,0,1,1.079-1.057h0a1.068,1.068,0,0,1,1.088,1.048l.027,6.106a1.068,1.068,0,0,0,1.088,1.048l6.283-.027A1.069,1.069,0,0,1,462.1,66.9h0a1.068,1.068,0,0,1-1.078,1.057l-6.284.027a1.068,1.068,0,0,0-1.078,1.058l.027,6.106a1.068,1.068,0,0,1-1.078,1.057h0A1.068,1.068,0,0,1,451.519,75.161Z" transform="translate(-443.034 -57.68)" fill="#b9cafc"/></g></g><path d="M129.691,396.51l-5.18-5.654,5.628-5.156-5.18-5.654-5.628,5.156-5.18-5.654-5.628,5.156,5.18,5.654-5.628,5.156,5.18,5.654,5.628-5.156,5.18,5.654Z" transform="translate(-34.125 -140.322)" fill="#dedfe0" opacity="0.38"/><path d="M98.876,110.625l-4.735-5.168,5.145-4.713-4.735-5.168-5.145,4.713L84.672,95.12l-5.145,4.713L84.262,105l-5.145,4.713,4.735,5.168L89,110.17l4.735,5.168Z" transform="translate(-24.981 -50.515)" fill="#dedfe0" opacity="0.38"/><g transform="translate(90.349 20.229)"><circle cx="20.057" cy="20.057" r="20.057" transform="matrix(0.993, -0.122, 0.122, 0.993, 0, 4.901)" fill="#d1ddfd"/><circle cx="18.398" cy="18.398" r="18.398" transform="matrix(0.997, -0.072, 0.072, 0.997, 2.684, 5.329)" fill="#fff"/><path d="M163.432,88.616h-10.4v-1h9.4V74.922h1Z" transform="translate(-138.669 -64.366)" fill="#b9cafc"/></g><g transform="translate(0 14.861)"><circle cx="16.525" cy="16.525" r="16.525" transform="translate(26.335 2.05) rotate(-17.476)" fill="#f0efed" opacity="0.53"/><path d="M235.944,47.43a26.831,26.831,0,1,1-14.495,4.248A26.635,26.635,0,0,1,235.944,47.43Zm-.025,52.669a25.915,25.915,0,1,0-10.387-2.193A25.849,25.849,0,0,0,235.918,100.1Z" transform="translate(-209.597 -40.69)" fill="#b9cafc" opacity="0.66"/></g></g><g transform="translate(69.236 59.791)"><g transform="translate(0 11.616)"><path d="M9.574,0H76.493a9.575,9.575,0,0,1,9.575,9.575V147.259a9.575,9.575,0,0,1-9.575,9.575H9.575A9.575,9.575,0,0,1,0,147.259V9.574A9.574,9.574,0,0,1,9.574,0Z" fill="#f7f7f6"/><g transform="translate(10.722 8.425)" opacity="0.5"><g transform="translate(0 21.132)"><g transform="translate(12.405 5.041)"><ellipse cx="15.69" cy="16.235" rx="15.69" ry="16.235" transform="translate(7.069)" fill="#38303b"/><g transform="translate(17.365 29.876)"><path d="M170.938,240.933a69.869,69.869,0,0,1-1.979-10.9,1.044,1.044,0,0,0-.068-.348.493.493,0,0,0-.392-.257c-1.225-.248-2.486.082-3.7-.224-1-.25-1.988-.921-2.977-.614a.454.454,0,0,0-.272.185,1.006,1.006,0,0,0-.092.489c-.016.761-.008,1.522,0,2.283.026,2.324-1.12,8.433-1.094,10.757" transform="translate(-160.36 -228.514)" fill="#86514d"/></g><g transform="translate(18.312 29.19)"><path d="M161.847,227.775a.45.45,0,0,1,.272-.185c.988-.307,1.98.365,2.977.614,1.218.306,2.479-.024,3.7.224a.493.493,0,0,1,.392.257,1.04,1.04,0,0,1,.068.348c.1,1.221.374,2.325.47,3.546a6.745,6.745,0,0,1-3.566,1.625,4.84,4.84,0,0,1-4.4-2.576q-.006-.542-.012-1.083c-.009-.761-.017-1.522,0-2.283A1.006,1.006,0,0,1,161.847,227.775Z" transform="translate(-161.745 -227.511)" fill="#794642"/></g><g transform="translate(11.191 10.323)"><g transform="translate(1.812)"><path d="M153.986,211.122c0,7.472,5.157,13.53,9.751,13.53s9.751-6.058,9.751-13.53-3.082-11.183-9.751-11.183C157.667,199.939,153.986,203.65,153.986,211.122Z" transform="translate(-153.986 -199.939)" fill="#86514d"/></g><g transform="translate(0 8.957)"><path d="M153.683,218.168a3.228,3.228,0,0,1-2.339-2.663,2.3,2.3,0,0,1,2.22-2.472" transform="translate(-151.338 -213.029)" fill="#86514d"/><g transform="translate(20.477)"><path d="M181.264,218.168A3.227,3.227,0,0,0,183.6,215.5a2.3,2.3,0,0,0-2.22-2.472" transform="translate(-181.264 -213.029)" fill="#86514d"/></g></g></g><path d="M174.692,213.578c0,.753.333,1.363.743,1.363s.744-.61.744-1.363-.333-1.362-.744-1.362S174.692,212.826,174.692,213.578Z" transform="translate(-147.521 -193.492)" fill="#38303b"/><path d="M160.578,213.478c0,.753.333,1.363.743,1.363s.743-.61.743-1.363-.333-1.362-.743-1.362S160.578,212.726,160.578,213.478Z" transform="translate(-143.064 -193.46)" fill="#38303b"/><path d="M157.33,209.57c-.057.128.04.2.091.169.107-.065.138-.218.436-.408a4.039,4.039,0,0,1,3.661-.224,6.217,6.217,0,0,0,.645.337.168.168,0,0,0,.2-.136.433.433,0,0,0-.088-.231,1.8,1.8,0,0,0-.84-.621,3.721,3.721,0,0,0-3.287.252,1.966,1.966,0,0,0-.808.852" transform="translate(-142.033 -192.22)" fill="#38303b"/><path d="M176.381,213.4a1.6,1.6,0,0,0-2.763-.124l-.6-.382a2.3,2.3,0,0,1,3.989.18Z" transform="translate(-147.087 -193.48)" fill="#38303b"/><path d="M159.48,213.4l-.629-.326a2.3,2.3,0,0,1,3.989-.18l-.6.382a1.6,1.6,0,0,0-2.763.124Z" transform="translate(-142.618 -193.48)" fill="#38303b"/><path d="M177.388,209.57c.057.128-.04.2-.091.169-.107-.065-.138-.218-.436-.408a4.038,4.038,0,0,0-3.66-.224,6.157,6.157,0,0,1-.645.337.168.168,0,0,1-.2-.136.437.437,0,0,1,.088-.231,1.8,1.8,0,0,1,.84-.621,3.723,3.723,0,0,1,3.288.252,1.965,1.965,0,0,1,.807.852" transform="translate(-146.784 -192.22)" fill="#38303b"/><path d="M169.407,220.781h-.051l-1.4-.041.029-1,1.081.032q-.4-3.176-.8-6.351l.992-.125q.418,3.329.834,6.657a.735.735,0,0,1-.182.634A.7.7,0,0,1,169.407,220.781Z" transform="translate(-145.4 -193.853)" fill="#794642"/><path d="M163.905,227.207a4.383,4.383,0,0,0,4.177,1.208,4.484,4.484,0,0,0,2.027-1.267,9.215,9.215,0,0,1-6.234-.012" transform="translate(-144.106 -198.203)" fill="#794642"/><path d="M134.983,266.97a21.686,21.686,0,0,1,13.147-19.936c2.619-1.123,5.984,3.234,9.014,3.234,3.6,0,6.52-4.1,9.51-2.544a21.678,21.678,0,0,1,11.69,19.247" transform="translate(-134.983 -204.427)" fill="#b9cafc"/><path d="M172.849,247.081a21.7,21.7,0,0,0-18.679-.756c1.063,4.231,5.78,3.692,9.446,3.692C167.308,250.016,171.543,250.924,172.849,247.081Z" transform="translate(-141.041 -203.708)" fill="#86514d"/><g transform="translate(0 42.422)"><g clip-path="url(#a)"><g transform="translate(-5.602 13.98)" opacity="0.18"><rect width="52.918" height="0.824" transform="translate(0 2.994)" fill="#ffedd7"/><rect width="52.918" height="0.824" fill="#ffedd7"/></g></g></g><path d="M155.864,245.618a15.932,15.932,0,0,0,6.218,4.175c.137.051.3.127.311.272a.383.383,0,0,1-.034.166l-2.062,5.678a1.387,1.387,0,0,1-2.151.62,22.938,22.938,0,0,1-6.412-7.614,1.593,1.593,0,0,1-.23-1.343,1.543,1.543,0,0,1,.7-.637,13.832,13.832,0,0,1,2.975-1.245" transform="translate(-140.175 -204.039)" fill="#d5dffc"/><path d="M173.638,245.759a14.619,14.619,0,0,1-5.776,4.084c-.127.048-.275.122-.289.267a.408.408,0,0,0,.028.166l1.765,5.559a1.385,1.385,0,0,0,2.2.652,22.566,22.566,0,0,0,5.822-7.371,1.709,1.709,0,0,0,.231-1.34,1.471,1.471,0,0,0-.638-.647,12.2,12.2,0,0,0-2.716-1.288" transform="translate(-145.273 -204.083)" fill="#d5dffc"/></g><path d="M-1-1H69.2V68.542H-1ZM67.2,1H1V66.542H67.2Z" fill="#dedfe0"/></g><path d="M13.332,17l-2.826-4.05A4.1,4.1,0,0,0,13.1,8.972C13.1,6.146,10.992,4.4,7.626,4.4H2.172V17H5.088V13.49H7.77L10.2,17ZM10.146,8.972c0,1.368-.9,2.2-2.682,2.2H5.088V6.776H7.464C9.246,6.776,10.146,7.586,10.146,8.972ZM18.3,14.66V11.744h5.85V9.476H18.3V6.74h6.624V4.4H15.4V17h9.756V14.66Zm13.32,2.556c3.6,0,5.346-1.8,5.346-3.906,0-4.626-7.326-3.024-7.326-5.346,0-.792.666-1.44,2.394-1.44a7.116,7.116,0,0,1,3.492.99l.9-2.214a8.452,8.452,0,0,0-4.374-1.116c-3.582,0-5.31,1.782-5.31,3.924,0,4.68,7.326,3.06,7.326,5.418,0,.774-.7,1.35-2.43,1.35a7.411,7.411,0,0,1-4.158-1.314l-.99,2.2A8.981,8.981,0,0,0,31.62,17.216Zm12.942,0c3.582,0,5.706-2.052,5.706-5.76V4.4h-2.88v6.948c0,2.394-1.026,3.384-2.808,3.384-1.764,0-2.808-.99-2.808-3.384V4.4H38.856v7.056C38.856,15.164,40.98,17.216,44.562,17.216ZM67.35,17,67.314,4.4H64.92l-4.644,7.83L55.56,4.4H53.148V17h2.736V9.6l3.69,6.066h1.314L64.6,9.44,64.614,17Z" transform="translate(2.309)" fill="#90a6ea"/><g transform="translate(0.422 94.496)"><rect width="34.934" height="3.527" transform="translate(0.153)" fill="#dedfe0"/><rect width="18.08" height="3.527" transform="translate(37.947)" fill="#dedfe0"/><rect width="24.974" height="3.527" transform="translate(67.875 8.592) rotate(180)" fill="#dedfe0"/><rect width="25.638" height="3.527" transform="translate(40.603 8.592) rotate(180)" fill="#dedfe0"/><rect width="9.193" height="3.527" transform="translate(58.529)" fill="#dedfe0"/><rect width="12.257" height="3.527" transform="translate(12.257 8.592) rotate(180)" fill="#dedfe0"/><rect width="28.498" height="3.527" transform="translate(0.153 10.13)" fill="#dedfe0"/><rect width="18.386" height="3.527" transform="translate(30.695 10.13)" fill="#dedfe0"/><rect width="16.394" height="3.527" transform="translate(51.328 10.13)" fill="#dedfe0"/></g><g transform="translate(1.185 119.864)" opacity="0.6"><path d="M124.135,321.776l1.715,3.475,3.834.557-2.775,2.7.655,3.819-3.43-1.8-3.43,1.8.655-3.819-2.775-2.7,3.834-.557Z" transform="translate(-118.585 -321.776)" fill="#90a6ea"/><path d="M145.791,321.776l1.715,3.475,3.834.557-2.775,2.7.655,3.819-3.43-1.8-3.43,1.8.655-3.819-2.775-2.7,3.834-.557Z" transform="translate(-125.423 -321.776)" fill="#90a6ea"/><path d="M167.447,321.776l1.715,3.475,3.835.557-2.775,2.7.655,3.819-3.43-1.8-3.43,1.8.655-3.819-2.775-2.7,3.834-.557Z" transform="translate(-132.261 -321.776)" fill="#90a6ea"/><path d="M187.007,321.776l1.715,3.475,3.834.557-2.775,2.7.655,3.819-3.43-1.8-3.43,1.8.655-3.819-2.775-2.7,3.834-.557Z" transform="translate(-138.437 -321.776)" fill="#90a6ea"/><path d="M206.8,321.776l1.715,3.475,3.834.557-2.775,2.7.655,3.819-3.43-1.8-3.43,1.8.655-3.819-2.775-2.7,3.834-.557Z" transform="translate(-144.687 -321.776)" fill="#90a6ea"/></g></g></g><g transform="translate(237.306)"><path d="M9.574,0H82.868a9.575,9.575,0,0,1,9.575,9.575v149.3a9.575,9.575,0,0,1-9.575,9.575H9.575A9.575,9.575,0,0,1,0,158.875V9.574A9.574,9.574,0,0,1,9.574,0Z" fill="#f7f7f6"/><g transform="translate(9.233 41.84)" opacity="0.14"><g transform="translate(0 70.231)"><rect width="37.521" height="11.235" transform="translate(0.165)" fill="#dedfe0"/><rect width="19.419" height="11.235" transform="translate(40.757)" fill="#dedfe0"/><rect width="26.824" height="11.235" transform="translate(72.903 27.368) rotate(180)" fill="#dedfe0"/><rect width="27.537" height="11.235" transform="translate(43.61 27.368) rotate(180)" fill="#dedfe0"/><rect width="9.874" height="11.235" transform="translate(62.864)" fill="#dedfe0"/><rect width="13.165" height="11.235" transform="translate(13.165 27.368) rotate(180)" fill="#dedfe0"/><rect width="30.609" height="11.235" transform="translate(0.165 32.266)" fill="#dedfe0"/><rect width="19.748" height="11.235" transform="translate(32.968 32.266)" fill="#dedfe0"/><rect width="17.608" height="11.235" transform="translate(55.13 32.266)" fill="#dedfe0"/></g><g transform="translate(0.228)"><path d="M467.781,178.459l1.842,3.732,4.119.6-2.98,2.9.7,4.1-3.684-1.937L464.1,189.8l.7-4.1-2.98-2.9,4.118-.6Z" transform="translate(-461.82 -178.459)" fill="#92d5e4"/><path d="M491.041,178.459l1.842,3.732,4.119.6-2.98,2.9.7,4.1-3.684-1.937-3.684,1.937.7-4.1-2.98-2.9,4.118-.6Z" transform="translate(-469.165 -178.459)" fill="#92d5e4"/><path d="M514.3,178.459l1.842,3.732,4.118.6-2.98,2.9.7,4.1L514.3,187.86l-3.684,1.937.7-4.1-2.98-2.9,4.118-.6Z" transform="translate(-476.509 -178.459)" fill="#92d5e4"/><path d="M535.31,178.459l1.842,3.732,4.118.6-2.98,2.9.7,4.1-3.684-1.937-3.684,1.937.7-4.1-2.98-2.9,4.118-.6Z" transform="translate(-483.142 -178.459)" fill="#92d5e4"/><path d="M556.569,178.459l1.842,3.732,4.118.6-2.98,2.9.7,4.1-3.684-1.937-3.684,1.937.7-4.1-2.98-2.9,4.118-.6Z" transform="translate(-489.855 -178.459)" fill="#92d5e4"/></g><g transform="translate(0 18.344)"><rect width="37.521" height="11.235" transform="translate(0.165)" fill="#dedfe0"/><rect width="19.419" height="11.235" transform="translate(40.757)" fill="#dedfe0"/><rect width="26.824" height="11.235" transform="translate(72.903 27.368) rotate(180)" fill="#dedfe0"/><rect width="27.537" height="11.235" transform="translate(43.61 27.368) rotate(180)" fill="#dedfe0"/><rect width="9.874" height="11.235" transform="translate(62.864)" fill="#dedfe0"/><rect width="13.165" height="11.235" transform="translate(13.165 27.368) rotate(180)" fill="#dedfe0"/><rect width="30.609" height="11.235" transform="translate(0.165 32.266)" fill="#dedfe0"/><rect width="19.748" height="11.235" transform="translate(32.968 32.266)" fill="#dedfe0"/><rect width="17.608" height="11.235" transform="translate(55.13 32.266)" fill="#dedfe0"/></g></g></g></g><g transform="translate(111.347 35.767)"><g transform="translate(15.849 145.31)"><path d="M241.464,385.628l-.94-.341a42.839,42.839,0,0,0,2.557-13.449l1,.023A43.85,43.85,0,0,1,241.464,385.628Z" transform="translate(-203.289 -318.968)" fill="#92d5e4"/><path d="M236.237,369.631c-9.292-39.309-28.448-57.86-50.113-75.065-1.069,14.887,1.525,32.046,7.742,44.01s18.686,34.29,33.607,43.674" transform="translate(-185.89 -294.566)" fill="#b9caff"/><path d="M229.442,380.1A327.315,327.315,0,0,0,210.5,336.653a292.794,292.794,0,0,0-24.329-38.641l.8-.6a293.792,293.792,0,0,1,24.413,38.774,328.316,328.316,0,0,1,19,43.583Z" transform="translate(-186.104 -295.559)" fill="#90a6ea"/><path d="M234.877,372.782l-.978-.207,1.243-5.874,1.243-5.874.978.207-1.243,5.874Z" transform="translate(-201.203 -315.52)" fill="#90a6ea"/><path d="M223.731,349.068l-.964-.267a42.2,42.2,0,0,0,1.512-12.922l1-.043A43.214,43.214,0,0,1,223.731,349.068Z" transform="translate(-197.686 -307.604)" fill="#90a6ea"/><path d="M212.772,331.794l-.981-.193a33.226,33.226,0,0,0,.464-10.022l.994-.109A34.224,34.224,0,0,1,212.772,331.794Z" transform="translate(-194.223 -303.078)" fill="#90a6ea"/><path d="M202.056,316.529l-.977-.212a14.351,14.351,0,0,0,.1-5.757l.981-.193A15.358,15.358,0,0,1,202.056,316.529Z" transform="translate(-190.84 -299.586)" fill="#90a6ea"/><path d="M198.941,319.616l-2.465-.347-2.7-.381.14-.99,2.7.381,2.466.347Z" transform="translate(-188.4 -302.089)" fill="#90a6ea"/><path d="M205.905,335.387a14.1,14.1,0,0,1-5.011-.915,14.442,14.442,0,0,1-5.2-3.4l.712-.7a13.449,13.449,0,0,0,4.846,3.172,13.162,13.162,0,0,0,5.689.812l.075,1Q206.456,335.387,205.905,335.387Z" transform="translate(-189.097 -305.98)" fill="#90a6ea"/><path d="M211.484,354.573a20.441,20.441,0,0,1-4.174-.429,19.769,19.769,0,0,1-7.543-3.312l.583-.812a19.221,19.221,0,0,0,15.144,3.151l.2.981A21.44,21.44,0,0,1,211.484,354.573Z" transform="translate(-190.363 -312.204)" fill="#90a6ea"/><path d="M225.522,377.508c-.166,0-.336-.01-.517-.027a28.475,28.475,0,0,1-11.83-3.878l.51-.86a27.482,27.482,0,0,0,11.417,3.743,4.4,4.4,0,0,0,2.32-.447l.359.933A6.018,6.018,0,0,1,225.522,377.508Z" transform="translate(-194.586 -319.385)" fill="#90a6ea"/></g><path d="M425.6,412.337c10.837-.6,27.2,1.65,37.651,5.662a126.756,126.756,0,0,0-25.688-9.77,168.668,168.668,0,0,1,44.97.479,204.3,204.3,0,0,0-36.913-6.387,449.434,449.434,0,0,1,48.129-8.273c-14.983-1.681-28.565-2.964-43.01-.411,16.389-7.782,32.7-11.5,51.148-14.4-18.9-1.684-39.808-.232-60.294,6.719-4.454,1.512-17.193,8.414-17.193,8.414l-6.045,9.289Z" transform="translate(-243.441 -175.789)" fill="#90a6ea"/><g transform="translate(166.773 168.342)"><path d="M424.334,399.3a27.139,27.139,0,0,1-.763-10.724l.992.13a26.131,26.131,0,0,0,.735,10.325Z" transform="translate(-411.947 -347.302)" fill="#92d5e4"/><path d="M406.457,386.44c13.506-30.071,35.2-45.4,57.559-58.213-2.186,11.584-6.865,26.065-14.144,35.149S428.2,389.4,413.1,396.326" transform="translate(-406.457 -328.227)" fill="#b9caff"/><path d="M414.149,395.414l-.86-.511A279.586,279.586,0,0,1,436.4,361.726a276.474,276.474,0,0,1,27.577-29.363l.677.736a275.47,275.47,0,0,0-27.477,29.256A278.588,278.588,0,0,0,414.149,395.414Z" transform="translate(-408.75 -329.649)" fill="#90a6ea"/><path d="M432.205,389.51q-.439-4.526-.88-9.051l0-.04,1-.1,0,.04q.44,4.526.88,9.052Z" transform="translate(-414.465 -344.691)" fill="#90a6ea"/><path d="M445.683,371.5a27.268,27.268,0,0,1,.177-10.286l.978.208a26.258,26.258,0,0,0-.17,9.905Z" transform="translate(-418.871 -338.676)" fill="#90a6ea"/><path d="M458.361,358.415a22.218,22.218,0,0,1,.826-8.019l.96.281a21.224,21.224,0,0,0-.789,7.66Z" transform="translate(-422.981 -335.271)" fill="#90a6ea"/><path d="M470.5,346.886a10.215,10.215,0,0,1,.667-4.826l.929.371a9.211,9.211,0,0,0-.6,4.351Z" transform="translate(-426.818 -332.653)" fill="#90a6ea"/><path d="M471.187,349.461l-.093-1,4.922-.458.093,1Z" transform="translate(-426.881 -334.63)" fill="#90a6ea"/><path d="M460.421,361.465q-.686,0-1.371-.058l.084-1a15.7,15.7,0,0,0,10.389-2.871l.583.812a16.729,16.729,0,0,1-9.685,3.113Z" transform="translate(-423.076 -337.611)" fill="#90a6ea"/><path d="M451.09,376.124a23.421,23.421,0,0,1-4.389-.414l.187-.982a22.568,22.568,0,0,0,14.592-2.134l.462.887A23.546,23.546,0,0,1,451.09,376.124Z" transform="translate(-419.194 -342.376)" fill="#90a6ea"/><path d="M435.328,393.493a5.955,5.955,0,0,1-2.148-.459l.336-.942a4.633,4.633,0,0,0,2.126.391A32.842,32.842,0,0,0,446.8,389.82l.4.917a33.838,33.838,0,0,1-11.5,2.743C435.571,393.489,435.448,393.493,435.328,393.493Z" transform="translate(-414.948 -347.82)" fill="#90a6ea"/><path d="M424.224,407.417h-.277l.01-1a27.105,27.105,0,0,0,10.726-2.111l.389.921A28.119,28.119,0,0,1,424.224,407.417Z" transform="translate(-411.981 -352.394)" fill="#90a6ea"/></g><path d="M218.792,403.365l-9.6,2.257c-2.079.489-4.279.976-6.318.337s-3.747-2.849-3.043-4.866c.863-2.473,4.582-3.141,5.172-5.694-2.721-2.016-6.455-1.788-9.8-1.284s-6.914,1.169-10.01-.2-5.027-5.794-2.679-8.236c.949-.987,2.333-1.405,3.477-2.161s2.1-2.212,1.5-3.445a3.423,3.423,0,0,0-2.162-1.488c-3.532-1.163-7.28-1.477-10.9-2.3s-7.3-2.29-9.651-5.17-2.91-7.467-.425-10.232c2.835-3.154,8.1-2.574,11.69-.315s6.193,5.778,9.516,8.412c1.138.9,2.742,1.715,3.963.928,1.58-1.019.868-3.419.191-5.172s-.563-4.5,1.31-4.65a2.694,2.694,0,0,1,1.706.6c5.368,3.765,3.681,12.25,6.879,17.975.706,1.265,2.074,2.519,3.433,2.017,2.695-1,.42-6.359,3.068-7.472,1.167-.491,2.5.357,3.213,1.4,2.468,3.592.452,8.57,1.513,12.8,1.4,5.592,7.578,8.344,13.049,10.167" transform="translate(-162.727 -169.503)" fill="#90a6ea"/><g transform="translate(48.264)"><g transform="matrix(1, 0, 0, 1, -160.11, -39.27)" filter="url(#b)"><path d="M9.575,0H121.582a9.574,9.574,0,0,1,9.574,9.574V229.42a9.574,9.574,0,0,1-9.574,9.574H9.575A9.575,9.575,0,0,1,0,229.42V9.575A9.575,9.575,0,0,1,9.575,0Z" transform="translate(165.18 39.27)" fill="#f7f7f6"/></g><g transform="translate(21.625 187.915)"><path d="M272.884,356.832l2.477,5.02,5.54.805-4.008,3.907.946,5.517-4.955-2.6-4.955,2.6.946-5.517-4.008-3.907,5.54-.805Z" transform="translate(-264.867 -356.832)" fill="#b9caff"/><path d="M304.17,356.832l2.477,5.02,5.54.805-4.008,3.907.946,5.517-4.955-2.6-4.955,2.6.946-5.517-4.008-3.907,5.539-.805Z" transform="translate(-274.745 -356.832)" fill="#b9caff"/><path d="M335.456,356.832l2.477,5.02,5.54.805-4.008,3.907.946,5.517-4.955-2.6-4.955,2.6.946-5.517-4.008-3.907,5.54-.805Z" transform="translate(-284.623 -356.832)" fill="#b9caff"/><path d="M363.714,356.832l2.477,5.02,5.54.805-4.008,3.907.946,5.517-4.955-2.6-4.955,2.6.946-5.517-4.008-3.907,5.539-.805Z" transform="translate(-293.546 -356.832)" fill="#b9caff"/><path d="M392.31,356.832l2.477,5.02,5.54.805-4.008,3.907.946,5.517-4.955-2.6-4.955,2.6.946-5.517-4.008-3.907,5.54-.805Z" transform="translate(-302.575 -356.832)" fill="#b9caff"/></g><path d="M31.178,30l-4.867-6.975a7.055,7.055,0,0,0,4.464-6.851c0-4.867-3.627-7.874-9.424-7.874H11.958V30H16.98V23.955H21.6L25.784,30ZM25.691,16.174c0,2.356-1.55,3.782-4.619,3.782H16.98V12.392h4.092C24.141,12.392,25.691,13.787,25.691,16.174Zm14.043,9.8V20.948H49.809V17.042H39.734V12.33H51.142V8.3h-16.4V30h16.8V25.97Zm22.94,4.4c6.2,0,9.207-3.1,9.207-6.727,0-7.967-12.617-5.208-12.617-9.207,0-1.364,1.147-2.48,4.123-2.48a12.256,12.256,0,0,1,6.014,1.7l1.55-3.813a14.556,14.556,0,0,0-7.533-1.922c-6.169,0-9.145,3.069-9.145,6.758,0,8.06,12.617,5.27,12.617,9.331,0,1.333-1.209,2.325-4.185,2.325a12.764,12.764,0,0,1-7.161-2.263l-1.7,3.782C55.761,29.349,59.233,30.372,62.674,30.372Zm22.289,0c6.169,0,9.827-3.534,9.827-9.92V8.3H89.83V20.266c0,4.123-1.767,5.828-4.836,5.828-3.038,0-4.836-1.7-4.836-5.828V8.3H75.136V20.452C75.136,26.838,78.794,30.372,84.963,30.372ZM124.209,30l-.062-21.7h-4.123l-8,13.485L103.9,8.3H99.75V30h4.712V17.259l6.355,10.447h2.263l6.386-10.726L119.5,30Z" transform="translate(2.133 3.609)" fill="#90a6ea"/><g transform="translate(26.85 56.254)"><path d="M280.62,239.038c-7.707-5.214-10.442-16.582-5.951-24.73,3.182-5.774,9.127-9.49,13-14.824,4.3-5.913,5.749-13.355,8.474-20.136s7.659-13.606,14.88-14.733c7.481-1.168,14.77,4.636,17.336,11.76s1.324,15.082-1.1,22.256a72.679,72.679,0,0,1-41.315,43.629" transform="translate(-272.503 -164.432)" fill="#38303b"/><path d="M335.332,228.137c8.873-4.47,17.183-17.264,19.405-26.948a37.138,37.138,0,0,0-.623-20.245c-2.22-6.47-6.873-12.23-13.106-15.046a14.5,14.5,0,0,0-7.431-1.419c-5.194.556-9.3,4.8-11.687,9.452-4.792,9.344-4.29,20.6-1.6,30.752" transform="translate(-286.954 -164.417)" fill="#38303b"/><g transform="translate(26.354 2.855)"><g transform="translate(0.097 3.897)"><g transform="translate(9.82 33.102)"><g transform="translate(0 1.091)"><path d="M342.338,244.013a111.249,111.249,0,0,1-3.148-17.334,1.643,1.643,0,0,0-.107-.554.787.787,0,0,0-.624-.41c-1.949-.393-3.954.131-5.892-.355-1.585-.4-3.163-1.466-4.735-.978a.72.72,0,0,0-.432.3,1.592,1.592,0,0,0-.148.777c-.025,1.21-.012,2.421,0,3.631.041,3.7-1.783,13.415-1.741,17.111" transform="translate(-325.511 -224.256)" fill="#f7b094"/></g><g transform="translate(1.508)"><path d="M327.877,223.081a.719.719,0,0,1,.432-.295c1.572-.488,3.15.58,4.735.978,1.938.486,3.943-.038,5.892.355a.787.787,0,0,1,.624.41,1.647,1.647,0,0,1,.107.554c.154,1.943.595,3.7.749,5.642a10.746,10.746,0,0,1-5.672,2.586,7.7,7.7,0,0,1-6.994-4.1q-.009-.861-.019-1.724c-.014-1.21-.027-2.421,0-3.631A1.592,1.592,0,0,1,327.877,223.081Z" transform="translate(-327.714 -222.661)" fill="#e89c82"/></g></g><g transform="translate(2.882)"><path d="M315.372,195.165c0,11.886,8.2,21.522,15.511,21.522s15.512-9.636,15.512-21.522-8.2-20.881-15.512-20.881S315.372,183.279,315.372,195.165Z" transform="translate(-315.372 -174.284)" fill="#f7b094"/></g><g transform="translate(0 17.339)"><path d="M314.89,207.8a5.134,5.134,0,0,1-3.721-4.236,3.657,3.657,0,0,1,3.531-3.932" transform="translate(-311.159 -199.624)" fill="#f7b094"/><g transform="translate(32.574)"><path d="M358.765,207.8a5.134,5.134,0,0,0,3.72-4.236,3.657,3.657,0,0,0-3.531-3.932" transform="translate(-358.765 -199.624)" fill="#f7b094"/></g></g></g><g transform="translate(25.517 20.351)"><path d="M348.31,200.5c0,1.2.53,2.168,1.182,2.168s1.182-.97,1.182-2.168-.529-2.167-1.182-2.167S348.31,199.3,348.31,200.5Z" transform="translate(-348.31 -198.331)" fill="#38303b"/></g><g transform="translate(10.154 20.242)"><path d="M325.858,200.339c0,1.2.53,2.167,1.182,2.167s1.182-.97,1.182-2.167-.529-2.168-1.182-2.168S325.858,199.141,325.858,200.339Z" transform="translate(-325.858 -198.171)" fill="#38303b"/></g><g transform="translate(6.6 15.966)"><path d="M320.692,194.122c-.091.2.063.318.144.269.171-.1.22-.348.694-.65a6.422,6.422,0,0,1,5.822-.357,9.637,9.637,0,0,0,1.026.535.266.266,0,0,0,.313-.216.686.686,0,0,0-.14-.367,2.862,2.862,0,0,0-1.336-.987,5.919,5.919,0,0,0-5.23.4,3.129,3.129,0,0,0-1.285,1.354" transform="translate(-320.664 -191.922)" fill="#38303b"/></g><path d="M351.182,200.111a2.747,2.747,0,0,0-4.756-.213l-.6-.381a3.456,3.456,0,0,1,5.984.268Z" transform="translate(-322.104 -177.962)" fill="#38303b"/><path d="M323.925,200.111l-.629-.326a3.457,3.457,0,0,1,5.984-.268l-.6.381a2.748,2.748,0,0,0-4.757.213Z" transform="translate(-314.994 -177.962)" fill="#38303b"/><g transform="translate(22.977 15.966)"><path d="M352.6,194.122c.091.2-.063.318-.144.269-.171-.1-.22-.348-.694-.65a6.422,6.422,0,0,0-5.822-.357,9.637,9.637,0,0,1-1.026.535.267.267,0,0,1-.314-.216.692.692,0,0,1,.14-.367,2.86,2.86,0,0,1,1.335-.987,5.919,5.919,0,0,1,5.23.4,3.127,3.127,0,0,1,1.286,1.354" transform="translate(-344.598 -191.922)" fill="#38303b"/></g><g transform="translate(5.889 30.117)" opacity="0.43"><g opacity="0.54"><path d="M319.624,215.948a3.418,3.418,0,1,0,3.417-3.344A3.381,3.381,0,0,0,319.624,215.948Z" transform="translate(-319.624 -212.604)" fill="#e66e60"/></g><g transform="translate(18.614)" opacity="0.54"><path d="M346.827,215.948a3.418,3.418,0,1,0,3.417-3.344A3.381,3.381,0,0,0,346.827,215.948Z" transform="translate(-346.827 -212.604)" fill="#e66e60"/></g></g><path d="M311.018,189.393c8.621-5.561,17.44-11.421,22.786-19.657.14-.216.278-.492.127-.7a.83.83,0,0,0-.7-.208c-8.2.164-16.155,4.392-20.261,10.77" transform="translate(-311.018 -168.663)" fill="#38303b"/><path d="M330.89,173.223a22.931,22.931,0,0,0,5.975,4.676c5.3,3.288,10.687,6.613,16.831,8.6a1.276,1.276,0,0,0,.507.089c.516-.048.7-.609.722-1.051.259-4.8-3.018-9.345-7.526-12.165s-10.1-4.125-15.671-4.782" transform="translate(-317.293 -168.589)" fill="#38303b"/><path d="M339.9,211.66h-.063l-2.225-.066.03-1,2.064.061q-.654-5.223-1.309-10.445l.992-.124q.664,5.294,1.327,10.589a.884.884,0,0,1-.2.763A.842.842,0,0,1,339.9,211.66Z" transform="translate(-319.419 -178.553)" fill="#e89c82"/><g transform="translate(13.745 36.591)"><path d="M331.152,222.178A6.973,6.973,0,0,0,337.8,224.1a7.135,7.135,0,0,0,3.225-2.015,14.656,14.656,0,0,1-9.917-.019" transform="translate(-331.105 -222.065)" fill="#e66e60"/></g></g><g transform="translate(8.649 58.422)"><path d="M285.143,285.43a34.5,34.5,0,0,1,20.913-31.714c4.166-1.786,9.52,5.145,14.34,5.145,5.731,0,10.372-6.522,15.128-4.047a34.485,34.485,0,0,1,18.6,30.616" transform="translate(-285.143 -250.942)" fill="#b9cafc"/><path d="M345.379,253.792a34.513,34.513,0,0,0-29.714-1.2c1.69,6.732,12.13,14.736,15.036,14.736C333.527,267.324,343.3,259.9,345.379,253.792Z" transform="translate(-294.78 -249.797)" fill="#f7b094"/><g transform="translate(0 2.481)"><g clip-path="url(#d)"><g transform="translate(-8.911 22.239)" opacity="0.18"><rect width="84.179" height="1.31" transform="translate(0 4.763)" fill="#ffedd7"/><rect width="84.179" height="1.31" fill="#ffedd7"/></g></g></g></g></g><g transform="translate(14.749 157.722)"><rect width="57.186" height="5.424" transform="translate(0.251)" fill="#dedfe0"/><rect width="29.596" height="5.424" transform="translate(62.119)" fill="#dedfe0"/><rect width="40.883" height="5.424" transform="translate(111.111 13.211) rotate(180)" fill="#dedfe0"/><rect width="41.97" height="5.424" transform="translate(66.466 13.211) rotate(180)" fill="#dedfe0"/><rect width="15.049" height="5.424" transform="translate(95.812)" fill="#dedfe0"/><rect width="20.065" height="5.424" transform="translate(20.065 13.211) rotate(180)" fill="#dedfe0"/><rect width="46.652" height="5.424" transform="translate(0.251 15.575)" fill="#dedfe0"/><rect width="30.098" height="5.424" transform="translate(50.247 15.575)" fill="#dedfe0"/><rect width="26.837" height="5.424" transform="translate(84.023 15.575)" fill="#dedfe0"/></g><path d="M-1-1H109.491V108.443H-1ZM107.491,1H1V106.443H107.491Z" transform="translate(15.972 41.754)" fill="#dedfe0"/></g></g><g transform="translate(15.559 45.093)"><g transform="translate(292.449)"><path d="M463.062,98.138a22.789,22.789,0,0,1,29.722,31.968.783.783,0,0,1-.374.608l-.018.028,7.793,9.721a.7.7,0,0,1-.838,1.05l-12.724-4.569a22.924,22.924,0,0,1-34.2-8.329A22.8,22.8,0,0,1,463.062,98.138Z" transform="translate(-450.137 -95.833)" fill="#b9cafc"/><path d="M465.971,126.592h0a2.319,2.319,0,0,1,3.271-.245l2.146,1.847a2.32,2.32,0,0,0,3.263-.235l11.387-13.075a2.319,2.319,0,0,1,3.272-.225h0a2.32,2.32,0,0,1,.226,3.273l-13.962,16.03a3.012,3.012,0,0,1-4.236.305l-5.122-4.4A2.319,2.319,0,0,1,465.971,126.592Z" transform="translate(-454.959 -101.598)" fill="#fefefe"/></g><g transform="translate(264.82 33.762)"><path d="M527.929,198.1c-.859-.282-5.066,1.223-7.512,4.368-2.576,3.311-9.617,15.26-12.579,25.681,9.38-6.979,14.905-17.195,20.066-26.994" transform="translate(-440.727 -161.876)" fill="#b7b7b7"/><g transform="translate(108.798 183.279)"><path d="M568.76,414.206q.723,2.023,1.444,4.047a2.97,2.97,0,0,1,.205.807c.066,1.087-1.016,1.887-1.3,2.939a.657.657,0,0,0-.018.343c.1.357.589.378.951.324l3.189-.476c.4-.06.869-.169,1.028-.545a1.221,1.221,0,0,0,.052-.546q-.23-4.037-.459-8.074" transform="translate(-568.76 -413.026)" fill="#86514d"/></g><g transform="translate(97.331 190.983)"><path d="M553.063,431.4c2.985-.088,5.43-.164,8.414-.252a5.859,5.859,0,0,0,2.656-.5c.432-.239.856-.6,1.354-.546.386.045.673.337,1.033.469a2.6,2.6,0,0,0,1.011.087l3.127-.14a1.54,1.54,0,0,0,.968-.264,1.162,1.162,0,0,0,.24-1.04,14.734,14.734,0,0,0-1.13-4.2c-.133-.305-.322-.644-.675-.719a1.355,1.355,0,0,0-.928.281c-1.141.674-2.664,1.2-3.8.541a4.368,4.368,0,0,0-.878-.514,2.263,2.263,0,0,0-1.15.059,41.089,41.089,0,0,0-9.362,3.414,4.114,4.114,0,0,0-1.725,1.335,1.291,1.291,0,0,0,.378,1.829" transform="translate(-552.003 -424.286)" fill="#38303b"/></g><g transform="translate(59.327 182.903)"><path d="M498.925,412.477q.05,2.348.1,4.7a3.225,3.225,0,0,1-.066.908c-.307,1.151-1.707,1.607-2.359,2.6a.721.721,0,0,0-.138.35c-.02.4.479.6.874.664l3.471.608a1,1,0,0,0,1.5-.758l2.313-8.532" transform="translate(-496.462 -412.477)" fill="#86514d"/></g><g transform="translate(46.661 190.51)"><path d="M478.966,430.039c3.156.18,5.744.324,8.9.5a6.01,6.01,0,0,0,2.849-.3c.478-.22.958-.579,1.479-.469.4.085.679.43,1.047.606a2.686,2.686,0,0,0,1.059.188l3.312.137a1.591,1.591,0,0,0,1.046-.2,1.3,1.3,0,0,0,.348-1.11,16.57,16.57,0,0,0-.811-4.674,1.171,1.171,0,0,0-.647-.846,1.407,1.407,0,0,0-1.005.22c-1.265.63-2.919,1.058-4.058.239a4.625,4.625,0,0,0-.879-.641,2.316,2.316,0,0,0-1.219-.042,42.475,42.475,0,0,0-10.189,2.853,4.359,4.359,0,0,0-1.942,1.295,1.441,1.441,0,0,0,.232,2.027" transform="translate(-477.95 -423.594)" fill="#38303b"/></g><path d="M514.447,267.953,498.967,368.2l6.041-.432s8.432-32.352,10.845-43.085,10.459-34.247,11.53-36.278,1.6-3.178,1.6-3.178,5.206,30.533,6.71,36.018c1.91,6.963,2.311,8.7,5.327,21a213.165,213.165,0,0,1,4.723,24.37l7.337-.87-5.6-49.328s-.268-33.219-.268-38.731-1.072-19.147-1.072-19.147Z" transform="translate(-437.926 -180.968)" fill="#38303b"/><path d="M517.036,259.966c9.8.288,18.385.45,28.185.738,2.574.075,6.468.308,8.2-1.551,2.869-3.087.351-6.38.663-10.533.19-2.53.356-6.666,1.076-9.1.865-2.932-.194-6.715-.2-9.766-.008-7.021.065-16.735-.4-25.436-.12-2.222.5-4.158-1.165-5.679-1.282-1.167-6.038-2.378-7.775-2.62a81.055,81.055,0,0,0-9.04-.681,18.4,18.4,0,0,0-6.422,1.379c-2.294,1.041-3.09,4-4.018,6.289a50.94,50.94,0,0,0-3.845,16.036c-.382,4.673-.023,7.847-1.562,12.289a64.21,64.21,0,0,0-1.585,7.555c-.564,2.952-.554,4.9-1.324,7.807-1.007,3.805-3.749,8.956-1.546,12.248" transform="translate(-443.127 -161.01)" fill="#dedfe0"/><path d="M543.06,172.211a13.683,13.683,0,0,0,11.295-1.428,12.62,12.62,0,0,0,4.781-7.415,12.837,12.837,0,0,0,.144-7.677,8.387,8.387,0,0,0-5.044-5.736c-2.314-1.068-6.329-1.183-8.153-2.911a7.183,7.183,0,0,0-6.639-1.631,9.728,9.728,0,0,0-4.076,2.8c-1.98,2.679-1.678,5.4-.116,7.92,1.514,2.446,4.232,3,5.119,5.37.8,2.144-2.249,8.541.424,9.934" transform="translate(-448.981 -145.174)" fill="#38303b"/><path d="M551.064,194.712a2.338,2.338,0,0,0,1.338-2.033c.029-2.4.082-5.921.1-7.541.005-.666.011-1.332-.01-2a.818.818,0,0,0-.1-.439.569.569,0,0,0-.287-.194c-1.044-.382-2.087.092-3.137.2-1.283.128-2.614-.305-3.905-.229a.472.472,0,0,0-.412.181.719.719,0,0,0-.07.3c-.172,1.9-.441,5.942-.634,8.33-.044.538-.278,1.246.044,1.7l.55.922a4.488,4.488,0,0,0,4.447,1.547A10.2,10.2,0,0,0,551.064,194.712Z" transform="translate(-452.087 -156.915)" fill="#86514d"/><path d="M552.6,182.7a.569.569,0,0,0-.287-.194c-1.044-.382-2.087.092-3.137.2-1.283.128-2.614-.305-3.905-.229a.472.472,0,0,0-.412.181.72.72,0,0,0-.07.3q-.145,1.59-.289,3.18a7.948,7.948,0,0,0,3.578,1.711,4.79,4.79,0,0,0,4.623-1.753q0-.474.008-.949c.005-.666.011-1.332-.01-2A.818.818,0,0,0,552.6,182.7Z" transform="translate(-452.304 -156.915)" fill="#794642"/><path d="M562.948,174.065c1.579-.346,2.938-1.351,3.056-2.563s-1.3-2.473-2.945-2.407" transform="translate(-458.127 -152.727)" fill="#86514d"/><path d="M553.834,172.262c-2.607,5.562-6.923,5.44-11.54,5.926a8.474,8.474,0,0,1-2.938-.342c-1.986-.644-2.591-2.756-2.725-4.467a36.635,36.635,0,0,1,.364-8.835,11.923,11.923,0,0,1,2.127-5.612,7.211,7.211,0,0,1,5.922-2.706c3.07.139,5.817,2.222,7.518,4.5,2.509,3.36,3.384,7.584,1.591,10.856" transform="translate(-449.781 -148.661)" fill="#86514d"/><path d="M536.155,168.247a8.347,8.347,0,0,1-.669,2.526,2.41,2.41,0,0,1-1.1,1.247.984.984,0,0,0-.421,1.455,1.531,1.531,0,0,0,.749.559,1.151,1.151,0,0,0,1.28-.182" transform="translate(-448.921 -152.459)" fill="#86514d"/><path d="M544.288,164c.068.053-.012.135-.111.14a.645.645,0,0,1-.282-.073,5.986,5.986,0,0,0-3.529-.305,1.787,1.787,0,0,1-.533.077c-.187-.012-.389-.113-.388-.237a.22.22,0,0,1,.081-.144,1.711,1.711,0,0,1,.8-.361,5.281,5.281,0,0,1,3.17.308,1.7,1.7,0,0,1,.826.632" transform="translate(-450.707 -150.797)" fill="#38303b"/><path d="M542.953,168.294c.06.715-.243,1.317-.675,1.345s-.831-.53-.89-1.245.243-1.317.675-1.344S542.894,167.579,542.953,168.294Z" transform="translate(-451.317 -152.081)" fill="#38303b"/><g transform="translate(86.779 22.794)"><g clip-path="url(#e)"><g transform="translate(-3.226 0.514)"><path d="M531.893,179.318a4.238,4.238,0,0,0,4.215,1.5,4.548,4.548,0,0,0,2.119-1.336,8.667,8.667,0,0,1-6.361-.241" transform="translate(-531.866 -179.238)" fill="#e66e60"/></g><g transform="translate(-3.388 0.449)"><path d="M531.818,179.288a8.6,8.6,0,0,0,5.224.627,2.238,2.238,0,0,0,1.269-.5,15.673,15.673,0,0,1-6.682-.27Z" transform="translate(-531.629 -179.143)" fill="#fff"/></g></g></g><path d="M534.4,245.173a14.678,14.678,0,0,0-3.106-5.432c-.156-.172-.372-.357-.593-.285a.63.63,0,0,0-.314.345l-3.195,6.1a2.11,2.11,0,0,0-.3,1.932,2.08,2.08,0,0,0,1.384.8q3.474.911,6.982,1.687" transform="translate(-446.698 -174.938)" fill="#86514d"/><rect width="18.868" height="118.798" transform="translate(87.277 34.522) rotate(42.16)" fill="#b9cafc"/><path d="M417.3,324.323l-7.5,20.9a.69.69,0,0,0,.929.864l20.555-9.1Z" transform="translate(-409.759 -201.74)" fill="#d1ddff"/><g transform="translate(1.713 122.583)" opacity="0.24"><path d="M429.816,337.984l-12.81,9.116a.69.69,0,0,0,.679,1.193l15.794-6.991Z" transform="translate(-413.667 -328.636)" fill="#b9caff"/><path d="M413.546,341.03l8.206-13.39-3.663-3.317-5.781,16.114A.69.69,0,0,0,413.546,341.03Z" transform="translate(-412.262 -324.323)" fill="#b9caff"/></g><rect width="8.985" height="118.798" transform="translate(90.941 37.839) rotate(42.16)" opacity="0.03"/><g transform="translate(75.292 65.34)"><path d="M532.676,253.653c-3.6.907-8.672.88-11.853-1.044a2.141,2.141,0,0,1-.965-.992.92.92,0,0,1,.441-1.186,1.461,1.461,0,0,1,1.01.168,14.4,14.4,0,0,0,11.123-.088" transform="translate(-519.794 -243.735)" fill="#86514d"/><path d="M525.518,250.658a7.118,7.118,0,0,1-5.1-2.517,1.1,1.1,0,0,1-.336-.791.82.82,0,0,1,.925-.6,2.712,2.712,0,0,1,1.1.5,13.241,13.241,0,0,0,10.551,1.464" transform="translate(-519.884 -242.585)" fill="#86514d"/><path d="M529.134,248.607a11.649,11.649,0,0,1-6.457-2.821c-.667-.586-1.314-1.438-1.048-2.285.852-.32,1.749.257,2.514.748a17.883,17.883,0,0,0,9.616,2.812" transform="translate(-520.354 -241.531)" fill="#86514d"/><path d="M529.484,245.678a6.508,6.508,0,0,1-4.466-4.1.876.876,0,0,1-.055-.567c.156-.449.808-.4,1.246-.216a21.055,21.055,0,0,1,3.822,2.536,18.337,18.337,0,0,0,4.552,2.348" transform="translate(-521.417 -240.664)" fill="#86514d"/></g><path d="M557.652,234.165q-3.029-9.083-5.232-18.417c-.868-3.681-1.635-7.566-.588-11.2.6-2.089,2-4.151,4.106-4.68,2.133-.536,4.4.69,5.724,2.449a15.825,15.825,0,0,1,2.383,6.1,156.4,156.4,0,0,1,3.852,28.844c.064,1.639-.049,3.583-1.433,4.462a4.809,4.809,0,0,1-2.129.555c-10.036,1.014-10.609.291-20.567-1.02-3.137-.413-11.419-1.453-10.919-2.883a21.865,21.865,0,0,1,3.261-5.736c.633-.844,3.378-.2,6.435-.291,8.228-.235,10.24.22,18.373-1.048" transform="translate(-448.617 -162.404)" fill="#b7b7b7"/><path d="M485.507,247.328a10.191,10.191,0,0,0,.631,3.961c.129.345.34.733.707.771.6.062.8-.776.77-1.377l-.185-3.757a7.058,7.058,0,0,0,.938,2.468,1.014,1.014,0,0,0,.61.535c.58.1.869-.678.9-1.267a22.344,22.344,0,0,0-.17-4.261,4.974,4.974,0,0,0,1.275,3.115.837.837,0,0,0,.392.281c.552.139.787-.677.751-1.245q-.12-1.913-.242-3.826a4.69,4.69,0,0,0,1.076,2.474c.554.121.747-.71.672-1.272q-.246-1.861-.492-3.721a.506.506,0,0,0-.871-.435c-1.667.9-3.687,1.605-4.952,3.016a7.411,7.411,0,0,0-1.863,4.426" transform="translate(-433.66 -174.997)" fill="#86514d"/><path d="M556.169,162.933a9.565,9.565,0,0,1-1.634,2.225.869.869,0,0,1-.525.314.833.833,0,0,1-.608-.326c-1.9-1.993-1.835-5.6-4.255-6.9-1.1-.593-2.425-.516-3.653-.75a7.333,7.333,0,0,1-5.716-5.881,15.115,15.115,0,0,1,17.832,10.741" transform="translate(-450.812 -147.097)" fill="#38303b"/><path d="M413.744,347.03a4.567,4.567,0,0,0-1.2-.56.691.691,0,0,0-.842.434l-1.9,5.3a.69.69,0,0,0,.929.864l4.938-2.186a.7.7,0,0,0,.363-.893A6.285,6.285,0,0,0,413.744,347.03Z" transform="translate(-409.759 -208.723)" fill="#90a6ea"/></g><g transform="translate(0 34.708)"><g transform="translate(7.84 80.006)"><path d="M37.211,421.837l-.265-4.76a2.626,2.626,0,0,1,.354-1.824c.718-.938,2.323-1,3.656-.957a2.317,2.317,0,0,1,1.343.319,1.417,1.417,0,0,1,.315,1.391q-.46,3.29-.92,6.58" transform="translate(-35.059 -311.097)" fill="#f7b094"/><path d="M93.067,420.938l-.086-4.766a2.419,2.419,0,0,0-.544-1.794c-.88-.885-2.681-.834-4.17-.692a2.821,2.821,0,0,0-1.477.414,1.294,1.294,0,0,0-.242,1.41q.779,3.248,1.559,6.5" transform="translate(-50.696 -310.882)" fill="#f7b094"/><g transform="translate(35.16 109.7)"><path d="M104,430.408c-2.906.11-5.288.2-8.194.308-.89.034-7.948-.066-8.964-.044a1.386,1.386,0,0,1-.958-.218,1.342,1.342,0,0,1-.3-1.1,17.37,17.37,0,0,1,.838-4.589c.11-.337.272-.714.612-.82a1.224,1.224,0,0,1,.92.239,2.538,2.538,0,0,0,2.593.34c.335-.074,1.637-.5,1.955-.633a2,2,0,0,1,1.121-.016,37.176,37.176,0,0,1,9.312,3.026,4.018,4.018,0,0,1,1.76,1.317,1.488,1.488,0,0,1-.253,1.993" transform="translate(-85.581 -423.801)" fill="#38303b"/></g><g transform="translate(0 109.7)"><path d="M52.615,430.408c-2.906.11-5.288.2-8.195.308-.889.034-7.948-.066-8.964-.044a1.386,1.386,0,0,1-.958-.218,1.34,1.34,0,0,1-.3-1.1,17.37,17.37,0,0,1,.838-4.589c.11-.337.272-.714.612-.82a1.224,1.224,0,0,1,.92.239,2.538,2.538,0,0,0,2.593.34c.335-.074,1.637-.5,1.955-.633a2,2,0,0,1,1.121-.016,37.186,37.186,0,0,1,9.312,3.026,4.018,4.018,0,0,1,1.76,1.317,1.487,1.487,0,0,1-.254,1.993" transform="translate(-34.196 -423.801)" fill="#38303b"/></g><g transform="translate(0.51)"><path d="M75.715,281.146c-.167,25.2,1.42,87.088,1.42,87.088l-5.959.317s-5.882-34.4-6.916-39.749-5.414-38.766-5.414-38.766L42.054,368.188l-5.512-.159s3.758-59.8,4.549-86.605c.091-3.084,3.676-15.784,3.676-15.784l27.7-2.159,3.089,15.909A8.9,8.9,0,0,1,75.715,281.146Z" transform="translate(-35.446 -263.481)" fill="#38303b"/><path d="M34.941,418.118l8.354.287.047-3.474-8.354-.287Z" transform="translate(-34.941 -311.21)" fill="#38303b"/><rect width="8.35" height="3.477" transform="translate(34.467 101.834) rotate(-3.713)" fill="#38303b"/></g></g><path d="M66.98,153.246c-2.143-4.946-8.617-7.564-13.886-6.425s-9.441,5.492-11.472,10.486c-1.753,4.313-2.117,9.065-3.575,13.487A28.525,28.525,0,0,1,32.1,181c-2.436,2.684-5.408,4.933-7.3,8.027a14.307,14.307,0,0,0,10.147,21.614c4.885.712,9.989-1.113,14.742.219,2.416.677,4.6,2.14,7.078,2.508,4.285.636,8.543-2.326,10.41-6.236s1.716-8.511.706-12.724c-1.094-4.565-3.148-8.954-3.338-13.645-.211-5.2,1.046-8.626,1.5-13.808C66.453,162.406,70,160.215,66.98,153.246Z" transform="translate(-22.738 -146.557)" fill="#38303b"/><path d="M41.888,278.614l.7,3.151a3.128,3.128,0,0,0,3.154,2.071q14.339.253,28.683.211a3.9,3.9,0,0,0,2.17-.424A4.246,4.246,0,0,0,78,282c.339-1.382-1.561-3.86-1.223-5.241" transform="translate(-28.785 -187.667)" fill="#b9caff"/><g transform="translate(34.93 34.188)"><g transform="translate(27.247 43.12)"><path d="M113.606,262.154c1.334,1.352,6.377,7.305,7.238,8.962.931,1.793,1.6,3.785,2.993,5.26.271.287.9,0,.944-.413a6.829,6.829,0,0,0-.128-2.224c-.094-.405.517-.784.883-.555a2.628,2.628,0,0,1,.682.667c1.125,1.518,2.251,2.564,3.376,4.082a12.116,12.116,0,0,0,1.841,2.122c.3.237.5-.1.417-.468-.07-.318-.608-1.456-.5-1.336.244.269.851.021.7-.548a21.807,21.807,0,0,0-3.31-6.715c-2.763-3.567-8.879-7.638-11.634-11.452" transform="translate(-113.606 -259.537)" fill="#f7b094"/></g><path d="M73.786,213.312a115.2,115.2,0,0,0,26.769,30.029c1.184.946,2.058,1.731,3.235,1.375,1.649-.5,4.212-2.069,3.009-3.663-5.679-7.53-13.138-16.022-16.17-24.007a102.738,102.738,0,0,0-4.276-10.789c-1.824-3.567-4.5-7.562-8.251-9.736" transform="translate(-73.786 -196.52)" fill="#90a6ea"/></g><path d="M44.809,255.939c-1.938.026-3.436-1.894-3.716-3.813s1.915-6.048,1.627-8.058c-.406-2.842-3.031-28.037,2.649-41.737,1.294-3.122,3.451-6.246,6.724-7.086a18.083,18.083,0,0,1,5.332-.107c3.717.17,7.66-.385,10.986,1.283,5.67,2.843,6.652,10.377,6.9,16.715L75.949,229c.263,6.589,1.272,12.268,1.272,17.924,0,2.271,2.446,5.59.7,7.512-1.249,1.373-5.489.659-7.345.708l-22.977.6" transform="translate(-28.526 -161.849)" fill="#b9caff"/><path d="M46.432,233.188c-2.027.783-6.942,1.667-9.04,2.286-1.568.463-3.536-.9-4.767-3.126-.85-1.536-.987-4.234-.972-5.954A43.054,43.054,0,0,1,33.9,215.222a73.117,73.117,0,0,1,5.464-12.439c1.779-3.384,6.35-7.391,9.612-7.632,4.691-.347,5.984,1.648,4.633,7.233-.968,4-3.164,7.046-6.21,13.461-1.379,2.9-3.646,8.154-3.646,8.154Z" transform="translate(-25.553 -161.888)" fill="#90a6ea"/><g transform="translate(24.992 6.286)"><g transform="translate(2.824 15.238)"><path d="M63.462,188.841c.675-2.588,1.661-6.4,2.124-8.145.19-.718.38-1.437.6-2.148a.936.936,0,0,1,.22-.434.468.468,0,0,1,.318-.1c1.06-.016,1.868.889,2.791,1.4,1.128.623,2.465.66,3.615,1.23a.509.509,0,0,1,.321.35.967.967,0,0,1-.023.346c-.4,2.1-.839,7.879-1.1,10.559-.148,1.5-2.838,2.3-5.527,1.5C63.555,192.424,63.193,189.871,63.462,188.841Z" transform="translate(-63.39 -178.014)" fill="#f7b094"/><g transform="translate(1.924)"><path d="M67.289,178.114a.468.468,0,0,1,.318-.1c1.06-.016,1.868.889,2.791,1.4,1.128.623,2.465.66,3.615,1.23a.509.509,0,0,1,.321.35.967.967,0,0,1-.023.346q-.336,1.763-.67,3.527a6.385,6.385,0,0,1-3.752.487,5.038,5.038,0,0,1-3.687-3.634l.271-1.023c.191-.718.381-1.437.6-2.148A.936.936,0,0,1,67.289,178.114Z" transform="translate(-66.202 -178.014)" fill="#e89c82"/></g></g><g transform="translate(0 8.674)"><path d="M62.494,173.227c-1.541-.225-2.949-1.105-3.2-2.27s.955-2.485,2.532-2.537" transform="translate(-59.263 -168.421)" fill="#f7b094"/></g><path d="M63.486,169.332c1.618,5.805,5.719,6.548,10.014,7.929a8.1,8.1,0,0,0,2.832.259c1.977-.217,2.872-2.1,3.26-3.7a35.4,35.4,0,0,0,1.005-8.471,12.007,12.007,0,0,0-1.156-5.757,7.349,7.349,0,0,0-5.189-3.75,9.625,9.625,0,0,0-7.8,2.781c-2.888,2.695-4.359,6.535-3.163,10" transform="translate(-60.402 -155.744)" fill="#f7b094"/><path d="M87.768,167.309a9.581,9.581,0,0,0,.395,2.949,3.033,3.033,0,0,0,1.072,1.642,1.128,1.128,0,0,1,.268,1.708,1.6,1.6,0,0,1-.934.436,1.428,1.428,0,0,1-1.43-.509" transform="translate(-68.064 -159.396)" fill="#f7b094"/></g><path d="M57.615,164.384a33.2,33.2,0,0,0,12.013-3.822,15.379,15.379,0,0,0,4.537-3.157c.636-.716,1.108-1.694.534-2.474-.625-.85-2.091-.965-3.3-.9-.879.05-1.751.142-2.612.275a14.1,14.1,0,0,0-4.132,1.195,14.8,14.8,0,0,0-3.6,2.79c-1.1,1.06-2.225,2.216-2.366,3.6" transform="translate(-33.75 -148.912)" fill="#38303b"/><g transform="translate(38.894 11.762)"><path d="M79.609,164.616c-.061.047.013.125.1.132a.577.577,0,0,0,.256-.06,5.348,5.348,0,0,1,3.217-.19,1.638,1.638,0,0,0,.488.086c.17-.006.353-.094.35-.209a.213.213,0,0,0-.076-.135,1.639,1.639,0,0,0-.735-.354,4.712,4.712,0,0,0-2.889.2,1.451,1.451,0,0,0-.744.562" transform="translate(-79.579 -163.746)" fill="#38303b"/></g><path d="M82.562,168.689c.04.7.409,1.25.823,1.237s.716-.589.676-1.286-.409-1.25-.823-1.237S82.522,167.992,82.562,168.689Z" transform="translate(-41.626 -153.139)" fill="#38303b"/><g transform="translate(38.387 21.59)"><g transform="translate(0)" clip-path="url(#f)"><path d="M81.508,179.919c1.139.744,1.583,1.369,2.754,1.487a16.788,16.788,0,0,0,3.709-.23,4.217,4.217,0,0,0,2-1.791,14.513,14.513,0,0,1-8.519.454" transform="translate(-79.664 -178.513)" fill="#d1574e"/><path d="M81.375,179.772a13.406,13.406,0,0,0,7.122.129,2.737,2.737,0,0,0,1.54-.733,23.782,23.782,0,0,1-8.956.456Z" transform="translate(-79.547 -178.444)" fill="#fff"/><path d="M85.215,181.972a2.905,2.905,0,0,1-.744-.17,5.209,5.209,0,0,1,1.982-.582,9.912,9.912,0,0,1,3.1.209,1.9,1.9,0,0,1-.632.313A16.788,16.788,0,0,1,85.215,181.972Z" transform="translate(-80.617 -179.078)" fill="#e66e60"/></g></g><g transform="translate(46.924 0.163)"><path d="M118.693,170.41c3.41-11.134,1.5-21.593-4.269-23.36s-13.21,5.827-16.62,16.961c-3.087,10.075-1.815,19.6,2.73,22.626-.029.079-.061.154-.086.236l-8.939,29.184c-.39,1.272-.171,2.467.488,2.669l1.061.325c.659.2,1.509-.666,1.9-1.938l8.939-29.184c.032-.1.054-.208.078-.312C109.388,187.466,115.647,180.354,118.693,170.41Z" transform="translate(-91.315 -146.795)" fill="#38303b"/><path d="M118.6,170.7c-2.826,9.225-8.341,15.716-12.319,14.5s-4.912-9.684-2.086-18.91,8.342-15.716,12.319-14.5S121.429,161.479,118.6,170.7Z" transform="translate(-94.868 -148.327)" fill="#e6fcff" opacity="0.82"/><path d="M118.6,176.677a38.544,38.544,0,0,0,1.353-6.112l-17.217,8.693c-.424,3.95-.055,7.35,1.033,9.525l12.555-6.34A38.485,38.485,0,0,0,118.6,176.677Z" transform="translate(-94.869 -154.3)" fill="#fff" opacity="0.31"/><path d="M119.826,156.73l-13.647,6.891A39.618,39.618,0,0,0,104.6,167.9q-.45,1.47-.771,2.9l16.807-8.487A16.72,16.72,0,0,0,119.826,156.73Z" transform="translate(-95.265 -149.932)" fill="#fff" opacity="0.31"/></g><path d="M84.073,227.819c5.852-2.8,9.9-4.715,14.922-5.065a1.908,1.908,0,0,1,1.78.581,1.172,1.172,0,0,1-.068,1.33,2.962,2.962,0,0,1-1.087.784A1.212,1.212,0,0,1,99.772,227a2.9,2.9,0,0,1-1.316.887c1.013.753.3,1.873-1.039,2.04-.338.042.809,1.943-2.017,1.778a22.057,22.057,0,0,1-4.076-.425c-.682-.129-1.6.43-2.272.467-1.676.091-2.778,1.219-4.454,1.31" transform="translate(-42.104 -170.612)" fill="#f7b094"/><path d="M37.732,245.85c2.621,1.4,14.413-1.922,18.169-3.319,4.576-1.7,16.823-7.192,17.908-8.91.46-.729-1.35-4.3-1.572-5.415-.088-.437-5.662.768-10.308,2.1-2.446.7-13.751,2.645-16.684,3.145" transform="translate(-27.472 -172.308)" fill="#90a6ea"/></g></g></g></g></svg>