<svg xmlns="http://www.w3.org/2000/svg" viewBox="0 0 310.3 161.2">
  <defs>
    <clipPath id="a">
      <circle cx="15.2" cy="15.2" r="15.2" fill="none"/>
    </clipPath>
  </defs>
  <path fill="#fff" d="M222 160a75 75 0 0 1-55.6-33.7c-19-28-26.6-73.4-3.9-101.5 22-27.1 62.2-29.7 93.3-18.8 21.9 7.7 41 24 49.9 45.5 20.5 50-30 110-81.7 108.5h-2Z" opacity=".5"/>
  <rect width="87.1" height="118.7" fill="#d0ebff" rx="8" transform="translate(86.8 37.6)"/>
  <rect width="82" height="113" fill="#fff" rx="8" transform="translate(89.4 40.3)"/>
  <path fill="#1e3f76" d="M107.3 40.7V37a2.2 2.2 0 0 1 2.2-2.2H124a7.1 7.1 0 0 1-.8-3.4 7.1 7.1 0 0 1 7.2-7.1 7.1 7.1 0 0 1 7.1 7.1 7.1 7.1 0 0 1-.8 3.4h14.5a2.2 2.2 0 0 1 2.2 2.2v3.6Zm20.3-9.2a2.8 2.8 0 0 0 2.8 2.8 2.8 2.8 0 0 0 2.7-2.8 2.8 2.8 0 0 0-2.7-2.8 2.8 2.8 0 0 0-2.8 2.8Z"/>
  <path fill="rgba(0,0,0,0)" d="M154 41.2h-47.2V37a2.7 2.7 0 0 1 2.7-2.7h13.8a7.7 7.7 0 0 1-.6-2.9 7.7 7.7 0 0 1 7.7-7.6 7.6 7.6 0 0 1 7.6 7.6 7.7 7.7 0 0 1-.5 2.9h13.7A2.7 2.7 0 0 1 154 37Zm-46.2-1h45.1V37a1.7 1.7 0 0 0-1.7-1.7h-15.4l.4-.8a6.6 6.6 0 0 0 .8-3 6.6 6.6 0 0 0-6.6-6.7 6.6 6.6 0 0 0-6.7 6.6 6.6 6.6 0 0 0 .8 3.1l.4.8h-15.4a1.7 1.7 0 0 0-1.7 1.7Zm22.6-5.4a3.3 3.3 0 0 1-3.3-3.3 3.3 3.3 0 0 1 3.3-3.3 3.3 3.3 0 0 1 3.2 3.3 3.3 3.3 0 0 1-3.2 3.3Zm0-5.6a2.3 2.3 0 0 0-2.3 2.3 2.3 2.3 0 0 0 2.3 2.3 2.3 2.3 0 0 0 2.2-2.3 2.3 2.3 0 0 0-2.2-2.3Z"/>
  <path fill="#204b91" d="M106.3 47h3a5.5 5.5 0 0 1 1.2.1 2.7 2.7 0 0 1 1 .4 2 2 0 0 1 .6.8 2.5 2.5 0 0 1 .3 1.1 2.3 2.3 0 0 1-.5 1.5 2 2 0 0 1-1.3.7l2 3.4h-2l-1.7-3.2h-.9V55h-1.7Zm1.7 3.3h1.6a1.5 1.5 0 0 0 .4-.1.8.8 0 0 0 .4-.3.8.8 0 0 0 .1-.5.8.8 0 0 0 0-.5.8.8 0 0 0-.4-.2 1.4 1.4 0 0 0-.4-.2 3.4 3.4 0 0 0-.5 0H108ZM113.6 47h5.4v1.6h-3.6v1.5h3.4v1.6h-3.4v1.6h3.8V55h-5.6ZM124.5 49a1.2 1.2 0 0 0-.5-.4 2 2 0 0 0-.7-.2 1.8 1.8 0 0 0-.4 0 1.5 1.5 0 0 0-.4.2.8.8 0 0 0-.3.3.6.6 0 0 0-.1.3.6.6 0 0 0 .3.6 2.6 2.6 0 0 0 .7.3l.8.3a3.7 3.7 0 0 1 1 .4 2.1 2.1 0 0 1 .6.6 2 2 0 0 1 .3 1.1 2.5 2.5 0 0 1-.3 1.2 2.3 2.3 0 0 1-.7.8 2.8 2.8 0 0 1-1 .5 4.5 4.5 0 0 1-2.5 0 3.6 3.6 0 0 1-1.3-.8l1.3-1.4a1.8 1.8 0 0 0 .7.5 2 2 0 0 0 1.2.2 1.4 1.4 0 0 0 .4-.2.8.8 0 0 0 .3-.2.6.6 0 0 0 .1-.4.7.7 0 0 0-.3-.6 2.5 2.5 0 0 0-.7-.3l-.9-.3a4 4 0 0 1-.9-.4 2.1 2.1 0 0 1-.6-.6 1.9 1.9 0 0 1-.3-1.1 2.3 2.3 0 0 1 1-2 3 3 0 0 1 .9-.4 4 4 0 0 1 1.1-.2 4.5 4.5 0 0 1 1.3.2 3 3 0 0 1 1.1.6ZM133.8 51.9a3.9 3.9 0 0 1-.3 1.3 2.9 2.9 0 0 1-.6 1 3 3 0 0 1-1 .7 4.4 4.4 0 0 1-3 0 3 3 0 0 1-1-.7 2.9 2.9 0 0 1-.6-1 3.8 3.8 0 0 1-.2-1.3V47h1.7v4.8a2 2 0 0 0 .1.7 1.7 1.7 0 0 0 .4.6 1.5 1.5 0 0 0 .5.3 1.6 1.6 0 0 0 .6.1 1.6 1.6 0 0 0 .6 0 1.5 1.5 0 0 0 .6-.4 1.7 1.7 0 0 0 .3-.6 2 2 0 0 0 .1-.7V47h1.7ZM135.4 47h2.6l1.9 5.2 1.8-5.2h2.6v8h-1.7v-6.1l-2.1 6h-1.3l-2-6v6h-1.8ZM146 47h5.4v1.6h-3.6v1.5h3.4v1.6h-3.4v1.6h3.8V55H146Z"/>
  <g clip-path="url(#a)" transform="translate(93.7 62.2)">
    <path fill="#edb9bc" d="M-3.2-1.3H32v33H-3.2z"/>
    <path fill="#5769b3" d="M25.3 69.3a16.4 16.4 0 0 0 .4 3.3c.2.6.5 0 .3 1.7a19.5 19.5 0 0 0-.2 2.5l.5 4.1-7.3.8-14.8.3-3.1-1v-3.5c0-1.4-.2-1.7.2-3.2s.9-6.5.9-6.5Z"/>
    <path fill="#e89f90" d="m9.9 24 .9-.6 1-6.7 6.5 1 .2 6.5.8.5-1.2 1-4.7 1-1.8-1.4ZM-5.3 53.3A37.8 37.8 0 0 1-4 37.8l6.2.1-.8 14.2Z"/>
    <path fill="#3b3348" d="m19.1 24.4 5 2c1.6.5 5.5 1.7 7 4s6.7 12 6.7 12-7.8 5.6-9 5.6c0 0-3.5-7.6-3.6-1.3l.4 23.8a10 10 0 0 0-2.2.4c-1.6.4-7.4 4-12.2 2.7a44.3 44.3 0 0 1-9.6-4s.8-14.8.8-17c0-1.2-.8-7.8-.8-7.8s-6.1 1.3-8.3-.4c0 0 3.5-15.8 6.5-17.2A89.4 89.4 0 0 1 10 23.7s5.4 4 9 .7Z"/>
    <path fill="#efc266" d="M6 36a4.5 4.5 0 0 1-1.2 2.8v2.5a12 12 0 0 0 6.2 2.4h.9a8.4 8.4 0 0 1 3.5.7l.4.3.2 1.4a12.4 12.4 0 0 1 .8-2.2 17.2 17.2 0 0 1 2.2-3.2l3-3.7a7 7 0 0 0 1.2-1.8V35c-3.1-.1-6.4.5-9.4-.4l-2.3-.7a9.3 9.3 0 0 0-6 .5A3 3 0 0 1 6 36Z"/>
    <path fill="#afd6f0" d="m22.9 54-.4-3a36.8 36.8 0 0 1 .3-7.9l.4-3.6.2-1.2-3 3.6a15.8 15.8 0 0 0-2 2.8 15.7 15.7 0 0 0-1 3.4l-.4 1.3-.5 1.5.2 1.4a2.8 2.8 0 0 0 .1.7c.2.6 1 .9 1.8 1.2a28.6 28.6 0 0 1 4.3 2 16 16 0 0 0 0-2.2Z"/>
    <path fill="#dae382" d="M18 55.9a4.5 4.5 0 0 1-2.9-2.1 2.6 2.6 0 0 1 0-.3 6 6 0 0 1-.8.8 8.1 8.1 0 0 1-2.2 1.2 15.2 15.2 0 0 1-2.8.9H9a4 4 0 0 0-1.2.4 3.9 3.9 0 0 0-1.3 1.7l-.1.3a29 29 0 0 0 6 .4c2-.1 4-.6 6-1A27.8 27.8 0 0 1 22 58h.1a26.6 26.6 0 0 0-4.2-2.1Z"/>
    <path fill="#df665c" d="M8.7 54.6h.2a13.4 13.4 0 0 0 2.5-.8 6.4 6.4 0 0 0 1.7-1 5.6 5.6 0 0 0 1.6-2.2L14 46a8.8 8.8 0 0 0-2.3-.3h-1a13.9 13.9 0 0 1-5.8-2c.2 2 .4 4 .4 6l-.1 5 .1 2.2A4.1 4.1 0 0 1 7 55.2a5.5 5.5 0 0 1 1.8-.6Z"/>
    <path fill="#e89f90" d="M16.7 54c-2 .4-11.7-4.8-15-5a13.2 13.2 0 0 0-6.5 1.3s-1.2 2-.2 3.1 4.7 3.2 8.5 3.9 9-.3 14.1.7Z"/>
    <path fill="#bb5151" d="M-3.2 53.7c-.8 0-1.5-1-1.6-1v-.1h.1s.8 1 1.5 1v.1ZM37 49.5a2.8 2.8 0 0 1-.5 1.8h-.1s.6-1 .4-1.7v-.1h.1Z"/>
    <path fill="#3b3348" d="M12.8 33a.3.3 0 1 0-.3.3.3.3 0 0 0 .3-.3Z"/>
    <path fill="#e7e7f2" d="M13 70.8c-4.3-.1-9-3.4-9.1-3.4a.1.1 0 0 1 .1-.2s5.3 3.6 9.8 3.4a31.2 31.2 0 0 0 9.4-2.5c-.1-.1-.6-.3-1.8 0-1.5.4-6.3 1.8-10 .3a.1.1 0 1 1 0-.2c3.7 1.5 8.4.1 10-.3 1.7-.5 2.1.1 2.1.2a.1.1 0 0 1 0 .1 31.9 31.9 0 0 1-9.7 2.6h-.7ZM1.7 40.3a.1.1 0 0 1-.2-.1l-.7-4.4a.1.1 0 0 1 .1-.1.1.1 0 0 1 .2 0l.7 4.4a.1.1 0 0 1-.1.2Z"/>
    <path fill="#e7e7f2" d="m1.4 39.2-1.6-2.3a.1.1 0 0 1 .2-.1L1.5 39a.1.1 0 0 1 0 .2Z"/>
    <path fill="#bf635f" d="m18.3 17.7-6.5-1-.6 4.2a5 5 0 0 0 4.4 2.4 3.9 3.9 0 0 0 2.8-2Z"/>
    <path fill="#bb5151" d="M15.1 16.8a.5.5 0 0 1 0-.4.2.2 0 0 1 .1-.1h.1a.8.8 0 0 0 .3-.2.4.4 0 0 0 .1-.3.7.7 0 0 0 0-.3 5 5 0 0 1-.5-2.3h.1a4.9 4.9 0 0 0 .4 2.3.9.9 0 0 1 .1.2.6.6 0 0 1-.2.5.9.9 0 0 1-.3.2H15a.3.3 0 0 0 0 .3v.1Z"/>
    <path fill="#563136" d="M11 11.3c0 .3.6.2 1 .1a11.6 11.6 0 0 1 1.5.2c.3 0 .4-.7-.1-.8s-2-.3-2.3.5ZM19.3 11.5c.2.3-.4.2-.8.1a11.6 11.6 0 0 0-1.6 0c-.3 0-.4-.6.2-.7s1.9-.2 2.2.6Z"/>
    <path fill="#242638" d="M18.1 13.6c0-.6-.1-1.1-.4-1.1s-.4.5-.5 1 .2 1.2.4 1.2.5-.5.5-1ZM12.8 13.6c0-.7-.1-1.2-.4-1.2s-.4.5-.5 1.1.2 1.1.4 1.2.5-.5.5-1.1Z"/>
    <path fill="#563136" d="M21.1 13.8s2-6.6-.5-8a8.2 8.2 0 0 0-3.9-1.4s-6.3-1.2-7.3 1.8 0 8.3 0 8.3L11 9l8.2-1.6 1.6 6.5Z"/>
    <path fill="#e89f90" d="M9.7 13.6s-.4-1.8-1.5-.5c-.5.6 0 2.5 1.5 2 0 0 .5-.3 0-1.5Z"/>
    <path fill="#bb5151" d="M9 14.7a.5.5 0 0 1-.4 0v-.2c.3.2.7 0 .9 0a.6.6 0 0 1-.2-.6.3.3 0 0 1 0-.2.2.2 0 0 1 .2 0c0-.2-.2-.7-.5-.7a.8.8 0 0 0-.7.8h-.1a1 1 0 0 1 0-.4.8.8 0 0 1 .8-.5c.4 0 .6.8.6.8v.1a.2.2 0 0 0-.2 0 .2.2 0 0 0 0 .2.4.4 0 0 0 0 .3.3.3 0 0 1 .2.1.1.1 0 0 1 0 .1 1 1 0 0 1-.7.2Z"/>
    <path fill="#e89f90" d="M20.5 14s.5-1.7 1.6-.4c.4.6-.2 2.5-1.7 2 0 0-.4-.5 0-1.6Z"/>
    <path fill="#bb5151" d="M21.2 15.2a.5.5 0 0 0 .4-.1V15c-.3.2-.8 0-.9-.1a.6.6 0 0 0 .2-.5.3.3 0 0 0 0-.2.2.2 0 0 0-.2 0c0-.3.3-.8.6-.7a.8.8 0 0 1 .7.8 1 1 0 0 0 0-.4.8.8 0 0 0-.7-.6c-.4 0-.7.8-.7.9a.2.2 0 0 1 .2 0 .2.2 0 0 1 0 .2.4.4 0 0 1-.1.4.1.1 0 0 0 0 .2 1 1 0 0 0 .5.2Z"/>
    <path fill="#fff" d="M13.2 17.5a1 1 0 0 1 .9 0 3.8 3.8 0 0 0 1.7-.1c.3 0 .7-.2 1 0a.7.7 0 0 1-.1.8 2 2 0 0 1-2.5.8 1.6 1.6 0 0 1-1-1.5Z"/>
    <path fill="#85554a" d="M22.3 6.4c.1.2.4.4.4.7s-.1.5-.3.8a.6.6 0 0 0 .2.8c-.5 0-1-.5-.8-.9a.6.6 0 0 0-.6.3.4.4 0 0 0 .1.6 1.3 1.3 0 0 1-.7-.3 1.2 1.2 0 0 1-.3-.4l-.7-1.7a2 2 0 0 1-1.5 2.4 4.3 4.3 0 0 0-1.3.5l-.7.7a2.5 2.5 0 0 1-1.5.3l.2-.1a.6.6 0 0 0 .5-.4 1.2 1.2 0 0 0 0-.6 1.3 1.3 0 0 1-1.2.5h-1.3c-.7 0-1.3.3-2 .4-.3 0-.7 0-1.1.2a8.2 8.2 0 0 0-1.3.4 1.8 1.8 0 0 1-1.3 0 8.6 8.6 0 0 0 1.4-.6c.2-.2.4-.4.3-.6a1.3 1.3 0 0 1-1.4.5.7.7 0 0 0 .6-.3 1.2 1.2 0 0 0 .2-.6V7.5a1.2 1.2 0 0 1 0-.6c.2-.2.5-.4.6-.7a1.7 1.7 0 0 0 0-.6 2 2 0 0 1 1-1.5 6.2 6.2 0 0 1 1.8-.9 9.7 9.7 0 0 1 3.7-.5 13.3 13.3 0 0 1 2.8.6 2.7 2.7 0 0 1 1.2.6 1.9 1.9 0 0 1 .4.9 5.4 5.4 0 0 1 1.2 0 1.5 1.5 0 0 1 1 .6l.4 1Z"/>
    <path fill="#fff" d="M9.7 6.5a.4.4 0 0 0 .4.2 1 1 0 0 0 .4-.3 1 1 0 0 0 .4-.5.6.6 0 0 1 0-.2.4.4 0 0 1 .3-.1l.6-.3a1.3 1.3 0 0 0 .5-.3 1.2 1.2 0 0 0 .3-.5c0-.2 0-.5-.2-.5a.4.4 0 0 0-.2 0 5 5 0 0 0-1.4.5.4.4 0 0 0-.2.1.5.5 0 0 0 0 .3 1.3 1.3 0 0 1-.5.9 2.7 2.7 0 0 0-.3.3.4.4 0 0 0-.1.4ZM15.3 3.7c0-.1-.1-.2-.3-.2l-.3-.1a1.2 1.2 0 0 0-.8 0 .3.3 0 0 0-.2.2c0 .2.2.2.4.3a1.7 1.7 0 0 0 1 0c.1 0 .2 0 .2-.2Z" opacity=".3"/>
    <g>
      <path fill="#3b3348" d="M25.6 75.8c-.3 0-5.2-.5-6.2-4.2a.2.2 0 0 1 .2-.3.2.2 0 0 1 .2.2c1 3.4 5.7 3.9 5.8 3.9a.2.2 0 0 1 0 .4Z"/>
    </g>
    <g>
      <path fill="#3b3348" d="M1.9 75h-.6a.2.2 0 0 1 0-.4c.2 0 4.8.6 5.5-3.1a.2.2 0 0 1 .3-.2.2.2 0 0 1 .2.3c-.7 3.3-4 3.5-5.4 3.5Z"/>
    </g>
    <g>
      <path fill="#3b3348" d="M14 81.9a.2.2 0 0 1-.2-.2l-.2-8.2a.2.2 0 0 1 .3-.3.2.2 0 0 1 .2.3l.2 8.2a.2.2 0 0 1-.3.2Z"/>
    </g>
    <g>
      <path fill="#3b3348" d="M11.6 81.8a.2.2 0 0 1-.2-.2l-.2-8.3a.2.2 0 0 1 .3-.3.3.3 0 0 1 .2.3l.1 8.3a.2.2 0 0 1-.2.2Z"/>
    </g>
    <g>
      <path fill="#e7e7f2" d="M1.6 45a.2.2 0 0 1-.2-.2v-4.5a.2.2 0 0 1 .3-.3.2.2 0 0 1 .2.3v4.5a.2.2 0 0 1-.3.2Z"/>
    </g>
    <g>
      <path fill="#e89f90" d="m13.2 53.3 6.5 1.3s4.2 2.1 4 2.7-2.7 4.2-2.7 4.2l-4.6-4-2.2-.2Z"/>
      <path fill="#e89f90" d="M17.8 54.3a18.4 18.4 0 0 1 4.5 0c1 0 3.5-.6 3.4 0s-3.3 1-3.3 1.3 1.2 1.3 1.2 1.3l-2.7-.5Z"/>
      <path fill="#e89f90" d="M22.7 56.5s6 2.5 5.9 3-5.1-1.4-5.1-1.4 5 3.1 4.7 3.6-5.6-2.4-5.6-2.4 4.2 3.8 3.8 4.2-4.7-3-4.7-3 2.7 3.5 2.4 3.9-3.1-3-3.1-3l-2-2Z"/>
    </g>
  </g>
  <path fill="#204b91" d="M150.5 64.7h-19.7a1 1 0 1 1 0-2h19.7a1 1 0 0 1 0 2Z"/>
  <path fill="#bec9eb" d="M142.8 72.4h-13.3a1 1 0 0 1 0-2h13.3a1 1 0 0 1 0 2ZM159.2 72.4H147a1 1 0 0 1 0-2h12.2a1 1 0 1 1 0 2ZM142.8 77.4h-13.3a1 1 0 0 1 0-2h13.3a1 1 0 0 1 0 2ZM152.5 77.4H147a1 1 0 1 1 0-2h5.5a1 1 0 1 1 0 2ZM142.8 82.4h-13.3a1 1 0 0 1 0-2h13.3a1 1 0 0 1 0 2ZM157.2 82.4H147a1 1 0 0 1 0-2h10.2a1 1 0 0 1 0 2ZM142.8 87.4h-13.3a1 1 0 1 1 0-2h13.3a1 1 0 1 1 0 2ZM163.8 87.4H147a1 1 0 0 1 0-2h16.8a1 1 0 0 1 0 2Z"/>
  <path fill="#efc266" d="m126 90.6 1 2.2 2.4.3-1.7 1.7.4 2.3-2.1-1-2.2 1 .4-2.3-1.7-1.7 2.4-.3ZM134.8 90.6l1.1 2.2 2.4.3-1.7 1.7.4 2.3-2.2-1-2 1 .3-2.3-1.7-1.7 2.4-.3ZM143.6 90.6l1 2.2 2.4.3-1.7 1.7.4 2.3-2.1-1-2.1 1 .4-2.3L140 93l2.4-.3ZM152.6 90.6l1 2.2 2.4.3-1.7 1.7.4 2.3-2.1-1-2.1 1 .4-2.3L149 93l2.4-.3ZM161.2 90.6l1 2.2 2.4.3-1.7 1.7.4 2.3-2.1-1-2.1 1 .4-2.3-1.7-1.7 2.3-.3Z"/>
  <path fill="#eebebf" d="M147 119.1c-.2-.1.2-8.8.4-12.9a12.5 12.5 0 1 1-13 13Z"/>
  <path fill="#efc266" d="M145.4 104.6h.6c-.2 4-.6 12.8-.5 13H133v-.5a12.5 12.5 0 0 1 12.4-12.5Z"/>
  <path fill="#dae382" d="M134.4 119.1H147l-3.4 11.5a12.5 12.5 0 0 1-9-11.5Z"/>
  <path fill="#a8daf5" d="M157.6 112.4 147 119c-.1-.1.3-8.8.5-12.9a12.5 12.5 0 0 1 10.2 6.2Z"/>
  <path fill="#3b3348" d="M154 109.8a.1.1 0 0 0 .1 0l2.8-2.5h7.3a.1.1 0 0 0 0-.3h-7.3a.1.1 0 0 0-.1 0l-2.8 2.6a.1.1 0 0 0 0 .2ZM157.6 106.2h7a.2.2 0 1 0 0-.4h-7a.2.2 0 0 0 0 .4ZM160.4 104.7h4a.2.2 0 0 0 0-.4h-4a.2.2 0 0 0 0 .4ZM154 124.9a.1.1 0 0 1 .1 0l2.8 2.5h7.3a.1.1 0 0 1 0 .2h-7.3a.1.1 0 0 1-.1 0l-2.8-2.5a.1.1 0 0 1 0-.2ZM157.6 128.5h7a.2.2 0 1 1 0 .3h-7a.2.2 0 0 1 0-.3ZM160.4 130h4a.2.2 0 0 1 0 .3h-4a.2.2 0 0 1 0-.3ZM139.4 109a.1.1 0 0 0 0-.1l-2.8-2.6h-7.3a.1.1 0 1 0 0 .2h7.2l2.8 2.5ZM128.8 105.5h7a.2.2 0 1 0 0-.4h-7a.2.2 0 0 0 0 .4ZM131.8 104h4a.2.2 0 0 0 0-.4h-4a.2.2 0 0 0 0 .4Z"/>
  <g>
    <path fill="#3b3348" d="M139.7 125.6a.1.1 0 0 1 0 .2l-2.8 2.6h-7.4a.1.1 0 1 1 0-.3h7.3l2.8-2.5Z"/>
  </g>
  <g>
    <path fill="#3b3348" d="M129.1 129.2h7a.2.2 0 1 1 0 .4h-7a.2.2 0 0 1 0-.4Z"/>
  </g>
  <g>
    <path fill="#3b3348" d="M132 130.7h4a.2.2 0 1 1 0 .4h-4a.2.2 0 1 1 0-.4Z"/>
  </g>
  <g>
    <path fill="#bec9eb" d="M121.2 103.7h-28a1 1 0 0 1 0-2h28a1 1 0 1 1 0 2Z"/>
  </g>
  <g>
    <path fill="#bec9eb" d="M121.2 114.3h-28a1 1 0 0 1 0-2h28a1 1 0 1 1 0 2Z"/>
  </g>
  <g>
    <path fill="#ccb8c6" d="M121.2 118.7h-28a1 1 0 0 1 0-2h28a1 1 0 0 1 0 2Z"/>
  </g>
  <g>
    <path fill="#bec9eb" d="M106.6 109.3H93.7a1 1 0 0 1 0-2h13a1 1 0 1 1 0 2Z"/>
  </g>
  <g>
    <path fill="#bec9eb" d="M117.5 109.3h-6.8a1 1 0 0 1 0-2h6.8a1 1 0 1 1 0 2Z"/>
  </g>
  <g>
    <path fill="#ccb8c6" d="M106.6 123.7H93.7a1 1 0 0 1 0-2h13a1 1 0 1 1 0 2Z"/>
  </g>
  <g>
    <path fill="#ccb8c6" d="M113 129H93.7a1 1 0 0 1 0-2H113a1 1 0 0 1 0 2Z"/>
  </g>
  <g>
    <path fill="#ccb8c6" d="M117.5 123.7h-6.8a1 1 0 0 1 0-2h6.8a1 1 0 1 1 0 2Z"/>
  </g>
  <g>
    <path fill="#ccb8c6" d="M126.8 142.3h-33a1 1 0 0 1 0-2h33a1 1 0 0 1 0 2Z"/>
  </g>
  <g>
    <path fill="#ccb8c6" d="M167.1 142.6h-33a1 1 0 1 1 0-2h33a1 1 0 1 1 0 2Z"/>
  </g>
  <g>
    <path fill="#ccb8c6" d="M140.1 147.3H93.3a1 1 0 1 1 0-2h46.8a1 1 0 0 1 0 2Z"/>
  </g>
  <g>
    <path fill="#204b91" d="M105.8 98.7H92.7a1 1 0 0 1 0-2h13.1a1 1 0 0 1 0 2Z"/>
  </g>
  <g>
    <path fill="#242638" d="M113.3 137h-20a1 1 0 1 1 0-2h20a1 1 0 1 1 0 2Z"/>
  </g>
  <g>
    <path fill="#242638" d="M244 66.3a9.2 9.2 0 0 0 1 3.1 18.9 18.9 0 0 0 4.2-.1l1-4.3-3-1.1Z"/>
    <path fill="#ffd8a8" d="m218.5 96-2.8-11.8s-5-9.3-6.4-9.1-10 4.6-10 4.6 5.4 11 10 12.1l.8 8.9Z"/>
    <path fill="#fff" d="M244 65.6a5.7 5.7 0 0 0 .2 1.4 5.4 5.4 0 0 0 4.3 0c2.3-.9-4.6-1.4-4.6-1.4Z"/>
    <path fill="#e89f90" d="M241.8 107.5s-7.7 28.2-15.7 30.7-5.3-18.4-5.3-18.4l4.7-18.3Z"/>
    <path fill="#ffe8cc" d="m251.6 84.3 1.8-13.3 13.2-3.1s-1 12 2 16.4-17 0-17 0Z"/>
    <path fill="#efc266" d="M251.7 83s-18.3 5.2-20.3 7.5c-5.3 5.8-11.3 26.7-11.3 26.7l16.8 8 1.6-4.4-.7 27.6s44.4.3 44.3-.4c-1.5-25 11.9-48.3 3-56.5a40.9 40.9 0 0 0-17.5-9.2s-12 2-16 .7Z"/>
    <path fill="#ffe8cc" d="M248.8 44.3c-4 8.3-1 8.7-2.3 12a8.8 8.8 0 0 1-3.2 4c-.5.4-.5 1.5.7 2.2s-.5 2.5-.5 2.8c0 .7 2.4 1.1 4.7 1.3a.9.9 0 0 1 .2 1.4c-1.4 1.7-4.9-.1-4.4.8 1.2 2.4-.9 5 1.7 6.2s14.7 2.8 21.7-7.2c0 0 15.8-7.6 10-19-8.3-16-28.6-4.5-28.6-4.5Z"/>
    <path fill="#242638" d="M253.2 53.3c.2.7-1 .3-1.8 0s-2.6-.2-3.3-.3-.6-1.6.6-1.7 4 .2 4.5 2ZM248.8 56.7c.1-1.1.7-2 1.1-2s.7 1.1.5 2.3-.7 2-1.1 2-.7-1.1-.5-2.3Z"/>
    <path fill="#ffe8cc" d="M260.5 71.2 265 65l1.9 3.7-1.3 2.2Z"/>
    <path fill="#ffd8a8" d="M245.8 75c4.6.5 9.4-.3 14.5-6.2v.1s-1.1 7.5-8 10.5l.5-3.6c-4 .5-5.8-.2-7-.8ZM249 67.6a.1.1 0 0 0 .2 0 2.4 2.4 0 0 0-.2-1.4.1.1 0 1 0-.2 0 2.1 2.1 0 0 1 .2 1.2.1.1 0 0 0 0 .2Z"/>
    <path fill="#242638" d="M263.5 51c4.1 1.4 7.7 4.2 11.8 5.8a7.9 7.9 0 0 0 3 .5 22.5 22.5 0 0 1-5 7.4 25.5 25.5 0 0 0-6.8 9.3c-1.6-3.2-7.2-8.4-8-11.8-.4-1.3 1.8-2 .4-2.2.3-1.5-.6 1.3-1-.1 0 0-1.2-5.7-.5-9.2a11.3 11.3 0 0 1 6.1.3Z"/>
    <path fill="#ffe8cc" d="M257.1 59.3s1.8-3.8 4.9-.5c1.2 1.3-.8 5.5-5.3 4 0 0-1.3-1 .4-3.5Z"/>
    <path fill="#ffd8a8" d="M257.7 61.6a3.3 3.3 0 0 0 2.7.4.1.1 0 1 0-.1-.3 3.1 3.1 0 0 1-2.6-.4h.1a1 1 0 0 0 .7-1.1.8.8 0 0 0-.4-.5.8.8 0 0 0-.4-.2c.3-.4 1-1.4 1.9-1.3 2.2.4 2 2 2 2a.1.1 0 0 0 0 .2.1.1 0 0 0 .2-.1 1.8 1.8 0 0 0-.1-1 2.5 2.5 0 0 0-2-1.3c-1.3-.3-2.3 1.6-2.3 1.6a.1.1 0 0 0 .1.2.7.7 0 0 1 .5 0 .5.5 0 0 1 .2.4c0 .5-.3.7-.5.9a.6.6 0 0 0-.3.2.2.2 0 0 0 .1.2 1.2 1.2 0 0 0 .2.1Z"/>
    <path fill="#242638" d="m252.5 36.9-2.2.4c-.8.2-1.8.5-2 1.2-.3.7 0 1.6-.5 2-.5.5-1.3.2-2 .3a2.3 2.3 0 0 0-1.7 2.4 6.6 6.6 0 0 0 1 3c.6.8 1.2 1.8 2.2 1.9.8 0 1.6-.6 2.4-.8a3.5 3.5 0 0 1 2.7.8c.8.5 1.4 1.3 2.2 1.8 2.5 2 5.8 2.2 8.9 2.7a20.4 20.4 0 0 1 8 2.5 28.2 28.2 0 0 0 4.2 2.6c1.5.6 3.6.5 4.5-.8a4.7 4.7 0 0 0 .7-2 6 6 0 0 0 0-2.4c-.3-1.5-1.7-2.6-2.2-4.1a29.7 29.7 0 0 1-.5-3.2 5.3 5.3 0 0 0-1.8-3c-2-1.6-4.6-1.6-6.8-2.5s-4.4-2.9-6.8-2.6c-1.8.2-3.5 1.5-5.2 1-1-.2-1.7-1-2.6-1.3a5.2 5.2 0 0 0-2.5 0Z"/>
    <path fill="#ffe8cc" d="m252 82.5-1.7 1s-1.4 4.4 4.3 6.2 14.7-7.1 14.7-7.1l-3-.9Z"/>
    <path fill="#fff" d="M259.8 107.1a12.4 12.4 0 0 1-1 4.7l-1.4 3a33.2 33.2 0 0 0-2 4.4 17.2 17.2 0 0 0-.9 5.7l-4.7-1a32.8 32.8 0 0 1 .8-6.8l.7-2.3a29.4 29.4 0 0 0 .9-3.6 21 21 0 0 0 .1-5.2l7.5 1.1ZM257 119.7a31.7 31.7 0 0 1 1.8-4.1l1.5-3.1a14 14 0 0 0 1.1-5l6.5 1.1a27.5 27.5 0 0 1-2 6.9c0 .3-.2.7-.4 1a27.1 27.1 0 0 0-1 2.6 21.2 21.2 0 0 0-.9 7.7l-2.2-.5-5.2-1a15.6 15.6 0 0 1 .7-5.6ZM244 105.1l6.7.7a20 20 0 0 1-.1 5.2 27.6 27.6 0 0 1-.9 3.3l-.7 2.4a33.4 33.4 0 0 0-.8 6.9l-1.6-.4-5-1c-1.7-5.6 2.6-11.2 2.5-17ZM271.7 126.9a16.8 16.8 0 0 1-6.5.1 20.3 20.3 0 0 1 .8-7.4 25.5 25.5 0 0 1 1-2.4l.5-1.1a29.1 29.1 0 0 0 2-7.1l4.8 1c.2 3.7-2.3 7-3.4 10.6a15.3 15.3 0 0 0-.7 3.6c0 1.2.3 2.7 1.5 2.7Z"/>
    <path fill="#f2f2f2" d="M212.4 70.4s-2 3.3-3.6 4l-1.6.6a2.5 2.5 0 0 0-1.6 1.6 6.5 6.5 0 0 1-2.1 3.3 16.4 16.4 0 0 1-3 1.3 2 2 0 0 0-1.1 3 10.2 10.2 0 0 0 5.5 4.5 56 56 0 0 0 5.4-5.2c1.7-2 4.3-5.4 5.8-6.8s1.4-1.6 1.4-1.6Z"/>
    <path fill="#ccb8c6" d="m212.4 70.4 5 4.7s.3.2-1.3 1.6l-.2.2-5-4.5a22 22 0 0 0 1.5-2Z"/>
    <path fill="#f2f2f2" d="m212 68.2-.4 1.4a1.2 1.2 0 0 0 .3 1.1l4.7 5.3a2.4 2.4 0 0 0 1 .7l3.5 1a2.4 2.4 0 0 0 3-1.6l1.2-3.8Z"/>
    <path fill="#dd5050" d="m231.5 71.8-2.8-.8a.5.5 0 0 1-.4-.6l3.6-11.5a.5.5 0 0 1 .6-.4l2.8.9a1.7 1.7 0 0 1 1.1 2l-2.8 9.3a1.7 1.7 0 0 1-2.1 1.1Z"/>
    <path fill="#f2f2f2" d="m216.4 53.2-1.8 5.6-.6 2-1.7 5.5c-10.3-3.2-17.5-5-30.8 3.5l5.5-18 .3-1L193 33C199 47.5 206 50 216.4 53.2Z"/>
    <path fill="#dd5050" d="M196.7 63.8a27.5 27.5 0 0 0-8.4 2.3l8-26.3a27.6 27.6 0 0 0 5.7 6.7Z"/>
    <path fill="#db3a3a" d="m228.5 72-2-.6L231 57l2 .6a.8.8 0 0 1 .5 1l-4 13a.8.8 0 0 1-1 .5Z"/>
    <path fill="#ccb8c6" d="m211.6 69.6.5-1.4 13.2 4-.4 1.5"/>
    <path fill="#dd5050" d="m225.3 72.9-14.6-4.5a1.1 1.1 0 0 1-.7-1.4l4.8-15.7a1 1 0 0 1 1.4-.8l14.6 4.5a1.1 1.1 0 0 1 .7 1.4l-4.8 15.8a1.1 1.1 0 0 1-1.4.7Z"/>
    <path fill="#fff" d="m214.9 55 14.4 4.5c.6.2 1 .6 1 .9v.2l1.5.5c.5.2.8.4.7.6v.1l1.7.6c1 .3 1.7.9 1.5 1.3l.6-1.8c.1-.5-.6-1-1.6-1.4l-1.6-.5v-.1c0-.2-.3-.5-.7-.6l-1.6-.5v-.2c.1-.3-.3-.7-.9-.9l-14.5-4.4c-.6-.2-1.2-.2-1.2.1l-.6 1.8c0-.2.6-.3 1.3-.1Z"/>
    <path fill="#3b3348" d="M192.2 32h.3a.8.8 0 0 1 .5 1l-11.3 36.8a.8.8 0 0 1-1 .6l-.3-.1a.8.8 0 0 1-.5-1l11.3-36.8a.8.8 0 0 1 1-.5Z"/>
    <g>
      <rect width="7.7" height="2.6" fill="#ffd8a8" rx="1.3" transform="scale(-1) rotate(47.7 -5.9 -273.4)"/>
    </g>
    <g>
      <rect width="8" height="2.9" fill="#ffd8a8" rx="1.4" transform="scale(-1) rotate(47.7 -12.2 -275.7)"/>
    </g>
    <g>
      <rect width="8" height="2.9" fill="#ffd8a8" rx="1.4" transform="scale(-1) rotate(47.7 -15.2 -277)"/>
    </g>
    <g>
      <rect width="8" height="2.9" fill="#ffd8a8" rx="1.4" transform="scale(-1) rotate(47.7 -8.5 -275.4)"/>
    </g>
    <g>
      <path fill="#ffd8a8" d="M216.4 88.6s-.2-3.1-.8-9.2c-.3-2.3-3.4-6.8-5-6.5s2.3 6.1 2 6.5c-1.8 2.6-2.8 8-2.8 8l2 2.5Z"/>
    </g>
    <g>
      <path fill="#ffd8a8" d="M209.2 91.8c.4 12.7 2.4 44.1 8.6 46.6s7.6.7 11.7-2.7l-.9-12L216.3 88Z"/>
    </g>
    <g>
      <path fill="#e89f90" d="m293.8 123.5-.2 25.2h-15.3l.6-24.6Z"/>
    </g>
    <g>
      <path fill="#efc266" d="M279.8 87.6c5 3.4 12.7 6.3 13.6 14.7s3.4 21.3 3.4 21.3-15.8 6-18.4 3.6c-3.6-3.2-3.8-16-3.2-8.6Z"/>
    </g>
    <g>
      <path fill="#cd5959" d="M221.8 137.6a6.6 6.6 0 0 0 3.1-.7.2.2 0 0 0-.2-.4 7.2 7.2 0 0 1-5.4.3.2.2 0 1 0-.1.3 8.7 8.7 0 0 0 2.6.5Z"/>
    </g>
  </g>
  <g>
    <path fill="#5769b3" d="M51.7 133.7a22.3 22.3 0 0 1 5 6.1c1.4 3.2 1.8 5.5 2.6 7.4s.1 1.4.1 1.4h-42l-3.7.2s4.3-13 9.3-15 28.7 0 28.7 0Z"/>
    <path fill="#45190f" d="M36.2 42c-4.4 1.2-7 .5-10.9 5.9s-5.5 8-3.6 11.4 2.8 3.1 3 5.4-2.2 5.3 1.4 6.7a14.4 14.4 0 0 1 5.5 4.3l9.3.1a11.8 11.8 0 0 0 5.6-5.3c2.2-4.1.2-5.4 1-7.5s3.4-3.5 2.5-8.6-4.5-11-7.1-11a23 23 0 0 1-6.5-1Z"/>
    <path fill="#df665c" d="M29.6 76.6a2.3 2.3 0 0 1-1.2-1.2 5.7 5.7 0 0 0-.9-1.4c-.3-.4-.8-.7-.8-1.2a1.8 1.8 0 0 1-1.3-.5 1.1 1.1 0 0 1 0-1.4 1.9 1.9 0 0 1 1.3-.5 2.3 2.3 0 0 1 .7 0 5.7 5.7 0 0 1 1 .4 8.8 8.8 0 0 0 1.4.3 1.4 1.4 0 0 1 1.1.9v.7a3 3 0 0 0 .8 1.2 3 3 0 0 1 .5 2.4c-.9 0-1.8.6-2.6.3Z"/>
    <path fill="#eebebf" d="M45.3 82.6s14 3.3 18 7.3 10 19.6 7.5 24.7-8 3.7-8 3.7l-7.6-7.8s0 12-.8 15.8-3 3.7-3 3.7H23.2s-2.6-1-2.7-6.2l-.2-10.7s-2.2 12.7-1.4 15c4.6 14 1.4 19.8 1.4 19.8l-14.1.5s-2.9-20.7-.8-27.7a79.5 79.5 0 0 0 3.5-20c.5-8.4 2-12.6 7.2-15.2s13-3.4 13-3.4Z"/>
    <g transform="translate(23.2 42)">
      <path fill="#ffe8cc" d="M19.3 28.8s-.2 9.4.5 10.2a13.2 13.2 0 0 0 3.4 1.8s-5.9 3.4-11.3 3.1-7.3-3.7-7.3-3.7 2.7-.9 3-2 .6-9.9.6-9.9Z"/>
      <path fill="#ffd8a8" d="M19.3 32.1v-3.3l-11-.5L8 32a6.7 6.7 0 0 0 5.5 3.4c2.2 0 4.2-1.6 5.7-3.2Z"/>
      <path fill="#ffe8cc" d="M13.4 2a11.6 11.6 0 0 1 8.3 3c1.2 1.3 1.7 5.3 1.7 5.3a13 13 0 0 1 1 9.2c-1.4 5-2 7.7-4.6 10.6-1.3 1.2-3.4 3.5-6.4 3.3a7.5 7.5 0 0 1-5.8-3.6C5.6 27.4 3 21.2 3 17c0-2-1.1-4.6-.4-6.7C4 5.4 9.3 2 13.4 2Z"/>
      <path fill="#21202b" d="M9.7 18.1c0-1.1-.3-2-.8-2s-.8.8-.9 2 .3 2 .8 2 .9-.8.9-2ZM19.2 18.8c0-1.2-.3-2.1-.7-2.1s-.9.9-1 2 .4 2 .8 2.1.9-.9 1-2Z"/>
      <path fill="#ffd8a8" d="M13.5 24a.2.2 0 0 0 .1-.1.6.6 0 0 0 .2-.6.1.1 0 0 0-.1-.1 2.3 2.3 0 0 1-.8-.3.7.7 0 0 1-.3-.5 1.1 1.1 0 0 1 .2-.6 7.9 7.9 0 0 0 .9-4h-.2a7.6 7.6 0 0 1-.8 3.8 1.4 1.4 0 0 0-.4.8 1 1 0 0 0 .5.7 2.3 2.3 0 0 0 .8.3.4.4 0 0 1-.1.3.1.1 0 0 0 0 .2Z"/>
      <path fill="#e07070" d="M16.7 26.4s-1.5 3-3.7 2.7c-2.2-.3-2.7-3.3-2.7-3.3s1.1-1 1.8-1a2.3 2.3 0 0 1 1.3.6 2.1 2.1 0 0 1 1.2-.5c.7 0 1.6 1.2 2 1.5Z"/>
      <path fill="#fff" d="m10.4 25.8 6.3.6s-4.3 4-6.3-.6Z"/>
      <path fill="#491909" d="M21.4 15.2c-1.4-1.2-4.8-2.1-5.9 0 0 .1 0 .3.2.3.8 0 1.5-.5 2.4-.6a7.7 7.7 0 0 1 3 .7.2.2 0 0 0 .3-.4ZM5.3 15.1c1.4-1.2 4.8-2 5.8 0 0 .2 0 .4-.2.4-.8-.1-1.4-.5-2.3-.6a7.7 7.7 0 0 0-3 .6.2.2 0 0 1-.3-.4Z"/>
      <rect width="5.8" height="3.9" fill="#ff8787" opacity=".5" rx="1.9" transform="translate(5.7 20.8)"/>
      <rect width="5.7" height="4" fill="#ff8787" opacity=".5" rx="2" transform="translate(15.6 21.6)"/>
      <path fill="#ffe8cc" d="M23.3 19.9s1.1-3.7 3.6-1c1 1.2-.3 5.3-3.7 4.3 0 0-1-.9.1-3.3Z"/>
      <path fill="#ffd8a8" d="M23.9 22a2 2 0 0 0 2 0 .1.1 0 0 0 0-.1h-.1a1.9 1.9 0 0 1-2-.2h.1a1.1 1.1 0 0 0 .4-1.1.7.7 0 0 0-.2-.5.5.5 0 0 0-.3 0c.2-.5.7-1.5 1.3-1.5a1.7 1.7 0 0 1 1.3.7 1.8 1.8 0 0 1 .3 1 .1.1 0 0 0 0 .2.1.1 0 0 0 .2-.1 2 2 0 0 0-.4-1.2 1.9 1.9 0 0 0-1.4-.8c-1 0-1.6 1.7-1.6 1.8l.1.1a.4.4 0 0 1 .4 0 .5.5 0 0 1 .2.3.9.9 0 0 1-.4.9.6.6 0 0 0-.2.2.2.2 0 0 0 .1.2.9.9 0 0 0 .2 0Z"/>
      <path fill="#45190f" d="M14.1 7.3a3.6 3.6 0 0 1 4 1.6c1.2 1.9 1.1 3.8 2.5 5.2s3.6 4.4 4 5.6l1-3.5a51.1 51.1 0 0 0-.5-7.4c-.5-2.5-3.7-9.5-9.9-8a3.5 3.5 0 0 0-2.7-.8A11.4 11.4 0 0 0 5.8 3a15.6 15.6 0 0 0-4.2 7C1 12.4.7 14.1 1.4 15s0 2.8 0 2.8 1.3 3.1 2 .9c2.2-7.5 6.3-7 6.8-9.1s2.2-3 3-2.4 1 0 1 0Z"/>
      <g>
        <path fill="#45190f" d="M9.7 11.7c.7-.4 1.7-.6 2-1.3.1-.6-.2-1.2-.2-1.8a2.5 2.5 0 0 1 .5-1.2 1.6 1.6 0 0 1 .8-.8.7.7 0 0 1 .9.5 2.5 2.5 0 0 0-.9 1.5V10a3.6 3.6 0 0 1-1.3 2.5c-1 .8-2.3 1.1-2.8 2.2a2.5 2.5 0 0 1 1-2.9Z"/>
      </g>
      <g>
        <path fill="#ffe8cc" d="M3.9 19.6s-1-3.7-3.6-1C-.7 19.9.6 24 4 23c0 0 1-.9-.1-3.3Z"/>
        <path fill="#ffd8a8" d="M3.3 21.7a2 2 0 0 1-2 0 .1.1 0 0 1 0-.1h.1a1.9 1.9 0 0 0 2-.2h-.1a1.1 1.1 0 0 1-.4-1.1.7.7 0 0 1 .3-.5.5.5 0 0 1 .2 0c-.1-.5-.6-1.5-1.2-1.5a1.7 1.7 0 0 0-1.3.7 1.8 1.8 0 0 0-.3 1 .1.1 0 0 1-.1.2.1.1 0 0 1-.1-.1 2 2 0 0 1 .3-1.2 1.9 1.9 0 0 1 1.4-.8c1 0 1.6 1.7 1.6 1.8l-.1.1a.4.4 0 0 0-.4 0 .5.5 0 0 0-.1.3.9.9 0 0 0 .3.9.6.6 0 0 1 .2.2.2.2 0 0 1 0 .2.9.9 0 0 1-.3 0Z"/>
      </g>
    </g>
    <path fill="#ffe8cc" d="m62.1 65.8-3.7-2.6s-.4 6-1.5 8.3c-.2.4-1.2-2-1.2-2l-1 2.1s1.2 4.9 2 5.7l.2 6 5.3-.2-.2-4.7 2.3-9a2 2 0 0 0-.7-2.1 4.4 4.4 0 0 1-1.5-1.5Z"/>
    <path fill="#ffe8cc" d="M55.2 73.6s-2.5-6.9-2.2-7.2 1.3.2 2 1.2 1.6 4 2.3 3.5-1.2 2.5-1.2 2.5Z"/>
    <path fill="#85554a" d="M62 71h.1a.7.7 0 0 0-.2-1L51 63.6l-.7 1.3L61 71.3a.7.7 0 0 0 1-.2Z"/>
    <circle cx="6.9" cy="6.9" r="6.9" fill="#bbd8f8" opacity=".2" transform="rotate(-14.5 237.4 -114.7)"/>
    <path fill="#3b3348" d="M41.1 67a7.2 7.2 0 1 1 10-2.5 7.2 7.2 0 0 1-10 2.6Zm.4-.5a6.5 6.5 0 1 0-2.4-9 6.6 6.6 0 0 0 2.4 9Z"/>
    <path fill="#fff" d="M63 112c-2.3-.3-4.3-2-6.2-3.7a205 205 0 0 1-3.6-3.3l1.2-1.2c1.7-1.6 3.4-3.2 3.6-5.6a.7.7 0 0 0-.6-.7.7.7 0 0 0-.7.6c-.2 1.9-1.7 3.2-3.2 4.7l-1.3 1.3-4.7-4.8a1.7 1.7 0 0 0-1.5-.6 1.7 1.7 0 0 0-.8.4 44.8 44.8 0 0 0-4.8 4.6l-1.2 1.3v.1a14 14 0 0 1-1.8-2.2l-.3-.6c-.7-1.4-1.7-3.2-3-3.3-1.7-.1-4.9 2.2-9.6 6a22.6 22.6 0 0 1-5.6-6 1 1 0 0 0-1.6-.4 29.7 29.7 0 0 0-6 4.6 78 78 0 0 0-1.9-2 9.2 9.2 0 0 0-.7-.5l-.1 1.7 1.8 1.7-.4.3c-.5.6-1.1 1.2-1.8 1.7l-.2 2.1 3-2.8.3-.3c2 2 4 4.4 5.8 6.6a.7.7 0 0 0 1 .2c1.2-.8 3.2-2.5 5.5-4.3l1-.8a77.4 77.4 0 0 0 7.2 4.4 2.5 2.5 0 0 0 1 .4 2.4 2.4 0 0 0 1.3-.3 17.7 17.7 0 0 0 5-4.2l3.2 2.8.9.6.7.7c1.2 1.2 2 2 2.8 2a1 1 0 0 0 .3 0c1-.4 1.7-1.7 2.3-2.9a9.2 9.2 0 0 1 .6-1 66 66 0 0 1 2.4-3.3l3.6 3.3a14 14 0 0 0 6.9 4 .7.7 0 0 0 .2-1.3Zm-40.3-5.5-4.9 3.9-5.5-6.2a29.3 29.3 0 0 1 5.5-4.3 23.7 23.7 0 0 0 5.7 6l-.8.6Zm10.8 3.6a1.6 1.6 0 0 1-.5.2 1.5 1.5 0 0 1-.5-.2 79.3 79.3 0 0 1-6.8-4.2c3.3-2.7 7.1-5.7 8.2-5.5.7 0 1.6 1.8 2 2.5l.3.7a15.4 15.4 0 0 0 2 2.5 16.7 16.7 0 0 1-4.7 4Zm15.3-1.5a11.1 11.1 0 0 0-.7 1.1c-.3.7-1 2-1.4 2.1a7.9 7.9 0 0 1-1.8-1.5c-.4-.4-.6-.7-.9-.8l-.8-.7-3.1-2.7.1-.2 1.2-1.3a43.4 43.4 0 0 1 4.7-4.4v-.2a1 1 0 0 1 .4.3l4.8 4.8-2.5 3.5Z"/>
    <path fill="#ffd8a8" d="M58.5 63.2s-3.1 3.8-2.7 4.3 4.2-3 4.2-3-3.1 4.3-2.4 5 3.8-3.3 3.8-3.3-3.1 3.8-2.1 4c.6 0 3.4-2.4 3.4-2.4s-2.7 3.3-2 3.6 3.6-3.1 3.6-3.1a1.5 1.5 0 0 0-1-1.3c-.3 0-.5-1-1.2-1.1 0 0-.6-1.8-2-1.6 0 0 0-1.7-1.6-1Z"/>
    <path fill="#eebebf" d="M56.5 80.6h6a13.2 13.2 0 0 0 1.2 3.8c.8 1.3 11.1 26 8 31.1s-8.7 5.6-13.6.4-4-10.2-3.3-15.3-1.4-5.7-.4-10.2 2.6-4.9 2.1-9.8Z"/>
    <path fill="#45190f" d="M27 71.7c-4.5 4.2-4.8 1-5.6 6.7s1.6 3.8.3 10.9-4.9 7.6-2.6 13.7 4.5 7.5 5.5 6.9 1.5.7-1-4-4-4-2.3-7.7 2.4-5.3 2.4-6.6a5.2 5.2 0 0 1 .5 5.3c-1.3 3-1.7 8.6 1.4 10s7.8 1.2 7-.7-1.9 2.2-1.8-3.3S35.3 98 32 91.8s-4.7-6.4-4.6-10.3 4.8-4.6 3.4-7.3a3.9 3.9 0 0 0-3.6-2.5Z"/>
    <path fill="#45190f" d="M32.3 100.2c-.4 0-.9 0-1-.3a1 1 0 0 1-.1-.5 8.1 8.1 0 0 1 1-4 8.9 8.9 0 0 0 1.5-2.4 4.4 4.4 0 0 0-1-3.4 4.5 4.5 0 0 0-.6-.9 6.3 6.3 0 0 0-1-.6 10.8 10.8 0 0 1-1.8-1.6 9.3 9.3 0 0 1-2.6-6.8 6.2 6.2 0 0 1 1-3.1 3.8 3.8 0 0 1 2.6-1.7.3.3 0 0 1 .5.3 10.7 10.7 0 0 1-.8 4.6c-.4 1.6-.7 3.3 0 4.7a5.6 5.6 0 0 0 1.1 1.3 16.4 16.4 0 0 0 2.9 2.1c1.1.7 2.5 1.4 3 2.6a5.7 5.7 0 0 1 .4 1.7 10.4 10.4 0 0 1 .2 3 5.7 5.7 0 0 1-.6 1.6 6.4 6.4 0 0 1-4.7 3.4Z"/>
    <path fill="#fff" d="M29.2 102.6c-.1.4-.7.4-1.1.1a2.4 2.4 0 0 1-.9-2.4 9.2 9.2 0 0 1 1.1-2.5 4.7 4.7 0 0 0 .7-2.6 8.6 8.6 0 0 0-.4-1.4 7 7 0 0 1 0-3.8 1.2 1.2 0 0 1 1.3.2 2.6 2.6 0 0 1 .7 1.2 6.8 6.8 0 0 1 .1 4c-.4 1.7-1.5 3-1.6 4.7a8.6 8.6 0 0 0 .2 2 1 1 0 0 1 0 .5Z" opacity=".3"/>
    <g opacity=".3">
      <path fill="#fff" d="M25.7 75.5a.5.5 0 0 0-.2-.2 1.2 1.2 0 0 0-1.5.3 3.5 3.5 0 0 0-.7 1.5c0 .3-.1.7.1.9a.8.8 0 0 0 .5.1.7.7 0 0 0 .4 0 .8.8 0 0 0 .2-.5 7.4 7.4 0 0 1 1-1.5.7.7 0 0 0 .2-.6Z"/>
    </g>
    <g>
      <path fill="#3b3348" d="M23 129.8h28.8v4H23z"/>
    </g>
    <g>
      <path fill="#efc266" d="M39.6 134.4h-6.1a.8.8 0 0 1-.8-.8v-4a.8.8 0 0 1 .8-.7h6a.8.8 0 0 1 .8.7v4a.8.8 0 0 1-.7.8Zm-5.4-1.5h4.6v-2.5h-4.6Z"/>
    </g>
  </g>
</svg>