<svg xmlns="http://www.w3.org/2000/svg">
  <symbol id="ic-list-sm" viewBox="0 0 24 24">
    <g fill="currentColor">
      <path d="M4.1 21C2.6 21 2 20.7 2 20v-2c0-.7.6-1 2.1-1h15.8c1.5 0 2.1.3 2.1 1v2c0 .7-.6 1-2.1 1Zm0-14C2.6 7 2 6.7 2 6V4c0-.7.6-1 2.1-1h15.8c1.5 0 2.1.3 2.1 1v2c0 .7-.6 1-2.1 1Z" opacity=".4" />
      <path d="M19.9 10H4.1c-1.5 0-2.1.3-2.1 1v2c0 .7.6 1 2.1 1h15.8c1.5 0 2.1-.3 2.1-1v-2c0-.7-.6-1-2.1-1Z" />
    </g>
  </symbol>
  <symbol id="ic-grid" viewBox="0 0 24 24">
    <g fill="currentColor">
      <path d="M4.2 22C2.6 22 2 21.4 2 19.8v-4c0-1.7.6-2.3 2.2-2.3h4c1.7 0 2.3.6 2.3 2.2v4c0 1.7-.6 2.3-2.2 2.3Zm15.6-11.5h-4c-1.7 0-2.3-.6-2.3-2V4c0-1.4.6-2 2.2-2h4c1.7 0 2.3.6 2.3 2v4.5c0 1.4-.6 2-2.2 2Z" opacity=".4" />
      <path d="M15.7 22c-1.6 0-2.2-.6-2.2-2.2v-4c0-1.7.6-2.3 2.2-2.3h4c1.7 0 2.3.6 2.3 2.2v4c0 1.7-.6 2.3-2.2 2.3ZM8.3 10.5h-4c-1.7 0-2.3-.6-2.3-2V4c0-1.4.6-2 2.2-2h4c1.7 0 2.3.6 2.3 2v4.5c0 1.4-.6 2-2.2 2Z" />
    </g>
  </symbol>
  <symbol id="ic-list" viewBox="0 0 24 24">
    <g fill="currentColor">
      <path d="M19.9 13.5H4.1c-1.5 0-2.1.6-2.1 2.2v4c0 1.7.6 2.3 2.1 2.3h15.8c1.5 0 2.1-.6 2.1-2.2v-4c0-1.7-.6-2.3-2.1-2.3Z" opacity=".4" />
      <path d="M19.9 2H4.1C2.6 2 2 2.6 2 4.2v4c0 1.7.6 2.3 2.1 2.3h15.8c1.5 0 2.1-.6 2.1-2.2v-4c0-1.7-.6-2.3-2.1-2.3Z" />
    </g>
  </symbol>
  <symbol id="ic-close" viewBox="0 0 24 24">
    <g fill="currentColor">
      <path d="M9.2 8.4a.7.7 0 0 1 .5.2L12 11l2.3-2.3a.8.8 0 0 1 1 0 .7.7 0 0 1 .3.6.7.7 0 0 1-.2.5L13 12l2.3 2.3a.7.7 0 0 1 .2.5.7.7 0 0 1-.2.6.8.8 0 0 1-1.1 0L12 13l-2.3 2.3a.8.8 0 0 1-1 0 .7.7 0 0 1-.3-.6.7.7 0 0 1 .2-.5L11 12 8.6 9.7a.7.7 0 0 1-.2-.5.7.7 0 0 1 .2-.6.7.7 0 0 1 .6-.2Z" data-name="Union 178" />
      <path d="M15 22.8H9c-2.8 0-4.6-.6-6-1.9S1.3 17.8 1.3 15V9c0-2.8.6-4.6 1.9-6S6.2 1.3 9 1.3h6c2.8 0 4.6.6 6 1.9s1.8 3.1 1.8 5.9v6c0 2.8-.6 4.6-1.9 6s-3.1 1.8-5.9 1.8Zm-6-20c-2.3 0-3.9.4-4.8 1.4S2.7 6.7 2.7 9v6c0 2.3.5 3.9 1.5 4.8s2.5 1.4 4.8 1.4h6c2.3 0 3.9-.4 4.8-1.4s1.4-2.5 1.4-4.8V9c0-2.3-.4-3.9-1.4-4.8S17.3 2.7 15 2.7Z" />
    </g>
  </symbol>
  <symbol id="ic-loading" width="34px" height="34px" viewBox="0 0 128 128" xml:space="preserve">
    <g fill="currentColor">
      <path class="circle-preloader-0" d="M75.4 126.63a11.43 11.43 0 0 1-2.1-22.65 40.9 40.9 0 0 0 30.5-30.6 11.4 11.4 0 1 1 22.27 4.87h.02a63.77 63.77 0 0 1-47.8 48.05v-.02a11.38 11.38 0 0 1-2.93.37z" />
      <animateTransform attributeName="transform" type="rotate" from="0 64 64" to="360 64 64" dur="1200ms" repeatCount="indefinite"></animateTransform>
    </g>
  </symbol>
  <symbol id="ic-user" viewBox="0 0 24 24">
    <g fill="currentColor">
      <path d="M22 12A10 10 0 1 1 12 2a10 10 0 0 1 10 10Z" opacity=".4" />
      <path d="M12 7a3.7 3.7 0 0 0 0 7.4h.1A3.7 3.7 0 0 0 12 7ZM18.8 19.4A10 10 0 0 1 12 22a10 10 0 0 1-6.8-2.6A4.3 4.3 0 0 1 7.1 17a9.6 9.6 0 0 1 9.8 0 4.2 4.2 0 0 1 1.9 2.4Z" />
    </g>
  </symbol>
  <symbol id="ic-burger" viewBox="0 0 24 24">
    <g id="menu" transform="translate(-684 -380)">
      <path d="M18,.75H0A.75.75,0,0,1-.75,0,.75.75,0,0,1,0-.75H18a.75.75,0,0,1,.75.75A.75.75,0,0,1,18,.75Z" transform="translate(687 387)" fill="currentColor" />
      <path d="M-9919.249,5444.5a.751.751,0,0,1-.752-.751.751.751,0,0,1,.752-.75h18a.75.75,0,0,1,.749.75.75.75,0,0,1-.749.751Z" transform="translate(10606.25 -5051.75)" fill="currentColor" opacity="0.34" />
      <path d="M18,.75H0A.75.75,0,0,1-.75,0,.75.75,0,0,1,0-.75H18a.75.75,0,0,1,.75.75A.75.75,0,0,1,18,.75Z" transform="translate(687 397)" fill="currentColor" />
    </g>
  </symbol>
  <symbol id="ic-search" viewBox="0 0 24 24">
    <path fill="currentColor" d="m21.7 18.9-3.1-3.1c-.7 1.1-1.7 2.1-2.8 2.8l3.1 3.1c.4.4 1 .4 1.4 0l1.4-1.4c.4-.4.4-1 0-1.4Z" />
    <path fill="currentColor" d="M11 20c-5 0-9-4-9-9s4-9 9-9 9 4 9 9-4 9-9 9Zm0-16c-3.9 0-7 3.1-7 7s3.1 7 7 7 7-3.1 7-7-3.1-7-7-7Zm-3 7c0-1.7 1.3-3 3-3 .6 0 1-.4 1-1s-.4-1-1-1c-2.8 0-5 2.2-5 5 0 .6.4 1 1 1s1-.4 1-1Z" opacity=".36" />
  </symbol>
  <symbol id="ic-arrow-l" viewBox="0 0 24 24">
    <path d="M9.60001 11H21C21.6 11 22 11.4 22 12C22 12.6 21.6 13 21 13H9.60001V11Z" fill="currentColor" />
    <path opacity="0.3" d="M9.6 20V4L2.3 11.3C1.9 11.7 1.9 12.3 2.3 12.7L9.6 20Z" fill="currentColor" />
  </symbol>
  <symbol id="ic-arrow-r" viewBox="0 0 24 24">
    <path fill="currentColor" d="M14.4 11H3c-.6 0-1 .4-1 1s.4 1 1 1h11.4v-2Z" />
    <path fill="currentColor" d="M14.4 20V4l7.3 7.3c.4.4.4 1 0 1.4L14.4 20Z" opacity=".36" />
  </symbol>
  <symbol id="ic-images" viewBox="0 0 24 24">
    <g fill="currentColor">
      <path d="M22 8v6l-2-1a2 2 0 0 0-2 0l-5 3a2 2 0 0 1-2 0h-1a2 2 0 0 0-2 0l-5 3a7 7 0 0 1-1-3V8c0-4 2-6 6-6h8c4 0 6 2 6 6Z" opacity=".4" />
      <path d="M11 8a2 2 0 1 1-2-2 2 2 0 0 1 2 2Zm11 6v2c0 4-2 6-6 6H8c-3 0-5-1-5-3l5-3a2 2 0 0 1 2 0h1a2 2 0 0 0 2 0l5-4a2 2 0 0 1 2 0Z" />
    </g>
  </symbol>
  <symbol id="ic-briefcase" viewBox="0 0 24 24">
    <g fill="currentColor">
      <path d="M21 7c-.8-1-2.2-1.4-4.2-1.4h-.3c0-1.7 0-3.8-3.7-3.8h-1.6c-3.7 0-3.7 2-3.7 3.7h-.3c-2 0-3.4.6-4.3 1.5a4.5 4.5 0 0 0-.8 3.6v1.1a.2.2 0 0 0 .1 0 15 15 0 0 0 1.5 1 17.2 17.2 0 0 0 5.5 1.8c0 1 .5 2 2.7 2s2.6-1 2.7-2a16.8 16.8 0 0 0 5.7-2l.2-.2a12.8 12.8 0 0 0 1.3-.8l.1-.4v-.7a4.4 4.4 0 0 0-.8-3.4Zm-8 6.8c0 1 0 1.3-1.1 1.3s-1.3-.2-1.3-1.3v-1.2h2.5ZM9 5.6c0-1.8 0-2.4 2.2-2.4h1.6c2.3 0 2.3.6 2.3 2.3H8.9Z" />
      <path d="M20.5 12.3h-.2a17 17 0 0 1-5.7 2.2c-.1 1-.5 2-2.7 2s-2.6-1-2.7-2a16.7 16.7 0 0 1-5.5-1.9l-.5-.2a15 15 0 0 1-1-.7l.6 6.5c.2 2 1 4 5.4 4h7.6c4.4 0 5.2-2 5.4-4l.7-6.8a12.5 12.5 0 0 1-1.4.9Z" opacity=".4" />
    </g>
  </symbol>
  <symbol id="ic-star" viewBox="0 0 24 24">
    <g fill="currentColor">
      <path d="M11.1 4.5C11.5 3.8 12.5 3.8 12.9 4.5L15 8.2C15.2 8.4 15.4 8.6 15.7 8.6L19.8 9.5C20.6 9.7 20.9 10.6 20.4 11.2L17.5 14.4C17.3 14.6 17.2 14.9 17.3 15.1L17.7 19.4C17.8 20.1 17 20.7 16.3 20.4L12.4 18.7C12.1 18.6 11.9 18.6 11.6 18.7L7.7 20.4C7 20.7 6.2 20.1 6.3 19.4L6.7 15.1C6.8 14.9 6.7 14.6 6.5 14.4L3.6 11.2C3.1 10.6 3.4 9.7 4.2 9.5L8.3 8.6C8.6 8.6 8.8 8.4 9 8.2L11.1 4.5Z" />
    </g>
  </symbol>
  <symbol id="ic-map" viewBox="0 0 24 24">
    <g fill="currentColor">
      <path d="M7.8 22a6 6 0 0 1-.7 0 6 6 0 0 1-1.7-.4C3.2 20.8 2 18.9 2 16.2V7.8C2 4.2 4.2 2 7.8 2h8.4c2.7 0 4.6 1.2 5.4 3.3a6 6 0 0 1 .4 1.8 5.6 5.6 0 0 1 0 .7v8.4a6.1 6.1 0 0 1-1 3.7 4 4 0 0 1-1.1 1 6.1 6.1 0 0 1-3.7 1.1Z" opacity=".4" />
      <path d="m5.4 21.6.3-.4L21.6 5.3a6 6 0 0 1 .4 1.8L15 14l6 5.9a4 4 0 0 1-1.1 1L14 15.1 7.1 22a6 6 0 0 1-1.7-.4Zm2.3-9.4A4.7 4.7 0 0 1 6 8a3.1 3.1 0 0 1 3.1-2.4A3.1 3.1 0 0 1 12.2 8a4.6 4.6 0 0 1-1.7 4.3 2 2 0 0 1-1.4.6 2 2 0 0 1-1.4-.6Zm.5-3.7a1 1 0 0 0 1 1 1 1 0 0 0 1-1 1 1 0 0 0-1-1 1 1 0 0 0-1 1Z" />
    </g>
  </symbol>
  <symbol id="ic-gps" viewBox="0 0 24 24">
    <g fill="currentColor">
      <path d="M20 12a8 8 0 1 1-8-8 8 8 0 0 1 8 8Z" opacity=".4" />
      <path d="M15.1 12A3.1 3.1 0 1 1 12 8.9a3.1 3.1 0 0 1 3.1 3.1ZM12.8 2v2a6 6 0 0 0-.8 0 6 6 0 0 0-.7 0V2a.8.8 0 0 1 .7-.8.8.8 0 0 1 .8.8ZM4 12a6.2 6.2 0 0 0 0 .8H2a.8.8 0 0 1-.8-.8.8.8 0 0 1 .8-.8h2a6.2 6.2 0 0 0 0 .8ZM12.8 20v2a.8.8 0 0 1-.8.7.8.8 0 0 1-.8-.7v-2a6 6 0 0 0 .8 0 6 6 0 0 0 .7 0ZM22.8 12a.8.8 0 0 1-.8.8h-2a6.2 6.2 0 0 0 0-.8 6.2 6.2 0 0 0 0-.8h2a.8.8 0 0 1 .8.8Z" />
    </g>
  </symbol>
  <symbol id="ic-route" viewBox="0 0 24 24">
    <g fill="currentColor">
      <path fill="currentColor" d="M16.2 2H7.8C4.2 2 2 4.2 2 7.8v8.4C2 19.8 4.2 22 7.8 22h8.4c3.6 0 5.8-2.2 5.8-5.8V7.8C22 4.2 19.8 2 16.2 2Z" opacity=".4" />
      <path fill="currentColor" d="M17.4 9 15 16.7a2 2 0 0 1-3.6 0l-.7-2a1.9 1.9 0 0 0-1.3-1.2l-2-.7a2 2 0 0 1 0-3.7L15 6.6a2 2 0 0 1 2.4 2.5Z" />
    </g>
  </symbol>
  <symbol id="ic-location" viewBox="0 0 24 24">
    <g fill="currentColor">
      <path d="M20.6 8.4A8.6 8.6 0 0 0 12 1.7a8.6 8.6 0 0 0-8.6 6.7c-1.2 5.2 2 9.6 4.8 12.3a5.4 5.4 0 0 0 7.6 0c2.8-2.7 6-7 4.8-12.3Z" opacity=".4" />
      <path d="M15.2 10.3A3.1 3.1 0 1 1 12 7.2a3.1 3.1 0 0 1 3.2 3.1Z" />
    </g>
  </symbol>
  <symbol id="ic-filter" viewBox="0 0 24 24">
    <g fill="currentColor">
      <path d="M17.6 21.3V12h-1a.9.9 0 0 1-.8-1 .9.9 0 0 1 .9-.8h3.7a.9.9 0 0 1 .9.9.9.9 0 0 1-1 .9h-.9v9.3a.9.9 0 0 1-.9.9.9.9 0 0 1-.9-.9Zm-13 0V12h-1a.9.9 0 0 1-.9-1 .9.9 0 0 1 1-.8h3.6a.9.9 0 0 1 1 .9.9.9 0 0 1-1 .9h-1v9.3a.9.9 0 0 1-.8.9.9.9 0 0 1-1-.9Zm13-14V2.8a.9.9 0 0 1 1-.9.9.9 0 0 1 .8.9v4.6a.9.9 0 0 1-.9 1 .9.9 0 0 1-.9-1Zm-13 0V2.8a.9.9 0 0 1 .9-.9.9.9 0 0 1 .9.9v4.6a.9.9 0 0 1-1 1 .9.9 0 0 1-.8-1Z" opacity=".4" />
      <path d="M11.1 21.3v-4.6a.9.9 0 0 1 .9-1 .9.9 0 0 1 .9 1v4.6a.9.9 0 0 1-.9.9.9.9 0 0 1-.9-.9Zm-1-7.5a.9.9 0 0 1-.9-.9.9.9 0 0 1 1-.9h.9V2.7a.9.9 0 0 1 .9-.9.9.9 0 0 1 .9.9V12h1a.9.9 0 0 1 .9 1 .9.9 0 0 1-1 .8Z" />
    </g>
  </symbol>
  <symbol id="ic-routing" viewBox="0 0 24 24">
    <g fill="currentColor">
      <path d="M17 21.4c-1.1-1-2.4-2.8-2-4.8.9-3.5 6.1-3.5 7 0 .4 2-1 3.8-2 4.8a2.1 2.1 0 0 1-1.5.6 2.1 2.1 0 0 1-1.5-.6Zm.5-4.2a1 1 0 0 0 1 1 1 1 0 0 0 1-1 1 1 0 0 0-1-1 1 1 0 0 0-1 1ZM4 9.4C3 8.4 1.6 6.6 2 4.6 3 1.1 8 1.1 9 4.6c.4 2-.8 3.8-2 4.8a2.1 2.1 0 0 1-1.4.6A2.1 2.1 0 0 1 4 9.4Zm.5-4.2a1 1 0 0 0 1 1 1 1 0 0 0 1-1 1 1 0 0 0-1-1 1 1 0 0 0-1 1Z" opacity=".4" />
      <path d="M9.3 19.8A2.7 2.7 0 0 1 6.8 18a2.7 2.7 0 0 1 .7-3l8-7a1.2 1.2 0 0 0 .4-1.4 1.2 1.2 0 0 0-1.2-.8H12a.8.8 0 0 1-.8-.8.8.8 0 0 1 .8-.7h2.7A2.7 2.7 0 0 1 17.3 6a2.7 2.7 0 0 1-.8 3l-8 7a1.2 1.2 0 0 0-.3 1.4 1.2 1.2 0 0 0 1.1.8H12a.8.8 0 0 1 .8.8.8.8 0 0 1-.8.8Zm8.2-2.6a1 1 0 0 1 1-1 1 1 0 0 1 1 1 1 1 0 0 1-1 1 1 1 0 0 1-1-1Zm-13-12a1 1 0 0 1 1-1 1 1 0 0 1 1 1 1 1 0 0 1-1 1 1 1 0 0 1-1-1Z" />
    </g>
  </symbol>
  <symbol id="tapes" viewBox="0 0 124 48">
    <g id="tape" fill="currentColor">
      <path id="Base" d="M114.4.2c1.2 6.1 8.9 6 8.6 12a20.3 20.3 0 0 1 .5 2.8c0 1-3.4 3.3-3.4 4.2v2c0 .7 3.5 1.9 3.5 2.6l.1 4.7c0 1.1-2.4 4.5-2.3 7.3 0 3.5 2.4 4.5 1.2 6.3-2 3-12.8 2.9-21.5 2.7-8.8 0-17.6.3-26.6.3h-3.3c-6 0-13.7.2-19.9 0H48a399.6 399.6 0 0 0-35.7 1.7l-9 .3v-2.5c.4-1-1.4-2.6-1-3.7s2.7-1.8 2.9-3a40 40 0 0 0 .5-9c-.1-1.9-1.6-2.2-1.9-4-.1-1 1.1-3.3 1-4.2-.1-.4-4.7-1.8-4.8-2.1-.2-1.5.7-3.4.5-4.9-.6-3 2.1-4.7 1.7-8L2 3.3l20.8-.5h2a574 574 0 0 0 46.2-.5c16.5 5.4 25.2-3.6 41.4-2h1.9Z" opacity=".7" />
      <g id="Dark_Areas">
        <path id="Path_312" d="M15.1 19.9c7.5-.6 4.5 2.1 19.3-4.8s27.5-6.5 30.8-5.4S84 13.3 84 13.3s-18.2-.7-25 .7-14.6 2.8-20.2 5.4-23.8.5-23.8.5Z" opacity=".1" style="isolation:isolate" />
        <path id="Path_313" d="M3.8 15.2c4.1-.9 10-2.1 11.1-2.5 2-.6 20-4.1 16-4L16.3 9c-1.6 0-7.8 2.6-13.3 2.1l.7 4Z" opacity=".1" style="isolation:isolate" />
        <path id="Path_316" d="M106.5 6.6a42.4 42.4 0 0 1-24.2 5.7s14.5 1.9 18 1.8 6.3-1.7 11.1-2.6c3.6-.6 9.3 2.6 12.2 4.4v-1a20.3 20.3 0 0 0-.6-2.8c.1-2.8-1.5-4.3-3.4-5.6-3.1-.2-9.5-1.8-13.1.1Z" opacity=".1" style="isolation:isolate" />
      </g>
      <g id="Light_Areas">
        <path id="Path_314" fill="#fff" d="M57.4 32.3c7.6 1.8 11.4-5 16.1-4.8s18.9-4.3 23.6-3.3l-16.2 4s-6.4-.5-9.6 2.1-8.3 3.3-8.3 3.3Z" opacity=".8" style="isolation:isolate" />
        <path id="Path_315" fill="#fff" d="M38 34.3s5-5.5 7.8-4.6 8.5-.7 9.2-.2 7.5.8 7.5.8-6.3-2.4-8.8-2-8.9.2-10 .2-5.6 5.8-5.6 5.8Z" opacity=".8" style="isolation:isolate" />
        <g id="Group_304" opacity=".3">
          <path id="Path_317" fill="#fff" d="M19.7 27.9c2.1-.4 4.4-.5 6.3-1.5l2.9-1.7a25.5 25.5 0 0 1 3.1-1.2 54.5 54.5 0 0 1 6.4-1.7 30.2 30.2 0 0 1 6.6-.6c4.5.2 8.7 1.6 13 .8 2.2-.2 4.3-.8 6.4-1.2a13.9 13.9 0 0 1 6.6.2 14.6 14.6 0 0 0-6.5.4c-2 .5-4.2 1.1-6.4 1.5-4.4 1-8.9-.5-13-.6-4.4-.2-8.7 1-12.9 2a25.4 25.4 0 0 0-3 1l-3 1.6a11 11 0 0 1-3.2.8l-3.3.2Z" />
        </g>
        <path id="Path_318" fill="#fff" d="m15.7 33.7-3.9.5a46 46 0 0 1-3.8 0H5.6l-.2 2.5 2.6-.2c1.4 0 2.7-.2 4-.4l4-.9 15.5-3.5Z" opacity=".3" style="isolation:isolate" />
        <path id="Path_319" fill="#fff" d="m49.8 40 4.8 5.1h16.6l-13.5-3.4s-6.2-4.4-7.3-4-12.2.3-12.2.3Z" opacity=".3" style="isolation:isolate" />
      </g>
    </g>
  </symbol>
</svg>