<svg xmlns="http://www.w3.org/2000/svg" width="36" height="36.556" viewBox="0 0 36 36.556"><rect width="36" height="36" transform="translate(0 0.556)" fill="#fff" opacity="0"/><g transform="translate(1.029 0)"><g transform="translate(9.066 10.183)" opacity="0.66"><path d="M40.526,30H32.533a34.606,34.606,0,0,0-.524,5.657H41.05A34.607,34.607,0,0,0,40.526,30Z" transform="translate(-24.098 -23.777)" fill="#69aefa"/><path d="M18.025,35.657H24.8A36.834,36.834,0,0,1,25.295,30h-5.61a12.36,12.36,0,0,0-1.66,5.657Z" transform="translate(-18.025 -23.777)" fill="#69aefa"/><path d="M32.533,47.657h7.992A34.608,34.608,0,0,0,41.05,42H32.009a34.607,34.607,0,0,0,.524,5.657Z" transform="translate(-24.098 -28.989)" fill="#69aefa"/><path d="M37.109,19a12.534,12.534,0,0,0-1.814.134,14.281,14.281,0,0,0-1.952,4.958h7.532a14.281,14.281,0,0,0-1.952-4.958A12.534,12.534,0,0,0,37.109,19Z" transform="translate(-24.677 -19)" fill="#69aefa"/><path d="M37.109,59.091a12.534,12.534,0,0,0,1.814-.133A14.281,14.281,0,0,0,40.875,54H33.343A14.281,14.281,0,0,0,35.3,58.958a12.535,12.535,0,0,0,1.814.133Z" transform="translate(-24.677 -34.2)" fill="#69aefa"/><path d="M54.759,30h-5.61a36.764,36.764,0,0,1,.49,5.657h6.779A12.353,12.353,0,0,0,54.759,30Z" transform="translate(-31.542 -23.777)" fill="#69aefa"/><path d="M22.266,54a12.486,12.486,0,0,0,6.668,4.626A17.734,17.734,0,0,1,27.353,54Z" transform="translate(-19.867 -34.2)" fill="#69aefa"/><path d="M22.266,24.449h5.087a17.733,17.733,0,0,1,1.581-4.626A12.486,12.486,0,0,0,22.266,24.449Z" transform="translate(-19.867 -19.357)" fill="#69aefa"/><path d="M52.615,54H47.528a17.733,17.733,0,0,1-1.581,4.626A12.486,12.486,0,0,0,52.615,54Z" transform="translate(-30.151 -34.2)" fill="#69aefa"/><path d="M56.419,42H49.639a36.764,36.764,0,0,1-.49,5.657h5.61A12.353,12.353,0,0,0,56.419,42Z" transform="translate(-31.542 -28.989)" fill="#69aefa"/><path d="M19.685,47.657h5.61A36.834,36.834,0,0,1,24.8,42H18.025a12.36,12.36,0,0,0,1.66,5.657Z" transform="translate(-18.025 -28.989)" fill="#69aefa"/><path d="M45.947,19.823a17.733,17.733,0,0,1,1.581,4.626h5.087a12.486,12.486,0,0,0-6.668-4.626Z" transform="translate(-30.151 -19.357)" fill="#69aefa"/></g><path d="M1.7,25.457A1.7,1.7,0,0,1,0,23.76V1.7A1.7,1.7,0,0,1,1.7,0H23.76a1.7,1.7,0,0,1,1.7,1.7V23.76a1.7,1.7,0,0,1-1.7,1.7Zm-.565-1.7a.565.565,0,0,0,.565.565H23.76a.565.565,0,0,0,.565-.565V5.091H1.132Zm0-22.063V3.96H24.325V1.7a.565.565,0,0,0-.565-.565H1.7A.565.565,0,0,0,1.132,1.7Zm6.23,16.9a.566.566,0,0,1-.29-.495V13.056L4.032,11.84a.566.566,0,0,1,0-1.051l8.486-3.394a.572.572,0,0,1,.421,0l8.486,3.394a.566.566,0,0,1,0,1.051l-3.039,1.215V18.1a.565.565,0,0,1-.291.495,10.986,10.986,0,0,1-10.733,0Zm.841-.834a9.853,9.853,0,0,0,9.051,0V13.507l-4.315,1.727a.573.573,0,0,1-.422,0l-2.052-.821v1.993a.566.566,0,1,1-1.132,0V13.96L8.2,13.507Zm4.967-6.8a.566.566,0,0,1-.088.8l-2.07,1.657,1.717.686,6.963-2.784L12.729,8.529,5.766,11.315,9.8,12.929l2.57-2.057a.567.567,0,0,1,.8.089Z" transform="translate(0)" fill="#212529"/></g></svg>