<svg xmlns="http://www.w3.org/2000/svg" width="36" height="36" viewBox="0 0 36 36"><g transform="translate(0 -0.263)"><path d="M0,0H36V36H0Z" transform="translate(0 0.263)" fill="#fff" opacity="0"/><g transform="translate(1.029 1.264)"><g transform="translate(10.949 12.044)" opacity="0.66"><path d="M25,35.793a.546.546,0,0,0,.461.252h3.782A1.644,1.644,0,0,1,30.886,34.4h3.285a1.644,1.644,0,0,1,1.642,1.642H39.6a.545.545,0,0,0,.46-.251l3.932-6.116a1.644,1.644,0,0,0-1.6-1.3H37.456V25.642A1.644,1.644,0,0,0,35.813,24h-6.57A1.644,1.644,0,0,0,27.6,25.642V28.38H22.674a1.644,1.644,0,0,0-1.6,1.3Zm3.7-10.15a.548.548,0,0,1,.547-.547h6.57a.548.548,0,0,1,.547.547V28.38H28.7Z" transform="translate(-21.031 -24)" fill="#ff8787"/><path d="M40.945,42.7a1.635,1.635,0,0,1-1.381.754H35.782A1.644,1.644,0,0,1,34.139,45.1H30.855a1.644,1.644,0,0,1-1.642-1.642H25.43a1.636,1.636,0,0,1-1.382-.755L21,37.96V49.479a1.644,1.644,0,0,0,1.642,1.642H42.351a1.644,1.644,0,0,0,1.642-1.642V37.96Z" transform="translate(-21 -30.317)" fill="#ff8787"/><rect width="4.38" height="2.19" rx="1" transform="translate(9.307 11.497)" fill="#ff8787"/></g><path d="M.642,25.566a2.189,2.189,0,0,1,0-3.1l8.324-8.324a9.3,9.3,0,1,1,3.1,3.1L3.738,25.566a2.191,2.191,0,0,1-3.1,0Zm.774-2.323a1.094,1.094,0,0,0,0,1.548,1.122,1.122,0,0,0,1.548,0l.387-.387L1.8,22.857Zm1.161-1.161,1.548,1.548L8,19.759,6.448,18.211Zm4.646-4.646L8.77,18.985l.775-.774L8,16.663Zm1.466-8.13A8.212,8.212,0,1,0,16.9,1.095,8.212,8.212,0,0,0,8.688,9.307Zm.083,6.581,1.548,1.548.828-.828A9.368,9.368,0,0,1,9.6,15.06Zm1.56-6.581a6.57,6.57,0,1,1,6.57,6.569A6.57,6.57,0,0,1,10.331,9.307Zm1.1,0A5.475,5.475,0,1,0,16.9,3.832,5.474,5.474,0,0,0,11.426,9.307Zm8.212,0A2.74,2.74,0,0,0,16.9,6.57a.548.548,0,0,1,0-1.1,3.837,3.837,0,0,1,3.832,3.833.547.547,0,1,1-1.095,0Z" transform="translate(0 0)" fill="#212529"/></g></g></svg>