<svg xmlns="http://www.w3.org/2000/svg" width="36" height="36.556" viewBox="0 0 36 36.556"><rect width="36" height="36" transform="translate(0 0.556)" fill="#fff" opacity="0"/><g transform="translate(1.029)"><g transform="translate(6.862 7.993)" opacity="0.66"><path d="M27.252,42.42l-2.344,2.344,3.2,3.2,2.344-2.344A10.82,10.82,0,0,1,27.252,42.42Z" transform="translate(-18.811 -26.981)" fill="#ab9efb"/><path d="M14.793,52.613a2.263,2.263,0,1,0,3.2,3.2l4.634-4.635-3.2-3.2Z" transform="translate(-14.13 -29.395)" fill="#ab9efb"/><path d="M40.657,22.129a5.657,5.657,0,1,0,5.657,5.657A5.657,5.657,0,0,0,40.657,22.129Zm2.263,6.223h-1.7v1.7a.566.566,0,0,1-1.131,0v-1.7h-1.7a.566.566,0,1,1,0-1.131h1.7v-1.7a.566.566,0,0,1,1.131,0v1.7h1.7a.566.566,0,1,1,0,1.131Z" transform="translate(-23.194 -18.169)" fill="#ab9efb"/><path d="M37.617,15.129a9.617,9.617,0,1,0,9.617,9.617,9.617,9.617,0,0,0-9.617-9.617Zm0,16.406a6.789,6.789,0,1,1,6.789-6.789,6.789,6.789,0,0,1-6.789,6.789Z" transform="translate(-20.154 -15.129)" fill="#ab9efb"/></g><path d="M1.614,28.286A1.616,1.616,0,0,1,.02,26.416L1.965,14.262A2.817,2.817,0,0,1,4.758,11.88h9.718a2.817,2.817,0,0,1,2.793,2.382l1.944,12.156a1.615,1.615,0,0,1-1.593,1.869Zm8.761-1.131h7.246A.483.483,0,0,0,18.1,26.6L16.152,14.441a1.686,1.686,0,0,0-1.589-1.421ZM3.082,14.441,1.137,26.6a.484.484,0,0,0,.476.559H8.859L4.671,13.02A1.687,1.687,0,0,0,3.082,14.441Zm5.095,6.428,1.44,4.861,1.44-4.861-.8-5.594H8.977Zm3.148-6.129.5,3.527,1.557-5.254H11.756ZM7.406,18.267l.5-3.527-.432-1.727H5.849Zm1.521-4.123h1.38l.283-1.131H8.645Zm-4.4-9.052a5.091,5.091,0,1,1,5.092,5.092A5.092,5.092,0,0,1,4.525,5.092Zm1.17.523a3.955,3.955,0,0,0,7.843,0A5.1,5.1,0,0,1,9.617,2.9,5.1,5.1,0,0,1,5.7,5.614Zm7.828-1.142a3.963,3.963,0,0,0-3.288-3.288A3.964,3.964,0,0,0,13.524,4.473Zm-7.814,0A3.963,3.963,0,0,0,9,1.185,3.963,3.963,0,0,0,5.71,4.473Z" transform="translate(0)" fill="#212529"/></g></svg>