<svg xmlns="http://www.w3.org/2000/svg" width="220" height="152" viewBox="0 0 220 152"><g transform="translate(-6510 -1129)"><g opacity="0"><rect width="220" height="152" rx="4" transform="translate(6510 1129)" fill="#fff"/><path d="M4,1A3,3,0,0,0,1,4V148a3,3,0,0,0,3,3H216a3,3,0,0,0,3-3V4a3,3,0,0,0-3-3H4M4,0H216a4,4,0,0,1,4,4V148a4,4,0,0,1-4,4H4a4,4,0,0,1-4-4V4A4,4,0,0,1,4,0Z" transform="translate(6510 1129)" fill="#ff8787"/></g><g transform="translate(6531.048 1142.857)"><ellipse cx="3.553" cy="3.546" rx="3.553" ry="3.546" transform="translate(41.439 59.726)" fill="#f2f2f2"/><ellipse cx="2.202" cy="2.198" rx="2.202" ry="2.198" transform="translate(30.629 101.914)" fill="#f2f2f2"/><rect width="27.024" height="0.385" transform="translate(73.349 4.142)" fill="#f2f2f2"/><rect width="0.386" height="3.564" transform="translate(80.684 0.674)" fill="#f2f2f2"/><rect width="0.386" height="3.564" transform="translate(92.459 0.674)" fill="#f2f2f2"/><rect width="27.024" height="0.385" transform="translate(116.973 97.377)" fill="#f2f2f2"/><rect width="0.386" height="3.564" transform="translate(124.308 93.91)" fill="#f2f2f2"/><rect width="0.386" height="3.564" transform="translate(136.082 93.91)" fill="#f2f2f2"/><rect width="27.024" height="0.385" transform="translate(118.324 38.623)" fill="#f2f2f2"/><rect width="0.386" height="3.564" transform="translate(125.659 35.156)" fill="#f2f2f2"/><rect width="0.386" height="3.564" transform="translate(137.434 35.156)" fill="#f2f2f2"/><rect width="27.024" height="0.385" transform="translate(118.324 24.754)" fill="#f2f2f2"/><rect width="0.386" height="3.564" transform="translate(125.659 21.286)" fill="#f2f2f2"/><rect width="0.386" height="3.564" transform="translate(137.434 21.286)" fill="#f2f2f2"/><rect width="27.024" height="0.385" transform="translate(59.065 26.68)" fill="#f2f2f2"/><rect width="0.386" height="3.564" transform="translate(66.4 23.213)" fill="#f2f2f2"/><rect width="0.386" height="3.564" transform="translate(78.175 23.213)" fill="#f2f2f2"/><rect width="27.024" height="0.385" transform="translate(39.377 17.626)" fill="#f2f2f2"/><rect width="0.386" height="3.564" transform="translate(46.712 14.159)" fill="#f2f2f2"/><rect width="0.386" height="3.564" transform="translate(58.486 14.159)" fill="#f2f2f2"/><rect width="27.024" height="0.385" transform="translate(27.216 53.264)" fill="#f2f2f2"/><rect width="0.386" height="3.564" transform="translate(34.551 49.796)" fill="#f2f2f2"/><rect width="0.386" height="3.564" transform="translate(46.326 49.796)" fill="#f2f2f2"/><rect width="27.024" height="0.385" transform="translate(13.704 92.561)" fill="#f2f2f2"/><rect width="0.386" height="3.564" transform="translate(21.039 89.094)" fill="#f2f2f2"/><rect width="0.386" height="3.564" transform="translate(32.814 89.094)" fill="#f2f2f2"/><rect width="27.024" height="0.385" transform="translate(141.487 76.38)" fill="#f2f2f2"/><rect width="0.386" height="3.564" transform="translate(148.822 72.913)" fill="#f2f2f2"/><rect width="0.386" height="3.564" transform="translate(160.597 72.913)" fill="#f2f2f2"/><rect width="27.024" height="0.385" transform="translate(133.573 51.723)" fill="#f2f2f2"/><rect width="0.386" height="3.564" transform="translate(152.876 52.012)" fill="#f2f2f2"/><rect width="0.386" height="3.564" transform="translate(141.101 52.012)" fill="#f2f2f2"/><rect width="27.024" height="0.385" transform="translate(2.702 22.827)" fill="#f2f2f2"/><rect width="0.386" height="3.564" transform="translate(22.004 23.116)" fill="#f2f2f2"/><rect width="0.386" height="3.564" transform="translate(10.23 23.116)" fill="#f2f2f2"/><rect width="27.024" height="0.385" transform="translate(4.439 73.298)" fill="#f2f2f2"/><rect width="0.386" height="3.564" transform="translate(23.742 73.587)" fill="#f2f2f2"/><rect width="0.386" height="3.564" transform="translate(11.967 73.587)" fill="#f2f2f2"/><rect width="27.024" height="0.385" transform="translate(89.563 10.306)" fill="#f2f2f2"/><rect width="0.386" height="3.564" transform="translate(108.866 10.595)" fill="#f2f2f2"/><rect width="0.386" height="3.564" transform="translate(97.091 10.595)" fill="#f2f2f2"/><rect width="27.024" height="0.385" transform="translate(13.704 37.082)" fill="#f2f2f2"/><rect width="0.386" height="3.564" transform="translate(21.039 33.615)" fill="#f2f2f2"/><rect width="0.386" height="3.564" transform="translate(32.814 33.615)" fill="#f2f2f2"/><path d="M370.748,300.408v90.731h84.159V300.408Zm42.08,6.55a2.89,2.89,0,1,1,2.9-2.89,2.892,2.892,0,0,1-2.9,2.89Z" transform="translate(-325.678 -267.082)" fill="#3f3d56"/><path d="M172.822,689.894c1.335,4.923,5.906,7.972,5.906,7.972s2.407-4.933,1.073-9.857-5.906-7.973-5.906-7.973S171.487,684.971,172.822,689.894Z" transform="translate(-165.63 -573.581)" fill="#3f3d56"/><path d="M146.4,709.548c3.662,3.558,4.109,9.027,4.109,9.027s-5.49-.3-9.152-3.857-4.109-9.027-4.109-9.027S142.742,705.99,146.4,709.548Z" transform="translate(-137.252 -594.293)" fill="#69aefa"/><rect width="175.46" height="0.385" transform="translate(3.184 123.865)" fill="#3f3d56"/><path d="M293.74,657.877a4.244,4.244,0,0,0-2.708-3.949,4.245,4.245,0,1,0-3.076,0,4.233,4.233,0,0,0,0,7.9,4.245,4.245,0,1,0,3.076,0A4.244,4.244,0,0,0,293.74,657.877Zm-8.107-7.9a3.86,3.86,0,1,1,4.732,3.75,4.257,4.257,0,0,0-1.742,0A3.858,3.858,0,0,1,285.633,649.979Zm7.721,15.8a3.86,3.86,0,1,1-4.732-3.75,4.261,4.261,0,0,0,1.742,0A3.858,3.858,0,0,1,293.354,665.775Zm-2.989-4.148a4.259,4.259,0,0,0-1.742,0,3.847,3.847,0,0,1,0-7.5,4.259,4.259,0,0,0,1.742,0,3.847,3.847,0,0,1,0,7.5Z" transform="translate(-256.68 -545.891)" fill="#3f3d56"/><path d="M457.8,387.6H413.6a1.348,1.348,0,1,1,0-2.7h44.2a1.348,1.348,0,1,1,0,2.7Z" transform="translate(-359.167 -335.304)" fill="#f2f2f2"/><path d="M457.8,459.6H413.6a1.348,1.348,0,1,1,0-2.7h44.2a1.348,1.348,0,1,1,0,2.7Z" transform="translate(-359.167 -393.434)" fill="#f2f2f2"/><path d="M457.8,531.6H413.6a1.348,1.348,0,1,1,0-2.7h44.2a1.348,1.348,0,1,1,0,2.7Z" transform="translate(-359.167 -451.565)" fill="#f2f2f2"/><path d="M457.8,603.6H413.6a1.348,1.348,0,1,1,0-2.7h44.2a1.348,1.348,0,1,1,0,2.7Z" transform="translate(-359.167 -509.695)" fill="#f2f2f2"/><path d="M457.8,675.6H413.6a1.348,1.348,0,1,1,0-2.7h44.2a1.348,1.348,0,1,1,0,2.7Z" transform="translate(-359.167 -567.825)" fill="#f2f2f2"/><path d="M449.275,387.6H412.6a1.348,1.348,0,1,1,0-2.7h36.675a1.348,1.348,0,1,1,0,2.7Z" transform="translate(-358.36 -335.304)" fill="#69aefa"/><path d="M437.886,459.6H412.6a1.348,1.348,0,1,1,0-2.7h25.286a1.348,1.348,0,1,1,0,2.7Z" transform="translate(-358.36 -393.434)" fill="#69aefa"/><path d="M423.988,531.6H412.6a1.348,1.348,0,1,1,0-2.7h11.388a1.348,1.348,0,1,1,0,2.7Z" transform="translate(-358.36 -451.565)" fill="#69aefa"/><path d="M452.749,603.6H412.6a1.348,1.348,0,1,1,0-2.7h40.149a1.348,1.348,0,1,1,0,2.7Z" transform="translate(-358.36 -509.695)" fill="#69aefa"/><path d="M443.87,675.6H412.6a1.348,1.348,0,1,1,0-2.7h31.27a1.348,1.348,0,1,1,0,2.7Z" transform="translate(-358.36 -567.825)" fill="#69aefa"/><rect width="0.386" height="2.697" transform="translate(116.587 49.604)" fill="#69aefa"/><path d="M751.793,386.99a1.541,1.541,0,1,1,1.544-1.541A1.543,1.543,0,0,1,751.793,386.99Zm0-2.7a1.156,1.156,0,1,0,1.158,1.156A1.157,1.157,0,0,0,751.793,384.293Z" transform="translate(-631.924 -334.497)" fill="#69aefa"/><rect width="0.386" height="2.697" transform="translate(116.587 63.473)" fill="#69aefa"/><path d="M751.793,458.99a1.541,1.541,0,1,1,1.544-1.541A1.543,1.543,0,0,1,751.793,458.99Zm0-2.7a1.156,1.156,0,1,0,1.158,1.156A1.157,1.157,0,0,0,751.793,456.293Z" transform="translate(-631.924 -392.627)" fill="#69aefa"/><rect width="0.386" height="2.697" transform="translate(116.587 77.343)" fill="#69aefa"/><path d="M751.793,530.99a1.541,1.541,0,1,1,1.544-1.541A1.543,1.543,0,0,1,751.793,530.99Zm0-2.7a1.156,1.156,0,1,0,1.158,1.156A1.157,1.157,0,0,0,751.793,528.293Z" transform="translate(-631.924 -450.757)" fill="#69aefa"/><rect width="0.386" height="2.697" transform="translate(116.587 91.213)" fill="#69aefa"/><path d="M751.793,602.99a1.541,1.541,0,1,1,1.544-1.541A1.543,1.543,0,0,1,751.793,602.99Zm0-2.7a1.156,1.156,0,1,0,1.158,1.156A1.157,1.157,0,0,0,751.793,600.293Z" transform="translate(-631.924 -508.887)" fill="#69aefa"/><rect width="0.386" height="2.697" transform="translate(116.587 105.083)" fill="#69aefa"/><path d="M751.793,674.99a1.541,1.541,0,1,1,1.544-1.541,1.543,1.543,0,0,1-1.544,1.541Zm0-2.7a1.156,1.156,0,1,0,1.158,1.156A1.157,1.157,0,0,0,751.793,672.293Z" transform="translate(-631.924 -567.018)" fill="#69aefa"/><ellipse cx="0.772" cy="0.771" rx="0.772" ry="0.771" transform="translate(119.096 50.182)" fill="#69aefa"/><ellipse cx="0.772" cy="0.771" rx="0.772" ry="0.771" transform="translate(119.096 91.791)" fill="#69aefa"/><ellipse cx="0.772" cy="0.771" rx="0.772" ry="0.771" transform="translate(119.096 105.661)" fill="#69aefa"/><ellipse cx="1.351" cy="1.348" rx="1.351" ry="1.348" transform="translate(85.799 35.638)" fill="#3f3d56"/><ellipse cx="1.351" cy="1.348" rx="1.351" ry="1.348" transform="translate(85.799)" fill="#3f3d56"/><rect width="0.386" height="35.638" transform="translate(86.957 1.348)" fill="#3f3d56"/><path d="M919.392,503.379v4.773a114.531,114.531,0,0,1,1.151,14.406c0,6.717-1.86,22.36-1.86,22.36s-3.72,1.326-3.985-.707-.974-12.815-.974-14.406-3.1-13.7-3.1-13.7l-1.948,13.434s.62,15.908,0,16.35-3.631,1.237-3.985.442-2.214-17.853-2.214-17.853-1.506-22.272-.62-23.6,1.683-2.386,1.683-2.386S916.2,499.4,919.392,503.379Z" transform="translate(-754.044 -429.315)" fill="#2f2e41"/><path d="M971.806,724.767l.222,1.441a14.159,14.159,0,0,1,.145,1.483c.035.724.155,1.839.568,2.016.62.265,4.644,3.652,1.81,3.828s-4.252.482-5.091-.168c-.992-.769.132-.421-.311-.421s-.974,0-1.151-.707a4.475,4.475,0,0,1,.266-1.944v-5.527Z" transform="translate(-807.609 -609.695)" fill="#2f2e41"/><path d="M903.737,724.408l-.222,1.441a14.147,14.147,0,0,0-.145,1.483c-.035.724-.155,1.839-.568,2.016-.62.265-4.644,3.652-1.81,3.828s4.252.482,5.091-.168c.992-.769-.132-.421.311-.421s.974,0,1.151-.707a4.475,4.475,0,0,0-.266-1.944v-5.527Z" transform="translate(-752.763 -609.404)" fill="#2f2e41"/><path d="M911.5,312.77s1.505,3.712,2.568,4.331.531,3.447.531,3.447l-2.657,3.712h-2.125l-2.568-4.419s-.177-2.917-.708-3.624S911.5,312.77,911.5,312.77Z" transform="translate(-758.021 -277.063)" fill="#ffb9b9"/><path d="M911.5,312.77s1.505,3.712,2.568,4.331.531,3.447.531,3.447l-2.657,3.712h-2.125l-2.568-4.419s-.177-2.917-.708-3.624S911.5,312.77,911.5,312.77Z" transform="translate(-758.021 -277.063)" opacity="0.1"/><path d="M910.165,352.226l3.985.884,2.922,29.342a5.7,5.7,0,0,0-3.188,2.386,3.406,3.406,0,0,1-4.516,1.237c-.974-.53-4.871-2.033-4.959-2.651s.177-11.489.177-11.489l-2.48-16.969,1.24-1.856h2.214l1.771,1.5Z" transform="translate(-754.47 -308.918)" fill="#69aefa"/><ellipse cx="4.605" cy="4.596" rx="4.605" ry="4.596" transform="translate(145.068 31.112)" fill="#ffb9b9"/><path d="M940.99,344.427s8.679.884,9.476,2.74-.531,10.075-.531,10.075,3.188,7.159,3.1,8.838,3.011,13.169-.354,11.843-2.3-4.773-3.985-2.3-2.391,2.121-2.391,2.121-1.683,2.74-2.214,2.475-.886-2.3.266-3.27.974-2.651-1.24-5.833-4.517-19.885-3.188-22.448A7.553,7.553,0,0,0,940.99,344.427Z" transform="translate(-784.674 -302.621)" fill="#575a89"/><path d="M842.544,386.158l-1.506,1.414-1.86-1.237.8-1.856Z" transform="translate(-677.196 -310.415)" fill="#ffb9b9"/><path d="M885.9,352.226s-6.731,2.475-6.731,5.126,4.074,14.229,4.074,14.229a31.5,31.5,0,0,1-.177,3.712c-.177.707-2.964,6.874-.531,7.424,1.518.343,2.765,1.246,2.878,2.519.134,1.512-1.026,3.42-.93,3.756.177.619,1.24,1.5,1.151,1.061a37.48,37.48,0,0,1,1.948-9.633c1.24-2.828-.531-21.83-.886-24.3A27.324,27.324,0,0,0,885.9,352.226Z" transform="translate(-735.958 -308.918)" fill="#575a89"/><path d="M758.432,385.24l1.594,3.8,1.2-2.43-1.373-3.049Z" transform="translate(-612.035 -309.674)" fill="#ffb9b9"/><path d="M934.21,327.551a8.263,8.263,0,0,0,2.34.6c.886,0,4.516,1.856,3.277,3s-3.1,1.414-3.985,3.093-1.328,1.944-1.328,1.944l-1.577-2.114s2.2-2.482,2.108-3.277A32.547,32.547,0,0,0,934.21,327.551Z" transform="translate(-779.348 -288.996)" fill="#69aefa"/><path d="M897.556,338.582s-1.089.419-1.355,1.126-1.948,2.033-1.24,2.386,3.808,1.768,4.428,2.033,1.775-.752,1.775-.752-1.554-.883-1.554-1.5S897.556,338.582,897.556,338.582Z" transform="translate(-748.564 -297.902)" fill="#69aefa"/><path d="M872.078,372.413l-2.125.53s-2.922,13.08-2.037,16.35,5.048,13.08,5.048,13.08l2.657-3.093s-1.159-7.034-1.819-7.494-.218-1.432-.218-1.7.266-.088-.354-.707,2.3-4.065,1.505-5.038S872.078,372.413,872.078,372.413Z" transform="translate(-726.744 -325.217)" fill="#575a89"/><path d="M977.389,364.843l-1.284-4.817s3.454,2.475,4.162,6.1,3.454,10.871,1.683,14.052-4.871,12.373-5.933,12.2a9.9,9.9,0,0,1-3.719-2.74c-.089-.354,4.605-8.484,3.9-9.1a1.99,1.99,0,0,1,0-2.563c.531-.354,1.151-2.033.708-1.944s-1.771-.8-1.506-1.768-1.328-7.512-1.328-7.512Z" transform="translate(-811.111 -315.215)" opacity="0.1"/><path d="M978.994,356.814l1.24.353s3.454,2.475,4.162,6.1,3.454,10.871,1.683,14.052-4.871,12.373-5.934,12.2a9.9,9.9,0,0,1-3.719-2.74c-.089-.353,4.605-8.484,3.9-9.1a1.991,1.991,0,0,1,0-2.563c.531-.354,1.151-2.033.708-1.944s-1.771-.8-1.505-1.768-1.328-7.512-1.328-7.512Z" transform="translate(-814.443 -312.623)" fill="#575a89"/><path d="M888.061,279.578l.864-.313a6.147,6.147,0,0,0-4.319-1.646l.707-.705a3.21,3.21,0,0,0-3.3,1.019,14,14,0,0,0-2.376,3.027h-.925l.386.771-1.351.771,1.387-.138a3.882,3.882,0,0,0,.131,2l.314.862a24.83,24.83,0,0,0,1.256-2.821v.784s.864-.705.864-1.175l.471.549.235-.862,2.905.862-.471-.705,1.806.235-.707-.862s2.042,1.019,2.12,1.881a4.5,4.5,0,0,0,1.1,1.959l.471-.784S890.338,280.753,888.061,279.578Z" transform="translate(-734.814 -248.019)" fill="#2f2e41"/><ellipse cx="0.676" cy="1.059" rx="0.676" ry="1.059" transform="translate(152.393 34.097)" fill="#ffb9b9"/></g></g></svg>