<svg xmlns="http://www.w3.org/2000/svg" width="220" height="152" viewBox="0 0 220 152"><g transform="translate(-6497 -232)"><g opacity="0"><rect width="220" height="152" rx="4" transform="translate(6497 232)" fill="#fff"/><path d="M4,1A3,3,0,0,0,1,4V148a3,3,0,0,0,3,3H216a3,3,0,0,0,3-3V4a3,3,0,0,0-3-3H4M4,0H216a4,4,0,0,1,4,4V148a4,4,0,0,1-4,4H4a4,4,0,0,1-4-4V4A4,4,0,0,1,4,0Z" transform="translate(6497 232)" fill="#ff8787"/></g><path d="M-56.471-46.5c-12.5,15.1-21.9,30.8-24.9,49.4-2.9,18.7.6,40.2,13.1,51.2,12.6,10.9,34.1,11.2,56,11.5,21.8.3,44,.6,59.8-10.4,15.9-10.9,25.5-33.1,21.2-50.9-4.2-17.9-22.3-31.6-38.2-46.6C14.729-57.4,1.029-74-13.571-75-28.271-76-43.971-61.5-56.471-46.5Z" transform="translate(6584.243 309.049)" fill="#f8f5ff"/><g transform="translate(6523 209)"><path d="M495.983,174.447a152.76,152.76,0,0,0,1.33,19.636c.03.229.063.457.094.686h61.5c.182-.226.361-.454.534-.686.578-.766,1.121-1.553,1.62-2.369,2.4-3.928,3.509-8.536,2.438-11.726l-.019-.05a5.585,5.585,0,0,0-1.08-1.9c-2.468-2.81-7.492-2.372-12.062-.14,4.112-4.451,7.4-10.078,7.674-15.116.27-4.914-2.281-8.44-5.052-11.439-.091-.1-.182-.2-.273-.292-.044-.05-.091-.1-.135-.146-2.162-2.286-4.685-4.542-8.357-4.291-4.027.275-8.508,3.622-11.659,7.533s-5.255,8.357-7.387,12.7-4.443,8.787-7.85,12.486c4.619-5.776,8.354-12.356,9.756-18.769s.234-12.585-3.837-15.631a9.561,9.561,0,0,0-4.179-1.713c-.176-.03-.355-.055-.537-.077a16.784,16.784,0,0,0-12.169,3.939,27.964,27.964,0,0,0-8.7,13.351A45.7,45.7,0,0,0,495.983,174.447Z" transform="translate(-391.442 -113.815)" fill="#f2f2f2"/><path d="M525.738,291.837h-1.176q-.562-.347-1.129-.686c-.234-.146-.471-.286-.708-.43q-5.871-3.541-11.814-6.79t-11.932-6.2a.493.493,0,0,1-.286-.562.143.143,0,0,1,.019-.041c.055-.1.179-.149.361-.061.49.242.983.485,1.474.733q6.012,3,11.974,6.3t11.85,6.9l.248.152Z" transform="translate(-440.588 -240.083)" fill="#fff"/><path d="M457.371,328.322H290.177a2.4,2.4,0,0,0-2.4,2.4V444.019a2.4,2.4,0,0,0,2.4,2.4H457.371a2.4,2.4,0,0,0,1.826-.843.567.567,0,0,0,.052-.066,2.251,2.251,0,0,0,.344-.581,2.343,2.343,0,0,0,.182-.912V330.724A2.4,2.4,0,0,0,457.371,328.322Zm1.719,115.7a1.7,1.7,0,0,1-.284.942,1.775,1.775,0,0,1-.65.584,1.7,1.7,0,0,1-.785.19H290.177a1.718,1.718,0,0,1-1.716-1.716V330.724a1.718,1.718,0,0,1,1.716-1.716H457.371a1.719,1.719,0,0,1,1.719,1.716Z" transform="translate(-287.775 -277.254)" fill="#3f3d56"/><rect width="171.313" height="0.687" transform="translate(0.342 60.695)" fill="#3f3d56"/><circle cx="2.06" cy="2.06" r="2.06" transform="translate(4.119 54.158)" fill="#3f3d56"/><circle cx="2.06" cy="2.06" r="2.06" transform="translate(10.041 54.158)" fill="#3f3d56"/><circle cx="2.06" cy="2.06" r="2.06" transform="translate(15.963 54.158)" fill="#3f3d56"/><path d="M557.631,537.522c-2.06-1.341-3.085-4.458-2.58-7.308a8.814,8.814,0,0,1,4.685-6.364,7.34,7.34,0,0,1,6.949.494c2.09,1.278,5.045,1.978,6.038,4.534.763,1.965-.2,5.954-1.231,7.863a5.822,5.822,0,0,1-4.157,2.732,12.489,12.489,0,0,1-10.1-2.33Z" transform="translate(-481.339 -418.456)" fill="#2f2e41"/><path d="M254.564,483.147l-1.647,2.84-.218.375-.317.551h-4.856l.328-.551.848-1.43,1.978-3.338,2.239.9Z" transform="translate(-179.347 -348.943)" fill="#ffb8b8"/><path d="M531.358,610.3l-.887-.551-.11-.069,5.567-10.145a3.782,3.782,0,0,1,2.272-1.823,3.739,3.739,0,0,1,1.867-.069,3.677,3.677,0,0,1,1.03.386,3.584,3.584,0,0,1,.383.242,3.676,3.676,0,0,1,1.129,1.272,3.806,3.806,0,0,1-.116,3.842l-2.146,3.429-1.834,2.933-.344.551h-6.812Z" transform="translate(-463.543 -472.33)" fill="#2f2e41"/><circle cx="6.765" cy="6.765" r="6.765" transform="translate(75.353 109.137)" fill="#ffb8b8"/><path d="M569.725,608.132H554.518l.069-.2q-.058-.178-.107-.355c-.036-.124-.066-.251-.094-.375a8.316,8.316,0,0,1,0-3.5,17.029,17.029,0,0,1,4.192-7.478c.058-.044.116-.085.174-.127a7.652,7.652,0,0,1,1.611-.9,10.283,10.283,0,0,1,6.856-.083,13.7,13.7,0,0,1,1.788.68c.2.1.314.157.314.157l.173,5.291.209,6.335Z" transform="translate(-480.816 -470.162)" fill="#aa81f3"/><path d="M611.01,605.8l-1.162-5.911-1.173-5.961a1.245,1.245,0,0,0-1.005-.983l-2.457-.424-2.286-.394a1.229,1.229,0,0,0-1.187.454,1.214,1.214,0,0,0-.267.755,1.246,1.246,0,0,0,.1.493c1.193,2.782,1.215,7.186.912,11.971-.014.182-.025.366-.039.551h8.674Z" transform="translate(-515.066 -468.384)" fill="#2f2e41"/><path d="M547.758,594.394a1.247,1.247,0,0,0-1.969-.683l-1.055.958-4.319,3.933a1.2,1.2,0,0,0-.308.438c-.488,1.165-1.438,3.465-2.542,6.3l-.554,1.43c-.066.182-.138.366-.209.551h7.118c.058-.185.116-.369.173-.551.317-1,.625-1.98.923-2.933.87-2.768,1.655-5.283,2.261-7.272q.252-.826.46-1.526a1.247,1.247,0,0,0,.022-.65Z" transform="translate(-468.209 -469.356)" fill="#2f2e41"/><path d="M338.49,483.276h.46l-.063-.154-.168-.4-2.592-6.151-.4.24-3.184,1.925,1.633,3.986.226.551h4.085Z" transform="translate(-240.949 -345.305)" fill="#ffb8b8"/><path d="M612.988,595.339a3.807,3.807,0,0,0-4.768-2.25,3.422,3.422,0,0,0-.35.138,3.759,3.759,0,0,0-1.6,1.358,3.633,3.633,0,0,0-.394.763,3.785,3.785,0,0,0,.085,2.911l.8,1.774,2.848,6.335.248.551h5.765l.4-.154,1.03-.4.143-.055Z" transform="translate(-518.074 -468.949)" fill="#2f2e41"/><path d="M596.54,525.214a1.119,1.119,0,0,0,1.273-.483,1.611,1.611,0,0,0,.093-1.417,2.958,2.958,0,0,0-.88-1.161,3.417,3.417,0,0,0-1.547-.8,2.055,2.055,0,0,0-1.667.366,1.481,1.481,0,0,0-.5,1.576,2.184,2.184,0,0,0,1.123,1.1,7.461,7.461,0,0,0,3.04.864Z" transform="translate(-509.109 -417.082)" fill="#2f2e41"/><path d="M577.034,542.592c-1.088.15-.948-.4-1.384-1.411s-1.019-2.2-2.112-2.306c-.9-.084-1.634.633-2.36,1.164a4.928,4.928,0,0,1-4.536.843,3.183,3.183,0,0,1-1.973-3.855,3.289,3.289,0,0,1,1.9-1.8,6.62,6.62,0,0,1,2.651-.368,13.676,13.676,0,0,1,5.747,1.471,5.555,5.555,0,0,1,2.9,2.822c.467,1.3.775,3.128-.561,3.479Z" transform="translate(-488.287 -426.893)" fill="#2f2e41"/><path d="M601.778,513.516a2.275,2.275,0,0,1,.786-2.845,3.854,3.854,0,0,1,3.109-.436,6.105,6.105,0,0,1,4.38,4.245c.445,1.636.181,3.394.558,5.048a6.624,6.624,0,0,0,8.325,4.882,3.05,3.05,0,0,0,2.389-2.311,6.478,6.478,0,0,1-3.836,6.486,11.294,11.294,0,0,1-4.656.606,8.33,8.33,0,0,1-3.026-.486,5.417,5.417,0,0,1-2.846-3.086,8.574,8.574,0,0,1-.379-4.251c.155-1.11.464-2.2.55-3.314a4.6,4.6,0,0,0-.766-3.193,2.454,2.454,0,0,0-2.983-.791,7.216,7.216,0,0,1-1.138.718c-.428.141-1.034-.107-.995-.556Z" transform="translate(-514.902 -408.961)" fill="#2f2e41"/><path d="M770.781,594.612l.052-.551,1.554-16.163a9.887,9.887,0,0,1,1.633-1.038,9.628,9.628,0,0,1,7.952-.174,8.7,8.7,0,0,1,1.278.625l.909,16.75.03.551Z" transform="translate(-637.741 -456.642)" fill="#aa81f3"/><circle cx="6.765" cy="6.765" r="6.765" transform="translate(133.55 103.424)" fill="#ffb8b8"/><path d="M779.962,518.621a3.683,3.683,0,0,0-2.794-6.215,10.382,10.382,0,0,0-2.71.7,8.962,8.962,0,0,1-4.21.379,5.622,5.622,0,0,1-3.585-2.117,4.12,4.12,0,0,1-.507-4.04c.683-1.494,2.277-2.317,3.777-2.986a6.9,6.9,0,0,1,1.918-.63,2.459,2.459,0,0,1,1.908.481c.422.363.669.907,1.127,1.222a3.787,3.787,0,0,0,1.81.407,6.942,6.942,0,0,1,3.362,12.544Z" transform="translate(-634.157 -404.307)" fill="#2f2e41"/><path d="M749.923,580.7l-1.008-2.8-.063-.174a.579.579,0,0,0-.867-.286l-1.145.763s-7.341,0-7.93,4.4c-.008.069-.019.146-.027.229a.046.046,0,0,1,0,.011c-.074.289-1.46,5.644-2.65,12.254-.033.182-.066.366-.1.551h15.951C752.6,589.017,752.311,582.843,749.923,580.7Z" transform="translate(-612.635 -457.688)" fill="#2f2e41"/><path d="M814.422,595.108c-.87-6.781-2.115-12.266-2.115-12.266-.011-.083-.022-.16-.03-.229-.587-4.4-7.927-4.4-7.927-4.4l-1.144-.763a.58.58,0,0,0-.867.286l-1.071,2.972c-2.388,2.139-2.679,8.313-2.16,14.954h15.383C814.469,595.475,814.444,595.29,814.422,595.108Z" transform="translate(-658.107 -457.689)" fill="#2f2e41"/><path d="M370.1,585l-1.636,15.441-.058.551h-4.426c.052-.179.1-.364.16-.551,1.256-4.308,2.967-10.6,2.782-12.263a3.261,3.261,0,0,1,1.735-3.468l.127.025Z" transform="translate(-342.991 -463.023)" fill="#aa81f3"/><circle cx="6.765" cy="6.765" r="6.765" transform="translate(27.484 103.682)" fill="#a0616a"/><path d="M393.793,591.749a11.088,11.088,0,0,0-.835,1.972c-.08.242-.157.5-.229.755-.052.179-.1.364-.146.551H374.741c.025-.182.047-.366.072-.551.912-7.2,1.65-14.513,1.768-15.706l.017-.171a16.19,16.19,0,0,1,18.5,1.735s.011.052.028.154C395.292,581.519,396.162,587.534,393.793,591.749Z" transform="translate(-350.787 -457.056)" fill="#aa81f3"/><path d="M437.751,604.223l-1.19-2.551.289-10.114,3.063-.567.107-.019a8.111,8.111,0,0,1,3.476,4.055c.6,1.487,1.727,5.961,2.683,9.952.044.185.088.369.132.551H438.36l-.256-.551Z" transform="translate(-395.579 -467.559)" fill="#aa81f3"/><path d="M369.164,478.822H330.046a3.169,3.169,0,0,0-3.165,3.165v39.118a3.169,3.169,0,0,0,3.165,3.165h39.118a3.167,3.167,0,0,0,3.165-3.165V481.987A3.167,3.167,0,0,0,369.164,478.822Zm2.614,42.283a2.616,2.616,0,0,1-2.614,2.614H330.046a2.618,2.618,0,0,1-2.614-2.614V481.987a2.618,2.618,0,0,1,2.614-2.614h39.118a2.616,2.616,0,0,1,2.614,2.614Zm-30.194,2.614-.058.551h16.381c.047-.187.094-.372.146-.551Z" transform="translate(-316.11 -386.3)" fill="#3f3d56"/><path d="M559.774,478.822H520.656a3.169,3.169,0,0,0-3.165,3.165v39.118a3.169,3.169,0,0,0,3.165,3.165h39.118a3.167,3.167,0,0,0,3.165-3.165V481.987A3.167,3.167,0,0,0,559.774,478.822Zm2.614,42.283a2.616,2.616,0,0,1-2.614,2.614H520.656a2.618,2.618,0,0,1-2.614-2.614V481.987a2.618,2.618,0,0,1,2.614-2.614h39.118a2.616,2.616,0,0,1,2.614,2.614Zm-34.507,2.614q.05.178.107.355l-.069.2H541.6c.014-.185.025-.369.039-.551Z" transform="translate(-454.218 -386.3)" fill="#3f3d56"/><path d="M750.394,478.822H711.276a3.167,3.167,0,0,0-3.165,3.165v39.118a3.167,3.167,0,0,0,3.165,3.165h39.118a3.169,3.169,0,0,0,3.165-3.165V481.987a3.169,3.169,0,0,0-3.165-3.165Zm2.614,42.283a2.618,2.618,0,0,1-2.614,2.614H711.276a2.616,2.616,0,0,1-2.614-2.614V481.987a2.616,2.616,0,0,1,2.614-2.614h39.118a2.618,2.618,0,0,1,2.614,2.614Zm-21.187,2.614c-.014.182-.028.366-.041.551h11.869c.022-.182.047-.366.069-.551Z" transform="translate(-592.333 -386.3)" fill="#3f3d56"/><path d="M520.1,690.229H429.2a2.2,2.2,0,1,1,0-4.407h90.9a2.2,2.2,0,1,1,0,4.407Z" transform="translate(-388.649 -536.283)" fill="#ccc"/><path d="M561.639,425.229H521.7a2.2,2.2,0,0,1,0-4.407h39.939a2.2,2.2,0,0,1,0,4.407Z" transform="translate(-455.67 -344.275)" fill="#aa81f3"/><path d="M392.013,524.923a1.337,1.337,0,0,0,1.748.112,11.879,11.879,0,0,0,3.823-4.447,7.186,7.186,0,0,0-.089-6.534,10.224,10.224,0,0,0-4.378-3.593,7.786,7.786,0,0,0-2.114-.815,3.013,3.013,0,0,0-2.19.353,1.892,1.892,0,0,0-.854,1.953,7.12,7.12,0,0,0-3.039-2.04,3.93,3.93,0,0,0-2.321-.168,3.8,3.8,0,0,0-2.3,2.3,4.607,4.607,0,0,0-.348,2.513,3.07,3.07,0,0,0,1.342,2.1,4.143,4.143,0,0,0,3.059.287,25.908,25.908,0,0,1,3.065-.718,3.17,3.17,0,0,1,2.847,1,4.346,4.346,0,0,1,.664,2.09l.523,3.812a4.649,4.649,0,0,0,.416,1.593.918.918,0,0,0,.148.2Z" transform="translate(-354.528 -408.582)" fill="#2f2e41"/></g></g></svg>