<svg xmlns="http://www.w3.org/2000/svg" width="220" height="152" viewBox="0 0 220 152"><g transform="translate(-6224 -232)"><g opacity="0"><rect width="220" height="152" rx="4" transform="translate(6224 232)" fill="#fff"/><path d="M4,1A3,3,0,0,0,1,4V148a3,3,0,0,0,3,3H216a3,3,0,0,0,3-3V4a3,3,0,0,0-3-3H4M4,0H216a4,4,0,0,1,4,4V148a4,4,0,0,1-4,4H4a4,4,0,0,1-4-4V4A4,4,0,0,1,4,0Z" transform="translate(6224 232)" fill="#ff8787"/></g><path d="M50.6-31.3C63.2-7.4,69.4,18.1,59.9,34.4,50.4,50.6,25.2,57.6-1.2,58.3c-26.4.8-54.1-4.8-66.1-22.5-12-17.8-8.4-47.6,5.4-72.2S-24-80.4-2.5-78.9C19-77.5,38-55.2,50.6-31.3Z" transform="translate(6362.566 318.304)" fill="#fff4f4"/><g transform="translate(6225 232.044)"><rect width="163.88" height="80.139" transform="translate(28.892 67.977)" fill="#e6e6e6"/><rect width="155.226" height="66.862" transform="translate(32.716 74.849)" fill="#fff"/><rect width="4.123" height="4.123" transform="translate(158.495 88.611)" fill="#e6e6e6"/><rect width="4.123" height="4.123" transform="translate(51.027 88.611)" fill="#f50057"/><rect width="13.744" height="13.744" transform="translate(50.856 99.985)" fill="#e6e6e6"/><rect width="163.88" height="7.175" transform="translate(28.82 65.182)" fill="#f50057"/><circle cx="1.33" cy="1.33" r="1.33" transform="translate(32.821 68.991)" fill="#fff"/><circle cx="1.33" cy="1.33" r="1.33" transform="translate(37.869 68.991)" fill="#fff"/><circle cx="1.33" cy="1.33" r="1.33" transform="translate(41.944 68.991)" fill="#fff"/><rect width="218.47" height="0.48" transform="translate(0 148.116)" fill="#e6e6e6"/><rect width="33.673" height="1.933" transform="translate(77.986 101.527)" fill="#e6e6e6"/><rect width="51.998" height="1.933" transform="translate(77.76 108.418)" fill="#f50057"/><rect width="42.377" height="1.933" transform="translate(77.884 114.91)" fill="#e6e6e6"/><rect width="24.739" height="1.933" transform="translate(78.08 120.791)" fill="#e6e6e6"/><rect width="37.338" height="1.933" transform="translate(77.944 127.408)" fill="#e6e6e6"/><rect width="4.123" height="4.123" transform="translate(165.435 88.611)" fill="#e6e6e6"/><rect width="4.123" height="4.123" transform="translate(172.374 88.611)" fill="#e6e6e6"/><circle cx="8.373" cy="8.373" r="8.373" transform="translate(159.809 106.628)" fill="#f50057" opacity="0.997" style="isolation:isolate"/><circle cx="9.427" cy="9.427" r="9.427" transform="translate(34.941 3.819)" fill="#2f2e41"/><path d="M205.964,474.186h-4.129l-1.964-15.921h6.092Z" transform="translate(-184.18 -382.232)" fill="#feb8b8"/><path d="M179.906,519.677h7.96v5.012H174.894A5.012,5.012,0,0,1,179.906,519.677Z" transform="translate(-165.198 -429.1)" fill="#2f2e41"/><path d="M185.942,461.125,182,459.889l2.893-15.779,5.812,1.824Z" transform="translate(-170.601 -371.405)" fill="#feb8b8"/><path d="M151.855,500.75l7.6,2.384-1.5,4.782-12.377-3.884a5.012,5.012,0,0,1,6.283-3.281h0Z" transform="translate(-142.914 -414.467)" fill="#2f2e41"/><path d="M189.605,383.14a1.5,1.5,0,0,1-.528-.1l-3.038-1.139a1.52,1.52,0,0,1-.947-1.745c.765-3.438,3.37-15.141,4.8-21.418,1.692-7.446,26.376-8.829,27.426-8.884l.086,0,2.777,3.488c1,3.225.685,5.741-.945,7.477-4.758,5.066-18.964,1.922-20.658,1.525l-7.55,19.822a1.519,1.519,0,0,1-1.419.975Z" transform="translate(-172.922 -299.382)" fill="#2f2e41"/><path d="M207.842,392.959a1.5,1.5,0,0,1-.528-.1l-3.037-1.139a1.52,1.52,0,0,1-.947-1.745c.765-3.438,3.37-15.141,4.8-21.418,1.692-7.446,26.376-8.829,27.426-8.884l.086,0,2.776,3.489c1,3.225.685,5.741-.945,7.477-4.758,5.065-18.964,1.922-20.658,1.525l-7.551,19.821a1.519,1.519,0,0,1-1.419.976Z" transform="translate(-186.782 -306.911)" fill="#2f2e41"/><path d="M165.536,291.908a3.55,3.55,0,0,1,.3.472l16.605,1.749,2.391-3.277,5.417,2.961-4.695,7.953-20.365-5.193a3.534,3.534,0,1,1,.349-4.665Z" transform="translate(-153.261 -253.704)" fill="#feb8b8"/><path d="M289.983,275.739a1.516,1.516,0,0,1-.69-.168c-3.32-1.688-9.786-4.612-15.782-5.224a1.479,1.479,0,0,1-1.042-.589,1.521,1.521,0,0,1-.281-1.182,92.829,92.829,0,0,0,1.622-16.733,8.281,8.281,0,0,1,6.256-8.238h0a26.889,26.889,0,0,1,3.337-.658,8.348,8.348,0,0,1,9.279,9.684c-1.069,6.334-2.147,15.181-1.21,21.357a1.517,1.517,0,0,1-.612,1.464,1.491,1.491,0,0,1-.876.288Z" transform="translate(-239.286 -217.348)" fill="#ccc"/><path d="M261.812,268.092a1.516,1.516,0,0,1-.6-.126l-4.326-1.872a1.517,1.517,0,0,1-.789-1.992l3.344-7.724a3.872,3.872,0,0,1,7.128,3.025l-.022.051-3.344,7.724A1.519,1.519,0,0,1,261.812,268.092Z" transform="translate(-226.814 -225.775)" fill="#ccc"/><circle cx="8.269" cy="8.269" r="8.269" transform="translate(35.745 7.184)" fill="#feb8b8"/><path d="M286.484,162.753a29.826,29.826,0,0,0,12.9,4.252l-1.36-1.63a9.994,9.994,0,0,0,3.088.613,3.381,3.381,0,0,0,2.756-1.29,3.144,3.144,0,0,0,.211-2.9,5.957,5.957,0,0,0-1.874-2.343,11.157,11.157,0,0,0-10.385-1.856,6.668,6.668,0,0,0-3.1,1.99c-.784.967-2.293,1.829-1.892,3.007Z" transform="translate(-250.89 -151.364)" fill="#2f2e41"/><path d="M324.634,137.806a16.063,16.063,0,0,1,5.844-3.78,8.222,8.222,0,0,1,4.427-.549,4.219,4.219,0,0,1,3.286,2.768,5.231,5.231,0,0,1-.534,3.577c-.523,1.116-1.221,2.15-1.644,3.307a7.547,7.547,0,0,0,7.594,10.121,37.66,37.66,0,0,0-4.207,1.239,4.408,4.408,0,0,1-4.146-.678c-1.115-1.075-1.138-2.823-1.084-4.371l.24-6.9a8.771,8.771,0,0,0-.348-3.481,2.988,2.988,0,0,0-2.6-2.045,4.271,4.271,0,0,0-2.392,1.078,4.888,4.888,0,0,1-2.356,1.178c-.886.079-1.9-.576-1.832-1.464" transform="translate(-280.112 -133.382)" fill="#2f2e41"/><path d="M251.919,314.176a3.7,3.7,0,1,1,1.428-7.126h0a3.562,3.562,0,0,1,.441.224l15.064-6.762.423-4.085,6.493-.174-.043,6.8a3.663,3.663,0,0,1-2.647,3.483l-17.615,5.013a3.48,3.48,0,0,1-.12.343,3.719,3.719,0,0,1-3.423,2.283Z" transform="translate(-220.922 -258.15)" fill="#feb8b8"/><path d="M337.189,267.457a1.513,1.513,0,0,1-.593.16l-4.7.289a1.517,1.517,0,0,1-1.605-1.419l-.516-8.4a3.872,3.872,0,1,1,7.729-.476l.517,8.4a1.519,1.519,0,0,1-.826,1.445Z" transform="translate(-283.982 -225.743)" fill="#ccc"/><rect width="28.954" height="2.357" rx="1.178" transform="translate(16.296 54.248)" fill="#3f3d56"/><path d="M157.4,306.182v-16.5a2.191,2.191,0,0,1,2.188-2.188h29.965a2.191,2.191,0,0,1,2.188,2.188v16.5a2.191,2.191,0,0,1-2.188,2.188H159.593A2.191,2.191,0,0,1,157.4,306.182Z" transform="translate(-151.907 -251.464)" fill="#3f3d56"/><circle cx="2.02" cy="2.02" r="2.02" transform="translate(21.009 44.366)" fill="#fff"/></g></g></svg>