<svg xmlns="http://www.w3.org/2000/svg" width="220" height="152" viewBox="0 0 220 152"><g transform="translate(-5934 -1129)"><g opacity="0"><rect width="220" height="152" rx="4" transform="translate(5934 1129)" fill="#fff"/><path d="M4,1A3,3,0,0,0,1,4V148a3,3,0,0,0,3,3H216a3,3,0,0,0,3-3V4a3,3,0,0,0-3-3H4M4,0H216a4,4,0,0,1,4,4V148a4,4,0,0,1-4,4H4a4,4,0,0,1-4-4V4A4,4,0,0,1,4,0Z" transform="translate(5934 1129)" fill="#ff8787"/></g><g transform="translate(5954.308 1134.911)"><path d="M167.457,249.137,146.2,266.731a9.619,9.619,0,1,1-14.805,12.253l-19.059,15.774,30.551,36.765L198.008,285.9Z" transform="translate(-109.084 -214.721)" fill="#f2f2f2"/><path d="M837.608,320.526c0,21.73-12.944,29.318-28.912,29.318s-28.912-7.587-28.912-29.318S808.7,271.151,808.7,271.151,837.608,298.8,837.608,320.526Z" transform="translate(-658.223 -232.841)" fill="#f2f2f2"/><path d="M789.014,293.519l.3-18.186,12.323-22.5L789.357,272.48l.133-8.177,8.493-16.278-8.458,14.114h0l.239-14.707,9.095-12.959L789.8,245.119l.15-26.968-.94,35.7.077-1.473-9.246-14.125,9.1,16.952-.862,16.425-.026-.436-10.66-14.864,10.627,16.4-.108,2.054-.019.031.009.169-2.186,41.673h2.921l.35-21.525,10.6-16.364Z" transform="translate(-639.595 -179.841)" fill="#3f3d56"/><ellipse cx="40.192" cy="2.956" rx="40.192" ry="2.956" transform="translate(85.461 134.267)" fill="#3f3d56"/><rect width="6.769" height="137.644" transform="translate(122.692 0)" fill="#3f3d56"/><path d="M959.382,760.09c0,3.975-2.368,5.363-5.288,5.363l-.2,0q-.2,0-.4-.018c-2.636-.186-4.684-1.645-4.684-5.342,0-3.826,4.9-8.653,5.266-9.01h0l.021-.02S959.382,756.116,959.382,760.09Z" transform="translate(-797.285 -627.853)" fill="#00bfa6"/><path d="M967.687,764.845l1.934-2.7-1.939,2.993-.005.31c-.135,0-.269-.009-.4-.018l.208-3.977,0-.031,0-.006.02-.376-1.944-3,1.95,2.719,0,.08.157-3-1.664-3.1,1.684,2.573.164-6.229v0l-.027,4.912,1.657-1.947-1.663,2.37-.044,2.69,1.547-2.582-1.553,2.978-.025,1.5L970,757.4l-2.254,4.115Z" transform="translate(-811.071 -627.853)" fill="#3f3d56"/><path d="M736.544,781.388l-1.131-.839s-.749,4.174.087,4.8,3.969,1.668,3.969,2.919,7.1,2.919,7.311,1.042a4.128,4.128,0,0,0-.627-2.919s-3.342-3.336-3.76-3.961-1.462-1.876-1.462-1.876Z" transform="translate(-621.464 -652.126)" fill="#2f2e41"/><path d="M752.359,481.183s-.031.183-.086.519c-.05.3-.119.719-.2,1.238-.877,5.343-3.436,21.072-3.263,21.591.209.625,1.671,2.919,0,3.544a1.294,1.294,0,0,0-.52.565,12.105,12.105,0,0,0-.884,2.081,91.27,91.27,0,0,0-2.678,10.7c-.27,1.405-.453,2.535-.508,3.127a1.7,1.7,0,0,0-.006.413c.209.834-1.253,3.752-1.88,4.586s-1.671,1.668-1.462,2.5-5.222,3.127-5.849,1.668a26.555,26.555,0,0,1-.836-2.71c-.209-.417-.418-3.336.627-3.752s.418-7.713,1.462-9.173a20.011,20.011,0,0,0,1.439-4.109c.219-.775.441-1.6.658-2.429.882-3.392,1.663-6.8,1.663-6.8l-.209-24.391,11.489-1.459.294.648.587,1.286Z" transform="translate(-620.568 -403.831)" fill="#2f2e41"/><path d="M830.374,714.669s1.671-1.668,2.507,0,1.671,8.13,3.133,9.59,3.342,8.756,1.253,9.173-4.387-.625-4.6-1.876-4.6-7.713-4.6-8.339S831,720.3,831,720.3Z" transform="translate(-697.956 -597.29)" fill="#2f2e41"/><path d="M696.088,424.374s2.716,24.391,3.342,26.684,3.969,11.049,5.013,12.508,7.729,13.342,8.565,13.967,2.507,2.293,2.507,2.293,3.133,3.127,3.551,3.752,3.969-1.251,4.178-2.5a12.83,12.83,0,0,0-.418-4.169c-.209-.834.418-2.085-.209-2.71s-3.76-3.752-3.76-5.212-5.431-10.007-7.52-11.883-1.671-5-1.671-5V439.384l11.489-3.544s-.627-10.007-2.089-10.007S698.386,422.5,696.088,424.374Z" transform="translate(-589.364 -358.487)" fill="#2f2e41"/><ellipse cx="6.893" cy="6.879" rx="6.893" ry="6.879" transform="translate(116.751 17.314)" fill="#9f616a"/><path d="M769,205.47s-.836,3.127-1.88,3.961,2.716,4.378,2.716,4.378l7.1.417,1.253-3.961s-2.3-4.586-1.671-7.5S769,205.47,769,205.47Z" transform="translate(-647.657 -175.857)" fill="#9f616a"/><path d="M710.539,242.02s1.88.208,2.3.834,3.342,2.5,5.64,2.085,3.76-1.042,4.178-.834,1.253,4.586,1.253,4.586l-2.3,6.671.418,18.345.627,5s1.253-1.668-3.76-.625-11.489-.834-13.578-1.042-5.64-.834-5.849-2.085.627-5.837.627-5.837l3.342-13.967,2.089-7.5Z" transform="translate(-592.117 -208.862)" fill="#3f3d56"/><path d="M693.312,234.619s-1.767-.935-2.394-.1-8.565,2.085-8.565,2.71-1.671,17.511-1.253,18.971-.836,3.127-.836,3.127l-1.462,6.254s-3.969,11.883-2.3,12.3a10.9,10.9,0,0,0,3.76,0c.627,0,.418-7.922,2.089-10.007s3.969-7.3,4.387-8.339,5.64-15.427,5.431-17.094S693.312,234.619,693.312,234.619Z" transform="translate(-572.914 -202.402)" fill="#d0cde1"/><path d="M801.44,242.02s1.671,0,1.88.417a22.828,22.828,0,0,0,3.133,3.752c.836.625,3.76,3.335,3.76,3.961s-6.058,5.212-6.058,5.212-2.507,12.3-1.253,16.469,3.133,14.176,2.3,14.8-2.716.834-2.716,0-1.253-9.8-2.3-11.674-4.178-13.759-2.924-17.094S801.44,242.02,801.44,242.02Z" transform="translate(-672.364 -208.862)" fill="#d0cde1"/><path d="M666.6,358.687s-.209,6.463,2.089,9.8a39.589,39.589,0,0,1,3.76,7.088s3.76-1.042,4.387-2.293,4.6-.209,4.6-.625-4.8-2.5-5.222-2.919-1.88-.417-2.716-1.251a5.511,5.511,0,0,1-1.044-2.71l-.836-5.42Z" transform="translate(-565.101 -304.892)" fill="#9f616a"/><path d="M752.984,137.433a3.98,3.98,0,0,1-1.546-.353,2.063,2.063,0,0,1-.529-3.059,3.958,3.958,0,0,1,.734-.589l1.588-1.079a7.772,7.772,0,0,1,2.24-1.187,7.007,7.007,0,0,1,2.29-.135,15.5,15.5,0,0,1,4.387.8,7.341,7.341,0,0,1,3.554,2.6,7.784,7.784,0,0,1,.622,6.8,23.055,23.055,0,0,1-3.533,6.1l-.719-3.5a1.291,1.291,0,0,0-.407-.838c-.646-.459-1.436.483-2.229.477a1.335,1.335,0,0,1-1.13-.893,5.078,5.078,0,0,1-.25-1.5c-.095-1.073-.47-2.565-1.488-3.157C755.62,137.367,754.05,137.53,752.984,137.433Z" transform="translate(-634.087 -117.482)" fill="#2f2e41"/><path d="M766.94,492.507s.706,20.366,1.123,20.991,0-21.055,0-21.055Z" transform="translate(-647.657 -414.986)" opacity="0.1"/><path d="M668.9,251.447h-1.671s-7.1,9.59-6.267,10.215,0,2.293,0,2.293l-1.671,3.127s-2.089,1.876-1.462,2.293a7.617,7.617,0,0,1,1.462,2.085s4.178-.625,5.431,1.876l2.709-3.413Z" transform="translate(-557.793 -216.622)" fill="#d0cde1"/><path d="M707.869,299.727a18.428,18.428,0,0,1-9.818-3.127l-5.222-2.293s-4.6-7.088-5.013-5.837.627,3.752.627,3.752-6.3,2.911-6.466,3.3,3.542-.585,3.542-.585-.627,3.961,2.924,4.169,4.6-.625,4.6-.625,15.04,12.508,17.547,8.547S707.869,299.727,707.869,299.727Z" transform="translate(-577.748 -246.973)" fill="#9f616a"/><path d="M828.535,283.266l2.3.834v6.254l.836,1.251s-.209,2.5-.836,3.127-1.88.417-1.462,1.876a7.886,7.886,0,0,1,.209,2.919s-3.76,4.795-3.969,4.169-3.133-8.339-3.551-8.339,4.178-12.091,4.178-12.091Z" transform="translate(-692.983 -242.812)" fill="#d0cde1"/><path d="M697.332,444.929s-2.16-2.085-1.08-2.189,4.84-2.189,5.467-1.147S697.332,444.929,697.332,444.929Z" transform="translate(-589.25 -372.892)" fill="#2f2e41"/><path d="M169.107,524.03a40.415,40.415,0,1,0-69.384,0Z" transform="translate(-94 -390.752)" fill="#3f3d56"/><ellipse cx="3.808" cy="3.8" rx="3.808" ry="3.8" transform="translate(36.384 106.4)" fill="#00bfa6"/><ellipse cx="1.692" cy="2.111" rx="1.692" ry="2.111" transform="translate(7.615 114)" fill="#00bfa6"/><ellipse cx="1.95" cy="1.946" rx="1.95" ry="1.946" transform="translate(8.589 97.497)" fill="#00bfa6"/><ellipse cx="1.95" cy="1.946" rx="1.95" ry="1.946" transform="translate(18.268 83.638)" fill="#00bfa6"/><ellipse cx="1.95" cy="1.946" rx="1.95" ry="1.946" transform="translate(33.716 76.734)" fill="#00bfa6"/><ellipse cx="1.95" cy="1.946" rx="1.95" ry="1.946" transform="translate(50.521 78.756)" fill="#00bfa6"/><ellipse cx="1.95" cy="1.946" rx="1.95" ry="1.946" transform="translate(63.882 89.127)" fill="#00bfa6"/><ellipse cx="1.95" cy="1.946" rx="1.95" ry="1.946" transform="translate(69.982 104.884)" fill="#00bfa6"/><ellipse cx="1.95" cy="1.946" rx="1.95" ry="1.946" transform="translate(67.079 121.527)" fill="#00bfa6"/><path d="M1.2,16.8l-2.4-3.2L19.109-1.6l2.4,3.2Z" transform="translate(40.615 94.578)" fill="#00bfa6"/><path d="M2.616-1A3.61,3.61,0,1,1-1,2.61,3.617,3.617,0,0,1,2.616-1Zm0,5.22A1.61,1.61,0,1,0,1,2.61,1.615,1.615,0,0,0,2.616,4.22Z" transform="translate(56.33 32.198)" fill="#3f3d56"/><ellipse cx="2.616" cy="2.61" rx="2.616" ry="2.61" transform="translate(71.22 62.624)" fill="#3f3d56"/><ellipse cx="7.583" cy="7.567" rx="7.583" ry="7.567" transform="translate(22.236 50.735)" fill="#f2f2f2"/></g></g></svg>