<svg xmlns="http://www.w3.org/2000/svg" width="220" height="152" viewBox="0 0 220 152"><g transform="translate(-6210 -1129)"><g opacity="0"><rect width="220" height="152" rx="4" transform="translate(6210 1129)" fill="#fff"/><path d="M4,1A3,3,0,0,0,1,4V148a3,3,0,0,0,3,3H216a3,3,0,0,0,3-3V4a3,3,0,0,0-3-3H4M4,0H216a4,4,0,0,1,4,4V148a4,4,0,0,1-4,4H4a4,4,0,0,1-4-4V4A4,4,0,0,1,4,0Z" transform="translate(6210 1129)" fill="#ff8787"/></g><g transform="translate(6221.846 1143.356)"><path d="M196.915,0V124.133h-15.3a188.315,188.315,0,0,0-46.021-13.4c-28.7-4.551-55.735-2.319-78,2.08a257.992,257.992,0,0,0-39.988,11.319H0V0Z" fill="#5abd4a" opacity="0.337"/><path d="M427.438,458.14q0,1.5-.113,2.977c-28.7-4.551-55.735-2.319-78,2.08a39.215,39.215,0,1,1,78.113-5.057Z" transform="translate(-291.73 -350.383)" fill="#3f3d56"/><path d="M951.423,705.871l.675,2.693-2.968.808-.27-2.827Z" transform="translate(-793.156 -590.274)" fill="#fbbebe"/><path d="M880.842,723.675v2.558l-2.968.539-.54-1.346,1.079-2.289Z" transform="translate(-733.367 -604.712)" fill="#fbbebe"/><path d="M873.72,556.243l-.4,3.635.27,7a.4.4,0,0,1,.4.4c0,.4-.4.269,0,.539a7.005,7.005,0,0,0,.674.4l4.317,13.06a3.216,3.216,0,0,1-3.1.943l-.4-1.346s-.809-.808-.809-1.212.27-.539,0-.943-4.317-8.617-4.317-8.617l-1.889-3.366-.54,4.578s1.079,5.789.809,8.482-.809,5.52-.809,5.52l-3.238-.539a2.246,2.246,0,0,0-.4-1.212c-.4-.538-.944-.4-.4-.808s1.214,0,.674-.539a1.667,1.667,0,0,1-.54-1.077v-.4L863.2,570.38l-1.484-13.6Z" transform="translate(-720.31 -465.15)" fill="#2f2e41"/><ellipse cx="3.643" cy="3.635" rx="3.643" ry="3.635" transform="translate(140.594 59.319)" fill="#fbbebe"/><path d="M876.994,384.828l1.484,3.635-3.508,2.558-2.159-3.77Z" transform="translate(-729.587 -321.807)" fill="#fbbebe"/><path d="M866.345,398.244l1.349-.673.809,1.885s5.261,1.616,4.857,9.021-1.349,10.232-1.349,10.232,2.293,4.847.944,5.385-12.816,2.558-13.086.673.944-12.925.944-12.925-.4-7.944,2.968-9.559l-.675-1.481Z" transform="translate(-718.736 -332.463)" fill="#d0cde1"/><path d="M844.706,561.176s-3.1,3.231-1.349,4.039,2.833-3.635,2.833-3.635Z" transform="translate(-704.517 -469.275)" fill="#fbbebe"/><path d="M857.294,725.56l1.484-.539s1.619,3.635.27,3.635H855.54a13.822,13.822,0,0,0-3.1-.673c-1.079,0-3.1-2.02-1.619-2.962a5.579,5.579,0,0,1,3.373-.673l.54-1.212.674,1.885S856.215,726.368,857.294,725.56Z" transform="translate(-710.764 -604.712)" fill="#2f2e41"/><path d="M941.295,715.723s.845-.532,1.3-.333.724,2.353.724,2.353,1.349,1.616-1.619,1.885-3.643-.269-3.912-1.077a2.069,2.069,0,0,1,.27-1.616l.809-.269s.944-.673.675-.942,0-.808,0-.808S940.485,716.8,941.295,715.723Z" transform="translate(-783.837 -597.837)" fill="#2f2e41"/><path d="M860.673,356.414a1.792,1.792,0,0,0-.079-.346c-.2-.41-.96-.29-1.1-.724-.027-.085-.021-.177-.047-.262a.533.533,0,0,0-.549-.314,2.967,2.967,0,0,0-.658.169,4.371,4.371,0,0,1-1.653.035,1.666,1.666,0,0,1-.706-.183.567.567,0,0,1-.283-.619c.073-.223.318-.346.428-.553.175-.329-.039-.755.1-1.1.227-.553,1.087-.442,1.525-.851.106-.1.182-.226.284-.33a1.473,1.473,0,0,1,1.207-.325,11.16,11.16,0,0,0,1.282.161,2.983,2.983,0,0,1,1.215.027,1.731,1.731,0,0,1,.571.468l.967,1.058a1.19,1.19,0,0,1,.3.449,3.943,3.943,0,0,1,.029.63c.057.478.5.838.565,1.315a1.705,1.705,0,0,1-.021.443l-.135,1a.742.742,0,0,1-.076.279c-.039.067-.1.12-.143.184a2.089,2.089,0,0,0-.176.63c-.062.211-.285.419-.48.318-.127-.066-.212-.614-.366-.756-.215-.2-.328-.174-.594-.17C861.552,357.051,860.844,357.1,860.673,356.414Z" transform="translate(-715.191 -293.519)" fill="#2f2e41"/><path d="M856.814,432.075s4.047,1.616,2.833,5.251-4.452,14.81-4.452,14.81l-1.889.942-.54,1.481-2.563-.942.4-2.02s.135-.135.135-.673-.54-.673.135-.673a.66.66,0,0,0,.675-.673l2.428-15.079A2.461,2.461,0,0,1,856.814,432.075Z" transform="translate(-710.689 -361.312)" fill="#d0cde1"/><path d="M878.748,468.686l-4.182,14.271-1.754,1.75,1.012-1.818Z" transform="translate(-729.587 -391.932)" opacity="0.1"/><path d="M236.333,437.36a1.285,1.285,0,0,1,1.261-.983c.854.009,1.886.22,1.654,1.226-.385,1.664-3.143,8.9-3.143,8.9l6.735.832s5.26-.768,3.592,1.024a3.421,3.421,0,0,1-3.849.768s-8.66.232-8.66-1.216a9.033,9.033,0,0,1,.347-2.036Z" transform="translate(-195.538 -364.914)" fill="#a0616a"/><ellipse cx="3.336" cy="3.329" rx="3.336" ry="3.329" transform="translate(42.555 63.599)" fill="#a0616a"/><path d="M262.71,417.2s.257,2.561-.641,3.585h4.875s-1.155-1.024-.257-3.073S262.71,417.2,262.71,417.2Z" transform="translate(-219.064 -348.411)" fill="#a0616a"/><path d="M245.649,443.194c.091.4.182.752.272,1.059h0a6.137,6.137,0,0,0,.838,1.959.758.758,0,0,0,.173.182l7.826-2.177s-.257-2.689-.9-3.329-.385-4.1-.385-4.1l-2.053-.64s-1.905-.064-3.214-.055c-.411,0-.762.01-.978.031a1.276,1.276,0,0,0-.171.024C246.547,436.28,245.007,440.377,245.649,443.194Z" transform="translate(-205.21 -364.679)" fill="#a0616a"/><path d="M267.932,445.065s1.732-7.874,2.373-8.13c.607-.242,1.8.384,1.8.384s-2.142-1.216-3.22,7.746Z" transform="translate(-223.966 -365.334)" fill="#2f2e41"/><path d="M248.09,444.257h0a6.137,6.137,0,0,0,.838,1.959c.449-2.554,1.375-8.023,1.45-10.116-.411,0-.762.01-.978.031C249.315,437.72,248.649,440.46,248.09,444.257Z" transform="translate(-207.379 -364.684)" fill="#2f2e41"/><path d="M238.51,476.31s-1.09,1.6-1.989,1.472-5.93.421-6.172,1.3l1.425,4.975v1.792s-1.823,1.405-2.006,5.279a13.135,13.135,0,0,0,.636,4.627l.6,1.873s-7.377,18.757-3.528,19.653,7.762,2.5,7.89.064.9-18.949.9-18.949-.77,18.565,2.181,18.949,8.6,3.073,8.852-.128-6.543-29.576-6.543-29.576.128-3.969-2.053-5.505l-.513-2.049S239.665,477.078,238.51,476.31Z" transform="translate(-189.219 -398.308)" fill="#2f2e41"/><path d="M295.241,457.547l.706,3.649v.425l-1.1-3.434Z" transform="translate(-246.464 -382.617)" fill="#2f2e41"/><path d="M242.145,711.512s-.306,3.388.679,3.7,5.8.238,4.3,2c-1.091,1.283-9.671.429-9.3-.082.682-.939,2.062-6.244,2.062-6.244Z" transform="translate(-198.791 -594.47)" fill="#2f2e41"/><path d="M308.614,713.075s-.306,3.388.679,3.7,5.549.053,4.3,2c-.594.928-9.213-.005-9.3-.082-.873-.765,2.062-6.244,2.062-6.244Z" transform="translate(-254.226 -595.777)" fill="#2f2e41"/><path d="M272.812,439.705a1.285,1.285,0,0,1,1.261-.983c.854.009,1.886.22,1.654,1.226-.385,1.664-2.181,9.474-2.181,9.474l5.773.256s5.26-.768,3.592,1.024a3.421,3.421,0,0,1-3.849.768s-6.35.96-7.377-.064l-.031-.03a3.335,3.335,0,0,1-.9-3.158Z" transform="translate(-226.244 -366.875)" fill="#a0616a"/><path d="M249.612,376.357h0c2.131,0,3.858,2.389,3.858,5.337v3.745h-.924l-.535-1.387.134,1.387h-5.939l-.486-1.261.122,1.261h-.669V382.5C245.172,379.107,247.16,376.357,249.612,376.357Z" transform="translate(-204.941 -314.724)" fill="#2f2e41"/><path d="M254.291,376.24a2.528,2.528,0,0,1,1.994-1.015h.095a3.506,3.506,0,0,1,3.3,3.679h-.611l-.1-.75-.145.75H255.2l-.3-.634.076.634h-.713a5.949,5.949,0,0,0,1.434,4.948h-1.215l-.607-1.269.152,1.269H251.71l-.456-2.918A4.931,4.931,0,0,1,254.291,376.24Z" transform="translate(-210.025 -313.776)" fill="#2f2e41"/><path d="M981.388,333.151l-4.313-3.532,3.539-4.3,4.313,3.532Zm-3.852-3.577,3.806,3.116,3.122-3.8-3.806-3.116Z" transform="translate(-816.74 -272.039)" fill="#3f3d56"/><path d="M87.388,455.151l-4.313-3.532,3.539-4.3,4.313,3.532Zm-3.852-3.577,3.806,3.116,3.122-3.8-3.806-3.116Z" transform="translate(-69.442 -374.06)" fill="#3f3d56"/><rect width="164.916" height="0.328" transform="translate(15.999 10.481)" fill="#3f3d56"/><path d="M179.865,288.065a1.965,1.965,0,1,1,1.969-1.965A1.967,1.967,0,0,1,179.865,288.065Zm0-3.6a1.638,1.638,0,1,0,1.641,1.638A1.639,1.639,0,0,0,179.865,284.462Z" transform="translate(-148.704 -237.603)" fill="#3f3d56"/><path d="M1083.9,140.1a1.969,1.969,0,1,1,1.969,1.965A1.967,1.967,0,0,1,1083.9,140.1Zm.328,0a1.641,1.641,0,1,0,1.641-1.638A1.639,1.639,0,0,0,1084.224,140.1Z" transform="translate(-906.033 -115.513)" fill="#3f3d56"/><path d="M1014.865,532.065a1.965,1.965,0,1,1,1.969-1.965A1.967,1.967,0,0,1,1014.865,532.065Zm0-3.6a1.638,1.638,0,1,0,1.641,1.638A1.639,1.639,0,0,0,1014.865,528.462Z" transform="translate(-846.684 -441.645)" fill="#3f3d56"/><path d="M135.266,151.258H131V147h4.266Zm-3.938-.328h3.61v-3.6h-3.61Z" transform="translate(-109.503 -122.927)" fill="#3f3d56"/><rect width="0.328" height="58.57" transform="translate(182.499 65.402)" fill="#3f3d56"/><ellipse cx="6.4" cy="14.575" rx="6.4" ry="14.575" transform="translate(176.326 89.803)" fill="#3f3d56"/><ellipse cx="6.4" cy="14.575" rx="6.4" ry="14.575" transform="translate(176.326 56.559)" fill="#3f3d56"/><path d="M1060.193,285.319l-.314-.094c.02-.066,1.949-6.665-1.219-10.912-1.789-2.4-4.86-3.616-9.126-3.616v-.328c4.376,0,7.536,1.261,9.39,3.749C1062.19,278.5,1060.213,285.251,1060.193,285.319Z" transform="translate(-877.309 -226.093)" fill="#3f3d56"/><ellipse cx="4.102" cy="4.094" rx="4.102" ry="4.094" transform="translate(168.122 40.347)" fill="#d0cde1"/></g></g></svg>