<svg xmlns="http://www.w3.org/2000/svg" xmlns:xlink="http://www.w3.org/1999/xlink" width="220" height="152" viewBox="0 0 220 152"><defs><clipPath id="a"><rect width="220" height="152" fill="none"/></clipPath><clipPath id="d"><rect width="180.049" height="134.677" transform="translate(22.424 7.423)" fill="none"/></clipPath><clipPath id="f"><rect width="0.475" height="0.953" transform="translate(172.571 102.576)" fill="none"/></clipPath><clipPath id="h"><rect width="0.629" height="0.603" transform="translate(172.284 103.25)" fill="none"/></clipPath><clipPath id="i"><rect width="82.361" height="82.293" transform="translate(90.284 52.792)" fill="none"/></clipPath><clipPath id="j"><rect width="54.097" height="72.745" transform="translate(121.918 30.299)" fill="none"/></clipPath><clipPath id="k"><rect width="54.771" height="54.716" transform="translate(108.985 61.737)" fill="none"/></clipPath><clipPath id="l"><rect width="31.983" height="32.122" transform="translate(106.111 87.358)" fill="none"/></clipPath><clipPath id="m"><rect width="7.678" height="1.054" transform="translate(62.676 120.237)" fill="none"/></clipPath><clipPath id="n"><rect width="7.678" height="1.054" transform="translate(47.97 121.729)" fill="none"/></clipPath><clipPath id="o"><rect width="7.678" height="1.054" transform="translate(30.648 119.711)" fill="none"/></clipPath><clipPath id="p"><rect width="5.458" height="0.75" transform="translate(54.966 126.126)" fill="none"/></clipPath><clipPath id="q"><rect width="5.458" height="0.75" transform="translate(39.703 125.75)" fill="none"/></clipPath><clipPath id="r"><rect width="2.541" height="4.192" transform="translate(33.083 114.831)" fill="none"/></clipPath><clipPath id="s"><rect width="2.543" height="4.192" transform="translate(35.563 114.831)" fill="none"/></clipPath><clipPath id="t"><rect width="5.352" height="1.947" transform="translate(32.397 118.935)" fill="none"/></clipPath><clipPath id="u"><path d="M54.817,73.28l-.04-.037a.34.34,0,0,1,.015-.063l.108.176Zm-4.238-10.5h0l.033-.061.123-.223,1-.814.129.116s-.1,1.085-.364,1.033c-.06-.012-.086.238-.093.628-.47-.4-.829-.679-.829-.679M60.8,51.286l.035-.008a1.572,1.572,0,0,1-.047.166c0-.053.008-.1.012-.158m-2.847-11.56a11.574,11.574,0,0,0-1.354.467c-.654.184-1.458.146-1.87.683-.2.256-.254.6-.439.86-.262.375-.744.549-1.016.92a1.414,1.414,0,0,0-.233.916,2.551,2.551,0,0,0,.093.777,3.954,3.954,0,0,1,.151.663.828.828,0,0,1-.018.111c-.038.166-.121.306-.154.467a.849.849,0,0,0-.008.266A2.237,2.237,0,0,0,53.485,47a3.073,3.073,0,0,1,.261.91,8.471,8.471,0,0,0-1.261.483,3.594,3.594,0,0,0-1.4,1.073,7.107,7.107,0,0,1-1.877,1.811,14.844,14.844,0,0,0-.573,1.7,6.211,6.211,0,0,1-.781,2.325,6.324,6.324,0,0,0-.684,2.261,6.456,6.456,0,0,0-.626,1.214,8.938,8.938,0,0,0,0,1.445.835.835,0,0,0,.181.236l-.047.166a14.962,14.962,0,0,0-.532,2.289,3.6,3.6,0,0,0,.571,1.624,22.609,22.609,0,0,0,2.423,2.48l1.661,1.11a9.049,9.049,0,0,1-1.054.673,3.54,3.54,0,0,0-1.25,1.782s-1.226,2.945,1.25,3.359l.048.008.223.241a16.453,16.453,0,0,0,1.45,1.455,16.164,16.164,0,0,1,1.694,2.428s1.354,2.222,3.156,2.325,1.8-1.963,1.661-2.093a.819.819,0,0,1-.111-.282,11.242,11.242,0,0,0,1.206,1.729A12.74,12.74,0,0,1,60.4,81.579s1.277,2.918,1.485,3.229a11.624,11.624,0,0,1,.573,1.86,11.9,11.9,0,0,0,1.07,2.428,3.091,3.091,0,0,1,.52,1.317s1.068,1.55,1.251,1.807a10.9,10.9,0,0,1,.573,1.163,4.429,4.429,0,0,1,.573,1.292c0,.362,1.2.98,1.2.98A5.5,5.5,0,0,0,69,96.844c.5.181.963,1.369,1.041,1.291a.315.315,0,0,1,.148-.03l.2.2c.791.787,2.37,2.357,2.776,2.721a3.7,3.7,0,0,0,2.84.362,4.233,4.233,0,0,0,1.693-1.081,1.164,1.164,0,0,0,.055-1.644l-.035-.035a6.2,6.2,0,0,0-1.331-1.084,7.8,7.8,0,0,1-2.422-1.86,5.261,5.261,0,0,0-1.4-1.061l-.06-.035a5.192,5.192,0,0,1-.151-.867s.86-1.937.39-2.04S70.5,88.5,70.5,88.5c-.025-2.325-2.159-4.289-2.159-4.289s-1.068-2.531-1.38-3.073a.83.83,0,0,1,0-.93,3.44,3.44,0,0,1-.7-.7c-.1-.233-.6-1.993-.6-1.993a5.654,5.654,0,0,1-.626-1.55c-.027-.49-1.194-1.857-1.194-1.857s-.473-2.3-1-2.716c-.1-.08-.086-.384,0-.821l.025-.027.08-.078.023-.023a8.55,8.55,0,0,0,.674-.749l.01-.013c.033-.042.065-.081.1-.123a11.6,11.6,0,0,0,1.224-3.488s.149-.07.344-.176a3.313,3.313,0,0,0,.751-.517.176.176,0,0,0,.027-.04.028.028,0,0,0,0-.013l.013-.032a.054.054,0,0,0,0-.018.229.229,0,0,0,0-.037v-.078A.167.167,0,0,0,66.1,65.1v-.008a.3.3,0,0,0-.013-.061v-.02a.226.226,0,0,0-.017-.056.081.081,0,0,0,0-.022l-.02-.061a.038.038,0,0,1,0-.015c-.032-.083-.07-.166-.113-.257l-.045-.084a4.587,4.587,0,0,0-.256-.438l-.013-.019a5.929,5.929,0,0,1,.865-1.747c.468-.466-.261-2.945-.261-2.945a13.782,13.782,0,0,0-.365-2.273c-.209-.516,0-.59-.166-1.032-.2-.5-.347-.465-.088-1.6.1-.429.249-.9.385-1.34l.166.153c.963.909,2.477,2.091,2.477,2.091s2.97,2.686,3.231,2.763a13.145,13.145,0,0,1,1.043,2.713s-.183,4.365,2.214,4.546c1.018.076,1.45-.711,1.606-1.639a4.947,4.947,0,0,0-1.174-4.055l-1.435-1.631-1.277-2.272A23.157,23.157,0,0,1,70.8,51.726a11.316,11.316,0,0,0-2.5-3.7l-.1-.1.133-.123a10.971,10.971,0,0,0-.365-1.91,6.614,6.614,0,0,1-.729-1.661c0-.266-.365-.31-.573-.62,0,0-.365-.723-.7-.831a.5.5,0,0,1-.166-.106,3.737,3.737,0,0,0-2.129-.922l-.208-.02a11.426,11.426,0,0,0-1.385.02h-.012a2.517,2.517,0,0,1-.9-.628,7.087,7.087,0,0,0-1.457-1,2.862,2.862,0,0,0-1.479-.412c-.092,0-.183,0-.275.013" fill="none"/></clipPath><clipPath id="w"><rect width="7.93" height="6.9" transform="translate(53.217 47.345)" fill="none"/></clipPath><clipPath id="x"><rect width="8.846" height="8.846" transform="translate(55.152 43.202)" fill="none"/></clipPath><clipPath id="y"><rect width="6.667" height="6.12" transform="translate(70.371 94.646)" fill="none"/></clipPath><clipPath id="z"><rect width="7.828" height="6.723" transform="translate(49.915 73.47)" fill="none"/></clipPath><clipPath id="aa"><rect width="5.46" height="1.425" transform="translate(49.541 73.143)" fill="none"/></clipPath><clipPath id="ab"><rect width="10.157" height="6.806" transform="translate(48.525 67.55)" fill="none"/></clipPath><clipPath id="ac"><rect width="4.509" height="7.937" transform="translate(61.535 64.06)" fill="none"/></clipPath><clipPath id="ad"><rect width="2.908" height="4.066" transform="translate(69.743 94.113)" fill="none"/></clipPath><clipPath id="ae"><rect width="4.118" height="1.88" transform="translate(67.846 92.105)" fill="none"/></clipPath><clipPath id="af"><rect width="1.229" height="1.759" transform="translate(64.573 87.294)" fill="none"/></clipPath><clipPath id="ag"><rect width="1.71" height="0.79" transform="translate(62.615 80.996)" fill="none"/></clipPath><clipPath id="ah"><rect width="0.498" height="1.861" transform="translate(50.253 69.688)" fill="none"/></clipPath><clipPath id="ai"><rect width="2.841" height="5.571" transform="translate(65.294 48.257)" fill="none"/></clipPath><clipPath id="aj"><rect width="10.992" height="5.649" transform="translate(54.63 64.062)" fill="none"/></clipPath><clipPath id="ak"><rect width="8.273" height="6.081" transform="translate(52.706 48.637)" fill="none"/></clipPath><clipPath id="al"><rect width="5.819" height="1.932" transform="translate(53.78 63.838)" fill="none"/></clipPath><clipPath id="am"><rect width="1.997" height="0.568" transform="translate(55.184 66.43)" fill="none"/></clipPath><clipPath id="an"><rect width="1.104" height="9.428" transform="translate(60.982 57.002)" fill="none"/></clipPath><clipPath id="ao"><rect width="11.055" height="9.695" transform="translate(53.233 40.662)" fill="none"/></clipPath><clipPath id="ap"><rect width="4.216" height="2.899" transform="translate(47.05 60.282)" fill="none"/></clipPath><clipPath id="aq"><rect width="4.003" height="4.133" transform="translate(54.443 68.955)" fill="none"/></clipPath><clipPath id="ar"><rect width="11.035" height="6.195" transform="translate(53.254 43.969)" fill="none"/></clipPath><clipPath id="as"><rect width="7.186" height="7.186" transform="translate(17.5 25.942)" fill="none"/></clipPath><clipPath id="at"><rect width="7.186" height="7.186" transform="translate(115.021 10.804)" fill="none"/></clipPath><clipPath id="au"><rect width="7.186" height="7.186" transform="translate(172.019 24.997)" fill="none"/></clipPath><clipPath id="av"><rect width="12.042" height="12.042" transform="translate(22.256 43.335)" fill="none"/></clipPath><clipPath id="aw"><rect width="12.042" height="12.042" transform="translate(95.799 132.534)" fill="none"/></clipPath><clipPath id="ax"><rect width="12.042" height="12.042" transform="translate(176.012 129.063)" fill="none"/></clipPath></defs><g clip-path="url(#a)"><g clip-path="url(#a)"><g opacity="0"><g clip-path="url(#a)"><path d="M4,0H216a4,4,0,0,1,4,4V148a4,4,0,0,1-4,4H4a4,4,0,0,1-4-4V4A4,4,0,0,1,4,0" fill="#fff"/><path d="M216,152H4a4,4,0,0,1-4-4V4A4,4,0,0,1,4,0H216a4,4,0,0,1,4,4V148a4,4,0,0,1-4,4M4,1A3,3,0,0,0,1,4V148a3,3,0,0,0,3,3H216a3,3,0,0,0,3-3V4a3,3,0,0,0-3-3Z" fill="#ff8787"/></g></g><g opacity="0.1" style="isolation:isolate"><g clip-path="url(#d)"><path d="M99.039,12.6C91.717,9.622,83.982,7.138,76.085,7.45a34.135,34.135,0,0,0-28.209,17.7c-4.633,8.687-5.2,18.869-7.2,28.51-2.462,11.88-7.169,23.165-12.2,34.2-2.7,5.93-5.551,11.988-5.993,18.489-.616,9.023,3.7,18.015,10.464,24.018s15.75,9.171,24.768,9.861c4.8.367,9.813.027,14.077-2.207,4.508-2.362,7.8-6.632,12.323-8.961,4.2-2.159,9.1-2.463,13.815-2.181a61.9,61.9,0,0,1,18.035,3.834c6.584,2.473,12.707,6.053,19.276,8.561s13.909,3.9,20.625,1.814c6.3-1.965,11.295-6.737,15.78-11.571a202.472,202.472,0,0,0,20.13-25.461c4.055-6.073,7.828-12.481,9.622-19.56a39.064,39.064,0,0,0-11.753-38.037c-8.664-7.662-20.3-10.984-31.686-13.007-10.385-1.839-22.392-1.953-31.951-6.747-9.119-4.572-17.414-10.214-26.969-14.1" fill="#fdb933"/></g></g></g><path d="M172.571,102.576l.073.674.276.279.125-.48-.132-.473Z" fill="#464a5f"/><g clip-path="url(#a)"><g opacity="0.1" style="isolation:isolate"><g clip-path="url(#f)"><path d="M172.644,103.25l.277.279.125-.48-.133-.473h-.342Z"/></g></g></g><path d="M172.284,103.605l.07.139.289.108.269-.315-.269-.287Z" fill="#9c9ca1"/><g clip-path="url(#a)"><g opacity="0.1" style="isolation:isolate"><g clip-path="url(#h)"><path d="M172.644,103.25l.269.287-.269.316-.289-.108-.071-.14Z"/></g></g><path d="M121.516,52.792,91.139,83.169a2.92,2.92,0,0,0-.008,4.121l46.561,46.932a2.92,2.92,0,0,0,4.123.022l30.83-30.388Z" fill="#9c9ca1"/><g opacity="0.1" style="isolation:isolate"><g clip-path="url(#i)"><path d="M121.516,52.792,91.139,83.169a2.92,2.92,0,0,0-.008,4.121l46.561,46.932a2.92,2.92,0,0,0,4.123.022l30.83-30.388Z"/></g></g><path d="M121.516,52.188,91.139,82.565a2.92,2.92,0,0,0-.008,4.121l46.562,46.931a2.92,2.92,0,0,0,4.123.023l30.83-30.4Z" fill="#9c9ca1"/><path d="M124.705,30.831l-2.787,21.151,51.13,51.062,2.937-21.5a3.108,3.108,0,0,0-.9-2.646L125.748,30.474a.618.618,0,0,0-1.043.362Z" fill="#464a5f"/><g opacity="0.1" style="isolation:isolate"><g clip-path="url(#j)"><path d="M124.705,30.831l-2.787,21.151,51.13,51.062,2.937-21.5a3.108,3.108,0,0,0-.9-2.646L125.748,30.474a.618.618,0,0,0-1.043.362Z"/></g></g><path d="M124.305,31.037l-2.787,21.151,51.13,51.062,2.937-21.5a3.108,3.108,0,0,0-.9-2.646l-49.34-48.429a.618.618,0,0,0-1.043.362Z" fill="#464a5f"/><g opacity="0.1"><g clip-path="url(#k)"><path d="M121.651,61.908,119.8,63.773a.586.586,0,0,0,0,.829h0l1.874,1.922a.588.588,0,0,0,.831.017l1.84-1.737a.586.586,0,0,0,.03-.822l-1.874-2.05a.585.585,0,0,0-.827-.048A.272.272,0,0,0,121.651,61.908Z"/><path d="M125.1,65.355l-1.842,1.864a.587.587,0,0,0,0,.822l1.874,1.922a.586.586,0,0,0,.829.019l0,0,1.84-1.736a.59.59,0,0,0,.03-.831l-1.88-2.045a.585.585,0,0,0-.828-.036l-.024.023Z"/><path d="M128.714,68.971l-1.842,1.865a.589.589,0,0,0,0,.822l1.875,1.922a.588.588,0,0,0,.83.017l1.84-1.737a.586.586,0,0,0,.03-.822l-1.874-2.05a.585.585,0,0,0-.827-.048c-.012.01-.022.02-.033.031Z"/><path d="M132.371,72.63l-1.84,1.874a.589.589,0,0,0,0,.822l1.875,1.922a.588.588,0,0,0,.83.017l1.839-1.737a.585.585,0,0,0,.032-.822l-1.884-2.058a.587.587,0,0,0-.831-.037l-.021.02Z"/><path d="M136.032,76.289l-1.84,1.869a.588.588,0,0,0,0,.831l1.875,1.922a.588.588,0,0,0,.831.017l1.839-1.737a.585.585,0,0,0,.032-.822l-1.874-2.05a.589.589,0,0,0-.83-.058.3.3,0,0,0-.032.03Z"/><path d="M139.92,79.715l-2.287,2.317a.277.277,0,0,0,0,.385l2.3,2.36a.277.277,0,0,0,.385,0l2.287-2.159a.274.274,0,0,0,.013-.385l-2.3-2.518a.275.275,0,0,0-.39-.01l-.01.01Z"/><path d="M143.58,83.374,141.293,85.7a.273.273,0,0,0,0,.384l2.3,2.362a.277.277,0,0,0,.385,0l2.287-2.159a.274.274,0,0,0,.013-.385l-2.3-2.518a.276.276,0,0,0-.39-.018l-.01.01Z"/><path d="M146.819,86.613l-2.287,2.325a.273.273,0,0,0,0,.384l2.3,2.362a.277.277,0,0,0,.385,0l2.287-2.159a.274.274,0,0,0,.013-.385l-2.3-2.51a.276.276,0,0,0-.389-.027l-.011.01Z"/><path d="M150.447,90.237l-2.287,2.315a.275.275,0,0,0,0,.385l2.3,2.36a.275.275,0,0,0,.385,0l2.287-2.159a.276.276,0,0,0,.013-.385l-2.3-2.518a.276.276,0,0,0-.39-.01l-.01.01Z"/><path d="M153.96,93.754l-2.287,2.315a.275.275,0,0,0,0,.385l2.3,2.362a.277.277,0,0,0,.385,0l2.287-2.159a.276.276,0,0,0,.013-.385l-2.311-2.51a.276.276,0,0,0-.39-.01l0,0Z"/><path d="M157.475,97.263l-2.291,2.325a.273.273,0,0,0,0,.384l2.3,2.362a.277.277,0,0,0,.385,0l2.287-2.159a.274.274,0,0,0,.013-.385l-2.3-2.518a.276.276,0,0,0-.39-.018l-.01.01Z"/><path d="M160.985,100.784,158.7,103.1a.277.277,0,0,0,0,.385l2.3,2.36a.276.276,0,0,0,.385.008l2.287-2.159a.274.274,0,0,0,.013-.385l-2.3-2.518a.276.276,0,0,0-.39-.012l0,0Z"/><path d="M118.307,65.254l-1.84,1.864a.586.586,0,0,0,0,.829l0,0,1.875,1.922a.586.586,0,0,0,.829.018h0l1.839-1.736a.588.588,0,0,0,.032-.831l-1.885-2.051a.587.587,0,0,0-.831-.033l-.019.018Z"/><path d="M111,72.561l-1.842,1.864a.588.588,0,0,0,0,.831l1.874,1.907a.585.585,0,0,0,.822.018l1.84-1.737a.584.584,0,0,0,.03-.822l-1.874-2.043a.586.586,0,0,0-.828-.038l-.022.021Z"/><path d="M121.753,68.7l-1.843,1.864a.586.586,0,0,0,0,.829l0,0,1.874,1.922a.589.589,0,0,0,.831.018l1.839-1.746a.59.59,0,0,0,.03-.831l-1.874-2.048a.585.585,0,0,0-.826-.04l-.031.03"/><path d="M125.369,72.317l-1.84,1.864a.587.587,0,0,0,0,.822l1.875,1.922a.586.586,0,0,0,.829.018h0l1.839-1.736a.588.588,0,0,0,.032-.831l-1.874-2.05a.589.589,0,0,0-.831-.039C125.389,72.3,125.379,72.306,125.369,72.317Z"/><path d="M129.028,75.977l-1.84,1.865a.587.587,0,0,0,0,.822l1.875,1.922a.585.585,0,0,0,.822.017l1.84-1.736a.588.588,0,0,0,.032-.831L129.88,76a.59.59,0,0,0-.833-.043l-.019.018Z"/><path d="M114.561,75.89l-1.842,1.864a.587.587,0,0,0,0,.822l1.874,1.922a.586.586,0,0,0,.829.019l0,0,1.84-1.736a.59.59,0,0,0,.03-.83L115.42,75.9a.584.584,0,0,0-.826-.042c-.012.01-.022.021-.033.032Z"/><path d="M118.178,79.506l-1.84,1.865a.586.586,0,0,0,0,.829l0,0,1.875,1.922a.585.585,0,0,0,.828.019l0,0,1.839-1.736a.588.588,0,0,0,.032-.831l-1.874-2.05a.588.588,0,0,0-.83-.049c-.011.01-.022.02-.032.031Z"/><path d="M121.837,83.165,120,85.03a.587.587,0,0,0,0,.822l1.875,1.922a.588.588,0,0,0,.831.017l1.839-1.737a.585.585,0,0,0,.032-.822l-1.874-2.05a.588.588,0,0,0-.83-.048c-.011.01-.022.02-.032.031Z"/><path d="M132.687,79.633l-1.84,1.865a.587.587,0,0,0,0,.822l1.875,1.922a.585.585,0,0,0,.828.019l0,0,1.84-1.736a.586.586,0,0,0,.033-.828l0,0-1.885-2.04a.586.586,0,0,0-.828-.041l-.022.021Z"/><path d="M136.346,83.292,134.5,85.157a.587.587,0,0,0,0,.822l1.875,1.922a.586.586,0,0,0,.829.018h0l1.84-1.737a.584.584,0,0,0,.03-.822L137.2,83.308a.585.585,0,0,0-.828-.036l-.022.021Z"/><path d="M140.233,86.717l-2.287,2.325a.275.275,0,0,0,0,.385l2.305,2.35a.275.275,0,0,0,.385,0l2.287-2.159a.276.276,0,0,0,.013-.385l-2.3-2.518a.276.276,0,0,0-.39-.01l-.01.01Z"/><path d="M143.475,89.951l-2.287,2.325a.275.275,0,0,0,0,.385l2.3,2.36a.275.275,0,0,0,.385,0l2.287-2.159a.276.276,0,0,0,.013-.385l-2.3-2.518a.276.276,0,0,0-.39-.018l-.01.01Z"/><path d="M147.1,93.585l-2.289,2.325a.273.273,0,0,0,0,.384l2.3,2.362a.277.277,0,0,0,.385,0l2.287-2.159a.274.274,0,0,0,.015-.385l-2.3-2.518a.276.276,0,0,0-.39-.018l-.01.01Z"/><path d="M150.616,97.094l-2.287,2.325a.275.275,0,0,0,0,.385l2.3,2.36a.277.277,0,0,0,.387,0L153.3,100a.274.274,0,0,0,.015-.385l-2.3-2.518a.276.276,0,0,0-.39-.018l-.01.01Z"/><path d="M121.891,75.793l-1.842,1.867a.587.587,0,0,0,0,.822l1.875,1.922a.586.586,0,0,0,.827.021l0,0,1.84-1.736a.588.588,0,0,0,.03-.831l-1.884-2.045a.585.585,0,0,0-.826-.04l-.024.023Z"/><path d="M125.551,79.452l-1.842,1.862a.587.587,0,0,0,0,.822l1.875,1.922a.586.586,0,0,0,.827.021l0,0,1.84-1.736a.59.59,0,0,0,.03-.831l-1.874-2.048a.584.584,0,0,0-.826-.041Z"/><path d="M129.21,83.111l-1.842,1.857a.587.587,0,0,0,0,.822l1.874,1.922a.586.586,0,0,0,.829.019l0,0,1.84-1.736a.59.59,0,0,0,.03-.831l-1.874-2.05a.586.586,0,0,0-.828-.031c-.011.01-.021.02-.031.031Z"/><path d="M132.869,86.771l-1.842,1.864a.587.587,0,0,0,0,.822l1.874,1.922a.586.586,0,0,0,.829.019l0,0,1.84-1.736a.59.59,0,0,0,.03-.831l-1.874-2.05a.587.587,0,0,0-.828-.039Z"/><path d="M136.755,90.2l-2.289,2.315a.277.277,0,0,0,0,.385l2.3,2.36a.275.275,0,0,0,.385,0l2.287-2.159a.274.274,0,0,0,.015-.385l-2.3-2.52a.274.274,0,0,0-.387-.013l-.013.013Z"/><path d="M139.994,93.44l-2.289,2.315a.277.277,0,0,0,0,.385l2.3,2.36a.275.275,0,0,0,.385,0l2.287-2.159a.274.274,0,0,0,.015-.385l-2.3-2.516a.274.274,0,0,0-.387-.013l-.013.013Z"/><path d="M143.624,97.061l-2.287,2.325a.277.277,0,0,0,0,.385l2.3,2.36a.274.274,0,0,0,.385.008l2.287-2.159a.274.274,0,0,0,.015-.385l-2.3-2.518a.276.276,0,0,0-.389-.027l-.011.01Z"/><path d="M147.14,100.582l-2.289,2.309a.277.277,0,0,0,0,.385l2.3,2.36a.274.274,0,0,0,.385.008l2.287-2.159a.274.274,0,0,0,.015-.385l-2.3-2.518a.273.273,0,0,0-.384-.016l-.016.016Z"/><path d="M154.129,100.61l-2.287,2.325a.275.275,0,0,0,0,.385l2.3,2.36a.274.274,0,0,0,.385.008l2.287-2.159a.276.276,0,0,0,.013-.385l-2.3-2.518a.276.276,0,0,0-.389-.027l-.011.01Z"/><path d="M157.645,104.125l-2.3,2.315a.275.275,0,0,0,0,.385l2.309,2.36a.274.274,0,0,0,.385.008l2.287-2.159a.276.276,0,0,0,.013-.385l-2.3-2.518a.275.275,0,0,0-.387-.02l-.013.013Z"/><path d="M139.844,100.843l-2.159,2.181a.369.369,0,0,0,0,.517l2.174,2.229a.369.369,0,0,0,.517.01l2.159-2.031a.371.371,0,0,0,.023-.508l-2.174-2.379a.37.37,0,0,0-.522-.035l-.018.017Z"/><path d="M143.357,104.356l-2.159,2.181a.369.369,0,0,0,0,.517l2.174,2.229a.369.369,0,0,0,.517.01l2.159-2.031a.368.368,0,0,0,.02-.517l-2.181-2.379a.37.37,0,0,0-.524-.015l-.006.005"/><path d="M146.877,107.869l-2.159,2.181a.369.369,0,0,0,0,.517l2.174,2.229a.369.369,0,0,0,.517.012l2.159-2.033a.366.366,0,0,0,.02-.517l-2.174-2.377a.367.367,0,0,0-.518-.029l-.018.017Z"/><path d="M150.453,111.312l-2.287,2.317a.277.277,0,0,0,0,.385l2.3,2.36a.275.275,0,0,0,.385,0l2.287-2.159a.274.274,0,0,0,.013-.385l-2.3-2.518a.276.276,0,0,0-.39-.01l-.01.01Z"/><path d="M114.686,68.68l-1.963,2a.586.586,0,0,0,0,.829l0,0,5.485,5.43a.588.588,0,0,0,.816.01l2.046-1.925a.587.587,0,0,0,.025-.831l-.013-.014-5.564-5.5a.586.586,0,0,0-.829,0l0,0"/><path d="M150.566,104.117l-2.4,2.445a.28.28,0,0,0,0,.389l5.915,5.855a.275.275,0,0,0,.382,0l2.5-2.354a.274.274,0,0,0,.013-.387l-.013-.013-6.018-5.953a.275.275,0,0,0-.379.018"/><path d="M125.62,86.6l-2.291,2.269a.272.272,0,0,0,0,.385l0,0,12.755,13.074a.277.277,0,0,0,.385,0l2.492-2.35a.273.273,0,0,0,.007-.387l-.007-.007L126,86.594a.276.276,0,0,0-.385,0"/></g></g><path d="M121.646,61.507,119.8,63.376a.587.587,0,0,0,0,.822l1.874,1.922a.588.588,0,0,0,.831.017l1.84-1.737a.586.586,0,0,0,.03-.822l-1.874-2.05a.587.587,0,0,0-.828-.043l-.024.023Z" fill="#464a5f"/><path d="M125.1,64.954l-1.842,1.864a.587.587,0,0,0,0,.822l1.874,1.922a.586.586,0,0,0,.829.019l0,0,1.84-1.736a.59.59,0,0,0,.03-.831l-1.88-2.043a.586.586,0,0,0-.828-.038l-.024.023Z" fill="#464a5f"/><path d="M128.714,68.57l-1.842,1.865a.589.589,0,0,0,0,.822l1.872,1.918a.588.588,0,0,0,.83.017l1.84-1.737a.585.585,0,0,0,.032-.828l0,0-1.874-2.05a.585.585,0,0,0-.828-.029l-.029.029Z" fill="#464a5f"/><path d="M132.371,72.229l-1.84,1.864a.59.59,0,0,0,0,.831l1.875,1.922a.588.588,0,0,0,.831.017l1.839-1.737a.585.585,0,0,0,.032-.822l-1.884-2.056a.588.588,0,0,0-.831-.037l-.021.02Z" fill="#464a5f"/><path d="M136.032,75.888l-1.84,1.864a.588.588,0,0,0,0,.831l1.875,1.92a.589.589,0,0,0,.831.018l1.839-1.737a.585.585,0,0,0,.035-.827l0,0L136.9,75.9a.588.588,0,0,0-.83-.046c-.011.01-.022.02-.032.031Z" fill="#464a5f"/><path d="M139.921,79.321l-2.287,2.309a.273.273,0,0,0,0,.384l2.3,2.362a.276.276,0,0,0,.385.008l2.287-2.159a.274.274,0,0,0,.013-.385l-2.3-2.518a.276.276,0,0,0-.39-.01l-.01.01Z" fill="#464a5f"/><path d="M143.581,82.975l-2.287,2.317a.273.273,0,0,0,0,.384l2.3,2.362a.277.277,0,0,0,.385,0l2.287-2.159a.274.274,0,0,0,.013-.385l-2.3-2.518a.276.276,0,0,0-.39-.01l-.01.01Z" fill="#464a5f"/><path d="M146.819,86.212l-2.287,2.317a.273.273,0,0,0,0,.384l2.3,2.369a.277.277,0,0,0,.385,0l2.287-2.159a.274.274,0,0,0,.013-.385l-2.3-2.518a.276.276,0,0,0-.39-.017l-.01.01Z" fill="#464a5f"/><path d="M150.447,89.838l-2.287,2.315a.275.275,0,0,0,0,.385l2.3,2.36a.274.274,0,0,0,.385.008l2.287-2.159a.276.276,0,0,0,.013-.385l-2.3-2.52a.275.275,0,0,0-.39-.01l-.01.01Z" fill="#464a5f"/><path d="M153.959,93.352l-2.287,2.315a.275.275,0,0,0,0,.385l2.3,2.37a.277.277,0,0,0,.385,0l2.287-2.159a.276.276,0,0,0,.013-.385l-2.309-2.518a.276.276,0,0,0-.39-.01l0,0Z" fill="#464a5f"/><path d="M157.473,96.864l-2.287,2.325a.273.273,0,0,0,0,.384l2.3,2.362a.277.277,0,0,0,.385,0l2.287-2.159a.274.274,0,0,0,.013-.385l-2.3-2.518a.276.276,0,0,0-.39-.018l-.01.01Z" fill="#464a5f"/><path d="M160.986,100.377,158.7,102.7a.277.277,0,0,0,0,.385l2.3,2.352a.277.277,0,0,0,.385,0l2.287-2.159a.274.274,0,0,0,.013-.385l-2.3-2.518a.276.276,0,0,0-.39,0l0,0Z" fill="#464a5f"/><path d="M118.308,64.852l-1.84,1.864a.587.587,0,0,0,0,.822l1.875,1.922a.585.585,0,0,0,.828.019l0,0,1.839-1.736a.588.588,0,0,0,.032-.831l-1.885-2.04a.588.588,0,0,0-.831-.036l-.019.018Z" fill="#464a5f"/><path d="M111,72.158l-1.842,1.864a.588.588,0,0,0,0,.831l1.875,1.92a.585.585,0,0,0,.822.018l1.84-1.737a.588.588,0,0,0,.03-.831l-1.875-2.045a.585.585,0,0,0-.826-.043Z" fill="#464a5f"/><path d="M121.752,68.3l-1.842,1.864a.587.587,0,0,0,0,.822l1.874,1.922a.586.586,0,0,0,.829.018h0l1.839-1.739a.59.59,0,0,0,.03-.83l-1.874-2.048a.585.585,0,0,0-.826-.037l-.031.03Z" fill="#464a5f"/><path d="M125.369,71.913l-1.84,1.865a.587.587,0,0,0,0,.822l1.875,1.922a.586.586,0,0,0,.829.018h0l1.839-1.736a.588.588,0,0,0,.032-.831l-1.884-2.043a.591.591,0,0,0-.834-.035l-.018.018Z" fill="#464a5f"/><path d="M129.028,75.572l-1.84,1.865a.587.587,0,0,0,0,.822l1.875,1.922a.586.586,0,0,0,.822.017l1.84-1.736a.588.588,0,0,0,.032-.831l-1.874-2.05a.588.588,0,0,0-.831-.034l-.024.024Z" fill="#464a5f"/><path d="M114.562,75.487l-1.842,1.864a.587.587,0,0,0,0,.822l1.874,1.922a.586.586,0,0,0,.829.019l0,0,1.84-1.736a.59.59,0,0,0,.03-.831L115.413,75.5a.585.585,0,0,0-.826-.037Z" fill="#464a5f"/><path d="M118.178,79.1l-1.84,1.865a.587.587,0,0,0,0,.822l1.875,1.922a.588.588,0,0,0,.831.017l1.839-1.736a.588.588,0,0,0,.032-.831l-1.873-2.049a.588.588,0,0,0-.831-.041l-.031.031Z" fill="#464a5f"/><path d="M121.838,82.763,120,84.637a.587.587,0,0,0,0,.822l1.875,1.922a.588.588,0,0,0,.831.017l1.839-1.737a.585.585,0,0,0,.032-.822l-1.874-2.05a.588.588,0,0,0-.83-.055.3.3,0,0,0-.032.03Z" fill="#464a5f"/><path d="M132.687,79.232l-1.84,1.865a.587.587,0,0,0,0,.822l1.875,1.922a.585.585,0,0,0,.828.019l0,0,1.84-1.737a.585.585,0,0,0,.034-.827l0,0-1.874-2.05a.587.587,0,0,0-.828-.042l-.034.034" fill="#464a5f"/><path d="M136.346,82.891,134.5,84.756a.587.587,0,0,0,0,.822l1.875,1.922a.586.586,0,0,0,.829.018h0l1.84-1.737a.584.584,0,0,0,.03-.822l-1.874-2.05a.585.585,0,0,0-.827-.048c-.012.01-.022.02-.033.031Z" fill="#464a5f"/><path d="M140.233,86.316l-2.287,2.317a.275.275,0,0,0,0,.385l2.3,2.36a.275.275,0,0,0,.385,0l2.287-2.159a.276.276,0,0,0,.013-.385l-2.3-2.518a.275.275,0,0,0-.39-.01l-.01.01Z" fill="#464a5f"/><path d="M143.476,89.555l-2.287,2.317a.275.275,0,0,0,0,.385l2.3,2.36a.275.275,0,0,0,.385,0l2.287-2.159a.276.276,0,0,0,.013-.385l-2.3-2.518a.276.276,0,0,0-.39-.01l-.01.01Z" fill="#464a5f"/><path d="M147.1,93.183,144.814,95.5a.273.273,0,0,0,0,.384l2.3,2.362a.277.277,0,0,0,.385,0l2.287-2.159a.274.274,0,0,0,.015-.385l-2.3-2.51a.276.276,0,0,0-.39-.018l-.01.01Z" fill="#464a5f"/><path d="M150.616,96.695l-2.287,2.317a.275.275,0,0,0,0,.385l2.3,2.36a.277.277,0,0,0,.387,0L153.3,99.6a.274.274,0,0,0,.015-.385l-2.3-2.518a.276.276,0,0,0-.39-.01l-.01.01Z" fill="#464a5f"/><path d="M121.891,75.391l-1.842,1.864a.587.587,0,0,0,0,.822L121.924,80a.586.586,0,0,0,.827.021l0,0,1.84-1.736a.588.588,0,0,0,.03-.831l-1.884-2.041a.585.585,0,0,0-.826-.04Z" fill="#464a5f"/><path d="M125.555,79.05l-1.842,1.864a.587.587,0,0,0,0,.829l0,0,1.875,1.922a.585.585,0,0,0,.827.02l0,0,1.84-1.736a.59.59,0,0,0,.03-.831l-1.874-2.048a.585.585,0,0,0-.826-.051l-.034.033Z" fill="#464a5f"/><path d="M129.21,82.711l-1.842,1.864a.587.587,0,0,0,0,.822l1.874,1.922a.586.586,0,0,0,.829.019l0,0,1.84-1.736a.59.59,0,0,0,.03-.831l-1.874-2.05a.586.586,0,0,0-.828-.039C129.23,82.69,129.22,82.7,129.21,82.711Z" fill="#464a5f"/><path d="M132.87,86.368l-1.842,1.865a.587.587,0,0,0,0,.829l0,0,1.874,1.922a.586.586,0,0,0,.829.018h0l1.84-1.736a.59.59,0,0,0,.03-.831l-1.874-2.05a.587.587,0,0,0-.83-.045.372.372,0,0,0-.029.027Z" fill="#464a5f"/><path d="M136.755,89.794l-2.289,2.317a.277.277,0,0,0,0,.385l2.3,2.36a.274.274,0,0,0,.385.008l2.287-2.159a.275.275,0,0,0,.015-.387l-2.3-2.518a.275.275,0,0,0-.387-.02l-.013.013Z" fill="#464a5f"/><path d="M139.994,93.032l-2.289,2.315a.277.277,0,0,0,0,.385l2.3,2.357a.274.274,0,0,0,.385.008l2.287-2.159a.275.275,0,0,0,.015-.387l-2.3-2.513a.275.275,0,0,0-.387-.02l-.013.013Z" fill="#464a5f"/><path d="M143.625,96.66l-2.287,2.325a.277.277,0,0,0,0,.385l2.3,2.36a.275.275,0,0,0,.385,0l2.287-2.159a.274.274,0,0,0,.015-.385l-2.3-2.518a.276.276,0,0,0-.39-.018l-.01.01" fill="#464a5f"/><path d="M147.14,100.174l-2.289,2.315a.277.277,0,0,0,0,.385l2.3,2.359a.275.275,0,0,0,.385,0l2.287-2.159a.274.274,0,0,0,.015-.385l-2.3-2.508a.272.272,0,0,0-.384-.022.113.113,0,0,0-.016.015Z" fill="#464a5f"/><path d="M154.13,100.209l-2.287,2.325a.275.275,0,0,0,0,.385l2.3,2.36a.275.275,0,0,0,.385,0l2.287-2.159a.276.276,0,0,0,.013-.385l-2.3-2.518a.276.276,0,0,0-.39-.018l-.01.01Z" fill="#464a5f"/><path d="M157.643,103.722l-2.287,2.325a.275.275,0,0,0,0,.385l2.3,2.36a.275.275,0,0,0,.385,0l2.287-2.159a.276.276,0,0,0,.013-.385l-2.3-2.51a.276.276,0,0,0-.389-.027l-.011.01Z" fill="#464a5f"/><path d="M139.844,100.444l-2.159,2.181a.369.369,0,0,0,0,.517l2.174,2.229a.369.369,0,0,0,.517.01l2.159-2.031a.37.37,0,0,0,.02-.517l-2.174-2.379a.37.37,0,0,0-.523-.023l-.013.013Z" fill="#464a5f"/><path d="M143.357,103.954l-2.159,2.181a.369.369,0,0,0,0,.517l2.179,2.236a.37.37,0,0,0,.51,0l2.159-2.031a.368.368,0,0,0,.02-.517l-2.179-2.375a.37.37,0,0,0-.523-.017l-.007.007Z" fill="#464a5f"/><path d="M146.877,107.467l-2.159,2.181a.369.369,0,0,0,0,.517l2.174,2.229a.367.367,0,0,0,.517.01l2.159-2.031a.366.366,0,0,0,.02-.517l-2.174-2.379a.369.369,0,0,0-.521-.024l-.015.014Z" fill="#464a5f"/><path d="M150.453,110.911l-2.287,2.325a.277.277,0,0,0,0,.385l2.3,2.36a.276.276,0,0,0,.385.008l2.287-2.159a.274.274,0,0,0,.013-.385l-2.3-2.518a.276.276,0,0,0-.389-.027l-.011.01Z" fill="#464a5f"/><path d="M114.687,68.279l-1.963,2a.586.586,0,0,0,0,.829l0,0,5.485,5.43a.588.588,0,0,0,.816.01l2.042-1.926a.587.587,0,0,0,.025-.831l-.013-.014-5.564-5.5a.587.587,0,0,0-.828,0" fill="#464a5f"/><path d="M150.567,103.715l-2.4,2.45a.28.28,0,0,0,0,.389l5.915,5.855a.275.275,0,0,0,.382,0l2.5-2.354a.274.274,0,0,0,.013-.387l-.013-.013-6.018-5.953a.274.274,0,0,0-.379.013" fill="#464a5f"/><path d="M125.621,86.2l-2.291,2.269a.273.273,0,0,0,0,.386h0l12.755,13.074a.277.277,0,0,0,.385,0l2.492-2.35a.273.273,0,0,0,.007-.387l-.007-.007L126.006,86.193a.276.276,0,0,0-.385,0" fill="#464a5f"/><g opacity="0.1" style="isolation:isolate"><g clip-path="url(#l)"><path d="M116.619,87.792l-10.071,10a1.5,1.5,0,0,0-.017,2.1l18.629,19.136a1.5,1.5,0,0,0,2.114.028l0,0,10.37-10.2a1.5,1.5,0,0,0,.015-2.114l-.007-.007L118.73,87.792a1.5,1.5,0,0,0-2.111,0"/></g></g><path d="M116.619,87.382,106.548,97.395a1.5,1.5,0,0,0-.017,2.1l18.629,19.131a1.5,1.5,0,0,0,2.114.028l0,0,10.37-10.2a1.5,1.5,0,0,0,.015-2.114l-.007-.007L118.73,87.392a1.5,1.5,0,0,0-2.111-.01" fill="#939498"/><path d="M126.292,34.882l-2.55,17.826L170.985,99.8l2.4-17.67A3.121,3.121,0,0,0,172.5,79.5L127.339,34.53a.618.618,0,0,0-.874,0,.625.625,0,0,0-.174.35Z" fill="#fdb933"/><g opacity="0.1" style="isolation:isolate"><g clip-path="url(#m)"><path d="M66.515,120.237c2.12,0,3.839.236,3.839.527s-1.719.527-3.839.527-3.839-.236-3.839-.527,1.719-.527,3.839-.527" fill="#fdb933"/></g></g><g opacity="0.1" style="isolation:isolate"><g clip-path="url(#n)"><path d="M51.809,121.729c2.12,0,3.839.236,3.839.527s-1.719.527-3.839.527-3.839-.236-3.839-.527,1.719-.527,3.839-.527" fill="#fdb933"/></g></g><g opacity="0.1" style="isolation:isolate"><g clip-path="url(#o)"><path d="M34.487,119.711c2.12,0,3.839.236,3.839.527s-1.719.527-3.839.527-3.839-.236-3.839-.527,1.719-.527,3.839-.527" fill="#fdb933"/></g></g><g opacity="0.1" style="isolation:isolate"><g clip-path="url(#p)"><path d="M57.695,126.126c1.507,0,2.729.168,2.729.375s-1.222.375-2.729.375-2.729-.168-2.729-.375,1.222-.375,2.729-.375" fill="#fdb933"/></g></g><g opacity="0.1" style="isolation:isolate"><g clip-path="url(#q)"><path d="M42.432,125.75c1.507,0,2.729.168,2.729.375s-1.222.375-2.729.375-2.729-.168-2.729-.375,1.222-.375,2.729-.375" fill="#fdb933"/></g></g><path d="M51.732,122.137s5.383-17.65-.844-24.711c-4.651-5.289-9.945-4.651-12.313-4a4.374,4.374,0,0,0-2.824,2.345c-.831,1.787-.678,4.686,5.166,8.069,9.787,5.666,10.4,13.438,10.4,13.438Z" fill="#fdb933"/><path d="M52.216,122.221l-.986-.166c1.424-8.513-.189-15.646-4.668-20.625a18.536,18.536,0,0,0-7.3-5.033l.3-.955c.163.05,16.247,5.34,12.659,26.779" fill="#565987"/><path d="M46.711,101.534a3.933,3.933,0,0,1,1.693-4.25l.56.829c-.077.052-1.866,1.3-1.3,3.124Z" fill="#565987"/><path d="M41.358,99.363l-.707-.707a3.25,3.25,0,0,1,3.5-.722l-.37.93a2.252,2.252,0,0,0-2.424.5" fill="#565987"/><path d="M49.768,106.334a.62.62,0,0,0-.373-.376,3.029,3.029,0,0,0-1.891.333l-.453-.891a3.923,3.923,0,0,1,2.694-.379,1.619,1.619,0,0,1,.949.936Z" fill="#565987"/><path d="M51.791,109.034l-1-.026a1.018,1.018,0,0,1,.352-.739,3.03,3.03,0,0,1,1.981-.441l-.079,1a2.03,2.03,0,0,0-1.254.21" fill="#565987"/><path d="M51.945,122.274s-6.312-12.828-8.039-12.547c-.822.133-1.2.942-1.372,1.756a5.177,5.177,0,0,0,.342,3.123,13.839,13.839,0,0,0,9.069,7.668" fill="#fdb933"/><path d="M51.7,122.66c-1.339-.437-6.582-7.927-8.157-10.211l.824-.568c3.165,4.592,6.891,9.524,7.647,9.83Z" fill="#565987"/><rect width="1.545" height="1" transform="translate(43.344 113.163)" fill="#565987"/><rect width="1.001" height="2.424" transform="translate(45.172 117.674) rotate(-87.565)" fill="#565987"/><rect width="1.288" height="1" transform="translate(45.916 115.524) rotate(-78.286)" fill="#565987"/><rect width="1.147" height="1" transform="translate(48.696 119.33) rotate(-87.65)" fill="#565987"/><path d="M51.757,122.274s6.312-12.828,8.038-12.547c.831.133,1.2.942,1.374,1.756a5.162,5.162,0,0,1-.344,3.123,13.828,13.828,0,0,1-9.068,7.668" fill="#fdb933"/><path d="M52.005,122.66l-.311-.951c.752-.3,4.478-5.236,7.644-9.828l.823.568c-1.575,2.284-6.818,9.774-8.156,10.211" fill="#565987"/><rect width="1.545" height="1" transform="translate(58.812 113.163)" fill="#565987"/><rect width="2.424" height="1.001" transform="matrix(0.999, -0.042, 0.042, 0.999, 56.063, 116.776)" fill="#565987"/><rect width="1" height="1.288" transform="translate(56.543 114.466) rotate(-11.737)" fill="#565987"/><rect width="1" height="1.147" transform="translate(53.957 118.225) rotate(-2.349)" fill="#565987"/><path d="M40.928,125.273a1.092,1.092,0,0,1-.359-.542.482.482,0,0,1,.251-.551.707.707,0,0,1,.664.233.9.9,0,0,0,.646.312.978.978,0,0,1-.3-.919.376.376,0,0,1,.085-.188c.128-.136.359-.078.512.03a1.9,1.9,0,0,1,.626,1.6,3.008,3.008,0,0,0,.008-.664.677.677,0,0,1,.248-.583.751.751,0,0,1,.377-.088.775.775,0,0,1,.613.166.6.6,0,0,1-.025.751,2.376,2.376,0,0,1-.633.508,1.386,1.386,0,0,0-.453.432.514.514,0,0,0-.033.076H41.783a3.841,3.841,0,0,1-.855-.573" fill="#fdb933"/><path d="M64.959,120.108a1.1,1.1,0,0,1-.36-.542.483.483,0,0,1,.251-.551.707.707,0,0,1,.664.233.881.881,0,0,0,.644.311.983.983,0,0,1-.3-.919.391.391,0,0,1,.085-.186c.128-.138.359-.078.513.03a1.9,1.9,0,0,1,.625,1.6,3.009,3.009,0,0,0,.01-.664.662.662,0,0,1,.247-.583.731.731,0,0,1,.377-.088.783.783,0,0,1,.611.166.61.61,0,0,1-.023.752,2.353,2.353,0,0,1-.635.5,1.445,1.445,0,0,0-.452.432.381.381,0,0,0-.033.078H65.809a3.851,3.851,0,0,1-.85-.569" fill="#fdb933"/><path d="M56.95,125.273a1.092,1.092,0,0,1-.359-.542.482.482,0,0,1,.251-.551.707.707,0,0,1,.664.233.9.9,0,0,0,.646.312.978.978,0,0,1-.3-.919.376.376,0,0,1,.085-.188c.128-.136.359-.078.512.03a1.906,1.906,0,0,1,.626,1.6,3.008,3.008,0,0,0,.008-.664.681.681,0,0,1,.246-.581.751.751,0,0,1,.377-.088.775.775,0,0,1,.613.166.6.6,0,0,1-.025.751,2.357,2.357,0,0,1-.633.508,1.386,1.386,0,0,0-.453.432.513.513,0,0,0-.033.076H57.8a3.847,3.847,0,0,1-.849-.575" fill="#fdb933"/><path d="M34.238,114.831s-.515.673.238,1.688,1.372,1.874,1.121,2.506c0,0-1.134-1.887-2.058-1.912s-.317-1.148.7-2.282" fill="#fdb933"/><g opacity="0.1" style="isolation:isolate"><g clip-path="url(#r)"><path d="M34.238,114.831a.817.817,0,0,0-.1.211c-.9,1.058-1.382,2.046-.515,2.071.806.022,1.774,1.465,2,1.827a.618.618,0,0,1-.027.083s-1.134-1.887-2.058-1.912-.316-1.146.7-2.28"/></g></g><path d="M33.282,115.688c0,.237.027.429.06.429s.06-.191.06-.429-.033-.125-.066-.125-.054-.113-.054.125" fill="#ffd037"/><path d="M32.954,115.969c.208.113.389.183.4.153s-.14-.143-.347-.258-.126-.03-.141,0-.119,0,.088.105" fill="#ffd037"/><path d="M36.955,114.831s.513.673-.238,1.688-1.372,1.874-1.121,2.506c0,0,1.134-1.887,2.058-1.912s.316-1.148-.7-2.282" fill="#fdb933"/><g opacity="0.1" style="isolation:isolate"><g clip-path="url(#s)"><path d="M36.955,114.831a.817.817,0,0,1,.1.211c.9,1.058,1.38,2.046.515,2.071-.807.022-1.774,1.465-2.007,1.827a.81.81,0,0,0,.028.083s1.134-1.887,2.058-1.912.321-1.146-.694-2.28"/></g></g><path d="M37.914,115.688c0,.237-.027.429-.058.429s-.06-.191-.06-.429.033-.125.066-.125.052-.113.052.125" fill="#ffd037"/><path d="M38.246,115.969c-.208.113-.389.183-.4.153s.141-.143.349-.258.126-.03.141,0,.116,0-.085.105" fill="#ffd037"/><path d="M37.748,118.934a5.3,5.3,0,0,1-1.872-.352c-.434-.307-2.212-.678-2.325-.183s-2.159,2.462-.537,2.475a13.742,13.742,0,0,0,4.206-.517c.434-.261.528-1.423.528-1.423" fill="#a8a8a8"/><g opacity="0.2" style="isolation:isolate"><g clip-path="url(#t)"><path d="M32.988,120.7a13.711,13.711,0,0,0,4.206-.517c.332-.2.46-.92.5-1.252h.055s-.091,1.163-.523,1.423a13.835,13.835,0,0,1-4.206.517c-.468,0-.631-.166-.623-.417.065.15.243.243.591.246"/></g></g></g><g clip-path="url(#u)"><rect width="1.286" height="1.777" transform="translate(50.579 61.686)" fill="gray"/><rect width="0.123" height="0.176" transform="translate(54.777 73.18)" fill="gray"/><rect width="0.047" height="0.166" transform="translate(60.789 51.278)" fill="gray"/><rect width="32.048" height="0.131" transform="translate(46.146 101.523)" fill="gray"/><rect width="32.048" height="33.377" transform="translate(46.146 68.145)" fill="gray"/><rect width="32.048" height="28.433" transform="translate(46.146 39.712)" fill="gray"/><rect width="32.048" height="0.046" transform="translate(46.146 39.666)" fill="gray"/></g><g clip-path="url(#a)"><path d="M59.576,42.664s3.1-.279,3.839-.2l.2.018a3.628,3.628,0,0,1,2.068.919.5.5,0,0,0,.166.1c.332.1.686.814.686.814s-.787,6.227-.787,6.3-1.628,2.9-1.628,2.9l-1.576.611-2.719.384-.076-1.173a2.36,2.36,0,0,0,1.163-2.2c-.146-1.482-1.336-8.473-1.336-8.473" fill="#464353"/><path d="M61.1,50.061s-.664,3,0,3.965-6.558-1.575-6.558-1.575l-1.329-2.39s.5-.354,1.06-.811c.791-.636,1.737-1.47,1.737-1.827.005-.616,5.09,2.638,5.09,2.638" fill="#ecb4b6"/><g opacity="0.1" style="isolation:isolate"><g clip-path="url(#w)"><path d="M61.1,50.061s-.664,3,0,3.965-6.558-1.575-6.558-1.575l-1.329-2.39s.5-.354,1.06-.811c.791-.636,1.737-1.47,1.737-1.827.005-.616,5.09,2.638,5.09,2.638"/></g></g><g opacity="0.1" style="isolation:isolate"><g clip-path="url(#x)"><path d="M59.575,43.2a4.423,4.423,0,1,1-4.423,4.423A4.423,4.423,0,0,1,59.575,43.2"/></g></g><path d="M59.575,43a4.423,4.423,0,1,1-4.423,4.423A4.423,4.423,0,0,1,59.575,43" fill="#ecb4b6"/><path d="M65.294,52.911a2.689,2.689,0,0,0,.761.917c.94.894,2.417,2.058,2.417,2.058s2.9,2.643,3.156,2.719a12.771,12.771,0,0,1,1.016,2.672s-.178,4.3,2.159,4.473c1,.075,1.415-.7,1.568-1.613a4.9,4.9,0,0,0-1.144-3.986l-1.389-1.616L72.592,56.3a22.723,22.723,0,0,1-2.008-3.986,11.127,11.127,0,0,0-2.44-3.654c-.261-.259-.429-.4-.429-.4l-1.163.355a34.725,34.725,0,0,0-1.258,4.3" fill="#ecb4b6"/><path d="M69.743,97.7l.445.447c.771.776,2.312,2.325,2.707,2.678a3.6,3.6,0,0,0,2.771.355,4.089,4.089,0,0,0,1.651-1.063,1.144,1.144,0,0,0,.055-1.616l-.037-.037a5.94,5.94,0,0,0-1.289-1.071,7.621,7.621,0,0,1-2.364-1.827,5.041,5.041,0,0,0-1.369-1.045c-.439-.247-.792-.4-.792-.4Z" fill="#c17174"/><g opacity="0.1" style="isolation:isolate"><g clip-path="url(#y)"><path d="M70.371,97.7s.148.151.377.38c.656.664,1.967,1.973,2.3,2.277a3.069,3.069,0,0,0,2.355.3,3.156,3.156,0,0,0,1.244-.757,1.143,1.143,0,0,0,.108-1.614c-.021-.024-.043-.048-.066-.07a4.377,4.377,0,0,0-.962-.779,6.438,6.438,0,0,1-2.01-1.556,4.273,4.273,0,0,0-1.163-.889c-.372-.211-.673-.344-.673-.344Z"/></g></g><path d="M49.541,73.551s.349.394.772.855a15.793,15.793,0,0,0,1.414,1.432,15.94,15.94,0,0,1,1.653,2.39s1.329,2.186,3.076,2.287,1.754-1.932,1.626-2.058-.3-1.272-.558-2.111A12.667,12.667,0,0,0,55,73.507c-.243-.224-.4-.364-.4-.364Z" fill="#c17174"/><g opacity="0.1" style="isolation:isolate"><g clip-path="url(#z)"><path d="M49.915,73.839s.316.359.7.781A14.713,14.713,0,0,0,51.9,75.926a14.374,14.374,0,0,1,1.507,2.179s1.206,1.993,2.805,2.085,1.6-1.761,1.483-1.877-.279-1.163-.51-1.923a11.579,11.579,0,0,0-2.3-2.588c-.221-.2-.365-.332-.365-.332Z"/></g></g><g opacity="0.1" style="isolation:isolate"><g clip-path="url(#aa)"><path d="M49.541,73.551s.349.394.772.855a7.43,7.43,0,0,0,3.271-.042,10.48,10.48,0,0,1,1.271-.483c.058,0,.1-.151.146-.374-.243-.224-.4-.364-.4-.364Z"/></g></g><path d="M52.227,67.55a18.206,18.206,0,0,1-2.191,1.55,3.437,3.437,0,0,0-1.216,1.751s-1.194,2.9,1.219,3.3a7.7,7.7,0,0,0,3.535,0,10.473,10.473,0,0,1,1.271-.482c.229-.025.228-2.213,1.066-2.874s2.771-2.159,2.771-2.159Z" fill="#5e5a6b"/><g opacity="0.1" style="isolation:isolate"><g clip-path="url(#ab)"><path d="M52.227,67.55a18.206,18.206,0,0,1-2.191,1.55,3.437,3.437,0,0,0-1.216,1.751s-1.194,2.9,1.219,3.3a7.7,7.7,0,0,0,3.535,0,10.473,10.473,0,0,1,1.271-.482c.229-.025.228-2.213,1.066-2.874s2.771-2.159,2.771-2.159Z"/></g></g><path d="M65.293,64.066s1,1.357.688,1.683a4.621,4.621,0,0,1-1.066.681,11.474,11.474,0,0,1-1.2,3.432A13.415,13.415,0,0,1,61.531,72l1.015-5.669Z" fill="#5e5a6b"/><g opacity="0.1" style="isolation:isolate"><g clip-path="url(#ac)"><path d="M61.535,72a16.551,16.551,0,0,0,1.3-1.139,8.149,8.149,0,0,0,.884-1,11.474,11.474,0,0,0,1.2-3.432,4.535,4.535,0,0,0,1.066-.681c.186-.2-.108-.774-.367-1.2-.166-.276-.319-.485-.319-.485l-1.44,1.186-1.306,1.076-.384,2.2Z"/></g></g><g opacity="0.1" style="isolation:isolate"><g clip-path="url(#ad)"><path d="M69.743,97.7l.445.447c.281,0,.7.035.7.035s2.058-2.467,1.727-2.9a2.115,2.115,0,0,1-.3-.766c-.439-.248-.792-.4-.792-.4Z"/></g></g><path d="M54.034,71.668a66.656,66.656,0,0,0,3.457,5.719,20.9,20.9,0,0,0,1.653,2.492,12.547,12.547,0,0,1,1.3,1.8s1.246,2.872,1.45,3.178a11.3,11.3,0,0,1,.558,1.827,11.747,11.747,0,0,0,1.043,2.389,3.047,3.047,0,0,1,.508,1.3s1.041,1.525,1.219,1.779a10.791,10.791,0,0,1,.56,1.143,4.386,4.386,0,0,1,.56,1.272c0,.357,1.163.965,1.163.965a5,5,0,0,0,1.321,1.163c.49.166.942,1.347,1.017,1.271a3.906,3.906,0,0,1,.942,0s2.058-2.465,1.727-2.9a3.557,3.557,0,0,1-.407-1.45s.831-1.9.382-2.006-2.178-3.118-2.178-3.118c-.025-2.287-2.109-4.219-2.109-4.219s-1.043-2.492-1.347-3.025a.82.82,0,0,1,0-.915,3.354,3.354,0,0,1-.686-.686c-.1-.229-.585-1.957-.585-1.957a5.574,5.574,0,0,1-.611-1.526c-.027-.483-1.163-1.827-1.163-1.827s-.462-2.264-.97-2.671c-.1-.08-.083-.377,0-.809a37.74,37.74,0,0,1,1.495-4.541c.294-.771.512-1.311.512-1.311l-.983.246L55.49,67.344s-.453,1.218-.852,2.365a13.438,13.438,0,0,0-.6,1.959" fill="#5e5a6b"/><g opacity="0.1" style="isolation:isolate"><g clip-path="url(#ae)"><path d="M70.278,92.485s2.618-1.017,1.329.279-3.761,1.221-3.761,1.221Z"/></g></g><g opacity="0.1" style="isolation:isolate"><g clip-path="url(#af)"><path d="M65.8,87.294s-1.473.814-1.194,1.6,1.194-1.6,1.194-1.6"/></g></g><g opacity="0.1" style="isolation:isolate"><g clip-path="url(#ag)"><path d="M64.325,81a1.541,1.541,0,0,1-1.45.787c-1.057-.025,1.45-.787,1.45-.787"/></g></g><g opacity="0.1" style="isolation:isolate"><g clip-path="url(#ah)"><path d="M50.5,69.688s.56,1.729,0,1.855,0-1.855,0-1.855"/></g></g><g opacity="0.1" style="isolation:isolate"><g clip-path="url(#ai)"><path d="M65.294,52.911a2.689,2.689,0,0,0,.761.917c.242-.781.468-1.495.332-1.731-.2-.355.591-1.118.448-1.626-.11-.389.847-1.374,1.3-1.814-.261-.259-.429-.4-.429-.4l-1.163.355a34.751,34.751,0,0,0-1.249,4.3"/></g></g><g opacity="0.1" style="isolation:isolate"><g clip-path="url(#aj)"><path d="M54.63,69.711a20.621,20.621,0,0,0,3.216-.751,32.574,32.574,0,0,0,4.319-.435c.831-.166,1.435-.4,1.435-.718a3,3,0,0,1,.734-1.5,11.888,11.888,0,0,1,.854-.968,1.536,1.536,0,0,0,.354-.573c.023-.068.051-.145.08-.224-.166-.276-.319-.485-.319-.485l-1.44,1.186-8.372,2.093s-.469,1.222-.861,2.37"/></g></g><path d="M51.848,68.059s1.88,1.118,2.44,1.32,3.558-.724,3.558-.724,5.745-.189,5.745-1.163c0-.746,1.09-1.945,1.588-2.453a1.536,1.536,0,0,0,.354-.575,6,6,0,0,1,.854-1.751c.458-.457-.254-2.9-.254-2.9a13.874,13.874,0,0,0-.355-2.237c-.2-.508,0-.583-.166-1.017-.2-.487-.332-.458-.085-1.576s.864-2.541.664-2.9.591-1.118.448-1.626,1.533-2.033,1.533-2.033a11.182,11.182,0,0,0-.36-1.875,6.8,6.8,0,0,1-.711-1.626c0-.254-.357-.306-.56-.61s-2.55,7.88-2.55,7.88l-3.42.771-.189.042a7.172,7.172,0,0,1-3.207-.61s-2.181-.355-2.893-3.965A8.36,8.36,0,0,0,52.7,49a3.521,3.521,0,0,0-1.367,1.055,6.92,6.92,0,0,1-1.827,1.784,14.726,14.726,0,0,0-.56,1.673,6.035,6.035,0,0,1-.762,2.289,6.244,6.244,0,0,0-.664,2.236L52.1,62.21s-.1,1.068-.355,1.017.1,4.832.1,4.832" fill="#464353"/><g opacity="0.1" style="isolation:isolate"><g clip-path="url(#ak)"><path d="M52.706,49.209l2.445,5.1s1.017.664,1.374.3,1.7-.355,1.7-.355l.178.355L60.979,54l-.4-.83-.189.043a7.172,7.172,0,0,1-3.207-.61S55,52.247,54.29,48.637a8.323,8.323,0,0,0-1.584.572"/></g></g><path d="M52.706,49.006l2.445,5.1s1.017.664,1.374.306,1.7-.355,1.7-.355l.178.355,2.576-.61-.4-.831-.189.042a7.172,7.172,0,0,1-3.207-.61S55,52.048,54.29,48.438a8.36,8.36,0,0,0-1.581.571Z" fill="#464353"/><g opacity="0.1" style="isolation:isolate"><g clip-path="url(#al)"><path d="M53.78,63.838s5.4,1.7,5.8,1.912-5.775-1.327-5.8-1.912"/></g></g><g opacity="0.1" style="isolation:isolate"><g clip-path="url(#am)"><path d="M57.181,66.43s-1.418.789-1.927.508,1.927-.508,1.927-.508"/></g></g><g opacity="0.1" style="isolation:isolate"><g clip-path="url(#an)"><path d="M61.635,57S63,64.3,60.982,66.43Z"/></g></g><g opacity="0.1" style="isolation:isolate"><g clip-path="url(#ao)"><path d="M63.88,46.02A1.528,1.528,0,0,0,63.935,44a5.344,5.344,0,0,1-.551-.575,2.5,2.5,0,0,0-.269-.442c-.262-.269-.7-.2-1.065-.307a2.4,2.4,0,0,1-.872-.616,6.865,6.865,0,0,0-1.42-1,2.8,2.8,0,0,0-1.712-.389,12.507,12.507,0,0,0-1.321.46c-.638.181-1.423.145-1.827.673-.191.251-.246.585-.427.845-.256.369-.726.542-1,.9a1.751,1.751,0,0,0-.138,1.463,2.013,2.013,0,0,1,.13.962c-.037.156-.118.3-.15.458a2.017,2.017,0,0,0,.36,1.184,3,3,0,0,1,.276,1.321.593.593,0,0,0,.042.3.522.522,0,0,0,.2.179l.764.482a.35.35,0,0,0,.12.053c.15.023.241-.148.332-.262a.932.932,0,0,1,1.1-.11c.36.173.656.457,1.018.621a4.6,4.6,0,0,0,2.746-.135,6.016,6.016,0,0,0,.928-.209,4.339,4.339,0,0,0,.814-.437,2.9,2.9,0,0,0,.7-.547.981.981,0,0,0,.231-.9c-.075-.267-.314-.508-.266-.806.1-.509.868-.816,1.2-1.155"/></g></g><path d="M63.88,45.819a1.531,1.531,0,0,0,.055-2.018,5.233,5.233,0,0,1-.551-.573,2.5,2.5,0,0,0-.269-.443c-.262-.267-.7-.2-1.065-.306a2.4,2.4,0,0,1-.872-.618,6.79,6.79,0,0,0-1.42-1,2.8,2.8,0,0,0-1.712-.389,12.507,12.507,0,0,0-1.321.46c-.638.181-1.423.143-1.827.664-.191.252-.246.586-.427.847-.256.369-.726.542-1,.9a1.751,1.751,0,0,0-.138,1.463,2.013,2.013,0,0,1,.13.962c-.037.156-.118.3-.15.458a2.016,2.016,0,0,0,.36,1.183,3,3,0,0,1,.284,1.34.593.593,0,0,0,.042.3.555.555,0,0,0,.2.179l.764.48a.336.336,0,0,0,.12.055c.149.022.241-.148.332-.264a.935.935,0,0,1,1.1-.11c.36.171.656.457,1.018.621a4.607,4.607,0,0,0,2.746-.133,6.293,6.293,0,0,0,.928-.211,4.33,4.33,0,0,0,.814-.435,2.93,2.93,0,0,0,.7-.548.978.978,0,0,0,.231-.9c-.075-.269-.314-.51-.266-.806.091-.517.86-.826,1.194-1.163" fill="#464353"/><path d="M46.537,63.3a3.57,3.57,0,0,0,.558,1.6,22.059,22.059,0,0,0,2.364,2.44l1.729,1.163s2.314,1.423,2.86,1.678a2.618,2.618,0,0,1,.8,1.189c.228.525.385,1,.385,1a2.273,2.273,0,0,0,1.932-2.02,4.748,4.748,0,0,0,.052-1.254c-.128-.025-1.551-1.093-1.551-1.093a7.472,7.472,0,0,1-2.186-2.134,12.48,12.48,0,0,0-2.618-2.694l.033-.061.12-.219.254-.839-3.986-1.779s-.1.324-.224.767a14.193,14.193,0,0,0-.522,2.256" fill="#ecb4b6"/><g opacity="0.1" style="isolation:isolate"><g clip-path="url(#ap)"><path d="M47.05,61.049A22.159,22.159,0,0,0,49.46,63.1a3.71,3.71,0,0,0,1.432.015l.12-.219.254-.839L47.28,60.282s-.1.32-.23.767"/></g></g><path d="M51.009,57.966s2.033,1.221,1.932,1.754a20.135,20.135,0,0,1-.963,2.377l-.968.8a4.44,4.44,0,0,1-1.551,0,16.831,16.831,0,0,1-2.541-2.236,8.9,8.9,0,0,1,0-1.423,6.511,6.511,0,0,1,.61-1.2l.89-1.575Z" fill="#464353"/><g opacity="0.1" style="isolation:isolate"><g clip-path="url(#aq)"><path d="M57.846,68.955l.6,1.606-1.008.953-.047.287-2.237,1.287-.711-1.8Z"/></g></g><path d="M57.846,68.854l.6,1.6-1.008.955-.047.287-2.237,1.287-.711-1.8Z" fill="#5e5a6b"/><g opacity="0.1"><g clip-path="url(#ar)"><path d="M62.727,46.865a.584.584,0,0,1-.033-.287c.083-.52.852-.831,1.186-1.163a1.454,1.454,0,0,0,.394-.831,1.5,1.5,0,0,1-.394,1.244c-.308.3-.982.586-1.153,1.037"/><path d="M53.333,46.214a4.19,4.19,0,0,0,.35.811,2.979,2.979,0,0,1,.277,1.321.6.6,0,0,0,.04.3.555.555,0,0,0,.2.179l.764.48a.3.3,0,0,0,.121.055c.148.022.239-.148.332-.262a.935.935,0,0,1,1.1-.111c.359.171.656.457,1.018.623a4.614,4.614,0,0,0,2.746-.135,6.021,6.021,0,0,0,.928-.211,4.273,4.273,0,0,0,.814-.435,2.93,2.93,0,0,0,.7-.548,1.1,1.1,0,0,0,.236-.46.988.988,0,0,1-.236.867,2.93,2.93,0,0,1-.7.548,4.273,4.273,0,0,1-.814.435,6.264,6.264,0,0,1-.928.211,4.606,4.606,0,0,1-2.746.133c-.362-.166-.664-.448-1.018-.621a.933.933,0,0,0-1.1.11c-.1.116-.188.286-.332.264a.333.333,0,0,1-.121-.055l-.764-.48a.583.583,0,0,1-.2-.179.6.6,0,0,1-.04-.3,2.979,2.979,0,0,0-.277-1.321,2.016,2.016,0,0,1-.36-1.183c0-.012.006-.024.01-.036"/><path d="M53.346,44.422a2.1,2.1,0,0,1,.133.942c-.03-.179-.086-.359-.133-.535a2.4,2.4,0,0,1-.083-.86,2.778,2.778,0,0,0,.083.453"/></g></g><g opacity="0.1" style="isolation:isolate"><g clip-path="url(#as)"><path d="M21.093,25.942A3.593,3.593,0,1,1,17.5,29.535a3.593,3.593,0,0,1,3.593-3.593" fill="#fdb933"/></g></g><g opacity="0.1" style="isolation:isolate"><g clip-path="url(#at)"><path d="M118.614,10.8a3.593,3.593,0,1,1-3.593,3.593,3.593,3.593,0,0,1,3.593-3.593" fill="#fdb933"/></g></g><g opacity="0.1" style="isolation:isolate"><g clip-path="url(#au)"><path d="M175.612,25a3.593,3.593,0,1,1-3.593,3.593A3.593,3.593,0,0,1,175.612,25" fill="#fdb933"/></g></g><g opacity="0.1" style="isolation:isolate"><g clip-path="url(#av)"><path d="M28.277,43.335a6.021,6.021,0,1,1-6.021,6.021,6.021,6.021,0,0,1,6.021-6.021" fill="#fdb933"/></g></g><g opacity="0.1" style="isolation:isolate"><g clip-path="url(#aw)"><path d="M101.82,132.534a6.021,6.021,0,1,1-6.021,6.021,6.021,6.021,0,0,1,6.021-6.021" fill="#fdb933"/></g></g><g opacity="0.1" style="isolation:isolate"><g clip-path="url(#ax)"><path d="M182.033,129.063a6.021,6.021,0,1,1-6.021,6.021,6.021,6.021,0,0,1,6.021-6.021" fill="#fdb933"/></g></g></g></g></svg>