<svg xmlns="http://www.w3.org/2000/svg" xmlns:xlink="http://www.w3.org/1999/xlink" width="352" height="252" viewBox="0 0 352 252"><defs><clipPath id="a"><path d="M738.682,2064.864a19.225,19.225,0,0,1,3.477-2.664c-.037-1.238-.109-3.9-.072-5.084l-.261-1.341a10.533,10.533,0,0,1,2.417-8.826l.667-.059.16-.014,1.028-.092.133-.013,3.128-.277.13-.013.3-.026,1.1-.47.12-.053.863-.37a7.063,7.063,0,0,1,1.281,4.924c-.009.119-.02.233-.034.346-.034.3-.078.561-.122.788a5.77,5.77,0,0,0-.055,1.892l.393,2.866a14.6,14.6,0,0,1,.128,5.962c-.092.5-.181.993-.235,1.495a2.034,2.034,0,0,1-.232.744,1.187,1.187,0,0,1-.4.521,2.038,2.038,0,0,1-.374.279,5.961,5.961,0,0,0-.906.865,33.342,33.342,0,0,0-2.015,2.865c-2.415,3.721-5.565,9.166-5.565,9.166l-1.221-.554a43.93,43.93,0,0,1,3.947-10.954,19.238,19.238,0,0,1,2.475-3.615c-.258-.716-.7-1.94-1.075-3.041a13.63,13.63,0,0,1-1.146,2.726c-.242.443-.481.887-.689,1.347a2.031,2.031,0,0,1-.452.635,1.188,1.188,0,0,1-.542.37,2.031,2.031,0,0,1-.442.149,5.964,5.964,0,0,0-1.13.54,33.284,33.284,0,0,0-2.807,2.1c-3.454,2.783-8.142,6.978-8.142,6.978l-.988-.906A43.919,43.919,0,0,1,738.682,2064.864Z" transform="translate(-731.521 -2045.56)" fill="none"/></clipPath></defs><g transform="translate(-507 -4120)"><rect width="352" height="252" rx="8" transform="translate(507 4120)" fill="#e5effb"/><g transform="translate(-96.453 3838.921)"><path d="M676.251,863.474q.563.023,1.116,0H745.1a9,9,0,1,0-3.318-16.286,15.315,15.315,0,0,0-28.519-9.237,14.921,14.921,0,0,0-25.044,3.705,13.9,13.9,0,1,0-11.969,21.818Zm38.454-8.212.09.107h-.155Z" transform="translate(-54.161 -441.066)" fill="#fff" opacity="0.66"/><path d="M3526.442,762.884q.563.022,1.116,0h67.734a9,9,0,1,0-3.318-16.286,15.315,15.315,0,0,0-28.519-9.237,14.921,14.921,0,0,0-25.044,3.705,13.9,13.9,0,1,0-11.969,21.818Zm38.454-8.212.09.107h-.155Z" transform="translate(-2650.56 -349.433)" fill="#fff" opacity="0.66"/><g transform="translate(614.857 449.51)"><g transform="translate(35.885)"><g transform="translate(0 1.682)"><path d="M1134.742,1529.26a.137.137,0,0,0,.034-.08l.18-2.34a.113.113,0,0,0-.115-.125.139.139,0,0,0-.134.127l-.18,2.34a.113.113,0,0,0,.115.125A.135.135,0,0,0,1134.742,1529.26Z" transform="translate(-1134.528 -1526.714)" fill="#1d1d4d"/></g><g transform="translate(2.929)"><path d="M1167.639,1510.086a.142.142,0,0,0,.026-.044l.763-2.055a.117.117,0,0,0-.071-.156.135.135,0,0,0-.161.085l-.763,2.055a.117.117,0,0,0,.071.156A.131.131,0,0,0,1167.639,1510.086Z" transform="translate(-1167.424 -1507.826)" fill="#1d1d4d"/></g><g transform="translate(1.593 4.071)"><path d="M1152.629,1555.275a.148.148,0,0,0,.023-.037l.659-1.521a.117.117,0,0,0-.062-.161.134.134,0,0,0-.165.076l-.659,1.521a.118.118,0,0,0,.062.161A.131.131,0,0,0,1152.629,1555.275Z" transform="translate(-1152.414 -1553.549)" fill="#1d1d4d"/></g><g transform="translate(3.031 2.228)"><path d="M1168.777,1537.512a.143.143,0,0,0,.016-.022l2.615-4.458a.12.12,0,0,0-.04-.169.131.131,0,0,0-.172.055l-2.615,4.458a.12.12,0,0,0,.04.169A.129.129,0,0,0,1168.777,1537.512Z" transform="translate(-1168.563 -1532.849)" fill="#1d1d4d"/></g><g transform="translate(4.094 5.737)"><path d="M1180.716,1574.513l1.7-2.057a.12.12,0,1,0-.186-.152l-1.7,2.054a.125.125,0,0,0,.01.177A.126.126,0,0,0,1180.716,1574.513Z" transform="translate(-1180.501 -1572.254)" fill="#1d1d4d"/></g><g transform="translate(7.387 2.897)"><path d="M1217.7,1541.652l.957-1.089a.12.12,0,1,0-.18-.158l-.957,1.089a.12.12,0,1,0,.18.158Z" transform="translate(-1217.484 -1540.357)" fill="#1d1d4d"/></g><g transform="translate(5.296 5.527)"><path d="M1198.451,1570.1a.129.129,0,0,0,.014-.157.12.12,0,0,0-.173-.022l-4.231,3.151a.131.131,0,0,0-.036.177.12.12,0,0,0,.172.022l4.231-3.151A.149.149,0,0,0,1198.451,1570.1Z" transform="translate(-1194.006 -1569.891)" fill="#1d1d4d"/></g><g transform="translate(6.419 9.23)"><path d="M1208.148,1611.683a.132.132,0,0,0,.025-.137.116.116,0,0,0-.163-.054l-1.313.663a.136.136,0,0,0-.067.17.116.116,0,0,0,.163.054l1.313-.663A.138.138,0,0,0,1208.148,1611.683Z" transform="translate(-1206.62 -1611.478)" fill="#1d1d4d"/></g><g transform="translate(9.99 6.959)"><path d="M1248.808,1586.182a.129.129,0,0,0,.018-.151.119.119,0,0,0-.17-.032l-1.877,1.245a.133.133,0,0,0-.046.175.119.119,0,0,0,.17.032l1.877-1.246A.138.138,0,0,0,1248.808,1586.182Z" transform="translate(-1246.716 -1585.977)" fill="#1d1d4d"/></g><g transform="translate(8.473 11.126)"><path d="M1231.764,1632.984a.136.136,0,0,0,.034-.1.113.113,0,0,0-.133-.105l-1.87.287a.139.139,0,0,0-.116.144.113.113,0,0,0,.133.105l1.87-.287A.137.137,0,0,0,1231.764,1632.984Z" transform="translate(-1229.68 -1632.779)" fill="#1d1d4d"/></g></g><ellipse cx="6.49" cy="1.922" rx="6.49" ry="1.922" transform="matrix(0.758, -0.653, 0.653, 0.758, 17.137, 35.644)" fill="#fcb47f"/><g transform="translate(24.654 8.248)"><g transform="translate(3.433)"><g transform="translate(0.458 8.125)"><path d="M1.9,0H3.86a0,0,0,0,1,0,0V3.806a0,0,0,0,1,0,0H1.9A1.9,1.9,0,0,1,0,1.9v0A1.9,1.9,0,0,1,1.9,0Z" transform="matrix(-0.6, 0.8, -0.8, -0.6, 5.361, 2.284)" fill="#0d2584"/></g><g transform="translate(0 11.268)"><path d="M1050.408,1729.291l-3.047-2.286a1.873,1.873,0,0,0,.262,2.63l.186.14A1.873,1.873,0,0,0,1050.408,1729.291Z" transform="translate(-1046.945 -1727.005)" fill="#b7c6f7"/></g><g transform="translate(4.946 11.344)"><path d="M1102.655,1727.855a1.566,1.566,0,0,0,.856.636.267.267,0,0,1,.162.356,1.133,1.133,0,0,1-.3.446l-.168.195-.645-.289.007-.868-.072-.264Z" transform="translate(-1102.496 -1727.855)" fill="#3655b5"/></g><g transform="translate(3.504 11.556)"><path d="M1087.738,1730.23l-.222.108a2.17,2.17,0,0,0-1.176,1.568l-.044.257a.01.01,0,0,0,.007.012.821.821,0,0,1,.471.37l1.733,2.925a.478.478,0,0,0,.754.066,3.573,3.573,0,0,0,.786-1.136l.107-.247a.36.36,0,0,0-.221-.507l-.136-.036a.7.7,0,0,1-.514-.591.481.481,0,0,0-.345-.558.415.415,0,0,1-.3-.45V1732a.464.464,0,0,0-.3-.488l-.042-.015a.476.476,0,0,1-.3-.486l.02-.319a.466.466,0,0,0-.274-.466Z" transform="translate(-1086.295 -1730.23)" fill="#b7c6f7"/></g><g transform="translate(2.911 0.679)"><path d="M1081.312,1608.077a6.533,6.533,0,0,1,.044,3.211,14.619,14.619,0,0,1-1.1,3.057l-.627,1.281,2.772,2.079.635-.6a15.529,15.529,0,0,1,3.136-2.3,6.611,6.611,0,0,1,2.776-.827l.2-.013Z" transform="translate(-1079.633 -1608.077)" fill="#b7c6f7"/></g><g transform="translate(0.417 11.213)"><rect width="0.069" height="3.809" transform="translate(3.088 2.286) rotate(126.88)" fill="#b7c6f7"/></g><g transform="translate(7.842 1.682)"><path d="M1136.957,1619.584a1.351,1.351,0,0,1,.208,1.9c-.461.626-2.546-.9-2.085-1.53A1.357,1.357,0,0,1,1136.957,1619.584Z" transform="translate(-1135.014 -1619.349)" fill="#1d1d4d"/></g><g transform="translate(4.334)"><path d="M1103.972,1607.209l-8.353-6.266a1.115,1.115,0,0,1,1.547-.288l6.65,4.988A1.115,1.115,0,0,1,1103.972,1607.209Z" transform="translate(-1095.619 -1600.456)" fill="#0d2584"/></g></g><path d="M1008.763,1786.142a1.473,1.473,0,0,1,.19-2.134c2.752-2.181,7.026-5,7.026-5l.705.792a78.623,78.623,0,0,1-5.779,6.4A1.5,1.5,0,0,1,1008.763,1786.142Z" transform="translate(-1008.391 -1763.111)" fill="#fcb47f"/><path d="M1093.594,1757.146l1.133-1.183a2.792,2.792,0,0,1,1.44-.932l.065-.018a.116.116,0,0,1,.1.206l-.816.523c-.029.021.024.119.058.107l.753-.279a.175.175,0,1,1,.106.333l-.545.145c-.148.039-.427.21-.409.26.039.114.888-.127.888-.127a.165.165,0,0,1,.086.318l-.736.232a.058.058,0,0,0,.009.113s.553-.116.578,0c.006.027-.066.145-.066.145a.1.1,0,0,1-.065.054l-.621.155a2.161,2.161,0,0,0-.843.37c-.229.167-.124.335-.4.37l-.444-.053Z" transform="translate(-1086.007 -1741.247)" fill="#fcb47f"/></g><path d="M872.868,1747.258l-3.585-.114-.794,5.818-3.039,2.693-.429-1.033a11.774,11.774,0,0,1-.028-8.967,3.285,3.285,0,0,1,3.633-1.99l1.728.244a4.118,4.118,0,0,1,3.535,3.825,1.64,1.64,0,0,1-.007.283l-.322,2.868a4.569,4.569,0,0,0,.662,2.925,2.488,2.488,0,0,1-1.029,3.555l-2.316,1.121-1.36-3.809,2.038-4.833Z" transform="translate(-852.314 -1722.616)" fill="#11112d"/><g transform="translate(11.804 21.029)"><path d="M866.631,1747.77a3.285,3.285,0,0,1,3.633-1.99l1.728.244a4.112,4.112,0,0,1,1.427.48,4.117,4.117,0,0,0-3.094-2.21l-1.728-.244a3.285,3.285,0,0,0-3.633,1.99,11.775,11.775,0,0,0,.028,8.967l.429,1.033.764-.677A11.775,11.775,0,0,1,866.631,1747.77Z" transform="translate(-864.091 -1743.996)" fill="#11112d"/></g><path d="M876.648,1828.025s.6,3.8-1.1,5.738l3.583,1.9,2.5-1.792s-1.26.444-.883-5.824Z" transform="translate(-862.721 -1799.513)" fill="#fcb47f"/><g transform="translate(14.868 22.903)"><path d="M901.119,1773.128c.534.037,2.113.006,2.22-.513a26.552,26.552,0,0,0,.864-5.5,1.6,1.6,0,0,0-.105-.6,2.823,2.823,0,0,0-1.511-1.469c-1.378-.108-2.067.881-3.46.838a.585.585,0,0,0-.34.058.5.5,0,0,0-.181.311,11.1,11.1,0,0,0-.054,1.719,9.186,9.186,0,0,0-.018,1.76,4.073,4.073,0,0,0,1.5,2.941A2.073,2.073,0,0,0,901.119,1773.128Z" transform="translate(-898.499 -1765.035)" fill="#fcb47f"/></g><path d="M887.194,1756.152l-1.837.016a2.12,2.12,0,0,0-2.073,1.776l-.383,2.33a9.011,9.011,0,0,1-2.071,4.429,2.294,2.294,0,0,1-.4.415c-.11-.009-.613-.678-.545-.839s.592-7.6.592-7.6a28.909,28.909,0,0,1,1.772-2.49c.107-.018,2.056.146,3.171.242a2.538,2.538,0,0,1,1.366.546l1.015.811c.141.135-.094.549-.263.452A.677.677,0,0,0,887.194,1756.152Z" transform="translate(-866.668 -1732.254)" fill="#11112d"/><path d="M887.7,2048.011l.615-.263.148-.064.948-.407.122-.054,2.886-1.237.12-.053.863-.37a7.064,7.064,0,0,1,1.281,4.924c-.009.119-.02.233-.034.346-.034.3-.077.562-.122.788a5.767,5.767,0,0,0-.055,1.892l.393,2.866a14.594,14.594,0,0,1,.128,5.962c-.092.5-.181.993-.236,1.5a2.043,2.043,0,0,1-4.067-.065c0-.008-1.433-3.921-1.874-5.426l-.665-1.193A10.533,10.533,0,0,1,887.7,2048.011Z" transform="translate(-873.052 -1997.681)" fill="#fcb47f"/><path d="M848.287,2055.513l.667-.059.16-.014,1.028-.092.133-.013,3.128-.278.13-.013.935-.083a7.065,7.065,0,0,1-.316,5.078c-.046.11-.091.215-.14.318-.124.271-.248.509-.361.71a5.768,5.768,0,0,0-.641,1.781l-.519,2.846a14.6,14.6,0,0,1-1.735,5.706c-.242.443-.481.887-.689,1.347a2.043,2.043,0,0,1-3.844-1.328c0-.008-.141-4.172-.092-5.74l-.26-1.341A10.533,10.533,0,0,1,848.287,2055.513Z" transform="translate(-835.56 -2006.243)" fill="#fcb47f"/><g transform="translate(0 47.882)"><g clip-path="url(#a)"><rect width="21.46" height="15.107" transform="matrix(-0.997, -0.078, 0.078, -0.997, 28.126, 12.601)" fill="#0d2584"/></g></g><path d="M846.751,1888.591a2.66,2.66,0,0,0-2.948-.9,10.656,10.656,0,0,1-2.432.5c-2.436.211-3.556-1.079-4.978.269-2.135,2.025.212,6.65,1.451,9.05a13.342,13.342,0,0,1,1.152,5.5s4.96,1.785,8.708.744l-.26-6.671S850.307,1893.234,846.751,1888.591Z" transform="translate(-826.269 -1853.746)" fill="#f8b716"/><ellipse cx="6.49" cy="1.922" rx="6.49" ry="1.922" transform="translate(7.883 47.249) rotate(-85.519)" fill="#fcb47f"/><path d="M829.915,2009.089a1.473,1.473,0,0,1,1.444-1.583c3.51-.068,8.617.281,8.617.281l.081,1.058a78.627,78.627,0,0,1-8.475,1.588A1.5,1.5,0,0,1,829.915,2009.089Z" transform="translate(-821.15 -1963.005)" fill="#fcb47f"/><g transform="translate(16.164 64.694)"><path d="M914.656,2235.168a1.423,1.423,0,0,1,1.233-.8,3.6,3.6,0,0,1,2.17.643l.01.007a1.162,1.162,0,0,1,.291,1.587,6.5,6.5,0,0,0-.757,1.514,33.368,33.368,0,0,0-.818,3.406c-.876,4.349-1.8,10.571-1.8,10.571l-1.339-.065a43.925,43.925,0,0,1-.364-11.638A16.717,16.717,0,0,1,914.656,2235.168Z" transform="translate(-913.051 -2234.366)" fill="#fcb47f"/><path d="M923.967,2431.767l-4.7.013,0-1.122,1,.047,2.717.4c.747.068.984.341.985.663Z" transform="translate(-918.709 -2413.179)" fill="#0d2584"/></g><g transform="translate(8.685 64.694)"><path d="M831.233,2235.1a1.423,1.423,0,0,1,1.275-.732,3.605,3.605,0,0,1,2.132.76l.01.008a1.162,1.162,0,0,1,.2,1.6,6.513,6.513,0,0,0-.838,1.471,33.379,33.379,0,0,0-1,3.356c-1.112,4.294-2.373,10.457-2.373,10.457l-1.333-.138a43.923,43.923,0,0,1,.273-11.64A16.706,16.706,0,0,1,831.233,2235.1Z" transform="translate(-829.059 -2234.366)" fill="#fcb47f"/><path d="M834.391,2431.152l-4.7-.017.17-1.113,1.265.069,2.715.415a.651.651,0,0,1,.552.646Z" transform="translate(-829.633 -2412.6)" fill="#0d2584"/></g><path d="M942.954,1996.291l1.3-.784a2.8,2.8,0,0,1,1.6-.625l.068,0a.116.116,0,0,1,.055.221l-.9.349c-.032.015,0,.122.035.116l.794-.123a.175.175,0,1,1,.037.347l-.563.033c-.152.009-.46.121-.453.173.016.12.9.053.9.053a.165.165,0,0,1,.02.329l-.768.08a.058.058,0,0,0-.014.112s.565,0,.566.117c0,.028-.093.129-.093.129a.1.1,0,0,1-.075.04l-.64.028a2.159,2.159,0,0,0-.9.194c-.258.118-.188.3-.471.282l-.4-.009Z" transform="translate(-924.127 -1951.509)" fill="#fcb47f"/></g><g transform="translate(603.453 365.244)"><g transform="translate(0 5.455)"><g transform="translate(10.168 61.884)"><path d="M718.19,1319.237a.437.437,0,0,1-.242-.84,3.186,3.186,0,0,0,1.059-.573.437.437,0,1,1,.556.675,4.1,4.1,0,0,1-1.344.73Z" transform="translate(-717.646 -1317.723)" fill="#6a9dd8"/></g><g transform="translate(0 2.261)"><path d="M623.767,716.246a.437.437,0,0,1-.24-.841,25.5,25.5,0,0,0,2.515-.959.437.437,0,1,1,.355.8,26.4,26.4,0,0,1-2.6.992Zm-4.425,1.005-.049.009a25.435,25.435,0,0,1-2.777.223.437.437,0,0,1-.022-.875,24.557,24.557,0,0,0,2.681-.215.437.437,0,0,1,.166.857Zm10.952-4.185a.437.437,0,0,1-.353-.786,23.725,23.725,0,0,0,2.133-1.636.437.437,0,0,1,.571.662,24.574,24.574,0,0,1-2.212,1.7A.439.439,0,0,1,630.294,713.067Zm-18.208,4.086a.438.438,0,0,1-.179.007,22.769,22.769,0,0,1-2.719-.632.437.437,0,0,1,.251-.838,21.882,21.882,0,0,0,2.614.608.437.437,0,0,1,.034.856Zm23.506-9.041a.437.437,0,0,1-.453-.692,21.089,21.089,0,0,0,1.264-1.826q.12-.2.237-.395a.437.437,0,0,1,.755.442q-.121.208-.247.412a21.939,21.939,0,0,1-1.317,1.9A.436.436,0,0,1,635.592,708.112Zm-30.258,6.5a.437.437,0,0,1-.387-.088,3.979,3.979,0,0,1-1.41-2.049,2.878,2.878,0,0,1-.084-.565.437.437,0,0,1,.874-.041,2.007,2.007,0,0,0,.058.394,3.135,3.135,0,0,0,1.12,1.59.437.437,0,0,1-.172.76Zm35.257-12.659a18.122,18.122,0,0,1-1.845.364,5.75,5.75,0,0,1-.454-1.177,8.711,8.711,0,0,0,.187-1.867,6.881,6.881,0,0,0-.047-.717.437.437,0,0,1,.869-.1,7.783,7.783,0,0,1,.053.809,9.584,9.584,0,0,1-.2,2.055.411.411,0,0,1-.014.052,17.686,17.686,0,0,0,2.093-.5.437.437,0,0,1,.254.837C641.186,701.794,640.886,701.877,640.59,701.952ZM609.656,709.3a.436.436,0,0,1-.154.01c-.169-.019-.337-.036-.5-.052a7.053,7.053,0,0,0-2.082.12.437.437,0,0,1-.184-.855,7.837,7.837,0,0,1,2.347-.135c.171.016.343.034.517.053a.437.437,0,0,1,.059.859Zm35.97-9.385a.437.437,0,0,1-.32-.806,25.226,25.226,0,0,0,2.272-1.442.437.437,0,1,1,.507.713,26.118,26.118,0,0,1-2.352,1.492A.44.44,0,0,1,645.626,699.914Zm-11.356,2.322a.436.436,0,0,1-.2,0,7.426,7.426,0,0,1-2.66-1.132.437.437,0,1,1,.5-.717,6.559,6.559,0,0,0,2.349,1,.437.437,0,0,1,.012.851Zm17.157-6.7a.437.437,0,0,1-.411-.739c.555-.534,1.1-1.1,1.633-1.687l.239-.267a.437.437,0,0,1,.654.581l-.244.272c-.542.6-1.105,1.181-1.674,1.73A.436.436,0,0,1,651.427,695.54Zm-21.821,1.812a.438.438,0,0,1-.544-.412,4.045,4.045,0,0,1,.262-1.572,3.827,3.827,0,0,1,.779-1.242.437.437,0,0,1,.64.6,2.956,2.956,0,0,0-.6.959,3.173,3.173,0,0,0-.2,1.234A.438.438,0,0,1,629.605,697.352Zm7.472-2.461a.436.436,0,0,1-.413-.111,4.687,4.687,0,0,0-1.239-.876,3.782,3.782,0,0,0-.91-.3.437.437,0,1,1,.17-.858,4.664,4.664,0,0,1,1.12.371,5.556,5.556,0,0,1,1.471,1.039.437.437,0,0,1-.2.737Zm19.1-4.863a.437.437,0,0,1-.458-.685c.506-.682,1.024-1.406,1.584-2.216a.437.437,0,1,1,.719.5c-.566.818-1.09,1.551-1.6,2.24A.435.435,0,0,1,656.176,690.028Zm4.122-6a.437.437,0,0,1-.472-.664l.206-.313c.426-.648.867-1.318,1.3-1.975a.437.437,0,1,1,.728.484c-.436.655-.876,1.324-1.3,1.971l-.206.313A.436.436,0,0,1,660.3,684.024Zm4.09-6.027a.437.437,0,0,1-.461-.681c.536-.739,1.091-1.481,1.65-2.2a.437.437,0,1,1,.692.535c-.554.716-1.1,1.45-1.633,2.182A.436.436,0,0,1,664.388,678Zm4.514-5.714a.437.437,0,0,1-.439-.709c.595-.692,1.209-1.385,1.826-2.06a.437.437,0,0,1,.645.59c-.611.668-1.219,1.354-1.808,2.039A.436.436,0,0,1,668.9,672.284Zm4.968-5.324a.437.437,0,0,1-.414-.735c.649-.642,1.318-1.282,1.988-1.9a.437.437,0,0,1,.6.641c-.663.616-1.325,1.25-1.968,1.886A.435.435,0,0,1,673.87,666.96Zm5.384-4.9a.437.437,0,0,1-.388-.759c.7-.587,1.418-1.172,2.135-1.738a.437.437,0,1,1,.542.687c-.71.56-1.421,1.139-2.114,1.721A.434.434,0,0,1,679.254,662.057Zm5.761-4.454a.437.437,0,0,1-.36-.781c.745-.529,1.508-1.054,2.267-1.56a.437.437,0,1,1,.485.728c-.752.5-1.508,1.021-2.246,1.545A.438.438,0,0,1,685.015,657.6Zm6.1-3.975a.437.437,0,0,1-.33-.8c.785-.467,1.588-.929,2.386-1.372a.437.437,0,0,1,.424.765c-.791.439-1.586.9-2.363,1.359A.44.44,0,0,1,691.116,653.628Zm6.4-3.468a.437.437,0,0,1-.3-.817c.822-.4,1.66-.8,2.491-1.172a.437.437,0,1,1,.36.8c-.823.372-1.652.762-2.466,1.161A.446.446,0,0,1,697.519,650.16Z" transform="translate(-603.453 -648.131)" fill="#6a9dd8"/></g><g transform="translate(100.206)"><path d="M1729.361,624.092a.437.437,0,0,1-.265-.832c.425-.166.859-.332,1.291-.492a.437.437,0,0,1,.305.82c-.427.159-.857.323-1.278.487A.448.448,0,0,1,1729.361,624.092Z" transform="translate(-1728.817 -622.74)" fill="#6a9dd8"/></g></g><circle cx="3.756" cy="3.756" r="3.756" transform="translate(102.766 0.543) rotate(-4.143)" fill="#f8b716"/></g><g transform="translate(891.424 362.808)"><circle cx="3.756" cy="3.756" r="3.756" transform="translate(0 76.704) rotate(-12.383)" fill="#3655b5"/><g transform="translate(1.253 0)"><path d="M3857.568,534.157a.437.437,0,0,1,.468.729,5.422,5.422,0,0,0-1.473,2.046.437.437,0,0,1-.808-.335,6.284,6.284,0,0,1,1.709-2.373A.445.445,0,0,1,3857.568,534.157Zm-1.918,6.691a.438.438,0,0,1,.611.31,9.541,9.541,0,0,0,.672,2.044c.065.143.135.286.207.425a.437.437,0,0,1-.777.4c-.078-.151-.154-.307-.225-.463a10.4,10.4,0,0,1-.733-2.232A.438.438,0,0,1,3855.649,540.848Zm3.866,6a.438.438,0,0,1,.432.038l.106.072a11.99,11.99,0,0,0,2.23,1.165.437.437,0,1,1-.323.813,12.885,12.885,0,0,1-2.392-1.25l-.119-.081a.438.438,0,0,1,.067-.757Zm33.338-10.437a.448.448,0,0,1,.051-.02,13.985,13.985,0,0,1,2.773-.581.437.437,0,0,1,.089.87,13.083,13.083,0,0,0-2.6.545.437.437,0,0,1-.314-.815Zm-4.094,1.976a.438.438,0,0,1,.423.763,18.464,18.464,0,0,0-2.125,1.639.437.437,0,1,1-.583-.652,19.345,19.345,0,0,1,2.225-1.717A.429.429,0,0,1,3888.759,538.392Zm-22.391,10.767a.436.436,0,0,1,.224-.037,23.872,23.872,0,0,0,2.7.1.437.437,0,0,1,.015.875,24.759,24.759,0,0,1-2.8-.1.437.437,0,0,1-.14-.833Zm17.2-5.68a.437.437,0,0,1,.542.646c-.188.271-.37.551-.541.83-.292.476-.574.975-.838,1.483a.437.437,0,0,1-.776-.4c.274-.526.566-1.043.868-1.536.18-.293.371-.586.567-.87A.436.436,0,0,1,3883.568,543.479Zm16.482-7.212a.436.436,0,0,1,.308-.021c.117.035.237.074.356.114a.438.438,0,0,1,.26.237,3.243,3.243,0,0,1,.007,2.662.437.437,0,0,1-.807-.337,2.371,2.371,0,0,0,.072-1.795l-.14-.043a.437.437,0,0,1-.055-.816Zm-26.393,12.611a.436.436,0,0,1,.123-.036l.471-.067c.741-.108,1.491-.227,2.229-.356a.437.437,0,1,1,.15.862c-.746.13-1.5.25-2.253.36l-.478.068a.437.437,0,0,1-.241-.831Zm7.186-1.328a.432.432,0,0,1,.084-.029c.885-.2,1.778-.426,2.654-.659a.437.437,0,1,1,.225.845c-.886.235-1.788.459-2.682.666a.437.437,0,0,1-.281-.824Zm7.042-1.953a.391.391,0,0,1,.047-.018c.863-.281,1.733-.58,2.586-.888a.437.437,0,0,1,.3.823c-.862.312-1.742.614-2.614.9a.437.437,0,0,1-.318-.813Zm9.329-3.738a.437.437,0,0,1,.4.776,12.764,12.764,0,0,1-1.233.634c-.43.191-.867.382-1.3.566a.437.437,0,1,1-.342-.8c.428-.182.861-.371,1.286-.56a11.728,11.728,0,0,0,1.148-.59Zm-16.824,8.176a.438.438,0,0,1,.6.538c-.277.817-.539,1.693-.78,2.6a.437.437,0,0,1-.846-.223c.245-.93.513-1.826.8-2.662A.437.437,0,0,1,3880.389,550.035Zm-1.766,7.086a.438.438,0,0,1,.612.477c-.148.8-.3,1.688-.461,2.7a.437.437,0,1,1-.863-.138c.163-1.019.314-1.909.464-2.72A.437.437,0,0,1,3878.623,557.122Zm-1.155,7.218a.437.437,0,0,1,.614.465c-.157,1.012-.3,1.9-.451,2.722a.437.437,0,1,1-.861-.154c.145-.813.292-1.7.448-2.7A.437.437,0,0,1,3877.469,564.34Zm-1.392,7.175a.437.437,0,0,1,.606.5c-.235.934-.489,1.833-.757,2.671a.437.437,0,0,1-.833-.266c.262-.821.512-1.7.742-2.619A.436.436,0,0,1,3876.077,571.515Zm-2.426,6.883a.437.437,0,0,1,.575.589,25.227,25.227,0,0,1-1.358,2.444.437.437,0,1,1-.739-.468,24.236,24.236,0,0,0,1.31-2.359A.435.435,0,0,1,3873.651,578.4Zm-4.16,5.969a.437.437,0,0,1,.494.7c-.616.627-1.288,1.245-2.055,1.887a.437.437,0,1,1-.562-.671c.745-.624,1.4-1.222,1.992-1.829A.437.437,0,0,1,3869.491,584.366Zm-5.652,4.618a.437.437,0,0,1,.436.754q-.463.331-.928.661-.656.466-1.31.934a.437.437,0,0,1-.511-.71q.655-.471,1.314-.937.464-.329.926-.659A.454.454,0,0,1,3863.839,588.985Zm-5.846,4.385a.437.437,0,0,1,.467.729c-.44.379-.858.76-1.242,1.132-.24.232-.477.478-.706.729a.437.437,0,0,1-.647-.588c.241-.265.491-.523.744-.769.4-.384.827-.777,1.281-1.167A.424.424,0,0,1,3857.993,593.37Zm-4.584,5.635a.437.437,0,0,1,.571.6,15.383,15.383,0,0,0-1.021,2.467.437.437,0,1,1-.835-.26,16.247,16.247,0,0,1,1.078-2.609A.435.435,0,0,1,3853.409,599.005Zm-1.589,7.037a.438.438,0,0,1,.617.357,7.929,7.929,0,0,0,.645,2.511.437.437,0,1,1-.8.357,8.794,8.794,0,0,1-.717-2.786A.438.438,0,0,1,3851.82,606.042Z" transform="translate(-3851.565 -534.118)" fill="#6a9dd8"/></g></g><g transform="translate(659.562 474.858)"><path d="M1261.554,1801.8l-9.012-.964a.965.965,0,0,1-.788-.589l-2.972-7.157a.964.964,0,0,0-1.735-.1l-4.048,7.352a.965.965,0,0,1-.707.489l-7.885,1.139a.964.964,0,0,0-.536,1.645l5.718,5.583a.964.964,0,0,1,.287.771l-.692,8.241a.964.964,0,0,0,1.471.9l6.262-3.9a.965.965,0,0,1,.912-.058l6.954,3.191a.964.964,0,0,0,1.353-1.039l-1.233-7.226a.964.964,0,0,1,.334-.9l6.829-5.677A.964.964,0,0,0,1261.554,1801.8Z" transform="translate(-1233.58 -1792.495)" fill="#dba11d"/><path d="M1270.169,1807.716l-7.856-1.148a.964.964,0,0,1-.725-.528l-3.508-7.123a.964.964,0,0,0-1.729,0l-3.52,7.117a.964.964,0,0,1-.727.527l-7.858,1.135a.964.964,0,0,0-.536,1.644l5.681,5.547a.964.964,0,0,1,.277.854l-1.349,7.824a.964.964,0,0,0,1.4,1.018l7.031-3.689a.965.965,0,0,1,.9,0l7.025,3.7a.964.964,0,0,0,1.4-1.015l-1.336-7.827a.965.965,0,0,1,.278-.853l5.69-5.537A.964.964,0,0,0,1270.169,1807.716Z" transform="translate(-1242.541 -1797.855)" fill="#f8b716"/></g><g transform="translate(699.453 444.406)"><path d="M1709.554,1459.8l-9.012-.964a.964.964,0,0,1-.788-.589l-2.972-7.157a.964.964,0,0,0-1.735-.1l-4.048,7.352a.964.964,0,0,1-.707.49l-7.885,1.139a.964.964,0,0,0-.536,1.645l5.718,5.583a.964.964,0,0,1,.287.771l-.692,8.241a.964.964,0,0,0,1.471.9l6.262-3.9a.965.965,0,0,1,.912-.058l6.954,3.191a.964.964,0,0,0,1.353-1.039l-1.233-7.226a.964.964,0,0,1,.334-.9l6.829-5.677A.964.964,0,0,0,1709.554,1459.8Z" transform="translate(-1681.58 -1450.495)" fill="#dba11d"/><path d="M1718.169,1465.716l-7.856-1.148a.964.964,0,0,1-.725-.528l-3.508-7.123a.964.964,0,0,0-1.729,0l-3.52,7.117a.965.965,0,0,1-.726.527l-7.858,1.135a.964.964,0,0,0-.536,1.644l5.681,5.547a.964.964,0,0,1,.277.854l-1.349,7.824a.964.964,0,0,0,1.4,1.018l7.031-3.689a.964.964,0,0,1,.9,0l7.025,3.7a.964.964,0,0,0,1.4-1.015l-1.336-7.827a.964.964,0,0,1,.278-.853l5.69-5.537A.964.964,0,0,0,1718.169,1465.716Z" transform="translate(-1690.541 -1455.855)" fill="#f8b716"/></g><g transform="translate(736.277 413.816)"><path d="M2123.094,1116.264l-9.012-.964a.965.965,0,0,1-.788-.589l-2.972-7.157a.964.964,0,0,0-1.735-.1l-4.048,7.352a.965.965,0,0,1-.707.489l-7.885,1.139a.964.964,0,0,0-.536,1.644l5.718,5.583a.962.962,0,0,1,.287.771l-.692,8.241a.964.964,0,0,0,1.471.9l6.262-3.9a.965.965,0,0,1,.912-.058l6.954,3.191a.964.964,0,0,0,1.353-1.039l-1.233-7.226a.964.964,0,0,1,.334-.9l6.829-5.676A.964.964,0,0,0,2123.094,1116.264Z" transform="translate(-2095.12 -1106.959)" fill="#dba11d"/><path d="M2131.709,1122.18l-7.856-1.148a.965.965,0,0,1-.726-.528l-3.508-7.123a.964.964,0,0,0-1.729,0l-3.52,7.117a.963.963,0,0,1-.726.527l-7.858,1.135a.964.964,0,0,0-.536,1.644l5.681,5.547a.964.964,0,0,1,.277.854l-1.349,7.824a.964.964,0,0,0,1.4,1.018l7.031-3.689a.964.964,0,0,1,.9,0l7.025,3.7a.964.964,0,0,0,1.4-1.016l-1.335-7.826a.964.964,0,0,1,.278-.853l5.69-5.537A.964.964,0,0,0,2131.709,1122.18Z" transform="translate(-2104.082 -1112.319)" fill="#f8b716"/></g><g transform="translate(772.738 383.231)"><path d="M2532.573,772.782l-9.012-.964a.964.964,0,0,1-.788-.589l-2.972-7.157a.964.964,0,0,0-1.735-.1l-4.048,7.352a.964.964,0,0,1-.707.489l-7.885,1.139a.964.964,0,0,0-.536,1.644l5.718,5.583a.964.964,0,0,1,.287.771l-.692,8.241a.964.964,0,0,0,1.471.9l6.262-3.9a.964.964,0,0,1,.912-.058l6.955,3.191a.964.964,0,0,0,1.353-1.039l-1.233-7.226a.964.964,0,0,1,.334-.9l6.829-5.676A.964.964,0,0,0,2532.573,772.782Z" transform="translate(-2504.6 -763.477)" fill="#dba11d"/><path d="M2541.189,778.7l-7.856-1.148a.964.964,0,0,1-.726-.528L2529.1,769.9a.965.965,0,0,0-1.73,0l-3.52,7.117a.965.965,0,0,1-.727.527l-7.858,1.135a.964.964,0,0,0-.536,1.644l5.681,5.547a.965.965,0,0,1,.276.854l-1.349,7.824a.964.964,0,0,0,1.4,1.018l7.031-3.689a.965.965,0,0,1,.9,0l7.024,3.7a.964.964,0,0,0,1.4-1.015l-1.336-7.826a.964.964,0,0,1,.278-.853l5.69-5.537A.964.964,0,0,0,2541.189,778.7Z" transform="translate(-2513.562 -768.836)" fill="#f8b716"/></g><g transform="translate(809.78 352.928)"><path d="M2948.574,432.469l-9.012-.964a.965.965,0,0,1-.788-.589l-2.971-7.157a.964.964,0,0,0-1.736-.1l-4.048,7.352a.965.965,0,0,1-.707.489l-7.885,1.139a.964.964,0,0,0-.536,1.644l5.718,5.583a.963.963,0,0,1,.287.771l-.691,8.241a.964.964,0,0,0,1.471.9l6.262-3.9a.964.964,0,0,1,.912-.058l6.955,3.191a.964.964,0,0,0,1.353-1.039l-1.233-7.226a.964.964,0,0,1,.334-.9l6.829-5.676A.964.964,0,0,0,2948.574,432.469Z" transform="translate(-2920.6 -423.164)" fill="#dba11d"/><path d="M2957.189,438.385l-7.856-1.148a.964.964,0,0,1-.725-.528l-3.508-7.123a.964.964,0,0,0-1.729,0l-3.52,7.117a.965.965,0,0,1-.727.527l-7.858,1.135a.964.964,0,0,0-.536,1.644l5.681,5.547a.965.965,0,0,1,.276.854l-1.349,7.824a.964.964,0,0,0,1.4,1.018l7.031-3.689a.964.964,0,0,1,.9,0l7.025,3.7a.965.965,0,0,0,1.4-1.015l-1.336-7.827a.963.963,0,0,1,.278-.853l5.69-5.537A.964.964,0,0,0,2957.189,438.385Z" transform="translate(-2929.562 -428.523)" fill="#f8b716"/></g><path d="M1358.989,724.729v30.479h-36.575v30.479h-36.575v30.479h-36.216v30.479h-36.575v30.479h182.516v-152.4Z" transform="translate(-555.314 -344.948)" fill="#5c7cfa"/><path d="M2023.1,624.876l31.252-71.723-71.723,31.252,6.383,6.383L1858.976,720.827h55.408l102.334-102.334Z" transform="translate(-1143.727 -188.65)" fill="#74c0fc"/><g transform="translate(836.688 399.512)"><ellipse cx="6.393" cy="2.795" rx="6.393" ry="2.795" transform="matrix(0.941, -0.338, 0.338, 0.941, 31.071, 13.064)" fill="#0d2584"/><path d="M3562.238,1255.687a1.859,1.859,0,0,1,1.081.189,3.255,3.255,0,0,1,1.779,2.4c.467,2.485,1.374,7.318,1.709,9.171a2.408,2.408,0,0,1-.153,1.431l-.5,1.09a1.455,1.455,0,0,1-1.721.857,2.38,2.38,0,0,1-1.479-1.292l-.876-1.762a9.431,9.431,0,0,0-2.734-3.35,3.9,3.9,0,0,1-1.462-3.413c.284-2.673,1.813-4.681,3.977-5.223Z" transform="translate(-3528.022 -1228.117)" fill="#1d1d4d"/><g transform="translate(25.268 28.187)"><path d="M3508.552,1262.91a1.859,1.859,0,0,0-.976.5,3.255,3.255,0,0,0-.986,2.819c.292,2.511.862,7.4,1.093,9.265a2.407,2.407,0,0,0,.572,1.321l.806.891a1.455,1.455,0,0,0,1.9.307,2.38,2.38,0,0,0,1.028-1.673l.313-1.943a9.431,9.431,0,0,1,1.615-4.011,3.894,3.894,0,0,0,.382-3.693c-1.065-2.468-3.122-3.931-5.349-3.806Z" transform="translate(-3506.567 -1262.88)" fill="#1d1d4d"/></g><path d="M3478.649,1084.381l-4.575,2.054a1.429,1.429,0,0,0-.819,1.57l.4,2.093a12.3,12.3,0,0,0,1.811,4.474l.6.917a5.285,5.285,0,0,1,.439,5l-.194.449a.8.8,0,0,0,.234.941l.034.027a10.683,10.683,0,0,0,9.036,1.225,10.938,10.938,0,0,0,1.425-.622,1.248,1.248,0,0,0,.708-1.389l-.513-2.5a13.561,13.561,0,0,1,.062-5.739l.22-.968a17.219,17.219,0,0,0,.43-3.826v-1.341a1.242,1.242,0,0,0-.787-1.155l-3.376-1.329A6.62,6.62,0,0,0,3478.649,1084.381Z" transform="translate(-3450.93 -1071.559)" fill="#0d2584"/><path d="M3531.114,1050.856l-2.3,3.783.791.627a4.441,4.441,0,0,0,3.7.859,2.061,2.061,0,0,0,1.617-2.166l-.182-1.714Z" transform="translate(-3501.564 -1041.548)" fill="#fcb47f"/><g transform="translate(28.224 4.092)"><path d="M3544.445,1000.968a2.134,2.134,0,0,0,1.258-1.036c1.074-1.78.51-4.054-.092-6.044a1.251,1.251,0,0,0-.3-.582,5.946,5.946,0,0,0-1.969-1.021c-1.405.322-1.778,1.544-3.179,1.936a.6.6,0,0,0-.32.166.537.537,0,0,0-.082.373,12.124,12.124,0,0,0,.49,1.765,10.023,10.023,0,0,0,.54,1.8,4.354,4.354,0,0,0,2.429,2.52A2.133,2.133,0,0,0,3544.445,1000.968Z" transform="translate(-3539.765 -992.283)" fill="#f49b5f"/></g><g transform="translate(28.304 3.735)"><path d="M3545.338,996.954a2.135,2.135,0,0,0,1.259-1.036c1.074-1.78.509-4.054-.092-6.044a1.256,1.256,0,0,0-.3-.582,5.947,5.947,0,0,0-1.969-1.021c-1.405.322-1.778,1.544-3.179,1.936a.6.6,0,0,0-.32.166.54.54,0,0,0-.082.373,12.067,12.067,0,0,0,.49,1.765,9.963,9.963,0,0,0,.54,1.8,4.352,4.352,0,0,0,2.428,2.52A2.135,2.135,0,0,0,3545.338,996.954Z" transform="translate(-3540.657 -988.269)" fill="#fcb47f"/></g><ellipse cx="2.795" cy="6.393" rx="2.795" ry="6.393" transform="translate(21.118 14.578)" fill="#0d2584"/><path d="M3526.308,998.571s-1.888-2.14-1.959-3.784.358-2.518,1.215-2.635a9.438,9.438,0,0,1,2.86.6,44.52,44.52,0,0,0-1.6,4.273A2.292,2.292,0,0,1,3526.308,998.571Z" transform="translate(-3497.49 -988.059)" fill="#11112d"/><path d="M3540.66,959.1s-.438-1.69.16-2.362a10.213,10.213,0,0,1,1.157-1.015,6.244,6.244,0,0,1,2.917-1.258l.016,0a4.888,4.888,0,0,0,.895-.222,5.145,5.145,0,0,1,1.121-.322,2.346,2.346,0,0,1-.323,2.24c-.739.654-4.2,1.234-4.141,3.086S3540.66,959.1,3540.66,959.1Z" transform="translate(-3512.215 -953.235)" fill="#11112d"/><path d="M3538.269,974.119s.186-1.736.983-2.153a10.181,10.181,0,0,1,1.441-.541,6.241,6.241,0,0,1,3.173-.149l.016,0a4.9,4.9,0,0,0,.916.108,5.149,5.149,0,0,1,1.162.095c.063.091-.17,1.631-1.092,1.983s-4.369-.328-4.963,1.427S3538.269,974.119,3538.269,974.119Z" transform="translate(-3510.178 -968.928)" fill="#11112d"/><path d="M3522.105,952.854s-.83-1.536-.409-2.331a10.142,10.142,0,0,1,.881-1.262,6.246,6.246,0,0,1,2.531-1.919l.015-.006a4.9,4.9,0,0,0,.816-.43,5.149,5.149,0,0,1,1.011-.58,2.345,2.345,0,0,1,.223,2.253c-.561.812-3.787,2.2-3.283,3.987S3522.105,952.854,3522.105,952.854Z" transform="translate(-3494.972 -946.323)" fill="#11112d"/><path d="M3545.075,1027.627a1.107,1.107,0,0,0,.068,1.235c.272.372.683.422.917.112a1.108,1.108,0,0,0-.069-1.235C3545.72,1027.367,3545.31,1027.317,3545.075,1027.627Z" transform="translate(-3516.235 -1020.202)" fill="#fcb47f"/><path d="M3583.771,1378.589a1.883,1.883,0,0,0-.332.568l-1.53,4.155a13.572,13.572,0,0,0-.786,5.853l.792,9.212,1.188.321,3.209-11.871,1.639-6.957a.983.983,0,0,0-.532-1.106l-1.336-.65A1.928,1.928,0,0,0,3583.771,1378.589Z" transform="translate(-3549.171 -1339.487)" fill="#1d1d4d"/><path d="M3509.221,1388.141a1.881,1.881,0,0,0-.214.622l-.685,4.375a13.573,13.573,0,0,0,.378,5.893l2.583,8.878,1.228.082.818-12.27.243-7.143a.983.983,0,0,0-.739-.981l-1.437-.376A1.929,1.929,0,0,0,3509.221,1388.141Z" transform="translate(-3482.749 -1347.904)" fill="#1d1d4d"/><g transform="translate(40.04 4.958)"><path d="M3673.078,1054.615a2.06,2.06,0,0,0,3.174.064,2.8,2.8,0,0,0,.079-3.606,2.06,2.06,0,0,0-3.174-.064A2.8,2.8,0,0,0,3673.078,1054.615Z" transform="translate(-3672.459 -1045.993)" fill="#3655b5"/><g transform="translate(0.848)"><path d="M3690.724,1006.845l-.434-.472a61.6,61.6,0,0,0-7.508,4.681,1.945,1.945,0,1,0,2.611,2.846A77.462,77.462,0,0,0,3690.724,1006.845Z" transform="translate(-3681.984 -1005.984)" fill="#fcb47f"/><path d="M3773.394,1002.766l.3.1a1.066,1.066,0,0,0,.861-.043l.349-.208a1.353,1.353,0,0,1,.93-.121l.494.1c.163.031.24-.106.107-.192l-.057-.035a2.853,2.853,0,0,0-1.553-.358h-.008a2.459,2.459,0,0,0-.9.218l-.431.2Z" transform="translate(-3765.255 -1002.004)" fill="#fcb47f"/><path d="M3777.5,1005.537a.124.124,0,0,0,.107.131l.042.006a.528.528,0,0,0,.415-.1l.15-.135a.673.673,0,0,1,.442-.149h.25c.082,0,.106-.075.034-.1l-.031-.012a1.417,1.417,0,0,0-.791-.024,1.227,1.227,0,0,0-.423.194l-.144.106a.124.124,0,0,0-.05.092Z" transform="translate(-3768.999 -1004.824)" fill="#f49b5f"/></g></g><path d="M3547.333,1621.181h-4.09v-.976l1.228.082,2.38.338a.562.562,0,0,1,.483.556Z" transform="translate(-3514.708 -1560.2)" fill="#6a9dd8"/><path d="M3591.855,1609.263l-3.978-.951.227-.949,1.2.35,2.216.893a.566.566,0,0,1,.339.657Z" transform="translate(-3555.369 -1548.502)" fill="#6a9dd8"/><g transform="translate(22.285 23.23)"><path d="M3601.543,1241l1.266.568a.32.32,0,0,0,.414-.141l.43-.806a.32.32,0,0,0-.061-.382l-.354-.339a.32.32,0,0,0-.375-.05l-.568.311a.4.4,0,0,1-.271.041.4.4,0,0,0-.388.138l-.1.122Z" transform="translate(-3590.096 -1236.909)" fill="#fcb47f"/><ellipse cx="2.55" cy="2.245" rx="2.55" ry="2.245" transform="translate(0 0.996) rotate(-11.256)" fill="#3655b5"/><path d="M3495.527,1221.122l.065-.668a63.059,63.059,0,0,0-8.5-2.44,1.946,1.946,0,1,0-.379,3.844A77.474,77.474,0,0,0,3495.527,1221.122Z" transform="translate(-3483.686 -1217.029)" fill="#fcb47f"/></g><g transform="translate(0 42.162)"><path d="M3224.306,1510.794h-1.515l33.793-90.975h1.514Z" transform="translate(-3222.791 -1419.818)" fill="#3655b5"/><path d="M3353.09,1510.794h-1.514l33.793-90.975h1.515Z" transform="translate(-3340.108 -1419.818)" fill="#3655b5"/><path d="M3584.965,1520.916h-9.953l.66-1.775h9.953Z" transform="translate(-3543.649 -1510.297)" fill="#3655b5"/><path d="M3546.08,1625.6h-9.953l.66-1.776h9.953Z" transform="translate(-3508.227 -1605.66)" fill="#3655b5"/><path d="M3507.195,1730.285h-9.953l.659-1.775h9.953Z" transform="translate(-3472.804 -1701.023)" fill="#3655b5"/><path d="M3468.309,1834.97h-9.953l.659-1.776h9.953Z" transform="translate(-3437.381 -1796.386)" fill="#3655b5"/><path d="M3429.424,1939.655h-9.953l.66-1.776h9.953Z" transform="translate(-3401.958 -1891.75)" fill="#3655b5"/><path d="M3390.538,2044.34h-9.953l.66-1.776h9.953Z" transform="translate(-3366.535 -1987.113)" fill="#3655b5"/><path d="M3351.653,2149.024H3341.7l.659-1.776h9.953Z" transform="translate(-3331.112 -2082.476)" fill="#3655b5"/><path d="M3312.767,2253.709h-9.953l.66-1.776h9.953Z" transform="translate(-3295.689 -2177.839)" fill="#3655b5"/><path d="M3273.882,2358.394h-9.953l.659-1.776h9.953Z" transform="translate(-3260.266 -2273.202)" fill="#3655b5"/></g><g transform="translate(33.795 42.162)"><path d="M3603.834,1419.818h-1.515l33.793,90.975h1.515Z" transform="translate(-3602.319 -1419.818)" fill="#6a9dd8"/><path d="M3732.618,1419.818H3731.1l33.793,90.975h1.515Z" transform="translate(-3719.636 -1419.818)" fill="#6a9dd8"/><path d="M3964.493,2322.253h-9.953l.66,1.775h9.953Z" transform="translate(-3923.177 -2241.897)" fill="#6a9dd8"/><path d="M3925.608,2217.568h-9.953l.66,1.776h9.953Z" transform="translate(-3887.754 -2146.534)" fill="#6a9dd8"/><path d="M3886.722,2112.884h-9.953l.66,1.776h9.953Z" transform="translate(-3852.331 -2051.171)" fill="#6a9dd8"/><path d="M3847.836,2008.2h-9.953l.66,1.776h9.953Z" transform="translate(-3816.908 -1955.807)" fill="#6a9dd8"/><path d="M3808.951,1903.514H3799l.66,1.775h9.953Z" transform="translate(-3781.486 -1860.444)" fill="#6a9dd8"/><path d="M3770.066,1798.83h-9.953l.66,1.775h9.953Z" transform="translate(-3746.062 -1765.081)" fill="#6a9dd8"/><path d="M3731.18,1694.145h-9.953l.66,1.776h9.953Z" transform="translate(-3710.64 -1669.718)" fill="#6a9dd8"/><path d="M3692.3,1589.46h-9.953l.66,1.775h9.953Z" transform="translate(-3675.217 -1574.355)" fill="#6a9dd8"/><path d="M3653.41,1484.775h-9.953l.659,1.776h9.953Z" transform="translate(-3639.794 -1478.991)" fill="#6a9dd8"/></g></g><g transform="translate(735.859 469.636)"><path d="M2371.1,2421.818l.111,1.2a.113.113,0,0,1-.115.123l-2.517-.08a.08.08,0,0,1-.028-.154l1.1-.454a.8.8,0,0,0,.466-.523l.039-.138Z" transform="translate(-2343.739 -2360.531)" fill="#1d1d4d"/><path d="M2263.308,1875.634c.841.7-.384,3.563-2.736,6.4s-4.941,4.578-5.781,3.881.384-3.563,2.736-6.4S2262.467,1874.937,2263.308,1875.634Z" transform="translate(-2239.914 -1862.868)" fill="#b7c6f7"/><g transform="translate(5.281 20.149)"><path d="M2151.807,1978.419l-1.175.6a.3.3,0,0,1-.4-.115l-.445-.745a.3.3,0,0,1,.04-.365l.321-.338a.3.3,0,0,1,.354-.064l.553.269a.378.378,0,0,0,.259.026.376.376,0,0,1,.375.114l.1.112Z" transform="translate(-2149.745 -1975.824)" fill="#fcb47f"/><path d="M2179.1,1961.505a1.515,1.515,0,0,0-1.728-1.369c-3.576.511-8.694,1.835-8.694,1.835l.076.9a76.088,76.088,0,0,0,8.873.277A1.546,1.546,0,0,0,2179.1,1961.505Z" transform="translate(-2166.997 -1960.121)" fill="#fcb47f"/></g><path d="M2311.885,1814.447s-.945,3.57.494,5.586l-3.605,1.464-2.212-1.954s1.16.547,1.41-5.475Z" transform="translate(-2287.317 -1806.924)" fill="#fcb47f"/><g transform="translate(18.509 1.687)"><path d="M2300.715,1760.646c-.513-.016-2.018-.2-2.07-.706a25.5,25.5,0,0,1-.29-5.334,1.543,1.543,0,0,1,.159-.567,2.711,2.711,0,0,1,1.585-1.256c1.326.031,1.888,1.042,3.222,1.137a.561.561,0,0,1,.319.089.481.481,0,0,1,.143.315,10.662,10.662,0,0,1-.115,1.646,8.819,8.819,0,0,1-.155,1.682,3.908,3.908,0,0,1-1.723,2.661A1.989,1.989,0,0,1,2300.715,1760.646Z" transform="translate(-2298.298 -1752.784)" fill="#fcb47f"/></g><path d="M2298.635,1746.51l1.925.214a2.035,2.035,0,0,1,1.806,1.9l.138,2.262a8.644,8.644,0,0,0,1.546,4.431,2.207,2.207,0,0,0,.342.435c.106,0,.652-.588.6-.748s.175-7.312.175-7.312a27.824,27.824,0,0,0-1.45-2.55c-.141-.039-3.789-.089-3.789-.089l-1.3,1.447A.007.007,0,0,0,2298.635,1746.51Z" transform="translate(-2280.09 -1744.053)" fill="#432e36"/><path d="M2341.574,2185.169l2.329,5.153a13.4,13.4,0,0,1,1.1,7.02l-.931,8.25-.978.211-.115-.688q-.771-3.229-1.382-6.493c-.807-4.313-1.621-7.9-2.717-12.565l-.009-.048a1.423,1.423,0,0,1,2.7-.839Z" transform="translate(-2316.734 -2144.219)" fill="#fcb47f"/><g transform="translate(12.552 40.113)"><path d="M2234.159,2420.06l-.093,1.2a.112.112,0,0,1-.134.1l-2.467-.5a.08.08,0,0,1,0-.156l1.159-.262a.8.8,0,0,0,.548-.437l.062-.129Z" transform="translate(-2231.401 -2398.898)" fill="#1d1d4d"/><path d="M2256.4,2185.643l.448,5.637a13.4,13.4,0,0,1-1.337,6.98l-3.668,7.448-.992-.133.125-.687q.368-3.3.9-6.578c.7-4.332,1.149-7.984,1.7-12.743l.008-.048a1.423,1.423,0,0,1,2.823.124Z" transform="translate(-2249.119 -2184.332)" fill="#fcb47f"/></g><path d="M2290.941,1879.466a16.4,16.4,0,0,1-6.848-.072l-.281-.009a1.023,1.023,0,0,1-.705-1.426,45.945,45.945,0,0,0-.973-12.963c-.437-1.782,1.52-3.333,1.739-3.931l.185-.314a2.8,2.8,0,0,1,1.76-1.309c1.3-.31,3.344-.582,4.543.362.433.341,1.251,1.145,1.269,1.429C2291.631,1861.234,2292.2,1879.212,2290.941,1879.466Z" transform="translate(-2265.007 -1847.994)" fill="#1d1d4d"/><ellipse cx="6.677" cy="1.977" rx="6.677" ry="1.977" transform="translate(15.599 25.001) rotate(-68.042)" fill="#b7c6f7"/><path d="M2294.2,1735.748a.664.664,0,0,1,.282-.93l1.057-.517a4.514,4.514,0,0,1,4.489.3l.343.229a8.5,8.5,0,0,1,3.379,4.486l1.224,3.834,1.68,3.375a3.785,3.785,0,0,1-4.15,5.395,3.694,3.694,0,0,1-2.576-2l-2.54-5.212-.865-6.179a2.583,2.583,0,0,0-1.445-1.973A2.026,2.026,0,0,1,2294.2,1735.748Z" transform="translate(-2275.974 -1733.843)" fill="#11112d"/><g transform="translate(18.136 0.603)"><path d="M2294.482,1740.985l.764-.373a2.025,2.025,0,0,0,.61.928,2.582,2.582,0,0,1,.877,2.282l-.158,1.251-.052-.376a2.584,2.584,0,0,0-1.445-1.973,2.025,2.025,0,0,1-.878-.81A.664.664,0,0,1,2294.482,1740.985Z" transform="translate(-2294.11 -1740.612)" fill="#11112d"/><path d="M2387.483,1787.621a3.785,3.785,0,0,0,1.435-3.765l-.738-3.7-.177-4.021a8.494,8.494,0,0,0-.676-2.963,8.5,8.5,0,0,1,.924,1.973l1.224,3.834,1.681,3.375a3.784,3.784,0,0,1-3.919,5.434C2387.049,1787.263,2386.4,1785.921,2387.483,1787.621Z" transform="translate(-2378.611 -1770.275)" fill="#11112d"/></g><path d="M2254.748,2048.774c.53-2.479,3.049-15.3,3.55-16.147.269-.456,1.36-.783,1.7-.9l.432-.151c2.433-.847,4.1-1.768,6.1,1.142.957,1.391.26,5.291-.22,6.855q-.057.187-.109.378a10.561,10.561,0,0,0,.819,7.545,4.027,4.027,0,0,1,.447,1.054c-.114.5-1.8,1.042-2.164,1.195a1.216,1.216,0,0,1-.336.085s-1.836.4-3.52.7a7.615,7.615,0,0,1-4.527-.591A9.561,9.561,0,0,1,2254.748,2048.774Z" transform="translate(-2240.116 -2004.301)" fill="#1d1d4d"/><g transform="translate(0 12.058)"><rect width="10.575" height="0.979" transform="translate(3.36 9.302)" fill="#6a9dd8"/><path d="M2093.815,1879.543l-3.381-10.278,1.006,0,3.381,10.278Z" transform="translate(-2090.434 -1869.262)" fill="#6a9dd8"/></g><g transform="translate(9.553 17.435)"><path d="M2199.186,1931.5l-1.257-.4a.3.3,0,0,1-.2-.362l.2-.843a.3.3,0,0,1,.285-.233l.465-.017a.3.3,0,0,1,.3.2l.206.58a.377.377,0,0,0,.167.2.377.377,0,0,1,.188.344l-.007.15Z" transform="translate(-2197.716 -1929.651)" fill="#fcb47f"/><path d="M2218.963,1948.471a1.515,1.515,0,0,0-.275-2.187c-2.911-2.139-7.49-4.779-7.49-4.779l-.574.694a76.116,76.116,0,0,0,6.14,6.412A1.546,1.546,0,0,0,2218.963,1948.471Z" transform="translate(-2209.475 -1940.45)" fill="#fcb47f"/></g></g><path d="M2050.643,999.534a2.187,2.187,0,0,1,1.272.222,3.83,3.83,0,0,1,2.094,2.823c.55,2.925,1.618,8.614,2.012,10.794a2.836,2.836,0,0,1-.18,1.685l-.595,1.283a1.712,1.712,0,0,1-2.025,1.008,2.8,2.8,0,0,1-1.741-1.521l-1.031-2.074a11.1,11.1,0,0,0-3.218-3.943,4.585,4.585,0,0,1-1.721-4.017c.334-3.146,2.134-5.51,4.681-6.148Z" transform="translate(-1313.63 -595.256)" fill="#0d2584"/><path d="M1987.454,1008.035a2.187,2.187,0,0,0-1.149.59,3.831,3.831,0,0,0-1.16,3.318c.344,2.956,1.015,8.705,1.287,10.9a2.834,2.834,0,0,0,.672,1.555l.949,1.049a1.713,1.713,0,0,0,2.233.361,2.8,2.8,0,0,0,1.21-1.97l.368-2.287a11.1,11.1,0,0,1,1.9-4.721,4.585,4.585,0,0,0,.45-4.347c-1.254-2.9-3.675-4.627-6.3-4.479Z" transform="translate(-1258.635 -602.996)" fill="#0d2584"/><path d="M2160.258,849.215c1.812-.143,3.546,3.1,3.873,7.241s-.875,7.617-2.686,7.76-3.546-3.1-3.874-7.241S2158.447,849.359,2160.258,849.215Z" transform="translate(-1415.685 -458.346)" fill="#3655b5"/><path d="M2011.387,805.951l-5.874.584a1.682,1.682,0,0,0-1.5,1.446l-.339,2.485a14.476,14.476,0,0,0,.351,5.671l.331,1.249a6.22,6.22,0,0,1-1.377,5.743l-.384.429a.942.942,0,0,0-.09,1.138l.028.043a12.574,12.574,0,0,0,9.628,4.742,12.858,12.858,0,0,0,1.822-.162,1.469,1.469,0,0,0,1.309-1.286l.361-2.982a15.961,15.961,0,0,1,2.213-6.382l.607-1a20.267,20.267,0,0,0,1.91-4.11l.5-1.5a1.461,1.461,0,0,0-.447-1.583l-3.272-2.745A7.792,7.792,0,0,0,2011.387,805.951Z" transform="translate(-1274.339 -418.903)" fill="#3655b5"/><path d="M2100.754,769.969l-3.981,3.363.648.995a5.227,5.227,0,0,0,3.812,2.342,2.426,2.426,0,0,0,2.614-1.814l.438-1.981Z" transform="translate(-1360.349 -386.16)" fill="#fcb47f"/><g transform="translate(736.885 376.41)"><path d="M2124.363,719.278a2.514,2.514,0,0,0,1.674-.938c1.616-1.837,1.436-4.59,1.155-7.02a1.475,1.475,0,0,0-.222-.736,7,7,0,0,0-2.067-1.594c-1.7.079-2.382,1.417-4.086,1.579a.705.705,0,0,0-.405.125.634.634,0,0,0-.172.415,14.219,14.219,0,0,0,.2,2.147,11.8,11.8,0,0,0,.25,2.193,5.124,5.124,0,0,0,2.287,3.426A2.511,2.511,0,0,0,2124.363,719.278Z" transform="translate(-2118.596 -707.021)" fill="#f49b5f"/><path d="M2126.234,714.815a2.513,2.513,0,0,0,1.674-.938c1.616-1.837,1.436-4.59,1.155-7.02a1.472,1.472,0,0,0-.222-.736,7,7,0,0,0-2.067-1.594c-1.695.079-2.382,1.417-4.086,1.579a.706.706,0,0,0-.405.125.631.631,0,0,0-.172.415,14.218,14.218,0,0,0,.2,2.147,11.779,11.779,0,0,0,.25,2.193,5.124,5.124,0,0,0,2.287,3.426A2.512,2.512,0,0,0,2126.234,714.815Z" transform="translate(-2120.301 -702.955)" fill="#fcb47f"/><path d="M2103.462,707.8s-1.739-2.873-1.479-4.793.94-2.842,1.958-2.8a11.11,11.11,0,0,1,3.188,1.29,52.483,52.483,0,0,0-2.746,4.616A2.7,2.7,0,0,1,2103.462,707.8Z" transform="translate(-2101.956 -699.018)" fill="#11112d"/><path d="M2106.461,688.614c.142.005,3.842-1.777,4.181-1.739a2.215,2.215,0,0,1,.784.3c.506.273.99.87,2.28,1.627l.019.011a6.038,6.038,0,0,0,1.237.54c.655.22,1.819.491,1.96.559.326.087.977,1.572-1.21,1.637a20.293,20.293,0,0,1-4.731-1,6.584,6.584,0,0,0-4.876-.007c-2.234.781-2.386.285-1.7-.392A16.112,16.112,0,0,1,2106.461,688.614Z" transform="translate(-2103.859 -686.874)" fill="#11112d"/><path d="M2123.178,743.694a1.3,1.3,0,0,0-.179,1.445c.238.488.7.632,1.039.321a1.3,1.3,0,0,0,.178-1.445C2123.98,743.528,2123.514,743.384,2123.178,743.694Z" transform="translate(-2121.001 -738.486)" fill="#fcb47f"/></g><path d="M2183.129,960.222a2.425,2.425,0,0,1-3.083-2.112,3.3,3.3,0,0,1,2.393-3.507,2.425,2.425,0,0,1,3.083,2.112A3.3,3.3,0,0,1,2183.129,960.222Z" transform="translate(-1436.187 -554.275)" fill="#1d1d4d"/><path d="M2203.208,875.709l.669.349a72.478,72.478,0,0,1-3.046,9.959,2.29,2.29,0,1,1-4.029-2.106A91.14,91.14,0,0,1,2203.208,875.709Z" transform="translate(-1451.134 -482.484)" fill="#fcb47f"/><ellipse cx="7.524" cy="3.29" rx="7.524" ry="3.29" transform="matrix(0.786, -0.619, 0.619, 0.786, 718.855, 395.115)" fill="#3655b5"/><path d="M1913.934,874.585a2.425,2.425,0,0,1,3.737-.032,3.3,3.3,0,0,1,.045,4.245,2.425,2.425,0,0,1-3.737.032A3.3,3.3,0,0,1,1913.934,874.585Z" transform="translate(-1193.106 -480.645)" fill="#1d1d4d"/><path d="M1926.709,893.475l-.516.55a72.476,72.476,0,0,1-8.774-5.61,2.29,2.29,0,1,1,3.111-3.315A91.138,91.138,0,0,1,1926.709,893.475Z" transform="translate(-1196.13 -490.31)" fill="#fcb47f"/><g transform="translate(707.008 415.508)"><path d="M1766.423,1148.67l.063-4.814,1.149.015-.115,1.443-.434,2.8a.661.661,0,0,1-.662.56Z" transform="translate(-1766.423 -1142.263)" fill="#1d1d4d"/><path d="M1802.278,1128.524a2.217,2.217,0,0,0-.69-.351l-4.987-1.516a15.974,15.974,0,0,0-6.931-.525l-10.94,1.443-.127,1.53,14.167,2.964,8.286,1.453a1.156,1.156,0,0,0,1.264-.7l.673-1.613A2.27,2.27,0,0,0,1802.278,1128.524Z" transform="translate(-1777.519 -1125.968)" fill="#0d2584"/></g><g transform="translate(737.604 417.254)"><path d="M2110.045,1147.783a2.208,2.208,0,0,0,.043.773l1.2,5.073a15.977,15.977,0,0,0,3.03,6.256l6.758,8.529,1.374-.456-4.558-13.737-2.908-7.894a1.157,1.157,0,0,0-1.24-.741l-1.733.229A2.27,2.27,0,0,0,2110.045,1147.783Z" transform="translate(-2110.029 -1145.575)" fill="#0d2584"/><path d="M2238.2,1388.2l-4.422,1.9-.454-1.055,1.375-.512,2.718-.718a.666.666,0,0,1,.782.381Z" transform="translate(-2222.346 -1366.233)" fill="#1d1d4d"/></g><path d="M2021.6,982.367l1.218,1.409a.43.43,0,0,0,.583.062l.98-.736a.43.43,0,0,0,.142-.5l-.238-.613a.43.43,0,0,0-.428-.273l-.867.057a.532.532,0,0,1-.353-.1.533.533,0,0,0-.551-.052l-.19.093Z" transform="translate(-1291.87 -578.914)" fill="#fcb47f"/><path d="M2261.24,853.15l.58-1.77a.43.43,0,0,0-.247-.532l-1.135-.46a.43.43,0,0,0-.5.135l-.4.52a.429.429,0,0,0-.013.508l.5.714a.532.532,0,0,1,.092.356.533.533,0,0,0,.239.5l.177.115Z" transform="translate(-1508.535 -459.39)" fill="#fcb47f"/><g transform="translate(826.043 346.063)"><path d="M3246.244,967.932l-.106,1.151a.108.108,0,0,0,.111.118l2.422-.077a.077.077,0,0,0,.027-.148l-1.057-.437a.774.774,0,0,1-.449-.5l-.038-.133Z" transform="translate(-3233.412 -912.532)" fill="#1d1d4d"/><path d="M3239.91,740.2l-2.241,4.959a12.889,12.889,0,0,0-1.063,6.755l.9,7.939.941.2.111-.662q.742-3.107,1.331-6.249c.776-4.151,1.56-7.6,2.614-12.092l.009-.046a1.37,1.37,0,0,0-2.6-.807Z" transform="translate(-3224.656 -704.37)" fill="#fcb47f"/><g transform="translate(14.028 29.344)"><path d="M3442.072,816.346l.827.807a.108.108,0,0,0,.162-.012l1.466-1.93a.077.077,0,0,0-.1-.114l-1.005.546a.773.773,0,0,1-.673.032l-.127-.054Z" transform="translate(-3425.929 -802.668)" fill="#1d1d4d"/><path d="M3261.054,677.8l3.254,4.362a12.888,12.888,0,0,0,5.4,4.2l7.38,3.059.633-.725-.526-.417q-2.36-2.153-4.824-4.189c-3.257-2.688-5.9-5.046-9.315-8.141l-.036-.03a1.37,1.37,0,0,0-1.963,1.881Z" transform="translate(-3260.782 -675.611)" fill="#fcb47f"/></g><ellipse cx="1.903" cy="6.425" rx="1.903" ry="6.425" transform="translate(2.212 11.189) rotate(-43.084)" fill="#0d2584"/><g transform="translate(9.7 16.393)"><path d="M3314.638,575.086l.944.847a.293.293,0,0,0,.4-.008l.6-.582a.293.293,0,0,0,.053-.35l-.214-.394a.293.293,0,0,0-.313-.148l-.582.113a.362.362,0,0,1-.247-.04.363.363,0,0,0-.377.012l-.121.079Z" transform="translate(-3305.514 -570.504)" fill="#fcb47f"/><path d="M3212.26,531.121a1.458,1.458,0,0,1,1.946-.843c3.2,1.363,7.627,3.865,7.627,3.865l-.294.816a73.223,73.223,0,0,1-8.319-1.946A1.487,1.487,0,0,1,3212.26,531.121Z" transform="translate(-3212.175 -530.16)" fill="#fcb47f"/></g><path d="M3117.487,346.777a.631.631,0,0,0-.639-.687l-1.132,0a4.344,4.344,0,0,0-3.747,2.169l-.2.343a8.184,8.184,0,0,0-1.009,5.309l.574,3.83-.015,3.562a3.706,3.706,0,0,0,1.7,3.165,3.606,3.606,0,0,0,5.546-3.1l-.01-2.239a20.646,20.646,0,0,0-1.039-6.381l-.856-2.594a2.514,2.514,0,0,1,.417-2.329A1.946,1.946,0,0,0,3117.487,346.777Z" transform="translate(-3110.009 -346.088)" fill="#11112d"/><path d="M3121.968,412.845s.909,3.436-.476,5.375l3.47,1.409,2.129-1.881s-1.117.526-1.357-5.269Z" transform="translate(-3119.866 -406.565)" fill="#fcb47f"/><g transform="translate(2.633 0.663)"><path d="M3135.778,361.071c.494-.015,1.942-.193,1.991-.679a24.542,24.542,0,0,0,.279-5.133,1.483,1.483,0,0,0-.153-.546,2.607,2.607,0,0,0-1.526-1.208c-1.276.03-1.816,1-3.1,1.094a.542.542,0,0,0-.307.085.463.463,0,0,0-.137.3,10.282,10.282,0,0,0,.111,1.584,8.493,8.493,0,0,0,.149,1.619,3.762,3.762,0,0,0,1.658,2.561A1.914,1.914,0,0,0,3135.778,361.071Z" transform="translate(-3132.805 -353.505)" fill="#fcb47f"/></g><path d="M3127.388,347.517l-1.4.156a1.958,1.958,0,0,0-1.738,1.826l-.133,2.177a8.323,8.323,0,0,1-1.488,4.264,2.122,2.122,0,0,1-.329.419c-.1,0-.627-.566-.58-.72.037-.121-.088-4.4-.144-6.224a2.9,2.9,0,0,1,.378-1.521l.075-.132a3.277,3.277,0,0,1,2.772-1.657l1.791-.042.949,1.056A.239.239,0,0,1,3127.388,347.517Z" transform="translate(-3119.939 -346.063)" fill="#11112d"/><path d="M3104.023,475.414a15.781,15.781,0,0,0,6.59-.069l.271-.008a.985.985,0,0,0,.679-1.372,44.2,44.2,0,0,1,.936-12.475c.42-1.715-1.463-3.208-1.674-3.783l-.177-.3a2.7,2.7,0,0,0-1.694-1.26c-1.249-.3-3.218-.56-4.372.349-.416.328-1.2,1.1-1.222,1.375C3103.36,457.869,3102.814,475.169,3104.023,475.414Z" transform="translate(-3103.237 -446.088)" fill="#b7c6f7"/><path d="M3134.386,472.789c-1.008.3-1.01,3.3-.006,6.7s2.635,5.921,3.643,5.624,1.01-3.3.006-6.7S3135.394,472.492,3134.386,472.789Z" transform="translate(-3130.923 -461.483)" fill="#0d2584"/><g transform="translate(5.304 12.332)"><path d="M3204.871,486.589l.82-.968a.292.292,0,0,0-.019-.4l-.6-.582a.293.293,0,0,0-.351-.043l-.387.225a.293.293,0,0,0-.139.317l.129.578a.362.362,0,0,1-.033.248.362.362,0,0,0,.023.376l.082.118Z" transform="translate(-3200.504 -484.557)" fill="#fcb47f"/><path d="M3163.8,511.215a1.458,1.458,0,0,1-.9-1.922c1.273-3.234,3.65-7.732,3.65-7.732l.823.271a73.156,73.156,0,0,1-1.712,8.37A1.487,1.487,0,0,1,3163.8,511.215Z" transform="translate(-3162.802 -500.047)" fill="#fcb47f"/></g><path d="M3122.713,639.012c-2.4-.436-14.731-2.883-15.671-2.748-.5.072-1.195.924-1.421,1.18l-.292.33c-1.644,1.856-3.072,3-1.215,5.846.887,1.361,4.614,2.168,6.182,2.312q.187.017.376.041a10.163,10.163,0,0,1,6.416,3.489,3.888,3.888,0,0,0,.775.783c.486.081,1.584-1.217,1.855-1.489a1.15,1.15,0,0,0,.2-.267s1.029-1.488,1.91-2.878a7.332,7.332,0,0,0,1.13-4.246A9.224,9.224,0,0,0,3122.713,639.012Z" transform="translate(-3103.237 -610.419)" fill="#b7c6f7"/><path d="M3175.188,347.542a7.589,7.589,0,0,1,3.13,3.361l.206.435-.195-2.674a2.8,2.8,0,0,0-2.795-2.6h-1.244Z" transform="translate(-3167.963 -346.063)" fill="#11112d"/></g><g transform="translate(826.898 469.79)"><g transform="translate(4.568 7.009)"><path d="M3370.99,1816.053l1.348-.134a.312.312,0,0,0,.281-.321l-.027-.891a.312.312,0,0,0-.237-.294l-.464-.115a.313.313,0,0,0-.342.141l-.329.54a.39.39,0,0,1-.21.166.387.387,0,0,0-.261.306l-.025.152Z" transform="translate(-3352.329 -1814.289)" fill="#fcb47f"/><ellipse cx="6.86" cy="2.031" rx="6.86" ry="2.031" transform="translate(0 7.66) rotate(-21.599)" fill="#6a9dd8"/><path d="M3266.734,1828.706a1.556,1.556,0,0,1,.737-2.141c3.377-1.538,8.479-3.342,8.479-3.342l.522.992a83.1,83.1,0,0,1-7.556,5.1A1.588,1.588,0,0,1,3266.734,1828.706Z" transform="translate(-3257.437 -1822.427)" fill="#fcb47f"/></g><path d="M3159.128,1814.4s2.163,3.117,1.479,5.568l4,.151,1.452-2.663s-.929.935-3.28-4.794Z" transform="translate(-3155.007 -1805.802)" fill="#fcb47f"/><g transform="translate(3.15 1.455)"><path d="M3153.417,1759.741c.49-.2,1.879-.9,1.751-1.406a26.182,26.182,0,0,0-1.589-5.253,1.576,1.576,0,0,0-.353-.492,2.784,2.784,0,0,0-1.971-.658c-1.27.495-1.458,1.668-2.714,2.227a.576.576,0,0,0-.277.2.494.494,0,0,0-.027.354,10.945,10.945,0,0,0,.688,1.549,9.044,9.044,0,0,0,.739,1.571,4.016,4.016,0,0,0,2.6,1.967A2.043,2.043,0,0,0,3153.417,1759.741Z" transform="translate(-3148.219 -1751.912)" fill="#fcb47f"/></g><path d="M3144.186,1743.761l-1.784.881a2.09,2.09,0,0,0-1.08,2.466l.659,2.234a8.885,8.885,0,0,1,.058,4.821,2.258,2.258,0,0,1-.178.54c-.1.04-.835-.34-.844-.512s-2.73-7-2.73-7a28.554,28.554,0,0,1,.507-2.97c.123-.087,3.629-1.413,3.629-1.413l1.763.942A.007.007,0,0,1,3144.186,1743.761Z" transform="translate(-3136.022 -1742.162)" fill="#432e36"/><path d="M3166.278,1880.919a16.845,16.845,0,0,0,6.589-2.468l.269-.107a1.051,1.051,0,0,0,.182-1.624,47.192,47.192,0,0,1-3.6-12.861c-.2-1.874-2.636-2.687-3.057-3.188l-.289-.239a2.88,2.88,0,0,0-2.159-.648c-1.362.155-3.433.61-4.26,1.942a4.573,4.573,0,0,0-.725,1.825S3164.975,1881.113,3166.278,1880.919Z" transform="translate(-3155.088 -1848.708)" fill="#f8b716"/><ellipse cx="2.031" cy="6.86" rx="2.031" ry="6.86" transform="matrix(0.569, -0.823, 0.823, 0.569, 5.68, 16.622)" fill="#6a9dd8"/><g transform="translate(15.295 18.151)"><path d="M3397.367,1940.963l1.344.169a.312.312,0,0,0,.346-.25l.171-.875a.312.312,0,0,0-.166-.339l-.427-.215a.312.312,0,0,0-.364.061l-.441.453a.387.387,0,0,1-.241.115.387.387,0,0,0-.323.24l-.058.143Z" transform="translate(-3387.182 -1939.42)" fill="#fcb47f"/><path d="M3284.674,1950.366a1.557,1.557,0,0,1,1.195-1.924c3.635-.749,9.042-1.249,9.042-1.249l.238.895a78.162,78.162,0,0,1-8.482,3.353A1.588,1.588,0,0,1,3284.674,1950.366Z" transform="translate(-3284.621 -1946.501)" fill="#fcb47f"/></g><path d="M3121.125,1736.529a.682.682,0,0,0-.6-.8l-1.2-.129a4.638,4.638,0,0,0-4.23,1.863l-.251.341a8.737,8.737,0,0,0-1.692,5.516l.161,4.132-.44,3.848a3.889,3.889,0,0,0,5.9,3.756,3.793,3.793,0,0,0,1.788-2.834l.627-5.924-1.329-6.271a2.654,2.654,0,0,1,.7-2.411A2.083,2.083,0,0,0,3121.125,1736.529Z" transform="translate(-3112.846 -1735.574)" fill="#11112d"/><g transform="translate(0 0.063)"><path d="M3184.032,1736.376l-.869-.093a2.085,2.085,0,0,1-.263,1.11,2.655,2.655,0,0,0-.048,2.512l.591,1.153-.081-.381a2.654,2.654,0,0,1,.7-2.411,2.081,2.081,0,0,0,.564-1.09A.682.682,0,0,0,3184.032,1736.376Z" transform="translate(-3176.353 -1736.283)" fill="#11112d"/><path d="M3118.267,1811.558a3.889,3.889,0,0,1-2.705-3.133l-.583-3.83-1.237-3.946a8.735,8.735,0,0,1-.385-3.1,8.72,8.72,0,0,0-.2,2.229l.161,4.132-.441,3.849a3.888,3.888,0,0,0,5.688,3.875C3118.561,1811.06,3118.721,1809.535,3118.267,1811.558Z" transform="translate(-3112.851 -1792.095)" fill="#11112d"/></g><g transform="translate(6.869 25.845)"><path d="M3195.527,2425.835l-.163,1.223a.115.115,0,0,0,.113.131l2.587.021a.082.082,0,0,0,.035-.157l-1.109-.511a.826.826,0,0,1-.457-.556l-.035-.143Z" transform="translate(-3194.885 -2390.217)" fill="#f8b716"/><path d="M3194.049,2184.276l-2.6,5.194a13.759,13.759,0,0,0-1.422,7.161l.618,8.507,1,.257.146-.7q.924-3.283,1.686-6.61c1-4.4,1.987-8.046,3.3-12.788l.011-.049a1.462,1.462,0,0,0-2.735-.971Z" transform="translate(-3189.989 -2169.431)" fill="#fcb47f"/><g transform="translate(8.393 14.247)"><path d="M3336.109,2429.646l.046,1.233a.116.116,0,0,0,.134.11l2.553-.415a.082.082,0,0,0,.008-.161l-1.179-.317a.827.827,0,0,1-.545-.471l-.058-.135Z" transform="translate(-3331.491 -2407.793)" fill="#f8b716"/><path d="M3285.039,2187.117l-.691,5.768a13.76,13.76,0,0,0,1.086,7.22l3.461,7.8,1.023-.1-.1-.71q-.242-3.4-.651-6.79c-.542-4.476-.853-8.244-1.22-13.151l-.006-.05a1.462,1.462,0,0,0-2.9.012Z" transform="translate(-3284.25 -2185.828)" fill="#fcb47f"/></g><path d="M3218.236,2044.708c-.442-2.567-2.5-15.828-2.983-16.722-.257-.479-1.365-.86-1.7-.993l-.438-.172c-2.463-.97-4.132-1.983-6.307.922-1.039,1.388-.484,5.421-.054,7.046.034.13.066.26.1.392a10.85,10.85,0,0,1-1.15,7.712,4.119,4.119,0,0,0-.5,1.064c.1.516,1.8,1.143,2.173,1.315a1.257,1.257,0,0,0,.341.1s1.869.487,3.585.861a7.828,7.828,0,0,0,4.672-.421A9.828,9.828,0,0,0,3218.236,2044.708Z" transform="translate(-3203.84 -2025.829)" fill="#f8b716"/></g></g></g><rect width="264" height="12" transform="matrix(1, -0.017, 0.017, 1, 530.915, 4168.305)" fill="#74c0fc" opacity="0.36"/><text transform="translate(531 4165)" fill="#0f4172" font-size="24" font-family="GenYoGothicTW-Bold, GenYoGothic TW" font-weight="700"><tspan x="0" y="0"></tspan></text></g></svg>