<svg xmlns="http://www.w3.org/2000/svg" xmlns:xlink="http://www.w3.org/1999/xlink" width="260.5" height="300.5" viewBox="0 0 260.5 300.5"><defs><linearGradient id="a" x1="0.5" x2="0.5" y2="1" gradientUnits="objectBoundingBox"><stop offset="0" stop-color="#db2d2e"/><stop offset="1" stop-color="#e2626a"/></linearGradient></defs><g transform="translate(-1004.5 -318)"><path d="M4,0H260a0,0,0,0,1,0,0V300a0,0,0,0,1,0,0H5a5,5,0,0,1-5-5V4A4,4,0,0,1,4,0Z" transform="translate(1005 318)" fill="url(#a)"/><g transform="translate(1005 420.578)"><g transform="translate(0)" opacity="0.24"><path d="M0,197.422V99.009a127.59,127.59,0,0,1,232,98.413Z" fill="#fff"/><path d="M232.393,197.922H-.5V98.866l.076-.122A128.684,128.684,0,0,1,45.2,55.056,127.464,127.464,0,0,1,108.218,38.5a128.99,128.99,0,0,1,25.805,2.6A127.346,127.346,0,0,1,179.81,60.369,128.418,128.418,0,0,1,226.2,116.705a127.407,127.407,0,0,1,7.461,24.036,129.168,129.168,0,0,1-1.176,56.8ZM.5,196.922H231.61a128.177,128.177,0,0,0,1.073-55.98,126.348,126.348,0,0,0-19.116-45.428,127.418,127.418,0,0,0-55.9-46.03,126.4,126.4,0,0,0-23.847-7.4,128.115,128.115,0,0,0-58.469,1.711,126.863,126.863,0,0,0-55.008,31A127.714,127.714,0,0,0,.5,99.153Z" fill="rgba(0,0,0,0)"/></g><g transform="translate(0 54.729)"><g transform="translate(30.854 66.642)"><path d="M1241.782,2437.712l1.289,27.612-8.485,21.387-1.627-.7,3.71-42.077Z" transform="translate(-1232.959 -2437.712)" fill="#011721"/></g><g transform="translate(25.081 121.315)"><path d="M1123.032,3492.547l-1.4,2.56a.562.562,0,0,0,.493.833h8.17a.562.562,0,0,0,.281-1.049l-4.054-2.343Z" transform="translate(-1121.559 -3492.547)" fill="#fff"/></g><g transform="translate(26.683 114.268)"><path d="M1155.076,3356.58l-2.37,1.7a.562.562,0,0,0,.086.964l7.371,3.524a.562.562,0,0,0,.707-.825l-2.6-3.994Z" transform="translate(-1152.471 -3356.58)" fill="#fff"/></g><g transform="translate(25.846 33.348)"><path d="M1182.886,1795.345l-35.975,1.046s-4.378-.426-6.315,5c0,0-6.354,21.576-3.564,81.923h3.487s9.483-38.325,11.093-72.665c.047-1.006.136-2.01.277-3.007l.234-1.656a4.37,4.37,0,0,1,3.6-3.7l27.169-4.618Z" transform="translate(-1136.324 -1795.345)" fill="#05293c"/></g><g transform="translate(72.408 33.176)"><path d="M2034.676,1792.2l4.532-.171a.3.3,0,0,1,.209.525h0a1.147,1.147,0,0,1-.757.286h0a1.149,1.149,0,0,0-.981.537,2.278,2.278,0,0,1-3,1.148Z" transform="translate(-2034.676 -1792.031)" fill="#011721"/></g><g transform="translate(26.574 28.822)"><path d="M1161.008,1713.027l.068-.189a1.142,1.142,0,0,1,1.074-.755h0a.525.525,0,0,0,.425-.217l.861-1.186a.358.358,0,0,0-.039-.464,7.492,7.492,0,0,1-1.321-2.185s-3.861.7-2.943,5.62l-.058.009c-1.425.241-3.821,1.219-5.151,4.941,0,0-2.324,7.893-3.544,27.48,2.01.985,6.161,2.058,13.1-.23.661-5.97,1.177-12.04,1.456-17.991.047-1.006.136-2.01.277-3.007l.234-1.656a4.37,4.37,0,0,1,3.6-3.7l27.169-4.618v-2.325l-34.812,1.016A.407.407,0,0,1,1161.008,1713.027Z" transform="translate(-1150.381 -1708.031)" fill="#fff"/></g><g transform="translate(31.594 26.102)"><path d="M1254.464,1656.416c-.012.806-.35,2.56-2.716,4.373,0,0,.2,2.36-.793,3.1,0,0-4.09-1.545-3.708-4.648a3.59,3.59,0,0,1,3.658-3.408c1.776-.035,1.943-.248,3.1-.284C1254.321,1655.536,1254.469,1656.1,1254.464,1656.416Z" transform="translate(-1247.222 -1655.546)" fill="#011721"/></g><g transform="translate(64.427 2.631)"><path d="M1885.923,1256.08c3.352-5.9,12.171-16.031,23.455-26.562s22-18.632,28.115-21.569c1.377-2.423,1.833-4.133,1.155-4.859-2.329-2.5-17.123,7.527-33.043,22.386S1878.667,1254.4,1881,1256.9C1881.673,1257.623,1883.41,1257.287,1885.923,1256.08Z" transform="translate(-1880.685 -1202.708)" fill="#750b0b"/></g><g transform="translate(61.926 0)" opacity="0.17"><ellipse cx="39.43" cy="6.18" rx="39.43" ry="6.18" transform="translate(0 53.808) rotate(-43.025)" fill="#fff"/></g><g transform="translate(64.427 2.631)"><path d="M1905.6,1225.475c-15.92,14.859-26.938,28.927-24.609,31.422s17.123-7.527,33.043-22.386,26.938-28.927,24.609-31.422S1921.525,1210.616,1905.6,1225.475Zm7.311,7.834c-15.35,14.327-29.3,24.326-31.161,22.334s8.865-15.449,24.215-29.775,29.514-24.1,31.373-22.106S1928.266,1218.982,1912.916,1233.308Z" transform="translate(-1880.685 -1202.708)" fill="#ffabab"/></g><g transform="translate(64.737 3.012)"><path d="M1919.72,1241.481c-15.92,14.859-30.714,24.881-33.043,22.386l4.625,4.955c2.329,2.5,17.123-7.527,33.043-22.386s26.938-28.927,24.609-31.422l-4.625-4.955C1946.658,1212.554,1935.64,1226.622,1919.72,1241.481Z" transform="translate(-1886.677 -1210.059)" fill="#a51c1c"/></g><g transform="translate(0 58.447)"><path d="M704.787,2279.59l-3.691,3.445a6.128,6.128,0,0,0-7.406.726l-54.075,50.469a6.13,6.13,0,0,0-.3,8.665h0a6.13,6.13,0,0,0,8.665.3l54.075-50.469a6.127,6.127,0,0,0,1.235-7.339l3.691-3.444Z" transform="translate(-637.668 -2279.59)" fill="#a51c1c"/></g><g transform="translate(1.649 59.622)"><path d="M678.143,2364.7l54.075-50.469a6.128,6.128,0,0,0,1.235-7.339l3.691-3.444-1.1-1.176L669.478,2364.4A6.13,6.13,0,0,0,678.143,2364.7Z" transform="translate(-669.478 -2302.27)" fill="#961717"/></g><g transform="translate(53.869 66.358)"><path d="M1678.382,2432.233l2.238,1.453.145,3.545s-3.545.057-3.778-3.254Z" transform="translate(-1676.987 -2432.233)" fill="#011721"/></g><g transform="translate(28.25 119.693)"><path d="M1185.134,3461.758h-2.17a.259.259,0,1,1,0-.518h2.17a.259.259,0,1,1,0,.518Z" transform="translate(-1182.705 -3461.24)" fill="#fff"/></g><g transform="translate(32.008 113.145)"><path d="M1256.676,3336.287a.257.257,0,0,1-.151-.049l-1.2-.864a.259.259,0,0,1,.3-.421l1.2.864a.259.259,0,0,1-.152.47Z" transform="translate(-1255.216 -3334.905)" fill="#fff"/></g><g transform="translate(4.932 109.36)"><path d="M732.817,3262.824a10.993,10.993,0,0,0,8.282,9.042l1.15-1.073s-7.147-1.72-8.423-8.91Z" transform="translate(-732.817 -3261.882)" fill="#011721"/></g><g transform="translate(64.737 34.434)"><path d="M1886.677,1838.681l4.625,4.955c2.329,2.5,17.123-7.527,33.043-22.386l-4.625-4.955C1903.8,1831.154,1889.006,1841.176,1886.677,1838.681Z" transform="translate(-1886.677 -1816.295)" fill="#961717"/></g><g transform="translate(45.969 70.965)"><path d="M1524.578,2522.141s3.752,5.763,8.675,8.675l1.114-1.04a33.239,33.239,0,0,1-8.679-8.671Z" transform="translate(-1524.578 -2521.106)" fill="#011721"/></g><g transform="translate(26.574 35.673)"><path d="M1163.484,1871.166c.661-5.97,1.177-12.04,1.456-17.991.047-1.006.136-2.01.277-3.007l.234-1.656a4.37,4.37,0,0,1,3.6-3.7l27.169-4.618-27.511,3.038s-10.663,1.3-15.267,14.886a58.839,58.839,0,0,0-3.055,13.275C1152.391,1872.381,1156.542,1873.454,1163.484,1871.166Z" transform="translate(-1150.381 -1840.196)" fill="#eaeaea"/></g><g transform="translate(32.5 39.092)"><path d="M1264.7,1909.763s2.971,14.994,21.369,25.407l1.395-1.744s-11.606-12.583-15.209-27.267Z" transform="translate(-1264.698 -1906.16)" fill="#fff"/></g><g transform="translate(34.582 48.616)"><path d="M1310.855,2098.939a.259.259,0,0,1-.195-.088c-.041-.047-4.115-4.7-5.772-8.571a.259.259,0,0,1,.476-.2c1.625,3.791,5.645,8.386,5.685,8.433a.259.259,0,0,1-.195.43Z" transform="translate(-1304.867 -2089.918)" fill="#011721"/></g><g transform="translate(37.279 35.198)"><path d="M1356.911,1831.034s6.883,14.338,18.506,12.516l1.435.677-1.377,1.743S1362.814,1847.83,1356.911,1831.034Z" transform="translate(-1356.911 -1831.034)" fill="#011721"/></g><g transform="translate(54.983 48.179)"><path d="M1698.622,2083.133h-.007a.129.129,0,0,1-.122-.137l.077-1.386a.127.127,0,0,1,.137-.122.13.13,0,0,1,.122.137l-.078,1.386A.129.129,0,0,1,1698.622,2083.133Z" transform="translate(-1698.492 -2081.488)" fill="#fff"/></g></g><g transform="translate(99.693 56.81)"><path d="M2609.869,1192.1s6.367,6.742,41.824,21.53c0,0-25.888,41.879-46.948,59.579,0,0-12.628,2.677-43.652-21.538C2561.094,1251.667,2591.742,1224.662,2609.869,1192.1Z" transform="translate(-2561.094 -1192.096)" fill="#fff"/><g transform="translate(20.096 16.831)"><g transform="translate(27.776)"><g transform="translate(0 2.799)"><path d="M3490.071,1579.8a.129.129,0,0,1-.065-.017l-5.232-3.037a.131.131,0,0,1-.061-.085.129.129,0,0,1,.021-.1l2.486-3.464c1.383-1.927,3.725-2.787,5.226-1.917a2.382,2.382,0,0,1,1.131,1.616,4.574,4.574,0,0,1-.915,3.489l-2.486,3.464A.129.129,0,0,1,3490.071,1579.8Zm-5.043-3.207,5.007,2.906,2.417-3.368a4.315,4.315,0,0,0,.872-3.283,2.126,2.126,0,0,0-1.008-1.447c-1.386-.805-3.577.023-4.885,1.844Z" transform="translate(-3484.71 -1570.84)" fill="#011721"/></g><g transform="translate(7.259)"><path d="M3625.855,1520.1a1.138,1.138,0,0,1-.576-.146,1.037,1.037,0,0,1-.494-.7,1.927,1.927,0,0,1,.382-1.471,1.828,1.828,0,0,1,2.213-.8,1.037,1.037,0,0,1,.494.7,1.927,1.927,0,0,1-.382,1.471h0A2.139,2.139,0,0,1,3625.855,1520.1Zm.941-3.009a1.878,1.878,0,0,0-1.418.839,1.664,1.664,0,0,0-.339,1.265.781.781,0,0,0,.37.534,1.574,1.574,0,0,0,1.873-.723,1.665,1.665,0,0,0,.339-1.266.783.783,0,0,0-.371-.534A.892.892,0,0,0,3626.8,1517.088Z" transform="translate(-3624.756 -1516.832)" fill="#011721"/></g></g><g transform="translate(50.573 7.045)"><path d="M3930.153,1655.7a.132.132,0,0,1-.057-.013l-5.474-2.689a.13.13,0,0,1-.059-.174.131.131,0,0,1,.174-.059l5.474,2.689a.13.13,0,0,1-.057.246Z" transform="translate(-3924.55 -1652.75)" fill="#011721"/></g><g transform="translate(49.705 8.424)"><path d="M3913.4,1682.311a.13.13,0,0,1-.057-.013l-5.474-2.689a.13.13,0,0,1-.059-.174.132.132,0,0,1,.174-.059l5.474,2.689a.13.13,0,0,1-.057.246Z" transform="translate(-3907.792 -1679.363)" fill="#011721"/></g><g transform="translate(20.769 14.871)"><path d="M3369.79,1815.353a.131.131,0,0,1-.064-.017l-20.147-11.347a.13.13,0,0,1,.127-.226l20.147,11.347a.13.13,0,0,1-.064.242Z" transform="translate(-3349.513 -1803.747)" fill="#011721"/></g><g transform="translate(18.886 17.431)"><path d="M3333.035,1864.616a.128.128,0,0,1-.064-.017l-19.721-11.214a.131.131,0,0,1-.049-.177.129.129,0,0,1,.177-.049l19.721,11.214a.13.13,0,0,1-.064.242Z" transform="translate(-3313.185 -1853.142)" fill="#011721"/></g><g transform="translate(1.238 38.927)"><path d="M2992.546,2279.336a.129.129,0,0,1-.064-.017l-19.72-11.213a.13.13,0,0,1-.049-.177.129.129,0,0,1,.177-.048l19.721,11.213a.13.13,0,0,1-.064.242Z" transform="translate(-2972.696 -2267.863)" fill="#011721"/></g><g transform="translate(0 40.523)"><path d="M2960.822,2305.678a.13.13,0,0,1-.064-.017l-11.883-6.758a.13.13,0,1,1,.129-.225l11.883,6.757a.13.13,0,0,1-.064.242Z" transform="translate(-2948.81 -2298.661)" fill="#011721"/></g><g transform="translate(15.977 31.883)"><g transform="translate(8.735)"><path d="M3433.888,2136.96a.128.128,0,0,1-.065-.017l-8.17-4.739a.129.129,0,1,1,.129-.224l8.17,4.739a.129.129,0,0,1-.064.241Z" transform="translate(-3425.588 -2131.962)" fill="#011721"/></g><g transform="translate(7.279 1.541)"><path d="M3405.8,2166.7a.128.128,0,0,1-.065-.017l-8.169-4.738a.13.13,0,0,1,.13-.224l8.169,4.739a.13.13,0,0,1-.065.241Z" transform="translate(-3397.502 -2161.699)" fill="#011721"/></g><g transform="translate(5.823 3.083)"><path d="M3377.715,2196.435a.126.126,0,0,1-.065-.018l-8.169-4.738a.13.13,0,0,1-.047-.177.129.129,0,0,1,.177-.047l8.169,4.738a.13.13,0,0,1-.065.242Z" transform="translate(-3369.416 -2191.437)" fill="#011721"/></g><g transform="translate(4.368 4.624)"><path d="M3349.63,2226.174a.127.127,0,0,1-.065-.018l-8.169-4.739a.129.129,0,0,1,.13-.224l8.169,4.739a.13.13,0,0,1-.065.242Z" transform="translate(-3341.331 -2221.176)" fill="#011721"/></g><g transform="translate(2.912 6.165)"><path d="M3321.543,2255.91a.13.13,0,0,1-.065-.018l-8.169-4.738a.13.13,0,0,1,.13-.224l8.169,4.739a.13.13,0,0,1-.065.242Z" transform="translate(-3313.244 -2250.912)" fill="#011721"/></g><g transform="translate(1.456 7.707)"><path d="M3293.448,2285.656a.13.13,0,0,1-.065-.017l-8.17-4.739a.13.13,0,0,1,.129-.224l8.17,4.739a.13.13,0,0,1-.065.242Z" transform="translate(-3285.148 -2280.659)" fill="#011721"/></g><g transform="translate(0 9.248)"><path d="M3265.362,2315.395a.127.127,0,0,1-.065-.018l-8.17-4.738a.13.13,0,0,1,.13-.224l8.169,4.738a.13.13,0,0,1-.065.242Z" transform="translate(-3257.063 -2310.397)" fill="#011721"/></g></g><g transform="translate(4.72 25.018)"><g transform="translate(8.735)"><path d="M3216.7,2004.513a.128.128,0,0,1-.065-.017l-8.169-4.738a.129.129,0,0,1-.047-.177.128.128,0,0,1,.177-.047l8.169,4.738a.13.13,0,0,1-.065.242Z" transform="translate(-3208.401 -1999.516)" fill="#011721"/></g><g transform="translate(7.279 1.542)"><path d="M3188.614,2034.26a.128.128,0,0,1-.065-.017l-8.169-4.739a.129.129,0,0,1,.13-.224l8.169,4.738a.13.13,0,0,1-.065.242Z" transform="translate(-3180.315 -2029.262)" fill="#011721"/></g><g transform="translate(5.823 3.083)"><path d="M3160.527,2064a.131.131,0,0,1-.065-.017l-8.169-4.738a.13.13,0,0,1,.13-.225l8.169,4.739a.13.13,0,0,1-.065.241Z" transform="translate(-3152.229 -2058.999)" fill="#011721"/></g><g transform="translate(4.368 4.624)"><path d="M3132.441,2093.734a.131.131,0,0,1-.065-.017l-8.169-4.739a.13.13,0,0,1,.13-.224l8.169,4.738a.13.13,0,0,1-.065.242Z" transform="translate(-3124.143 -2088.736)" fill="#011721"/></g><g transform="translate(2.911 6.166)"><path d="M3104.346,2123.473a.124.124,0,0,1-.065-.018l-8.17-4.738a.129.129,0,1,1,.129-.224l8.17,4.738a.13.13,0,0,1-.065.242Z" transform="translate(-3096.047 -2118.475)" fill="#011721"/></g><g transform="translate(1.456 7.707)"><path d="M3076.26,2153.209a.127.127,0,0,1-.065-.018l-8.169-4.738a.129.129,0,1,1,.13-.224l8.169,4.738a.13.13,0,0,1-.065.242Z" transform="translate(-3067.961 -2148.212)" fill="#011721"/></g><g transform="translate(0 9.249)"><path d="M3048.174,2182.956a.129.129,0,0,1-.065-.017l-8.169-4.738a.13.13,0,0,1,.129-.225l8.169,4.739a.129.129,0,0,1-.065.241Z" transform="translate(-3039.875 -2177.958)" fill="#011721"/></g></g></g></g><g transform="translate(53.869 148.603)"><g transform="translate(47.315 37.355)"><path d="M2635.1,3688.306l-9.525,6.981-35.72-4.7,12.332-6.761Z" transform="translate(-2589.852 -3683.824)" fill="#fff"/></g><g transform="translate(24.437 24.7)"><path d="M2148.461,3440.975l6.549,5.732,34.955-1.764-7.654-5.291Z" transform="translate(-2148.461 -3439.652)" fill="#fff"/></g><g transform="translate(3.515 35.576)"><path d="M1779.508,3653.9l-22.566,3.919-12.133-5.193,20.638-3.135Z" transform="translate(-1744.809 -3649.486)" fill="#d3463c"/></g><g transform="translate(0 29.427)"><path d="M1698.305,3540.147l16.9-3.332-18.71-5.952-19.5,2.425Z" transform="translate(-1676.987 -3530.864)" fill="#fff"/></g><g transform="translate(55.054 0.882)"><path d="M2753.629,3004.6l.056-1.372,1.7-3.723.114-2.2.113-1.96-1.021-1.519,1.248-1.029-.17-.98-.227-1.567,2.155-.637,24.619-1.951-.324-.646v-3.552l.68-.588.538-.465-1.825-2.278-35.852,3.627-2.125-.3-.113,1.739.17.979-1.247,1.029,1.021,1.519-.113,1.959-.113,2.205-1.7,3.723-.057,1.372-1.984,5.487v5.291l1.417,1.225,12.474,6.614Z" transform="translate(-2739.171 -2980.125)" fill="#d3463c"/></g><g transform="translate(67.528 7.496)"><path d="M3021.946,3107.728l1.825,2.278-.539.466-.68.588v3.552l.369.735-.114,1.372-1.531,1.127.4,9.161-1.7,6.026-38.725,4.556-1.417-1.225v-5.291l1.984-5.487.057-1.372,1.7-3.723.113-2.2.113-1.96-1.021-1.519,1.247-1.029-.17-.979-.227-1.568,2.154-.637Z" transform="translate(-2979.83 -3107.728)" fill="#f4716e"/></g><g transform="translate(59.193)"><path d="M2819.026,2967.323l10.886,5.34s1.928.882,2.211,5.095c0,0,29.6-3.723,39.8-4.213a8.546,8.546,0,0,0-5.5-5.83l-10.206-4.605Z" transform="translate(-2819.026 -2963.109)" fill="#fff"/></g><g transform="translate(68.945 37.355)"><path d="M3007.178,3683.824" transform="translate(-3007.178 -3683.824)" fill="#c4c4c4"/></g><g transform="translate(58.002 6.932)"><path d="M2796.054,3097.883l12.473,6.614,1.247-1.029-12.473-6.614Z" transform="translate(-2796.054 -3096.854)" fill="#f4716e"/></g><g transform="translate(57.074 17.367)"><path d="M2790.647,3304.8l-12.474-6.614-.021.5,12.466,6.833Z" transform="translate(-2778.153 -3298.182)" fill="#f4716e"/></g><g transform="translate(71.423 14.379)"><path d="M3094.177,3241.26l-39.2,2.254.025-.433,38.8-2.556Z" transform="translate(-3054.981 -3240.525)" fill="#ff8585"/></g><g transform="translate(55.054 24.226)"><path d="M2751.644,3437.124l-12.474-6.614v5.291l1.417,1.225,12.474,6.614-1.417-1.225Z" transform="translate(-2739.171 -3430.51)" fill="#c13633"/></g></g><g transform="translate(1.519 182.542)"><path d="M717.852,3618.179H667.107a.13.13,0,0,1,0-.259h50.746a.13.13,0,0,1,0,.259Z" transform="translate(-666.977 -3617.92)" fill="#011721"/></g><g transform="translate(39.785 170.899)"><path d="M1433.567,3393.531h-28.174a.13.13,0,0,1,0-.259h28.174a.13.13,0,0,1,0,.259Z" transform="translate(-1405.264 -3393.272)" fill="#011721"/></g><g transform="translate(146.618 185.829)"><path d="M3494.739,3681.587h-28.174a.13.13,0,0,1,0-.259h28.174a.13.13,0,0,1,0,.259Z" transform="translate(-3466.435 -3681.328)" fill="#011721"/></g><g transform="translate(177.714 77.947)"><path d="M4066.451,1623.183a.065.065,0,0,1-.052-.1c.074-.1,7.474-10.2,15.271-23.141a.064.064,0,0,1,.089-.022.065.065,0,0,1,.022.089c-7.8,12.945-15.2,23.051-15.278,23.151A.065.065,0,0,1,4066.451,1623.183Z" transform="translate(-4066.386 -1599.907)" fill="#fff"/></g><g transform="translate(112.997 127.547)"><path d="M2849.123,2569.5h-.007a63.341,63.341,0,0,1-22.512-6.952,57.061,57.061,0,0,1-8.808-5.567.065.065,0,1,1,.082-.1,56.971,56.971,0,0,0,8.79,5.554,63.2,63.2,0,0,0,22.461,6.936.065.065,0,0,1-.006.129Z" transform="translate(-2817.772 -2556.861)" fill="#fff"/></g><g transform="translate(88.585 59.484)"><path d="M2346.853,1261.532a.065.065,0,0,1-.041-.115c11.7-9.708,22.222-17.631,22.326-17.71a.066.066,0,0,1,.091.013.065.065,0,0,1-.013.091c-.1.079-10.625,8-22.322,17.706A.064.064,0,0,1,2346.853,1261.532Z" transform="translate(-2346.788 -1243.695)" fill="#fff"/></g><g transform="translate(2.248 172.825)"><path d="M684.961,3437.929a6.485,6.485,0,0,1-3.909-1.209.065.065,0,0,1-.008-.091.066.066,0,0,1,.091-.008c.032.027,3.234,2.642,8.1,0l6.414-6.162a.065.065,0,0,1,.092,0,.064.064,0,0,1,0,.091l-6.42,6.169a.054.054,0,0,1-.014.01A9.032,9.032,0,0,1,684.961,3437.929Z" transform="translate(-681.03 -3430.437)" fill="#fff"/></g></g><g transform="translate(2184 427)"><rect width="232" height="8" rx="4" transform="translate(-1165 -44)" fill="#e2626a"/><text transform="translate(-1165 -42)" fill="#fff" font-size="20" font-family="GenYoGothicTW-Medium, GenYoGothic TW" font-weight="500"><tspan x="0" y="0">YOUTH </tspan><tspan y="0">職涯就業諮詢平台</tspan></text></g><rect width="86" height="22" rx="11" transform="translate(1019 335)" fill="rgba(255,255,255,0)"/><path d="M11,1a10,10,0,0,0,0,20H75A10,10,0,0,0,75,1H11m0-1H75a11,11,0,0,1,0,22H11A11,11,0,0,1,11,0Z" transform="translate(1019 335)" fill="rgba(255,255,255,0.7)"/><text transform="translate(1027 351)" fill="#fff" font-size="14" font-family="GenYoGothicTW-Medium, GenYoGothic TW" font-weight="500"><tspan x="0" y="0">台灣就業通</tspan></text><g transform="translate(2296 443)"><rect width="120" height="10" rx="5" transform="translate(-1165 -7)" fill="#690208"/><text transform="translate(-1165 -5)" fill="#fff" font-size="30" font-family="GenYoGothicTW-Bold, GenYoGothic TW" font-weight="700"><tspan x="0" y="0">上線啦！</tspan></text></g></g></svg>