<svg xmlns="http://www.w3.org/2000/svg" width="160.743" height="144.536" viewBox="0 0 160.743 144.536"><g transform="translate(0.451 0.536)"><g transform="translate(8.877 0)" opacity="0.44"><path d="M39.258,126.187a94.736,94.736,0,0,1,12.231-22.872q-18.32,1.84-36.71,2.217c-1.7.046-3.293-2.179-2.127-3.695A143.186,143.186,0,0,1,32.787,80.5L2.528,78.438C.846,78.322-.777,76.367.4,74.732a60.189,60.189,0,0,1,11.357-11.9c.089-.012.174-.03.263-.044,5.243-.8,10.386-1.345,15.7-1.637,3.61-.2,16.7-1.037,19.845-.911.361.014.812.041,1.305.041-.259.765-.606,1.817-.97,2.982l-.247.107.106-.308a19.573,19.573,0,0,0-6.678-.4c-2.615.315-4.906,2.354-4.275,5.335a4.577,4.577,0,0,0,1.024,1.84l-.526-.368a5.9,5.9,0,0,0-1.112,5.171,3.88,3.88,0,0,0,.246.591,4.689,4.689,0,0,0,.867,4.945c-1.164,4.078,2.086,7.156,5.375,7.563l-.448.041s-.456,3.467-.657,4.679c-.327,1.967-.055,3.028,1.971,3.5,1.548.357,3.1.517,4.1-.786a8.807,8.807,0,0,0,1.177-2.386,19.1,19.1,0,0,0,5.526,1.43,9.248,9.248,0,0,1,1.015,3.417l.33.109a7.646,7.646,0,0,1-1.232.138s1.17,6.081,1.561,7.963a3.67,3.67,0,0,0,1.148,2.11c-1.8,1.166-2.322,4.6-2.435,6.158-.24,3.242,1.064,4.533,2.893,6.794-1.557.4-2,4.075-2.078,5.151-.017.222-.027.444-.041.68-4.411.9-8.836,1.7-13.226,2.482a2.621,2.621,0,0,1-.46.04C40.267,129.256,38.611,127.938,39.258,126.187Zm37.68-23.992c-.6-.554-2.15-1.454-2.839-1.179l-.291.12a7.777,7.777,0,0,0-.564-3.2c-.961-3.2-2.142-6.336-3.322-9.439-.141.161-.289.328-.437.493l-.18-.719C67.535,80.095,64.268,72.35,57.4,67.443l-.141-.288c1.09-2.26,2.293-4.712,3.16-6.649,3.312.072,6.206.155,7.313.266,1.9.19,8.893,1.887,10.687,2.379s3.993-3.764,4.926-6.649,2.295-6.006.148-7.417a27.775,27.775,0,0,0-9.112-3.5C65.6,38.977,36.1,20.174,29.318,15.923a245.574,245.574,0,0,1,26.671,8.688A208.511,208.511,0,0,0,45.464,3.782c-.979-1.7.7-4.487,2.781-3.618A173.7,173.7,0,0,1,91.545,26.2a50.247,50.247,0,0,0-.264-11.541,2.487,2.487,0,0,1,4.115-2.4l11.478,8.948c3.557,2.764,7.212,5.435,10.589,8.405,3.632,3.192,6.991,7.389,8.527,12.037a11.583,11.583,0,0,1-4.8-2.59.749.749,0,0,0-1.264.522A10.51,10.51,0,0,0,122.6,46.04c-4.868-1.041-11.359-2.506-14.388-2.982-4.157-.653-8.126-1.072-7.018.662s2.739,3.677,4.391,6.068a46.414,46.414,0,0,1,2.777,4.767c.817,1.515,1.079,2.11.307,3.516-1.615,2.959-3.469,5.66-4.816,8.8C101.488,72.381,98.536,77.682,97,83.462l-.02.044c-.15-.112-.293-.219-.426-.31-5.087,2.955-14.937,13.019-13.336,19.247a8.551,8.551,0,0,0-3.312,4.861A18.476,18.476,0,0,0,76.938,102.194Z" transform="translate(0)" fill="#febbc0" stroke="rgba(0,0,0,0)" stroke-miterlimit="10" stroke-width="1"/></g><g transform="translate(0 6.038)"><path d="M67.429,137.046c-2.035-2.07-3.455-6.235-3.872-8.376a33.144,33.144,0,0,1-.514-8.764,10.882,10.882,0,0,1,1.512-5.245,8.5,8.5,0,0,1-2.327-6.7c.1-1.354.482-4.3,1.951-6.18a5.66,5.66,0,0,1-.632-1.7c-.393-1.866-1.522-7.734-1.569-7.982A1.391,1.391,0,0,1,62.7,90.6c-.112-.363-.267-.746-.416-1.1a14.605,14.605,0,0,1-3.9-.743,7.168,7.168,0,0,1-.749,1.225,4.1,4.1,0,0,1-3.419,1.579,9.259,9.259,0,0,1-2.1-.288c-3.308-.765-3.356-3.116-3.03-5.079.126-.757.358-2.446.508-3.562a8.089,8.089,0,0,1-3.758-2.848,6.892,6.892,0,0,1-1.157-5.3,6.243,6.243,0,0,1-.458-.76,6,6,0,0,1-.379-4.443c-.032-.084-.062-.17-.09-.257a7.322,7.322,0,0,1,.9-5.861,4.282,4.282,0,0,1-.316-.92A5.453,5.453,0,0,1,45.2,57.83a6.158,6.158,0,0,1,2.419-1.973c-2.953.153-6.017.333-8.24.465-1.12.065-2.051.12-2.687.156-5.131.283-10.223.814-15.567,1.624a62.917,62.917,0,0,0-6.52,1.46c-.787.205-1.593.416-2.408.616l-.019.007a1.391,1.391,0,0,1-.232.055q-.49.119-.983.232a11.548,11.548,0,0,1-2.593.373c-1.683,0-3.256-.666-4.588-3.012A34.594,34.594,0,0,1,.461,47.567,39,39,0,0,1,.278,36.882l.047-.631a60.049,60.049,0,0,1,2.9-14.372,74.824,74.824,0,0,1,4.517-11.1c2.3-4.666,5.328-8.011,8.986-9.929A11.576,11.576,0,0,1,25.555.9c2.07,1.09,9.032,5.1,12.795,7.442,5.6,3.487,36.072,22.9,45.455,29.873a29.342,29.342,0,0,1,9.351,3.652c2.83,1.849,1.661,5.31.722,8.092-.1.306-.208.614-.306.918-.286.88-2.907,8.566-6.613,7.561-1.877-.51-8.713-2.162-10.461-2.337-.971-.1-3.423-.175-6.323-.24-.659,1.547-1.5,3.277-2.324,4.967,5.614,4.33,9.4,11,11.542,20.353a1.387,1.387,0,0,1,.726.772c1.28,3.365,2.416,6.405,3.354,9.533a19.686,19.686,0,0,1,.536,2.12,7.486,7.486,0,0,1,2.769,1.514,11.606,11.606,0,0,1,1.964,2.836A10.615,10.615,0,0,1,90.6,95.848c-.839-7.22,9.324-17.094,14.151-19.9a1.4,1.4,0,0,1,.13-.067A80.894,80.894,0,0,1,109.3,65.065c.731-1.568,1.486-3.19,2.175-4.793a52.678,52.678,0,0,1,3.211-6.034c.555-.94,1.13-1.912,1.662-2.888.423-.77.439-.8-.311-2.19a45.179,45.179,0,0,0-2.712-4.656c-.735-1.066-1.473-2.046-2.187-3-.819-1.09-1.594-2.119-2.217-3.094a2.011,2.011,0,0,1-.108-2.278c.838-1.281,2.827-1.4,8.513-.506,2.358.369,6.667,1.305,10.833,2.21l2.093.454a10.631,10.631,0,0,1-1.432-4.763.748.748,0,0,1,1.263-.521c2.064,2,4.908,2.662,7.617,3.359,1.477.379,2.94.746,4.432,1.012,1.361.243,2.748.315,4.112.562,2.185.391,4.139,1.5,4.836,3.713a5.325,5.325,0,0,1-.591,4.45c2.732,1.692,3.586,5.488,3.191,8.7,2.27.5,4.37,1.366,5.43,3.021a4.746,4.746,0,0,1,.342,4.258c-1.689,4.966-8.164,4.153-12.568,3.119-.955.792-1.938,1.541-2.9,2.271-.686,1.377-1.341,2.8-1.985,4.2-.327.71-.651,1.415-.976,2.106a75.5,75.5,0,0,0-3.207,7.881,1.4,1.4,0,0,1,.287.492,15.432,15.432,0,0,1,.515,3.237A13.608,13.608,0,0,0,139,88.026c.144.416.954,2.01,1.667,3.416,1.119,2.2,2.387,4.7,2.978,6.217.7,1.786,3.743,8.274,5.966,13.011,1.471,3.133,2.632,5.608,2.915,6.287.934,2.235,1.981,4.276,3.089,6.435.533,1.038,1.084,2.112,1.619,3.2a1.391,1.391,0,0,1-2.5,1.222c-.522-1.067-1.067-2.129-1.595-3.156-1.083-2.112-2.2-4.3-3.18-6.634-.26-.623-1.468-3.2-2.867-6.177-2.365-5.038-5.307-11.309-6.039-13.18-.543-1.389-1.832-3.929-2.869-5.971-1.027-2.024-1.617-3.2-1.814-3.761a14.971,14.971,0,0,1-.534-3.295c-.048-.517-.1-1.043-.16-1.512a91.1,91.1,0,0,1-15.622.234,29.212,29.212,0,0,1-10.4-2.526,24.223,24.223,0,0,1-3.787-2.611c-.172-.136-.34-.268-.5-.393-.373.247-.774.534-1.2.855a1.391,1.391,0,0,1,1.289,1.782c-.17.581-.461,1.317-.8,2.17-.668,1.687-2.232,5.639-1.511,6.633.911.282,4.232-2.53,5.485-3.589,1.793-1.518,2.854-2.39,3.779-2.656a1.39,1.39,0,0,1,1.774,1.31c.053,2.694.964,7.393,4.051,7.912,2.114.358,4.757-.747,6.56-1.607a48.814,48.814,0,0,0,5.877-3.488,1.39,1.39,0,1,1,1.583,2.285,51.544,51.544,0,0,1-6.239,3.7,17,17,0,0,1-6.938,1.957,7.893,7.893,0,0,1-1.3-.1c-3.751-.63-5.581-4.4-6.162-8.177-.4.328-.819.681-1.185.992-3.128,2.646-5.5,4.5-7.6,4.247a2.747,2.747,0,0,1-1.936-1.148c-1.618-2.229-.07-6.144,1.175-9.289.28-.708.525-1.329.671-1.781a40.4,40.4,0,0,0-5.393,5.572c-3.061,3.87-4.484,7.385-3.9,9.642a1.388,1.388,0,0,1-.491,1.442,7.222,7.222,0,0,0-2.688,3.662,54.975,54.975,0,0,1,3.334,9.73c.006.045.472,4.351-1.623,5.378-.53.26-1.611.5-2.889-.787-1.56-1.57-2.2-5.922-2.2-7.389a33.712,33.712,0,0,1,.434-6.7,15.843,15.843,0,0,0-2.449-4.226,4.829,4.829,0,0,0-1.214-.745,10.915,10.915,0,0,1-3.168,2.777l-.038.027a29.773,29.773,0,0,1-12.22,4.826,1.2,1.2,0,0,1-.177.016H68a4.374,4.374,0,0,1-1.759-.4A10.343,10.343,0,0,0,65,108.166c-.184,2.431.6,3.385,2.153,5.284.142.173.287.35.434.533a1.39,1.39,0,0,1-.7,2.211c-.393.287-.927,1.947-1.075,3.919a30.385,30.385,0,0,0,.471,8.026c.385,1.975,1.686,5.492,3.126,6.958a1.39,1.39,0,1,1-1.983,1.949ZM89.686,108.1a14.279,14.279,0,0,0,1.111,5,7.744,7.744,0,0,0,.06-1.851,27.47,27.47,0,0,0-1.166-3.946Q89.688,107.693,89.686,108.1ZM72.3,89.48l-.443.279a21.733,21.733,0,0,1-6.869,3.271c.371,1.921,1.01,5.2,1.279,6.479.313,1.516,1.287,1.744,1.684,1.772a26.955,26.955,0,0,0,10.939-4.349l.031-.021A8.7,8.7,0,0,0,81.3,94.963a6.362,6.362,0,0,0-.493-2.677c-.718-2.393-1.564-4.758-2.507-7.273A38.169,38.169,0,0,1,72.3,89.48Zm-8.989-2.7a1.392,1.392,0,0,1,1.21.872c.067.169.143.347.22.53a14.734,14.734,0,0,1,.683,1.853,24.248,24.248,0,0,0,4.945-2.627l.447-.282a33.509,33.509,0,0,0,6.028-4.583l0-.02c-1.935-8.936-5.2-15.062-10.232-19.134-.205.431-.406.858-.6,1.278a11.2,11.2,0,0,1,1.07,1.028,1.39,1.39,0,1,1-2.055,1.873A8.356,8.356,0,0,0,61.259,65.2c-2.423-.579-5.955-.618-6.341.815a1.173,1.173,0,0,0,.155.966c.776,1.3,3.539,2.547,5.868,3.1a1.391,1.391,0,0,1,.825,2.138,6.283,6.283,0,0,0-.781,2.582,1.454,1.454,0,0,1-.018.152,10.72,10.72,0,0,0,.107,3.333,9.024,9.024,0,0,0,1.3,2.809,5.2,5.2,0,0,0,1.3,1.2,1.39,1.39,0,0,1-1.517,2.33,7.941,7.941,0,0,1-1.484-1.246c-.1.19-.2.375-.3.554a13,13,0,0,0-.613,1.209c-.13.311-.254.656-.381,1.021A15.2,15.2,0,0,0,63.312,86.782ZM51.826,86.65c-.273,1.639-.069,1.687.912,1.913,1.756.406,2.316.2,2.688-.28a7.2,7.2,0,0,0,.917-1.86,1.38,1.38,0,0,1,.058-.162c.082-.229.163-.461.242-.691.174-.5.352-1.019.551-1.5a15.45,15.45,0,0,1,.743-1.481,6.864,6.864,0,0,0,.833-1.918,1.448,1.448,0,0,1,.082-.287,11.855,11.855,0,0,1-.472-1.412.3.3,0,0,1-.01-.039,9.721,9.721,0,0,1-.207-1.34,11.3,11.3,0,0,1-1.975.56,4.148,4.148,0,0,1-3.857,4.96C52.18,84.247,51.955,85.877,51.826,86.65Zm55.777-9.6a22.236,22.236,0,0,0,3.319,2.313,26.251,26.251,0,0,0,9.3,2.23,89.459,89.459,0,0,0,14.75-.177A74.733,74.733,0,0,1,138.5,72.6c.323-.684.643-1.383.967-2.086a78.182,78.182,0,0,1,4.071-8.026,1.391,1.391,0,0,1,1.553-.616l.047.012c2.863.784,10.471,2.863,11.679-.689a2,2,0,0,0-.05-1.864c-1.093-1.706-5.526-2.169-8.175-2.446-.455-.048-.873-.091-1.254-.137q-.96.736-1.984,1.385c-.567.38-1.22-.248-1.087-.834.535-2.338-.371-4.763.311-7.082a5.129,5.129,0,0,1,1.527-2.487c-.023-.05-.047-.1-.071-.147-4.07-1.6-9-3.069-12.544-5.757-1.687-.346-3.765-.8-5.923-1.266-4.128-.9-8.4-1.824-10.674-2.182a38.141,38.141,0,0,0-5.019-.556c.452.643.959,1.317,1.486,2.017.695.926,1.483,1.974,2.266,3.105a47.891,47.891,0,0,1,2.875,4.931c.892,1.653,1.395,2.789.286,4.811-.554,1.015-1.141,2.007-1.707,2.968a49.743,49.743,0,0,0-3.051,5.715c-.7,1.642-1.469,3.284-2.209,4.871a76.907,76.907,0,0,0-4.348,10.7ZM48.1,78.177a5.361,5.361,0,0,0,3.914,2.163,1.367,1.367,0,0,0,1.366-1.892q-.156,0-.308,0a10.141,10.141,0,0,1-2.695-.3A14.322,14.322,0,0,1,47.5,76.935,4.2,4.2,0,0,0,48.1,78.177Zm3.082-2.685a7.49,7.49,0,0,0,2.454.194,1.4,1.4,0,0,1,.619-.05c1.821-.188,3.627-.729,3.974-1.274a11.5,11.5,0,0,1,.447-2.045c-.341-.113-.714-.246-1.1-.4a3.556,3.556,0,0,1-1.46,1.532,6.874,6.874,0,0,1-3.391.751,12.7,12.7,0,0,1-4.634-.881,10.007,10.007,0,0,1-1.3-.685,3.743,3.743,0,0,0,.315.452,1.393,1.393,0,0,1,.236.269A8.868,8.868,0,0,0,51.186,75.492ZM46.4,68.174a5.027,5.027,0,0,0,2.807,2.6c1.339.589,4.309.968,5.52.268a.8.8,0,0,0,.358-.361,7.155,7.155,0,0,1-2.4-2.281,4.4,4.4,0,0,1-.244-.47q-.269.027-.544.027a6.981,6.981,0,0,1-3.1-.785,10.09,10.09,0,0,1-2.261-1.554A4.26,4.26,0,0,0,46.4,68.174ZM50.119,58a3.845,3.845,0,0,0-2.661,1.446,2.708,2.708,0,0,0-.41,2.221,6.082,6.082,0,0,0,2.989,3.011,3.911,3.911,0,0,0,2.234.471A3.971,3.971,0,0,1,54.759,62.6a2.287,2.287,0,0,0-.189-.289c-.025-.028-.049-.056-.071-.086a1.282,1.282,0,0,0-.309-.261,11.015,11.015,0,0,0-3.342-1.024,1.39,1.39,0,1,1,.529-2.73,16.433,16.433,0,0,1,3.378.933q.144-.513.3-1.024a18.058,18.058,0,0,0-2.889-.232A18.27,18.27,0,0,0,50.119,58Zm11.828,4.5.069.019a11.114,11.114,0,0,1,1.633.628c.516-1.109,1.073-2.253,1.618-3.369.68-1.4,1.334-2.738,1.9-3.98l-3.118-.058c-1.907-.035-3.75-.068-5.249-.1-.647,1.791-1.213,3.626-1.689,5.47a6.123,6.123,0,0,1,.454.947q.3-.014.6-.013A16.613,16.613,0,0,1,61.947,62.5ZM18.023,3.312C14.9,4.95,12.277,7.88,10.235,12.018a72.155,72.155,0,0,0-4.354,10.7A57.43,57.43,0,0,0,3.1,36.457l-.049.635a36.409,36.409,0,0,0,.139,9.933A32.061,32.061,0,0,0,6.2,56.457c1.027,1.809,1.745,1.863,4.138,1.3q.528-.121,1.055-.25c1.538-.628,6.214-5.578,8.924-11.107,1.134-2.315,2.169-4.739,3.051-7.12-1.435-.619-3.949-1.716-6.471-2.881-7.976-3.682-8.5-4.535-8.752-5.161a1.39,1.39,0,0,1-.059-.159l-.011-.039c-.513-1.741.491-6.6,1.868-7.695A2.24,2.24,0,0,1,10.68,23a1.39,1.39,0,0,1,.711-.154c2.406-.369,6.667.2,9.348.64.917.15,4.022.612,5.9.889a50.994,50.994,0,0,0,.016-5.456,54.276,54.276,0,0,0-2.32-12.242,1.39,1.39,0,1,1,2.654-.827,57.146,57.146,0,0,1,2.441,12.9,53.983,53.983,0,0,1-.115,7.2,1.433,1.433,0,0,1-.015.22c0,.017-.005.033-.008.05q-.207,2.346-.617,4.662a57.652,57.652,0,0,1-2.227,8.03c-.013.045-.029.09-.047.135a80.164,80.164,0,0,1-3.594,8.58,40.928,40.928,0,0,1-5.652,8.421c1.156-.27,2.336-.514,3.546-.7,5.433-.822,10.611-1.363,15.83-1.651.636-.035,1.563-.09,2.678-.156,5.474-.322,14.637-.863,17.3-.756,1.514.059,4.463.113,7.583.171,5.381.1,10.943.2,12.679.373.258.026.593.075.987.144A50.513,50.513,0,0,0,81.817,40.2C72.15,33.085,42.4,14.139,36.879,10.7,33.16,8.384,26.3,4.432,24.262,3.361a7.666,7.666,0,0,0-3.23-.585A7.11,7.11,0,0,0,18.023,3.312ZM80.574,54.045c2.768.607,6.013,1.415,7.043,1.691.667-.23,2.284-2.562,3.308-5.718.1-.315.209-.632.317-.949.858-2.539,1.349-4.25.393-4.874a26.109,26.109,0,0,0-7.151-2.97A53.862,53.862,0,0,1,80.574,54.045ZM24.281,36.656a51.618,51.618,0,0,0,1.661-6.274q.285-1.605.467-3.231c-1.865-.275-5.144-.762-6.121-.922a59.76,59.76,0,0,0-6.773-.718,5.485,5.485,0,0,1-.062,2.466,5.911,5.911,0,0,1-1.6,2.822C14.226,32.155,19.325,34.526,24.281,36.656Zm99.081,86.685a1.391,1.391,0,0,1-1.236-1.529l.031-.288c.139-1.3.28-2.624.312-3.93-.393.005-.708.009-.91.009-1.265,0-2.535-.042-3.763-.082-1.2-.04-2.438-.081-3.644-.081a1.391,1.391,0,0,1,0-2.782c1.251,0,2.515.042,3.736.082,1.2.04,2.452.081,3.671.081.174,0,.437,0,.766-.007-.045-.309-.1-.614-.171-.917a1.391,1.391,0,1,1,2.71-.624q.127.553.208,1.106v-.3a1.391,1.391,0,0,1,2.781,0v.633l2.458-.053h.032a1.391,1.391,0,0,1,.029,2.781l-2.519.054v.689a1.391,1.391,0,0,1-2.652.586c-.063,1.027-.172,2.045-.28,3.051l-.031.287a1.391,1.391,0,0,1-1.381,1.244A1.185,1.185,0,0,1,123.363,123.341Zm-22.608-2.911a1.391,1.391,0,0,1,.627-1.864c1.575-.78,1.481-3.357,1.251-5.929-.018-.193-.033-.376-.048-.548a4.283,4.283,0,0,1,2.115-4.276,7.218,7.218,0,0,0,.906-.749c2.084-2.137,2.762-6.012,3.36-9.429a42.982,42.982,0,0,1,.9-4.3,1.39,1.39,0,0,1,2.673.766c-.329,1.149-.573,2.538-.829,4.009-.668,3.815-1.425,8.139-4.109,10.894a9.753,9.753,0,0,1-1.244,1.043c-.85.627-1.078.8-1,1.814.015.164.029.341.046.525.219,2.438.626,6.977-2.783,8.67a1.389,1.389,0,0,1-1.863-.628Zm20.081-54.148a2.629,2.629,0,0,1-2.045-.96c-.773-.939-.981-2.459-.617-4.517a13.36,13.36,0,0,1,1.959-4.86,3.621,3.621,0,0,1,2.988-1.847,2.981,2.981,0,0,1,2.551,1.352c1.513,2.275.4,5.338.026,6.222-.591,1.392-2.236,4.611-4.8,4.611Zm1.643-8.846a10.642,10.642,0,0,0-1.571,3.87,4.437,4.437,0,0,0,0,2.2c.482-.019,1.505-1.208,2.231-2.918.507-1.191.77-2.763.219-3.594a.2.2,0,0,0-.182-.111h-.005C123.008,56.881,122.731,57.028,122.479,57.436Zm29.182,4.131a8.04,8.04,0,0,0-1.494-.111,1.39,1.39,0,0,1-.126-2.777,10.732,10.732,0,0,1,1.992.133,8.486,8.486,0,0,0,1.469.113,1.391,1.391,0,0,1,.1,2.78c-.091,0-.18,0-.269,0A12.133,12.133,0,0,1,151.661,61.567Zm-21.019-10.34a1.389,1.389,0,0,1,1.316-1.46l3.056-.158a1.39,1.39,0,1,1,.144,2.777l-3.055.157-.073,0A1.39,1.39,0,0,1,130.642,51.227Zm-5.073-2.453L124.4,46.555a1.39,1.39,0,0,1,2.462-1.293l1.164,2.219a1.39,1.39,0,0,1-2.461,1.293Z" transform="translate(0 0)" fill="#5c292c" stroke="#ffeeef" stroke-miterlimit="10" stroke-width="1"/></g></g></svg>