<svg xmlns="http://www.w3.org/2000/svg" xmlns:xlink="http://www.w3.org/1999/xlink" width="260" height="112" viewBox="0 0 260 112"><defs><linearGradient id="a" x1="1" y1="1" x2="0.035" gradientUnits="objectBoundingBox"><stop offset="0" stop-color="#fff"/><stop offset="1" stop-color="#d9480f" stop-opacity="0"/></linearGradient><clipPath id="b"><rect width="260" height="112" rx="4" fill="url(#a)"/></clipPath><linearGradient id="c" x1="1" y1="1" x2="0.035" gradientUnits="objectBoundingBox"><stop offset="0" stop-color="#fff"/><stop offset="1" stop-color="#e67700" stop-opacity="0"/></linearGradient><linearGradient id="d" x1="-0.04" y1="0.25" x2="1.025" y2="0.076" xlink:href="#c"/><linearGradient id="e" x1="0" x2="0.965" xlink:href="#c"/><clipPath id="f"><rect width="260" height="112" rx="2" transform="translate(415 1653.5)" fill="#ffe8cc"/></clipPath></defs><g transform="translate(-415 -1662)"><rect width="260" height="112" rx="4" transform="translate(415 1662)" fill="#ffe8cc"/><g transform="translate(415 1662)" opacity="0.36" clip-path="url(#b)"><g transform="translate(-36.683 -28)"><circle cx="40.5" cy="40.5" r="40.5" transform="translate(6.683)" fill="url(#c)"/><rect width="135" height="31" rx="15.5" transform="matrix(0.819, -0.574, 0.574, 0.819, 0, 186.433)" fill="url(#d)"/><circle cx="80" cy="80" r="80" transform="translate(162.683 29)" fill="url(#e)"/></g></g><g transform="translate(0 8.5)" clip-path="url(#f)"><g transform="translate(436.855 1654.51)"><g transform="translate(0)"><g transform="translate(0 21.241)" opacity="0" style="mix-blend-mode:multiply;isolation:isolate"><g transform="translate(0 0)"><g transform="translate(0 0)" opacity="0.5"><path d="M144.544,239.869V218.241l-16.634,16.032v26.659H117.195V222.726H114.47l-7.759-6.394-7.8,6.394h-2.68v51.559H56.8v28.082H170.528v-62.5ZM114.47,253.578H98.954v-1.4H114.47Zm0-2.79H98.954v-1.4H114.47Zm0-2.79H98.954V246.6H114.47Zm0-2.789H98.954v-1.395H114.47Zm0-2.787H98.954v-1.4H114.47Zm0-2.79H98.954v-1.4H114.47Zm0-2.789H98.954v-1.395H114.47Zm0-2.79H98.954V232.66H114.47Zm0-2.789H98.954V229.87H114.47Zm0-2.786H98.954v-1.4H114.47Zm0-2.79H98.954v-1.395H114.47Zm27.965,67.938h-1.61V224.99l1.61-1.556Z" transform="translate(-41.488 -216.332)" fill="#653d0f"/><path d="M309.033,239.869V218.241L292.4,234.273v26.659H281.684V222.726h-2.725l-7.759-6.394-7.8,6.394h-2.68v51.559H221.29v28.082H335.017v-62.5Zm-30.075,13.709H263.443v-1.4h15.515Zm0-2.79H263.443v-1.4h15.515Zm0-2.79H263.443V246.6h15.515Zm0-2.789H263.443v-1.395h15.515Zm0-2.787H263.443v-1.4h15.515Zm0-2.79H263.443v-1.4h15.515Zm0-2.789H263.443v-1.395h15.515Zm0-2.79H263.443V232.66h15.515Zm0-2.789H263.443V229.87h15.515Zm0-2.786H263.443v-1.4h15.515Zm0-2.79H263.443v-1.395h15.515Zm27.965,67.938h-1.61V224.99l1.61-1.556Z" transform="translate(-88.519 -216.332)" fill="#653d0f"/><path d="M224.065,279.384V230.5h-2.5v-4.946H202.245V230.5h-2.483v61.453H181.629V264.124H155.223v36.52H142.465V235.228H116.454v50.259H113.4V255.569h-4.7L95.58,249.46v6.109H92.711v36.949H86.342V242.481H79.9V224.927h-.882v17.554H72.578v63.177h167.76V279.384ZM84.789,274.633H74.163v-1.088H84.789Zm0-2.516H74.163v-1.087H84.789Zm0-2.52H74.163v-1.088H84.789Zm0-2.516H74.163v-1.087H84.789Zm0-2.516H74.163v-1.088H84.789Zm0-2.52H74.163v-1.088H84.789Zm0-2.517H74.163v-1.087H84.789Zm0-2.516H74.163v-1.088H84.789Zm0-2.52H74.163V253.4H84.789Zm0-2.516H74.163v-1.088H84.789Zm0-2.516H74.163v-1.088H84.789Zm0-2.52H74.163v-1.088H84.789Zm0-2.516H74.163v-1.088H84.789Zm37.268,14.985h-3.165v-2.787h3.165Zm0-4.649h-3.165v-2.79h3.165Zm0-4.653h-3.165V247.32h3.165Zm0-4.649h-3.165v-2.791h3.165Zm0-4.653h-3.165v-2.791h3.165Zm6.01,18.6h-3.16v-2.787h3.16Zm0-4.649h-3.16v-2.79h3.16Zm0-4.653h-3.16V247.32h3.16Zm0-4.649h-3.16v-2.791h3.16Zm0-4.653h-3.16v-2.791h3.16Zm6.013,18.6h-3.164v-2.787h3.164Zm0-4.649h-3.164v-2.79h3.164Zm0-4.653h-3.164V247.32h3.164Zm0-4.649h-3.164v-2.791h3.164Zm0-4.653h-3.164v-2.791h3.164Zm6.01,18.6h-3.16v-2.787h3.16Zm0-4.649h-3.16v-2.79h3.16Zm0-4.653h-3.16V247.32h3.16Zm0-4.649h-3.16v-2.791h3.16Zm86.464,56.93h-3.288v-2.9h3.288Zm0-5.807h-3.288v-2.9h3.288Zm0-5.806h-3.288v-2.9h3.288Zm0-5.807h-3.288v-2.9h3.288Zm6.1,17.42h-3.288v-2.9h3.288Zm0-5.807h-3.288v-2.9h3.288Zm0-5.806h-3.288v-2.9h3.288Zm0-5.807h-3.288v-2.9h3.288Zm6.1,17.42h-3.293v-2.9h3.293Zm0-5.807h-3.293v-2.9h3.293Zm0-5.806h-3.293v-2.9h3.293Zm0-5.807h-3.293v-2.9h3.293Z" transform="translate(-45.999 -219.514)" fill="#653d0f"/><path d="M332.121,274.19V230.5h-2.5v-4.946H310.3V230.5h-2.483v61.453H289.685V264.124H263.28v36.52H250.521V235.228h-26.01v50.259h-3.053V255.569h-4.7l-13.118-6.109v6.109h-2.869v36.949H194.4V242.481h-6.441V224.927h-.882v17.554h-6.441v63.177h167.76V274.19Zm-139.275.443H182.219v-1.088h10.627Zm0-2.516H182.219v-1.087h10.627Zm0-2.52H182.219v-1.088h10.627Zm0-2.516H182.219v-1.087h10.627Zm0-2.516H182.219v-1.088h10.627Zm0-2.52H182.219v-1.088h10.627Zm0-2.517H182.219v-1.087h10.627Zm0-2.516H182.219v-1.088h10.627Zm0-2.52H182.219V253.4h10.627Zm0-2.516H182.219v-1.088h10.627Zm0-2.516H182.219v-1.088h10.627Zm0-2.52H182.219v-1.088h10.627Zm0-2.516H182.219v-1.088h10.627Zm37.268,14.985h-3.165v-2.787h3.165Zm0-4.649h-3.165v-2.79h3.165Zm0-4.653h-3.165V247.32h3.165Zm0-4.649h-3.165v-2.791h3.165Zm0-4.653h-3.165v-2.791h3.165Zm6.01,18.6h-3.16v-2.787h3.16Zm0-4.649h-3.16v-2.79h3.16Zm0-4.653h-3.16V247.32h3.16Zm0-4.649h-3.16v-2.791h3.16Zm0-4.653h-3.16v-2.791h3.16Zm6.014,18.6h-3.165v-2.787h3.165Zm0-4.649h-3.165v-2.79h3.165Zm0-4.653h-3.165V247.32h3.165Zm0-4.649h-3.165v-2.791h3.165Zm0-4.653h-3.165v-2.791h3.165Zm6.01,18.6h-3.16v-2.787h3.16Zm0-4.649h-3.16v-2.79h3.16Zm0-4.653h-3.16V247.32h3.16Zm0-4.649h-3.16v-2.791h3.16Zm88.132,49.233H333.44v-2.5h2.839Zm0-5.013H333.44v-2.5h2.839Zm0-5.013H333.44v-2.5h2.839Zm0-5.013H333.44v-2.5h2.839Zm5.268,15.04h-2.839v-2.5h2.839Zm0-5.013h-2.839v-2.5h2.839Zm0-5.013h-2.839v-2.5h2.839Zm0-5.013h-2.839v-2.5h2.839Zm5.268,15.04h-2.843v-2.5h2.843Zm0-5.013h-2.843v-2.5h2.843Zm0-5.013h-2.843v-2.5h2.843Zm0-5.013h-2.843v-2.5h2.843Z" transform="translate(-76.895 -219.514)" fill="#653d0f"/><rect width="11.266" height="22.14" transform="translate(271.5 64.004)" fill="#653d0f"/><path d="M333.1,353.04H35.692a.318.318,0,0,1-.336-.3h0a.317.317,0,0,1,.336-.3H333.1a.317.317,0,0,1,.336.3h0A.318.318,0,0,1,333.1,353.04Z" transform="translate(-35.356 -266.731)" fill="#653d0f"/></g><path d="M146.325,373.79s-53.522-.119-83.16,2.75C42.8,378.511,38.1,388.593,50.343,392.306c34.671,10.517,98.254,1.391,97.313,9.315-.548,4.61-31.594,1.985-31.594,8.892,0,7.18,136.961,8.887,133.794-.691-2.266-6.854-32.889-4.789-35.582-10.683s72.7,1.584,81.685-8.227c5.772-6.3-15.608-15.017-99.635-13.65" transform="translate(-21.204 -272.57)" fill="#653d0f" opacity="0.761"/></g></g><g transform="translate(48.689 -8)"><g transform="translate(0)"><g opacity="0"><g transform="translate(21.42 122.825)"><path d="M105.444,389.767s-.942,2.736-1.213,3.423-2.3.055-2.42-.388a22.932,22.932,0,0,1,.8-3.71" transform="translate(-100.591 -389.091)" fill="#fcb6ac"/><path d="M100.633,394.252a6.98,6.98,0,0,0-.607,2.131c.1.366,2.673,1.46,3.25,1.811a7.224,7.224,0,0,0,1.862.707c1.713.307,3.026.009,3.157-.257.545-1.11-2.848-1.849-4.294-4.982a.693.693,0,0,0-.523.236,1.192,1.192,0,0,1-1.449.293,1.913,1.913,0,0,1-.713-.817A1.318,1.318,0,0,0,100.633,394.252Z" transform="translate(-100.012 -390.476)" fill="#47290e"/></g><g transform="translate(45.797 124.629)"><path d="M139.286,391.757s-.066,2.893-.116,3.629-2.176.753-2.423.366a22.932,22.932,0,0,1-.368-3.777" transform="translate(-136.147 -391.757)" fill="#fcb6ac"/><path d="M136.084,397.265a6.97,6.97,0,0,0,.069,2.215c.2.319,2.99.578,3.647.738a7.276,7.276,0,0,0,1.989.108c1.725-.229,2.886-.912,2.93-1.2.182-1.224-3.275-.9-5.6-3.441a.7.7,0,0,0-.428.384,1.191,1.191,0,0,1-1.291.719,1.9,1.9,0,0,1-.926-.561A1.314,1.314,0,0,0,136.084,397.265Z" transform="translate(-136.036 -393.025)" fill="#47290e"/></g><path d="M138.69,337.264c.476-6.218-1.675-25.709-1.884-27.386s-1.389-1.891-2.29-2.166c-4.5-1.353-9.829,5.622-8.409,11.885.02.1.047.209.076.317.845,3.628,5.615,15.284,5.28,18.654-2.612,7.053.352,21.666,1.246,27.812.11,0,.219,0,.319-.005a18.248,18.248,0,0,0,3.512-.386S138.214,343.481,138.69,337.264Z" transform="translate(-86.953 -239.903)" fill="#ff6a1f"/><path d="M133.724,343.575c.162-2.3-2.158-20.547-2.733-20.3a1,1,0,0,0-.413.454c-.48.825-.941,1.663-1.345,2.529a22.975,22.975,0,0,0-1.065,2.754c1.682,4.965,4.288,12.12,4.037,14.64-1.548,4.181-1.137,11.018-.359,17.174C131.546,352.728,133.594,345.407,133.724,343.575Z" transform="translate(-87.695 -244.989)" fill="#f25f1d"/><path d="M128.444,300.247a21.332,21.332,0,0,1-5.111.334c-4.321-.114-9.8-2.3-9.8-2.3-5.513,5.966-2.482,12.951-2.673,15.248s-.637,13.213-1.131,19.293c-5.589,5.474-5.793,20.029-7.429,27.68-.02.087-.039.174-.06.261a19,19,0,0,0,3.708,1.034l.217-.612c1.665-5.034,9.354-19.47,11.268-25.112,1.736-5.117,6.221-20.653,6.3-20.639l5.718.979A109.989,109.989,0,0,0,128.444,300.247Z" transform="translate(-79.313 -236.909)" fill="#ff6a1f"/><path d="M156.921,253.606s-.751,3.221-1.793,6.679c-1,3.316-2.267,6.862-3.39,7.972a2.306,2.306,0,0,1-2.558.812l-.061-.02a4.1,4.1,0,0,1-1.658-1.638,9.651,9.651,0,0,1-.9-1.9l2.078-3.607.853-1.482.805-1.4,3.817-6.618Z" transform="translate(-93.641 -222.077)" fill="#47290e"/><path d="M147.5,266.065a.208.208,0,0,0-.014.047,6.244,6.244,0,0,1-3.3,3.438l-.061-.02a29.935,29.935,0,0,1-6.821-3.2.007.007,0,0,0-.007-.007,9.386,9.386,0,0,1-.792-.609l-5.4-11.822s3.857.589,12.54,8.493Q145.426,264,147.5,266.065Z" transform="translate(-88.643 -222.559)" fill="#47290e"/><path d="M153.049,263.447c-1,3.316-2.267,6.862-3.39,7.972a2.306,2.306,0,0,1-2.558.812l-.061-.02a29.947,29.947,0,0,1-6.821-3.2.007.007,0,0,0-.007-.007c-.047-.2-.081-.345-.081-.345l.108-.954a35.753,35.753,0,0,0,5.143,2.869,5.5,5.5,0,0,0,2.639.6c.941-.162,1.759-1.232,2.382-2.375a18.29,18.29,0,0,0,1.232-2.984l-4.223-2.227.805-1.4,4.169.447S152.663,262.966,153.049,263.447Z" transform="translate(-91.562 -225.239)" fill="#351d0a"/><path d="M151.414,247.233l-4.9,9.657-40.732-20.66-3.79-1.922L68.36,217.248l4.9-9.657,29.451,14.935,5.211,2.646Z" transform="translate(-68.36 -207.591)" fill="#e8a77c"/><path d="M123.234,232.307l-1.665,10.482-.474.575-3.79-1.922a24.461,24.461,0,0,1-1.022-3.945s-.494-.162-.548-.494a.807.807,0,0,1,.338-.771,10.044,10.044,0,0,1,1.949-6.571Z" transform="translate(-83.673 -214.726)" fill="#d89671"/><g transform="translate(33.844 13.82)"><path d="M123.927,253.82l2.708,3.789.963.884.642-.642,1.968-1.96-.139-2.337a4.213,4.213,0,0,1-.652-1.284c-.028-.093-.057-.178-.085-.264-.078-.256-.143-.478-.149-.535a6.819,6.819,0,0,1-5.258-.954,7.824,7.824,0,0,1,.217,1.741A10.414,10.414,0,0,1,123.927,253.82Z" transform="translate(-120.166 -235.288)" fill="#ffb9b0"/><path d="M135.6,234.815a8.176,8.176,0,0,1,.554,3.365,3.585,3.585,0,0,1-1.337,2.96,1.492,1.492,0,0,1-1.673.175,1.659,1.659,0,0,1-.336-.342,5.8,5.8,0,0,1-1.1-4.765" transform="translate(-122.644 -230.212)" fill="#153351"/><path d="M127.273,246.476c.244-.026.842-.048,1.953-.234a2.7,2.7,0,0,0,2.028-2.547c.122-.979.321-6.039.321-6.039.723-6.1-7.826-5.243-9.192-4.511s-1.7,2.664-1.925,4.529a8.532,8.532,0,0,0,.448,2.862c.466,1.636,1.142,3.331,1.339,3.932h0A9.9,9.9,0,0,0,127.273,246.476Z" transform="translate(-119.041 -229.507)" fill="#ffb9b0"/><path d="M128.862,233.445c1.811.074,2.147.755,2.034-1.957-.066-1.583-.955-2.143-3.285-2.833-.96-.285-1-1.108-2.176-.286a6.287,6.287,0,0,1-2.383,1.079c-3.174.608-4.382,3.109-4.673,5.963,0,0-.3,6.482,3.828,8.188a28.184,28.184,0,0,0,.4-3.066s-1.611-1.178-1.553-2.3a.986.986,0,0,1,1.173-.859c.51.169.675.943.675.943a11.439,11.439,0,0,0,.558-2.181,1.811,1.811,0,0,0-.268-1.144C123.314,234.868,124.818,233.281,128.862,233.445Z" transform="translate(-118.372 -228.013)" fill="#153351"/></g><path d="M132.834,292.755l-.19.156a49.548,49.548,0,0,1-7.2.771,55.516,55.516,0,0,1-8.9-.379c-1.029-.122-1.509-.169-2.585-.372.548-3.465-.413-21.729-.359-21.8.068-.095-.061-3.248,0-6.381a30.065,30.065,0,0,1,.379-5,2.276,2.276,0,0,1,.48-1.164,41.661,41.661,0,0,1,6.05-4s5.563,2.9,6.084,0c2.808,1.049,4.128,4.426,4.778,6.686.284.988.541,2.017.765,3.072v.014C132.185,265,133.714,285.724,132.834,292.755Z" transform="translate(-82.981 -222.782)" fill="#47290e"/><path d="M121.537,270.273l-1.17,4.357a2.671,2.671,0,0,0,1.553-.388,5.135,5.135,0,0,0,2.02-2.684l-.457,3.664-3.13,1.649-2.58-1.649Z" transform="translate(-84.335 -227.855)" fill="#351d0a"/><path d="M132.849,293.251l-.189.156-3.417,2.815-3.438-1.854c-.014.169-.027.257-.027.257a65.189,65.189,0,0,1-11.8-1.2L113.63,279.1l4.608-8.54c2.241.636,3.4-.867,3.995-2.348a7.8,7.8,0,0,0,.274-4.782,10.709,10.709,0,0,0-5.056-6.511,3.84,3.84,0,0,1,1.245-.8c1.272.108,5.314,3.907,5.795,9.423l.805-.075,1.793-.162,5.062-.467v.013C132.2,265.492,133.729,286.22,132.849,293.251Z" transform="translate(-82.995 -223.278)" fill="#ff6a1f"/><path d="M113.939,308.051s10.335,1.756,19.091.085a6.16,6.16,0,0,1-.007,3.29s-11.371,1.586-19.105.229A6.988,6.988,0,0,1,113.939,308.051Z" transform="translate(-83.011 -240.068)" fill="#cc521b"/><g transform="translate(36.894 60.92)"><path d="M123.156,315.288h0a.842.842,0,0,1-.058-1.19l9.777-10.771,1.248,1.133-9.777,10.77A.842.842,0,0,1,123.156,315.288Z" transform="translate(-122.879 -299.46)" fill="#7a573d"/><path d="M141.831,302.28l-.416-.378a.629.629,0,0,0-.8-.036l-.573-.52.008-.006a.43.43,0,0,0,.023-.657l-2.532-2.3a3.07,3.07,0,0,0-4.2.147.133.133,0,0,0,.088.234,3.294,3.294,0,0,1,2.99,1.366l-.49.765a.43.43,0,0,0,.073.55l1.544,1.4a.43.43,0,0,0,.555.02l.159-.125.849.771a.627.627,0,0,0,.085.831l.416.378a.151.151,0,0,0,.213-.01l2.015-2.22A.151.151,0,0,0,141.831,302.28Z" transform="translate(-126.247 -297.613)" fill="#665b52"/></g><g transform="translate(40.258 65.85)"><path d="M129.68,304.9s1.136,1.147,1.882,1.789,1.806,1.206,1.9,2.5a4.5,4.5,0,0,1-1.607,2.622c-1.567,1.415-2.419.75-2.694.388a1.264,1.264,0,0,0,.4-1.444c-.35-.761-.5-.681-1.08-1.265-.876-.88-.378-2.13-.626-2.8C127.685,306.207,129.68,304.9,129.68,304.9Z" transform="translate(-127.851 -304.898)" fill="#ffb9b0"/></g><path d="M116.843,259.692" transform="translate(-84.034 -224.434)" fill="#fcb6ac"/><path d="M112.233,260.486s-7.914,15.465-3.966,20.315,12.79,11.678,12.79,11.678a7.217,7.217,0,0,0,1.125-.766,6.551,6.551,0,0,0,1.181-1.383s-8.374-10.752-9.649-12.96c0,0,4.242-9.114,4.79-11.851S115.485,258.244,112.233,260.486Z" transform="translate(-80.905 -224.496)" fill="#47290e"/><path d="M136.739,256.539s1.646,2.076,2.329,8.152l-1.451.21s-.713-7.38-2.594-9.232Z" transform="translate(-89.911 -223.134)" fill="#ff6a1f"/><g transform="translate(33.192 12.636)"><path d="M125,238.655s2.785,1.941,9,.129c.469-.137,2.222-1.218,0-1.956Z" transform="translate(-119.863 -229.679)" fill="#ffb41d"/><path d="M131.516,233h0c-.143-1.618-1-6.134-6.094-6.243-7.555-.16-8.251,4.733-7.715,8.473h0a.535.535,0,0,0-.292.539.445.445,0,0,0,.433.293,12.972,12.972,0,0,0,1.915-.157c2.859-.269,8.246-.922,11.493-2.218a.34.34,0,0,0,.289-.115C131.948,233.195,131.516,233,131.516,233Z" transform="translate(-117.408 -226.421)" fill="#ffb41d"/><path d="M123.2,227.178s5.816-.8,6.964,7.254a13.2,13.2,0,0,0,2.341-.637s-.554-6.2-5.21-7.2A3.947,3.947,0,0,0,123.2,227.178Z" transform="translate(-119.28 -226.263)" fill="#ffbf4d"/></g><g transform="translate(59.768 27.182)"><path d="M158.793,247.894a15.938,15.938,0,0,1-1.734.07c-.143,0-.323.018-.369.154a.348.348,0,0,0,.034.231.641.641,0,0,0,.332.3,4.017,4.017,0,0,0,1.442.556" transform="translate(-156.68 -247.802)" fill="#f4b5c7"/><path d="M163.123,250.312a2.412,2.412,0,0,1-4.42-1.93c.4-.914,1.482-.695,2.7-.162S163.523,249.4,163.123,250.312Z" transform="translate(-157.288 -247.758)" fill="#ffb9b0"/></g><path d="M118.067,308.136a10.237,10.237,0,0,0,0,4.068c.286,1.119.631.806.508,0a11.485,11.485,0,0,1-.057-2.077,14.122,14.122,0,0,1,.2-2.076" transform="translate(-84.361 -240.068)" fill="#ff6a1f"/><path d="M124.254,308.806a10.248,10.248,0,0,0,0,4.068c.286,1.119.632.806.508,0a11.48,11.48,0,0,1-.056-2.076,14.146,14.146,0,0,1,.2-2.077" transform="translate(-86.361 -240.284)" fill="#ff6a1f"/><path d="M138.693,308.136a10.252,10.252,0,0,1,0,4.068c-.286,1.119-.632.806-.507,0a11.5,11.5,0,0,0,.056-2.077,14.124,14.124,0,0,0-.2-2.076" transform="translate(-90.887 -240.068)" fill="#ff6a1f"/></g><g transform="translate(74.02 10.48)" opacity="0"><g transform="translate(21.491 34.187)"><path d="M229.028,300.948a9.594,9.594,0,0,0,1.925,1.846,8.434,8.434,0,0,1,1.835,1.04,6.193,6.193,0,0,1,.587,1.292c.05.28.171,1.206-.043,1.3s.189.621-.022.869a.681.681,0,0,1-.831.188c-.252-.151-.519.189-.73.125a3.013,3.013,0,0,0-.537-.2c-.179-.013-.233.23-.62.1-.355-.122-.331-.229-.5-.3s-.243.073-.521-.156a4.463,4.463,0,0,1-.784-1.068,3.39,3.39,0,0,1-.437-1.567c-.047-.689-1.169-1.43-2.026-2.253Z" transform="translate(-214.936 -282.438)" fill="#ffb9b0"/><path d="M217.924,283.807a36.072,36.072,0,0,1,2.131,3.165c.754,1.34,5.988,8.619,5.988,8.619l-1.421,1.942s-7.777-6.195-9.2-9.188c-.541-1.139.233-6.558.233-6.558Z" transform="translate(-211.351 -276.243)" fill="#ffb9b0"/><path d="M214.972,273.6s1.48,6.76,1.358,8.744-2.762,3.357-2.762,3.357a50.2,50.2,0,0,1-4.071-10.269" transform="translate(-209.498 -273.595)" fill="#ffb9b0"/></g><path d="M211.8,255.109s1.986,1,2.954,6.61l1.076,6.926s-.56.9-4.907.943" transform="translate(-188.469 -233.432)" fill="#351d0a"/><g transform="translate(0 19.762)"><g transform="translate(0 95.191)" opacity="0.8" style="mix-blend-mode:multiply;isolation:isolate"><path d="M177.741,392.945l.007.008h-.007Z" transform="translate(-177.741 -392.945)" fill="#65b0c4"/></g><g transform="translate(2.308)"><path d="M182.8,258.408a24.722,24.722,0,0,0,.455,3.857,69.368,69.368,0,0,0,3.505,11.624,9.407,9.407,0,0,1,.423,5.427c-.8,3.6.109,3.838.109,3.838a46.137,46.137,0,0,0,8.933,4.357c2.582.807,4.831.776,5.241-1.506a3.234,3.234,0,0,0,.051-.371c.48-.1.449-.589.41-.788-.013-.064-.032-.224-.051-.4-.038-.282-.07-.622-.07-.731-.141-7.209,1.077-6.837,1.448-14.911.384-8.286-.827-12.32-1.021-14.731a31.633,31.633,0,0,0-6.013-1.6,14.25,14.25,0,0,0-4.965.055c-.89.173-1.912.405-2.854.628C184.162,254.154,182.771,255.275,182.8,258.408Z" transform="translate(-181.685 -252.279)" fill="#351d0a"/><path d="M181.518,389.242s.224,4.009.225,4.538c0,.3,1.968.626,2.876,0,.088-1.475.552-4.531.582-5.407" transform="translate(-181.27 -296.276)" fill="#ffbe9d"/><path d="M186.614,315.751s-5.554-9.477,1.96-17.844a33.5,33.5,0,0,0,9.31,2.594,20.484,20.484,0,0,0,4.916-.118,83.112,83.112,0,0,1,1.114,16.253Z" transform="translate(-182.279 -267.03)" fill="#ffb41d"/><path d="M206.124,387.643l.49,5.924,1.51.655,1.357-.677.223-5.261" transform="translate(-189.225 -296.04)" fill="#ffbe9d"/><path d="M181.154,347.882c.557.477,3.773.818,3.978-.152.629-5.832,4.122-21.933,5.307-26.953,0-.014.005-.026.008-.04,1.1-4.083,2.34-10.455,3.031-14.881.942,4.51,2.436,10.384,3.439,14.159-3.127,7.742.045,19,1.127,28.026a4.006,4.006,0,0,0,3.938-.135c-.008-10.455,1.2-22.161,1.427-27.277a8.057,8.057,0,0,0-.024-.891,12.3,12.3,0,0,0-.024-1.607c-.026-.415.02-13.444-.018-19.032h0c-.009-1.276-.022-2.165-.041-2.426-.011-.147-.032-.3-.057-.454-.157-4.7-.447-13.79-.447-16.8,0-4.71.416-14.5.066-17.875-.111-2.216-.333-5.9-.587-7.038a4.464,4.464,0,0,0-1.48-.444,45.072,45.072,0,0,1,.148,6.878c-.052-.009-3.515-.683-10.39.174a49.329,49.329,0,0,0-2.156-7.8,9.2,9.2,0,0,0-1.88.48s1.626,6.955.61,10.508-3.235,2.228-3.759,1.234c.294,4.379,2.664,12.3,2.188,16.23-.377,3.114-1.2,5.02-1.812,8.052a14.357,14.357,0,0,0-.311,4.619c.1.771.336,1.6.366,2.057.2,3.075.815,18.89.38,22.182-.017.129-.026.248-.039.371l-.006.011c-3.265,6.159-2.709,20.167-2.923,27.019C181.215,346.157,181.138,347.819,181.154,347.882Z" transform="translate(-181.152 -252.613)" fill="#ff6a1f"/><path d="M202.776,359.524c.724,7.623.9,8.248.9,8.248-1.024-8.539-3.9-18.663-1.577-26.714a5.342,5.342,0,0,0,.079-2.766c-1.228-5.008-2.911-11.426-3.616-15.545l1.035-.836s1.679-7.3,2.077-7.551-.072,2.482-.318,5.865-.8,5.45.047,9.5,2.394,7.55,2.713,9.826C202.906,343.082,202.044,351.893,202.776,359.524Z" transform="translate(-186.779 -272.344)" fill="#f25f1d"/></g><path d="M206.006,399.876a.238.238,0,0,0,.231.16h8.839c.529.028.851-.172.882-.413.051-.386-.311-.533-.5-.605,0,0-4.689-1.987-4.926-2.1l-1.163-.557a6.363,6.363,0,0,1-1.494.2,9.093,9.093,0,0,1-1.373-.182A3.623,3.623,0,0,0,206.006,399.876Z" transform="translate(-186.799 -298.859)" fill="#001118"/><path d="M181.022,399.876a.238.238,0,0,0,.231.16h8.839c.529.028.851-.172.882-.413.052-.386-.311-.533-.5-.605,0,0-4.69-1.987-4.927-2.1l-1.163-.557a6.363,6.363,0,0,1-1.494.2,9.1,9.1,0,0,1-1.373-.182A3.623,3.623,0,0,0,181.022,399.876Z" transform="translate(-178.722 -298.859)" fill="#001118"/></g><rect width="18.241" height="7.123" transform="translate(26.332 48.61) rotate(134.916)" fill="#ff8e39"/><path d="M198.215,299.457a5.024,5.024,0,0,0,2.363.606,9.779,9.779,0,0,1,2.431-.255,10.142,10.142,0,0,1,1.741.727c.237.23.659,1.118.522,1.354s.6.457.565.834a.789.789,0,0,1-.657.738c-.34.028-.362.528-.605.61a3.515,3.515,0,0,0-.639.176c-.179.108-.065.374-.52.509-.417.124-.467.007-.681.055s-.179.233-.6.2a5.191,5.191,0,0,1-1.46-.478,4.093,4.093,0,0,1-1.571-1.32,6.378,6.378,0,0,0-2.571-1.456Z" transform="translate(-183.817 -247.769)" fill="#ffb9b0"/><path d="M208.273,302.572a3.625,3.625,0,0,1-1.066-.87c-.248-.224-.393-.183-.648-.431.073.466.343.363.83.936a1.292,1.292,0,0,0,.819.566.107.107,0,0,0,.066-.2Z" transform="translate(-187.057 -248.356)" fill="#f2a181"/><path d="M181.4,290.109a35.865,35.865,0,0,1,3.323,1.876c1.274.86,9.214,5.025,9.214,5.025l-.4,2.373s-11.537-3.076-14.151-5.114c-.994-.776-.918-4.95-.918-4.95Z" transform="translate(-177.975 -244.491)" fill="#ffb9b0"/><path d="M184.369,278.552s-1.027,6.844-1.848,8.654-3.777,2.152-3.777,2.152a50.209,50.209,0,0,1-.143-11.045" transform="translate(-177.939 -240.934)" fill="#ffb9b0"/><path d="M178.381,271.777a27.872,27.872,0,0,0,5.906.147c1.412-4.8,2.37-10.757,2.067-12.5-.537-3.092-.476-5.24-2.583-4.414C183.771,255.011,177.7,257.006,178.381,271.777Z" transform="translate(-177.931 -233.343)" fill="#351d0a"/><g transform="translate(9.215 2.703)"><path d="M208.8,239.175a.579.579,0,0,1,1.129.014,3.453,3.453,0,0,1-.1,2.063c-.212.75-.834.71-1.34.661" transform="translate(-196.896 -230.841)" fill="#ffb9b0"/><path d="M201.729,247a21.218,21.218,0,0,0-.343,2.7c.2.348,1.013.647,1.013.647a2.276,2.276,0,0,1-2.272,2.184c-3.913.192-4.769-2.574-4.769-2.574s.873-.3.911-.568.1-5.266.1-5.266" transform="translate(-192.651 -232.582)" fill="#ffb9b0"/><path d="M202.6,230.508c.605.4,2.469.6,2.718,1.476a17.323,17.323,0,0,1,.133,3.3c.05,1.076-.046,2.178-.1,3.252-.075,1.4-.275,3.943-1.885,4.614a1.766,1.766,0,0,1-1.133.18c-.632-.085-1.266-.154-1.9-.239a6.314,6.314,0,0,1-2.89-.865c-1.1-.8-1.228-2.7-1.174-3.95l.311-7.154Z" transform="translate(-192.974 -228.182)" fill="#ffb9b0"/><path d="M194.439,235.811c.5-.11.9-.264,1.041.223.076.258.068.579.29.73a.517.517,0,0,0,.686-.215,1.5,1.5,0,0,0,.15-.78q.009-.889.019-1.778a2.56,2.56,0,0,1,.405-1.657,1.856,1.856,0,0,1,.721-.489,5.682,5.682,0,0,1,2.824-.261,27.874,27.874,0,0,0,2.848.313,3.043,3.043,0,0,0,1.183-.184c.6-.248-6.074-4.817-7.7-4.638-1.129.124-2.04.15-2.526,1.759a.615.615,0,0,1-.275.192c-1.133.522-2.214.839-2.547,2.331a14.035,14.035,0,0,0,.389,6.239,3.468,3.468,0,0,0,.462,1.142,2.1,2.1,0,0,0,1.314.777c.466.058,1.32.375,1.473-.07.109-.318-.39-1.11-.5-1.429" transform="translate(-191.358 -227.071)" fill="#7c4e50"/><path d="M196.613,241.945a.587.587,0,0,1-1.04.364,2.023,2.023,0,0,1-.734-1.884c.1-.814.764-1.449,1.4-1.023a1.091,1.091,0,0,1,.338,1.225" transform="translate(-192.478 -231.014)" fill="#ffb9b0"/><path d="M203.634,249.221l-2.009-.311a2.5,2.5,0,0,0,1.879,1.222" transform="translate(-194.677 -234.131)" fill="#f2a181"/></g><g transform="translate(8.803)"><path d="M198.527,235.249s1.987,2.369,8.174,1.661c.468-.053,1.99-.754.316-1.854Z" transform="translate(-193.264 -226.949)" fill="#ffb41d"/><path d="M204.569,230.825h0c.127-1.558.05-5.978-4.762-6.909-7.137-1.381-8.592,3.145-8.692,6.779h0a.514.514,0,0,0-.363.464.426.426,0,0,0,.362.347,12.525,12.525,0,0,0,1.842.163c2.754.21,7.967.466,11.256-.234a.324.324,0,0,0,.292-.062C204.947,231.079,204.569,230.825,204.569,230.825Z" transform="translate(-190.75 -223.266)" fill="#ffb41d"/><path d="M198.256,223.61s5.644.186,5.423,8.01A12.765,12.765,0,0,0,206,231.4s.483-5.97-3.769-7.669A3.8,3.8,0,0,0,198.256,223.61Z" transform="translate(-193.177 -223.077)" fill="#ffbf4d"/></g><path d="M235.124,308.266l-7.4-.372a.486.486,0,0,1-.461-.51h0a.486.486,0,0,1,.51-.461l7.4.373a.486.486,0,0,1,.461.51h0A.486.486,0,0,1,235.124,308.266Z" transform="translate(-193.75 -250.183)" fill="#7a573d"/><path d="M248.739,310.66l-5.774-.453a1.839,1.839,0,0,1-1.377-.8l-1-1.462h0a.311.311,0,0,0-.253-.161l-4.8-.242a.315.315,0,0,0-.032.629l3.9.2h0l1.2,1.715a1.841,1.841,0,0,0,1.51.787h6.639a1.149,1.149,0,0,0,.554-.075C249.427,310.687,248.739,310.66,248.739,310.66Z" transform="translate(-196.316 -250.384)" fill="#665b52"/><path d="M232.779,306.744c-.095.047-.125.158-.12.294-.329-.367-.66-.414-.9-.294a.256.256,0,0,0-.113.232.717.717,0,0,0-.836-.232.239.239,0,0,0-.11.2c-.248-.275-.492-.308-.673-.2-.33.2.238,1.445.238,1.445h4.018C233.815,306.788,233.173,306.548,232.779,306.744Z" transform="translate(-194.611 -250.106)" fill="#ffb9b0"/><path d="M235.084,306.68s.581,1.488,1.257,1.48c0,0,.143-.024.135-.263a5.448,5.448,0,0,0-.48-1.6" transform="translate(-196.279 -249.98)" fill="#ffb9b0"/></g><g transform="translate(70.961 63.888)"><path d="M279.6,302H242.654v7.618h-47v7.122h-9.466v53.326H279.6Z" transform="translate(-177.414 -301.999)" fill="#db742e"/><rect width="18.241" height="7.123" transform="translate(83.946 30.479)" fill="#ff8e39"/><rect width="18.241" height="7.123" transform="translate(74.826 38.096)" fill="#ff8e39"/><rect width="18.241" height="7.123" transform="translate(83.946 45.712)" fill="#ff8e39"/><rect width="18.241" height="7.123" transform="translate(83.946 60.945)" fill="#ff8e39"/><rect width="18.241" height="7.123" transform="translate(74.826 53.329)" fill="#ff8e39"/><rect width="18.241" height="7.123" transform="translate(65.24 30.479)" fill="#ff8e39"/><rect width="18.241" height="7.123" transform="translate(56.119 38.096)" fill="#ff8e39"/><rect width="18.241" height="7.123" transform="translate(65.24 45.712)" fill="#ff8e39"/><rect width="18.241" height="7.123" transform="translate(65.24 60.945)" fill="#ff8e39"/><rect width="18.241" height="7.123" transform="translate(56.119 53.329)" fill="#ff8e39"/><rect width="18.241" height="7.123" transform="translate(46.534 30.479)" fill="#ff8e39"/><rect width="18.241" height="7.123" transform="translate(37.413 38.096)" fill="#ff8e39"/><rect width="18.241" height="7.123" transform="translate(46.534 45.712)" fill="#ff8e39"/><rect width="18.241" height="7.123" transform="translate(46.534 60.945)" fill="#ff8e39"/><rect width="18.241" height="7.123" transform="translate(37.413 53.329)" fill="#ff8e39"/><rect width="18.241" height="7.123" transform="translate(27.827 30.479)" fill="#ff8e39"/><rect width="18.241" height="7.123" transform="translate(18.706 38.096)" fill="#ff8e39"/><rect width="18.241" height="7.123" transform="translate(27.827 45.712)" fill="#ff8e39"/><rect width="18.241" height="7.123" transform="translate(27.827 60.945)" fill="#ff8e39"/><rect width="18.241" height="7.123" transform="translate(18.706 53.329)" fill="#ff8e39"/><rect width="18.241" height="7.123" transform="translate(9.121 30.479)" fill="#ff8e39"/><rect width="18.241" height="7.123" transform="translate(0 38.096)" fill="#ff8e39"/><rect width="18.241" height="7.123" transform="translate(9.121 45.712)" fill="#ff8e39"/><rect width="18.241" height="7.123" transform="translate(83.946 15.246)" fill="#ff8e39"/><rect width="18.241" height="7.123" transform="translate(74.826 22.863)" fill="#ff8e39"/><rect width="18.241" height="7.123" transform="translate(65.24 15.246)" fill="#ff8e39"/><rect width="18.241" height="7.123" transform="translate(56.119 22.863)" fill="#ff8e39"/><rect width="18.241" height="7.123" transform="translate(46.534 15.246)" fill="#ff8e39"/><rect width="18.241" height="7.123" transform="translate(37.413 22.863)" fill="#ff8e39"/><rect width="18.241" height="7.123" transform="translate(27.827 15.246)" fill="#ff8e39"/><rect width="18.241" height="7.123" transform="translate(18.706 22.863)" fill="#ff8e39"/><rect width="18.241" height="7.123" transform="translate(9.121 15.246)" fill="#ff8e39"/><rect width="18.241" height="7.123" transform="translate(0 22.863)" fill="#ff8e39"/><rect width="18.241" height="7.123" transform="translate(83.946)" fill="#ff8e39"/><rect width="8.609" height="7.123" transform="translate(93.579 7.617)" fill="#ff8e39"/><rect width="8.609" height="7.123" transform="translate(93.579 22.863)" fill="#ff8e39"/><rect width="8.609" height="7.123" transform="translate(93.579 38.109)" fill="#ff8e39"/><rect width="8.609" height="7.123" transform="translate(93.579 53.356)" fill="#ff8e39"/><rect width="18.241" height="7.123" transform="translate(74.826 7.617)" fill="#ff8e39"/><rect width="18.241" height="7.123" transform="translate(65.24)" fill="#ff8e39"/><rect width="18.241" height="7.123" transform="translate(56.119 7.617)" fill="#ff8e39"/><rect width="18.241" height="7.123" transform="translate(37.413 7.617)" fill="#ff8e39"/><rect width="18.241" height="7.123" transform="translate(18.706 7.617)" fill="#ff8e39"/><rect width="18.241" height="7.123" transform="translate(9.121 60.945)" fill="#ff8e39"/><rect width="18.241" height="7.123" transform="translate(0 53.329)" fill="#ff8e39"/><path d="M246.991,312.463H219.406a1.437,1.437,0,0,0-1.383.933c-.153.461.016.911,1.306.869,2.58-.085,4.975-2.073,6.759-.571s1.462,3.783,2.858,3.137.449-2.651,4.044-2.609,4.654,2.073,6.134,1.058,4.651-2.411,6.512-1.353S249.079,312.463,246.991,312.463Z" transform="translate(-187.69 -305.382)" fill="#b7b7b7"/></g><g transform="translate(188.947 15.925)"><g transform="translate(0 1.314)"><path d="M347.571,257.605l12.217,37.563a77.519,77.519,0,0,0,17.193-.635A42.867,42.867,0,0,0,389.9,289.8L379.853,255.09a117.078,117.078,0,0,1-13.532,2.777A77.009,77.009,0,0,1,347.571,257.605Z" transform="translate(-347.571 -240.185)" fill="#e59a67"/><path d="M417.351,283.636s-.789,10.038-1.579,11.223-4.681-.4-4.681-.4l2.03-12.068" transform="translate(-368.106 -249.013)" fill="#ffb9b0"/><path d="M418.419,278.147a17.685,17.685,0,0,1-1.99.121,11.337,11.337,0,0,1-1.983-.141s-.724.643-1.712,1.508c.054-.466.122-1.062.2-1.766.02-.169.041-.352.061-.535.007-.033.007-.074.013-.108.014-.129.027-.257.041-.392.014-.169.034-.338.054-.522.047-.453.1-.933.156-1.434s.108-1.035.169-1.583c.034-.305.068-.61.095-.92.061-.529.122-1.062.176-1.6.027-.277.061-.562.088-.846a.128.128,0,0,0,.007-.047c.02-.169.034-.332.054-.493.257-2.463.508-4.838.684-6.53,1.1.663,3.275,2.456,3.519,6.523.02.223.034.468.041.731C418.2,272.117,418.345,275.156,418.419,278.147Z" transform="translate(-368.637 -242.697)" fill="#7e3838"/><path d="M416.579,280.513c-.054.21-.1.419-.149.629a11.342,11.342,0,0,1-1.983-.141s-.724.643-1.712,1.508c.054-.466.122-1.062.2-1.766.02-.169.041-.352.061-.535.007-.033.007-.074.013-.108.014-.129.027-.257.041-.392.014-.169.034-.338.054-.522.047-.453.1-.933.156-1.434s.108-1.035.169-1.584c.115-1.1.244-2.234.359-3.364a.128.128,0,0,0,.007-.047c.02-.169.034-.332.054-.493l3.357-.515S418.25,273.117,416.579,280.513Z" transform="translate(-368.637 -245.571)" opacity="0.08"/><g transform="translate(32.719 50.273)"><g transform="translate(0 59.682)"><path d="M406.471,395.548s-.038,3.186.011,3.847,2.552.671,2.8.328a21.879,21.879,0,0,0,.16-3.894" transform="translate(-399.326 -395.548)" fill="#ffbe9d"/><path d="M406.565,401.522a17.419,17.419,0,0,1-.238,2.248h-3.011l-.148-.5a4.727,4.727,0,0,1-1.743.5h-2.541c-1.86,0-2.959-.234-2.963-.564-.012-.95,2.057-1.119,2.6-1.306,1.886-.642,3.126-.982,3.853-1.621.507-.446.159-.767.5-.652a.86.86,0,0,1,.516.445,1.524,1.524,0,0,0,1.569.856,1.811,1.811,0,0,0,1.018-.491A1.1,1.1,0,0,1,406.565,401.522Z" transform="translate(-395.92 -396.859)" fill="#3a3a3a"/></g><path d="M410.279,316.26c-.618,4.261-1.551,4.5-1.715,6.574-1.147,13.7-3.958,18.108-2.622,20.673.926,1.765-6.271,1.343-6.719-.945a22.5,22.5,0,0,1-.472-4.7c-.019-.542-.045-1.191-.082-2-.3-6.082-.284-11.849-.284-11.849l.045-4.21.012-1.381.114-11.062,9.99.933A13.075,13.075,0,0,1,410.279,316.26Z" transform="translate(-396.717 -307.354)" fill="#c63d19"/><path d="M405.46,355.606s2.587,7.355,2.5,11.753-.637,16.066-.637,16.066a9.407,9.407,0,0,1-3.474.047s-4.6-25.095-4.725-27.851S405.46,355.606,405.46,355.606Z" transform="translate(-396.954 -322.56)" fill="#c63d19"/></g><g transform="translate(20.615 109.87)"><path d="M388.587,395.422s-.037,3.186.012,3.847,2.552.671,2.8.328a21.89,21.89,0,0,0,.16-3.894" transform="translate(-381.442 -395.422)" fill="#ffbe9d"/><path d="M388.681,401.4a17.411,17.411,0,0,1-.238,2.248h-3.011l-.148-.5a4.727,4.727,0,0,1-1.743.5H381c-1.86,0-2.959-.234-2.964-.564-.012-.95,2.057-1.119,2.6-1.306,1.886-.642,3.126-.982,3.853-1.621.507-.446.159-.767.5-.652a.859.859,0,0,1,.516.445,1.525,1.525,0,0,0,1.57.856,1.818,1.818,0,0,0,1.018-.491A1.1,1.1,0,0,1,388.681,401.4Z" transform="translate(-378.035 -396.733)" fill="#3a3a3a"/></g><path d="M402.7,324.69c-1.159,3.7-1.79,5.761-2.42,8.591s-1.531,8.1-1.531,8.1c-.019-.542-.045-1.191-.082-2-.3-6.082-.284-11.849-.284-11.849l.045-4.21.012-1.38.441-1.273,3.813-2.408A9.946,9.946,0,0,1,402.7,324.69Z" transform="translate(-363.998 -260.607)" fill="#af3119"/><path d="M385.052,335.335c-.09,3.755-.271,4,.055,6.725.273,2.317,7.419,3.275,6.628,1.446-1.14-2.655,2-6.846,4.162-20.419.32-2.054,1.267-2.223,2.2-6.428s-1.034-10.208-1.034-10.208l-9.992.455-1.06,12.4-.353,4.192S385.207,329.246,385.052,335.335Z" transform="translate(-359.645 -256.789)" fill="#c63d19"/><path d="M391.305,354.759s2.056,7.52,1.652,11.9-2.282,15.274-2.282,15.274a9.424,9.424,0,0,1-3.469-.2s-2.728-24.959-2.228-29.739C385.266,349.248,391.305,354.759,391.305,354.759Z" transform="translate(-359.645 -271.264)" fill="#c63d19"/><path d="M402.259,251.793a11.356,11.356,0,0,1-.4-4.232c.315-1.8,1.393-5.031.988-7.457s-3.459-4.447-6.694-4.133-4.178,3.414-4.717,5.212a18.525,18.525,0,0,0-.315,6.019,4.163,4.163,0,0,0,1.483,2.965c.539.314,2.567-.1,2.923.287a9.644,9.644,0,0,1,.625,2.678" transform="translate(-361.616 -233.994)" fill="#ffb9b0"/><path d="M405.054,261.077a4.088,4.088,0,0,0-.719-1.923c-.539-.5-4.133-.5-5.211-.368a16.5,16.5,0,0,0-4.088,1.636c-.352.262.342,1.626.342,1.626Z" transform="translate(-362.884 -241.355)" fill="#6b2e2e"/><path d="M402.488,247.8s-4.492.382-5.346,0a3.4,3.4,0,0,1-2.2-2.741c-.112-1.527.2-2-.382-2.853s-1.1-.561-1.19.248-.125,2.269-.337,2.376c-.286.145-.627-.883-.516-2.444a9.661,9.661,0,0,1,.651-3.3c.4-.9.623-.848.989-1.011a2.788,2.788,0,0,1-1.595-1.427,2.234,2.234,0,0,1,1.977-3.582c4.159.016,8.581.831,8.67,3.909,0,0,1.46-.225,1.5,2.583s-1.752,6.2-1.887,7.075S402.937,247.6,402.488,247.8Z" transform="translate(-361.979 -233.065)" fill="#7c4e50"/><path d="M408.692,267.914v.047a53.2,53.2,0,0,1-.744,5.57c-.162.92-.338,1.867-.528,2.815-.372,1.908-.785,3.844-1.15,5.63-.237,1.137-.453,2.213-.636,3.187-.277,1.442-.474,2.707-.616,3.769a13.368,13.368,0,0,0,.095,3.783c.088.514.074,1.009-.2,1.171-.575.325-3.492-.813-9.2-.568-1.428.108-3.133.271-4.629.4-.02,0-.047.007-.074.007h-.048a15.721,15.721,0,0,1-3.4.1c-.839-.305.392-2.483.562-3.891a26.6,26.6,0,0,0-.061-4.521c-.623-5.251-1.956-12.276-1.705-16.627.027-.338.047-.664.088-.961.534-4.216,5.15-7.045,14.969-6.436C401.417,261.391,409.132,260.706,408.692,267.914Z" transform="translate(-360.101 -242.196)" fill="#ff6a1f"/><path d="M409.928,270.981c-6.036.69-15.416-.332-15.416-.332s-8.967,3.776-1.184,5.3a63.664,63.664,0,0,0,15.855.6Z" transform="translate(-361.336 -245.215)" fill="#ffb41d"/><path d="M407.873,283.394c-.372,1.908-.785,3.844-1.15,5.63a63.793,63.793,0,0,1-15.815-.609c-7.782-1.523,1.184-5.305,1.184-5.305S401.864,284.179,407.873,283.394Z" transform="translate(-360.554 -249.244)" fill="#ffb41d"/><path d="M389.58,294.98a2.7,2.7,0,0,1,.784-1.032,4.086,4.086,0,0,0,1.123-2.2c3-11.9,2.242-19.427,2.242-19.427l-4.083,11.06h0c-.174-1.341-.348-2.743-.491-4.121a36.242,36.242,0,0,1-.008-7.811c-.235.472-.912,1.132-2.813,1.572-.039,4.376,1.155,10.788,1.736,15.667a26.394,26.394,0,0,1,.055,4.526c-.164,1.406-1.4,3.583-.558,3.89a16.065,16.065,0,0,0,3.394-.1c-1.517.11-1.8-1.053-1.462-1.831Q389.537,295.085,389.58,294.98Z" transform="translate(-360.102 -245.474)" opacity="0.08"/><g transform="translate(3.743 31.636)"><path d="M384.251,281.392s-3.53,13.016-6.39,13.925c-1.639.521-14.3-7.52-14.3-7.52l2.843-1.823,9.138,2.78,2.17-8.94Z" transform="translate(-356.485 -279.814)" fill="#ffb9b0"/><g transform="translate(0 0.465)"><path d="M355.331,285.354a5.089,5.089,0,0,0-.21-.565c-.2-.391-.592-.654-.82-1.03a6.2,6.2,0,0,1-.371-.962c-.143-.363-.569-.916-.281-1.058-.135-.217-.313-.453-.439-.675-.095-.168-.2-.518.021-.555.322-.056.795.248,1.054.378.344.173.959.715,1.282.923a3.586,3.586,0,0,0,1.43.543s-.231-.217-.162-.384c.107-.26.79-.074,1.438-.183.336-.056,1.426.657,1.774.851a10.058,10.058,0,0,1,1.32,2.145,5.192,5.192,0,0,0,1.982,1.548l-2.251,2.167c-.055.051-.468-.241-.522-.274a1.891,1.891,0,0,0-.758-.3c-1.078-.543-2.423-.547-3.426-1.255a2.883,2.883,0,0,1-1.053-1.288Z" transform="translate(-353.102 -280.501)" fill="#ffb9b0"/><g transform="translate(3.74 1.84)"><path d="M358.785,283.23a3.735,3.735,0,0,0,1.381.324c.338.062.4.206.759.258-.426.234-.512-.052-1.286-.089a1.33,1.33,0,0,1-.977-.313.11.11,0,0,1,.123-.179Z" transform="translate(-358.629 -283.22)" fill="#f2a19c"/></g></g></g><path d="M390.345,278.9a20.429,20.429,0,0,1-7.1-1.715c.69-7.114,2.469-10.315,3.727-11.723a3.269,3.269,0,0,1,3.146-1.046c1.352.314,2.975,1.488,2.976,5.32C393.1,271.989,390.842,278.065,390.345,278.9Z" transform="translate(-359.104 -243.174)" fill="#7e3838"/></g><g transform="translate(26.794)"><path d="M403.366,241.143c-.066.307-.539.248-.539.248a39.935,39.935,0,0,1-6.207-.876c-.047-.006-.343-.057-.8-.134q-.465-.069-.968-.162a.33.33,0,0,0-.081-.01c-2.6-.448-7.064-1.272-7.507-1.732-.633-.648,2.02-1,2.02-1h.007c.187-2.105,1.305-6.957,7.778-6.288.447.049.865.115,1.259.2h.007l.006.007c6.194,1.307,5.343,6.927,4.761,9.119A.544.544,0,0,1,403.366,241.143Z" transform="translate(-387.166 -231.123)" fill="#ffb41d"/><path d="M407.5,241.271c-.066.307-.539.248-.539.248a39.929,39.929,0,0,1-6.207-.876c-.047-.006-.343-.057-.8-.134,3.782.554,5.585-.142,5.585-.142,1.452-7.54-2.819-8.726-3.065-8.847,6.194,1.307,5.344,6.927,4.761,9.119A.544.544,0,0,1,407.5,241.271Z" transform="translate(-391.3 -231.252)" fill="#ffa515"/></g></g><g transform="translate(37.012 119.082)"><path d="M178.883,399.97H123.054a33.084,33.084,0,0,1,4.913-6.327,31.772,31.772,0,0,1,23-10.083A30.487,30.487,0,0,1,167.23,388.2,35.91,35.91,0,0,1,178.883,399.97Z" transform="translate(-123.054 -383.56)" fill="#ffd694"/><path d="M178.883,402.185H123.054a33.082,33.082,0,0,1,4.913-6.327c1.868-1.238,5.833-3.3,10.009-1.9,5.752,1.929,8.121,4.371,11.247,4.8s5.163-7.011,8.973-7.349,11.937,3.688,9.034-.995A35.911,35.911,0,0,1,178.883,402.185Z" transform="translate(-123.054 -385.775)" fill="#f2c27c"/></g><g transform="translate(95.301 16.191)"><g transform="translate(61.255 109.236)"><path d="M309.331,392.937a41.82,41.82,0,0,0,.056,5.158c.172.757,2.523.831,2.81.43a39.953,39.953,0,0,0,.652-5.272" transform="translate(-302.798 -392.937)" fill="#feb37c"/><path d="M309.756,401.347c0,.532.265,2.122-.386,2.122h-6.864c-1.755,0-2.752-.224-2.8-.533-.181-1.261,5.95-3.386,6.536-3.382a.2.2,0,0,1,.075.017.843.843,0,0,1,.43.381,1.61,1.61,0,0,0,2.045.665,1.419,1.419,0,0,0,.412-.294A1.036,1.036,0,0,1,309.756,401.347Z" transform="translate(-299.705 -395.076)" fill="#4c4051"/></g><g transform="translate(89.314 108.348)"><path d="M346.874,393.457s.739,1.99,1.063,2.654,2.524-.154,2.636-.61-1.674-3.877-1.674-3.877" transform="translate(-343.013 -391.624)" fill="#feb37c"/><path d="M349.743,397.61c.691,1.385.525,2.034.307,2.165l-1.84,1.106-.012.007c-.061.031-.844.428-1.442.8a8.145,8.145,0,0,1-2.047.859c-1.882.433-3.337.226-3.486-.033-.6-1.05,4.055-5.08,4.585-5.294a.2.2,0,0,1,.077-.012.811.811,0,0,1,.535.2,1.37,1.37,0,0,0,1.6.19,1.628,1.628,0,0,0,.683-.746A1.4,1.4,0,0,1,349.743,397.61Z" transform="translate(-341.168 -393.315)" fill="#4c4051"/></g><g transform="translate(68.672 50.217)"><path d="M337.88,364.245a.286.286,0,0,1-.1.341,6.65,6.65,0,0,1-2.852,1.322s0-.009-.009-.014c-.39-.613-12.6-19.9-14.945-23.64-.047-.081-.095-.157-.138-.223-.009-.014-.024-.019-.024-.039a4.448,4.448,0,0,1-.38-.746c-.019-.048-.043-.1-.057-.133a2.04,2.04,0,0,1-.124-.4c-.019-.081-.033-.157-.047-.242,0-.009-.01-.024-.01-.039-.328-1.663-1.108-4.516-2.054-7.839-.537-1.883-1.121-3.912-1.706-5.961-.466-1.607-.927-3.2-1.35-4.72l-3.409-13.259a.285.285,0,0,1,.256-.354l2.735-.181a30.959,30.959,0,0,0,8.611-2.373.287.287,0,0,1,.315.064c3.981,3.98,3.223,8.969,2.739,11.469,0,0,0,.01,0,.019a13.368,13.368,0,0,0-.195,3.484c.276,3.591.807,10.3.86,14.961v.012a11.944,11.944,0,0,0,2.852,6.2,14.189,14.189,0,0,1,1.412,1.783C334.217,349.715,335.68,359.009,337.88,364.245Z" transform="translate(-310.667 -305.724)" fill="#c63d19"/><path d="M338.02,371.617c-.39-.613-12.6-19.9-14.945-23.64-.047-.081-.095-.157-.138-.223-.009-.014-.024-.019-.024-.039a4.448,4.448,0,0,1-.38-.746c-.019-.048-.043-.1-.057-.133a2.045,2.045,0,0,1-.124-.4c-.019-.081-.033-.157-.047-.242,0-.01-.009-.024-.009-.039-.325-1.648-1.094-4.464-2.028-7.748a.285.285,0,0,1,.006-.178l5.451-14.621a.285.285,0,0,1,.266-.185h1.431a.283.283,0,0,1,.27.371c-.485,1.47-2.284,6.94-3.086,9.612a47.34,47.34,0,0,0-1.265,9.707c-.181,3.893,4.6,10.5,5.971,12.906C330.776,358.6,337.473,370.542,338.02,371.617Z" transform="translate(-313.767 -311.446)" fill="#af3119"/></g><path d="M321.009,321.44c.409-.191,2.053-1.117,3.1-4.056a.291.291,0,0,0-.115-.34c-1.588-1.006-12.65-7.925-15.3-7.081-.812.263-2.35,26-2.338,26.545.006.27-.011,3.059,0,3.384.174,4.384,1.711,26.2,1.883,28.624a.277.277,0,0,0,.233.257,18.5,18.5,0,0,0,3.006.2l.285-.247c.692-5.855,3.709-16.877,2.19-23.783-.019-.086-.029-.17-.045-.256-.009-.137-.026-.313-.054-.546-.367-3.053-.378-2.163.458-6.015a.317.317,0,0,1,.013-.043c1.868-4.814,5.391-13.59,6.551-16.5A.261.261,0,0,1,321.009,321.44Z" transform="translate(-240.599 -256.853)" fill="#c63d19"/><path d="M326.048,274.854c-.013,1.469-.1,2.93-.216,4.338-.156,1.726-.365,3.37-.582,4.859-.514,3.553-1.083,6.192-1.029,6.828a3.483,3.483,0,0,0,.359,1.137.756.756,0,0,1-.169.88c-.237.1-.48.2-.731.291-6.2,2.267-15.321.338-15.321.338-.379.027-.758-.271-.609-.988a35.258,35.258,0,0,0,.663-3.729c-.02-.514.129-2.26.42-4.676.1-.859.223-1.793.365-2.795.115-.846.25-1.739.393-2.66.169-1.069.311-2.118.453-3.14.156-1.157.3-2.281.467-3.39a44.5,44.5,0,0,1,1.15-5.536,23.052,23.052,0,0,1,1.685-4.311c1.726-3.323,5.908-3.844,6.632-3.911a.266.266,0,0,1,.189.047c3.12,2.084,4.71,5.671,5.414,9.731A36.994,36.994,0,0,1,326.048,274.854Z" transform="translate(-241.04 -240.203)" fill="#ff6a1f"/><path d="M327.383,279.167c-1.773-.1-11.254-.738-15.538-2.707a46.819,46.819,0,0,1,.934-4.73c1.685.663,5.563,1.638,14.346,2.213A39.451,39.451,0,0,1,327.383,279.167Z" transform="translate(-242.375 -244.517)" fill="#ffb41d"/><path d="M326.539,287.384c-.156,1.726-.365,3.37-.582,4.859,0,0-11.261-.548-16.052-2.714.115-.846.25-1.739.392-2.66.169-1.069.311-2.118.453-3.14a35.579,35.579,0,0,0,15.781,3.654Z" transform="translate(-241.748 -248.396)" fill="#ffb41d"/><path d="M320.388,269.706c-.247,3.1-1.4,13.074-6.162,17.506a.288.288,0,0,1-.066.047,7.651,7.651,0,0,1-4.5.475.288.288,0,0,1-.25-.315c.186-1.505.424-3.249.712-5.106a.29.29,0,0,1,.056-.131l9.7-12.667A.283.283,0,0,1,320.388,269.706Z" transform="translate(-241.588 -243.764)" opacity="0.08"/><path d="M223.22,347.646s1.609-8.293,11.8-14.863c9.883-6.369,21.213-.589,21.213-.589Z" transform="translate(-213.724 -263.287)" fill="#ffd694"/><g transform="translate(0 56.1)"><path d="M214.551,348.079,255.293,329.3l-2.217,12.3a10.113,10.113,0,0,1-5.149,7.106L234.968,355.7a10.112,10.112,0,0,1-10.679-.667Z" transform="translate(-210.922 -319.228)" fill="#ffd694"/><path d="M255.293,329.3l-2.22,12.3a10.1,10.1,0,0,1-5.143,7.106l-12.959,7a10.128,10.128,0,0,1-10.679-.67l-.074-.054-9.663-6.9,32.11-14.8Z" transform="translate(-210.923 -319.228)" fill="#b73116"/><path d="M246.665,335.18l-1.171,6.517a10.131,10.131,0,0,1-5.15,7.106l-12.959,6.99a10.281,10.281,0,0,1-3.167,1.083l-9.663-6.9Z" transform="translate(-210.923 -321.129)" fill="#c63d19"/><circle cx="8.967" cy="8.967" r="8.967" transform="translate(1.311 44.926)" fill="#47290e"/><path d="M229.659,390.6a8.967,8.967,0,0,1-16.674,4.581,8.968,8.968,0,0,0,13.02-11.809A8.958,8.958,0,0,1,229.659,390.6Z" transform="translate(-210.415 -336.708)" fill="#331c08"/><circle cx="3.891" cy="3.891" r="3.891" transform="translate(6.387 50.001)" fill="#726b65"/><path d="M225.141,393.354a1.466,1.466,0,1,1-1.466-1.466A1.466,1.466,0,0,1,225.141,393.354Z" transform="translate(-213.397 -339.462)" fill="#47290e"/><path d="M209.189,374.309a1,1,0,0,1-.434-1.9l18.5-8.889a1.122,1.122,0,0,0,.634-1.021l-.065-5.616,0-.037a6.036,6.036,0,0,1,3.152-4.938l15.466-8.371a8.969,8.969,0,0,0,4.562-6.245l2.12-11.21a7.95,7.95,0,0,1,3.435-5.145l11.22-7.357a1,1,0,1,1,1.1,1.673l-11.22,7.357a5.94,5.94,0,0,0-2.566,3.844l-2.12,11.211A10.961,10.961,0,0,1,247.4,345.3l-15.466,8.371a4.012,4.012,0,0,0-2.105,3.267l.065,5.541a3.129,3.129,0,0,1-1.767,2.846l-18.5,8.889A1,1,0,0,1,209.189,374.309Z" transform="translate(-209.188 -314.417)" fill="#fff"/><path d="M265.487,384.01a1.745,1.745,0,0,1-.97-.3l-24.649-16.439a.5.5,0,1,1,.555-.832l24.649,16.439a.748.748,0,0,0,1.142-.8l-6.6-27.207a.5.5,0,1,1,.972-.236l6.6,27.207a1.752,1.752,0,0,1-1.7,2.163Z" transform="translate(-219.196 -327.458)" fill="#fff"/></g><g transform="translate(58.297 23.498)"><path d="M319.636,270.7a13.277,13.277,0,0,0,.325-2.463c-.271-2.517-2.93-2.057-3.411-1.753-.555.338-1.949,1.428-3.512,6.063-1.076,3.194-1.719,5.657-2.118,7.194-.129.46-.3,1.015-.447,1.482l3.2,4.6C316.308,284.169,318.774,275.217,319.636,270.7Z" transform="translate(-300.229 -266.24)" fill="#ffd1ae"/><path d="M303.84,291.531c-1.406,2.04-6.19,10.335-8.505,13.21l1.421,1.049c.073-.123.151-.25.237-.379.008-.011.783-.52.8-.533,1.553-1.7,3.292-3.143,5.78-5.671a43.512,43.512,0,0,0,5.915-7.069,29.231,29.231,0,0,0,1.538-2.714l-5.13-2.579A18.325,18.325,0,0,1,303.84,291.531Z" transform="translate(-295.335 -272.902)" fill="#ffd1ae"/></g><path d="M294.152,312.115a7.166,7.166,0,0,1-1.424,1.348c-.546.282-1.65.482-2.2.709s-1.244,4.052-.9,4.372,2.13.151,3.148-.716.912-1.655,1.206-2.14a25.686,25.686,0,0,1,1.94-2.641l-.413-.818Z" transform="translate(-235.163 -257.572)" fill="#ffd1ae"/><path d="M319.942,251.923a2.474,2.474,0,0,1-.464.6l-.014.014a6.452,6.452,0,0,1-3.938,1.312.282.282,0,0,1-.288-.343,4.112,4.112,0,0,0-.205-1.978.287.287,0,0,0-.374-.18A5.756,5.756,0,0,1,311,251.8a.336.336,0,0,1-.12-.083,9.884,9.884,0,0,1-1.558-2.314.275.275,0,0,0-.284-.154c-.4.055-.972.07-1.1-.265a8.224,8.224,0,0,1,.257-2.517c0-.018-.014-.041-.018-.064a4.439,4.439,0,0,0,.013-1.443c-.036-.138-.336-.3-.409-.409a8.186,8.186,0,0,1-.976-2.783.267.267,0,0,1,.11-.269c.612-.44,3.066-2.2,3.263-2.24.23-.05,5.871-1.089,6.064-1.01a13.623,13.623,0,0,1,3.423,7.084,5.241,5.241,0,0,1-.6,3.234h0S319.014,251.132,319.942,251.923Z" transform="translate(-240.745 -233.692)" fill="#ffd1ae"/><path d="M313.094,272.142c1,1.215,5,2.571,6.662,2.686.927-2.412,3.962-10.214.585-11.569C316.616,261.763,314.376,267.551,313.094,272.142Z" transform="translate(-242.779 -241.7)" fill="#7e3838"/><path d="M323.375,258.138a6.452,6.452,0,0,1-3.938,1.312.282.282,0,0,1-.288-.343,4.2,4.2,0,0,0-.234-2.072.288.288,0,0,1,.09-.313,9.708,9.708,0,0,0,1.132-1.057.282.282,0,0,1,.495.2l-.12,2.576a.281.281,0,0,0,.259.3A3.907,3.907,0,0,0,323.375,258.138Z" transform="translate(-244.656 -239.292)" fill="#ffd1ae"/><path d="M307.389,241.553c2.045,1.174,5.5.018,6.363.529s1.187,2.641,1.584,2.708c.423.072.325-.571.277-1.353s-.176-1.663,1.19-1.4c.608.108.964,1.868,1.4,3.243a5.179,5.179,0,0,0,.785,1.737.284.284,0,0,0,.453-.054c2.209-3.845,1.767-12.354-4.1-12.3a.273.273,0,0,1-.17-.057,5.287,5.287,0,0,0-3.62-1.1c-.012,0-.027,0-.039,0C307.88,233.885,305.439,240.427,307.389,241.553Z" transform="translate(-240.712 -232.151)" fill="#2c1e56"/><g transform="translate(64.266)"><path d="M320.132,238.575c.066.308-.39.447-.39.447a39.929,39.929,0,0,1-6.025,1.731c-.045.014-.336.088-.785.2q-.453.127-.951.247a.356.356,0,0,0-.078.024c-2.557.652-6.968,1.72-7.561,1.481-.842-.334,1.435-1.741,1.435-1.741l.006,0c-.687-2-1.644-6.884,4.539-8.913.428-.137.836-.248,1.23-.332l.006,0,.009,0c6.189-1.332,7.7,4.146,8.066,6.385A.543.543,0,0,1,320.132,238.575Z" transform="translate(-304.156 -231.516)" fill="#ffb41d"/><path d="M323.674,238.575c.066.308-.39.447-.39.447a39.935,39.935,0,0,1-6.025,1.731c-.045.014-.336.088-.785.2,3.679-1.037,5.042-2.407,5.042-2.407-1.749-7.477-6.132-6.819-6.406-6.827,6.189-1.332,7.7,4.146,8.066,6.385A.543.543,0,0,1,323.674,238.575Z" transform="translate(-307.697 -231.516)" fill="#ffa515"/></g></g><g transform="translate(31.157 112.471)"><g transform="translate(83.811 11.062)"><path d="M261.9,413.755H242.623l.173-.6,3.248-11.036.614-2.077.356-1.219.614-2.078,1.183-4.03a3.6,3.6,0,0,1,6.9,0l1.183,4.03.614,2.078.356,1.219.614,2.077,3.248,11.036Z" transform="translate(-239.664 -390.138)" fill="#ffb41d"/><path d="M262.7,426.53H239a.747.747,0,0,1-.747-.747h0a.747.747,0,0,1,.747-.747h23.7a.747.747,0,0,1,.747.747h0A.747.747,0,0,1,262.7,426.53Z" transform="translate(-238.251 -401.42)" fill="#ffb41d"/><path d="M259.608,401.986h-10.5l.614-2.077h9.27Z" transform="translate(-241.762 -393.296)" fill="#ffc969"/><path d="M260.115,406.856H247.678l.614-2.077H259.5Z" transform="translate(-241.298 -394.871)" fill="#ffc969"/><path d="M261.9,424.753H242.623l.173-.6h18.931Z" transform="translate(-239.664 -401.136)" fill="#ff8f1f"/></g><g transform="translate(0 5.151)"><path d="M133.474,400.448H117.928l.139-.481,2.619-8.9.495-1.676.287-.982.5-1.675.954-3.25a2.9,2.9,0,0,1,5.567,0l.954,3.25.5,1.675.287.982.495,1.676,2.619,8.9Z" transform="translate(-115.542 -381.403)" fill="#ffb41d"/><path d="M134.118,410.749H115a.6.6,0,0,1-.6-.6h0a.6.6,0,0,1,.6-.6h19.114a.6.6,0,0,1,.6.6h0A.6.6,0,0,1,134.118,410.749Z" transform="translate(-114.402 -390.5)" fill="#ffb41d"/><path d="M131.625,390.957h-8.465l.5-1.675h7.475Z" transform="translate(-117.233 -383.95)" fill="#ffc969"/><path d="M132.033,394.884H122l.5-1.675h9.039Z" transform="translate(-116.86 -385.22)" fill="#ffc969"/><path d="M133.474,409.316H117.928l.14-.481h15.266Z" transform="translate(-115.542 -390.271)" fill="#ff8f1f"/></g><g transform="translate(157.199)"><path d="M370.348,397.408H351.07l.173-.6,3.248-11.036.614-2.078.356-1.219.614-2.077,1.183-4.031a3.6,3.6,0,0,1,6.9,0l1.183,4.031.614,2.077.356,1.219.614,2.078,3.248,11.036Z" transform="translate(-348.111 -373.791)" fill="#ffb41d"/><path d="M371.148,410.183h-23.7a.747.747,0,0,1-.747-.747h0a.747.747,0,0,1,.747-.747h23.7a.747.747,0,0,1,.747.747h0A.747.747,0,0,1,371.148,410.183Z" transform="translate(-346.698 -385.073)" fill="#ffb41d"/><path d="M368.055,385.639h-10.5l.614-2.077h9.27Z" transform="translate(-350.209 -376.95)" fill="#ffc969"/><path d="M368.562,390.51H356.125l.614-2.077h11.209Z" transform="translate(-349.745 -378.524)" fill="#ffc969"/><path d="M370.348,408.406H351.07l.173-.6h18.931Z" transform="translate(-348.111 -384.788)" fill="#ff8f1f"/></g></g></g></g></g></g></g><g transform="translate(-2183.768 11905.77) rotate(90)" opacity="0.12"><circle cx="1.642" cy="1.642" r="1.642" transform="translate(-10180.271 -2630.477) rotate(90)" fill="#d9480f"/><circle cx="1.642" cy="1.642" r="1.642" transform="translate(-10180.271 -2621.937) rotate(90)" fill="#d9480f"/><circle cx="1.642" cy="1.642" r="1.642" transform="translate(-10180.271 -2614.053) rotate(90)" fill="#d9480f"/><circle cx="1.642" cy="1.642" r="1.642" transform="translate(-10188.154 -2630.477) rotate(90)" fill="#d9480f"/><circle cx="1.642" cy="1.642" r="1.642" transform="translate(-10188.154 -2621.937) rotate(90)" fill="#d9480f"/><circle cx="1.642" cy="1.642" r="1.642" transform="translate(-10188.154 -2614.053) rotate(90)" fill="#d9480f"/><circle cx="1.642" cy="1.642" r="1.642" transform="translate(-10196.695 -2630.477) rotate(90)" fill="#d9480f"/><circle cx="1.642" cy="1.642" r="1.642" transform="translate(-10196.695 -2621.937) rotate(90)" fill="#d9480f"/><circle cx="1.642" cy="1.642" r="1.642" transform="translate(-10196.695 -2614.053) rotate(90)" fill="#d9480f"/><circle cx="1.642" cy="1.642" r="1.642" transform="translate(-10204.578 -2630.477) rotate(90)" fill="#d9480f"/><circle cx="1.642" cy="1.642" r="1.642" transform="translate(-10204.578 -2621.937) rotate(90)" fill="#d9480f"/><circle cx="1.642" cy="1.642" r="1.642" transform="translate(-10204.578 -2614.053) rotate(90)" fill="#d9480f"/><circle cx="1.642" cy="1.642" r="1.642" transform="translate(-10213.119 -2630.477) rotate(90)" fill="#d9480f"/><circle cx="1.642" cy="1.642" r="1.642" transform="translate(-10213.119 -2621.937) rotate(90)" fill="#d9480f"/><circle cx="1.642" cy="1.642" r="1.642" transform="translate(-10213.119 -2614.053) rotate(90)" fill="#d9480f"/><circle cx="1.642" cy="1.642" r="1.642" transform="translate(-10221.004 -2630.477) rotate(90)" fill="#d9480f"/><circle cx="1.642" cy="1.642" r="1.642" transform="translate(-10221.004 -2621.937) rotate(90)" fill="#d9480f"/><circle cx="1.642" cy="1.642" r="1.642" transform="translate(-10221.004 -2614.053) rotate(90)" fill="#d9480f"/></g><text transform="translate(431 1701)" fill="#d9480f" font-size="22" font-family="GenYoGothicTW-Medium, GenYoGothic TW" font-weight="500" letter-spacing="0.022em"><tspan x="0" y="0"></tspan></text></g></svg>