<svg xmlns="http://www.w3.org/2000/svg" xmlns:xlink="http://www.w3.org/1999/xlink" width="260" height="112" viewBox="0 0 260 112"><defs><linearGradient id="a" x1="1" y1="1" x2="0.035" gradientUnits="objectBoundingBox"><stop offset="0" stop-color="#fff"/><stop offset="1" stop-color="#2b8a3e" stop-opacity="0"/></linearGradient><clipPath id="b"><rect width="260" height="112" rx="4" fill="url(#a)"/></clipPath><clipPath id="f"><rect width="260" height="112" rx="2" transform="translate(139 1661)" fill="#e9fac8"/></clipPath></defs><g transform="translate(-139 -1662)"><rect width="260" height="112" rx="4" transform="translate(139 1662)" fill="#d3f9d8"/><g transform="translate(139 1662)" opacity="0.36" clip-path="url(#b)"><g transform="translate(-36.683 -28)"><circle cx="40.5" cy="40.5" r="40.5" transform="translate(6.683)" fill="url(#a)"/><rect width="135" height="31" rx="15.5" transform="matrix(0.819, -0.574, 0.574, 0.819, 0, 186.432)" fill="url(#a)"/><circle cx="80" cy="80" r="80" transform="translate(162.683 29)" fill="url(#a)"/></g></g><g transform="translate(0 1)" clip-path="url(#f)"><g transform="translate(-1244.046 1414.692)"><path d="M1474.155,419.106s10.036-15.21,29.878-28.809S1585.2,378,1596.666,373.486s-14.739,25.347-29.883,35.277S1474.155,419.106,1474.155,419.106Z" transform="translate(25.951 -86.491)" fill="#fff" opacity="0"/><g opacity="0.12"><path d="M42.381,41.422c3.666-2.349-8.007-2.261-19.179-2.173-6.916.054-13.639.109-16.413-.414C.6,37.669,8.25,34.533,11.1,33.4c9.834-3.91,1.3-2.839-4.613-5.493-3.439-1.544,12.069-3.626,4.716-5.255-16.328-3.615-15.695-7.066,7.809-7.066l.324,0-3.712-2.04-3.761,1.2S14.43,11.479,15.5,11.56s5.118,3,5.118,3a25.839,25.839,0,0,0-13.5-7.181s4.426-.726,7.282.048c2.508.679,6.666,5.153,7.875,6.885-1.351-2.3-6.525-11.195-6.9-13.061a23.9,23.9,0,0,1,9.389,11.2l-.781-8.8A36.161,36.161,0,0,1,28.6,15.46l94.083-1.248c.371-2.888,1.71-9.386,6.363-11.871,0,0-3.339,8.674-4.639,11.856h.042c.743-1.3,4.046-7.069,5.174-8.883C130.9,3.265,137.764.857,139.848.991a72.722,72.722,0,0,1-12.471,11.981s6.446-3.247,9.2-2.633A38.588,38.588,0,0,1,128.8,14.4c8.147.487,23.413,2.034,13.284,6.57-13.445,6.022-9.637,11.237-3.935,12.276s.167,5.6-34.486,5.9-4.231,5.626-29.939,5.626c-4.955,0-9.385.017-13.265.017C44.2,44.789,37.589,44.493,42.381,41.422ZM101.324,2.478s-1.35,7.262-1.841,9.59c0,0,2.015-5.788,2.675-7.474S107.554.19,109.11,0a54.55,54.55,0,0,1-7.557,10.551s4.31-3.28,6.429-3.2a27.013,27.013,0,0,1-5.936,4.458l-3.694,1.371S97.3,5.7,101.324,2.478Z" transform="translate(1485.608 324.527)" fill="#212529"/><path d="M60.456,45.289c-6.217,0-11.029-.045-14.306-.266a24.206,24.206,0,0,1-3.9-.5c-1.454-.357-1.757-.857-1.858-1.2-.267-.911.777-1.718,1.716-2.32a1.8,1.8,0,0,0,.422-.342,3.047,3.047,0,0,0-1.088-.369,23.027,23.027,0,0,0-2.917-.355c-2.085-.15-4.948-.219-9.01-.219-2.065,0-4.224.017-6.313.033H23.13c-2.054.016-4.179.033-6.135.033a67.046,67.046,0,0,1-10.3-.456c-1.133-.214-2.651-.623-2.755-1.7-.083-.867.766-1.729,2.753-2.8a42.412,42.412,0,0,1,4.218-1.891,31.365,31.365,0,0,0,3.2-1.426,3.58,3.58,0,0,0,.927-.634,3.067,3.067,0,0,0-.768-.3c-.529-.154-1.219-.3-2.017-.472A29.935,29.935,0,0,1,6.28,28.365c-.547-.246-.816-.574-.8-.977.035-.861,1.342-1.365,3.845-2.253.819-.291,1.666-.591,2.321-.882a3.635,3.635,0,0,0,1.009-.579,4.616,4.616,0,0,0-1.562-.532,56.733,56.733,0,0,1-8.512-2.424c-2.2-.89-3.173-1.728-3.074-2.636C-.375,17,1.224,16.292,4.689,15.8c1.659-.237,3.7-.415,6.121-.534l.658-.835c.026-.033.651-.823,1.422-1.627,1.4-1.46,2.093-1.714,2.492-1.741A23.119,23.119,0,0,0,7.038,7.869L3.974,7.385l3.062-.5A27.986,27.986,0,0,1,11.1,6.566a13.383,13.383,0,0,1,3.427.374c1.429.387,3.27,1.845,4.869,3.387-2.019-3.563-4.258-7.706-4.514-8.983L14.669.264l.955.549A22.223,22.223,0,0,1,19.353,3.7a24.442,24.442,0,0,1,4.661,5.948L23.308,1.7,24.4,3.372a31.157,31.157,0,0,1,1.877,3.476,36.338,36.338,0,0,1,2.73,8.107l93.235-1.237A24.262,24.262,0,0,1,123.8,7.932,11.574,11.574,0,0,1,128.809,1.9l1.185-.633-.482,1.253c-.019.049-1.079,2.8-2.231,5.761.776-1.332,1.5-2.553,1.917-3.23,1.385-2.226,8.137-4.565,10.474-4.565.073,0,.144,0,.209.006l.953.061-.593.748a76.977,76.977,0,0,1-9.5,9.664,16.087,16.087,0,0,1,5.049-1.2,4.17,4.17,0,0,1,.9.089l1.118.249-.943.651a41.864,41.864,0,0,1-5.855,3.294c2.6.194,5.675.5,8.311.954a23.9,23.9,0,0,1,4.36,1.1c1.366.53,2.1,1.151,2.233,1.9.208,1.138-.945,2.227-3.629,3.429a24.732,24.732,0,0,0-7.184,4.446c-1.223,1.215-1.778,2.366-1.651,3.419.195,1.609,2.073,2.969,4.785,3.462,2.028.369,2.4,1.11,2.349,1.666-.059.682-.806,1.292-2.284,1.864a33.709,33.709,0,0,1-6.3,1.53c-6.611,1.095-16.409,1.729-28.336,1.833-10.857.1-16.635.7-17.666,1.859-.193.217-.181.431-.139.822a1.73,1.73,0,0,1-.344,1.469c-.8.887-3.109,1.477-11.794,1.477-2.628,0-5.073,0-7.438.009Q63.193,45.287,60.456,45.289ZM29.518,38.716c4.261,0,7.237.077,9.367.243,3.59.28,4.455.777,4.648,1.438.217.741-.611,1.271-.883,1.446-1.326.85-1.3,1.194-1.3,1.2s.1.259,1.136.512a23.32,23.32,0,0,0,3.726.472c3.248.219,8.041.264,14.238.264q2.732,0,5.825-.008c2.365,0,4.811-.009,7.44-.009,6.742,0,10.357-.375,11.051-1.146.136-.151.134-.311.093-.695a1.867,1.867,0,0,1,.388-1.592c.949-1.063,3.835-2.065,18.4-2.193,14.987-.132,23.586-1.061,28.16-1.817a32.953,32.953,0,0,0,6.11-1.475c1.485-.572,1.65-.981,1.662-1.019-.033-.08-.367-.388-1.531-.6a9.312,9.312,0,0,1-3.713-1.469,4.173,4.173,0,0,1-1.885-2.857c-.245-2.025,1.19-5.212,9.419-8.9,2.986-1.337,3.092-2.127,3.054-2.337-.052-.287-.624-1.294-5.781-2.19A100.592,100.592,0,0,0,128.768,14.9l-2.492-.149,2.357-.822a34.808,34.808,0,0,0,6.255-3.093,30.728,30.728,0,0,0-7.285,2.586l-.519-.851A71.862,71.862,0,0,0,138.708,1.582c-2.7.457-7.7,2.451-8.662,4-1.14,1.834-4.5,7.708-5.165,8.867l-.144.252h-.29l-.064,0-.709-.031.268-.657c.96-2.349,3.058-7.764,4.069-10.38-3.465,2.817-4.528,8.26-4.835,10.648l-.055.43L28.183,15.966l-.077-.414a35.693,35.693,0,0,0-3.422-9.663l.9,10.119L24.3,12.627A22.13,22.13,0,0,0,18.69,4.446a24.592,24.592,0,0,0-2.3-1.916c1.126,2.475,3.821,7.276,6.315,11.525l-.841.539c-1.157-1.657-5.252-6.054-7.6-6.689a12.413,12.413,0,0,0-3.165-.34c-.313,0-.621.007-.919.019a25.762,25.762,0,0,1,6.986,3.447,24.648,24.648,0,0,1,3.817,3.185l3.372,3.651-4.031-2.906c-1.934-1.394-4.281-2.861-4.862-2.9-.052,0-.512.04-1.849,1.431q-.114.119-.224.237L15.675,13l5.558,3.055-2.223.032a108.234,108.234,0,0,0-14.179.7C.636,17.386.5,18.158.5,18.19c0,.015-.043,1.573,10.809,3.975,1.66.368,2.354.785,2.394,1.44.06.967-1.421,1.54-4.043,2.471-.772.274-1.57.557-2.183.825a4.291,4.291,0,0,0-.908.491c.032.018.072.038.121.06a29.152,29.152,0,0,0,5.774,1.673c.932.2,1.738.371,2.335.565.367.12,1.228.4,1.286,1.086.053.628-.6,1.094-1.236,1.468a28.7,28.7,0,0,1-3.565,1.621,41.509,41.509,0,0,0-4.115,1.842c-2.223,1.193-2.236,1.758-2.23,1.818,0,.019.066.463,1.945.818a74,74,0,0,0,10.112.438c1.953,0,4.075-.017,6.127-.033H23.2C25.288,38.733,27.45,38.716,29.518,38.716ZM15.569,14.084,12.027,15.21q2.46-.1,5.377-.116Zm82.375-.225-.087-.615a19.187,19.187,0,0,1-.027-4.263A13.566,13.566,0,0,1,98.7,5.321a7.8,7.8,0,0,1,2.315-3.233l1.049-.839-.246,1.321c-.006.031-.25,1.346-.567,3.027.176-.481.33-.893.444-1.185.455-1.164,2.288-2.442,3.34-3.1A12.969,12.969,0,0,1,109.049-.5L110-.613l-.448.846a58.1,58.1,0,0,1-5.267,7.924,8.219,8.219,0,0,1,3.624-1.313l.091,0,1.145.041-.809.812a27.175,27.175,0,0,1-6.071,4.555l-.045.019Zm2.579-9.813c-1.96,2.71-1.858,6.869-1.737,8.434l.885-.328-.675-.188C99.334,10.356,100.093,6.335,100.523,4.047Zm7.539-3.2a18.106,18.106,0,0,0-2.5,1.316,8.027,8.027,0,0,0-2.939,2.617c-.577,1.475-2.224,6.182-2.594,7.243l1.819-.675a22.133,22.133,0,0,0,4.34-3.03,24.787,24.787,0,0,0-4.333,2.635l-.665-.742A53.381,53.381,0,0,0,108.061.843Z" transform="translate(1485.608 324.527)" fill="rgba(0,0,0,0)"/></g><path d="M1499.537,722.738s-12.322,4.386-6.693,5.831,15.744,1.521,17.874,1.978,21.829,2.89,32.782,1.445,25.514-1.445,28.881-2.434,5.65-3.632,9.224-4.25,23.766,1.98,23.216-2.133-6.067-4.824-12.474-6.408,15.439-4.246,4.934-6.148c0,0-59.554-.688-71.864,2.8A250.826,250.826,0,0,0,1499.537,722.738Z" transform="translate(11.418 -371.292)" fill="#ccaa75"/><g transform="translate(1506.539 276.061)" opacity="0"><path d="M1678.685,309.492a.132.132,0,0,1,.167-.084l1.625.536-1.277-1.3a.133.133,0,0,1,.19-.186l1.4,1.426c-.049-.506-.106-1.046-.172-1.6l-1.1-1.294a.133.133,0,0,1,.2-.172l.844.989c-.059-.463-.124-.934-.2-1.4a.133.133,0,0,1,.263-.04c.07.455.132.912.19,1.361l.512-1.21a.133.133,0,1,1,.244.1l-.691,1.633c.049.409.093.809.131,1.193l1.036-1.468a.133.133,0,1,1,.217.153l-.967,1.372,1.076-.468a.133.133,0,0,1,.106.243l-.99.431,1.243.061a.133.133,0,1,1-.013.265l-1.657-.082q.014.143.027.282s-.009,0-.009.007-.009,0-.009.006v0c.156,1.7.223,2.93.224,2.951a.129.129,0,0,1-.121.139.1.1,0,0,1-.029,0,.131.131,0,0,1-.106-.124c0-.02-.056-1.189-.2-2.824l-1.475.053a.122.122,0,0,1-.03,0,.133.133,0,0,1,.02-.263l.861-.031-1.439-.474A.133.133,0,0,1,1678.685,309.492Z" transform="translate(-1653.222 -306.241)" fill="#f4e789"/><path d="M1693.819,333.022s1.13-.031,1.276-.447.779-.585,1.032-.981.808-.6,1.139-1.294.649.546.961,1.006.806.665,1,1.036a1.234,1.234,0,0,0,.047-1.058c-.261-.494-.668-1.973-1.434-1.919a3.859,3.859,0,0,0-1.6.354c-.278.176-.563.745-1.007,1.082s-.73.327-.743.858S1694.029,331.975,1693.819,333.022Z" transform="translate(-1666.002 -325.758)" fill="#6f8e5f"/><path d="M1663.443,411.53s4.5-34.883,4.139-60.34l-.434-.083s-1.673,36.593-4.964,60.183Z" transform="translate(-1639.3 -344.111)" fill="#6f8e5f"/><g transform="translate(27.8 4.009)" opacity="0.66"><path d="M1722.516,333.3c.067-.086.585-.9.846-.726s-.452.96-.11,1.17c.3.185,1.127.236,1.345.534a.667.667,0,0,0-.12-.854c-.419-.425-.72-.061-.684-1.005s-1.267-.319-1.651.706C1722.142,333.123,1722.092,333.842,1722.516,333.3Z" transform="translate(-1717.708 -331.952)" fill="#a57e53"/><path d="M1695.282,347.194s3.486-.9,3.274-8.493a3.016,3.016,0,0,1,.294-.9l-.465.156-.163-.451a3.449,3.449,0,0,1-.716.918c-.312.2-4.725,5.377-3.62,8.119A1.049,1.049,0,0,0,1695.282,347.194Z" transform="translate(-1693.711 -336.637)" fill="#cae2a1"/><path d="M1709.729,358.857s1.015-2.161.4-6.577C1710.132,352.28,1710.076,356.455,1709.729,358.857Z" transform="translate(-1707.231 -349.11)" fill="#b9d18c"/><path d="M1715.388,355.123a3.11,3.11,0,0,0-1.453,1.255A10.313,10.313,0,0,0,1715.388,355.123Z" transform="translate(-1710.782 -351.51)" fill="#b9d18c"/></g><g transform="translate(26.853 22.889)" opacity="0.66"><path d="M1721.3,454.285c.075-.079.672-.835.915-.638s-.545.91-.227,1.153c.282.214,1.1.348,1.285.666a.667.667,0,0,0-.033-.862c-.375-.465-.711-.134-.58-1.069s-1.228-.444-1.713.537C1720.941,454.073,1720.819,454.784,1721.3,454.285Z" transform="translate(-1715.736 -453.036)" fill="#a57e53"/><path d="M1689.051,467.137s3.558-.549,4.109-8.122a3.021,3.021,0,0,1,.384-.87l-.478.109-.116-.465a3.449,3.449,0,0,1-.8.841c-.33.163-5.24,4.876-4.416,7.715A1.049,1.049,0,0,0,1689.051,467.137Z" transform="translate(-1687.636 -457.048)" fill="#cae2a1"/><path d="M1703.141,477.957s1.227-2.048,1.061-6.5C1704.2,471.454,1703.727,475.6,1703.141,477.957Z" transform="translate(-1700.724 -468.582)" fill="#b9d18c"/><path d="M1712.034,475.378a3.113,3.113,0,0,0-1.571,1.1A10.3,10.3,0,0,0,1712.034,475.378Z" transform="translate(-1706.904 -471.894)" fill="#b9d18c"/></g><g transform="translate(20.293 9.842)" opacity="0.66"><path d="M1647.7,370.647c-.073-.081-.644-.856-.893-.668s.515.928.188,1.16c-.289.205-1.108.312-1.306.623a.667.667,0,0,1,.062-.86c.39-.452.714-.11.615-1.049s1.243-.4,1.695.594C1648.065,370.446,1648.163,371.161,1647.7,370.647Z" transform="translate(-1645.565 -369.365)" fill="#a57e53"/><path d="M1661.274,383.855s-3.538-.666-3.838-8.254a3.017,3.017,0,0,0-.354-.882l.474.125.132-.461a3.447,3.447,0,0,0,.776.868c.324.174,5.075,5.047,4.157,7.857A1.049,1.049,0,0,1,1661.274,383.855Z" transform="translate(-1655.286 -373.601)" fill="#cae2a1"/><path d="M1672.828,394.966s-1.158-2.088-.845-6.535C1671.983,388.431,1672.32,392.593,1672.828,394.966Z" transform="translate(-1667.818 -385.458)" fill="#b9d18c"/><path d="M1661.555,392a3.111,3.111,0,0,1,1.534,1.155A10.294,10.294,0,0,1,1661.555,392Z" transform="translate(-1659.062 -388.472)" fill="#b9d18c"/></g><g transform="translate(20.875 28.521)" opacity="0.66"><path d="M1651.546,490.6c-.056-.093-.478-.959-.757-.819s.338,1.006-.025,1.175c-.322.149-1.147.105-1.4.376a.667.667,0,0,1,.217-.835c.465-.374.722.022.795-.92s1.3-.171,1.559.891C1651.938,490.473,1651.9,491.194,1651.546,490.6Z" transform="translate(-1649.301 -489.158)" fill="#a57e53"/><path d="M1664.047,505.56s-3.358-1.3-2.276-8.813a3.013,3.013,0,0,0-.188-.932l.443.209.213-.43a3.444,3.444,0,0,0,.606.994c.287.23,4.075,5.884,2.662,8.481A1.05,1.05,0,0,1,1664.047,505.56Z" transform="translate(-1659.645 -494.591)" fill="#cae2a1"/><path d="M1670.859,518.043s-.76-2.263.356-6.58C1671.214,511.463,1670.79,515.617,1670.859,518.043Z" transform="translate(-1667.284 -507.985)" fill="#b9d18c"/><path d="M1663.318,513.028a3.113,3.113,0,0,1,1.3,1.414A10.278,10.278,0,0,1,1663.318,513.028Z" transform="translate(-1661.133 -509.306)" fill="#b9d18c"/></g><path d="M1696.685,361.193s2.288-.062,2.584-.906,1.577-1.184,2.09-1.987,1.637-1.218,2.306-2.621,1.315,1.106,1.947,2.038,1.633,1.347,2.03,2.1a2.5,2.5,0,0,0,.094-2.143c-.529-1-1.353-3.995-2.9-3.886a7.82,7.82,0,0,0-3.243.716c-.563.357-1.139,1.508-2.037,2.191s-1.479.663-1.5,1.738S1697.11,359.073,1696.685,361.193Z" transform="translate(-1668.421 -346.371)" fill="#6f8e5f"/><path d="M1601.994,397.139a4.547,4.547,0,0,0-2.423-2.407c-1.692-.581-2.091-3.626-4.181-3.315s-3.88-2.747-6.893,1.264c-1.4,1.864-2.538,2.289-2.719,4.707a4.762,4.762,0,0,0,2.459-1.143c.651-.843,2.767-1.658,3.387-2.7s1.492,1.378,2.247,1.264,3.418,2.072,4.2,2.738S1601.173,398.475,1601.994,397.139Z" transform="translate(-1574.807 -377.44)" fill="#6f8e5f"/><path d="M1653.2,333.005a2.265,2.265,0,0,0-1.179-1.266c-.832-.3-1.005-1.918-2.042-1.736s-1.9-1.436-3.418.728c-.707,1.005-1.273,1.241-1.381,2.532a2.353,2.353,0,0,0,1.225-.629c.328-.455,1.381-.906,1.7-1.469s.727.724,1.1.657,1.674,1.079,2.056,1.428A1.4,1.4,0,0,0,1653.2,333.005Z" transform="translate(-1624.948 -325.952)" fill="#6f8e5f"/><path d="M1691.408,471.045a3.163,3.163,0,0,0,3.422-.808c1.473-1.609,2.358-.585,3.968-2.415s4.312-2.3,5.222-3.3,2.193,2.658,2.514,3.805a13.128,13.128,0,0,0,2.292,4.5,23.855,23.855,0,0,0,.1-4.753c-.272-1.4-1.93-3.092-2.217-4.891s-3.3-.183-4.28.019-2.216-.889-3.315.387-2.787.969-3.5,2.558S1691.713,466.739,1691.408,471.045Z" transform="translate(-1663.967 -437.997)" fill="#6f8e5f"/><path d="M1678.965,603.226a3.548,3.548,0,0,0,3.837-.906c1.652-1.8,2.644-.656,4.45-2.709s4.834-2.584,5.856-3.7,2.459,2.98,2.819,4.267a14.7,14.7,0,0,0,2.57,5.04,26.741,26.741,0,0,0,.109-5.329c-.305-1.573-2.164-3.467-2.485-5.484s-3.7-.206-4.8.021-2.485-1-3.717.434-3.126,1.087-3.925,2.869S1679.307,598.4,1678.965,603.226Z" transform="translate(-1653.464 -548.676)" fill="#6f8e5f"/><path d="M1590.089,494.273a3.164,3.164,0,0,1-2.883-2.013c-.776-2.039-1.976-1.413-2.8-3.708s-3.159-3.732-3.638-4.994-3.018,1.662-3.74,2.611a13.116,13.116,0,0,1-3.788,3.334,23.868,23.868,0,0,1,1.661-4.454c.77-1.2,2.934-2.163,3.864-3.73s3.132,1.044,3.972,1.6,2.388-.009,2.939,1.582,2.234,1.929,2.311,3.668S1591.392,490.158,1590.089,494.273Z" transform="translate(-1564.226 -453.603)" fill="#6f8e5f"/><path d="M1539.579,598.243s-2.986-.09-4.2-2.442-2.883-1.712-4.179-4.357-4.69-4.4-5.442-5.86-4.186,1.711-5.155,2.744a15.775,15.775,0,0,1-5.182,3.559,21.551,21.551,0,0,1,2.1-4.949c1.024-1.319,4.038-2.282,5.267-4s4.5,1.36,5.723,2.031,3.385.125,4.257,1.957,3.277,2.31,3.485,4.284S1541.194,593.658,1539.579,598.243Z" transform="translate(-1515.418 -539.357)" fill="#6f8e5f"/></g><path d="M1724.344,690.612s-3.813-.152-7.921,0-11.1.152-14.375.761a38.747,38.747,0,0,1-11.333.989c-4.715-.38-12.7-1.293-15.44-1.293s-21.073.112-21.985-.524.342-2.631,2.281-4.486,7.872-3.148,12.549-2.9,15.059-.7,17.911,0,9.551,0,14.191,0,10.908-.985,13.075-.768,18.49-2.212,21.959,1.539C1736.148,684.892,1732.265,690.612,1724.344,690.612Z" transform="translate(-124.997 -347.069)" fill="#8e5536"/><path d="M1652.149,729.148s-3.813-.152-7.921,0-11.1.152-14.375.76a38.743,38.743,0,0,1-11.333.989c-4.716-.38-12.7-1.293-15.44-1.293s-21.073.112-21.985-.524.342-2.631,2.282-4.486,7.872-3.148,12.549-2.9,15.059-.7,17.911,0,9.551,0,14.191,0,10.907-.985,13.075-.768,18.49-2.211,21.959,1.539C1663.953,723.428,1660.07,729.148,1652.149,729.148Z" transform="translate(-64.059 -379.586)" fill="#965b41"/><path d="M1589.71,769.636s-3.813-.152-7.921,0-11.1.152-14.375.761a38.75,38.75,0,0,1-11.333.989c-4.716-.38-12.7-1.293-15.44-1.293s-21.073.112-21.985-.524.342-2.631,2.282-4.486,7.872-3.148,12.549-2.9,15.059-.7,17.911,0,9.551,0,14.191,0,10.908-.985,13.075-.768,18.49-2.211,21.959,1.539C1601.514,763.916,1597.631,769.636,1589.71,769.636Z" transform="translate(-11.355 -413.728)" fill="#9e614c"/><g transform="translate(1497.48 254.779)"><g transform="translate(67.133 29.529)"><g transform="translate(0 39.36)"><path d="M2048.353,555.281s-2.062,1.376-2.382,2.157a13.745,13.745,0,0,0,.174,3.743l-.01.038-.243,2.1s-.133.755.464.846a.693.693,0,0,0,.8-.494l.228-.762a.557.557,0,0,0,.6.4c.718-.033.721-.9.721-.9a.641.641,0,0,0,.672.352.778.778,0,0,0,.608-.466.674.674,0,0,0,.512.108c.374-.132.642-.962.642-.962a16.4,16.4,0,0,0,.1-5.222S2050.651,553.438,2048.353,555.281Z" transform="translate(-2045.879 -554.648)" fill="#fecfab"/><path d="M2046.22,570.025a1.577,1.577,0,0,0,.066-.443l.375-.891s1.931-1.118,2.154-2.334c0,0,.893,1.828,2.436,2a8.08,8.08,0,0,1-.226,2.076l-.211-1.516a.473.473,0,0,0-.53-.433c-.5.018-.426.553-.426.553l.206,2.051-.362-1.731a.531.531,0,0,0-.637-.451c-.47.1-.4.618-.4.618l.1,1.613-.21-1.375a.5.5,0,0,0-.587-.355.556.556,0,0,0-.495.592l-.021,1.65-.164.491a.779.779,0,0,0-.566-.628c-.485-.1-.733.475-.733.475Z" transform="translate(-2045.964 -563.455)" fill="#fecfab"/></g><path d="M2054.6,500.641c-.341,3.212-.543,7.679-.792,14.432a3.136,3.136,0,0,0,3.317.27c.531-2.514,2.09-8.108,2.884-14.1A13.832,13.832,0,0,1,2054.6,500.641Z" transform="translate(-2051.843 -474.666)" fill="#fecfab"/><path d="M2064.212,407.469c.6-5.759-2.064-11.248-3.708-11.638a12.632,12.632,0,0,0-2.161,5.371,144.6,144.6,0,0,0-1.466,15.432,10.894,10.894,0,0,0-.363,5.733,14.017,14.017,0,0,0,5.517.713c.168-1.263.637-3.439.812-4.812C2062.929,417.581,2064.173,408.93,2064.212,407.469Z" transform="translate(-2053.74 -395.831)" fill="#d34242"/><path d="M2055.062,496.852s-.867-.267-.867-.478-.022-2.327.364-2.608,3.512.782,6.226.812c0,0,.316.269.1.909s-.02,1.65-.578,1.752A13.8,13.8,0,0,1,2055.062,496.852Z" transform="translate(-2052.133 -469.458)" fill="#ba2f2f"/><g transform="translate(3.315 19.017)"><path d="M2063.49,474.3l-.025,0a24.583,24.583,0,0,0-4.08.021.121.121,0,0,1-.02-.241,30.336,30.336,0,0,1,3.63-.078,10.649,10.649,0,0,0-2.84-1.2.121.121,0,0,1,.06-.234,10.26,10.26,0,0,1,3.344,1.518.121.121,0,0,1-.069.217Z" transform="translate(-2059.255 -472.564)" fill="#ba2f2f"/></g></g><path d="M2103.8,357.974a18.313,18.313,0,0,1,8.018-1.516l.74,2.608-8.712,1.647Z" transform="translate(-2022.311 -336.685)" fill="#ba2f2f"/><g transform="translate(71.711 0)"><path d="M2084.911,293.764c.664-3.411-3.385-7.068-9.043-8.169s-10.783.772-11.447,4.184,3.386,7.068,9.044,8.169S2084.248,297.175,2084.911,293.764Z" transform="translate(-2064.35 -283.149)" fill="#eab386"/><g transform="translate(6.985 12.121)"><path d="M2094.568,326.82s1.612,7.4,1.556,8.224-1.209,2-3.59,3.819c0,0,3.566,6.557,8.5,5.518s5.635-7.045,6.208-8.322c0,0-4.207-.785-4.573-2.1-.438-1.578-1.583-8.369-1.583-8.369Z" transform="translate(-2092.534 -325.588)" fill="#fecfab"/><path d="M2105.961,326.577l-5.219.987s1.118,5.14,1.469,7.371C2103.91,334.627,2107.023,333.02,2105.961,326.577Z" transform="translate(-2098.708 -326.332)" fill="#fecfab"/></g><path d="M2093.527,295.762a10.52,10.52,0,0,1-2.326,8.709,4.959,4.959,0,0,1-3.022,1.492c-3.165.6-4.632-2.889-5.8-7.557-1.711-6.819.075-7.574,3.986-8.314C2090.718,289.269,2092.718,291.05,2093.527,295.762Z" transform="translate(-2077.419 -286.623)" fill="#fecfab"/><path d="M2078.159,291.623s-3.558-6.077,1.079-7.74c0,0,3.586-3.166,6.854-1.655,6.112,2.826,5,9.38,3.616,12.853l-1.133-2.525-1.045-1.347a5.488,5.488,0,0,0-.605-1.1c-.216-.2-3.587-1.23-5.258-3.136a6.851,6.851,0,0,0,2.353,2.2,4.165,4.165,0,0,1-2.439-.756,6.19,6.19,0,0,0,.966.883,5.843,5.843,0,0,1-3.555-1.563,9.852,9.852,0,0,1-.514,3.6s.186.833.26,1.106A4.846,4.846,0,0,0,2078.159,291.623Z" transform="translate(-2073.756 -280.546)" fill="#30323d"/><path d="M2119.956,314.844a1.224,1.224,0,0,1,1.2-.951c1.042-.1,1.506,2.378.685,2.983s-1.68-.43-1.68-.43Z" transform="translate(-2106.174 -304.668)" fill="#fecfab"/><path d="M2084.274,281.4a5.322,5.322,0,0,1,6.75-4.558c6.059,1.178,4.6,6.97,4.6,6.97Z" transform="translate(-2079.336 -276.681)" fill="#eab386"/><path d="M2084.911,293.764c.663-3.411-3.385-7.068-9.043-8.169s-10.783.772-11.446,4.184a5.187,5.187,0,0,0,1.739,4.552,4.909,4.909,0,0,1,.075-.571c.663-3.411,4.734-5.489,9.092-4.642s7.353,4.3,6.69,7.711c-.023.116-.05.231-.081.344A5.022,5.022,0,0,0,2084.911,293.764Z" transform="translate(-2064.35 -283.149)" fill="#eab386"/><path d="M2075.838,286.154c5.507,1.071,9.487,4.563,9.086,7.894.025-.094.048-.188.067-.285.664-3.411-3.386-7.068-9.043-8.169s-10.784.772-11.447,4.184c-.019.1-.034.2-.045.293C2065.328,286.831,2070.329,285.083,2075.838,286.154Z" transform="translate(-2064.429 -283.149)" fill="#f9d7c0"/></g><g transform="translate(73.898 19.773)"><path d="M2086.308,366.74c-.988-1.613-2.12-4.105-2.12-4.105-2.961-3.131-3.417-4.661-3.423-4.654-.466.586-1.676,2.249-1.954,2.573l.075.4a45.871,45.871,0,0,0-5.71,5.27s6.307,18.856,8,27.573a134.526,134.526,0,0,0,19.972-3.776s-2.832-28.361-3.063-29.2c0,0-3.23-1.09-6.678-2.119l-.068-.32c-.2-.193-2.293-1.689-2.551-1.917a15.117,15.117,0,0,1-2.12,5.763A27.681,27.681,0,0,0,2086.308,366.74Z" transform="translate(-2073.176 -356.465)" fill="#d34242"/><g transform="translate(5.866 4.692)"><path d="M2099.347,380.459l-2.487-4.887a.121.121,0,1,1,.216-.11l2.31,4.54,2.289-3.067a.121.121,0,0,1,.194.145Z" transform="translate(-2096.847 -375.396)" fill="#ba2f2f"/></g><g transform="translate(13.592 2.395)"><path d="M2131.537,371.822l-3.462-2.173a.121.121,0,1,1,.128-.2l3.168,1.987,1.07-5.206a.121.121,0,1,1,.237.049Z" transform="translate(-2128.018 -366.13)" fill="#ba2f2f"/></g></g><g transform="translate(76.469 22.071)"><path d="M2095.5,435.217a4.472,4.472,0,0,1-.911-3.933l-1.415-6.253a51.63,51.63,0,0,0,.546-10.438,140.493,140.493,0,0,1,17.105-3.235s1.1,6.888,4.777,9.432l.666,6.559s1.995,1.95.628,3.823C2116.9,431.172,2108.53,436.367,2095.5,435.217Z" transform="translate(-2090.791 -400.051)" fill="#585872"/><path d="M2106.812,432.576s7.414-1.73,12.858-2.431c0,0,1.609,7.652-4.786,8.861C2107.855,440.335,2106.812,432.576,2106.812,432.576Z" transform="translate(-2101.046 -414.182)" fill="#67677f"/><g transform="translate(2.944 12.072)"><path d="M2095.571,427.712a.118.118,0,0,1-.061,0,.12.12,0,0,1-.077-.153,37.517,37.517,0,0,0,.717-10.009l-.012-.106.1-.025a158.247,158.247,0,0,1,15.671-2.958l.1-.012.029.1c.02.067,1.188,6.851,4.634,8.965a.121.121,0,1,1-.127.206c-3.333-2.046-4.44-8.136-4.709-9-6.424.768-14.44,2.675-15.439,2.916a38.514,38.514,0,0,1-.74,10.007A.119.119,0,0,1,2095.571,427.712Z" transform="translate(-2095.428 -414.444)" fill="#41415b"/></g><g transform="translate(6.371 16.64)"><path d="M2116.447,440.542c-4.562.862-6.442-2.965-7.156-5.322l-.038-.123.125-.03c.034-.008,3.406-.808,6.78-1.446,1.984-.375,3.583-.622,4.751-.734l.112-.011.019.111c.01.064.984,6.331-4.361,7.507Q2116.561,440.52,2116.447,440.542Zm-6.887-5.27c.73,2.327,2.607,5.968,7.066,4.986a5.012,5.012,0,0,0,4.027-4.025,9.228,9.228,0,0,0,.164-3.095c-1.149.116-2.7.358-4.613.719C2113.2,434.425,2110.2,435.121,2109.561,435.272Z" transform="translate(-2109.254 -432.876)" fill="#41415b"/></g><path d="M2153.341,377.042s-.6-7.7-.718-10.414l-2.926-.892s.1,4.24.442,11.714c0,0,.083,1.722,1.65,1.66C2153.158,379.056,2153.362,377.91,2153.341,377.042Z" transform="translate(-2133.303 -365.735)" fill="#67677f"/><g transform="translate(16.665 0.328)"><path d="M2151.492,378.112l-.022,0a.12.12,0,0,1-.122-.12c-.036-3.243-.552-10.731-.558-10.807a.121.121,0,1,1,.24-.017c.006.076.523,7.571.559,10.821A.121.121,0,0,1,2151.492,378.112Z" transform="translate(-2150.79 -367.059)" fill="#41415b"/></g><g transform="translate(18.687 0.992)"><path d="M2159.707,379.733l-.013,0a.12.12,0,0,1-.13-.111c-.343-4.225-.612-9.706-.615-9.761a.121.121,0,0,1,.115-.127.119.119,0,0,1,.126.115c0,.055.273,5.533.615,9.753A.122.122,0,0,1,2159.707,379.733Z" transform="translate(-2158.949 -369.736)" fill="#41415b"/></g><g transform="translate(16.227 6.493)"><path d="M2149.127,393.93l-.1-1.084a.561.561,0,0,1,.441-.648l2.881-.264a.561.561,0,0,1,.552.556l.1,1.084a.56.56,0,0,1-.441.647l-2.881.264A.56.56,0,0,1,2149.127,393.93Zm.386-1.25a.112.112,0,0,0-.088.13l.1,1.084a.111.111,0,0,0,.11.111l2.88-.264a.112.112,0,0,0,.088-.129l-.1-1.084a.112.112,0,0,0-.11-.111Z" transform="translate(-2149.025 -391.933)" fill="#c9c9d6"/></g><path d="M2156.215,411.911a.771.771,0,1,0-.614.9A.771.771,0,0,0,2156.215,411.911Z" transform="translate(-2137.056 -399.995)" fill="#c9c9d6"/><path d="M2086.48,388.552l-2.932-10.088s1.55-1.265,2.3-1.726a101.406,101.406,0,0,1,3.656,11.081s.407,1.637-.877,2.05A1.623,1.623,0,0,1,2086.48,388.552Z" transform="translate(-2083.548 -374.011)" fill="#67677f"/><g transform="translate(0.304 4.222)"><path d="M2087.9,392.827a.121.121,0,0,1-.138-.085c-1.127-3.875-2.96-9.757-2.978-9.816a.121.121,0,0,1,.231-.072c.018.059,1.852,5.943,2.979,9.82a.12.12,0,0,1-.082.15Z" transform="translate(-2084.774 -382.769)" fill="#41415b"/></g><g transform="translate(1.895 3.305)"><path d="M2094.668,389.415a.121.121,0,0,1-.139-.087c-.693-2.541-3.3-10.022-3.328-10.1a.122.122,0,0,1,.075-.154.121.121,0,0,1,.154.075c.026.075,2.638,7.565,3.332,10.114a.121.121,0,0,1-.085.148Z" transform="translate(-2091.196 -379.07)" fill="#41415b"/></g><g transform="translate(1.32 9.055)"><path d="M2092.632,404.494l-2.779.806a.559.559,0,0,1-.647-.441l-.3-1.045a.56.56,0,0,1,.311-.72l2.778-.807a.56.56,0,0,1,.647.442l.3,1.045A.56.56,0,0,1,2092.632,404.494Zm-3.284-.935a.111.111,0,0,0-.062.144l.3,1.045a.112.112,0,0,0,.129.088l2.779-.806a.113.113,0,0,0,.062-.144l-.3-1.045a.113.113,0,0,0-.129-.089Z" transform="translate(-2088.874 -402.271)" fill="#c9c9d6"/></g><path d="M2100.615,422.424a.77.77,0,1,0-.614.9A.77.77,0,0,0,2100.615,422.424Z" transform="translate(-2095.236 -407.902)" fill="#c9c9d6"/></g><g transform="translate(72.267 52.897)"><path d="M2106.308,549.723c-.354-3.983-5.646-38.97-6.06-43.944a63.976,63.976,0,0,0-6,22.764c-.355,7.241-1.321,14.973-1.57,21.18h-5.263c-.237-5.228-.643-12.292-1.321-21.9-.815-11.562,3.825-30.331,3.71-37.7h21.775s-.112,44.192-.06,59.6Z" transform="translate(-2081.19 -490.12)" fill="#585872"/><path d="M2136.7,548.579s-1.595-1.208-2.108-1.54.677,4.494.677,4.494Z" transform="translate(-2117.644 -532.92)" fill="#41415b"/><g transform="translate(0 57.538)"><path d="M2078.375,764.525s.213.079.217.164-.052,1.889-.079,2.119c0,0-1.764.776-2.586,1.121,0,0-.567-.395-.668-.158a1.5,1.5,0,0,1-.674.7,24.036,24.036,0,0,1-4.962.947,2.857,2.857,0,0,1-2.807-1.316,2.591,2.591,0,0,1-.152-1.562Z" transform="translate(-2066.593 -754.057)" fill="#c67f44"/><path d="M2072.323,722.339s3.428-.121,6.39,0l-.544,7.526a10.58,10.58,0,0,1,.308,2.889s-1.888,1.41-7.36,3.109c0,0-2.354.818-3.862-.122a1.121,1.121,0,0,1-.5-1.1c.177-.645,1.171-1.192,1.78-1.629s3.438-2.056,4.242-3.63Z" transform="translate(-2066.696 -722.285)" fill="#d89252"/></g><g transform="translate(24.499 57.461)"><path d="M2176.2,784.723a2.2,2.2,0,0,1-.534,1.275,4.3,4.3,0,0,1-2.229.349,4.169,4.169,0,0,1-2.312-.4c-.335-.255-.41-.7-.5-1.276a5.967,5.967,0,0,0,2.82.438A7.007,7.007,0,0,0,2176.2,784.723Z" transform="translate(-2169.341 -769.131)" fill="#c67f44"/><path d="M2165.448,722.05s3.505-.174,6.2,0l-.288,7.558s.523.873.953,4.509c.332,2.811-.04,3.633-.04,3.633a7.71,7.71,0,0,1-5.538-.24,52.04,52.04,0,0,1,.145-7.442Z" transform="translate(-2165.448 -721.972)" fill="#d89252"/></g></g><g transform="translate(0 50.211)"><path d="M1840.26,539.754a.363.363,0,0,1-.5-.106l-.791-1.216a.363.363,0,0,1,.107-.5l90.1-58.592a.362.362,0,0,1,.5.106l.791,1.216a.362.362,0,0,1-.106.5Z" transform="translate(-1823.069 -479.28)" fill="#c67f44"/><path d="M1801.587,712.253h-11.134l4.757-3.016a.511.511,0,0,0,.248-.661L1794.4,706.9a.508.508,0,0,0-.7-.058l-8.4,5.319c-.04.026-.075.089-.108.089h-9.839a.347.347,0,0,0-.353.354v.846a.364.364,0,0,0,.006.06.368.368,0,0,0-.006.061v8.342a.372.372,0,0,0,.743,0V713.74h2.478v8.176c0,.2.129.5.286.5h.189c.156,0,.269-.3.269-.5V713.74h3.222v8.176c0,.2-.018.5.151.5h.2c.168,0,.388-.3.388-.5V713.74h2.974v8.176c0,.2.129.5.329.5h.241c.2,0,.421-.3.421-.5V713.74h2.479v8.176c0,.2.406.5.606.5h.242c.2,0,.143-.3.143-.5V713.74h3.222v8.176c0,.2.062.5.262.5h.242a.625.625,0,0,0,.487-.5V713.74h2.478v8.176c0,.2.219.5.42.5h.242c.2,0,.33-.3.33-.5V713.74h2.974v8.176c0,.2.122.5.322.5h.242c.2,0,.179-.3.179-.5v-9.309C1801.766,712.407,1801.787,712.253,1801.587,712.253Z" transform="translate(-1775 -650.364)" fill="#41415b"/></g><g transform="translate(95.131 24.129)"><path d="M2182.806,390.779c1.09-2.436-3.848-6.829-9.608-13.6a11.428,11.428,0,0,0-3.812-3.139,14.157,14.157,0,0,0-1.41,5.557,19,19,0,0,0,.474,4.745s7.007,5.219,7.682,5.688c0,0-.212.652-.794,1.938a20.612,20.612,0,0,0,5.278,2.788A22.856,22.856,0,0,0,2182.806,390.779Z" transform="translate(-2165.715 -374.039)" fill="#d34242"/><path d="M2180.4,446.377a75.951,75.951,0,0,1-5.694,10.277s1.439.55,2.8,1.254a70.092,70.092,0,0,0,8.168-8.743A20.622,20.622,0,0,1,2180.4,446.377Z" transform="translate(-2170.777 -428.449)" fill="#fecfab"/><path d="M2199.358,446.3s.867.268.987.093,1.488-1.7,1.327-2.149-3.5-1.541-5.765-3.042c0,0-.413.045-.6.693s-.91,1.376-.508,1.773A13.792,13.792,0,0,0,2199.358,446.3Z" transform="translate(-2185.8 -424.555)" fill="#ba2f2f"/><g transform="translate(10.491 14.987)"><path d="M2201.3,435.6a.121.121,0,0,1-.085-.206,6.638,6.638,0,0,1,1.053-.866.121.121,0,1,1,.12.21,4.445,4.445,0,0,0-.647.5,5.474,5.474,0,0,1,1.625-.156.121.121,0,1,1-.02.241,5.949,5.949,0,0,0-2.007.276A.134.134,0,0,1,2201.3,435.6Z" transform="translate(-2201.181 -434.51)" fill="#ba2f2f"/></g><g transform="translate(0 27.591)"><path d="M2163.2,485.766s-2.089,1.022-2.37,1.669-1.088,1.92-1.207,2.23c-.2.509-.978,1-.715,1.239.169.157,1.213.21,1.984-1.279l-.792,2.9s-.206.646.307.8a.536.536,0,0,0,.7-.353l.347-.628a.5.5,0,0,0,.477.417c.461.056.738-.707.738-.707a.568.568,0,0,0,.549.388.688.688,0,0,0,.588-.337.6.6,0,0,0,.436.154c.343-.072.676-.768.676-.768a14.521,14.521,0,0,0,.7-4.567S2165.427,484.42,2163.2,485.766Z" transform="translate(-2158.852 -485.367)" fill="#fecfab"/><path d="M2167.921,505.17a.6.6,0,0,1-.437-.154.686.686,0,0,1-.587.338.568.568,0,0,1-.549-.388s-.277.762-.738.707a.507.507,0,0,1-.478-.417l-.346.628a.538.538,0,0,1-.678.364c-.515-.142-.329-.807-.329-.807l.484-1.771c0-.009.252-.974.308-1.126l-.208,1.375s.147.837.861.653a.875.875,0,0,0,1.133.12s.722.442,1.194-.02a.753.753,0,0,0,1.071-.344c-.016.048-.026.075-.026.075S2168.263,505.1,2167.921,505.17Z" transform="translate(-2162.533 -498.286)" fill="#fecfab"/></g></g><g transform="translate(65.97 71.505)"><g transform="translate(1.163 2.417)"><path d="M2054.782,574.952c-.5.018-.426.553-.426.553l.188,1.962-.344-1.642a.531.531,0,0,0-.636-.451.546.546,0,0,0-.4.618l.1,1.517-.2-1.279a.5.5,0,0,0-.587-.355c-.516.039-.484.614-.484.614l-.012,1.715a.557.557,0,0,0,.588.369c.718-.033.721-.9.721-.9a.641.641,0,0,0,.673.353.78.78,0,0,0,.609-.467.672.672,0,0,0,.511.108,1.063,1.063,0,0,0,.461-.531l-.224-1.747A.473.473,0,0,0,2054.782,574.952Z" transform="translate(-2050.462 -574.952)" fill="#fecfab"/><path d="M2046.652,587.229a.789.789,0,0,0-.738.394l-.022.191s-.133.755.464.846a.693.693,0,0,0,.8-.494l.068-.227C2047.163,587.722,2047.009,587.3,2046.652,587.229Z" transform="translate(-2045.879 -584.178)" fill="#fecfab"/></g><path d="M2042.8,568.712s.26-.8.313-.891.814-.762.943-1.327a1.036,1.036,0,0,0-1.6-1.12c-.009.024-.026.046-.032.069-.218.766-.872,2.568-.888,2.944-.04.929-.526,2.127-.282,2.22s.7.319,1.5-1.45h.124v-.039A4.046,4.046,0,0,0,2042.8,568.712Z" transform="translate(-2041.187 -565.199)" fill="#fecfab"/></g></g></g></g><g transform="translate(10375.288 4336.249)" opacity="0.12"><circle cx="1.5" cy="1.5" r="1.5" transform="translate(-10179.288 -2630.249) rotate(90)" fill="#2b8a3e"/><circle cx="1.5" cy="1.5" r="1.5" transform="translate(-10179.288 -2621.249) rotate(90)" fill="#2b8a3e"/><circle cx="1.5" cy="1.5" r="1.5" transform="translate(-10179.288 -2613.249) rotate(90)" fill="#2b8a3e"/><circle cx="1.5" cy="1.5" r="1.5" transform="translate(-10187.288 -2630.249) rotate(90)" fill="#2b8a3e"/><circle cx="1.5" cy="1.5" r="1.5" transform="translate(-10187.288 -2621.249) rotate(90)" fill="#2b8a3e"/><circle cx="1.5" cy="1.5" r="1.5" transform="translate(-10187.288 -2613.249) rotate(90)" fill="#2b8a3e"/><circle cx="1.5" cy="1.5" r="1.5" transform="translate(-10196.288 -2630.249) rotate(90)" fill="#2b8a3e"/><circle cx="1.5" cy="1.5" r="1.5" transform="translate(-10196.288 -2621.249) rotate(90)" fill="#2b8a3e"/><circle cx="1.5" cy="1.5" r="1.5" transform="translate(-10196.288 -2613.249) rotate(90)" fill="#2b8a3e"/><circle cx="1.5" cy="1.5" r="1.5" transform="translate(-10204.288 -2630.249) rotate(90)" fill="#2b8a3e"/><circle cx="1.5" cy="1.5" r="1.5" transform="translate(-10204.288 -2621.249) rotate(90)" fill="#2b8a3e"/><circle cx="1.5" cy="1.5" r="1.5" transform="translate(-10204.288 -2613.249) rotate(90)" fill="#2b8a3e"/><circle cx="1.5" cy="1.5" r="1.5" transform="translate(-10213.288 -2630.249) rotate(90)" fill="#2b8a3e"/><circle cx="1.5" cy="1.5" r="1.5" transform="translate(-10213.288 -2621.249) rotate(90)" fill="#2b8a3e"/><circle cx="1.5" cy="1.5" r="1.5" transform="translate(-10213.288 -2613.249) rotate(90)" fill="#2b8a3e"/><circle cx="1.5" cy="1.5" r="1.5" transform="translate(-10221.288 -2630.249) rotate(90)" fill="#2b8a3e"/><circle cx="1.5" cy="1.5" r="1.5" transform="translate(-10221.288 -2621.249) rotate(90)" fill="#2b8a3e"/><circle cx="1.5" cy="1.5" r="1.5" transform="translate(-10221.288 -2613.249) rotate(90)" fill="#2b8a3e"/></g><text transform="translate(155 1701)" fill="#2b8a3e" font-size="22" font-family="GenYoGothicTW-Medium, GenYoGothic TW" font-weight="500" letter-spacing="0.022em"><tspan x="0" y="0">農業專區</tspan></text></g></svg>