<svg xmlns="http://www.w3.org/2000/svg" xmlns:xlink="http://www.w3.org/1999/xlink" width="260" height="112" viewBox="0 0 260 112"><defs><linearGradient id="a" x1="1" y1="1" x2="0.035" gradientUnits="objectBoundingBox"><stop offset="0" stop-color="#fff"/><stop offset="1" stop-color="#0b7285" stop-opacity="0"/></linearGradient><clipPath id="b"><rect width="260" height="112" rx="4" transform="translate(139 1802)" fill="url(#a)"/></clipPath><linearGradient id="c" x1="0" x2="0.965" xlink:href="#a"/><linearGradient id="d" x1="0.009" y1="0.518" x2="1.008" y2="0.026" xlink:href="#a"/><clipPath id="f"><rect width="260" height="112" rx="2" transform="translate(691 1752)" fill="#0c8599" opacity="0.1"/></clipPath><linearGradient id="g" x1="0.75" y1="1.216" x2="1.069" y2="-0.812" gradientUnits="objectBoundingBox"><stop offset="0.25" stop-color="#fff"/><stop offset="0.643" stop-color="#e5dfd8"/></linearGradient></defs><g transform="translate(-691 -1662)"><rect width="260" height="112" rx="4" transform="translate(691 1662)" fill="#c5f6fa"/><g transform="translate(552 -140)" opacity="0.36" clip-path="url(#b)"><circle cx="40.5" cy="40.5" r="40.5" transform="translate(109 1774)" fill="url(#c)"/><rect width="135" height="31" rx="15.5" transform="matrix(0.819, -0.574, 0.574, 0.819, 102.317, 1960.433)" fill="url(#d)"/><circle cx="80" cy="80" r="80" transform="translate(265 1803)" fill="url(#c)"/></g><g transform="translate(-9478.232 -906.105) rotate(180)" opacity="0.12"><circle cx="1.531" cy="1.531" r="1.531" transform="translate(-10183.257 -2630.477) rotate(90)" fill="#0b7285"/><circle cx="1.531" cy="1.531" r="1.531" transform="translate(-10183.257 -2622.516) rotate(90)" fill="#0b7285"/><circle cx="1.531" cy="1.531" r="1.531" transform="translate(-10183.257 -2615.167) rotate(90)" fill="#0b7285"/><circle cx="1.531" cy="1.531" r="1.531" transform="translate(-10190.605 -2630.477) rotate(90)" fill="#0b7285"/><circle cx="1.531" cy="1.531" r="1.531" transform="translate(-10190.605 -2622.516) rotate(90)" fill="#0b7285"/><circle cx="1.531" cy="1.531" r="1.531" transform="translate(-10190.605 -2615.167) rotate(90)" fill="#0b7285"/><circle cx="1.531" cy="1.531" r="1.531" transform="translate(-10198.567 -2630.477) rotate(90)" fill="#0b7285"/><circle cx="1.531" cy="1.531" r="1.531" transform="translate(-10198.567 -2622.516) rotate(90)" fill="#0b7285"/><circle cx="1.531" cy="1.531" r="1.531" transform="translate(-10198.567 -2615.167) rotate(90)" fill="#0b7285"/><circle cx="1.531" cy="1.531" r="1.531" transform="translate(-10205.916 -2630.477) rotate(90)" fill="#0b7285"/><circle cx="1.531" cy="1.531" r="1.531" transform="translate(-10205.916 -2622.516) rotate(90)" fill="#0b7285"/><circle cx="1.531" cy="1.531" r="1.531" transform="translate(-10205.916 -2615.167) rotate(90)" fill="#0b7285"/><circle cx="1.531" cy="1.531" r="1.531" transform="translate(-10213.877 -2630.477) rotate(90)" fill="#0b7285"/><circle cx="1.531" cy="1.531" r="1.531" transform="translate(-10213.877 -2622.516) rotate(90)" fill="#0b7285"/><circle cx="1.531" cy="1.531" r="1.531" transform="translate(-10213.877 -2615.167) rotate(90)" fill="#0b7285"/><circle cx="1.531" cy="1.531" r="1.531" transform="translate(-10221.226 -2630.477) rotate(90)" fill="#0b7285"/><circle cx="1.531" cy="1.531" r="1.531" transform="translate(-10221.226 -2622.516) rotate(90)" fill="#0b7285"/><circle cx="1.531" cy="1.531" r="1.531" transform="translate(-10221.226 -2615.167) rotate(90)" fill="#0b7285"/></g><g transform="translate(0 -90)" clip-path="url(#f)"><g transform="translate(-24.492 187.605)"><g transform="translate(594.008 1551.61)"><g transform="translate(0 8.447)"><g transform="translate(9.871 56.975)"><g transform="translate(0.141 67.102)"><path d="M253.051,96.473c.843,7.171,1.377,8.934,5.189,10.737,1.759.814-.95,3.314-.95,3.314s-5.8-1.13-8.2-2.4c-3.226-1.7-.3-2.905-.705-10.045C248.2,94.867,253.051,96.473,253.051,96.473Z" transform="translate(-246.906 -96.072)" fill="#ebb3a2"/><path d="M258,103.71c.6.825.465,1.66-.662,1.89-1.618.339-6.2-.956-9.7-3.874-1.567,6.116.767,5.688,4.229,5.306.744-.084,4.241,3.889,10.885,1.35,1.2-.46.7-2.786-2.2-3.494C258.5,104.388,258,103.71,258,103.71Z" transform="translate(-247.137 -92.962)" fill="#9fabd1"/></g><path d="M256.862,52.786c-.688,2.544-5.23,1.86-4.72,7.715a41.2,41.2,0,0,0,1.525,7.582c1.093,3.986-1.5,20.325-2.818,29.528,0,0-4.992,9.506-3.536,27.965a17.406,17.406,0,0,0,9.371-.281s.557-18,1.949-22.963c2.7-9.619,5.429-29.534,5.53-32.638.25-7.661.186-13.47-1.07-16.731Z" transform="translate(-247.046 -52.786)" fill="#2f4aab"/></g><g transform="translate(0 53.399)"><g transform="translate(0 74.061)"><path d="M250.436,98.376c-.9,8.024-2.764,9.081,1.758,15.61,1.045,1.51-2.068,1.8-2.068,1.8s-6.053-1.577-8.149-3.141c-2.8-2.09,1.928-3.973,2.367-12.076C244.511,97.476,250.436,98.376,250.436,98.376Z" transform="translate(-240.45 -98.254)" fill="#ebb3a2"/><path d="M251.355,108.432c.45.865.333,2.008-.757,2.159-2.939.434-6.235-2.132-8.81-5.213-2.386,3.643-.339,5.156.691,5.716,4.708,2.573,3.576,4,9.816,4.209,2.973.1,4.3-.905,3.057-2.558A39.935,39.935,0,0,0,251.355,108.432Z" transform="translate(-240.679 -94.335)" fill="#b6c4e0"/></g><path d="M253.077,50.479c-2.514,5.65-5.579,12.53-5.836,16.274a24.647,24.647,0,0,0,.239,7.122c1.088,3.979,2.972,17.734,1.66,26.935a56.327,56.327,0,0,0-6.593,28.021c5.449,1.242,6.977.76,6.977.76s7.47-22.206,11.008-26.049c3.26-3.545,3.369-29,3.719-32.09.629-5.526-.626-15.445.125-19.086Z" transform="translate(-239.657 -50.479)" fill="#2f4aab"/><path d="M262.854,64.116c.336,2.679-3.074,24.667-3.409,28.181a10.355,10.355,0,0,1-3.014,6.528c-1.174,1.339-6.229,18.826-7.852,22.072-.606,1.211-3.364.947-3.364.947s5.773-20.92,7.907-23.436a18.87,18.87,0,0,0,4.39-8.069C258.464,86.067,262.854,64.116,262.854,64.116Z" transform="translate(-238.182 -42.976)" fill="#496ee5"/></g><path d="M283.407,40.575c.25-.513.787-.868.88-1.28s-.408-.352-.654-.091c-.671.715-1.621.915-1.948,1.372s-1.282.313-1.685.7a5.554,5.554,0,0,1-1.358.856c-2.274.1-9.093.481-10.3.746-1.307.293-12.955-9.123-12.955-9.123s-4.584,2.271-3.468,5.548,12.7,9.906,14.434,9.845c2.729-.088,8.965-2.018,11.909-2.978.877-.2,1.535-.823,2.008-.89a16.2,16.2,0,0,0,3.736-1.6Z" transform="translate(-234.591 -6.282)" fill="#ebb3a2"/><path d="M252.269,30.513a18.421,18.421,0,0,1,6.533,4.661c1.674,1.983,7.114,7.884,7.114,7.884l-6.723,6.866s-4.4-11.025-4.054-11.862S252.269,30.513,252.269,30.513Z" transform="translate(-234.302 -8.065)" fill="#21a3a6"/><path d="M260.562,38.463c-.367-1.611-2.356-.755-2.7-3.277-.353-4.285,3.119-6.595,5.111-7.7,0,0-10.207-7.43-10.188-4.111.012,2.578-1.742,10.422-3.627,11.921-3.559,2.821-5.044,8.357-2.476,11.4,1.746,2.066,11.53,1.315,11.7,1.217C258.918,47.628,261.356,41.861,260.562,38.463Z" transform="translate(-238.084 -12.459)" fill="#ebb3a2"/><g transform="translate(10.541)"><path d="M248.926,23.761c.333-5.629,4.159-7.435,8.627-7.173s6.827,3.747,6.492,9.36c-.059,1.079-.915,1.505-1.127,2.469a24.869,24.869,0,0,0,.665,2.708c-.006.459-.887.97-1.531,1.023-1.187,2.673-2.218,5-5.182,3.891A12.954,12.954,0,0,1,248.926,23.761Z" transform="translate(-246.693 -15.74)" fill="#ebb3a2"/><path d="M262.19,24.989l2.742-1.6c2-2.527-4.266-8.506-10.437-7.16-5.74,1.246-6.753,5.1-6.991,8.542a16.141,16.141,0,0,0,1.3,6.81s.048.752,2.5.434c1.928-.251,5.423-1.6,5.029-2.091-.543-.676-.2-3.249.975-3.379.572-.068,1.217.888,1.217.888Z" transform="translate(-247.479 -16.032)" fill="#5c2b23"/></g><g transform="translate(6.296 22.708)"><path d="M250.135,30.681l-4.627,3.987a26.214,26.214,0,0,0,.36,10.532c1.068,4.051,5.564,8.773,1.89,17.891a37.771,37.771,0,0,0-2.93,16.891A34.4,34.4,0,0,1,258.1,81.171a18.3,18.3,0,0,0,8.6.234s.519-12.853-.646-31.573c0,0,2.66-2.132-.388-8.8-1.13-2.473-3.947-7.436-4.632-8.035-.4-.349-2.544-1.542-2.544-1.542s3.682,3.86.374,3.886C255.418,35.369,250.135,30.681,250.135,30.681Z" transform="translate(-244.74 -30.681)" fill="#1fc4c4"/></g><path d="M250.671,33.957c1.9,2.587,6.673,9.43,6.94,12.634.233,2.758-1.662,8.211-1.837,10.62s-3.291,13.177-2.256,20.766c-3.795-.343-7.943-.961-8.805.243.172-5.348.45-10.63,4.658-23.808,1.984-6.21-.953-4.054-1.984-9.577S250.671,33.957,250.671,33.957Z" transform="translate(-238.458 -6.17)" fill="#21a3a6"/><g transform="translate(10.468 56.394)"><path d="M257.72,53.17c-2.773.924-7.661-.527-8.588-.755s-2.2,8.935-1.5,9.862,8.545,1.426,9.467.5S257.72,53.17,257.72,53.17Z" transform="translate(-247.431 -52.411)" fill="#21a3a6"/><path d="M257.359,53.335c-2.776.925-7.167-.539-8.09-.772s-2.08,8.4-1.384,9.321,7.858,1.389,8.782.464S257.359,53.335,257.359,53.335Z" transform="translate(-247.299 -52.33)" fill="#1fc4c4"/></g><path d="M257.026,47.068a8.177,8.177,0,0,1,2.265-.547c.516-.033.908.226.453.485a8.9,8.9,0,0,1-2.1,1.132C257.22,48.138,257.026,47.068,257.026,47.068Z" transform="translate(-231.684 0.741)" fill="#f7c6b7"/><path d="M264.627,51.985c-.93,0-2.113,1.186-3.021,1.6-2.615-.141-8.084-3.26-10.837-3.344-.25-1.26,1.707-11.986-.1-12.335a43.981,43.981,0,0,0-6.125-.434c-1.557,11.712.191,16.285.946,16.911,3.8,2.034,13,2.259,15.73,2.307,1.547.584,4.289-.632,4.882-.459.873.042,3.116-.087,3.147-.322.039-.271-.287-.155-1.031-.222-.211-.017-1.691-.174-1.842-.174-.045-.412,2.584-.017,3.26-.326.426-.191.429-.392-.143-.479-.933-.132-3.122-.308-3.122-.308s3.77.167,3.858-.209c.081-.329-3.169-.673-3.169-.673l.174-.191,2.9.419c.372-.277-.62-.787-2.82-1.133a9,9,0,0,0-1.37-.175Z" transform="translate(-238.894 -4.238)" fill="#f7c6b7"/><g transform="translate(4.25 22.792)"><g transform="translate(0 3.406)"><path d="M248.531,32.932c-3.5.521-3.986,3.131-4.6,7.908a66.359,66.359,0,0,0-.5,9.231,12.632,12.632,0,0,0,2.643.468c2.555.178,6.395.079,6.512-.219a84.139,84.139,0,0,0,.6-11.95C253.056,34.065,248.531,32.932,248.531,32.932Z" transform="translate(-243.42 -32.932)" fill="#1fc4c4"/></g><path d="M252.925,32.118c-1.229,1.164-2.457,2.373-3.361,2.5s-1.618,2.114-2.2,6.771c-.591,4.709-.715,10.354-.715,10.354l-3.223-.465s.315-12.867,1.995-15.841a13.641,13.641,0,0,1,5.175-4.7Z" transform="translate(-243.417 -30.735)" fill="#21a3a6"/></g><g transform="translate(9.995 11.985)"><path d="M252.672,38.331a8.341,8.341,0,0,0-1.587-3.741c-.059-.426-.248-.978-.305-1.237-.1-.526-.56-3.573-.789-5.2a1.94,1.94,0,0,0,1.363-1.31c.505-1.228-.895-3.08-.895-3.08a6.006,6.006,0,0,0-1.38,2.57c-.8,1.235-3.031,3.606-1.327,6.145a3.9,3.9,0,0,0,1.166,3.82c-.012.011.68,2.071.68,2.071a5.334,5.334,0,0,0,3.507,3.152C254.9,41.969,253.968,39.582,252.672,38.331Z" transform="translate(-247.126 -23.764)" fill="#5c2b23"/><path d="M250.387,25.948c.259.887,1.073,4.731-.16,5.894.8.867,1.451,1.3.66,2.817a2.214,2.214,0,0,1,1.459,3.178c.425.329,2.648,1.457,1.781,2.77,1.662.719,5.226,4.387,5.514,7.348-.268.324-1.883-2.169-1.883-2.169l-1.952-2.741s1.67,3.538,1.667,3.751a14.955,14.955,0,0,1-1.6-1.942l2.854,3.558-4.01-2.761s-2.175-5.427-3.55-7.3-3.689-8.6-2.4-10.844.864-2.29,1.032-2.124C250.25,25.817,250.387,25.948,250.387,25.948Z" transform="translate(-246.428 -22.907)" fill="#7f3e39"/><path d="M252.393,40.593c0,1.3.147,2.158,1.766,4.392,1.463,2.02,5.038,4.13,5.038,4.13l-2.9-3,2.925,2.549-1.091-1.787,1.524,1.4c-2.646-5.689-5-6.373-5.685-7.532a6.014,6.014,0,0,0-2.039-2.3c-1.553-.617-.7-2.99-1.49-3.424s-.152-2.852-1.487-3.728c-.575-.372-.067-3.685,1.356-5.565.442-.581-1.039-.685-1.615.62a14.118,14.118,0,0,0-.588,6.87C248.6,35.1,252.393,40.593,252.393,40.593Z" transform="translate(-246.704 -22.907)" fill="#5c2b23"/></g></g><g transform="translate(37.422 0)"><g transform="translate(42.383 28.352)"><path d="M297.946,28.873c.532,2.849,4.361,12.86,4.851,23.32,0,0,1.421,3.781,1.87,13.928.276,6.346-3.682,3.024-3.682,3.024s-2.964-4.269-4.328-14.654A117.991,117.991,0,0,1,292.2,39.777C291.568,36.815,297.946,28.873,297.946,28.873Z" transform="translate(-292.159 -28.873)" fill="#cc9787"/><path d="M306.355,63.1a3.3,3.3,0,0,0,.029-.727c-.133-1.022-1.865-2.194-3.1-3.4-.023-.034-.063-.074-.082-.1-.369-.657-1.6-8.593-2.13-11.329,0,0-4.821.642-5.161,1.84s2.434,7.179,2.15,10.566a5.5,5.5,0,0,0,1.35,3.556s.657-1.35,1.635-1.484a3.153,3.153,0,0,1,2.524.8,2.115,2.115,0,0,1-.541,2.4c-.4.288-1.2.6-1.184,1.127s1.254.11,2.176-.456c-.277.316-.583.572-.482.753.183.329,1.156-.445,1.913-1.158a3.7,3.7,0,0,0,.817-1.874.919.919,0,0,0,.108-.428C306.372,63.16,306.361,63.134,306.355,63.1Z" transform="translate(-290.111 -18.601)" fill="#cc9787"/><path d="M306.174,135.815l-3.246-72.267a5.481,5.481,0,0,0-1.454-3.877h0a3.282,3.282,0,0,0-2.015-.622h0a4.067,4.067,0,0,0-1.262.208h0v0a1.427,1.427,0,0,1-1.8-.9h0a1.428,1.428,0,0,1,.9-1.8h0a6.79,6.79,0,0,1,2.162-.355h0a5.988,5.988,0,0,1,3.917,1.349h0a8.24,8.24,0,0,1,2.4,5.892h0l3.24,72.248a1.419,1.419,0,0,1-1.356,1.482h0l-.068,0h0a1.421,1.421,0,0,1-1.419-1.36Z" transform="translate(-289.869 -13.837)" fill="#474954"/><path d="M297.279,54.585a33.161,33.161,0,0,0,.15,3.514,5.845,5.845,0,0,0,1.6,2.273,11.844,11.844,0,0,0,1.214,1.986c.358.3.891-.415.891-1.425,0-.794-.653-1.772-.848-2.79a4.175,4.175,0,0,1,2.688-.353C303.627,58.085,297.279,54.585,297.279,54.585Z" transform="translate(-289.342 -14.727)" fill="#cc9787"/><path d="M306.619,106.559a1.766,1.766,0,0,0-.727-1.218,3.305,3.305,0,0,1-1.532.285,4.651,4.651,0,0,1-1.484-.1,1.793,1.793,0,0,0-.594,1.215l-.121,2.274c-.067,1.285,1.063,1.6,2.429,1.553s2.426-.446,2.283-1.73Z" transform="translate(-286.657 13.199)" fill="#343742"/></g><g transform="translate(20.113 12.689)"><path d="M284.279,18.769c-.378,5.587-.729,7.647-3.717,9.445a13.5,13.5,0,0,0-2.769,2.087s6.461,8.438,10.868,8.241,8.253-6.387,8.825-7.425a10.567,10.567,0,0,1-2.82-2.614c-1.783-1.893-.956-6.75-1.265-8.211S284.279,18.769,284.279,18.769Z" transform="translate(-277.793 -18.769)" fill="#cc9787"/><path d="M293.214,23.019l-9.2,9.9-5.533-4.249s3.511-1.5,4.268-3.967a23.917,23.917,0,0,0,.93-4.317Z" transform="translate(-277.415 -17.882)" fill="url(#g)" style="mix-blend-mode:multiply;isolation:isolate"/></g><g transform="translate(24.474)"><path d="M295.894,20.627c-.092-.006.236-.391.124-.378a6.314,6.314,0,0,0,.343-4.747c-1.136-3.606-6.368-5.061-9.7-3.894-4.418,1.541-4.866,3.581-4.587,7.613-1,.025-1.4-.271-1.46,1.239a6.218,6.218,0,0,0,1.667,3.834c.088,4.325,2.725,6.861,5.367,7.083a4.181,4.181,0,0,0,.682-.017c2.428-.056,5.13-1.628,6.238-5.658.911-.144,1.052-1.023,1.673-2.225C297.01,21.971,297.046,20.688,295.894,20.627Z" transform="translate(-280.606 -10.237)" fill="#cc9787"/><path d="M281.12,19.482l1.764,1.141a25.01,25.01,0,0,1,.873-2.378,3.42,3.42,0,0,1,1.921-3.173c1.583-.772,7.393-.36,8.435,1.372a2.711,2.711,0,0,1,.342,2.51l.457,2.166,1.1-.093s1.414-4.553-.016-7c-1.6-2.755-8.373-5.091-13.02-1.9C280.291,13.953,281.12,19.482,281.12,19.482Z" transform="translate(-280.391 -10.583)" fill="#343742"/><g transform="translate(1.435 12.824)"><path d="M281.532,20.025c.226.479-.026,3,.66,4.81a12.478,12.478,0,0,0,3.5,4.361c1,.516,3.4.315,3.913.318s2.936-3.3,3.195-3.92,1.251-4.1,1.251-4.1l-.139-1.251s-1.422,3.823-3.431,4.843c-1.156.578-4.355-.022-5.139-.4-2-.974-2.541-6.106-2.649-5.821C282.1,20.43,281.532,20.025,281.532,20.025Z" transform="translate(-281.532 -18.856)" fill="#343742"/><path d="M285.91,24.9a15.93,15.93,0,0,0-.24,3.573c.143.1,1.516.256,1.854-.07a26.512,26.512,0,0,0,2.958-3.565c.152-.518,1.118-3.458,1.215-3.894.071-.35-.132-1.068-.228-.736a17.73,17.73,0,0,1-2.471,4C288.255,25.031,285.91,24.9,285.91,24.9Z" transform="translate(-279.284 -18.157)" fill="#474954"/></g></g><g transform="translate(0 57.025)"><g transform="translate(29.117 44.561)"><g transform="translate(2.919 20.353)"><path d="M288.6,108.609a1.437,1.437,0,0,1-1.556,1.279h0a1.44,1.44,0,0,1-1.558-1.279V90.521a1.439,1.439,0,0,1,1.558-1.277h0a1.436,1.436,0,0,1,1.556,1.277Z" transform="translate(-285.484 -89.244)" fill="#b6c4e0"/><path d="M286.391,91.882V105.41l1.246-.177-.091-13.351Z" transform="translate(-284.985 -87.792)" fill="#fff" opacity="0.76" style="mix-blend-mode:soft-light;isolation:isolate"/></g><g transform="translate(1.627 17.857)"><path d="M290.346,91.728a2.845,2.845,0,0,1-2.846,2.848h0a2.85,2.85,0,0,1-2.849-2.848V90.482a2.851,2.851,0,0,1,2.849-2.848h0a2.846,2.846,0,0,1,2.846,2.848Z" transform="translate(-284.651 -87.634)" fill="#b6c4e0"/><path d="M285.862,89.258c0,.758-.161,2.519.343,2.834a2.82,2.82,0,0,0,2.714-.268,3.711,3.711,0,0,0,.268-2.668C289.052,89.156,285.862,89.258,285.862,89.258Z" transform="translate(-283.998 -86.797)" fill="#fff" opacity="0.58" style="mix-blend-mode:soft-light;isolation:isolate"/></g><g transform="translate(1.139 37.436)"><path d="M291.011,104.36c0,2.262-1.454,4.093-3.249,4.093h-.177c-1.8,0-3.249-1.831-3.249-4.093h0c0-2.262,1.454-4.1,3.249-4.1h.177c1.8,0,3.249,1.834,3.249,4.1Z" transform="translate(-284.336 -100.264)" fill="#b6c4e0"/><path d="M285.491,103.325c.206-1.691.741-2.283,1.4-2.493s2.105-.533,3.17,1.927c1.239,2.851-3.409,2.283-3.972,1.961S285.491,103.325,285.491,103.325Z" transform="translate(-283.701 -100.029)" fill="#fff" opacity="0.47" style="mix-blend-mode:soft-light;isolation:isolate"/></g><g transform="translate(0.013)"><path d="M284.63,95.128c.713,1.78,4.927,2.345,6.232.445,0,0,3.7-17.195,2.876-18.005s-7.326-2.493-8.394-.358S284.63,95.128,284.63,95.128Z" transform="translate(-283.079 -76.085)" fill="#496ee5"/><path d="M286.763,96.465c-1.305-.24-2.017-.535-2.135-1.482s-1.781-17.088-.594-17.8,2.849-1.6,3.438-.656S286.763,96.465,286.763,96.465Z" transform="translate(-283.609 -76.115)" fill="#2f4aab"/></g><g transform="translate(0 39.161)"><path d="M300.221,107.53c.753,1.037.756,3.724-.592,4.57-3.175,1.986-8.16.034-9.706-1.163-1.449-1.124-4.8-1.229-5.543-2.057-1.215-1.4-.335-6.238-.335-6.238l7.819,5.438Z" transform="translate(-283.527 -100.68)" fill="#343742"/><path d="M284.723,108.387c3.643.814,4.091,1.367,8.056,3.121,5.33,2.349,10.892-2.214,6.092-4.2a11.194,11.194,0,0,1-6.052-5.016s-2.256-2.133-3.618.119c-.239.713,0,1.961-2.2,1.426-.946-.231-2.313-2.255-2.668-1.78C283.764,102.455,282.847,107.967,284.723,108.387Z" transform="translate(-283.601 -101.377)" fill="#474954"/><path d="M289.772,107.382a18.068,18.068,0,0,1,3.162-1.462h0c.274-.025.36.017.417.132h0a.216.216,0,0,0,.3.093h0a.217.217,0,0,0,.093-.295h0a.789.789,0,0,0-.87-.372h0a10.6,10.6,0,0,0-2.793,1.257h0c.462-.877,1.577-1.347,2.841-1.769h0a.2.2,0,0,0,.138-.144h0a.227.227,0,0,0-.033-.2h0a.949.949,0,0,0-.933-.319h0c-1.125.161-2.82,1.265-3.837,1.48h0c.281-1.6,2.009-1.829,3.351-2.1h0l-.006,0a.227.227,0,0,0,.172-.267h0a.213.213,0,0,0-.256-.18h0c-1.336.279-3.549.525-3.737,2.784h0a.207.207,0,0,0,.076.177h0a.207.207,0,0,0,.172.073h0c.031-.011.067-.011.108-.02h0c1.161-.163,3.008-1.389,4.012-1.5h0l.012,0h0c-1.239.47-2.392,1.07-2.7,2.372h0a.233.233,0,0,0,.067.222h0a.292.292,0,0,0,.181.048h0a.065.065,0,0,0,.06-.014Z" transform="translate(-281.299 -100.351)" fill="#343742"/></g></g><path d="M288.818,98.307c-5.784,1.691-8.216-.772-5.25-8.187l-.93-16.711.125-20.078,13.518-5.962c1.02,2.3,2.172,11.64,2.251,15.745.281,12.949-1.5,25.622-1.88,26.2-.495,5.593.127,4.691-.268,7.563C296.142,99.217,293.714,97.95,288.818,98.307Z" transform="translate(-255.2 -47.369)" fill="#9fabd1"/><g transform="translate(36.14 11.261)"><path d="M293.263,92a35.409,35.409,0,0,0,1.277-7.357c.38-.583,1.121-12.414.848-25.366-.022-1.2-.141-2.854-.321-4.641a19.408,19.408,0,0,0-3.685,2.659c-.185,8.445,2.514,21.272-.943,31.63,0,0-3.722,4.787-1.715,4.144C290.209,92.591,293,93.242,293.263,92Z" transform="translate(-288.132 -54.633)" fill="#b6c4e0"/></g><g transform="translate(0 1.865)"><g transform="translate(0 82.603)"><path d="M265.584,108.155c-.495-.047-1.36,2.107-.152,3.37a4.244,4.244,0,0,0,2.023,1c3.885.673,6.332-.45,7.818-1.773,1.668-1.491,3.99-1.938,4.846-2.544,2.048-1.454.477-4.365.477-4.365l-6.584,5.348Z" transform="translate(-264.819 -100.769)" fill="#474954"/><path d="M279.521,101.987c-.863-.113-7.1-.129-7.1-.129-.9,4.094-5.308,5.83-6.464,6.684-2.973,2.2,2.494,4.694,7.069,2.886,3.461-1.37,2.734-2.483,6.925-3C281.865,108.2,281,102.794,279.521,101.987Z" transform="translate(-264.655 -101.858)" fill="#343742"/><path d="M271.811,107.567a18.663,18.663,0,0,0-3.409-1.488h0c-.285-.017-.384.02-.44.144h0a.256.256,0,0,1-.327.118h0a.247.247,0,0,1-.107-.329h0a.836.836,0,0,1,.916-.4h0a11.877,11.877,0,0,1,3.02,1.285h0c-.527-.927-1.733-1.4-3.09-1.828h0a.2.2,0,0,1-.149-.149h0a.229.229,0,0,1,.033-.214h0a1.015,1.015,0,0,1,.989-.338h0c1.189.141,3.034,1.271,4.131,1.484h0c-.347-1.694-2.19-1.888-3.645-2.166h.016a.218.218,0,0,1-.194-.273h0a.228.228,0,0,1,.273-.183h0c1.437.274,3.8.482,4.057,2.876h0a.262.262,0,0,1-.063.194h0a.248.248,0,0,1-.183.065h0l-.119-.011h0c-1.254-.143-3.246-1.411-4.33-1.518h0l-.012,0h0c1.347.468,2.6,1.094,2.952,2.449h0a.258.258,0,0,1-.067.243h0a.277.277,0,0,1-.187.06h0a.486.486,0,0,1-.064-.019Z" transform="translate(-263.342 -101.107)" fill="#474954"/></g><path d="M272.525,102.491c.054-2.505,1.592-21.193,2.11-32.811a74.546,74.546,0,0,1,3.834-21.107l16.818.766c-.991,7.165-4.026,18.188-4.725,23.219-1.152,17.461-5.085,28.914-5.373,31.277-1.149,10.746-3.889,33.081-4.8,32.238-2.845-3.406-9.346-4.178-10.834-3.268-.011-.112-.219.15-.226.036C268.908,133.126,272.5,104.01,272.525,102.491Z" transform="translate(-262.356 -48.572)" fill="#9fabd1"/></g><path d="M289.075,66.232c0,5.37-4.188,22.512-4.761,25.775a52.292,52.292,0,0,0-1.125,7.739c0,2.3-3.147,25.341-3.773,24.978-3.452-2.015-8.683-2.682-7.483-3.485.961-.643,4.1-.259,5.119,0s-2.845-2.914-3.872-2.655a18.419,18.419,0,0,1,4.32-1.249c1.023,0,3.866-18.129,4.125-21.969S289.075,66.232,289.075,66.232Z" transform="translate(-261.001 -36.991)" fill="#b6c4e0"/></g><g transform="translate(11.457 20.989)"><path d="M304.4,44.589c.713-9.562,3.871-15.607,2.383-16.01a55.857,55.857,0,0,1-9.013-3.417,4.187,4.187,0,0,1-3.266,4.246c-8.038,1.772-10.478-5.1-10.478-5.1a63.027,63.027,0,0,1-9.506,2.58c-2.465.46-.414,4.023-.66,6.717-.185,2.063,1.391,10.129,1.908,12.417s-3.212,25.282-3.561,29.368c-.194,2.29,34.208,2.539,33.552-.315C302.988,62.981,303.6,55.411,304.4,44.589Z" transform="translate(-272.209 -24.02)" fill="#85dbff"/><path d="M294.394,25.183l-1.119-.774c.178.171.4.569.006,1.51-1.375,3.288-5.616,3.286-5.626,3.321-2.569.023-5.488-1.231-6.643-3.558a6.439,6.439,0,0,1-.694-1.559l-.684.4s-.467,2.567,3.155,4.731a8.1,8.1,0,0,0,5.9,1C295.21,29.36,294.394,25.183,294.394,25.183Zm-1.119-.774a.575.575,0,0,0-.153-.1Z" transform="translate(-268.135 -24.123)" fill="#fff"/><path d="M300.905,29.438c-3.8,4.51-3.231,11.341-4.508,12.935-1.423,1.781-12.22,0-16.255,2.73-1.711,1.156,13.764-.712,15.308,2.138.877,1.625.614,4.792.53,9.041s-.357,16.04,1.932,16.971c3.193-.471,3.559-1,3.559-1s-2.425-12.09-2.273-19.7,1.046-8.483,1.135-12.908S300.905,29.438,300.905,29.438Z" transform="translate(-267.918 -21.199)" fill="#a9ecff"/><g transform="translate(31.011 4.401)"><path d="M293.522,30.008c-.355,2.125-1.417,6.728-1.3,8.261s.484,7.379.484,7.379l5.565-2.981Z" transform="translate(-292.214 -25.286)" fill="#85dbff"/><path d="M294.8,26.962a4.263,4.263,0,0,1,3.3,2.361c.711,1.06,3.339,13.018,3.575,13.375s-4.074,1.721-5.785,2.668c-.414.229-2.745-9.665-2.984-10.969S294.8,26.962,294.8,26.962Z" transform="translate(-291.841 -26.962)" fill="#a9ecff"/></g></g><g transform="translate(2.986 24.185)"><path d="M275.344,29.264c-2.125,2.127-8.345,18.692-8.588,21.872a2.077,2.077,0,0,0,1.77,2.477,18.941,18.941,0,0,0,7.968,2.479c6.019.708,5.441.738,7.258,1.33s1.3-5.345,1.3-5.345a32.235,32.235,0,0,1-7.322-2.952c-2.831-1.773-3.452-1.592-3.452-1.592s3.986-6.139,5.4-10.033S275.344,29.264,275.344,29.264Z" transform="translate(-266.745 -24.49)" fill="#cc9787"/><path d="M285.215,44.657c.642-.191,1.817-1.578.527-1.2s-3.283-.1-4.089.133-3.544.346-4.189.532l-1.86,4.634s6.114,2.485,7.242,2.159c.721.121,1.463-.594,1.7-.891.592-.059.589-.825.589-.825.769-.3.118-1.239.414-1.414s.406-1.153.411-1.594l-3.3-1.125S284.573,44.843,285.215,44.657Z" transform="translate(-261.87 -16.716)" fill="#cc9787"/><path d="M277.114,26.244c-4.84-1.06-7.185,12.409-8.425,13.648,1.415.884,7.594,4.393,7.594,5.457s1.342-1.7,2.759-3.113S277.114,26.244,277.114,26.244Z" transform="translate(-265.675 -26.185)" fill="#85dbff"/><g transform="translate(4.549 17.674)"><path d="M275.071,38.482a6.188,6.188,0,0,0-2.242-.764,4.168,4.168,0,0,0-1.9-.043c-.494.141-.558.682.262.653a3.73,3.73,0,0,1,1.355.268,6.387,6.387,0,0,1,1.281.654,7.92,7.92,0,0,0-2.018-.453c-.764-.02-2.213-.313-2.017.256.115.34,1.322.366,2.246.722a10.872,10.872,0,0,1,1.273.588s-.975-.3-1.854-.479c-.829-.164-1.87-.113-1.773.279.084.349,1.226.254,1.8.519a5.026,5.026,0,0,1,1.186.643s-2.57-.659-2.68-.358c-.153.412.98.694,1.949,1.133s1.353.308,1.792.048C275.246,41.248,275.385,38.707,275.071,38.482Z" transform="translate(-269.679 -37.586)" fill="#ebb3a2"/></g></g></g></g><g transform="matrix(0.996, -0.087, 0.087, 0.996, 850.247, 1584.689)"><path d="M303.991,264.795a71.45,71.45,0,0,1-6.848,7.258c-.607.343-1.651.909-1.948,1.13-.377.273-1.5,1.088-2.062,1.463-.373.247.1.556.727.281.2-.09,1.055-.464,1.373-.568-.086.119-.715.935-.775,1.055-.562.968-.687.991-.885,1.365-.433.807-1.15,1.465-.567,1.547.25.028.675-.458,1.229-1.176l1.027-.946c.043.873-1.21,3.293-.883,3.442.657.3,1.055-1.3,1.856-2.861.047-.014-1.147,2.742-.91,2.775.456.064,1.434-1.7,1.812-2.693.058-.025.035.068.083.043-.431,1.162-1.056,2.212-.827,2.171a3.713,3.713,0,0,0,1.579-2.013,7.431,7.431,0,0,0,1.714-2.764,3.709,3.709,0,0,0,.138-.79c1.244-1.8,7.031-4.129,7.954-5.8.288-.524,1.606-1.756,1.586-3.369-.043-4.041-2.024-10.129-2.258-10.946C306.778,252.262,304.569,264.121,303.991,264.795Z" transform="translate(-209.961 -231.368)" fill="#f0c3a1"/><g transform="translate(0 77.623)"><g transform="translate(0 2.251)"><g transform="translate(14.632 24.034)"><path d="M231.533,327.678a60.4,60.4,0,0,1,8.59,1.655c1.456.526,5.82,2.772,5.423,3.567s-.927.327-1.521-.065a9.957,9.957,0,0,0-5.092-2.115c-2.636-.264-7.334.265-7.863-.264S231.533,327.678,231.533,327.678Z" transform="translate(-230.915 -327.678)" fill="#9fabd1"/><path d="M240.41,330.06a18.353,18.353,0,0,1,4.844,3.059,1.125,1.125,0,0,0,.181-.26c.4-.794-3.966-3.042-5.425-3.571a49.15,49.15,0,0,0-7.6-1.609s.795.6-1.057.991C233.785,329.063,239.225,329.628,240.41,330.06Z" transform="translate(-230.87 -327.678)" fill="#b6c4e0"/></g><g transform="translate(13.195)"><path d="M232.624,330.988a1.7,1.7,0,0,1-1.506,1.848h0a1.7,1.7,0,0,1-1.507-1.848V307.723a1.7,1.7,0,0,1,1.507-1.851h0a1.7,1.7,0,0,1,1.506,1.851Z" transform="translate(-229.612 -305.872)" fill="#9fabd1"/><g transform="translate(1.77)"><path d="M232.46,330.955V307.688a1.785,1.785,0,0,0-1.242-1.816v26.9A1.783,1.783,0,0,0,232.46,330.955Z" transform="translate(-231.218 -305.872)" fill="#b6c4e0"/></g></g><g transform="translate(0 24.017)"><path d="M231.66,327.662a61.691,61.691,0,0,0-8.57,1.76c-1.457.528-5.818,2.774-5.425,3.569s.93.327,1.52-.068a9.982,9.982,0,0,1,5.091-2.11c2.65-.269,7.338.26,7.869-.269S231.66,327.662,231.66,327.662Z" transform="translate(-217.64 -327.662)" fill="#9fabd1"/><path d="M231.809,328.751c-1.852-.4-1.061-.989-1.061-.989a49.114,49.114,0,0,0-7.6,1.6c-1.454.53-5.82,2.776-5.421,3.569a1.006,1.006,0,0,0,.181.263,18.3,18.3,0,0,1,4.843-3.059C223.94,329.706,229.379,329.143,231.809,328.751Z" transform="translate(-217.634 -327.652)" fill="#b6c4e0"/></g><g transform="translate(13.873 25.083)"><path d="M230.283,328.706a2.319,2.319,0,0,0,2.278-.077,25.643,25.643,0,0,1,.389,4.436,19.573,19.573,0,0,1-.705,3.923.7.7,0,0,1-1.147-.242,34.056,34.056,0,0,1-.833-4.162C230.17,331.726,230.283,328.706,230.283,328.706Z" transform="translate(-230.227 -328.629)" fill="#9fabd1"/><path d="M231.308,329.067a2.086,2.086,0,0,0,1.108-.2,30.185,30.185,0,0,1,.332,3.557c-.062.531-.5,4.978-.867,4.528-.262-.332-.1-2.059-.1-4.045C231.781,332.349,231.308,329.067,231.308,329.067Z" transform="translate(-230.116 -328.605)" fill="#b6c4e0"/></g></g><path d="M245.249,305.429c-.531-.828-22.751-.414-24.657-.1-1.638.27-1.706,2.451-1.561,3.521-.007.024-.034.055-.025.079.155.762,3.56,2.216,13.446,2.216,7.427,0,13.077-.95,13.446-2.216.007-.015-.008-.024-.008-.04C246.545,307.939,245.7,306.144,245.249,305.429Z" transform="translate(-217.503 -303.716)" fill="#9fabd1"/><path d="M244.644,305.8c0,1.091-5.53,1.974-12.348,1.974s-12.352-.883-12.352-1.974,5.531-1.972,12.352-1.972S244.644,304.715,244.644,305.8Z" transform="translate(-217.405 -303.83)" fill="#b6c4e0"/></g><g transform="translate(7.276 27.975)"><g transform="translate(17.631 25.043)"><path d="M255.887,296.334c-.981.211-10.982-1.878-11.576-2.2s-4.461-7.094-4.041-8.268,3.768-4.769,4.133-4.317,3.226,8.275,4.043,8.359a67.083,67.083,0,0,1,8.542,4.042C257.409,294.337,255.887,296.334,255.887,296.334Z" transform="translate(-240.238 -281.505)" fill="#f0c3a1"/></g><path d="M243.42,278.858c.634.758,3.667,7.176,3.667,7.176s-5.583,4.569-5.879,4.593-2.229-5.659-2.05-7.818S239.372,274,243.42,278.858Z" transform="translate(-222.719 -256.911)" fill="#66d9e8"/><g transform="translate(14.158 44.993)"><g transform="translate(0 10.643)"><g transform="translate(0.632)"><path d="M250.653,311.524c-1.057.864-8.107,14.846-8.287,15.965-.614,3.722.809,5.51,2.891,7.823-1.92.516-2.92,1.587-5.208-1.889-.93-1.418-2.5-3.089-2.381-4.137.187-1.64.842-1.622,1.9-3.666,1.566-3.016,2.385-10.908,6.219-15.274C248.13,307.681,251.7,310.661,250.653,311.524Z" transform="translate(-237.661 -309.262)" fill="#ebb3a2"/></g><path d="M244.59,332.624c-.765.064-3.762-1.747-4.7-4.819a12.427,12.427,0,0,0-1.122-2.376s-1.737,1.2-1.674,1.972.194,1.271,1.784,3.018c.926,1.023,1.936,4.57,3.961,4.594s4.326-.006,3.291-.887A12.392,12.392,0,0,1,244.59,332.624Z" transform="translate(-237.088 -307.61)" fill="#2f4aab"/></g><path d="M239.86,300.373s8.327,6.829,5.664,8.942c-3.912,3.106-6.561,15.96-6.148,16.479a6.208,6.208,0,0,0,4.176,1.627c1.107-2.316,12.562-21.221,13.026-22.369a3.384,3.384,0,0,0-.877-3.821c-1.18-.83-9.149-1.146-9.8-1.263-1.22-.226-5.728-.362-5.728-.362Z" transform="translate(-236.858 -299.606)" fill="#0b7285"/></g><path d="M243.385,287.506c.575-1.886-1.046-6.025-.6-9.023a7.724,7.724,0,0,1,6.6-5.084s-6.57-9.344-7.378-6.461c-1.66,5.946-2.5,6.438-5.33,8.962C233.108,279.084,242.755,289.573,243.385,287.506Z" transform="translate(-223.052 -258.008)" fill="#ffd1ae"/><g transform="translate(15.678)"><path d="M242.292,266.7c1.112-3.852,4.061-4.5,7.125-3.616s4.144,3.677,3.03,7.524c-.212.735-.878.9-1.178,1.541-.017.374-.011,1.446.041,1.985-.077.311-.766.529-1.229.463-1.24,1.671-2.322,3.123-4.21,1.891A9.245,9.245,0,0,1,242.292,266.7Z" transform="translate(-238.107 -258.381)" fill="#ffd1ae"/><path d="M249.985,268.7l3.149-1.036c.569-.84-1.2-5.41-5.958-5.586-4.418-.169-5.64,1.91-6.452,4.37a22.811,22.811,0,0,0-.8,6.057s5.4-.8,4.964-1.781c-.269-.6.3-2.607,1.188-2.489.424.06.723.719.723.719Z" transform="translate(-238.318 -258.449)" fill="#212529"/><path d="M240.07,272.84c-2.588-.422-1.707-6.618.271-7.934-2.541-2.731.827-6.324,2.863-5.641.518-1.356,2.979.325,2.025,2.91,1.4-1.119,5.643.6,4.275,1.612.885.24-.945.8-2.309,1.479S240.07,272.84,240.07,272.84Z" transform="translate(-238.466 -258.785)" fill="#212529"/></g><g transform="translate(1.299 43.765)"><g transform="translate(24.947 17.848)"><path d="M252.341,316.968c-.278,1.335,3.959,14.407,4.517,15.388,1.864,3.278,4.176,2.845,7.033,4.1-1.172,1.612-1.873,2.327-5.836,1.051-1.6-.514-3.657.655-4.343-.148-1.547-1.824-.254-.726-.8-4.081-.487-2.983-5.091-11.051-4.848-16.855C248.21,312.881,252.621,315.633,252.341,316.968Z" transform="translate(-248.055 -314.686)" fill="#f7c6b7"/><path d="M261.005,333.574c-.565.523-4.682,1.722-7.39-.293-1.22-.909-1.322-.378-1.322-.378s-.205,2.709.314,3.275.316.984,2.646.589c1.722-.293,1.715-.24,6.171-.084,2.4.084,3.794-2.209,2.437-2.264A8.189,8.189,0,0,1,261.005,333.574Z" transform="translate(-247.625 -312.84)" fill="#496ee5"/></g><path d="M225.449,302.39c-.185,2.4.555,4.063,1.845,4.8s20.266,2.205,21,2.758c-.539,2.29.29,7.517,1.636,11.884,2.342,7.621,3.4,12.429,3.4,12.429s5.6-.839,6.338-.839c-.671-4.327-3.223-19.858-3.318-21.961-.127-2.772.16-6.453-1.132-7.559s-17.224-5.019-18.331-5.389S225.449,302.39,225.449,302.39Z" transform="translate(-225.42 -298.492)" fill="#0c8599"/></g><g transform="translate(0 16.452)"><path d="M239.721,296.921c-.215-1.242,2.559-6.631,3.033-9.6.984-3.037,1.669-5.188,1.436-5.656a41.812,41.812,0,0,0-5.414-7.956,25,25,0,0,0-6.091,7.863c-1.959,4.411-3.136,6.228-4.777,10.9-.958,2.732-1.347,3.8-2.57,7.593-.6,1.857-1.308,6.685-1.037,7.84.168.719,8.691-.834,8.691-.834l-.128-4.05,1.813,3.646s5.545-1.336,6.6-2.37a12.056,12.056,0,0,1,1.477-1.311S239.954,298.3,239.721,296.921Z" transform="translate(-224.242 -273.711)" fill="#99e9f2"/><g transform="translate(12.466 3.074)"><path d="M239.55,296.225c0-5.5,3.379-4.742,3.853-7.71.071-2.83.2-7-.172-7.378a34.9,34.9,0,0,1-3.764-4.637c-.493.45-.925.734-1.106,1.353-.259.87,1.431,5.652.2,9.185-.581,1.675-3.718,8.878-2.869,10.909a20.083,20.083,0,0,0,4.509,5.822,16.566,16.566,0,0,1,3.688-1.885S239.55,297.624,239.55,296.225Z" transform="translate(-235.552 -276.5)" fill="#99e9f2"/></g></g></g><path d="M283.305,291.109c-4.53-.455-18.83-3.9-21.538-2.479a5.237,5.237,0,0,0-3.923,2.984c-.529,1.076-10.955,10.635-14.04,11.593-4.307,1.265-6.037,1.112-7.519.616-2.147-.349-2.086.894.14,2.876,1.139,1.007,4.219.094,5.629,2.121,1.57,2.247,3.25.785,3.692-.8.482-1.738-.108-1.6,2.2-2.392s11.262-2.049,14.193-8.067c1.765-3.62,12.938,5.925,23.587,1.227C291.375,296.293,283.305,291.109,283.305,291.109Z" transform="translate(-215.895 -227.795)" fill="#ffd1ae"/><path d="M280.012,290.674c-1.533.183-10.348-1.9-11.27-1.714s-2.631,8.512-1.346,11.269,10.656.121,11.758-1.9S280.012,290.674,280.012,290.674Z" transform="translate(-212.603 -227.727)" fill="#5c7cf9"/><g transform="translate(49.917 35.665)"><g transform="translate(48.976 33.121)"><path d="M339.244,310.8c-.168.367-.474.591-.68.495l-31.019-14.121c-.206-.095-.24-.472-.075-.842h0c.17-.366.476-.586.682-.493l31.019,14.123c.208.094.242.469.073.838Z" transform="translate(-307.365 -295.812)" fill="#b6c4e0"/><path d="M337.343,334.549a.983.983,0,0,1-.983.982h0a.981.981,0,0,1-.982-.982V299.542a.981.981,0,0,1,.982-.982h0a.982.982,0,0,1,.983.982Z" transform="translate(-304.502 -295.532)" fill="#9fabd1"/></g><g transform="translate(51.851 37.291)"><path d="M348.413,317.547c-.169.367-.51.574-.763.458l-37.431-17.044c-.254-.115-.321-.5-.154-.875h0c.17-.369.51-.572.762-.46l37.431,17.044c.251.116.323.507.155.876Z" transform="translate(-309.973 -299.596)" fill="#b6c4e0"/><path d="M345.488,339.743a1.1,1.1,0,0,1-1.1,1.1h0a1.1,1.1,0,0,1-1.1-1.1v-36.6a1.1,1.1,0,0,1,1.1-1.1h0a1.1,1.1,0,0,1,1.1,1.1Z" transform="translate(-306.569 -299.346)" fill="#9fabd1"/></g><g transform="translate(6.832 35.181)"><path d="M270.011,313.529c.163.369.482.589.7.486l32.152-14.973c.22-.1.263-.483.095-.852h0c-.165-.367-.484-.584-.7-.485l-32.151,14.975c-.224.1-.267.479-.1.849Z" transform="translate(-269.048 -297.681)" fill="#b6c4e0"/><path d="M269.128,337.2a.984.984,0,0,0,.983.983h0a.98.98,0,0,0,.98-.983V302.195a.979.979,0,0,0-.98-.981h0a.983.983,0,0,0-.983.981Z" transform="translate(-269.128 -297.32)" fill="#9fabd1"/></g><g transform="translate(12.508 40.217)"><path d="M274.723,320.2c.17.368.51.576.762.463l36.7-17.045c.252-.115.321-.508.153-.875h0c-.167-.369-.508-.574-.761-.461l-36.7,17.044c-.249.115-.321.507-.152.874Z" transform="translate(-274.242 -302.251)" fill="#b6c4e0"/><path d="M274.278,342.394a1.1,1.1,0,0,0,1.1,1.1h0a1.1,1.1,0,0,0,1.1-1.1V305.8a1.1,1.1,0,0,0-1.1-1.1h0a1.1,1.1,0,0,0-1.1,1.1Z" transform="translate(-274.278 -302.001)" fill="#9fabd1"/></g><g transform="translate(69.428)"><path d="M356.892,266.395c1.475-.11,4.545.654,3.828,2.188l-12.646,38.34c-.715,1.536-21.259-5.892-21.259-5.892-.682-1.217-1.242-2.059-.63-3.373l8.809-29.929a3.172,3.172,0,0,1,2.879-1.966Z" transform="translate(-325.921 -265.762)" fill="#a8508f"/><path d="M358.25,266.9a2.341,2.341,0,0,1,1.161,3.1l-11.033,36.576a2.338,2.338,0,0,1-3.072,1.224h0a2.34,2.34,0,0,1-1.165-3.1l11.035-36.576a2.338,2.338,0,0,1,3.074-1.222Z" transform="translate(-324.08 -265.666)" fill="#85316b"/></g><g transform="translate(41.756 31)"><path d="M350.674,301.186c.67,1.292-1.711,3.25-3.282,3.25l-33.052,3.415c-1.569,0-11.925-10.394-11.925-10.394-1.382-.551-.055-2.3,1.285-2.3l29.643-1.272c1.335,0,10.062,4.439,13.366,5.428Z" transform="translate(-300.71 -293.888)" fill="#a8508f"/><path d="M351.267,303.121c.086,1.578-.824,2.92-2.032,2.993l-36.977,2.262c-1.21.074-2.252-1.144-2.336-2.72h0c-.086-1.58.822-2.918,2.03-2.994L348.93,300.4c1.208-.074,2.254,1.144,2.337,2.722Z" transform="translate(-299.884 -293.223)" fill="#85316b"/><path d="M313.682,303.215c-2.045-.366-8.865-7.755-10.109-7.886-2.986-.313-2.824,1.713-2.71,2.445s10.615,11.815,12.44,10.928S313.682,303.215,313.682,303.215Z" transform="translate(-300.814 -293.744)" fill="#85316b"/></g><g transform="translate(0 32.464)"><path d="M314.661,304.423c.8,1.291-1.87,2.154-3.743,2.154l-36.528,3.415c-1.873,0-11.09-10.751-11.09-10.751.062-1.158.9-1.976,2.491-1.976l38.324-2.048c1.6,0,7.119,4.7,10.24,7.865Z" transform="translate(-262.892 -295.216)" fill="#a8508f"/><path d="M315.895,305.187a2.7,2.7,0,0,1-2.424,2.99l-41.21,2.263a2.78,2.78,0,0,1-2.787-2.72s.983-2.917,2.424-2.992l41.211-2.264a2.786,2.786,0,0,1,2.786,2.723Z" transform="translate(-262.261 -294.476)" fill="#85316b"/><path d="M274.193,305.4c-2.442-.366-8.086-8.139-9.577-8.139s-2.317,4.572-1.1,6.037c.477.571,7.373,8.363,9.554,7.478S274.193,305.4,274.193,305.4Z" transform="translate(-262.93 -295.007)" fill="#85316b"/></g></g><g transform="translate(47.484 60.269)"><path d="M286.251,292.083c-10.1-1.1-25.1,3.952-25.323,7.349,0,0-.867,3.673.951,6.19.781,1.083,4.366,19.26,3.486,22.749-1.456,4.706-1.772,5.388-3.1,6.509-1.574,1.824,2.134,2.069,4.835.634,1.491-.795,1.068-3.106,2.679-4.13,2.571-1.635,2.883-2.51,1.623-4.1a3.781,3.781,0,0,1-.795-1.885c-.3-2.684,2.529-14.13-1.473-20.394-2.41-3.775,18.19-1.653,22.6-5.328C297.008,295.282,286.251,292.083,286.251,292.083Z" transform="translate(-260.721 -287.692)" fill="#ffd1ae"/><path d="M293.617,291.894c0,1.225,1.281,7.972-.917,9.279-3.919,2.329-15.955,1.349-15.955,2.083,0-1.96-.124-5.879-2.082-7.594a9.768,9.768,0,0,0-4.531-2.081,68.837,68.837,0,0,1,7.1-1.961c.98,0,1.042-2.419,2.512-3.4S293.617,291.894,293.617,291.894Z" transform="translate(-259.76 -288.085)" fill="#5c7cf9"/></g><g transform="translate(58.303 19.484)"><path d="M282.723,259.342c2.635,7.656,4.16,6.636,5.208,7.473,1.578,1.255,4.616,7.779,4.346,13.6-.222,4.9-10.894,15.238-11.359,11.224a57.084,57.084,0,0,0-1.305-8.9c-.777-2.9-1.631-4.99-.786-7.849,1.326-4.485.652-6.966-1.491-8.741S282.723,259.342,282.723,259.342Z" transform="translate(-269.882 -250.237)" fill="#ffd1ae"/><path d="M275.543,253.415c-2.85,1-3.815,2.539-2.911,6.984.054.279.578.775.648,1.041a1.617,1.617,0,0,1,.047.177,24.316,24.316,0,0,0,.031,3.29,1.374,1.374,0,0,0,1.252.38c.318.624.437,1.083.7,1.533.668,1.162,1.113,1.374,1.5,1.315,1.452-.238,2.891-1.374,4.286-2.2,1.91-1.14,1.016-4.224.581-6.52C280.962,255.614,279.193,252.139,275.543,253.415Z" transform="translate(-270.357 -250.87)" fill="#ffd1ae"/><path d="M272.34,257.41c-.745-.367-.158-.321-1.147-.989a2.605,2.605,0,0,1-.655-1.142l2.03-.374a4.242,4.242,0,0,1-1.963.045c-.126-.072,3.316-1.679,3.316-1.679a9.949,9.949,0,0,1,5.339-2.169c2.121-.165,2.738.662,2.738.662s4.521,1.1,3.778,7.891c0,0-.3,4.426.818,4.97-.775.884-3.3-.825-3.3-.825s-1.571-2.233-1.5-3.055c.155-1.756-1.477-1.967-1.7-1.273-.082.247.384,1.238.168,1.487-.2.22-.827,1.626-.843,1.374a7.057,7.057,0,0,0-3.767-5.235c-.881-.306,1.888-2.477,2.667-2.9s-1.425.352-3.069,2.492C274.921,257.127,272.34,257.41,272.34,257.41Z" transform="translate(-270.538 -251.081)" fill="#653d10"/><path d="M279.024,258.222c.289-.373,1.328-1.066,1.7-.1s.454,3.2-.4,3.4S279.024,258.222,279.024,258.222Z" transform="translate(-269.671 -250.412)" fill="#ffd1ae"/><path d="M287.257,265.288c-1.226,2.45-7.288,5.39-8.269,5.39-.98,3.673-2.143,6.615-2.019,10.043,0,0,.428,1.656.673,2.878s-.736,4.717.244,9.126c3.183,1.716,4.6,2.04,7.594,4.164a46.113,46.113,0,0,1,4.962,3.858c1.007.735,4.652.43,4.041-.55-.416-.667-1.53-10.9-.8-17.515s-1.592-12.372-3.552-14.577Z" transform="translate(-269.882 -249.629)" fill="#fff"/><path d="M285.156,267.677a5.932,5.932,0,0,0,1.961,1.317A49.469,49.469,0,0,0,285,273.589a21.121,21.121,0,0,0-.641,7.257c.244,1.591-.368,1.1.244,4.653s.246,9.913-.612,9.859c-1.47-.094-5.145-2.573-6.52-2.848-.85-.169.273-6.153.153-8.6s-.614-2.328-.491-4.409,1.468-8.942,1.959-8.207S285.156,267.677,285.156,267.677Z" transform="translate(-269.866 -249.385)" fill="#fff"/><g transform="translate(15.413 19.228)"><g transform="translate(12.495 20.529)"><path d="M296.808,290.92c-.188.452-.384,1.208-.67,1.864a4.464,4.464,0,0,0-.181,2.736c.043.316-.138,1.013.252.862s.6-1.424.555-1.928c-.011-.2,0,.985-.033,1.444-.014.168.033.665.011,1.228-.021.722-.262,1.393-.079,1.438.626.154.863-2.6.978-2.386.073.138-.8,2.685-.435,2.617.773-.147.984-2.159,1.167-2.6,0,0-.04.444-.151,1.044-.088.472-.652,1.238-.47,1.344.63.376,1.242-2.542,1.373-2.608.185-.1-.814,1.945-.325,1.84a10.468,10.468,0,0,0,1.1-2.2,27.966,27.966,0,0,0,.272-4.391c-.093-.7.159-4.064.159-4.064l-2.938.735A20.249,20.249,0,0,1,296.808,290.92Z" transform="translate(-295.859 -287.152)" fill="#ebb3a2"/></g><path d="M285.687,270.1c-2.7,2.853-.185,5.725,2.3,6.827a21.359,21.359,0,0,1,2.986,1.713c.418.26,5.872,3.63,5.872,3.63s.874,7.446,1.509,10.738c0,0,2.654,1.511,2.954.732a97.261,97.261,0,0,0,1.337-12.043c-.034-2.19-.314-2.843-.813-2.965s-6.712-5.2-9.9-8.263C288.883,267.536,287.34,268.355,285.687,270.1Z" transform="translate(-284.522 -268.526)" fill="#ffd1ae"/><path d="M288.579,277.044c-.187,1.311,7.487,5.054,7.487,5.054s3.905-4.962,4.824-4.411a65.317,65.317,0,0,0-7.121-5.786S288.762,275.758,288.579,277.044Z" transform="translate(-284.108 -268.182)" fill="#343742"/><path d="M294.506,281.3a1.715,1.715,0,0,1-1.593-.979c-.183-.459,3.765-5.635,5.6-5.083s1.012.734,1.012.734-.213-.878-1.9.674A13.536,13.536,0,0,0,294.506,281.3Z" transform="translate(-283.665 -267.845)" fill="#474954"/><path d="M291.927,279.93c-.009.418-1.406-.526-1.348-.793.644-3,2.945-5.881,5.335-5.812,0,0,1.125.837.985.869a4.2,4.2,0,0,0-2.576,1.454C293.445,276.849,291.957,278.4,291.927,279.93Z" transform="translate(-283.903 -268.036)" fill="#474954"/></g></g><g transform="translate(79.014 0)"><g transform="translate(22.202 45.859)"><g transform="translate(1.765 59.994)"><path d="M323.4,329.681s-4.939-.865-5.314.694-3.267,2.959-5.835,4.269c-.823.419-1.047.654-1.118,1.027a1.728,1.728,0,0,0,.249,1.475c.65.584,4.948.964,8.028-.705a2.855,2.855,0,0,1,2.034.1,10.5,10.5,0,0,0,2.037-.262,3.793,3.793,0,0,0,.784-1.514C324.807,332.2,323.624,330.653,323.4,329.681Z" transform="translate(-311.073 -329.442)" fill="#b6c4e0"/></g><path d="M309.472,280.854c0,2.715,1.47,9.537,1.47,9.537,2.447,12.37,4.1,19.66,5.022,23.761,0,0,1.858,19.817,1.544,22.636,1.877,2.037,7.831.627,7.831,0s1.044-17.647-2.505-25.949c-.314-6.944-1.1-16.759-.158-20.2s-.626-10.337-2.037-12.687S309.472,280.854,309.472,280.854Z" transform="translate(-309.472 -274.772)" fill="#0c8599"/><g transform="translate(8.163 61.598)"><path d="M329.908,331.154s-5.317-.929-5.719.75-3.277,4.148-6.043,5.558c-.884.451-1.125.705-1.2,1.107a1.865,1.865,0,0,0,.272,1.589c.7.628,5.575.7,8.892-1.1.626-.339,1.156-.705,1.7-.509a11.329,11.329,0,0,0,2.193-.281,4.082,4.082,0,0,0,.842-1.631C331.428,333.874,330.152,332.2,329.908,331.154Z" transform="translate(-316.878 -330.897)" fill="#9fabd1"/></g><path d="M312.278,280.006c0,2.924.456,6.7.456,6.7,2.452,12.615,5.367,22.325,7.843,26.825,0,0,3.171,22.071,2.833,25.109,2.024,2.192,8.434.672,8.434,0s.763-18.008-3.061-26.949c-.338-7.476-2.482-18.827-1.47-22.536s-1.791-11.065-3.309-13.6S312.278,280.006,312.278,280.006Z" transform="translate(-309.185 -275.01)" fill="#0c8599"/><path d="M312.358,288.181c.736,3.858,5.055,21.617,6.157,23.915.86,1.79,2.114,3.765,2.114,4.684s2.315,20.7,3.031,21.128,2.315,1.2,2.2.093c-.919-9.371-2.755-19.109-3.124-21.312s-1.1-1.928-2.755-5.973S312.358,288.181,312.358,288.181Z" transform="translate(-309.177 -273.665)" fill="#0b7285"/></g><g transform="translate(3.336 1.785)"><path d="M314.028,247a50.589,50.589,0,0,1-8.441-7.541l-8.555,3.592s6.579,5.708,8.148,7.547c.37,1.272-.086,2.532.12,3.168.252.763,1.526-1.056,2.062-1.473.1.2.183.4.265.605C307.627,252.9,314.816,247.555,314.028,247Z" transform="translate(-291.877 -234.57)" fill="#ffd1ae"/><path d="M306.233,240.66l3.063,17.015-4.79-4.779.1-2.255-2.153-2.6-1.122-8.493Z" transform="translate(-291.438 -234.56)" fill="#ffd1ae" opacity="0" style="mix-blend-mode:multiply;isolation:isolate"/><path d="M292.356,240.358c-.086-3.756,4.162-7.847,7.753-3.389,4.712,5.854,4.493,9.3,4.493,9.3-.715,2.295-.872,3.659-2.5,4.067-.794.2-2.133-.816-3.368-1.748-.644.272-1.38.488-1.589.045a7.6,7.6,0,0,0-1.22-2.826C294.314,244.1,292.443,244.064,292.356,240.358Z" transform="translate(-292.355 -235.023)" fill="#ffd1ae"/></g><path d="M293.293,243.727c-2.186.314-.442-.252-1.632-.463-.471-.086-2.022-2.651-2.022-2.651l.833-.529s-1.6-.075-1.014-.078a2.106,2.106,0,0,0,2.2-1.26,14.023,14.023,0,0,1,4.687-4.75,6.429,6.429,0,0,1,4.187-.413s4.68-1.176,6.758,5.411c0,0,.364,1.764,1.615,1.811a14.253,14.253,0,0,1-2.071,3.2s-3.417-.629-3.679-1.425c-.569-1.685-1.554-2.275-2.132-1.335-.411.669.616,1.648.515,1.971-.09.28-.359.237-.484.013-1.412-2.564-3.69-1.6-4.633-1.528s.238-2.988.794-3.7a15.807,15.807,0,0,0-1.545,3.735C295.549,242.282,293.293,243.727,293.293,243.727Z" transform="translate(-289.329 -233.404)" fill="#212529"/><path d="M302.985,242.423c.268.634,1.912,1.92,2.035,2.479s-1.414,5.027-1.849,5.71a1.549,1.549,0,0,1-1.014.754s-2.679-1.945-2.316-2.124,1.847-1.506,1.87-2.534-1.408-3.382-1.064-3.975S302.985,242.423,302.985,242.423Z" transform="translate(-288.258 -232.489)" fill="#212529"/><g transform="translate(5.335 11.311)"><path d="M330.416,285.686a188.9,188.9,0,0,1-7.117-19.24c-1.123-4.253-1.482-8.016-4.639-14.753-1.834-3.924-5.8-6.774-8.09-8.027,0,0-2.761,5.407-3.953,6.406-1.037.871-2.711,1.678-2.733.656,0,0-.088,4.9-.11,5.153l.592.59c.451,5.774.392,10,1.337,12.886,1.468,4.488,6.432,19.419,7.076,21.384S330.677,286.262,330.416,285.686Z" transform="translate(-293.187 -243.666)" fill="#99e9f2"/><g transform="translate(10.277 3.278)"><path d="M306.862,250.616c-1.038.87-2.967,1.5-2.984.483a27.918,27.918,0,0,0-.011,9.317,78.342,78.342,0,0,0,1.866,8.649c1.47,4.489,3.124,19.683,3.767,21.647.255.775,5.617.893,12.124-1.93-1.444-5.559-7.144-24.583-8.549-29.577a32.315,32.315,0,0,1-1.321-11.226L309.5,246.64A16.516,16.516,0,0,1,306.862,250.616Z" transform="translate(-303.493 -246.64)" fill="#99e9f2"/></g><g transform="translate(19.516 31.876)"><path d="M311.876,275.448c3.33-.129,6.975-2.23,8.129-2.861,1.9,3.653,3.011,6.945,2.446,7.556s-8.926,2.5-8.926,2.5Z" transform="translate(-311.876 -272.587)" fill="#21a3a6"/><path d="M312.02,275.7c3.121-.12,6.538-2.089,7.62-2.684,1.787,3.427,2.822,6.512,2.295,7.084s-8.368,2.343-8.368,2.343Z" transform="translate(-311.861 -272.543)" fill="#99e9f2"/></g><path d="M294.948,275.082c.305-.028.807-.127.807-.127s1.68-.931,1.567-.895c-.65.211-1.324.551-1.825.76s-.664-.115-.459-.321a10.417,10.417,0,0,1,2.374-1.638,17.258,17.258,0,0,1,3.012-.576c.936-.472,7.37-5.868,8.852-6.5.7-4.441.691-11.117,1-12.448s6.486-.249,6.486-.249A18.862,18.862,0,0,1,313.6,269.3c-.588.819-4.273,2.438-12.318,6.01a11.009,11.009,0,0,1-1.475,1.113c-1.679,1.1-2.223.881-2.862.845a2.594,2.594,0,0,1-1.118-.347,2.065,2.065,0,0,1-.9-.609c-.421-.474.564-.367.564-.367a2.1,2.1,0,0,1-1.319-.213Z" transform="translate(-294.169 -242.746)" fill="#ffd1ae"/><g transform="translate(14.539 4.792)"><path d="M308.921,249.875a8.076,8.076,0,0,0-1.485,5.871,52.313,52.313,0,0,1,.344,5.533s7.406-.3,9.485,1.5a49.481,49.481,0,0,0,.161-7.821c-.323-3.021-1.81-6.648-4.463-6.922A4.491,4.491,0,0,0,308.921,249.875Z" transform="translate(-307.36 -248.014)" fill="#99e9f2"/><path d="M313.817,248.922c2.3,1.01,3.01,6.466,2.7,10.43s-.17,2.765-.17,2.765a26.231,26.231,0,0,0-3.435-.88c1.115-2.157.664-11.517-.2-12.494S313.817,248.922,313.817,248.922Z" transform="translate(-306.836 -247.979)" fill="#99e9f2"/></g></g></g><path d="M261.378,288.139c-.184,1.838,1.1,8.82,1.1,8.82a4.708,4.708,0,0,0-1.7,1.056c-.69,1.057-3.445,4.638-7.487,5.741-1.837-2.571-3.859-5.512-4.776-5.145,2.753-2.938,5.877-4.96,6.428-6.429s2.023-3.676,3.492-4.043A6.876,6.876,0,0,1,261.378,288.139Z" transform="translate(-214.485 -227.827)" fill="#343742"/><path d="M258.413,299.886c-.184-2.205-3.533-4.547-3.858-4.593s-2.021.183-.919,1.1,3.169,3.491,2.986,4.409S258.413,299.886,258.413,299.886Z" transform="translate(-213.999 -227.08)" fill="#474954"/><path d="M259.241,298.911c-.043-.6,1.078-1.08,1.03-1.446s-1.4-5.353-2.733-5.444-2.086,1.432-1.675,1.492a4,4,0,0,1,2.2,1.793A6.544,6.544,0,0,1,259.241,298.911Z" transform="translate(-213.746 -227.414)" fill="#474954"/><g transform="translate(18.378 49.044)"><path d="M259.875,292.8c-.473-.335-.587-.678-.886-.734s-1.312-.153-1.522-.236a1.1,1.1,0,0,0-.562.018,12.57,12.57,0,0,0-2.577.22c-.655.141-9.224-1.981-9.224-1.981s-4.917-7.974-5.26-9-5.927-.693-4.624,2.1,5.946,10.137,6.945,10.513c2.609.973,11.508,1.151,11.672,1.178a28.62,28.62,0,0,0,3.363.507s.811-.024.988-.207c.1-.094.549-.433.241-.536a4.489,4.489,0,0,0-.722-.129c.293.02.95.06,1.012-.109.08-.214.278-.346-.017-.4-.127-.024-.512-.271-.7-.3.393.043.962.4,1,.241.065-.252.183-.461-.17-.617-.452-.2-.958-.457-1.093-.52-.171-.083-.2-.131-.095-.163a2.844,2.844,0,0,1,1.453.172c.284.158.65.492.87.432S260.345,293.13,259.875,292.8Z" transform="translate(-234.242 -277.63)" fill="#ffd1ae"/><path d="M240.377,278.936a9.525,9.525,0,0,1,2.069,3.687c.406.935,2.145,5.433,2.145,5.433s-5.186,2.913-5.7,3.4c-2.87-3.45-5.244-6.946-4.4-10.429C235.6,276.377,239.493,278.047,240.377,278.936Z" transform="translate(-234.315 -277.901)" fill="#99e9f2"/></g></g></g></g><text transform="translate(707 1701)" fill="#0b7285" font-size="22" font-family="GenYoGothicTW-Medium, GenYoGothic TW" font-weight="500" letter-spacing="0.022em"><tspan x="0" y="0">長照服務專區</tspan></text></g></svg>