<svg xmlns="http://www.w3.org/2000/svg" width="44" height="44" viewBox="0 0 44 44"><g transform="translate(-248 -1593)"><rect width="44" height="44" rx="2" transform="translate(248 1593)" fill="#dee2e6" opacity="0"/><g transform="translate(251.568 1599.541)"><path d="M69.746,93.862a12.162,12.162,0,0,1,4.459.552,5.309,5.309,0,0,1,1.155.734l-.915,1.427a9.756,9.756,0,0,0-.909-.408c-1.059-.363-2.954-.043-3.789-.043Z" transform="translate(-49.604 -69.503)" fill="#fff"/><path d="M73.742,96.169a.3.3,0,0,1-.084-.012,1.439,1.439,0,0,1-.268-.122,4.047,4.047,0,0,0-.654-.29,8.148,8.148,0,0,0-2.77-.08c-.364.03-.679.054-.922.054a.3.3,0,0,1-.3-.3V93.159a.3.3,0,0,1,.3-.3,11.886,11.886,0,0,1,4.585.58,5.612,5.612,0,0,1,1.228.782.3.3,0,0,1,.051.382l-.915,1.427A.3.3,0,0,1,73.742,96.169Zm-2.294-1.176a4.732,4.732,0,0,1,1.482.19,4.611,4.611,0,0,1,.7.307l.629-.981a5.5,5.5,0,0,0-.887-.529,10.919,10.919,0,0,0-4.035-.523v1.656c.17-.01.366-.025.579-.042.478-.037,1.011-.079,1.528-.079Z" transform="translate(-48.902 -68.8)" fill="#797c7e"/><circle cx="3.057" cy="3.057" r="3.057" transform="translate(24.328 24.794)" fill="#e88188"/><circle cx="0.91" cy="0.91" r="0.91" transform="translate(26.474 26.94)" fill="#fff"/><path d="M86.177,101.031a3.354,3.354,0,1,1,3.354-3.354A3.354,3.354,0,0,1,86.177,101.031Zm0-6.113a2.76,2.76,0,1,0,2.759,2.759A2.76,2.76,0,0,0,86.177,94.918Z" transform="translate(-58.793 -69.827)" fill="#797c7e"/><path d="M91.252,103.958a1.208,1.208,0,1,1,1.208-1.208,1.208,1.208,0,0,1-1.208,1.208Zm0-1.82a.613.613,0,1,0,.613.613A.613.613,0,0,0,91.252,102.138Z" transform="translate(-63.867 -74.9)" fill="#797c7e"/><path d="M79.272,63.782a.9.9,0,0,0-.965-.737l-8.1.567.562,1.957,7.7-.793A.9.9,0,0,0,79.272,63.782Z" transform="translate(-49.931 -47.845)" fill="#fff"/><path d="M10.353,16.161A5.749,5.749,0,0,0,7.414,13.7a19.035,19.035,0,0,0-3.051-.748,1.14,1.14,0,0,0-1.219.527A1.084,1.084,0,0,0,3.784,15c.651.241,1.893.5,2.5.727a3.27,3.27,0,0,1,1.84,1.737c.6,1.385,2.438,7.489,2.438,7.489l2.955-.96A77.572,77.572,0,0,0,10.353,16.161Z" transform="translate(-2.721 -12.631)" fill="#fff"/><path d="M60.74,50.583a1.094,1.094,0,0,0-.067-.151,3.373,3.373,0,0,0-3.154-1.772c-1.241.067-4.965.307-7.479.443l3.82,1.946s1.041-.077,3.67-.22a5.913,5.913,0,0,1,1.73.856A.985.985,0,0,0,60.74,50.583Z" transform="translate(-35.757 -37.735)" fill="#fff"/><circle cx="9.963" cy="9.963" r="9.963" transform="translate(2.329 10.981)" fill="#e88188"/><circle cx="7.632" cy="7.632" r="7.632" transform="translate(4.661 13.312)" fill="#fff"/><circle cx="1.209" cy="1.209" r="1.209" transform="translate(11.084 19.735)" fill="#fff"/><g transform="translate(0 0)"><path d="M24.6,71.563a7.929,7.929,0,1,1,7.929-7.929A7.929,7.929,0,0,1,24.6,71.563Zm0-15.263a7.334,7.334,0,1,0,7.334,7.334A7.334,7.334,0,0,0,24.6,56.3Z" transform="translate(-12.309 -42.69)" fill="#797c7e"/><path d="M39.784,80.321a1.506,1.506,0,1,1,1.506-1.506,1.506,1.506,0,0,1-1.506,1.506Zm0-2.418a.912.912,0,1,0,.912.912A.912.912,0,0,0,39.784,77.9Z" transform="translate(-27.491 -57.871)" fill="#797c7e"/><path d="M38.838,38.291a.881.881,0,0,0-1.039-.663l-2.7.554a.3.3,0,0,0,.119.582l2.7-.554a.289.289,0,0,1,.341.218.3.3,0,0,1-.231.354,11.782,11.782,0,0,1-2.878.559c-1.029-.089-1.588-1.388-2.235-2.894A10.383,10.383,0,0,0,31,33.152c-1.388-1.387-2.71-1.786-6.595-1.955a10.152,10.152,0,0,0-.327-1.378l6.5-.668a1.2,1.2,0,0,0,1.049-1.33,1.184,1.184,0,0,0-1.278-.991l-7.42.525a10.346,10.346,0,0,0-1.574-1.908l2.422-.131a5.829,5.829,0,0,1,1.56.811,1.288,1.288,0,0,0,.684.2,1.338,1.338,0,0,0,.838-.3,1.186,1.186,0,0,0,.395-1.351,1.453,1.453,0,0,0-.085-.192,3.68,3.68,0,0,0-3.432-1.928c-.514.028-1.341.08-2.312.142-1.34.085-3,.19-4.467.27a10.154,10.154,0,0,0-4.037-.262,69.679,69.679,0,0,0-3.036-7.39,6.061,6.061,0,0,0-3.106-2.6,19.475,19.475,0,0,0-3.107-.761,1.431,1.431,0,0,0-1.524.681,1.308,1.308,0,0,0-.07,1.093,1.468,1.468,0,0,0,.871.846c.338.125.821.252,1.289.375.452.119.92.241,1.211.352a2.963,2.963,0,0,1,1.672,1.576c.518,1.2,1.954,5.871,2.289,6.965A10.259,10.259,0,1,0,24.492,31.8c3.885.176,4.908.595,6.092,1.777a9.978,9.978,0,0,1,1.785,3.109c.693,1.61,1.347,3.132,2.73,3.251.053,0,.111.007.171.007a14.037,14.037,0,0,0,2.914-.584.887.887,0,0,0,.653-1.064ZM30.39,27.423a.573.573,0,1,1,.119,1.138l-6.628.681a10.2,10.2,0,0,0-.609-1.315Zm-8.923-4.134c.969-.062,1.794-.114,2.307-.142a3.087,3.087,0,0,1,2.876,1.616.805.805,0,0,1,.049.111.608.608,0,0,1-.208.688.719.719,0,0,1-.835.059c-1.478-.923-1.776-.91-1.9-.9l-3.035.165A10.271,10.271,0,0,0,18.4,23.478c1.06-.062,2.138-.13,3.062-.188ZM7.675,16.643a3.564,3.564,0,0,0-2.007-1.9c-.322-.122-.783-.241-1.272-.371-.454-.119-.924-.242-1.234-.357a.876.876,0,0,1-.522-.5.72.72,0,0,1,.041-.6.881.881,0,0,1,.916-.372,18.78,18.78,0,0,1,3,.735A5.413,5.413,0,0,1,9.368,15.6a69.918,69.918,0,0,1,2.96,7.2,10.168,10.168,0,0,0-2.373.773C9.568,22.308,8.2,17.853,7.675,16.643Zm6.614,25.895a9.666,9.666,0,1,1,9.665-9.666,9.666,9.666,0,0,1-9.665,9.666Z" transform="translate(-1.996 -11.927)" fill="#797c7e"/></g></g></g></svg>