<svg xmlns="http://www.w3.org/2000/svg" width="44" height="44" viewBox="0 0 44 44"><g transform="translate(-86 -1408)"><rect width="44" height="44" rx="2" transform="translate(86 1408)" fill="#dee2e6" opacity="0"/><g transform="translate(90.459 1411.568)"><path d="M40.389,20.528c-.568-.725-4.742-3.428-9-4.331,2.625.262,7.57-.729,8.384-1.5a.579.579,0,0,0-.045-.883c-.9-.7-6.184-2.161-9.808-.966a12.839,12.839,0,0,0,5.788-5.869.58.58,0,0,0-.5-.728c-1.139-.119-4.468.758-6.674,3.728l0,0c-.143.193-.661,1.111-.806,1.317a24.891,24.891,0,0,0,2.465-7.025.439.439,0,0,0-.6-.446c-1.528.636-3.645,3.4-4.679,6.511a9.332,9.332,0,0,0-1.3-7.186.406.406,0,0,0-.636,0,9.333,9.333,0,0,0-1.3,7.185c-1.035-3.113-3.151-5.874-4.679-6.51a.439.439,0,0,0-.6.446A24.9,24.9,0,0,0,18.853,11.3c-.144-.206-.663-1.124-.806-1.317l0,0c-2.206-2.97-5.536-3.847-6.674-3.728a.58.58,0,0,0-.5.728,12.839,12.839,0,0,0,5.788,5.869c-3.624-1.2-8.9.271-9.808.966A.579.579,0,0,0,6.8,14.7c.815.767,5.759,1.757,8.384,1.5-4.257.9-8.431,3.606-9,4.331a.579.579,0,0,0,.178.865c.752.413,5.342.024,8.434-1.3-3.241,1.641-6.172,6.014-6.5,6.948a.577.577,0,0,0,.443.764c.7.128,3.749-1.32,5.527-2.358a13.022,13.022,0,0,0-2.491,6,.576.576,0,0,0,.6.648,5.28,5.28,0,0,0,1.537-.636,69.133,69.133,0,0,1,9.374-.9,69.131,69.131,0,0,1,9.374.9A5.28,5.28,0,0,0,34.2,32.1a.576.576,0,0,0,.6-.648,13.022,13.022,0,0,0-2.491-6c1.778,1.038,4.828,2.485,5.527,2.358a.577.577,0,0,0,.443-.764c-.33-.934-3.261-5.307-6.5-6.948,3.092,1.326,7.682,1.715,8.434,1.3a.579.579,0,0,0,.178-.865Z" transform="translate(-5.768 -2.716)" fill="#797c7e"/><path d="M48.066,99.569a9.266,9.266,0,0,0-1.736-1.861l-.47-.365a18.147,18.147,0,0,0-4.445-2.428,7.872,7.872,0,0,1-4.473,1.1,7.835,7.835,0,0,1-4.473-1.1,18.148,18.148,0,0,0-4.445,2.428l-.47.365a9.266,9.266,0,0,0-1.736,1.861c-.77,1.2-.059,1.855,1.041,2.453,1.133.612,4.564,1.834,10.084,1.837s8.952-1.225,10.084-1.837C48.126,101.424,48.836,100.773,48.066,99.569Z" transform="translate(-19.42 -67.303)" fill="#e88188"/><path d="M57.49,95.31l0,.008c-1.421,4.094-3.022,6.978-4.806,8.81-1.784-1.831-3.38-4.721-4.8-8.815v0a7.323,7.323,0,0,0,4.8,1.445A7.337,7.337,0,0,0,57.49,95.31Z" transform="translate(-35.158 -67.58)" fill="#e88188"/><path d="M57.49,90.089a7.337,7.337,0,0,1-4.8,1.445,7.323,7.323,0,0,1-4.8-1.445,5.818,5.818,0,0,0,2.06-1.076,1.605,1.605,0,0,0,.529-1.121l0-.006a8.825,8.825,0,0,0,4.427-.006l.006.012a1.618,1.618,0,0,0,.482,1.082A5.641,5.641,0,0,0,57.49,90.089Z" transform="translate(-35.158 -62.359)" fill="#fff"/><path d="M53.1,32.341v0a2.462,2.462,0,0,0-.25-1.041A5.857,5.857,0,0,0,51.71,29.82c-.03-.027-.059-.054-.089-.083a9.339,9.339,0,0,0-2.108-1.466,10.162,10.162,0,0,0-3.074-1.014,8.6,8.6,0,0,0-2.705,0,10.163,10.163,0,0,0-3.074,1.014,9.339,9.339,0,0,0-2.108,1.466c-.03.03-.059.056-.089.083A5.857,5.857,0,0,0,37.323,31.3a2.462,2.462,0,0,0-.25,1.041v0a5.009,5.009,0,0,0,1.442,3.645,5.676,5.676,0,0,1,1.124-2,7,7,0,0,1,5.446-2.164,7,7,0,0,1,5.446,2.164,5.729,5.729,0,0,1,1.127,2A5,5,0,0,0,53.1,32.341Z" transform="translate(-27.556 -19.684)" fill="#f9e0e1"/><path d="M47.717,37.04a11.71,11.71,0,0,1,3.44,1.727,7,7,0,0,0-5.446,2.164A8.952,8.952,0,0,1,47.717,37.04Z" transform="translate(-33.626 -26.634)" fill="#f9af2b" opacity="0"/><path d="M48.585,27.15a10.317,10.317,0,0,0-3.44,2.94,6.092,6.092,0,0,0-3.095-.354,9.339,9.339,0,0,1,2.108-1.466,10.163,10.163,0,0,1,3.074-1.014A8.585,8.585,0,0,1,48.585,27.15Z" transform="translate(-31.055 -19.684)" fill="#f9af2b" opacity="0"/><path d="M64.03,27.15a8.557,8.557,0,0,1,1.353.107,10.162,10.162,0,0,1,3.074,1.014,9.339,9.339,0,0,1,2.108,1.466,6.081,6.081,0,0,0-3.092.354A10.325,10.325,0,0,0,64.03,27.15Z" transform="translate(-46.5 -19.684)" fill="#f9af2b" opacity="0"/><path d="M69.477,40.932a7,7,0,0,0-5.447-2.164,11.728,11.728,0,0,1,3.443-1.727A8.974,8.974,0,0,1,69.477,40.932Z" transform="translate(-46.5 -26.634)" fill="#f9af2b" opacity="0"/><path d="M73.165,79.552a7.078,7.078,0,0,1-1.665,1l.006.012c.062,1.213,1.287,1.727,2.575,2.2.164-1.564.348-3.2.636-5.31a6.372,6.372,0,0,1-1.552,2.1Z" transform="translate(-51.749 -55.03)" fill="#e5d6b7" opacity="0"/><path d="M45.76,77.5c.288,2.1.467,3.734.633,5.295,1.287-.47,2.527-.984,2.589-2.2l0-.006a7.16,7.16,0,0,1-1.68-1A6.37,6.37,0,0,1,45.76,77.5Z" transform="translate(-33.662 -55.065)" fill="#e5d6b7" opacity="0"/><path d="M33.8,44.61a5.009,5.009,0,0,0,1.442,3.645,14.561,14.561,0,0,0,1.139,6.133c.288,2.1.467,3.734.633,5.295v0c.184,1.748.348,3.4.615,5.512,0,1.935-4.406,1.421-4.861.217a10.294,10.294,0,0,1-.348-3.056c-.012-.517-.006-1.073.012-1.662.048-1.811.19-3.912.372-6.014.158-1.852.342-3.7.514-5.354s.327-3.083.428-4.132C33.772,44.985,33.79,44.788,33.8,44.61Z" transform="translate(-24.287 -31.953)" fill="#fff"/><path d="M81.986,45.2c.1,1.049.259,2.494.428,4.132s.357,3.505.514,5.354c.181,2.1.324,4.2.372,6.014.015.589.021,1.148.012,1.662a10.273,10.273,0,0,1-.351,3.056c-.452,1.2-4.861,1.718-4.861-.217.268-2.111.431-3.764.618-5.512v0c.164-1.564.348-3.2.636-5.31a14.632,14.632,0,0,0,1.136-6.118,5,5,0,0,0,1.439-3.645c.015.178.036.375.056.586Z" transform="translate(-56.387 -31.953)" fill="#fff"/><path d="M60.266,88.974a5.5,5.5,0,0,1-5.446.039,1.605,1.605,0,0,0,.529-1.121l0-.006a8.825,8.825,0,0,0,4.427-.006l.006.012A1.618,1.618,0,0,0,60.266,88.974Z" transform="translate(-40.028 -62.359)" fill="#b55048" opacity="0"/><path d="M43.062,53.151a14.561,14.561,0,0,1-1.139-6.133,5.676,5.676,0,0,1,1.124-2,7,7,0,0,1,5.446-2.164,7,7,0,0,1,5.446,2.164,5.729,5.729,0,0,1,1.127,2,14.632,14.632,0,0,1-1.136,6.118,6.373,6.373,0,0,1-1.552,2.1,7.078,7.078,0,0,1-1.665,1,6.558,6.558,0,0,1-2.221.63,6.547,6.547,0,0,1-2.206-.624,7.16,7.16,0,0,1-1.68-1,6.37,6.37,0,0,1-1.546-2.087Z" transform="translate(-30.964 -30.717)" fill="#fff"/><path d="M71.373,64.772c-.143,0-.23,0-.243,0a.3.3,0,0,1,.015-.595,16.421,16.421,0,0,0,2.309-.131.3.3,0,1,1,.082.589A16.576,16.576,0,0,1,71.373,64.772Z" transform="translate(-51.286 -45.607)" fill="#797c7e"/><path d="M49.774,64.772a16.577,16.577,0,0,1-2.163-.139.3.3,0,1,1,.082-.589,16.483,16.483,0,0,0,2.31.131.291.291,0,0,1,.3.29.3.3,0,0,1-.29.3C50,64.77,49.917,64.772,49.774,64.772Z" transform="translate(-34.782 -45.608)" fill="#797c7e"/><circle cx="0.411" cy="0.411" r="0.411" transform="translate(10.585 11.883)" fill="#797c7e"/><circle cx="0.411" cy="0.411" r="0.411" transform="translate(23.654 11.883)" fill="#797c7e"/><circle cx="0.411" cy="0.411" r="0.411" transform="translate(17.119 9.158)" fill="#797c7e"/><path d="M39.921,19.666a20.754,20.754,0,0,0-7.074-3.861c2.576-.191,5.716-.9,6.429-1.566a.877.877,0,0,0-.067-1.335c-.853-.656-4.766-1.794-8.2-1.409A13.114,13.114,0,0,0,35.3,6.381a.878.878,0,0,0-.759-1.1A8.815,8.815,0,0,0,28.5,8.076a18.267,18.267,0,0,0,1.286-4.45.737.737,0,0,0-.307-.663.716.716,0,0,0-.7-.082c-1.338.557-2.934,2.48-4.049,4.75a8.877,8.877,0,0,0-1.59-5.34.717.717,0,0,0-1.1,0A8.871,8.871,0,0,0,20.45,7.631C19.335,5.36,17.739,3.436,16.4,2.88a.719.719,0,0,0-.706.081.736.736,0,0,0-.307.662,18.3,18.3,0,0,0,1.286,4.45,8.8,8.8,0,0,0-6.037-2.793.877.877,0,0,0-.76,1.1A13.134,13.134,0,0,0,14.168,11.5c-3.437-.386-7.35.753-8.2,1.409A.876.876,0,0,0,5.9,14.24c.714.671,3.853,1.376,6.428,1.566a20.744,20.744,0,0,0-7.075,3.86.876.876,0,0,0,.27,1.308c.7.386,3.756.185,6.526-.556a19.251,19.251,0,0,0-4.731,5.842.874.874,0,0,0,.67,1.154c.738.133,3.1-.978,4.66-1.8a13,13,0,0,0-1.867,5.119.873.873,0,0,0,.864.983h.043a3.9,3.9,0,0,0,1.219-.438c-.007.371-.007.712,0,1.028a9.53,9.53,0,0,0-1.695,1.839,1.774,1.774,0,0,0-.327,1.42,2.683,2.683,0,0,0,1.477,1.454c.354.191,3.647,1.87,10.244,1.873s9.892-1.682,10.247-1.873a2.683,2.683,0,0,0,1.474-1.454A1.774,1.774,0,0,0,34,34.145a9.57,9.57,0,0,0-1.712-1.853c0-.3,0-.637,0-1a3.815,3.815,0,0,0,1.2.427.872.872,0,0,0,.911-.979,13.007,13.007,0,0,0-1.867-5.122c1.564.826,3.916,1.937,4.659,1.8a.875.875,0,0,0,.672-1.156,19.285,19.285,0,0,0-4.731-5.842c2.77.74,5.825.941,6.525.556a.876.876,0,0,0,.27-1.308Zm-1.076-6.291a.281.281,0,0,1,.023.431c-.669.63-5.226,1.619-7.908,1.437l-.014-.135c-.016-.155-.03-.3-.041-.413V14.68a2.74,2.74,0,0,0-.283-1.165,5.678,5.678,0,0,0-.846-1.192c3.405-.872,8.216.4,9.07,1.052ZM13.513,30.789c.043-1.621.167-3.639.371-6,.133-1.562.3-3.312.514-5.349.063-.614.125-1.2.183-1.748.034-.318.065-.617.1-.908a4.3,4.3,0,0,0,1.051,1.7,14.769,14.769,0,0,0,1.149,6.065c.235,1.718.511,4.192.619,5.183,0,.014,0,.027.005.04a.1.1,0,0,0,0,.021v0l.089.845c.149,1.42.3,2.889.525,4.651-.011.591-.607.824-1.107.915-1.3.238-2.973-.279-3.178-.82a9.917,9.917,0,0,1-.329-2.958c-.012-.482-.008-1.02.011-1.646Zm1.368-16.084a2.16,2.16,0,0,1,.217-.915,5.538,5.538,0,0,1,1.08-1.4l.027-.026a5.4,5.4,0,0,1,2.454.244,8.914,8.914,0,0,0-1.789,3.6,5.944,5.944,0,0,0-.969,1.616,5.3,5.3,0,0,1-1.021-3.122Zm3.425-3.817a9.951,9.951,0,0,1,2.718-.937l.023,0s0,0,.007,0c.079-.015.158-.03.238-.042l.064-.008a12.4,12.4,0,0,0-2.3,2.209,8.758,8.758,0,0,0-2.066-.391,9.617,9.617,0,0,1,1.319-.826Zm5.8-.947c.006,0,.011.007.017.008a.264.264,0,0,0,.057,0,9.968,9.968,0,0,1,2.7.934,9.628,9.628,0,0,1,1.319.824,8.754,8.754,0,0,0-2.064.392,12.478,12.478,0,0,0-2.3-2.207l.065.008C23.971,9.915,24.041,9.929,24.11,9.941Zm4.876,2.421.026.024a5.523,5.523,0,0,1,1.082,1.4,2.16,2.16,0,0,1,.217.915v0a5.276,5.276,0,0,1-1.019,3.122,5.978,5.978,0,0,0-.971-1.618,8.926,8.926,0,0,0-1.786-3.6,5.4,5.4,0,0,1,2.452-.244ZM22.6,27.891a6.345,6.345,0,0,1-2.084-.6,6.838,6.838,0,0,1-1.608-.959,6.082,6.082,0,0,1-1.465-1.979.291.291,0,0,0-.03-.065,14.3,14.3,0,0,1-1.086-5.9,5.381,5.381,0,0,1,1.051-1.858A6.676,6.676,0,0,1,22.6,14.468a6.765,6.765,0,0,1,5.222,2.062,5.427,5.427,0,0,1,1.054,1.858,14.331,14.331,0,0,1-1.107,5.94,6.092,6.092,0,0,1-1.479,2.006,6.77,6.77,0,0,1-1.591.951,6.358,6.358,0,0,1-2.1.6Zm4.178,1.96A7.356,7.356,0,0,1,22.6,30.915a7.364,7.364,0,0,1-4.178-1.061c.929-.363,1.939-.877,2.2-1.869a6.063,6.063,0,0,0,1.978.5,6.084,6.084,0,0,0,1.992-.508,3.187,3.187,0,0,0,2.186,1.873ZM17.716,15.39a11.243,11.243,0,0,1,1.546-2.6,12.2,12.2,0,0,1,2.432,1.12,7.451,7.451,0,0,0-3.978,1.476ZM23.5,13.914a12.2,12.2,0,0,1,2.434-1.12,11.27,11.27,0,0,1,1.544,2.6A7.451,7.451,0,0,0,23.5,13.914ZM25.532,12.3A11.927,11.927,0,0,0,22.6,13.8a11.9,11.9,0,0,0-2.935-1.5A9.758,9.758,0,0,1,22.6,9.837,9.794,9.794,0,0,1,25.532,12.3ZM18.05,29.355c-.092-.829-.248-2.218-.409-3.516a5.916,5.916,0,0,0,.875.946,7.128,7.128,0,0,0,1.551.958C19.916,28.526,19.086,28.958,18.05,29.355ZM22.6,31.51a8.242,8.242,0,0,0,4.214-.991c-.094.254-.188.505-.283.749a5.575,5.575,0,0,1-3.92,2.051h0a5.558,5.558,0,0,1-3.931-2.033c-.1-.249-.193-.505-.288-.763A8.254,8.254,0,0,0,22.6,31.51Zm2.545-3.773a7.046,7.046,0,0,0,1.535-.951,5.9,5.9,0,0,0,.876-.947c-.173,1.352-.3,2.488-.409,3.517-1.031-.4-1.856-.828-2-1.618Zm2.443,3.093.109-1.028v0c.152-1.448.333-3.089.63-5.259a14.879,14.879,0,0,0,1.145-6.05,4.3,4.3,0,0,0,1.051-1.7l.1.967c.053.505.11,1.043.168,1.6a.288.288,0,0,0,.018.175c.208,2,.373,3.718.505,5.262.2,2.354.327,4.37.37,6,.016.642.02,1.181.012,1.651a9.5,9.5,0,0,1-.332,2.955c-.2.54-1.878,1.056-3.175.821-.5-.091-1.1-.324-1.11-.916C27.289,33.611,27.439,32.2,27.584,30.83ZM34.475,5.872a.282.282,0,0,1,.245.354,12.575,12.575,0,0,1-5.449,5.594,9.6,9.6,0,0,0-1.831-1.3c.062-.1.133-.222.208-.351.151-.254.337-.569.41-.671l.01-.013c2.06-2.771,5.238-3.734,6.407-3.609ZM29,3.427a.126.126,0,0,1,.126.016.149.149,0,0,1,.062.133,24.389,24.389,0,0,1-2.3,6.652A10.611,10.611,0,0,0,24.6,9.434C25.7,6.394,27.7,3.968,29,3.427ZM22.5,2.668c.067-.081.113-.079.177,0a8.99,8.99,0,0,1,1.3,6.648,8.922,8.922,0,0,0-1.37-.108h-.017a8.9,8.9,0,0,0-1.386.11,8.987,8.987,0,0,1,1.3-6.649Zm-6.515.907a.149.149,0,0,1,.063-.132.128.128,0,0,1,.128-.015c1.3.541,3.306,2.969,4.4,6.01a10.615,10.615,0,0,0-2.283.8,24.37,24.37,0,0,1-2.3-6.659Zm-5.53,2.654a.282.282,0,0,1,.04-.238.279.279,0,0,1,.205-.119c1.171-.119,4.346.838,6.4,3.609l.009.012c.072.1.259.416.41.672l.214.359a9.62,9.62,0,0,0-1.824,1.3,12.566,12.566,0,0,1-5.46-5.6ZM6.305,13.806a.281.281,0,0,1,.022-.431c.855-.658,5.678-1.929,9.084-1.049a5.7,5.7,0,0,0-.843,1.189,2.744,2.744,0,0,0-.282,1.163c-.015.172-.032.361-.051.565-2.678.187-7.259-.805-7.93-1.437Zm-.5,6.647a.281.281,0,0,1-.087-.421c.515-.659,4.385-3.174,8.45-4.138-.053.519-.114,1.1-.181,1.739-.052.494-.108,1.022-.164,1.571-3.1,1.28-7.4,1.589-8.018,1.25Zm2.284,6.378A.274.274,0,0,1,7.9,26.7a.281.281,0,0,1-.022-.238,18.227,18.227,0,0,1,5.87-6.512c-.178,1.731-.324,3.252-.442,4.627C11.232,25.77,8.584,26.925,8.092,26.832Zm3.569,4.289a.279.279,0,0,1-.29-.317,12.441,12.441,0,0,1,1.83-4.952c-.144,1.819-.238,3.412-.276,4.748a4.665,4.665,0,0,1-1.263.521Zm.983,5.375c-.739-.4-1.093-.724-1.185-1.08a1.229,1.229,0,0,1,.253-.951,7.9,7.9,0,0,1,1.209-1.374,8.587,8.587,0,0,0,.352,2.515c.3.786,1.738,1.264,3.035,1.264a4.545,4.545,0,0,0,.806-.068c1.013-.185,1.595-.738,1.595-1.518a.317.317,0,0,0,0-.037c-.149-1.176-.268-2.22-.373-3.207a22.181,22.181,0,0,0,3.587,6.25C17.069,38.194,13.825,37.134,12.644,36.5ZM22.6,38.148a19.922,19.922,0,0,1-3.353-5.485A5.925,5.925,0,0,0,22.6,33.911h.007a5.916,5.916,0,0,0,3.345-1.259A20.008,20.008,0,0,1,22.6,38.148Zm10.9-3.686a1.229,1.229,0,0,1,.251.951c-.092.357-.446.679-1.182,1.08-1.184.64-4.434,1.7-9.3,1.793a22.21,22.21,0,0,0,3.587-6.251c-.107.988-.224,2.031-.374,3.208,0,.012,0,.025,0,.037,0,.78.583,1.334,1.6,1.518a4.525,4.525,0,0,0,.8.068c1.3,0,2.74-.479,3.035-1.265a8.777,8.777,0,0,0,.355-2.527,7.95,7.95,0,0,1,1.226,1.39Zm.3-3.657a.276.276,0,0,1-.072.226.28.28,0,0,1-.222.089,4.569,4.569,0,0,1-1.239-.51c-.039-1.333-.131-2.917-.273-4.722A12.418,12.418,0,0,1,33.8,30.806ZM37.3,26.458a.282.282,0,0,1-.022.238.275.275,0,0,1-.194.133c-.487.091-3.12-1.053-5.191-2.246-.119-1.378-.263-2.9-.441-4.626a18.294,18.294,0,0,1,5.848,6.5Zm2.069-6.005c-.615.339-4.894.032-7.995-1.241-.055-.53-.109-1.041-.159-1.522-.07-.658-.133-1.259-.187-1.793,4.058.968,7.914,3.476,8.428,4.132a.281.281,0,0,1-.087.422Z" transform="translate(-5.065 -2.038)" fill="#797c7e"/><path d="M60.791,110.02a1.384,1.384,0,1,1,1.384-1.384A1.384,1.384,0,0,1,60.791,110.02Zm0-2.174a.79.79,0,1,0,.79.79A.79.79,0,0,0,60.791,107.847Z" transform="translate(-43.251 -75.972)" fill="#f7f0df"/></g></g></svg>