<svg xmlns="http://www.w3.org/2000/svg" width="44" height="44" viewBox="0 0 44 44"><g transform="translate(-86 -1593)"><rect width="44" height="44" rx="2" transform="translate(86 1593)" fill="#dee2e6" opacity="0"/><g transform="translate(95.514 1596.568)"><path d="M61.2,99a23.784,23.784,0,0,1,.758,3.175c-.806.966-1.439,1.641-1.439,1.641s-.633-.675-1.436-1.641A23.335,23.335,0,0,1,59.838,99,1.094,1.094,0,0,0,61.2,99Z" transform="translate(-48.019 -70.137)" fill="#4b3956"/><path d="M46.928,93.965a15.145,15.145,0,0,0-6.261-5.17,7.92,7.92,0,0,1-2.148-1.216,6.006,6.006,0,0,1-1.034.7,5.185,5.185,0,0,1-2.414.444,4.345,4.345,0,0,1-3.426-1.176,7.561,7.561,0,0,1-2.19,1.249,15.157,15.157,0,0,0-6.261,5.172c-.815,1.3-.059,2.01,1.109,2.655,1.207.663,4.873,2.057,10.756,2.057h0c5.884,0,9.549-1.394,10.756-2.057C46.987,95.975,47.742,95.267,46.928,93.965Z" transform="translate(-22.563 -62.087)" fill="#f7f0df" opacity="0"/><path d="M61.169,94.151a2.763,2.763,0,0,0,.77-.957c-.595-.44-.922-1.094-1.448-1.094h0c-.526,0-.853.654-1.448,1.094a2.8,2.8,0,0,0,.77.96,23.716,23.716,0,0,0-.758,3.2c.8.966,1.433,1.619,1.433,1.619s.636-.675,1.442-1.641a23.782,23.782,0,0,0-.758-3.175Z" transform="translate(-47.991 -65.288)" fill="#f9e0e1"/><path d="M58.536,86.119a2.785,2.785,0,0,1-1.015-1.067c-.03-.048-.054-.1-.08-.152a3.421,3.421,0,0,1-1.265.961,4.62,4.62,0,0,1-1.6.315h-.023a4.665,4.665,0,0,1-1.616-.312,3.427,3.427,0,0,1-1.265-.961,1.653,1.653,0,0,1-.08.152,2.818,2.818,0,0,1-1.034,1.065,5.056,5.056,0,0,0,.1.916,3.735,3.735,0,0,0,.391,1.342,2.291,2.291,0,0,0,.9.123,1.979,1.979,0,0,0,1.154-.384c.624-.464.922-1.079,1.474-1.079.5-.015.807.612,1.431,1.076a1.977,1.977,0,0,0,1.154.383,2.29,2.29,0,0,0,.9-.123,3.737,3.737,0,0,0,.391-1.342,4.83,4.83,0,0,0,.079-.913Z" transform="translate(-42.033 -60.228)" fill="#fff"/><path d="M51.443,98.317A27.833,27.833,0,0,1,42.259,99.7a27.97,27.97,0,0,1-9.2-1.376,17.678,17.678,0,0,1,1.7-7.5A16.436,16.436,0,0,1,36.646,89.8a14.623,14.623,0,0,0,1.617-.8,12.5,12.5,0,0,0,2.144,5.6,23.1,23.1,0,0,0,1.843,2.173l.015-.015c.1-.1.687-.743,1.421-1.626A12.388,12.388,0,0,0,46.239,89a13.9,13.9,0,0,0,1.618.8,16.466,16.466,0,0,1,1.882,1.029,17.655,17.655,0,0,1,1.7,7.489Z" transform="translate(-29.736 -63.11)" fill="#e88188"/><g transform="translate(2.567 10.898)"><path d="M60.059,82.078a3.55,3.55,0,0,1-2.9,1.406,3.514,3.514,0,0,1-2.881-1.448,2.818,2.818,0,0,0,.152-.422,3.657,3.657,0,0,0,.116-.815h5.226a3.565,3.565,0,0,0,.11.782A2.635,2.635,0,0,0,60.059,82.078Z" transform="translate(-47.213 -68.245)" fill="#ff7364" opacity="0"/><path d="M60.242,81.582a5.186,5.186,0,0,1-5.452.033,3.657,3.657,0,0,0,.116-.815h5.226A3.565,3.565,0,0,0,60.242,81.582Z" transform="translate(-47.572 -68.245)" fill="#ed4850" opacity="0"/><path d="M52.528,38.588c-.082-.011-15.926,0-16.435-.018a12.919,12.919,0,0,0-.1,2.319c7.646,2.859,8.836,2.789,16.631,0v0A12.461,12.461,0,0,0,52.528,38.588Z" transform="translate(-34.354 -38.57)" fill="#6b6d6f"/><path d="M86.1,46.491a1.672,1.672,0,0,1,.859-.134,1.841,1.841,0,0,1,.609.113c.931.378,1.192,1.481.815,2.64a2.2,2.2,0,0,1-2.7,1.561h0c0-.006,0-.009,0-.012C84.736,49.774,84.234,48.195,86.1,46.491Z" transform="translate(-68.685 -44.035)" fill="#ff7364" opacity="0"/><path d="M32.151,46.354a1.6,1.6,0,0,1,.809.137,2.421,2.421,0,0,1,1.1,2.074,4.479,4.479,0,0,1-.674,2.106,2.2,2.2,0,0,1-2.705-1.561c-.378-1.159-.116-2.262.815-2.64A1.977,1.977,0,0,1,32.151,46.354Z" transform="translate(-30.51 -44.035)" fill="#ff7364" opacity="0"/><path d="M51.592,39.337l-5.083.676-5.635-.676a6.86,6.86,0,0,0-2.122,2.228,20.065,20.065,0,0,0,.416,4.166c.187.658,1.15,4.417,4.451,5.931a7.547,7.547,0,0,0,2.64.663,7.3,7.3,0,0,0,2.586-.663c3.3-1.514,4.263-5.273,4.451-5.931a19.9,19.9,0,0,0,.416-4.166,6.821,6.821,0,0,0-2.119-2.228Z" transform="translate(-36.301 -39.109)" fill="#fff"/></g><g transform="translate(1.171 0.297)"><path d="M47.929,5.626c.8.208.809,1.044.009,1.264l-.7.193-1.73.473-16.7.113-2.39-.618c-.8-.205-.809-1.044-.009-1.264,2.551-.7,7.652-2.1,10.2-2.8a2.106,2.106,0,0,1,1.07-.009C40.243,3.64,45.366,4.963,47.929,5.626Z" transform="translate(-25.814 -2.912)" fill="#797c7e"/><path d="M43.923,14.745a56.489,56.489,0,0,1,7.525.479,1.059,1.059,0,0,1,.881,1,37.643,37.643,0,0,1,.04,5.093.8.8,0,0,1-.238.535c-.139.125-.243.21-.809.163-2.506-.208-5.056.684-7.39.684s-4.884-.892-7.391-.684c-.565.047-.67-.038-.809-.163a.8.8,0,0,1-.238-.535,37.642,37.642,0,0,1,.04-5.093,1.059,1.059,0,0,1,.882-1,56.185,56.185,0,0,1,7.5-.479Z" transform="translate(-32.57 -11.227)" fill="#797c7e"/></g><g transform="translate(22.175 8.356)" opacity="0"><path d="M96.894,33.8a1.249,1.249,0,0,0,.975-.009,6.308,6.308,0,0,1,.449,2.149.345.345,0,0,1-.247.327,2.666,2.666,0,0,1-1.335.009.347.347,0,0,1-.256-.324A5.364,5.364,0,0,1,96.894,33.8Z" transform="translate(-96.464 -32.669)" fill="#4b3956"/><path d="M97.965,31.358a.674.674,0,1,1,.485-.217A.654.654,0,0,1,97.965,31.358Z" transform="translate(-97.044 -30.02)" fill="#5c4666"/></g><g transform="translate(0 0)"><path d="M46.492,33.635a15.193,15.193,0,0,0-6.387-5.283l-.392-.178a3.748,3.748,0,0,1-2.188-1.683v0a2.9,2.9,0,0,1-.226-.948,9.143,9.143,0,0,0,4.341-5.735,2.093,2.093,0,0,0,.4.043,2.233,2.233,0,0,0,.989-.235,2.808,2.808,0,0,0,1.389-1.635c.449-1.378.053-2.586-.981-3.005a1.764,1.764,0,0,0-.424-.109,11.707,11.707,0,0,0-.089-1.94,1.192,1.192,0,0,0,.213-.587v0A37.808,37.808,0,0,0,43.1,7.182c0-.039-.012-.076-.018-.114l1.186-.325a16.132,16.132,0,0,1,.39,3.284.964.964,0,0,0-.657.917.95.95,0,0,0,.145.5,5.2,5.2,0,0,0-.372,2.141.643.643,0,0,0,.481.576,3.092,3.092,0,0,0,.727.089,2.915,2.915,0,0,0,.755-.1.64.64,0,0,0,.465-.587,5.993,5.993,0,0,0-.41-2.129.972.972,0,0,0,.141-.507.955.955,0,0,0-.679-.91,16.471,16.471,0,0,0-.412-3.433l.409-.112a1,1,0,0,0,.813-.924,1,1,0,0,0-.827-.914L41.322,3.625,34.99,1.987A2.416,2.416,0,0,0,33.768,2c-1.3.355-3.256.892-5.2,1.427l-5,1.373a1,1,0,0,0-.815.928.994.994,0,0,0,.828.912l2.138.553a37.5,37.5,0,0,0-.041,5.143,1.184,1.184,0,0,0,.2.567,12.184,12.184,0,0,0-.091,1.957,1.908,1.908,0,0,0-.469.113c-1.038.421-1.434,1.63-.986,3.007a2.807,2.807,0,0,0,1.389,1.635,2.234,2.234,0,0,0,.989.235,2.108,2.108,0,0,0,.407-.043,8.886,8.886,0,0,0,4.338,5.736,2.936,2.936,0,0,1-.208.9l0,.007c-.384.9-1.213,1.272-2.2,1.716-.133.059-.268.12-.4.183a15.263,15.263,0,0,0-6.386,5.282,1.915,1.915,0,0,0-.342,1.52A2.869,2.869,0,0,0,23.472,36.7a11.357,11.357,0,0,0,1.579.679.3.3,0,0,0,.049.017,27.887,27.887,0,0,0,9.272,1.4h0a27.921,27.921,0,0,0,9.272-1.4.3.3,0,0,0,.049-.017,11.367,11.367,0,0,0,1.579-.679,2.867,2.867,0,0,0,1.558-1.551,1.913,1.913,0,0,0-.34-1.519ZM45.609,13.51c0,.044-.017.064-.028.07a2.381,2.381,0,0,1-1.186.008c-.007,0-.025-.006-.033-.075a4.265,4.265,0,0,1,.273-1.669.956.956,0,0,0,.327.062h.014a.981.981,0,0,0,.324-.064,4.927,4.927,0,0,1,.308,1.669Zm-.368-2.325-.007.007a.357.357,0,0,1-.268.119A.331.331,0,0,1,44.7,11.2a.365.365,0,0,1-.1-.252.372.372,0,0,1,.368-.375h0a.373.373,0,0,1,.372.366.364.364,0,0,1-.1.252ZM32.021,25.795a7.43,7.43,0,0,0,2.378.529,7.193,7.193,0,0,0,2.328-.528,3.405,3.405,0,0,0,.2.8,3.268,3.268,0,0,1-2.552.989,3.163,3.163,0,0,1-2.54-1.031,3.429,3.429,0,0,0,.186-.756ZM26.778,14.9a2.053,2.053,0,0,0-.4-.064,11.406,11.406,0,0,1,.052-1.557,2.138,2.138,0,0,0,.613.014c.245-.02.45-.03.646-.03.158,0,.322,0,.491.007a8,8,0,0,0-1.4,1.63Zm2.265-2.17c-.441-.041-.843-.062-1.219-.062h-.139c-.208,0-.428.01-.691.03-.448.037-.5-.009-.6-.1a.535.535,0,0,1-.125-.329,36.749,36.749,0,0,1,.041-5.037.844.844,0,0,1,.034-.182.727.727,0,0,1,.589-.547A55.712,55.712,0,0,1,34.4,6.027a55.838,55.838,0,0,1,7.486.476.718.718,0,0,1,.56.461,1.034,1.034,0,0,1,.062.27,37.046,37.046,0,0,1,.043,5.037.538.538,0,0,1-.14.346c-.086.077-.138.123-.589.086q-.246-.018-.492-.028a12.772,12.772,0,0,0-1.625.064c-.727.071-1.457.188-2.16.3a20.008,20.008,0,0,1-3.136.345,20.04,20.04,0,0,1-3.143-.345c-.722-.116-1.468-.237-2.222-.309Zm12.266.535c.154.006.311.015.465.026a2.18,2.18,0,0,0,.6-.012,10.971,10.971,0,0,1,.053,1.553,2.119,2.119,0,0,0-.455.066,8.053,8.053,0,0,0-1.4-1.628c.252-.007.5-.009.738,0Zm2.547,4.526a2.2,2.2,0,0,1-1.086,1.286,1.6,1.6,0,0,1-.978.151,12.586,12.586,0,0,0,.246-1.651,1.651,1.651,0,0,1,1.078-.528.3.3,0,1,0-.02-.595,2.337,2.337,0,0,0-1,.3c.026-.448.042-.886.051-1.291a1.948,1.948,0,0,1,.555-.041,1.542,1.542,0,0,1,.509.092c.844.345.932,1.391.644,2.276ZM23.343,5.718c0-.149.149-.285.378-.349l5-1.372c1.947-.535,3.9-1.073,5.2-1.427a1.807,1.807,0,0,1,.918-.006L41.174,4.2l3.913,1.011c.231.059.381.194.382.342s-.147.283-.376.346l-2.221.608a1.273,1.273,0,0,0-.91-.595A56.4,56.4,0,0,0,34.4,5.433a56.236,56.236,0,0,0-7.546.481,1.278,1.278,0,0,0-.974.7L23.726,6.06c-.231-.059-.381-.192-.383-.34Zm2.635,13.36a2.2,2.2,0,0,1-1.086-1.286c-.288-.884-.2-1.93.645-2.273a1.73,1.73,0,0,1,.558-.093,1.776,1.776,0,0,1,.505.043c0,.071,0,.144.005.216v.051c.009.291.024.635.045.99,0,.01,0,.023,0,.036a2.336,2.336,0,0,0-1-.3.3.3,0,0,0-.306.287.3.3,0,0,0,.286.308,1.653,1.653,0,0,1,1.077.526,12.7,12.7,0,0,0,.244,1.653,1.6,1.6,0,0,1-.975-.149Zm1.639.344-.015-.051,0-.01,0-.01a10.783,10.783,0,0,1-.3-1.922c-.021-.235-.035-.466-.047-.692a.2.2,0,0,0,0-.033c-.021-.364-.035-.7-.044-.978v-.052c0-.1-.005-.192-.006-.276v-.047a6.422,6.422,0,0,1,1.9-2.017c.694.07,1.4.182,2.076.292a20.508,20.508,0,0,0,3.236.353,20.769,20.769,0,0,0,3.232-.352c.663-.107,1.347-.216,2.024-.286a6.422,6.422,0,0,1,1.893,2.012,17.971,17.971,0,0,1-.406,4l0,.009,0,.012-.042.155c-.439,1.553-1.573,4.341-4.233,5.564l-.015.007a7.079,7.079,0,0,1-2.457.629,7.237,7.237,0,0,1-2.51-.63l-.005,0c-2.012-.925-3.487-2.886-4.267-5.672Zm3.931,7.7a3.9,3.9,0,0,0,2.829,1.053,3.92,3.92,0,0,0,2.846-1.019,3.142,3.142,0,0,0,.832.818,12.393,12.393,0,0,1-2.076,5.262,22.877,22.877,0,0,0-.582-2.361,2.9,2.9,0,0,0,.528-.642,2.063,2.063,0,0,0,1.013.264c.078,0,.157,0,.238-.012a.3.3,0,0,0-.059-.592A1.527,1.527,0,0,1,36,29.58a4.3,4.3,0,0,1-.528-.49,1.6,1.6,0,0,0-1.1-.662,1.6,1.6,0,0,0-1.1.662,4.3,4.3,0,0,1-.528.49,1.527,1.527,0,0,1-1.117.315.3.3,0,1,0-.059.592,2.1,2.1,0,0,0,1.251-.252,2.936,2.936,0,0,0,.528.644,22.505,22.505,0,0,0-.583,2.366,12.508,12.508,0,0,1-2.08-5.27A3.14,3.14,0,0,0,31.547,27.123Zm3.332,3.414a.8.8,0,0,1-1.011,0,2.208,2.208,0,0,1-.562-.651c.146-.128.281-.26.4-.383.285-.3.47-.479.671-.479s.383.182.668.479c.119.123.253.254.4.383a2.179,2.179,0,0,1-.564.651Zm-1.009.673a1.289,1.289,0,0,0,1.008,0,25.222,25.222,0,0,1,.616,2.659c-.278.332-.665.785-1.121,1.288-.236-.26-.645-.719-1.118-1.285a24.888,24.888,0,0,1,.615-2.662Zm-11.379,3.8a1.366,1.366,0,0,1,.27-1.056,13.319,13.319,0,0,1,3.428-3.475,16.209,16.209,0,0,0-.6,1.73,4.638,4.638,0,0,0-1.877,1.441.3.3,0,0,0,.488.34,3.94,3.94,0,0,1,1.189-1.021c-.119.5-.208.979-.279,1.429A2.568,2.568,0,0,0,24.022,35.5a.3.3,0,1,0,.523.283,2.322,2.322,0,0,1,.458-.6c-.067.595-.1,1.107-.109,1.51a9.752,9.752,0,0,1-1.132-.508C22.972,35.751,22.592,35.4,22.491,35.006Zm11.884,3.2a27.57,27.57,0,0,1-8.892-1.3,17.16,17.16,0,0,1,1.637-7.052,16.872,16.872,0,0,1,1.774-.964c.132-.061.263-.121.394-.18.281-.127.565-.256.837-.4a13.568,13.568,0,0,0,2.162,5.281c.135.193.277.379.422.552.8.962,1.441,1.648,1.448,1.654a.3.3,0,0,0,.214.094h0a.3.3,0,0,0,.213-.089l.022-.022.022-.024c.589-.642,1.091-1.231,1.408-1.612l.008-.01c0-.006.01-.011.014-.018a13.269,13.269,0,0,0,2.562-5.806c.276.145.565.275.849.4l.386.175a16.66,16.66,0,0,1,1.771.957,17.154,17.154,0,0,1,1.639,7.058,27.578,27.578,0,0,1-8.892,1.3Zm11.884-3.2c-.1.392-.481.743-1.269,1.179a9.689,9.689,0,0,1-1.133.508c-.011-.4-.042-.916-.109-1.51a2.333,2.333,0,0,1,.458.6.3.3,0,1,0,.523-.283,2.568,2.568,0,0,0-1.087-1.109c-.07-.45-.16-.928-.279-1.429a3.945,3.945,0,0,1,1.189,1.021.3.3,0,1,0,.488-.34,4.638,4.638,0,0,0-1.877-1.441,16.172,16.172,0,0,0-.6-1.736,13.333,13.333,0,0,1,3.431,3.481,1.368,1.368,0,0,1,.268,1.056Z" transform="translate(-21.876 -1.914)" fill="#797c7e"/></g></g></g></svg>