<svg xmlns="http://www.w3.org/2000/svg" width="44" height="44" viewBox="0 0 44 44"><g transform="translate(-431 -1593)"><rect width="44" height="44" rx="2" transform="translate(431 1593)" fill="#dee2e6" opacity="0"/><g transform="translate(439.324 1596.568)"><path d="M48.889,100.634a13.209,13.209,0,0,0-5.081-4.349l-.018-.009a10.642,10.642,0,0,1-10.839-.006,13.177,13.177,0,0,0-5.111,4.364c-.725,1.154-.056,1.781.981,2.352a13.36,13.36,0,0,0,3.071,1.1,27.109,27.109,0,0,0,6.472.728,27.074,27.074,0,0,0,6.5-.734,13.448,13.448,0,0,0,3.044-1.091C48.943,102.415,49.612,101.788,48.889,100.634Z" transform="translate(-24.746 -68.237)" fill="#fff"/><path d="M32.951,96.27a26.938,26.938,0,0,0-1.058,7.813,13.36,13.36,0,0,1-3.071-1.1c-1.038-.571-1.706-1.2-.981-2.352A13.177,13.177,0,0,1,32.951,96.27Z" transform="translate(-24.746 -68.237)" fill="#e88188"/><path d="M87.351,100.669c.722,1.154.054,1.781-.984,2.352a13.447,13.447,0,0,1-3.044,1.091A27.006,27.006,0,0,0,82.27,96.32,13.209,13.209,0,0,1,87.351,100.669Z" transform="translate(-63.208 -68.272)" fill="#e88188"/><path d="M43.384,12.6c-2.536-1.537-1.653-3.139-3.273-6.023S32.744,1.2,28.528,4.735c-6.041.056-5.075,4.92-6.151,6.978-1.261,2.42-3.306,3.095-3.223,6.68s3.945,4.3,4.37,5.348.268,2.019,3.009,3.675A10.98,10.98,0,0,0,30.16,28.81a10.822,10.822,0,0,0,4.587-.065,13.954,13.954,0,0,0,2.346-.7,5.852,5.852,0,0,0,3.728-3.506,11.686,11.686,0,0,0,1.07-1.142c5.4-2.917,4.548-8.94,1.492-10.788Z" transform="translate(-18.855 -2.694)" fill="#6b6d6f"/><path d="M30.222,51.3c.092.948.238,2.108.437,3.116a2.557,2.557,0,0,1-3.024-1.689,2.8,2.8,0,0,1-.161-1.4A4.225,4.225,0,0,0,30.222,51.3Z" transform="translate(-24.684 -36.636)" fill="#fff"/><path d="M92.412,48.3a2.253,2.253,0,0,1,.265,2.313A2.559,2.559,0,0,1,89.65,52.3c.158-.773.271-1.582.36-2.387A4.864,4.864,0,0,0,92.4,48.29Z" transform="translate(-68.394 -34.521)" fill="#fff"/><path d="M56.589,87.612a10.642,10.642,0,0,1-10.839-.006c1.109-.6,2.432-.722,3.1-1.918a3.143,3.143,0,0,0,.327-.9,4.857,4.857,0,0,0,.11-.844v0a5.171,5.171,0,0,0,3.752,0,5.084,5.084,0,0,0,.1.832,3.2,3.2,0,0,0,.294.85c.663,1.258,2.01,1.376,3.139,1.983C56.581,87.609,56.586,87.609,56.589,87.612Z" transform="translate(-37.545 -59.573)" fill="#fff"/><path d="M39.545,31.328c.815-1.87.812-4.486,2.242-5.548,1.3,1.032,3.88,1.57,3.731,3.5a4.5,4.5,0,0,0,3.131,4.578,6.643,6.643,0,0,0,4.21.238c-.089.806-.2,1.614-.36,2.387-.015.08-.03.161-.048.241a8.514,8.514,0,0,1-5.378,6.228c-.113.045-.226.083-.336.119a5.171,5.171,0,0,1-3.752,0c-.11-.039-.223-.077-.339-.122a8.514,8.514,0,0,1-5.378-6.228c-.018-.08-.033-.161-.051-.241-.2-1.008-.345-2.167-.437-3.116a4.512,4.512,0,0,0,2.765-2.039Z" transform="translate(-31.242 -18.703)" fill="#fff"/><circle cx="2.983" cy="2.983" r="2.983" transform="translate(6.69 13.09)" fill="#f7f0df" opacity="0"/><path d="M73.227,50.988a2.983,2.983,0,1,1-5.072-2.138h0a5.054,5.054,0,0,0,1.909,1.219,7.391,7.391,0,0,0,3.125.452A3.026,3.026,0,0,1,73.227,50.988Z" transform="translate(-52.66 -34.915)" fill="#f7f0df" opacity="0"/><g transform="translate(0 0)"><path d="M42.836,11.632a4.132,4.132,0,0,1-2.045-3.018,11.727,11.727,0,0,0-1.123-2.9A8.276,8.276,0,0,0,34.1,2.123a7.722,7.722,0,0,0-6.385,1.6c-4.692.089-5.317,3.092-5.773,5.29a7.638,7.638,0,0,1-.533,1.846A10.938,10.938,0,0,1,20.048,12.8a6.468,6.468,0,0,0-1.893,4.887c.062,2.6,2,3.8,3.285,4.588.518.32,1.008.622,1.107.865.068.168.119.335.176.512.275.879.587,1.876,2.955,3.306a11.359,11.359,0,0,0,3.277,1.336,4.013,4.013,0,0,1-1.688,1,9.491,9.491,0,0,0-1.041.457l0,0-.005,0a13.53,13.53,0,0,0-5.221,4.468,1.728,1.728,0,0,0-.308,1.375,2.561,2.561,0,0,0,1.4,1.395,13.235,13.235,0,0,0,3.143,1.126,27.418,27.418,0,0,0,6.543.737,27.369,27.369,0,0,0,6.568-.743,13.4,13.4,0,0,0,3.116-1.119,2.56,2.56,0,0,0,1.4-1.4,1.727,1.727,0,0,0-.305-1.375,13.412,13.412,0,0,0-5.137-4.423c-.009-.008-.02-.014-.03-.021a.305.305,0,0,0-.059-.035l-.036-.011-.012,0a9.866,9.866,0,0,0-.991-.433,3.8,3.8,0,0,1-1.751-1.068A14.638,14.638,0,0,0,36.5,27.6a6.017,6.017,0,0,0,3.743-3.361,2.353,2.353,0,0,1,.944-1.221,7.233,7.233,0,0,0,4.222-6.157,5.875,5.875,0,0,0-2.573-5.227ZM22.178,17.18a5.262,5.262,0,0,0,1.252-.161c.069.65.186,1.6.355,2.522a2.367,2.367,0,0,1-2.4-1.576,2.644,2.644,0,0,1-.169-.9,3.855,3.855,0,0,0,.964.117ZM24.419,19.7c-.2-1.027-.336-2.152-.409-2.85a4.618,4.618,0,0,0,2.719-2.129A13.992,13.992,0,0,0,27.4,12.5a6.175,6.175,0,0,1,1.313-3.065,11.435,11.435,0,0,0,1.21.709c1.18.626,2.295,1.217,2.2,2.387a4.572,4.572,0,0,0,1.3,3.59.267.267,0,0,0,.026.023,5.408,5.408,0,0,0,2,1.269,8.108,8.108,0,0,0,2.683.492q.289,0,.57-.025a6.035,6.035,0,0,0,.709-.119c-.089.725-.188,1.368-.306,1.941-.014.077-.03.154-.046.232a8.2,8.2,0,0,1-5.2,6.014c-.107.042-.214.079-.322.114a4.878,4.878,0,0,1-3.558,0l-.064-.023c-.087-.03-.176-.062-.268-.1a8.2,8.2,0,0,1-5.193-6.013Zm17.717-3.471a2.1,2.1,0,0,1,.02,1.736,2.371,2.371,0,0,1-2.4,1.577c.11-.581.205-1.224.29-1.954a5.14,5.14,0,0,0,2.095-1.36ZM21.262,35.442a1.182,1.182,0,0,1,.238-.91,12.379,12.379,0,0,1,4.36-3.9A27.551,27.551,0,0,0,25,37.438a12.133,12.133,0,0,1-2.628-.973C21.69,36.091,21.348,35.775,21.262,35.442Zm4.332,2.143a27.021,27.021,0,0,1,.937-7.138,10.894,10.894,0,0,0,10.5-.006,26.935,26.935,0,0,1,.937,7.138,26.989,26.989,0,0,1-6.2.674,27.037,27.037,0,0,1-6.177-.669Zm16.449-3.053a1.179,1.179,0,0,1,.234.91c-.087.334-.429.649-1.109,1.023a12.143,12.143,0,0,1-2.6.967,28.08,28.08,0,0,0-.854-6.783A12.4,12.4,0,0,1,42.043,34.532Zm-5.979-4.689c.158.062.318.125.476.191a10.3,10.3,0,0,1-9.526-.006c.156-.066.313-.128.468-.188a3.844,3.844,0,0,0,2.234-1.6c0-.006.006-.013.009-.019a.176.176,0,0,0,.01-.02,3.912,3.912,0,0,0,.422-1.463,5.138,5.138,0,0,0,3.227,0,4.009,4.009,0,0,0,.4,1.431c.005.01.011.017.016.026l0,.005a3.829,3.829,0,0,0,2.263,1.647Zm8.751-13a6.659,6.659,0,0,1-3.9,5.649,2.869,2.869,0,0,0-1.2,1.488,5.436,5.436,0,0,1-3.426,3.069,13.878,13.878,0,0,1-2.063.637,3.787,3.787,0,0,1-.255-1.135c.042-.015.084-.028.124-.044a8.849,8.849,0,0,0,5.547-6.379,2.164,2.164,0,0,0,.408.04,3.063,3.063,0,0,0,2.669-1.992,2.591,2.591,0,0,0-.178-2.428,3.335,3.335,0,0,0,.662-1.486.3.3,0,0,0-.592-.062,2.97,2.97,0,0,1-.677,1.365,4.549,4.549,0,0,1-2.247,1.524,5.381,5.381,0,0,1-1.025.2,7.129,7.129,0,0,1-3-.435,4.793,4.793,0,0,1-1.8-1.148l-.025-.023a3.984,3.984,0,0,1-1.114-3.107c.119-1.558-1.282-2.3-2.519-2.958a8.835,8.835,0,0,1-1.323-.8,1.273,1.273,0,0,1-.6-1.1.3.3,0,1,0-.595-.037,1.724,1.724,0,0,0,.569,1.371,6.881,6.881,0,0,0-1.427,3.3,13.531,13.531,0,0,1-.644,2.126,4.213,4.213,0,0,1-2.58,1.873,3.9,3.9,0,0,1-2.551.03,2.188,2.188,0,0,1-.275-.131.3.3,0,0,0-.289.521c.049.027.1.051.144.074a3.176,3.176,0,0,0,.2,1.322,3.058,3.058,0,0,0,2.667,1.994,2.145,2.145,0,0,0,.413-.041A8.849,8.849,0,0,0,29.449,26.5c.044.017.086.03.129.047a3.652,3.652,0,0,1-.288,1.2,10.75,10.75,0,0,1-3.306-1.308c-2.175-1.314-2.438-2.158-2.695-2.973-.057-.181-.115-.367-.192-.558-.172-.424-.69-.743-1.345-1.147-1.244-.768-2.948-1.819-3-4.1a5.907,5.907,0,0,1,1.759-4.495,11.444,11.444,0,0,0,1.43-2.041,7.987,7.987,0,0,0,.588-2c.465-2.241.992-4.78,5.3-4.82a.3.3,0,0,0,.188-.07,7.068,7.068,0,0,1,5.976-1.537,7.66,7.66,0,0,1,5.155,3.3,11.244,11.244,0,0,1,1.069,2.763,4.66,4.66,0,0,0,2.31,3.369,5.274,5.274,0,0,1,2.287,4.7Z" transform="translate(-18.152 -1.977)" fill="#797c7e"/><path d="M54.085,47.8a.3.3,0,1,0-.587.093,2.366,2.366,0,0,1,.03.4,2.686,2.686,0,1,1-5.372,0,2.659,2.659,0,0,1,.805-1.925.3.3,0,1,0-.415-.426,3.237,3.237,0,0,0-.971,2.053H46.2a3.281,3.281,0,1,0,0,.595h1.379a3.28,3.28,0,0,0,6.546-.3,3,3,0,0,0-.036-.489ZM42.931,50.975a2.686,2.686,0,1,1,2.686-2.686A2.686,2.686,0,0,1,42.931,50.975Z" transform="translate(-33.258 -32.216)" fill="#797c7e"/></g></g></g></svg>