<svg xmlns="http://www.w3.org/2000/svg" xmlns:xlink="http://www.w3.org/1999/xlink" width="44" height="46.139" viewBox="0 0 44 46.139"><defs><filter id="a" x="3.87" y="0" width="36.23" height="33.286" filterUnits="userSpaceOnUse"><feOffset dy="3" input="SourceAlpha"/><feGaussianBlur stdDeviation="3" result="b"/><feFlood flood-opacity="0.161"/><feComposite operator="in" in2="b"/><feComposite in="SourceGraphic"/></filter></defs><g transform="translate(-248 -1405.861)"><rect width="44" height="44" rx="2" transform="translate(248 1408)" fill="#dee2e6" opacity="0"/><g transform="translate(258.703 1411.568)"><g transform="matrix(1, 0, 0, 1, -10.7, -5.71)" filter="url(#a)"><path d="M44.695,4.735c-.03-.1-.446-1.466.66-1.605,1.379-.175,3.134,1.683,3.22,2.982a1.465,1.465,0,0,1,2.188.14c.913,1.151.036,3.532.036,3.532s.725.6.149,6.728c-7.107,2.364-9.758,2.364-17.546,0-.577-6.133.149-6.731.149-6.731a1.857,1.857,0,0,1-.339-2.319c.476-.824,1.579-.919,2.842-1.261-1.591-1.591.128-2.185,1.165-2.227a6,6,0,0,1,2.848.568c-.41-3.053,4.052-.815,4.629.19Z" transform="translate(-20.08 3)" fill="#ffec99"/></g><path d="M56.62,94.892c-.889.083-1.858.131-2.9.131s-2.013-.048-2.9-.131c-1.947-2.729-2-6.743.276-10.7a3.061,3.061,0,0,0,.268-.752,3.973,3.973,0,0,0,.083-.5l.033-.595a11.379,11.379,0,0,0,4.483,0,4.906,4.906,0,0,0,.107,1.061,3.163,3.163,0,0,0,.279.785A13.375,13.375,0,0,1,56.62,94.892Z" transform="translate(-42.319 -58.459)" fill="#ff977b" opacity="0"/><path d="M35.611,90.21c.324,1.029-.4,7.542-.77,10.212A22.279,22.279,0,0,1,29.1,99.194a10.3,10.3,0,0,1-.981-.425l-.166-.089c-1.064-.586-1.754-1.228-1.011-2.414a11.316,11.316,0,0,1,1.989-2.271A13.865,13.865,0,0,1,30.3,92.918a15.224,15.224,0,0,1,2.346-1.356c.166-.077.339-.155.508-.235A13.338,13.338,0,0,1,35.611,90.21Z" transform="translate(-26.343 -63.989)" fill="#e88188"/><path d="M79.643,96.266a1.413,1.413,0,0,1,.241,1.284,2.569,2.569,0,0,1-1.252,1.13,18.959,18.959,0,0,1-6.885,1.742c-.375-2.67-1.094-9.184-.77-10.212,0,0,1.151.507,2.462,1.118.169.08.342.158.508.235.52.244,1,.5,1.451.77a15.933,15.933,0,0,1,1.43.975,12.7,12.7,0,0,1,2.658,2.72C79.545,96.114,79.6,96.192,79.643,96.266Z" transform="translate(-57.446 -63.989)" fill="#e88188"/><path d="M30.879,109.2c1.754,1.379,1.168,2.777.815,3.339a10.3,10.3,0,0,1-.981-.425C30.3,111.549,30.029,110.6,30.879,109.2Z" transform="translate(-28.933 -77.334)" fill="#f9e0b4" opacity="0"/><path d="M35.732,99.32a2.367,2.367,0,0,1,.318,2.1,2.21,2.21,0,0,1-1.68-1.02A13.867,13.867,0,0,1,35.732,99.32Z" transform="translate(-31.779 -70.391)" fill="#f9e0b4" opacity="0"/><path d="M44.54,103.594a1.783,1.783,0,0,1,2.664-.728S46.585,104.584,44.54,103.594Z" transform="translate(-38.926 -72.65)" fill="#f9e0b4" opacity="0"/><path d="M43.216,110.76c1.35,1.433.092,2.39.092,2.39A1.547,1.547,0,0,1,43.216,110.76Z" transform="translate(-37.635 -78.43)" fill="#f9e0b4" opacity="0"/><path d="M48.477,120.606c-.051.392-.1.746-.14,1.052-.916-.083-1.748-.205-2.5-.345A2.22,2.22,0,0,1,48.477,120.606Z" transform="translate(-39.839 -85.226)" fill="#f9e0b4" opacity="0"/><path d="M72.91,117.6a1.981,1.981,0,0,1,2.117.452,1.965,1.965,0,0,1-1.971.711C73.008,118.412,72.961,118.02,72.91,117.6Z" transform="translate(-58.862 -83.139)" fill="#f9e0b4" opacity="0"/><path d="M94.677,109.695a1.413,1.413,0,0,1,.241,1.284,2.153,2.153,0,0,1-2.628-1.159,2.334,2.334,0,0,1,2.23-.363c.059.086.113.164.158.238Z" transform="translate(-72.48 -77.418)" fill="#f9e0b4" opacity="0"/><path d="M86.791,98.325a2.23,2.23,0,0,1-1.6.9,2.417,2.417,0,0,1,.172-1.879,15.929,15.929,0,0,1,1.43.975Z" transform="translate(-67.409 -69.007)" fill="#f9e0b4" opacity="0"/><path d="M84.586,107.51c.4,2.592-1.7,2.7-1.7,2.7S82.16,108.2,84.586,107.51Z" transform="translate(-65.798 -76.146)" fill="#f9e0b4" opacity="0"/><path d="M76.278,104.719s-1.371.8-2.188-1A1.554,1.554,0,0,1,76.278,104.719Z" transform="translate(-59.691 -73.394)" fill="#f9e0b4" opacity="0"/><path d="M73.59,88.032a2.339,2.339,0,0,1,.042,1.049c-.1.931-.41,2.087-.752,1.941-.821-.351-1.709-3.059-1.709-3.059.184-.184.348-.351.5-.494.354-.339.615-.529.8-.431a4.1,4.1,0,0,1,1.121.993Z" transform="translate(-57.639 -61.743)" fill="#fff"/><path d="M50.422,87.473c.149.14.312.309.494.491,0,0-.889,2.708-1.709,3.059-.342.146-.651-1.011-.752-1.941a2.339,2.339,0,0,1,.042-1.049,4.1,4.1,0,0,1,1.121-.993c.19-.1.452.092.806.434Z" transform="translate(-41.648 -61.743)" fill="#fff"/><path d="M60.776,83.4a5.07,5.07,0,0,1-2.384.565,5.158,5.158,0,0,1-2.322-.529,3.973,3.973,0,0,0,.083-.5l.033-.595a11.379,11.379,0,0,0,4.483,0A4.905,4.905,0,0,0,60.776,83.4Z" transform="translate(-47.028 -58.459)" fill="#ff7364" opacity="0"/><g transform="translate(1.216 5.327)"><path d="M87.784,48.4a1.506,1.506,0,0,1,.422.128c.928.449,1.21,1.608.829,2.866A2.471,2.471,0,0,1,85.888,53c-.869-.971-.646-3.067.69-4.394A1.9,1.9,0,0,1,87.784,48.4Z" transform="translate(-68.834 -39.918)" fill="#ff977b" opacity="0.004"/><path d="M33.06,53a2.471,2.471,0,0,1-3.148-1.611c-.381-1.258-.1-2.417.829-2.866a1.4,1.4,0,0,1,.41-.125,1.877,1.877,0,0,1,1.219.208C33.506,49.626,33.811,52.03,33.06,53Z" transform="translate(-29.748 -39.917)" fill="#ff977b" opacity="0.004"/><path d="M46.1,38.942a7.4,7.4,0,0,0,6.73-5.312,27.091,27.091,0,0,0,.836-5.01,15.364,15.364,0,0,0-.9-5.768c-.852-2.051-2.581-2.921-6.656-2.921H46.1c-4.075,0-5.8.87-6.656,2.921a15.364,15.364,0,0,0-.9,5.768,27.206,27.206,0,0,0,.836,5.01A7.382,7.382,0,0,0,46.1,38.942Z" transform="translate(-35.926 -19.932)" fill="#fff"/></g><path d="M45.085,49.721a2.182,2.182,0,0,1-2.3-.928,2.987,2.987,0,0,1-.169-2.65c.684-1.373,2.992-1,3.606-.94.919.089,2.054.7,1.878,1.736A3.765,3.765,0,0,1,45.085,49.721Z" transform="translate(-37.413 -32.298)" fill="#6b6d6f"/><path d="M69.324,49.721a2.183,2.183,0,0,0,2.3-.928,2.987,2.987,0,0,0,.169-2.65c-.684-1.373-2.992-1-3.606-.94-.919.089-2.053.7-1.877,1.736A3.766,3.766,0,0,0,69.324,49.721Z" transform="translate(-54.208 -32.298)" fill="#6b6d6f"/><g transform="translate(0 0)"><path d="M69.007,40.561a3.019,3.019,0,0,1,1.057-.313,6.536,6.536,0,0,1,1.086-.062,4.953,4.953,0,0,1,1.089.147,2.294,2.294,0,0,1,1.023.535.224.224,0,0,1-.3.334l-.011-.009a1.924,1.924,0,0,0-.835-.355,4.72,4.72,0,0,0-.976-.089,5.937,5.937,0,0,0-.99.081c-.327.058-.644.133-.956.2l-.01,0a.255.255,0,0,1-.178-.473Z" transform="translate(-56.027 -28.835)" fill="#473049" opacity="0"/><path d="M48.276,41.029c-.312-.071-.63-.146-.956-.2a5.937,5.937,0,0,0-.99-.081,4.72,4.72,0,0,0-.976.089,1.923,1.923,0,0,0-.835.355l-.01.009a.224.224,0,0,1-.3-.333,2.294,2.294,0,0,1,1.024-.535,4.949,4.949,0,0,1,1.089-.147,6.537,6.537,0,0,1,1.086.062,3.018,3.018,0,0,1,1.057.314.256.256,0,0,1-.178.474Z" transform="translate(-38.646 -28.832)" fill="#473049" opacity="0"/><path d="M54.564,45.308c-.726-1.46-2.922-1.213-3.748-1.12l-.154.017a3.066,3.066,0,0,0-.48.089H46.036a3.057,3.057,0,0,0-.479-.089l-.154-.017c-.826-.093-3.022-.34-3.748,1.12a3.3,3.3,0,0,0,.177,2.929,2.246,2.246,0,0,0,2.141,1.1c.149,0,.3-.007.438-.018A4.058,4.058,0,0,0,47.7,46.286a1.509,1.509,0,0,0,.017-.247,1.305,1.305,0,0,1,.788,0,1.531,1.531,0,0,0,.017.249,4.059,4.059,0,0,0,3.289,3.029c.142.01.289.018.438.018a2.246,2.246,0,0,0,2.139-1.1A3.3,3.3,0,0,0,54.564,45.308Zm-7.451.878a3.465,3.465,0,0,1-2.747,2.537,1.888,1.888,0,0,1-2.017-.778,2.679,2.679,0,0,1-.161-2.372c.353-.71,1.284-.866,2.086-.866a9.409,9.409,0,0,1,1.063.072l.162.018a2.178,2.178,0,0,1,1.439.694A.857.857,0,0,1,47.113,46.186Zm.482-.736a1.55,1.55,0,0,0-.185-.321,1.842,1.842,0,0,0-.227-.242h1.854a1.841,1.841,0,0,0-.227.242,1.546,1.546,0,0,0-.184.319A1.883,1.883,0,0,0,47.595,45.45Zm6.275,2.493a1.888,1.888,0,0,1-2.016.778,3.466,3.466,0,0,1-2.747-2.537.856.856,0,0,1,.175-.7A2.18,2.18,0,0,1,50.72,44.8l.162-.018c.714-.08,2.608-.293,3.149.794A2.676,2.676,0,0,1,53.87,47.943Z" transform="translate(-36.716 -31.596)" fill="#797c7e"/><path d="M60,64.005a2.711,2.711,0,0,1-.807-.122,1.292,1.292,0,0,1-.914-.768.3.3,0,1,1,.568-.176.785.785,0,0,0,.528.378,1.7,1.7,0,0,0,1.4-.11.3.3,0,1,1,.361.473,1.873,1.873,0,0,1-1.13.325Z" transform="translate(-48.573 -44.679)" fill="#473049" opacity="0"/><path d="M62.093,59.023c-.008,0-.8-.013-.8-.476a.3.3,0,0,1,.543-.167.713.713,0,0,0,.517,0,.3.3,0,0,1,.543.167C62.892,59.01,62.1,59.023,62.093,59.023Z" transform="translate(-50.696 -41.531)" fill="#473049" opacity="0"/><path d="M43.707,103.172a3,3,0,0,0,1.3.338,1.875,1.875,0,0,0,.714-.136,2.014,2.014,0,0,0,1.062-1.1.3.3,0,0,0-.1-.339,2.145,2.145,0,0,0-1.548-.362,2.372,2.372,0,0,0-1.542,1.167.3.3,0,0,0,.119.428Zm1.524-1.009a1.472,1.472,0,0,1,.875.13,1.348,1.348,0,0,1-.612.53,1.653,1.653,0,0,1-1.2-.046,1.608,1.608,0,0,1,.936-.614Z" transform="translate(-38.223 -71.96)" fill="#797c7e"/><path d="M75.865,103.937a1.911,1.911,0,0,0-.85-1.13,2.1,2.1,0,0,0-1.716-.087.3.3,0,0,0-.182.406,2.16,2.16,0,0,0,1.258,1.278,1.605,1.605,0,0,0,.488.075,1.851,1.851,0,0,0,.862-.219A.3.3,0,0,0,75.865,103.937Zm-1.308-.1a1.371,1.371,0,0,1-.728-.636,1.332,1.332,0,0,1,.888.119,1.225,1.225,0,0,1,.477.519,1.111,1.111,0,0,1-.638,0Z" transform="translate(-58.988 -72.68)" fill="#797c7e"/><path d="M48.108,34.136c-.047-.078-.1-.159-.168-.253A12.829,12.829,0,0,0,45.219,31.1a16.427,16.427,0,0,0-1.457-.994c-.478-.285-.975-.548-1.478-.784l-.185-.085-.134-.062a1.937,1.937,0,0,0-.1-1.022,4.341,4.341,0,0,0-1.241-1.1.766.766,0,0,0-.83.2,3.927,3.927,0,0,1-.191-1.157,7.576,7.576,0,0,0,4.467-4.98l.043-.178.032-.133a2.611,2.611,0,0,0,.575.067,2.691,2.691,0,0,0,1.2-.288A2.8,2.8,0,0,0,47.358,18.9c.44-1.454.054-2.718-.983-3.219a1.579,1.579,0,0,0-.233-.091c.414-4.578.1-6.059-.141-6.535.18-.552.751-2.57-.13-3.679a1.651,1.651,0,0,0-2.207-.429A4.411,4.411,0,0,0,42.238,2.9a2.792,2.792,0,0,0-2.046-.756,1.094,1.094,0,0,0-.821.479,1.308,1.308,0,0,0-.191.618c-.97-.736-2.69-1.484-3.7-1.142a1.293,1.293,0,0,0-.862,1.324l-.036-.013a5.355,5.355,0,0,0-2.5-.422c-.766.03-1.757.313-2.028,1.008a1.365,1.365,0,0,0,.33,1.348l-.23.055c-1.007.241-1.876.448-2.324,1.224a2.121,2.121,0,0,0,.229,2.518c-.23.56-.493,2.12-.1,6.451a1.613,1.613,0,0,0-.22.086c-1.038.5-1.425,1.766-.984,3.221a2.8,2.8,0,0,0,1.437,1.674,2.692,2.692,0,0,0,1.2.288,2.594,2.594,0,0,0,.575-.067l.032.134.043.178a7.567,7.567,0,0,0,4.467,4.983,3.963,3.963,0,0,1-.188,1.157c-.272-.215-.553-.345-.83-.2a4.341,4.341,0,0,0-1.239,1.1,1.936,1.936,0,0,0-.1,1.021l-.134.062-.186.086A15.576,15.576,0,0,0,29.439,30.7l-.012.009a14.208,14.208,0,0,0-1.38,1.091A11.47,11.47,0,0,0,26,34.133a1.766,1.766,0,0,0-.313,1.405,2.63,2.63,0,0,0,1.433,1.427l.027.015.149.08a10.622,10.622,0,0,0,1.011.438,20.048,20.048,0,0,0,3.291.9c.829.154,1.678.271,2.524.348.936.089,1.922.132,2.93.132s1.992-.044,2.929-.132a18.7,18.7,0,0,0,7-1.778,2.854,2.854,0,0,0,1.386-1.284,1.693,1.693,0,0,0-.264-1.545Zm-.6.161c.035.051.067.1.1.149a1.3,1.3,0,0,1,.253.879,1.812,1.812,0,0,1-2-.819A1.96,1.96,0,0,1,47.5,34.3Zm-3.77-3.506q.444.282.871.595a1.966,1.966,0,0,1-.948.513A2.17,2.17,0,0,1,43.734,30.791Zm-3.366-3.208a3.951,3.951,0,0,1,.981.867,2.467,2.467,0,0,1,0,.869,4.706,4.706,0,0,1-.422,1.654,7.273,7.273,0,0,1-1.4-2.659l.008-.008c.128-.128.245-.246.353-.35a1.534,1.534,0,0,1,.479-.372Zm-.251,9.807q-.044-.336-.089-.714a1.657,1.657,0,0,1,1.319.285,1.617,1.617,0,0,1-1.23.429ZM46.79,18.725a2.206,2.206,0,0,1-1.133,1.316,2.059,2.059,0,0,1-1.379.175c.162-.716.291-1.358.39-1.949a1.206,1.206,0,0,1,1.13-.352.3.3,0,0,0,.139-.578,1.978,1.978,0,0,0-1.149.108c.056-.439.094-.847.114-1.23a1.709,1.709,0,0,1,.872-.1,1.219,1.219,0,0,1,.341.1c.761.368,1.026,1.354.675,2.512ZM28.345,6.92c.32-.555,1.039-.727,1.948-.944.23-.055.469-.112.714-.178a.3.3,0,0,0,.133-.5c-.446-.444-.633-.831-.532-1.09.147-.376.881-.605,1.5-.63a4.836,4.836,0,0,1,2.276.386c.142.051.294.106.463.165a.3.3,0,0,0,.392-.321c-.129-.96.3-1.1.438-1.152,1.026-.349,3.274.895,3.639,1.53,0,0,.006.006.008.01a.291.291,0,0,0,.535-.076.1.1,0,0,0,0-.013.274.274,0,0,0,.013-.062.284.284,0,0,0-.006-.03.275.275,0,0,0-.006-.03.293.293,0,0,0-.01-.048,1.363,1.363,0,0,1,.02-1,.516.516,0,0,1,.4-.213,2.25,2.25,0,0,1,1.593.624,3.433,3.433,0,0,1,1.293,2.081.3.3,0,0,0,.466.225c.738-.511,1.338-.484,1.786.081.662.832.217,2.625-.01,3.244a.3.3,0,0,0,.063.306c.05.076.561,1,.1,6.208a2.368,2.368,0,0,0-.634.081,15.442,15.442,0,0,0-.928-5.436c-.929-2.234-2.872-3.1-6.942-3.1s-6,.87-6.931,3.106a15.438,15.438,0,0,0-.927,5.434,2.334,2.334,0,0,0-.645-.08c-.468-5.211.046-6.134.1-6.208a.3.3,0,0,0-.019-.426,1.555,1.555,0,0,1-.278-1.948Zm.111,13.121a2.207,2.207,0,0,1-1.133-1.316c-.351-1.158-.086-2.144.675-2.512a1.107,1.107,0,0,1,.327-.1,1.679,1.679,0,0,1,.884.1c.02.383.058.791.114,1.231a1.97,1.97,0,0,0-1.149-.108.3.3,0,0,0,.141.577,1.209,1.209,0,0,1,1.13.346c.1.592.229,1.236.391,1.955a2.056,2.056,0,0,1-1.382-.174Zm2.166.929-.043-.18c-.033-.137-.068-.282-.1-.433-.2-.854-.349-1.6-.46-2.273a17.539,17.539,0,0,1-.222-2.065,15.31,15.31,0,0,1,.875-5.643c.832-2,2.561-2.739,6.394-2.739s5.551.743,6.382,2.739a15.3,15.3,0,0,1,.876,5.642,17.549,17.549,0,0,1-.222,2.065c-.111.676-.262,1.42-.46,2.274-.034.151-.07.3-.1.433l-.043.178a7.063,7.063,0,0,1-4.3,4.648,5.938,5.938,0,0,1-2.14.438,5.854,5.854,0,0,1-2.126-.434h0a7.055,7.055,0,0,1-4.3-4.65Zm2.138,7.486a3.932,3.932,0,0,1,.985-.874c.046.012.171.075.483.377.1.1.213.208.331.327l.026.026a7.27,7.27,0,0,1-1.4,2.66,4.7,4.7,0,0,1-.422-1.652,2.592,2.592,0,0,1,0-.864ZM29.706,32.7a1.894,1.894,0,0,1-1.061-.633q.432-.373.885-.7A2.046,2.046,0,0,1,29.706,32.7Zm-3.438,2.683a1.219,1.219,0,0,1,.241-.94A10.614,10.614,0,0,1,28.2,32.467a2.56,2.56,0,0,0,1.71.868h.014a.3.3,0,0,0,.279-.2,2.714,2.714,0,0,0-.188-2.114,15.049,15.049,0,0,1,2.061-1.169l.143-.066c.092.575.3,1.512.7,1.747a.448.448,0,0,0,.41.03,3.974,3.974,0,0,0,1.374-1.93c-.043,1.7-.326,4.659-.662,7.365a2.476,2.476,0,0,0-2.488.776,19.789,19.789,0,0,1-2.716-.722,2.665,2.665,0,0,0-1.054-3.409.293.293,0,0,0-.238-.059.3.3,0,0,0-.2.138,3.239,3.239,0,0,0-.559,2.323,1.271,1.271,0,0,1-.519-.659Zm7.63,2.73c-.535-.054-1.067-.127-1.595-.213a1.833,1.833,0,0,1,1.665-.309Zm-6.258-1.555a2.067,2.067,0,0,1,.044-2.222,1.984,1.984,0,0,1,.6,2.507C28.044,36.751,27.826,36.654,27.641,36.562Zm6.85,1.612q.046-.343.1-.743c.042-.327,1.014-8.016.62-9.283,0-.009-.006-.018-.01-.027a.3.3,0,0,0-.024-.047.287.287,0,0,0-.044-.054l-.151-.152-.2-.2a4.126,4.126,0,0,0,.309-1.363,5.79,5.79,0,0,0,3.925,0,4.088,4.088,0,0,0,.312,1.366l-.216.216-.134.134a.283.283,0,0,0-.045.056.27.27,0,0,0-.022.042c0,.01-.008.021-.011.03-.327,1.065.305,6.669.509,8.377.05.412.1.8.144,1.149v0c.021.176.043.339.064.5a32.186,32.186,0,0,1-5.128,0ZM46.7,36.443a17.839,17.839,0,0,1-6.487,1.677l-.018-.131c.027,0,.051.006.079.006a2.462,2.462,0,0,0,1.759-.857.3.3,0,0,0-.03-.444,2.447,2.447,0,0,0-2.045-.612c-.321-2.749-.515-5.054-.55-6.442a3.966,3.966,0,0,0,1.373,1.926.446.446,0,0,0,.41-.03c.4-.235.608-1.171.7-1.747l.142.065c.4.189.8.4,1.187.622a2.768,2.768,0,0,0-.062,1.858.3.3,0,0,0,.279.2h.015a2.576,2.576,0,0,0,1.631-.782,13.207,13.207,0,0,1,1.9,1.856,2.776,2.776,0,0,0-1.706.581.3.3,0,0,0-.083.344,2.416,2.416,0,0,0,2.2,1.441l.03,0a4.541,4.541,0,0,1-.722.474Z" transform="translate(-25.656 -2.013)" fill="#797c7e"/><path d="M84.047,106.557a.3.3,0,0,0-.242-.036,2.7,2.7,0,0,0-1.781,1.291A2.43,2.43,0,0,0,81.9,109.6a.3.3,0,0,0,.28.2H82.2a2.278,2.278,0,0,0,1.535-.786,2.774,2.774,0,0,0,.448-2.254.3.3,0,0,0-.133-.2Zm-.77,2.077a1.62,1.62,0,0,1-.87.531,1.754,1.754,0,0,1,.147-1.08,1.934,1.934,0,0,1,1.08-.879A2,2,0,0,1,83.277,108.634Z" transform="translate(-65.099 -75.443)" fill="#797c7e"/><path d="M42.447,112.689a.3.3,0,0,0,.354,0,1.789,1.789,0,0,0,.645-1.189,2.15,2.15,0,0,0-.7-1.641.268.268,0,0,0-.226-.093.3.3,0,0,0-.219.107,2.1,2.1,0,0,0-.569,1.611,1.9,1.9,0,0,0,.716,1.21Zm.1-2.148a1.361,1.361,0,0,1,.308.9,1.112,1.112,0,0,1-.24.591,1.219,1.219,0,0,1-.293-.632,1.323,1.323,0,0,1,.225-.857Z" transform="translate(-36.947 -77.727)" fill="#797c7e"/></g></g></g></svg>