<svg xmlns="http://www.w3.org/2000/svg" width="44" height="44" viewBox="0 0 44 44"><g transform="translate(-428 -1408)"><rect width="44" height="44" rx="2" transform="translate(428 1408)" fill="#dee2e6" opacity="0"/><g transform="translate(437.811 1411.568)"><path d="M47.607,93.332a14.436,14.436,0,0,0-6.2-4.959c-.782-.488-1.576-.928-2.5-1.463-.068-.134-.137-.208-.253-.44a2.9,2.9,0,0,1-4.983,0c-.116.232-.184.306-.253.44-.922.535-1.715.975-2.5,1.463a14.436,14.436,0,0,0-6.2,4.959c-.806,1.246-.059,1.921,1.1,2.539A17.842,17.842,0,0,0,31.4,97.58a42.989,42.989,0,0,0,4.766.36,42.989,42.989,0,0,0,4.766-.36,17.842,17.842,0,0,0,5.574-1.709C47.666,95.252,48.413,94.577,47.607,93.332Z" transform="translate(-24.107 -61.364)" fill="#e88188"/><path d="M58.289,86.9c-.03-.062-.134-.244-.241-.446l-.012.006a2.9,2.9,0,0,1-4.983,0c-.116.232-.184.306-.253.44-1.7,3.359-.336,9.683.033,10.917q.433.04.892.062v0c.577.03,1.183.048,1.819.048s1.24-.018,1.816-.048c.306-.018.6-.039.895-.065C58.625,96.579,59.986,90.255,58.289,86.9Z" transform="translate(-43.481 -61.35)" fill="#fff"/><path d="M60.338,84.28a3.226,3.226,0,0,0,.276.645l-.012.006a2.9,2.9,0,0,1-4.983,0,2.291,2.291,0,0,0,.262-.651Z" transform="translate(-46.048 -59.825)" fill="#ff7364" opacity="0"/><path d="M0,9.142v0A29.5,29.5,0,0,1,1.183,1.927a2.532,2.532,0,0,1-.722-.9,6.615,6.615,0,0,0,.7-.666A.971.971,0,0,1,1.82,0c.5,0,.8.615,1.359,1.025a2.543,2.543,0,0,1-.722.9,29.655,29.655,0,0,1,1.18,7.215c-.577.029-1.18.047-1.816.047S.577,9.171,0,9.142Z" transform="translate(10.244 27.387)" fill="#f9e0e1"/><path d="M43.4,89.413a6.5,6.5,0,0,1,2.5-1.463c-1.7,3.359-.336,9.683.033,10.917q-1.106-.089-2.054-.247a12.366,12.366,0,0,1-1.727-4.864c-.089-.7,1.588-2.045,1.724-2.158-.143.033-1.79.4-1.7.036A4.145,4.145,0,0,1,43.4,89.413Z" transform="translate(-36.582 -62.404)" fill="#fff"/><path d="M75.177,91.6c.14.107,1.849,1.409,1.724,2.158a14,14,0,0,1-1.727,4.864q-.95.156-2.054.247c.369-1.234,1.73-7.557.033-10.917a6.5,6.5,0,0,1,2.5,1.463,4.145,4.145,0,0,1,1.228,2.221C76.967,92,75.32,91.631,75.177,91.6Z" transform="translate(-58.345 -62.404)" fill="#fff"/><path d="M51.885,15.875h-17.4c-.4-4.641.324-9.291,2.417-11.41A1.843,1.843,0,0,1,38.768,4a1.909,1.909,0,0,0,1.724-.446,1.528,1.528,0,0,1,2.054-.2.981.981,0,0,0,.636.241h.006a.981.981,0,0,0,.636-.241,1.524,1.524,0,0,1,2.051.2A1.917,1.917,0,0,0,47.6,4a1.843,1.843,0,0,1,1.864.461c2.093,2.12,2.821,6.769,2.417,11.41Z" transform="translate(-31.123 -2.738)" fill="#d4d4d4"/><path d="M86.335,45.73a3.235,3.235,0,0,1,1.379.125c1.055.4,1.073,1.736.841,2.557-.274.978-1.311,2.1-2.435,1.718a2.733,2.733,0,0,1-.751-2.058C85.421,47.114,85.7,46.065,86.335,45.73Z" transform="translate(-66.952 -32.718)" fill="#fff"/><path d="M35.068,47.954c.087,1-.372,2.025-1.011,2.175-1.127.386-2.161-.74-2.438-1.718-.229-.821-.214-2.158.844-2.557a3.217,3.217,0,0,1,1.376-.125,2.642,2.642,0,0,1,1.228,2.225Z" transform="translate(-29.099 -32.718)" fill="#fff"/><path d="M50.878,20.874a10.7,10.7,0,0,1-8.375,0c-1.941-.47-3.136,5.084-3.134,7.388,0,.342.054,1.326.1,2.283.018.324.039.648.054.939a4.662,4.662,0,0,0,.29,1.255c2.109,5.916,11.641,5.891,13.98-.078,0-.161.027-.615.059-1.177.015-.291.036-.615.054-.939.051-.957.1-1.941.1-2.283,0-2.3-1.189-7.858-3.134-7.388Z" transform="translate(-34.629 -15.249)" fill="#fff"/><path d="M54.17,57.807a5.534,5.534,0,0,1-1.76,4.528,9.86,9.86,0,0,0-1.2.913,6.045,6.045,0,0,1-1.921,1.6,5.335,5.335,0,0,1-4.456,0,6.038,6.038,0,0,1-1.918-1.6,10.1,10.1,0,0,0-1.2-.913,5.524,5.524,0,0,1-1.76-4.528c0-.161-.027-.615-.059-1.177a3.915,3.915,0,0,0,1.388,2.087,1.639,1.639,0,0,0,1.9-.015,7.764,7.764,0,0,1,7.745,0,1.644,1.644,0,0,0,1.906.015A3.95,3.95,0,0,0,54.23,56.63C54.2,57.192,54.173,57.647,54.17,57.807Z" transform="translate(-35.002 -40.395)" fill="#d4d4d4"/><path d="M58.429,86.89c-.068-.134-.137-.208-.253-.44a4.721,4.721,0,0,1-.294.428,2.93,2.93,0,0,1-4.4,0,4.718,4.718,0,0,1-.294-.428c-.116.232-.185.306-.253.44a8.532,8.532,0,0,0-.773,3.083,2.652,2.652,0,0,0,1.857-.03,3.931,3.931,0,0,0,.971-.795c.092-.089.45-.418.69-.418s.6.329.69.418a3.931,3.931,0,0,0,.971.795,2.662,2.662,0,0,0,1.857.03,8.532,8.532,0,0,0-.773-3.083Z" transform="translate(-43.621 -61.35)" fill="#fff"/><g transform="translate(0 0)"><path d="M47.174,33.828a14.715,14.715,0,0,0-6.279-5.048,6.851,6.851,0,0,0-2.457-1.457l-.041-.076c-.042-.076-.092-.168-.142-.262-.035-.069-.117-.228-.178-.368a6.57,6.57,0,0,0,1.787-1.555,3.635,3.635,0,0,1,.684-.535c.176-.119.343-.23.473-.339a5.57,5.57,0,0,0,1.858-4.4,1.644,1.644,0,0,0,.171.015,1.843,1.843,0,0,0,.859-.222,3.008,3.008,0,0,0,1.4-1.791,2.385,2.385,0,0,0-.816-2.822C44.9,9.9,43.944,5.529,41.978,3.538A2.152,2.152,0,0,0,39.812,3a1.661,1.661,0,0,1-1.393-.334,1.877,1.877,0,0,0-1.251-.632,1.542,1.542,0,0,0-1.246.39.673.673,0,0,1-.873,0,1.543,1.543,0,0,0-1.246-.39,1.88,1.88,0,0,0-1.25.633,1.653,1.653,0,0,1-1.391.336,2.146,2.146,0,0,0-2.167.535c-1.966,1.992-2.922,6.36-2.517,11.434a2.393,2.393,0,0,0-.82,2.823,3.021,3.021,0,0,0,1.406,1.792,1.841,1.841,0,0,0,.858.22,1.674,1.674,0,0,0,.172-.014,5.565,5.565,0,0,0,1.858,4.4c.131.109.3.221.474.34a3.718,3.718,0,0,1,.686.535,6.511,6.511,0,0,0,1.794,1.56A3.092,3.092,0,0,1,32.73,27a2.773,2.773,0,0,1-.149.261l-.041.066a6.851,6.851,0,0,0-2.461,1.458A14.7,14.7,0,0,0,23.8,33.828a1.81,1.81,0,0,0-.342,1.459,2.784,2.784,0,0,0,1.548,1.5,18.058,18.058,0,0,0,5.607,1.731.3.3,0,0,0,.113.023l.013,0c.633.1,1.308.183,2.008.238h.031c.279.025.565.046.857.059.006,0,.01,0,.016,0,.616.032,1.233.048,1.835.048s1.208-.016,1.834-.048c.3-.018.591-.039.874-.064h.027c.7-.057,1.38-.138,2.012-.24l.013,0a.3.3,0,0,0,.113-.023,18.089,18.089,0,0,0,5.607-1.731,2.787,2.787,0,0,0,1.548-1.5,1.811,1.811,0,0,0-.342-1.457ZM28.617,18.207c-.008-.156-.018-.319-.028-.488l-.022-.39s0-.006,0-.009,0-.013,0-.02c-.049-.919-.1-1.927-.1-2.267,0-1.806.811-5.9,2.092-6.913a.83.83,0,0,1,.515-.2.685.685,0,0,1,.16.019,6.647,6.647,0,0,1,.788.259,8.594,8.594,0,0,0,3.471.6,8.576,8.576,0,0,0,3.468-.6,6.671,6.671,0,0,1,.788-.259.764.764,0,0,1,.675.186c1.282,1.009,2.093,5.107,2.091,6.913,0,.335-.052,1.346-.1,2.267,0,.007,0,.013,0,.02s0,.006,0,.009l-.023.39c-.01.169-.02.334-.028.488A3.636,3.636,0,0,1,41.09,20.1a1.352,1.352,0,0,1-1.558-.013A7.383,7.383,0,0,0,35.487,19a7.4,7.4,0,0,0-4.048,1.091,1.346,1.346,0,0,1-1.554.015A3.6,3.6,0,0,1,28.617,18.207Zm16.124-.571a2.422,2.422,0,0,1-1.107,1.425,1.189,1.189,0,0,1-.736.14c.01-.21.027-.526.05-.929.008-.164.019-.339.03-.518L43,17.425a1.9,1.9,0,0,1,.848-.688.3.3,0,1,0-.169-.57,2.141,2.141,0,0,0-.632.357c.025-.487.045-.922.054-1.219a3.1,3.1,0,0,1,.983.133c.915.345.832,1.588.659,2.2ZM29.417,3.958a1.547,1.547,0,0,1,1.561-.386,2.19,2.19,0,0,0,2.058-.557,1.319,1.319,0,0,1,.829-.384.949.949,0,0,1,.78.234,1.264,1.264,0,0,0,.827.32l.03,0v0a1.264,1.264,0,0,0,.826-.32.947.947,0,0,1,.779-.235,1.315,1.315,0,0,1,.829.386A2.2,2.2,0,0,0,40,3.571a1.552,1.552,0,0,1,1.561.386c1.83,1.853,2.721,5.98,2.358,10.822a4.049,4.049,0,0,0-.817-.069c-.081-2.014-.887-5.934-2.31-7.056a1.338,1.338,0,0,0-1.183-.3,7.113,7.113,0,0,0-.858.281,7.962,7.962,0,0,1-3.26.565,7.982,7.982,0,0,1-3.262-.565,7.08,7.08,0,0,0-.857-.28,1.338,1.338,0,0,0-1.182.3c-1.424,1.123-2.232,5.044-2.312,7.059a4.013,4.013,0,0,0-.815.068c-.364-4.843.528-8.97,2.358-10.823Zm-2.078,15.1a2.432,2.432,0,0,1-1.109-1.427c-.17-.61-.251-1.855.663-2.2a3.062,3.062,0,0,1,.981-.133c.01.3.03.741.055,1.22a2.152,2.152,0,0,0-.635-.357.3.3,0,0,0-.171.57,1.9,1.9,0,0,1,.853.688l.019.329c.01.178.021.354.03.52.023.4.04.718.05.927a1.2,1.2,0,0,1-.736-.138Zm4.229,5.623a3.979,3.979,0,0,0-.811-.648c-.163-.11-.318-.213-.426-.3a5,5,0,0,1-1.646-4.026,3.766,3.766,0,0,0,.853.879,1.948,1.948,0,0,0,2.251-.016,6.668,6.668,0,0,1,3.7-.978,6.66,6.66,0,0,1,3.7.978,1.95,1.95,0,0,0,1.142.371,1.907,1.907,0,0,0,1.113-.357,3.766,3.766,0,0,0,.851-.879,5.008,5.008,0,0,1-1.647,4.03c-.107.089-.261.193-.425.3a3.891,3.891,0,0,0-.812.649,5.76,5.76,0,0,1-1.825,1.527,5.039,5.039,0,0,1-4.19,0,5.738,5.738,0,0,1-1.822-1.528ZM37.645,27.1a2.6,2.6,0,0,1-4.305.016c.037-.072.072-.15.1-.234a5.619,5.619,0,0,0,4.1-.005C37.57,26.942,37.605,27.018,37.645,27.1Zm-12.357,9.17c-.782-.418-1.157-.755-1.253-1.13a1.263,1.263,0,0,1,.265-.987,13.754,13.754,0,0,1,4.92-4.286,4.649,4.649,0,0,0-.49,1.315.383.383,0,0,0,.1.367c.053.054.157.16.574.16.094,0,.206-.006.336-.019-.605.59-1.1,1.234-1.038,1.724a13.651,13.651,0,0,0,1.424,4.421,16.87,16.87,0,0,1-4.836-1.566Zm5.6,1.7a12.5,12.5,0,0,1-1.6-4.626c-.032-.245.452-.931,1.6-1.877a.3.3,0,0,0-.249-.531,6.941,6.941,0,0,1-1.278.186h0a3.79,3.79,0,0,1,1.1-1.873A6.422,6.422,0,0,1,32.2,28.088c-1.256,3.393-.171,8.57.188,10.063C31.866,38.1,31.365,38.038,30.888,37.963Zm3.082.3a30.975,30.975,0,0,1,1.056-6.5,1.227,1.227,0,0,0,.922,0A31.139,31.139,0,0,1,37,38.264C35.98,38.309,34.988,38.309,33.971,38.265Zm.537-7.764c.133-.119.257-.238.366-.352.056-.059.111-.116.166-.169.2-.2.327-.274.448-.274.18,0,.351.169.615.446.108.113.231.233.364.351a2.007,2.007,0,0,1-.515.591.738.738,0,0,1-.929,0,2,2,0,0,1-.515-.593Zm3.461,7.7c-.123.01-.249.019-.374.027a30.917,30.917,0,0,0-1.13-6.8,2.744,2.744,0,0,0,.483-.58,1.943,1.943,0,0,0,.944.241,2.241,2.241,0,0,0,.226-.012.3.3,0,1,0-.059-.592,1.413,1.413,0,0,1-1.036-.294,3.917,3.917,0,0,1-.491-.456,1.522,1.522,0,0,0-1.044-.627,1.243,1.243,0,0,0-.866.446c-.058.057-.116.119-.176.18a4.087,4.087,0,0,1-.494.458,1.413,1.413,0,0,1-1.036.294.3.3,0,1,0-.059.592,1.977,1.977,0,0,0,1.169-.23,2.755,2.755,0,0,0,.483.581,30.786,30.786,0,0,0-1.133,6.8c-.124-.008-.249-.016-.371-.026-.449-1.662-1.553-7.421,0-10.5,0-.007.008-.013.012-.02a3.211,3.211,0,0,0,4.935,0l.01.019c1.557,3.079.453,8.84,0,10.5Zm2.116-.241c-.476.075-.976.138-1.5.188.36-1.5,1.445-6.676.189-10.063a6.417,6.417,0,0,1,1.741,1.154,3.793,3.793,0,0,1,1.1,1.873h-.005a6.941,6.941,0,0,1-1.278-.186.3.3,0,0,0-.245.533c.981.753,1.654,1.536,1.6,1.863a14.481,14.481,0,0,1-1.6,4.638Zm6.855-2.824c-.1.373-.471.71-1.253,1.13a16.884,16.884,0,0,1-4.846,1.569,16.274,16.274,0,0,0,1.433-4.412c.089-.532-.424-1.185-1-1.731q.169.015.3.015c.416,0,.521-.106.574-.16a.382.382,0,0,0,.1-.366,4.668,4.668,0,0,0-.49-1.316,13.733,13.733,0,0,1,4.919,4.286,1.262,1.262,0,0,1,.263.985Z" transform="translate(-23.423 -2.022)" fill="#797c7e"/></g></g></g></svg>