<svg xmlns="http://www.w3.org/2000/svg" width="44" height="44" viewBox="0 0 44 44"><g transform="translate(-605 -1412)"><rect width="44" height="44" rx="2" transform="translate(605 1412)" fill="#dee2e6" opacity="0"/><g transform="translate(611.243 1415.568)"><path d="M43.761,92.359a17.652,17.652,0,0,0-3.306-4.028c-.321-.288-.657-.568-1.014-.844-.63-.491-1.323-.978-2.108-1.486H21.648c-.8.517-1.5,1.011-2.141,1.51-.345.271-.672.541-.981.821a17.652,17.652,0,0,0-3.306,4.028c-.883,1.415.178,2.3,1.174,2.908.175.11.351.208.511.3,1.808,1.014,8.485,2.031,12.585,2.031s10.777-1.017,12.585-2.031c.161-.089.336-.187.511-.3,1-.6,2.057-1.492,1.174-2.908Z" transform="translate(-14.602 -61.027)" fill="#e88188"/><path d="M111.95,39.32a13.5,13.5,0,0,1-.217,4.3,1.813,1.813,0,0,1-2.051,1.106,1.475,1.475,0,0,1,.062-1.266h0a.981.981,0,0,0,.966-.69,20.849,20.849,0,0,0,.22-3.327A5.575,5.575,0,0,0,111.95,39.32Z" transform="translate(-81.132 -28.225)" fill="#797c7e"/><path d="M112.332,31.21a1.292,1.292,0,0,1,.651,2.411,1.272,1.272,0,0,1-.651.178,1.236,1.236,0,0,1-.366-.054,1.294,1.294,0,0,1,.366-2.536Z" transform="translate(-82.164 -22.526)" fill="#797c7e"/><g transform="translate(0.289 11.791)"><path d="M19.525,41.66a33.976,33.976,0,0,1,.214,7.334c-1.252,0-1.909-1.647-1.909-3.678s.443-3.657,1.695-3.657Z" transform="translate(-16.956 -41.66)" fill="#f9e0e1"/><path d="M105.656,45.106c0,.071,0,.14,0,.211a7.981,7.981,0,0,1-.065,1.055c-.19,1.516-.818,2.622-1.843,2.622,0-1.992.1-4.581.214-7.334,1.207,0,1.662,1.513,1.692,3.446Z" transform="translate(-77.332 -41.66)" fill="#f9e0e1"/><path d="M19.594,95.621c.012,1.24-1.412,3.951-3.2,5.155-1-.6-2.057-1.492-1.174-2.908a17.652,17.652,0,0,1,3.306-4.028,2.06,2.06,0,0,1,1.067,1.781Z" transform="translate(-14.891 -78.327)" fill="#f9e0e1"/><path d="M101.663,97.868c.883,1.415-.178,2.3-1.174,2.908-1.787-1.2-3.211-3.915-3.2-5.155a2.06,2.06,0,0,1,1.067-1.781A17.652,17.652,0,0,1,101.663,97.868Z" transform="translate(-72.793 -78.327)" fill="#f9e0e1"/></g><path d="M40.4,87.412v2.123a23.405,23.405,0,0,1-9.98-2.019l0-.006c.636-.5,1.344-.993,2.141-1.51h0A18.812,18.812,0,0,0,40.4,87.412Z" transform="translate(-25.514 -61.027)" fill="#fff"/><path d="M71.843,86c.785.508,1.478,1,2.108,1.486A23.214,23.214,0,0,1,64,89.535V87.412A18.837,18.837,0,0,0,71.843,86Z" transform="translate(-49.111 -61.027)" fill="#fff"/><path d="M47.043,14.494a19.744,19.744,0,0,1,.232,3.05,18.992,18.992,0,0,1-.446,4.284c-.618,2.679-1.906,4.757-3.975,5.848a18.837,18.837,0,0,1-7.843,1.412,18.812,18.812,0,0,1-7.84-1.412h0c-2.072-1.091-3.356-3.172-3.975-5.848a18.993,18.993,0,0,1-.446-4.284,19.745,19.745,0,0,1,.232-3.05C23.979,8.036,28.2,3,35.011,3S46.044,8.036,47.043,14.494Z" transform="translate(-20.122 -2.703)" fill="#fff"/><path d="M51.23,29.19c0,5.006-2.155,9.365-9.365,9.365S32.5,34.2,32.5,29.19s3.716-8.77,9.365-8.77S51.23,24.181,51.23,29.19Z" transform="translate(-26.976 -14.944)" fill="#797c7e"/><circle cx="0.985" cy="0.985" r="0.985" transform="translate(19.014 8.324)" fill="#fff"/><path d="M41.162,19.42c-5.689,0-9.662,3.729-9.662,9.068,0,4.408,1.676,9.662,9.662,9.662s9.662-5.254,9.662-9.662C50.824,23.149,46.851,19.42,41.162,19.42Zm0,18.135c-6.017,0-9.068-3.051-9.068-9.068,0-4.989,3.729-8.473,9.068-8.473S50.23,23.5,50.23,28.488C50.23,34.5,47.179,37.555,41.162,37.555Z" transform="translate(-26.273 -14.241)" fill="#797c7e"/><path d="M45.679,11.977a1.592,1.592,0,1,0-2.259,1.444,18.557,18.557,0,0,1-.211,3.065.587.587,0,0,1-.394.4c-.109-2.509-.939-3.247-1.722-3.367C39.908,6.406,35.22,2,28.807,2s-11.1,4.407-12.286,11.515c-.845.129-1.738.965-1.738,3.933,0,2.27.765,3.784,1.97,3.957A8.662,8.662,0,0,0,20.4,26.99c-.674.448-1.256.864-1.759,1.259-.376.3-.7.565-.99.828l0,0a18.009,18.009,0,0,0-3.359,4.093,2.017,2.017,0,0,0-.329,1.559,3.156,3.156,0,0,0,1.6,1.758c.18.113.36.214.524.3,1.95,1.1,8.743,2.069,12.728,2.069s10.779-.974,12.729-2.068c.165-.092.345-.192.521-.3a3.161,3.161,0,0,0,1.6-1.76,2.017,2.017,0,0,0-.329-1.559,18.006,18.006,0,0,0-3.359-4.092l-.005,0c-.322-.289-.654-.566-1.017-.847l-.006,0c-.522-.406-1.092-.813-1.724-1.235a8.667,8.667,0,0,0,3.646-5.586c.933-.135,1.611-1.076,1.86-2.586.026,0,.055.005.08.005a2.076,2.076,0,0,0,2-1.33,13.712,13.712,0,0,0,.244-4.247,1.586,1.586,0,0,0,.631-1.271Zm-30.3,5.47c0-1.122.149-2.919,1.047-3.288a20.229,20.229,0,0,0-.178,2.681,19.835,19.835,0,0,0,.367,3.915C15.764,20.417,15.379,18.927,15.379,17.448Zm21.249,9.867c.572.374,1.09.735,1.567,1.091a23.681,23.681,0,0,1-9.09,1.8V28.679A19.161,19.161,0,0,0,36.628,27.315ZM28.51,30.207a23.863,23.863,0,0,1-9.127-1.775c.468-.351,1-.72,1.605-1.118a19.122,19.122,0,0,0,7.522,1.365ZM14.534,34.6a1.431,1.431,0,0,1,.255-1.107,17.586,17.586,0,0,1,3.092-3.816,1.8,1.8,0,0,1,.732,1.414A7.94,7.94,0,0,1,15.7,35.881,2.469,2.469,0,0,1,14.534,34.6Zm1.714,1.614c1.643-1.322,2.973-3.813,2.959-5.129a2.389,2.389,0,0,0-.877-1.809c.164-.14.339-.285.528-.436A23.941,23.941,0,0,0,28.51,30.8v7.467c-4.237-.046-10.488-1.063-12.143-1.992ZM29.1,38.268V30.8a23.8,23.8,0,0,0,9.615-1.992q.292.23.563.464a2.389,2.389,0,0,0-.875,1.808c-.013,1.316,1.316,3.805,2.959,5.129l-.119.067C39.592,37.206,33.342,38.222,29.1,38.268Zm13.721-4.779A1.431,1.431,0,0,1,43.08,34.6a2.466,2.466,0,0,1-1.164,1.285A7.933,7.933,0,0,1,39,31.088a1.8,1.8,0,0,1,.732-1.414,17.585,17.585,0,0,1,3.09,3.816Zm-6.313-6.778a18.72,18.72,0,0,1-7.7,1.377,18.661,18.661,0,0,1-7.7-1.378l-.024-.011c-1.891-1-3.17-2.9-3.8-5.642a18.73,18.73,0,0,1-.438-4.216,19.465,19.465,0,0,1,.229-3C18.142,6.9,22.64,2.595,28.807,2.595S39.473,6.9,40.545,13.837a19.452,19.452,0,0,1,.229,3,18.718,18.718,0,0,1-.439,4.217c-.634,2.747-1.921,4.648-3.823,5.652ZM41,20.754a19.808,19.808,0,0,0,.367-3.912,20.233,20.233,0,0,0-.178-2.682c.862.358,1.028,2.035,1.045,3.09,0,.067,0,.132,0,.2a7.738,7.738,0,0,1-.063,1.018c-.155,1.23-.583,2.046-1.173,2.287ZM44.237,17.3a1.478,1.478,0,0,1-1.444.924c.021-.233.035-.476.036-.729a1.208,1.208,0,0,0,.961-.888,18.108,18.108,0,0,0,.222-3.043c.024,0,.048.005.073.005a1.576,1.576,0,0,0,.381-.049,12.1,12.1,0,0,1-.229,3.78Zm.347-4.462a.994.994,0,0,1-.777.1h0a1,1,0,1,1,.782-.1Z" transform="translate(-13.918 -2)" fill="#797c7e"/></g></g></svg>