<svg xmlns="http://www.w3.org/2000/svg" width="44" height="44" viewBox="0 0 44 44"><g transform="translate(-605 -1593)"><rect width="44" height="44" rx="2" transform="translate(605 1593)" fill="#dee2e6" opacity="0"/><g transform="translate(615.108 1596.568)"><path d="M56.737,84.481c-.978,1.677-3.249,2.114-5.283,2.114-2.426,0-4.48-.794-5.3-2.1,1.151-.538,2.456-1.1,2.842-2.86a5.2,5.2,0,0,0,.116-1.136h4.7a4.894,4.894,0,0,0,.116,1.091A4.126,4.126,0,0,0,56.737,84.481Z" transform="translate(-39.61 -57.172)" fill="#ff7364" opacity="0"/><path d="M1.373,11.783C.267,11.172-.449,10.5.324,9.271a13.842,13.842,0,0,1,4.754-4.29c-.966-.52-1.635-1.123-1.753-1.661-.217-1,1.2-3.2,2.226-3.312.94-.1,2.283.708,3.461,1.826C10.362,3.118,11.493,4.807,11.554,6h.005c.061-1.194,1.191-2.883,2.542-4.167C15.279.716,16.623-.092,17.562.009c1.023.113,2.444,2.307,2.227,3.312-.119.538-.787,1.141-1.752,1.661A13.835,13.835,0,0,1,22.789,9.27c.773,1.232.058,1.9-1.049,2.512-1.141.628-4.614,1.948-10.183,1.948S2.514,12.409,1.373,11.783Z" transform="translate(0.29 22.948)" fill="#e88188"/><path d="M60.639,81.591a4.553,4.553,0,0,1-2.5.7,4.641,4.641,0,0,1-2.432-.651,5.2,5.2,0,0,0,.116-1.136h4.7a4.894,4.894,0,0,0,.116,1.091Z" transform="translate(-46.328 -57.172)" fill="#ed4850" opacity="0"/><path d="M32.814,47.256c1.215,1.652,1.265,2.544.523,4.5A2.675,2.675,0,0,1,30.2,50.029a2.408,2.408,0,0,1,.372-2.429v0a1.665,1.665,0,0,1,.571-.384A2.468,2.468,0,0,1,32.814,47.256Z" transform="translate(-28.29 -33.694)" fill="#ff7364" opacity="0"/><path d="M86.581,47.256a2.46,2.46,0,0,1,1.668-.042,1.619,1.619,0,0,1,.63.449,2.449,2.449,0,0,1,.312,2.366,2.672,2.672,0,0,1-3.134,1.727,4.611,4.611,0,0,1,.523-4.5Z" transform="translate(-67.4 -33.694)" fill="#ff7364" opacity="0"/><path d="M53.655,21.937a17.5,17.5,0,0,1-.107,2.227,18.613,18.613,0,0,1-.416,2.274A6.779,6.779,0,0,1,48.669,31.7a9.706,9.706,0,0,1-1.43.381,4.849,4.849,0,0,1-1.828,0,9.467,9.467,0,0,1-1.439-.384,6.777,6.777,0,0,1-4.451-5.262,16.942,16.942,0,0,1-.523-4.5c0-1.026-.972-5.179,1.915-8.295,3.574-3.858,9.153-2.973,11.205-.111,2.374,3.311,1.522,5.656,1.537,8.406Z" transform="translate(-34.474 -8.375)" fill="#ff977b" opacity="0"/><path d="M49.577,11.733a13.568,13.568,0,0,1-.1,4.947,1.619,1.619,0,0,0-.63-.449,2.46,2.46,0,0,0-1.668.042,17.155,17.155,0,0,0-1.451-5.432,1.484,1.484,0,0,0-2.572-.309c-1.555,2.149-4.257,4.094-9.142,4.231-.3.009-.279-1.026.1-2.405a.212.212,0,0,1,.012-.048,6.716,6.716,0,0,0-1,1.727,6.665,6.665,0,0,0-.6,2.236,2.468,2.468,0,0,0-1.671-.042,1.665,1.665,0,0,0-.571.384A7.682,7.682,0,0,1,30.414,14c.015-.068.042-.166.074-.294.018-.065.033-.122.048-.169s.03-.1.048-.158l.027-.071a1.2,1.2,0,0,1-.446.169.436.436,0,0,1-.22-.036c-.256-.119-.44-.556-.226-1.781a9.213,9.213,0,0,1,4.706-7.031c2-1.255,6.139-3.032,9.915.223,4.109-.036,7.3,7.073,5.238,6.885Z" transform="translate(-27.997 -2.711)" fill="#6b6d6f"/><g transform="translate(0 0)"><path d="M47.483,34.093a13.974,13.974,0,0,0-4.418-4.128,3.072,3.072,0,0,0,1.457-1.6,3.589,3.589,0,0,0-.815-2.4,2.954,2.954,0,0,0-1.67-1.273c-1.149-.124-2.521.872-3.316,1.561a5.108,5.108,0,0,1-.069-.693,6.986,6.986,0,0,0,4.37-5.1,2.2,2.2,0,0,0,.418.043,2.757,2.757,0,0,0,1.211-.3,3.073,3.073,0,0,0,1.576-1.741,2.77,2.77,0,0,0-.283-2.537,14.407,14.407,0,0,0,.142-4.608A.755.755,0,0,0,46.5,11c.441-.671-.026-2.055-.611-3.126-1-1.829-2.971-3.954-5.283-4-4.03-3.393-8.458-1.26-10.183-.178a9.474,9.474,0,0,0-4.841,7.231c-.2,1.142-.1,1.8.317,2.061a.706.706,0,0,0,.419.106,8.02,8.02,0,0,0-.188,2.754,2.751,2.751,0,0,0-.347,2.612A3.084,3.084,0,0,0,27.36,20.2a2.755,2.755,0,0,0,1.209.3,2.224,2.224,0,0,0,.419-.043,6.987,6.987,0,0,0,4.359,5.1,5.059,5.059,0,0,1-.069.7c-.794-.689-2.163-1.684-3.317-1.561a2.96,2.96,0,0,0-1.669,1.273,3.588,3.588,0,0,0-.815,2.4,3.077,3.077,0,0,0,1.457,1.6,13.982,13.982,0,0,0-4.418,4.127,1.827,1.827,0,0,0-.327,1.451,2.727,2.727,0,0,0,1.484,1.48c.369.2,3.791,1.984,10.326,1.984s9.957-1.781,10.326-1.984a2.73,2.73,0,0,0,1.484-1.48,1.826,1.826,0,0,0-.324-1.451Zm-5.511-8.808a2.351,2.351,0,0,1,1.252,1.03,3.072,3.072,0,0,1,.717,1.923c-.095.427-.694.974-1.605,1.464a10.914,10.914,0,0,1-4.623,1.219c-.074-.2-.149-.395-.228-.6a.3.3,0,1,0-.552.221c.05.125.094.246.141.369a7,7,0,0,1-.76-.075,7.81,7.81,0,0,1,2.435-3.807C39.969,25.871,41.2,25.2,41.972,25.285ZM36,29.794a10.174,10.174,0,0,0-2.214-3.072,5.086,5.086,0,0,0,.15-.965,10.083,10.083,0,0,0,1.1.276,5.13,5.13,0,0,0,1.939,0,10.3,10.3,0,0,0,1.09-.274,5.066,5.066,0,0,0,.149.963A10.184,10.184,0,0,0,36,29.794Zm9.662-11.517a2.506,2.506,0,0,1-1.272,1.391,2.015,2.015,0,0,1-1.224.211,18.545,18.545,0,0,0,.345-1.934,1.672,1.672,0,0,1,1.2-.5.3.3,0,1,0,.021-.595,2.442,2.442,0,0,0-1.139.279c.03-.45.042-.883.042-1.338a2.411,2.411,0,0,1,1.261.036,1.324,1.324,0,0,1,.516.368A2.172,2.172,0,0,1,45.661,18.277ZM26.215,12.485c-.011-.007-.272-.188-.049-1.457A8.935,8.935,0,0,1,30.737,4.2c2.019-1.265,5.946-2.923,9.563.2a.3.3,0,0,0,.194.072h.03c2.085,0,3.909,1.987,4.84,3.694.674,1.236.831,2.218.636,2.515-.021.032-.063.1-.242.083a.3.3,0,0,0-.249.1.3.3,0,0,0-.069.258,12.093,12.093,0,0,1-.03,4.315,1.91,1.91,0,0,0-.292-.151,2.991,2.991,0,0,0-1.507-.093,19.525,19.525,0,0,0-1.454-5.137,1.781,1.781,0,0,0-3.088-.37c-1.871,2.586-4.829,3.968-8.792,4.1a5.428,5.428,0,0,1,.292-2.064s0-.007,0-.01C30.86,10.692,32,7.263,34.647,5.8a.3.3,0,0,0-.287-.521c-2.8,1.544-4.013,5.065-4.34,6.2a8.934,8.934,0,0,0-1.607,3.7,2.94,2.94,0,0,0-1.518.087,1.887,1.887,0,0,0-.21.1,7.4,7.4,0,0,1,.358-2.648.3.3,0,0,0-.45-.347C26.5,12.445,26.3,12.537,26.215,12.485Zm1.406,7.184a2.514,2.514,0,0,1-1.276-1.393,2.12,2.12,0,0,1,.3-2.13s0,0,0-.005a1.376,1.376,0,0,1,.47-.314,2.386,2.386,0,0,1,1.256-.034c0,.425.008.862.041,1.34a2.425,2.425,0,0,0-1.137-.28A.3.3,0,0,0,27,17.16a.3.3,0,0,0,.306.287,1.658,1.658,0,0,1,1.2.5,19.14,19.14,0,0,0,.345,1.932,2.022,2.022,0,0,1-1.223-.211Zm1.868.357a16.664,16.664,0,0,1-.515-4.43h0a6.981,6.981,0,0,1,.7-2.4,1.6,1.6,0,0,0,.149,1.02.442.442,0,0,0,.351.17c4.216-.117,7.369-1.581,9.373-4.352a1.186,1.186,0,0,1,2.056.247,16.442,16.442,0,0,1,1.429,5.32,17.173,17.173,0,0,1-.105,2.192,18.355,18.355,0,0,1-.41,2.239,6.434,6.434,0,0,1-4.272,5.054,9.47,9.47,0,0,1-1.387.37,4.525,4.525,0,0,1-1.717,0,9.2,9.2,0,0,1-1.395-.371,6.435,6.435,0,0,1-4.261-5.052Zm-1.432,8.213a3.078,3.078,0,0,1,.717-1.924,2.353,2.353,0,0,1,1.251-1.03,1.275,1.275,0,0,1,.132-.007,5.47,5.47,0,0,1,3.092,1.752,7.809,7.809,0,0,1,2.435,3.807,6.982,6.982,0,0,1-.76.074c.047-.122.092-.244.141-.368a.3.3,0,0,0-.552-.221c-.081.2-.154.4-.228.6A10.914,10.914,0,0,1,29.662,29.7c-.911-.491-1.511-1.038-1.6-1.463Zm19.176,7.156c-.095.366-.452.7-1.195,1.108-.357.2-3.653,1.91-10.039,1.91S26.315,36.7,25.96,36.5c-.743-.41-1.1-.742-1.195-1.108a1.278,1.278,0,0,1,.254-.986A13.336,13.336,0,0,1,29.534,30.3a11.431,11.431,0,0,0,4.538,1.2,27.019,27.019,0,0,0-1.06,4.082.3.3,0,0,0,.247.34.321.321,0,0,0,.047,0,.3.3,0,0,0,.293-.251,27.024,27.024,0,0,1,1.1-4.165,7.442,7.442,0,0,0,1.3-.133,7.449,7.449,0,0,0,1.3.134,27.085,27.085,0,0,1,1.1,4.165.3.3,0,0,0,.293.251.283.283,0,0,0,.047,0,.3.3,0,0,0,.247-.34,26.987,26.987,0,0,0-1.06-4.083,11.429,11.429,0,0,0,4.538-1.2,13.337,13.337,0,0,1,4.516,4.107,1.278,1.278,0,0,1,.252.986Z" transform="translate(-24.152 -2.033)" fill="#797c7e"/></g></g></g></svg>